<?xml version="1.0" encoding="UTF-8"?>
<svg width="112px" height="126px" viewBox="0 0 112 126" version="1.1" xmlns="http://www.w3.org/2000/svg" xmlns:xlink="http://www.w3.org/1999/xlink">
    <!-- Generator: Sketch 42 (36781) - http://www.bohemiancoding.com/sketch -->
    <title>KTC-Logo</title>
    <desc>Created with Sketch.</desc>
    <defs>
        <polygon id="path-1" points="11.3221219 0.104729858 0.334742246 0.104729858 0.334742246 11.1466877 11.3221219 11.1466877 11.3221219 0.104729858"></polygon>
        <polygon id="path-3" points="0.334742246 11.6398104 11.3221219 11.6398104 11.3221219 0.596949763 0.334742246 0.596949763 0.334742246 11.6398104"></polygon>
    </defs>
    <g id="Page-1" stroke="none" stroke-width="1" fill="none" fill-rule="evenodd">
        <g id="KTC-Loading-Page-3" transform="translate(-664.000000, -382.000000)">
            <g id="Group-4" transform="translate(281.000000, 382.000000)">
                <g id="KTC-Logo" transform="translate(383.000000, 0.000000)">
                    <g id="Group-15" transform="translate(50.310160, 0.498069)">
                        <mask id="mask-2" fill="white">
                            <use xlink:href="#path-1"></use>
                        </mask>
                        <g id="Clip-14"></g>
                        <path d="M11.3221219,5.62489621 C11.3221219,8.6747019 8.86231444,11.1466877 5.82753369,11.1466877 C2.79454973,11.1466877 0.334742246,8.6747019 0.334742246,5.62489621 C0.334742246,2.57509052 2.79454973,0.103104739 5.82753369,0.103104739 C8.86231444,0.103104739 11.3221219,2.57509052 11.3221219,5.62489621" id="Fill-13" fill="#19B2CC" mask="url(#mask-2)"></path>
                    </g>
                    <path d="M61.6322824,62.846281 C61.6322824,65.8960867 59.1724749,68.3680725 56.1376941,68.3680725 C53.1047102,68.3680725 50.6449027,65.8960867 50.6449027,62.846281 C50.6449027,59.7964754 53.1047102,57.3244896 56.1376941,57.3244896 C59.1724749,57.3244896 61.6322824,59.7964754 61.6322824,62.846281" id="Fill-16" fill="#FFFFFF"></path>
                    <path d="M10.987739,34.833572 C10.987739,37.8833777 8.52793155,40.3553635 5.4931508,40.3553635 C2.46016684,40.3553635 0.000359358293,37.8833777 0.000359358293,34.833572 C0.000359358293,31.7837664 2.46016684,29.3117806 5.4931508,29.3117806 C8.52793155,29.3117806 10.987739,31.7837664 10.987739,34.833572" id="Fill-18" fill="#19B2CC"></path>
                    <path d="M111.687478,34.833572 C111.687478,37.8833777 109.227671,40.3553635 106.19289,40.3553635 C103.159906,40.3553635 100.700098,37.8833777 100.700098,34.833572 C100.700098,31.7837664 103.159906,29.3117806 106.19289,29.3117806 C109.227671,29.3117806 111.687478,31.7837664 111.687478,34.833572" id="Fill-20" fill="#FFFFFF"></path>
                    <path d="M10.987739,91.2918133 C10.987739,94.341619 8.52793155,96.8136047 5.4931508,96.8136047 C2.46016684,96.8136047 0.000359358293,94.341619 0.000359358293,91.2918133 C0.000359358293,88.2420076 2.46016684,85.7700218 5.4931508,85.7700218 C8.52793155,85.7700218 10.987739,88.2420076 10.987739,91.2918133" id="Fill-22" fill="#19B2CC"></path>
                    <path d="M111.687478,91.2918133 C111.687478,94.341619 109.227671,96.8136047 106.19289,96.8136047 C103.159906,96.8136047 100.700098,94.341619 100.700098,91.2918133 C100.700098,88.2420076 103.159906,85.7700218 106.19289,85.7700218 C109.227671,85.7700218 111.687478,88.2420076 111.687478,91.2918133" id="Fill-24" fill="#FFFFFF"></path>
                    <g id="Group-34" transform="translate(50.310160, 113.450675)">
                        <mask id="mask-4" fill="white">
                            <use xlink:href="#path-3"></use>
                        </mask>
                        <g id="Clip-33"></g>
                        <path d="M11.3221219,6.11874123 C11.3221219,9.16854692 8.86231444,11.6405327 5.82753369,11.6405327 C2.79454973,11.6405327 0.334742246,9.16854692 0.334742246,6.11874123 C0.334742246,3.06893555 2.79454973,0.596949763 5.82753369,0.596949763 C8.86231444,0.596949763 11.3221219,3.06893555 11.3221219,6.11874123" id="Fill-32" fill="#FFFFFF" mask="url(#mask-4)"></path>
                    </g>
                </g>
            </g>
        </g>
    </g>
</svg>