<?xml version="1.0" encoding="utf-8"?>
<!-- Generator: Adobe Illustrator 19.2.1, SVG Export Plug-In . SVG Version: 6.00 Build 0)  -->
<svg version="1.1" id="Layer_1" xmlns="http://www.w3.org/2000/svg" xmlns:xlink="http://www.w3.org/1999/xlink" x="0px" y="0px"
	 viewBox="0 0 44 44" style="enable-background:new 0 0 44 44;" xml:space="preserve">
<style type="text/css">
	.st0{fill:#006CC4;}
	.st1{fill:#FFFFFF;}
</style>
<path id="rect2990-1" class="st0" d="M22,0.5L22,0.5c11.9,0,21.5,9.6,21.5,21.5l0,0c0,11.9-9.6,21.5-21.5,21.5l0,0
	C10.1,43.5,0.5,33.9,0.5,22l0,0C0.5,10.1,10.1,0.5,22,0.5z"/>
<path id="rect2989-1" class="st1" d="M24.07,9.87L10,12.59v18.55l14.07,2.99V9.87z M24.95,15.05v4.75l1.67,1.05h0.18l7.12-4.84
	c0-0.53-0.53-0.97-0.79-0.97H24.95z M17.21,17.78c0.97,0,1.67,0.35,2.29,1.14s0.88,1.76,0.88,2.99c0,1.32-0.26,2.29-0.88,3.08
	s-1.41,1.14-2.37,1.14s-1.67-0.35-2.29-1.14c-0.62-0.79-0.88-1.76-0.88-2.99c0-1.32,0.26-2.29,0.88-3.16
	C15.45,18.13,16.24,17.78,17.21,17.78z M33.91,17.96c0,0-7.21,4.84-6.95,4.66c0,0-0.26,0.18-0.44,0l-1.49-1.05v6.42h7.65
	c0.7,0,1.32-0.44,1.32-1.32v-8.7H33.91z M17.12,19.36c-0.53,0-0.88,0.26-1.23,0.7c-0.26,0.44-0.44,1.14-0.44,1.93
	c0,0.79,0.18,1.41,0.44,1.93c0.26,0.44,0.7,0.7,1.23,0.7c0.53,0,0.88-0.26,1.23-0.7c0.26-0.44,0.44-1.05,0.44-1.93
	c0-0.88-0.18-1.49-0.44-1.93C18.09,19.63,17.65,19.36,17.12,19.36L17.12,19.36z"/>
</svg>
