<?xml version="1.0" encoding="utf-8"?>
<!-- Generator: Adobe Illustrator 19.2.1, SVG Export Plug-In . SVG Version: 6.00 Build 0)  -->
<svg version="1.1" id="Layer_1" xmlns="http://www.w3.org/2000/svg" xmlns:xlink="http://www.w3.org/1999/xlink" x="0px" y="0px"
	 viewBox="0 0 52 52" style="enable-background:new 0 0 52 52;" xml:space="preserve">
<style type="text/css">
	.st0{fill:#FFFFFF;}
	.st1{fill:#626A84;}
	.st2{fill:#4B506D;}
	.st3{fill:#EA7B0C;}
	.st4{fill:#FA9826;}
	.st5{fill:#2A2B35;}
</style>
<circle class="st0" cx="26" cy="26" r="25"/>
<g>
	<path class="st1" d="M34.14,28.95c-0.02-0.03-0.08-0.07-0.1-0.1c-0.7-0.9-1.5-1.67-1.5-3.4v-5.76c0-2.43,0.29-4.68-1.51-6.34
		c-1.47-1.34-3.69-1.86-5.48-1.86h-0.77c-3.26,0.19-6.72,1.6-7.49,5.63c-0.13,0.51,0.26,0.71,0.51,0.77l3.59,0.45
		c0.38-0.06,0.58-0.47,0.64-0.78c0.32-1.41,1.44-2.32,2.75-2.32h0.26c0.77,0,1.53,0.4,1.97,1.04c0.51,0.77,0.37,1.87,0.37,2.77v0.51
		c-0.47,0.06-1.72,0.13-2.68,0.25c-1.47,0.2-2.91,0.45-4.12,1.03c-2.37,0.96-3.95,3.01-3.95,6.02c0,0.77,0.12,1.47,0.3,2.08
		c0.73,2.4,2.77,3.62,5.22,3.62c1.02,0,1.86-0.13,2.62-0.32c1.22-0.39,2.24-1.09,3.46-2.37c0.7,0.96,0.9,1.41,2.11,2.44
		c0.32,0.13,0.64,0.13,0.9-0.06c0.77-0.64,2.12-1.8,2.82-2.44C34.36,29.58,34.29,29.24,34.14,28.95z M24.72,22.76
		c0.83-0.19,1.74-0.26,2.68-0.26v0.77c0,1.47,0.14,2.62-0.63,3.91c-0.45,0.9-1.18,1.47-2.01,1.67c-0.13,0-0.3,0.06-0.49,0.06
		c-1.41,0-2.27-1.09-2.27-2.69C21.99,24.17,23.18,23.22,24.72,22.76z"/>
	<path class="st2" d="M17.3,17.13c-0.13,0.51,0.26,0.71,0.51,0.77l3.59,0.45c0.38-0.06,0.58-0.47,0.64-0.78
		c0.32-1.41,1.41-2.32,2.75-2.32h0.26c0.77,0,1.53,0.4,1.97,1.04c0.51,0.77,0.37,1.87,0.37,2.77v0.51
		c-0.47,0.06-1.72,0.13-2.68,0.25c-1.47,0.2-2.91,0.45-4.12,1.03c-2.37,0.96-3.95,3.01-3.95,6.02c0,0.77,0.12,1.47,0.3,2.08
		c0.73,2.4,2.77,3.62,5.22,3.62c1.02,0,1.86-0.13,2.62-0.32c1.22-0.39,2.24-1.09,3.46-2.37c0.7,0.96,0.9,1.41,2.11,2.44
		c0.32,0.13,0.64,0.13,0.9-0.06c0.77-0.64,2.12-1.8,2.82-2.44c0.29-0.23,0.22-0.57,0.07-0.86c-0.02-0.03-0.08-0.07-0.1-0.1
		c-0.7-0.9-1.5-1.67-1.5-3.4v-5.76c0-2.43,0.29-4.68-1.51-6.34 M24.72,22.76c0.83-0.19,1.74-0.26,2.68-0.26v0.77
		c0,1.47,0.14,2.62-0.63,3.91c-0.45,0.9-1.18,1.47-2.01,1.67c-0.13,0-0.3,0.06-0.49,0.06c-1.41,0-2.27-1.09-2.27-2.69
		C21.99,24.17,23.18,23.22,24.72,22.76z"/>
	<path class="st3" d="M37.39,33.96c0.26,0,0.52,0.02,0.68,0.05c0.08,0.02,0.15,0.04,0.18,0.05c0.01,0,0.03,0.01,0.03,0.01
		c0.01,0.02,0.02,0.08,0.02,0.16c0,0.31-0.12,0.88-0.3,1.43c-0.17,0.56-0.39,1.11-0.52,1.48c-0.03,0.09-0.06,0.18-0.06,0.28
		c0,0.15,0.06,0.38,0.19,0.5c0.13,0.12,0.29,0.22,0.43,0.22h0.01c0.2,0,0.38-0.14,0.53-0.26c1.41-1.27,1.91-3.34,1.93-4.48l0-0.21v0
		c0-0.3-0.08-0.53-0.2-0.72l-0.01-0.02l-0.02-0.02c-0.13-0.14-0.25-0.19-0.38-0.25c-0.4-0.15-1.02-0.24-1.72-0.24
		c-0.28,0-0.47,0.02-0.94,0.05v1.94C37.22,33.96,37.35,33.96,37.39,33.96z"/>
	<g>
		<path class="st4" d="M36.32,34.7c-0.15,0-0.43,0.05-0.57,0.12c-0.16,0.06-0.3,0.15-0.45,0.21L35,35.2l-0.36,0.15l0,0
			c0,0,0.09,0,0,0h2.51C37.01,35.14,36.7,34.7,36.32,34.7z"/>
		<path class="st4" d="M37.14,35.36h-2.51c-3.03,1.4-6.21,2.02-9.15,2.08c-2.92,0-5.84-0.68-8.31-2.08c-1.2-0.47-2.42-0.96-3.35-1.6
			c-0.47-0.19-0.79-0.38-1.13-0.58c-0.14-0.07-0.33-0.11-0.46-0.11c-0.18,0-0.38,0.07-0.51,0.19c-0.13,0.12-0.22,0.3-0.22,0.49
			c0,0.24,0.12,0.45,0.3,0.6c3.67,3.19,7.7,6.16,13.12,6.16c0.11,0,0.21,0,0.32-0.01c3.45-0.08,7.34-1.24,10.37-3.14l0.02-0.01
			c0.4-0.24,0.79-0.51,1.17-0.81c0.23-0.17,0.39-0.56,0.39-0.84C37.18,35.62,37.17,35.83,37.14,35.36z"/>
		<path class="st4" d="M36.55,32.14L36.55,32.14L36.55,32.14L36.55,32.14L36.55,32.14c-0.88,0.19-1.49,0.61-1.8,0.84
			c-0.19,0.15-0.38,0.34-0.39,0.63c-0.01,0.16,0.06,0.34,0.2,0.45c0.14,0.11,0.29,0.15,0.42,0.15c0.03,0,0.06,0,0.09-0.01l0.03,0
			l0.02,0c0.27-0.06,0.62-0.1,1.09-0.16c0.36-0.04,0.55-0.07,1.02-0.07v-1.94C37.22,32.05,36.79,32.09,36.55,32.14L36.55,32.14z"/>
	</g>
	<path class="st5" d="M34.14,28.95c-0.7-0.9-1.6-1.76-1.6-3.49v-5.2c-1.4,1.03-3.86,1.82-6.22,2.28c0.35-0.02,1.08-0.03,1.08-0.03
		v0.77c0,1.47,0.14,2.62-0.63,3.91c-0.45,0.9-1.18,1.47-2.01,1.67c-0.13,0-0.3,0.06-0.49,0.06c-1.41,0-2.23-1.09-2.23-2.69
		c0-1.93,0.99-2.88,2.39-3.37c-1,0.12-1.93,0.17-2.98,0.17c-1.39,0-2.78,0.28-4.07,0.66c-0.48,0.9-0.73,1.93-0.73,3.17
		c0,0.77,0.12,1.47,0.31,2.08c0.73,2.4,2.77,3.62,5.21,3.62c1.02,0,1.86-0.13,2.62-0.32c1.22-0.39,2.24-1.09,3.46-2.37
		c0.7,0.96,0.9,1.41,2.11,2.44c0.32,0.13,0.64,0.13,0.9-0.06c0.77-0.64,2.12-1.8,2.82-2.44C34.36,29.58,34.29,29.24,34.14,28.95
		C34.13,28.91,34.16,28.98,34.14,28.95z"/>
	<path class="st3" d="M37.14,35.36h-2.51c-3.03,1.4-6.88,3.5-9.82,3.56c-0.11,0,0.11,0,0,0c-2.92,0-5.17-0.41-7.64-1.55l-2.96-1.5
		c-0.54-0.2-1.09-0.47-1.61-0.84c3.46,2.91,7.29,5.47,12.31,5.47c0.11,0,0.21,0,0.32,0c3.45-0.08,7.34-1.24,10.37-3.14l0.02-0.01
		c0.4-0.24,0.79-0.51,1.17-0.81c0.23-0.17,0.39-0.59,0.39-0.87C37.18,35.58,37.14,35.36,37.14,35.36z"/>
</g>
</svg>
