<?xml version="1.0" encoding="utf-8"?>
<!-- Generator: Adobe Illustrator 19.2.1, SVG Export Plug-In . SVG Version: 6.00 Build 0)  -->
<svg version="1.1" id="Layer_1" xmlns="http://www.w3.org/2000/svg" xmlns:xlink="http://www.w3.org/1999/xlink" x="0px" y="0px"
	 viewBox="0 0 52 52" style="enable-background:new 0 0 52 52;" xml:space="preserve">
<style type="text/css">
	.st0{fill:#FFFFFF;}
	.st1{fill:#1D5DAA;}
	.st2{fill:#064D93;}
	.st3{fill:#3E78CC;}
	.st4{fill:#5397EA;}
</style>
<circle class="st0" cx="26" cy="26" r="25"/>
<g>
	<path class="st1" d="M25.96,12C18.2,12,12,18.29,12,26.06c0,7.06,5.02,12.9,12.08,13.9v-8.78h-3.29v-3.76h3.29v-2.87
		c0-3.15,1.9-4.87,4.71-4.87c1.35,0,2.35,0.1,2.82,0.15v3.3l-1.94,0c-1.53,0-1.82,0.73-1.82,1.79v2.51h3.5l-0.48,3.76h-3.02V40
		c6.59-0.85,12.25-6.77,12.25-13.94C40.09,18.29,33.72,12,25.96,12z"/>
	<path class="st2" d="M35.9,16.12c-5.49-5.49-14.39-5.49-19.88,0l8.07,8.07c0.14-2.88,1.95-4.52,4.6-4.52c1.35,0,2.44,0.1,2.91,0.15
		v3.3l-1.94,0c-1.53,0-1.82,0.73-1.82,1.79v2.51h3.5l-0.48,3.76h-0.02l4.98,4.86C41.31,30.55,41.39,21.6,35.9,16.12z"/>
	<path class="st3" d="M12.73,26.88c0-7.76,6.29-14.06,14.06-14.06c3.67,0,7.01,1.41,9.52,3.71C33.73,13.75,30.05,12,25.96,12
		c-7.76,0-14.06,6.29-14.06,14.06c0,4.09,1.75,7.77,4.54,10.34C14.14,33.89,12.73,30.55,12.73,26.88z"/>
	<g>
		<path class="st2" d="M27.84,31.03v6.87l1.69,1.76c1.71-0.44,3.27-1.24,4.66-2.24L27.84,31.03z"/>
		<polygon class="st2" points="24.08,31.18 20.8,31.18 20.86,31.09 24.08,34.1 		"/>
	</g>
	<g>
		<circle class="st4" cx="16.84" cy="18.7" r="0.51"/>
		<circle class="st4" cx="16.84" cy="22.08" r="0.51"/>
		<circle class="st4" cx="20.45" cy="18.7" r="0.51"/>
	</g>
	<g>
		<circle class="st1" cx="25.34" cy="15.53" r="0.51"/>
		<circle class="st1" cx="35.07" cy="20.27" r="0.51"/>
		<circle class="st1" cx="29.96" cy="16.44" r="0.28"/>
	</g>
	<circle class="st4" cx="17.01" cy="32.68" r="0.28"/>
	<circle class="st1" cx="20.98" cy="16.13" r="0.12"/>
	<g>
		<circle class="st4" cx="16.84" cy="27.29" r="0.51"/>
		<path class="st4" d="M17.02,26.92c0,0.09-0.15,0.16-0.24,0.16l0,0c-0.09,0-0.23-0.07-0.23-0.16v-7.9c0-0.09,0.15-0.16,0.23-0.16
			l0,0c0.09,0,0.24,0.07,0.24,0.16V26.92z"/>
		<path class="st4" d="M20.3,18.47c0.09,0,0.16,0.15,0.16,0.24l0,0c0,0.09-0.07,0.24-0.16,0.24h-3.2c-0.09,0-0.16-0.15-0.16-0.24
			l0,0c0-0.09,0.07-0.24,0.16-0.24H20.3z"/>
		<circle class="st4" cx="19.28" cy="22.08" r="0.51"/>
		<path class="st4" d="M19.09,21.77c0.06,0,0.11,0.15,0.11,0.24l0,0c0,0.09-0.05,0.23-0.11,0.23h-2.15c-0.06,0-0.11-0.15-0.11-0.23
			l0,0c0-0.09,0.05-0.24,0.11-0.24H19.09z"/>
		<circle class="st4" cx="35.09" cy="33.3" r="0.51"/>
		<circle class="st4" cx="31.47" cy="33.3" r="0.51"/>
		<circle class="st4" cx="35.09" cy="24.71" r="0.51"/>
		<path class="st4" d="M34.9,25.08c0-0.09,0.15-0.16,0.24-0.16l0,0c0.09,0,0.24,0.07,0.24,0.16v7.9c0,0.09-0.15,0.16-0.24,0.16l0,0
			c-0.09,0-0.24-0.07-0.24-0.16V25.08z"/>
		<path class="st4" d="M31.63,33.53c-0.09,0-0.16-0.15-0.16-0.24l0,0c0-0.09,0.07-0.24,0.16-0.24h3.2c0.09,0,0.16,0.15,0.16,0.24
			l0,0c0,0.09-0.07,0.24-0.16,0.24H31.63z"/>
	</g>
</g>
</svg>
