<?xml version="1.0" encoding="utf-8"?>
<!-- Generator: Adobe Illustrator 19.2.1, SVG Export Plug-In . SVG Version: 6.00 Build 0)  -->
<svg version="1.1" id="Layer_1" xmlns="http://www.w3.org/2000/svg" xmlns:xlink="http://www.w3.org/1999/xlink" x="0px" y="0px"
	 viewBox="0 0 52 52" style="enable-background:new 0 0 52 52;" xml:space="preserve">
<style type="text/css">
	.st0{fill:#FFFFFF;}
	.st1{fill:#CCCCCC;}
</style>
<circle class="st0" cx="26" cy="26" r="25"/>
<g>
	<g>
		<g>
			<path class="st1" d="M30.37,21.57c0.29,0.24,0.65,0.37,1.02,0.37c0.47,0,0.92-0.21,1.22-0.57c0.57-0.67,0.48-1.68-0.2-2.25
				c-0.29-0.24-0.65-0.37-1.03-0.37c-0.47,0-0.92,0.21-1.22,0.57C29.6,20,29.69,21.01,30.37,21.57z"/>
			<path class="st1" d="M34.14,23.4c-0.1,0-0.2,0.01-0.3,0.03c-0.92,0.16-1.54,1.04-1.37,1.96c0.14,0.81,0.84,1.4,1.66,1.4
				c0.1,0,0.2-0.01,0.3-0.03c0.92-0.16,1.54-1.04,1.37-1.96C35.66,23.99,34.96,23.4,34.14,23.4z"/>
			<path class="st1" d="M34.08,28.94c-0.27-0.16-0.58-0.24-0.89-0.24c-0.64,0-1.23,0.34-1.55,0.9c-0.24,0.41-0.3,0.9-0.18,1.36
				s0.42,0.85,0.83,1.09c0.27,0.16,0.58,0.24,0.89,0.24c0.64,0,1.23-0.34,1.55-0.9C35.23,30.53,34.93,29.43,34.08,28.94z"/>
			<path class="st1" d="M28.98,32.13c-0.22,0-0.44,0.04-0.65,0.11c-0.47,0.17-0.85,0.52-1.06,0.98c-0.21,0.46-0.24,0.97-0.06,1.44
				c0.27,0.74,0.98,1.24,1.77,1.24c0.22,0,0.44-0.04,0.65-0.11c0.47-0.17,0.85-0.52,1.06-0.98c0.21-0.46,0.24-0.97,0.06-1.44
				C30.49,32.63,29.77,32.13,28.98,32.13z"/>
			<path class="st1" d="M24.18,32.15c-0.22-0.08-0.45-0.12-0.68-0.12c-0.83,0-1.58,0.53-1.87,1.31c-0.18,0.5-0.16,1.04,0.07,1.52
				c0.22,0.48,0.62,0.84,1.12,1.03C23.04,35.96,23.27,36,23.5,36c0.83,0,1.58-0.53,1.87-1.31c0.18-0.5,0.16-1.04-0.07-1.52
				C25.08,32.69,24.68,32.33,24.18,32.15z"/>
			<path class="st1" d="M21.11,29.45c-0.37-0.64-1.06-1.04-1.81-1.04c-0.36,0-0.72,0.1-1.04,0.28c-0.48,0.28-0.83,0.73-0.97,1.26
				c-0.14,0.54-0.07,1.1,0.21,1.58c0.37,0.64,1.06,1.04,1.81,1.04c0.36,0,0.72-0.1,1.04-0.28C21.34,31.72,21.68,30.45,21.11,29.45z"
				/>
			<path class="st1" d="M18.36,27.28c1.06,0,1.96-0.76,2.14-1.8c0.1-0.57-0.03-1.15-0.36-1.63c-0.33-0.48-0.83-0.8-1.41-0.9
				c-0.13-0.02-0.26-0.03-0.38-0.03c-1.06,0-1.96,0.76-2.14,1.8c-0.1,0.57,0.03,1.15,0.36,1.63c0.33,0.48,0.83,0.8,1.41,0.9
				C18.1,27.26,18.23,27.28,18.36,27.28z"/>
			<path class="st1" d="M21.1,22.63c0.53,0,1.05-0.19,1.46-0.53c0.47-0.39,0.75-0.94,0.8-1.55c0.05-0.61-0.13-1.2-0.52-1.66
				c-0.43-0.52-1.07-0.81-1.75-0.81c-0.53,0-1.05,0.19-1.46,0.53c-0.47,0.39-0.75,0.94-0.8,1.55c-0.05,0.61,0.13,1.2,0.52,1.66
				C19.78,22.33,20.42,22.63,21.1,22.63z"/>
		</g>
		<circle class="st1" cx="26.24" cy="18.48" r="2.48"/>
	</g>
</g>
</svg>
