<?xml version="1.0" encoding="UTF-8"?>
<svg width="14px" height="14px" viewBox="0 0 14 14" version="1.1" xmlns="http://www.w3.org/2000/svg" xmlns:xlink="http://www.w3.org/1999/xlink">
    <!-- Generator: Sketch 48.2 (47327) - http://www.bohemiancoding.com/sketch -->
    <title>call [#192]</title>
    <desc>Created with Sketch.</desc>
    <defs></defs>
    <g id="Desktop-HD" stroke="none" stroke-width="1" fill="none" fill-rule="evenodd" transform="translate(-931.000000, -130.000000)">
        <path d="M944.748386,142.129128 C944.316249,143.442281 942.623169,144.097457 941.41356,143.988261 C939.761546,143.838933 937.963932,142.962565 936.599388,141.997532 C934.593639,140.578916 932.714824,138.384728 931.620015,136.056144 C930.846276,134.410737 930.672674,132.387342 931.823483,130.887529 C932.249087,130.333149 932.709224,130.037293 933.400829,130.002761 C934.360304,129.956096 934.494705,130.504876 934.824174,131.359779 C935.069642,131.999089 935.397245,132.651466 935.58018,133.314109 C935.922716,134.550732 934.72524,134.602063 934.574039,135.612827 C934.479771,136.250271 935.252577,137.105174 935.601647,137.559691 C936.285785,138.450059 937.108059,139.218165 938.035799,139.802411 C938.56687,140.137465 939.42461,140.741311 940.033149,140.408122 C940.970223,139.894807 940.881555,138.314731 942.191966,138.849511 C942.870504,139.125768 943.527576,139.524287 944.175315,139.873342 C945.176789,140.411856 945.130122,140.969969 944.748386,142.129128 C944.462784,142.99523 945.033988,141.263025 944.748386,142.129128" id="call-[#192]" fill="#4A3B8F"></path>
    </g>
</svg>