<?xml version="1.0" encoding="UTF-8"?><svg id="Layer_1" data-name="Layer 1" xmlns="http://www.w3.org/2000/svg" viewBox="0 0 34 34"><defs><style>.cls-1{fill:#f5c419;}.cls-2{fill:#fff;}</style></defs><title>lock</title><path class="cls-1" d="M17,32.5A15.5,15.5,0,1,1,32.5,17,15.52,15.52,0,0,1,17,32.5Z" transform="translate(0 0)"/><path class="cls-2" d="M17,3A14,14,0,1,1,3,17,14,14,0,0,1,17,3m0-3A17,17,0,1,0,34,17,17,17,0,0,0,17,0h0Z" transform="translate(0 0)"/><path class="cls-2" d="M21,15.94H20.6V14.48a3.59,3.59,0,1,0-7.17,0v1.46H13a1.2,1.2,0,0,0-1.2,1.2v4.78a1.2,1.2,0,0,0,1.2,1.2h8a1.2,1.2,0,0,0,1.2-1.2h0V17.14a1.2,1.2,0,0,0-1.2-1.2h0Zm-3.59,3.91v1.27a0.4,0.4,0,0,1-.8,0V19.85a1.2,1.2,0,1,1,.81,0h0ZM19,15.94H15V14.48a2,2,0,0,1,4,0v1.46h0Z" transform="translate(0 0)"/></svg>