<?xml version="1.0" encoding="UTF-8"?>
<svg width="70px" height="74px" viewBox="0 0 70 74" version="1.1" xmlns="http://www.w3.org/2000/svg" xmlns:xlink="http://www.w3.org/1999/xlink">
    <!-- Generator: Sketch 50.2 (55047) - http://www.bohemiancoding.com/sketch -->
    <title>icn_professional_hover</title>
    <desc>Created with Sketch.</desc>
    <defs>
        <path d="M58.3335667,72 L11.6669,72 C5.2234,72 0.000233333333,66.6276 0.000233333333,60 L0.000233333333,12 C0.000233333333,5.373 5.2234,3.09197112e-14 11.6669,3.09197112e-14 L58.3335667,3.09197112e-14 C64.7764833,3.09197112e-14 70.0002333,5.373 70.0002333,12 L70.0002333,60 C70.0002333,66.6276 64.7764833,72 58.3335667,72" id="path-1"></path>
        <filter x="-1.4%" y="-1.4%" width="102.9%" height="105.6%" filterUnits="objectBoundingBox" id="filter-3">
            <feOffset dx="0" dy="2" in="SourceAlpha" result="shadowOffsetOuter1"></feOffset>
            <feColorMatrix values="0 0 0 0 0.31372549   0 0 0 0 0.431372549   0 0 0 0 0.196078431  0 0 0 1 0" type="matrix" in="shadowOffsetOuter1"></feColorMatrix>
        </filter>
    </defs>
    <g id="Page-1" stroke="none" stroke-width="1" fill="none" fill-rule="evenodd">
        <g id="BV-Desktop_SAUC_1stS_Step-1" transform="translate(-1020.000000, -270.000000)">
            <g id="categories_hover" transform="translate(295.000000, 160.000000)">
                <g id="category_6" transform="translate(700.000000, 110.000000)">
                    <g id="icn_professional_hover" transform="translate(25.000000, 0.000000)">
                        <g id="shadow">
                            <mask id="mask-2" fill="white">
                                <use xlink:href="#path-1"></use>
                            </mask>
                            <g id="Mask">
                                <use fill="black" fill-opacity="1" filter="url(#filter-3)" xlink:href="#path-1"></use>
                                <use fill="#638A3A" fill-rule="evenodd" xlink:href="#path-1"></use>
                            </g>
                            <polygon fill-opacity="0.09" fill="#000000" mask="url(#mask-2)" points="61.1773167 21.5931488 94.9762333 56.5914132 46.6739 94.8762066 8.96198333 57.4765372 10.5002333 21.4739752 25.6879 21.5462893 25.6149833 12.6516612 46.7054 12.6516612 56.51415 21.022157"></polygon>
                        </g>
                        <path d="M12.8333333,53.8016529 L12.8333333,41.6528926 L29.1666667,41.6528926 L29.1666667,42.2250413 C29.1666667,43.1836364 30.1023333,43.9669421 31.0695,43.9669421 L38.93225,43.9669421 C39.89825,43.9669421 40.8333333,43.1836364 40.8333333,42.2250413 L40.8333333,41.6528926 L57.1585,41.6528926 L57.15325,53.8016529 L12.8333333,53.8016529 Z M32.6666667,40.4958678 L37.3333333,40.4958678 L37.3333333,39.338843 L32.6666667,39.338843 L32.6666667,40.4958678 Z M57.1660833,26.0330579 L57.16025,38.1818182 L40.8333333,38.1818182 L40.8333333,37.3423967 C40.8333333,36.3843802 39.89825,35.8677686 38.93225,35.8677686 L31.0695,35.8677686 C30.1023333,35.8677686 29.1666667,36.3843802 29.1666667,37.3423967 L29.1666667,38.1818182 L12.8333333,38.1818182 L12.8333333,26.0330579 L57.1660833,26.0330579 Z M27.4166667,21.4049587 L42.5833333,21.4049587 L42.5833333,16.7768595 L27.4166667,16.7768595 L27.4166667,21.4049587 Z M61.1508333,21.9499174 C60.7133333,21.5154545 60.1200833,21.4049587 59.5005833,21.4049587 L47.25,21.4049587 L47.25,14.4628099 C47.25,13.184876 46.0920833,12.1487603 44.8035,12.1487603 L25.1976667,12.1487603 C23.9090833,12.1487603 22.75,13.184876 22.75,14.4628099 L22.75,21.4049587 L10.5005833,21.4049587 C9.212,21.4049587 8.16666667,22.1743802 8.16666667,23.452314 L8.16666667,56.1157025 C8.16666667,57.3936364 9.212,58.4297521 10.5005833,58.4297521 L59.4854167,58.4297521 C60.774,58.4297521 61.8181667,57.3942149 61.81875,56.1168595 L61.8339167,23.52 C61.8345,22.9061983 61.5883333,22.3838017 61.1508333,21.9499174 Z" id="Fill-7" fill="#FFFFFF"></path>
                    </g>
                </g>
            </g>
        </g>
    </g>
</svg>