<?xml version="1.0" encoding="UTF-8"?>
<svg width="70px" height="74px" viewBox="0 0 70 74" version="1.1" xmlns="http://www.w3.org/2000/svg" xmlns:xlink="http://www.w3.org/1999/xlink">
    <!-- Generator: Sketch 50.2 (55047) - http://www.bohemiancoding.com/sketch -->
    <title>icn_myself_hover</title>
    <desc>Created with Sketch.</desc>
    <defs>
        <path d="M58.3335667,72.000175 L11.6669,72.000175 C5.2234,72.000175 0.000233333333,66.627175 0.000233333333,60.000175 L0.000233333333,12.000175 C0.000233333333,5.372575 5.2234,0.000175 11.6669,0.000175 L58.3335667,0.000175 C64.7764833,0.000175 70.0002333,5.372575 70.0002333,12.000175 L70.0002333,60.000175 C70.0002333,66.627175 64.7764833,72.000175 58.3335667,72.000175" id="path-1"></path>
        <filter x="-1.4%" y="-1.4%" width="102.9%" height="105.6%" filterUnits="objectBoundingBox" id="filter-3">
            <feOffset dx="0" dy="2" in="SourceAlpha" result="shadowOffsetOuter1"></feOffset>
            <feColorMatrix values="0 0 0 0 0.31372549   0 0 0 0 0.431372549   0 0 0 0 0.196078431  0 0 0 1 0" type="matrix" in="shadowOffsetOuter1"></feColorMatrix>
        </filter>
    </defs>
    <g id="Page-1" stroke="none" stroke-width="1" fill="none" fill-rule="evenodd">
        <g id="BV-Desktop_SAUC_1stS_Step-1" transform="translate(-350.000000, -270.000000)">
            <g id="categories_hover" transform="translate(295.000000, 160.000000)">
                <g id="category_1" transform="translate(30.000000, 110.000000)">
                    <g id="icn_myself_hover" transform="translate(25.000000, 0.000000)">
                        <g id="shadow">
                            <mask id="mask-2" fill="white">
                                <use xlink:href="#path-1"></use>
                            </mask>
                            <g id="Mask">
                                <use fill="black" fill-opacity="1" filter="url(#filter-3)" xlink:href="#path-1"></use>
                                <use fill="#638A3A" fill-rule="evenodd" xlink:href="#path-1"></use>
                            </g>
                            <path d="M72.8098,122.29735 L8.17705,58.1516833 C8.17705,58.1516833 13.59155,48.6357667 30.85005,46.09535 C16.4609667,28.6519333 23.4271333,17.4630167 26.8139667,15.4942667 C31.69705,12.6557667 35.0838833,9.24676667 38.4333833,12.0601833 C46.4058,16.72685 48.0764667,16.9170167 48.0764667,16.9170167 L111.443967,80.2851 L72.8098,122.29735 Z" fill-opacity="0.09" fill="#000000" mask="url(#mask-2)"></path>
                        </g>
                        <path d="M14.0583333,54.8335083 C16.6314167,52.1105083 22.7861667,49.0777583 27.9288333,47.285175 L33.4885833,52.0130917 C34.3600833,52.753925 35.6399167,52.753925 36.5114167,52.0130917 L42.0705833,47.285175 C47.2144167,49.0777583 53.3691667,52.1105083 55.94225,54.8335083 L14.0583333,54.8335083 Z M42.27125,42.4318417 C41.5041667,42.185675 40.6641667,42.355425 40.0510833,42.8775083 L35,47.1725917 L29.9495,42.8775083 C29.3358333,42.355425 28.4964167,42.185675 27.72875,42.4318417 C24.4620833,43.4742583 8.16666667,49.0818417 8.16666667,57.1668417 C8.16666667,58.455425 9.21141667,59.500175 10.5,59.500175 L59.5,59.500175 C60.7885833,59.500175 61.8333333,58.455425 61.8333333,57.1668417 C61.8333333,49.0818417 45.5379167,43.4742583 42.27125,42.4318417 Z M35,14.000175 C41.0876667,14.000175 46.0401667,18.9835917 46.0401667,25.109175 C46.0401667,31.2365083 41.0876667,36.221675 35,36.221675 C28.9129167,36.221675 23.9604167,31.2365083 23.9604167,25.109175 C23.9604167,18.9835917 28.9129167,14.000175 35,14.000175 Z M35,40.8883417 C43.66075,40.8883417 50.7068333,33.810175 50.7068333,25.109175 C50.7068333,16.4105083 43.66075,9.33350833 35,9.33350833 C26.3398333,9.33350833 19.29375,16.4105083 19.29375,25.109175 C19.29375,33.810175 26.3398333,40.8883417 35,40.8883417 Z" id="Fill-23" fill="#FFFFFF"></path>
                    </g>
                </g>
            </g>
        </g>
    </g>
</svg>