<?xml version="1.0" encoding="UTF-8"?>
<svg width="80px" height="84px" viewBox="0 0 80 84" version="1.1" xmlns="http://www.w3.org/2000/svg" xmlns:xlink="http://www.w3.org/1999/xlink">
    <!-- Generator: Sketch 50.2 (55047) - http://www.bohemiancoding.com/sketch -->
    <title>icn_family</title>
    <desc>Created with Sketch.</desc>
    <defs>
        <path d="M66.6669333,80.0002 L13.3336,80.0002 C5.9696,80.0002 0.000266666667,74.0302 0.000266666667,66.6668667 L0.000266666667,13.3335333 C0.000266666667,5.96953333 5.9696,0.0002 13.3336,0.0002 L66.6669333,0.0002 C74.0302667,0.0002 80.0002667,5.96953333 80.0002667,13.3335333 L80.0002667,66.6668667 C80.0002667,74.0302 74.0302667,80.0002 66.6669333,80.0002" id="path-1"></path>
        <filter x="-2.5%" y="-2.5%" width="105.0%" height="110.0%" filterUnits="objectBoundingBox" id="filter-3">
            <feOffset dx="0" dy="4" in="SourceAlpha" result="shadowOffsetOuter1"></feOffset>
            <feColorMatrix values="0 0 0 0 0.388235294   0 0 0 0 0.541176471   0 0 0 0 0.22745098  0 0 0 1 0" type="matrix" in="shadowOffsetOuter1"></feColorMatrix>
        </filter>
    </defs>
    <g id="Page-1" stroke="none" stroke-width="1" fill="none" fill-rule="evenodd">
        <g id="BV-Mobile_SAUC_1stS_Step-1" transform="translate(-45.000000, -540.000000)">
            <g id="categories" transform="translate(0.000000, 148.000000)">
                <g id="category_5" transform="translate(15.000000, 392.000000)">
                    <g id="icn_family" transform="translate(30.000000, 0.000000)">
                        <g id="shadows">
                            <mask id="mask-2" fill="white">
                                <use xlink:href="#path-1"></use>
                            </mask>
                            <g id="Mask">
                                <use fill="black" fill-opacity="1" filter="url(#filter-3)" xlink:href="#path-1"></use>
                                <use fill="#81B44C" fill-rule="evenodd" xlink:href="#path-1"></use>
                            </g>
                            <polygon fill-opacity="0.09" fill="#000000" mask="url(#mask-2)" points="106.426733 74.3510667 69.2654 120.623067 18.0720667 69.4297333 17.9207333 34.0917333 40.0000667 13.3877333 69.7694 37.6937333"></polygon>
                        </g>
                        <path d="M62.1636667,68.0002 L62.1636667,41.9428667 C62.1636667,40.4702 60.9696667,39.2762 59.497,39.2762 C58.0243333,39.2762 56.8303333,40.4702 56.8303333,41.9428667 L56.8303333,65.3335333 L48.4983333,65.3335333 L48.4983333,51.0755333 C48.4983333,49.1242 46.9103333,47.5368667 44.959,47.5368667 L35.0396667,47.5368667 C33.089,47.5368667 31.501,49.1242 31.501,51.0755333 L31.501,65.3335333 L23.1696667,65.3335333 L23.1696667,41.9428667 C23.1696667,40.4702 21.9756667,39.2762 20.503,39.2762 C19.0303333,39.2762 17.8363333,40.4702 17.8363333,41.9428667 L17.8363333,68.0002 C17.8363333,69.4728667 19.0303333,70.6668667 20.503,70.6668667 L34.1676667,70.6668667 C35.641,70.6668667 36.8343333,69.4728667 36.8343333,68.0002 L36.8343333,52.8702 L43.165,52.8702 L43.165,68.0002 C43.165,69.4728667 44.359,70.6668667 45.8316667,70.6668667 L59.497,70.6668667 C60.9696667,70.6668667 62.1636667,69.4728667 62.1636667,68.0002 M67.9996667,42.0062 C67.3283333,42.0062 66.6556667,41.7542 66.137,41.2475333 L40.0003333,15.7268667 L13.863,41.2475333 C12.809,42.2768667 11.121,42.2562 10.0923333,41.2028667 C9.063,40.1488667 9.083,38.4602 10.137,37.4315333 L38.137,10.0922 C39.1736667,9.08086667 40.8276667,9.08086667 41.8636667,10.0922 L69.863,37.4315333 C70.917,38.4602 70.937,40.1488667 69.9076667,41.2028667 C69.3856667,41.7375333 68.693,42.0062 67.9996667,42.0062" id="Fill-5" fill="#FFFFFF"></path>
                    </g>
                </g>
            </g>
        </g>
    </g>
</svg>