<?xml version="1.0" encoding="UTF-8"?>
<svg width="40px" height="40px" viewBox="0 0 40 40" version="1.1" xmlns="http://www.w3.org/2000/svg" xmlns:xlink="http://www.w3.org/1999/xlink">
    <!-- Generator: Sketch 50.2 (55047) - http://www.bohemiancoding.com/sketch -->
    <title>icn_phone_color_small</title>
    <desc>Created with Sketch.</desc>
    <defs>
        <path d="M33.3335028,40.0001 L6.66683609,40.0001 C2.98483609,40.0001 0.000169421488,37.0151 0.000169421488,33.3334333 L0.000169421488,6.66676667 C0.000169421488,2.98476667 2.98483609,0.0001 6.66683609,0.0001 L33.3335028,0.0001 C37.0151694,0.0001 40.0001694,2.98476667 40.0001694,6.66676667 L40.0001694,33.3334333 C40.0001694,37.0151 37.0151694,40.0001 33.3335028,40.0001" id="path-1"></path>
    </defs>
    <g id="Page-1" stroke="none" stroke-width="1" fill="none" fill-rule="evenodd">
        <g id="BV-Mobile_SAUC_DS_Step-2" transform="translate(-15.000000, -522.000000)">
            <g id="LS&amp;PM" transform="translate(10.000000, 267.000000)">
                <g id="telephone" transform="translate(5.000000, 255.000000)">
                    <g id="icn_phone_color_small">
                        <g id="shadow">
                            <mask id="mask-2" fill="white">
                                <use xlink:href="#path-1"></use>
                            </mask>
                            <use id="Mask" fill="#81B44C" xlink:href="#path-1"></use>
                            <polygon fill-opacity="0.09" fill="#000000" mask="url(#mask-2)" points="52.8725835 44.0643667 41.9235504 54.5340333 13.8714182 26.8797 6.87227769 10.5107 13.395005 6.55236667 16.7834347 12.7190333 14.1574017 15.5107 18.7317818 21.7190333 25.5086413 26.4690333 28.4735174 24.0107 35.3032364 26.7807"></polygon>
                        </g>
                        <path d="M15.7884562,24.9944 C9.51376198,18.8230667 7.80836529,11.9040667 8.3864314,10.7237333 L11.9158198,7.7024 C11.9195471,7.7034 11.9229355,7.7044 11.926324,7.70573333 L15.428605,12.0547333 L13.6405306,13.2244 C13.6056298,13.2474 13.5714066,13.2720667 13.5385388,13.2980667 C13.041795,13.6937333 12.748357,14.2770667 12.7131174,14.9404 C12.6775388,15.5870667 12.573514,17.5517333 17.9648446,22.8547333 C19.2978529,24.1657333 23.3554975,28.1564 26.0096545,28.0194 C26.6842909,27.9847333 27.277605,27.6960667 27.6801504,27.2074 C27.706919,27.1750667 27.7316545,27.1417333 27.7550347,27.1070667 L28.9443736,25.3484 L33.3652579,28.7930667 C33.3666132,28.7967333 33.3679686,28.8004 33.369324,28.8044 L30.2973736,32.2747333 C29.0971917,32.8430667 22.0638281,31.1664 15.7884562,24.9944 M32.1989603,34.1824 C32.2209851,34.1607333 32.2423322,34.1384 32.2626628,34.1150667 L35.4338942,30.5327333 C35.9099686,30.0400667 36.1454645,29.3447333 36.0800678,28.6154 C36.0221256,27.9657333 35.7286876,27.3367333 35.274638,26.8904 C35.2377041,26.8544 35.1987372,26.8204 35.158076,26.7887333 L30.6426545,23.2697333 C29.6390017,22.3510667 28.0620264,22.3720667 27.0844645,23.3324 C27.020762,23.3950667 26.9634975,23.4637333 26.9136876,23.5370667 L25.6965636,25.3364 C25.0625884,25.1934 23.2223322,24.2547333 19.8816793,20.9690667 C16.5417041,17.6834 15.5861669,15.8730667 15.4408033,15.2494 L17.2698777,14.0524 C17.344762,14.0034 17.4145636,13.9474 17.4779273,13.8847333 C18.4551504,12.9230667 18.4764975,11.3717333 17.5419686,10.3847333 L13.9648033,5.94306667 C13.9319355,5.9024 13.8973736,5.86373333 13.8601008,5.82706667 C12.8269686,4.81306667 11.1452909,4.74773333 10.1575636,5.67273333 L6.5153405,8.79106667 C6.49162149,8.81106667 6.46858017,8.83206667 6.44655537,8.85406667 C5.82037355,9.47006667 5.59504298,10.3937333 5.59504298,11.4057333 C5.59504298,13.2334 6.33100992,15.3470667 6.77015041,16.4457333 C7.61962975,18.5694 9.67132397,22.7487333 13.8716215,26.8797333 C16.9845719,29.9414 20.7518281,32.4220667 24.4797785,33.8644 C26.2153322,34.5357333 30.441043,35.9110667 32.1989603,34.1824" id="Fill-80" fill="#FFFFFF"></path>
                    </g>
                </g>
            </g>
        </g>
    </g>
</svg>