<?xml version="1.0" encoding="UTF-8"?>
<svg width="80px" height="84px" viewBox="0 0 80 84" version="1.1" xmlns="http://www.w3.org/2000/svg" xmlns:xlink="http://www.w3.org/1999/xlink">
    <!-- Generator: Sketch 50.2 (55047) - http://www.bohemiancoding.com/sketch -->
    <title>icn_professional</title>
    <desc>Created with Sketch.</desc>
    <defs>
        <path d="M66.6669333,80 L13.3336,80 C5.9696,80 0.000266666667,74.0306667 0.000266666667,66.6666667 L0.000266666667,13.3333333 C0.000266666667,5.97 5.9696,3.09197112e-14 13.3336,3.09197112e-14 L66.6669333,3.09197112e-14 C74.0302667,3.09197112e-14 80.0002667,5.97 80.0002667,13.3333333 L80.0002667,66.6666667 C80.0002667,74.0306667 74.0302667,80 66.6669333,80" id="path-1"></path>
        <filter x="-2.5%" y="-2.5%" width="105.0%" height="110.0%" filterUnits="objectBoundingBox" id="filter-3">
            <feOffset dx="0" dy="4" in="SourceAlpha" result="shadowOffsetOuter1"></feOffset>
            <feColorMatrix values="0 0 0 0 0.388235294   0 0 0 0 0.541176471   0 0 0 0 0.22745098  0 0 0 1 0" type="matrix" in="shadowOffsetOuter1"></feColorMatrix>
        </filter>
    </defs>
    <g id="Page-1" stroke="none" stroke-width="1" fill="none" fill-rule="evenodd">
        <g id="BV-Mobile_SAUC_1stS_Step-1" transform="translate(-195.000000, -540.000000)">
            <g id="categories" transform="translate(0.000000, 148.000000)">
                <g id="category_6" transform="translate(165.000000, 392.000000)">
                    <g id="icn_professional" transform="translate(30.000000, 0.000000)">
                        <g id="shadow">
                            <mask id="mask-2" fill="white">
                                <use xlink:href="#path-1"></use>
                            </mask>
                            <g id="Mask">
                                <use fill="black" fill-opacity="1" filter="url(#filter-3)" xlink:href="#path-1"></use>
                                <use fill="#81B44C" fill-rule="evenodd" xlink:href="#path-1"></use>
                            </g>
                            <polygon fill-opacity="0.09" fill="#000000" mask="url(#mask-2)" points="69.9169333 24.6778843 108.544267 64.6759008 53.3416 108.42995 10.2422667 65.6874711 12.0002667 24.541686 29.3576 24.6243306 29.2742667 14.4590413 53.3776 14.4590413 64.5876 24.0253223"></polygon>
                        </g>
                        <path d="M14.6666667,61.4876033 L14.6666667,47.6033058 L33.3333333,47.6033058 L33.3333333,48.2571901 C33.3333333,49.3527273 34.4026667,50.2479339 35.508,50.2479339 L44.494,50.2479339 C45.598,50.2479339 46.6666667,49.3527273 46.6666667,48.2571901 L46.6666667,47.6033058 L65.324,47.6033058 L65.318,61.4876033 L14.6666667,61.4876033 Z M37.3333333,46.2809917 L42.6666667,46.2809917 L42.6666667,44.9586777 L37.3333333,44.9586777 L37.3333333,46.2809917 Z M65.3326667,29.7520661 L65.326,43.6363636 L46.6666667,43.6363636 L46.6666667,42.6770248 C46.6666667,41.5821488 45.598,40.9917355 44.494,40.9917355 L35.508,40.9917355 C34.4026667,40.9917355 33.3333333,41.5821488 33.3333333,42.6770248 L33.3333333,43.6363636 L14.6666667,43.6363636 L14.6666667,29.7520661 L65.3326667,29.7520661 Z M31.3333333,24.4628099 L48.6666667,24.4628099 L48.6666667,19.1735537 L31.3333333,19.1735537 L31.3333333,24.4628099 Z M69.8866667,25.0856198 C69.3866667,24.5890909 68.7086667,24.4628099 68.0006667,24.4628099 L54,24.4628099 L54,16.5289256 C54,15.0684298 52.6766667,13.8842975 51.204,13.8842975 L28.7973333,13.8842975 C27.3246667,13.8842975 26,15.0684298 26,16.5289256 L26,24.4628099 L12.0006667,24.4628099 C10.528,24.4628099 9.33333333,25.3421488 9.33333333,26.8026446 L9.33333333,64.1322314 C9.33333333,65.5927273 10.528,66.7768595 12.0006667,66.7768595 L67.9833333,66.7768595 C69.456,66.7768595 70.6493333,65.5933884 70.65,64.1335537 L70.6673333,26.88 C70.668,26.1785124 70.3866667,25.5814876 69.8866667,25.0856198 Z" id="Fill-7" fill="#FFFFFF"></path>
                    </g>
                </g>
            </g>
        </g>
    </g>
</svg>