<?xml version="1.0" encoding="UTF-8"?>
<svg width="80px" height="84px" viewBox="0 0 80 84" version="1.1" xmlns="http://www.w3.org/2000/svg" xmlns:xlink="http://www.w3.org/1999/xlink">
    <!-- Generator: Sketch 50.2 (55047) - http://www.bohemiancoding.com/sketch -->
    <title>icn_myself</title>
    <desc>Created with Sketch.</desc>
    <defs>
        <path d="M66.6669333,80.0002 L13.3336,80.0002 C5.9696,80.0002 0.000266666667,74.0302 0.000266666667,66.6668667 L0.000266666667,13.3335333 C0.000266666667,5.96953333 5.9696,0.0002 13.3336,0.0002 L66.6669333,0.0002 C74.0302667,0.0002 80.0002667,5.96953333 80.0002667,13.3335333 L80.0002667,66.6668667 C80.0002667,74.0302 74.0302667,80.0002 66.6669333,80.0002" id="path-1"></path>
        <filter x="-2.5%" y="-2.5%" width="105.0%" height="110.0%" filterUnits="objectBoundingBox" id="filter-3">
            <feOffset dx="0" dy="4" in="SourceAlpha" result="shadowOffsetOuter1"></feOffset>
            <feColorMatrix values="0 0 0 0 0.388235294   0 0 0 0 0.541176471   0 0 0 0 0.22745098  0 0 0 1 0" type="matrix" in="shadowOffsetOuter1"></feColorMatrix>
        </filter>
    </defs>
    <g id="Page-1" stroke="none" stroke-width="1" fill="none" fill-rule="evenodd">
        <g id="BV-Mobile_SAUC_1stS_Step-1" transform="translate(-45.000000, -246.000000)">
            <g id="categories" transform="translate(0.000000, 148.000000)">
                <g id="category_1" transform="translate(15.000000, 98.000000)">
                    <g id="icn_myself" transform="translate(30.000000, 0.000000)">
                        <g id="shadow">
                            <mask id="mask-2" fill="white">
                                <use xlink:href="#path-1"></use>
                            </mask>
                            <g id="Mask">
                                <use fill="black" fill-opacity="1" filter="url(#filter-3)" xlink:href="#path-1"></use>
                                <use fill="#81B44C" fill-rule="evenodd" xlink:href="#path-1"></use>
                            </g>
                            <path d="M83.2112,139.7684 L9.3452,66.4590667 C9.3452,66.4590667 15.5332,55.5837333 35.2572,52.6804 C18.8125333,32.7450667 26.7738667,19.9577333 30.6445333,17.7077333 C36.2252,14.4637333 40.0958667,10.5677333 43.9238667,13.7830667 C53.0352,19.1164 54.9445333,19.3337333 54.9445333,19.3337333 L127.364533,91.7544 L83.2112,139.7684 Z" fill-opacity="0.09" fill="#000000" mask="url(#mask-2)"></path>
                        </g>
                        <path d="M16.0666667,62.6668667 C19.0073333,59.5548667 26.0413333,56.0888667 31.9186667,54.0402 L38.2726667,59.4435333 C39.2686667,60.2902 40.7313333,60.2902 41.7273333,59.4435333 L48.0806667,54.0402 C53.9593333,56.0888667 60.9933333,59.5548667 63.934,62.6668667 L16.0666667,62.6668667 Z M48.31,48.4935333 C47.4333333,48.2122 46.4733333,48.4062 45.7726667,49.0028667 L40,53.9115333 L34.228,49.0028667 C33.5266667,48.4062 32.5673333,48.2122 31.69,48.4935333 C27.9566667,49.6848667 9.33333333,56.0935333 9.33333333,65.3335333 C9.33333333,66.8062 10.5273333,68.0002 12,68.0002 L68,68.0002 C69.4726667,68.0002 70.6666667,66.8062 70.6666667,65.3335333 C70.6666667,56.0935333 52.0433333,49.6848667 48.31,48.4935333 Z M40,16.0002 C46.9573333,16.0002 52.6173333,21.6955333 52.6173333,28.6962 C52.6173333,35.6988667 46.9573333,41.3962 40,41.3962 C33.0433333,41.3962 27.3833333,35.6988667 27.3833333,28.6962 C27.3833333,21.6955333 33.0433333,16.0002 40,16.0002 Z M40,46.7295333 C49.898,46.7295333 57.9506667,38.6402 57.9506667,28.6962 C57.9506667,18.7548667 49.898,10.6668667 40,10.6668667 C30.1026667,10.6668667 22.05,18.7548667 22.05,28.6962 C22.05,38.6402 30.1026667,46.7295333 40,46.7295333 Z" id="Fill-23" fill="#FFFFFF"></path>
                    </g>
                </g>
            </g>
        </g>
    </g>
</svg>