<?xml version="1.0" encoding="UTF-8"?>
<svg width="60px" height="60px" viewBox="0 0 60 60" version="1.1" xmlns="http://www.w3.org/2000/svg" xmlns:xlink="http://www.w3.org/1999/xlink">
    <!-- Generator: Sketch 50.2 (55047) - http://www.bohemiancoding.com/sketch -->
    <title>icn_mail_color</title>
    <desc>Created with Sketch.</desc>
    <defs>
        <path d="M50.0002521,60.00015 L10.0002521,60.00015 C4.47725207,60.00015 0.000252066116,55.52265 0.000252066116,50.00015 L0.000252066116,10.00015 C0.000252066116,4.47715 4.47725207,0.00015 10.0002521,0.00015 L50.0002521,0.00015 C55.5227521,0.00015 60.0002521,4.47715 60.0002521,10.00015 L60.0002521,50.00015 C60.0002521,55.52265 55.5227521,60.00015 50.0002521,60.00015" id="path-1"></path>
    </defs>
    <g id="Page-1" stroke="none" stroke-width="1" fill="none" fill-rule="evenodd">
        <g id="BV-Mobile_SAUC_DS_Step-6" transform="translate(-211.000000, -429.000000)">
            <g id="CIS" transform="translate(10.000000, 267.000000)">
                <g id="Email" transform="translate(166.000000, 162.000000)">
                    <g id="icn_mail_color" transform="translate(35.000000, 0.000000)">
                        <g id="shadow">
                            <mask id="mask-2" fill="white">
                                <use xlink:href="#path-1"></use>
                            </mask>
                            <use id="Mask" fill="#5691CD" xlink:href="#path-1"></use>
                            <polygon fill-opacity="0.09" fill="#000000" mask="url(#mask-2)" points="92.3933223 56.703 35.1783471 70.132 7.90781818 43.0855 9.33350413 17.762 52.3213636 16.9435"></polygon>
                        </g>
                        <path d="M11.0911612,39.7245 L11.0911612,22.701 L29.0453264,35.9235 C29.4022521,36.1865 29.825219,36.318 30.2476818,36.318 C30.6706488,36.318 31.0931116,36.1865 31.4500372,35.9235 L49.4052107,22.701 L49.4052107,39.7245 L11.0911612,39.7245 Z M45.3232521,20.7245 L30.2476818,31.827 L15.1726157,20.7245 L45.3232521,20.7245 Z M53.4337314,18.6815 C53.432219,18.607 53.4211281,18.5335 53.4110455,18.459 C53.4034835,18.4015 53.3989463,18.3435 53.386343,18.2875 C53.3722273,18.224 53.3485331,18.1625 53.3278636,18.1 C53.3066901,18.037 53.2885413,17.9735 53.2613182,17.913 C53.2386322,17.8615 53.2068719,17.8125 53.1786405,17.762 C53.142343,17.6965 53.1070537,17.6305 53.0631942,17.5695 C53.0541198,17.5575 53.0495826,17.544 53.0405083,17.532 C53.012781,17.4955 52.9790041,17.4675 52.9497645,17.433 C52.9028802,17.379 52.8570041,17.3245 52.8040702,17.2755 C52.7556736,17.23 52.7042521,17.191 52.6523264,17.151 C52.6019132,17.1115 52.5515,17.0725 52.4970537,17.038 C52.4400868,17.0025 52.3805992,16.9735 52.3211116,16.9435 C52.2641446,16.915 52.208186,16.887 52.1476901,16.8635 C52.0846736,16.8395 52.0206488,16.822 51.9551116,16.8045 C51.8946157,16.7875 51.8351281,16.7705 51.7726157,16.7595 C51.6990124,16.7465 51.6244008,16.742 51.5497893,16.7375 C51.5064339,16.7345 51.4655992,16.7245 51.4217397,16.7245 L9.07463223,16.7245 C9.02976446,16.7245 8.98842562,16.735 8.94456612,16.7375 C8.87045868,16.7425 8.79685537,16.747 8.7237562,16.7595 C8.66073967,16.7705 8.60074793,16.788 8.53974793,16.8045 C8.47521901,16.8225 8.41119421,16.8395 8.34868182,16.8635 C8.28768182,16.887 8.23172314,16.915 8.17425207,16.9435 C8.11476446,16.9735 8.05578099,17.0025 7.99881405,17.038 C7.94436777,17.0725 7.89395455,17.1115 7.84354132,17.151 C7.7916157,17.191 7.74019421,17.23 7.69179752,17.2755 C7.63886364,17.3245 7.59349174,17.379 7.54660744,17.433 C7.51686364,17.4675 7.48308678,17.4955 7.4553595,17.532 C7.44678926,17.544 7.44174793,17.5575 7.43317769,17.5695 C7.38931818,17.6305 7.35402893,17.696 7.31722727,17.762 C7.28899587,17.8125 7.25773967,17.8615 7.23454959,17.9135 C7.20732645,17.9735 7.18917769,18.037 7.16850826,18.0995 C7.14783884,18.162 7.12414463,18.224 7.10952479,18.2875 C7.09692149,18.3435 7.0923843,18.4015 7.08482231,18.459 C7.07473967,18.5335 7.06415289,18.607 7.0626405,18.6815 C7.06213636,18.696 7.05810331,18.71 7.05810331,18.7245 L7.05810331,41.7245 C7.05810331,42.829 7.96100413,43.7245 9.07463223,43.7245 L51.4217397,43.7245 C52.5353678,43.7245 53.4382686,42.829 53.4382686,41.7245 L53.4382686,18.7245 C53.4382686,18.71 53.4337314,18.696 53.4337314,18.6815 Z" id="Fill-74" fill="#FFFFFF"></path>
                    </g>
                </g>
            </g>
        </g>
    </g>
</svg>