<?xml version="1.0" encoding="UTF-8"?>
<svg width="121px" height="121px" viewBox="0 0 121 121" version="1.1" xmlns="http://www.w3.org/2000/svg" xmlns:xlink="http://www.w3.org/1999/xlink">
    <!-- Generator: Sketch 45.2 (43514) - http://www.bohemiancoding.com/sketch -->
    <title>icon-rel</title>
    <desc>Created with Sketch.</desc>
    <defs>
        <path d="M100.9869,120.9119 L20.9869,120.9119 C9.9409,120.9119 0.9869,111.9579 0.9869,100.9119 L0.9869,20.9119 C0.9869,9.8669 9.9409,0.9119 20.9869,0.9119 L100.9869,0.9119 C112.0329,0.9119 120.9869,9.8669 120.9869,20.9119 L120.9869,100.9119 C120.9869,111.9579 112.0329,120.9119 100.9869,120.9119" id="path-1"></path>
    </defs>
    <g id="Page-1" stroke="none" stroke-width="1" fill="none" fill-rule="evenodd">
        <g transform="translate(-386.000000, 0.000000)" id="icon-rel">
            <g transform="translate(386.000000, 0.000000)">
                <g id="Fill-18">
                    <mask id="mask-2" fill="white">
                        <use xlink:href="#path-1"></use>
                    </mask>
                    <use id="Mask" fill="#7664C5" xlink:href="#path-1"></use>
                    <path d="M140.897,97.4427 L85.64,162.8837 L15.487,92.7307 L50.904,75.6737 C50.904,75.6737 24.104,49.0557 39.817,35.1957 C55.531,21.3347 72.054,48.3297 72.054,48.3297 L92.547,49.0927 L140.897,97.4427 Z" fill-opacity="0.11" fill="#000000" mask="url(#mask-2)"></path>
                </g>
                <path d="M89.6617,57.4783 C89.6617,53.1043 86.0987,49.5463 81.7207,49.5463 C80.6457,49.5463 79.6047,49.7563 78.6257,50.1703 C77.0987,50.8163 75.3397,50.1013 74.6947,48.5753 C74.0497,47.0483 74.7647,45.2893 76.2897,44.6443 C78.0127,43.9163 79.8397,43.5463 81.7207,43.5463 C89.4077,43.5463 95.6617,49.7963 95.6617,57.4783 C95.6617,65.1603 89.4077,71.4103 81.7207,71.4103 C77.7287,71.4103 73.9217,69.6953 71.2747,66.7063 C70.1767,65.4653 70.2927,63.5693 71.5327,62.4713 C72.7717,61.3733 74.6697,61.4883 75.7667,62.7283 C77.2757,64.4333 79.4457,65.4103 81.7207,65.4103 C86.0987,65.4103 89.6617,61.8523 89.6617,57.4783 L89.6617,57.4783 Z M106.4867,83.9533 C106.4867,85.6103 105.1437,86.9123 103.4867,86.9123 L90.1197,86.9123 C88.4627,86.9123 87.1197,85.5683 87.1197,83.9123 C87.1197,82.2553 88.4627,80.9123 90.1197,80.9123 L99.0237,80.9123 C97.5727,78.9123 95.1387,77.3343 92.1577,75.6963 C90.7057,74.8983 90.1757,73.1163 90.9737,71.6643 C91.7707,70.2103 93.5967,69.6823 95.0477,70.4793 C99.3197,72.8273 106.4867,77.6643 106.4867,83.9533 L106.4867,83.9533 Z M26.7347,86.9123 C30.1297,84.3603 35.8147,81.4783 41.9947,79.3433 L48.8297,83.4883 C50.1047,84.2613 51.7037,84.2613 52.9777,83.4883 L59.8127,79.3433 C65.9937,81.4783 71.6797,84.3603 75.0737,86.9123 L26.7347,86.9123 Z M60.5277,71.1523 C59.4297,70.8053 58.2317,70.9463 57.2447,71.5443 L50.9037,75.3903 L44.5627,71.5443 C43.5747,70.9463 42.3777,70.8043 41.2797,71.1523 C35.2287,73.0713 15.4867,80.1673 15.4867,90.9123 C15.4867,93.1213 17.2777,94.9123 19.4867,94.9123 L82.3207,94.9123 C84.5297,94.9123 86.3207,93.1213 86.3207,90.9123 C86.3207,80.1673 66.5787,73.0713 60.5277,71.1523 L60.5277,71.1523 Z M50.9037,34.9123 C58.1547,34.9123 64.0547,40.8043 64.0547,48.0463 C64.0547,55.2893 58.1547,61.1813 50.9037,61.1813 C43.6527,61.1813 37.7537,55.2893 37.7537,48.0463 C37.7537,40.8043 43.6527,34.9123 50.9037,34.9123 L50.9037,34.9123 Z M50.9037,69.1813 C62.5657,69.1813 72.0547,59.7003 72.0547,48.0463 C72.0547,36.3933 62.5657,26.9123 50.9037,26.9123 C39.2407,26.9123 29.7537,36.3933 29.7537,48.0463 C29.7537,59.7003 39.2407,69.1813 50.9037,69.1813 L50.9037,69.1813 Z" id="Fill-24" fill="#FFFFFF"></path>
            </g>
        </g>
    </g>
</svg>