<?xml version="1.0" encoding="UTF-8"?>
<svg width="121px" height="121px" viewBox="0 0 121 121" version="1.1" xmlns="http://www.w3.org/2000/svg" xmlns:xlink="http://www.w3.org/1999/xlink">
    <!-- Generator: Sketch 45.2 (43514) - http://www.bohemiancoding.com/sketch -->
    <title>icon-personal</title>
    <desc>Created with Sketch.</desc>
    <defs>
        <path d="M100.0494,120.6287 L20.0494,120.6287 C9.0044,120.6287 0.0494,111.6737 0.0494,100.6287 L0.0494,20.6287 C0.0494,9.5827 9.0044,0.6287 20.0494,0.6287 L100.0494,0.6287 C111.0954,0.6287 120.0494,9.5827 120.0494,20.6287 L120.0494,100.6287 C120.0494,111.6737 111.0954,120.6287 100.0494,120.6287" id="path-1"></path>
    </defs>
    <g id="Page-1" stroke="none" stroke-width="1" fill="none" fill-rule="evenodd">
        <g transform="translate(-580.000000, -2.000000)" id="icon-personal">
            <g transform="translate(580.000000, 2.000000)">
                <g id="Fill-16">
                    <mask id="mask-2" fill="white">
                        <use xlink:href="#path-1"></use>
                    </mask>
                    <use id="Mask" fill="#5691CD" xlink:href="#path-1"></use>
                    <polygon fill-opacity="0.09" fill="#000000" mask="url(#mask-2)" points="88.1412 159.3474 14.4572 85.6634 22.1242 37.2104 105.1652 32.0344 157.0462 83.9144"></polygon>
                </g>
                <path d="M61.9576,81.0735 C64.2126,79.1695 67.1336,78.1815 70.2396,77.0535 C70.2556,77.0475 70.2726,77.0475 70.2896,77.0525 L75.3756,78.7995 C76.0226,79.0275 76.7286,79.0005 77.3756,78.7725 L82.4606,77.0665 C82.4766,77.0605 82.4936,77.0605 82.5096,77.0665 C85.6166,78.1945 88.5376,79.1695 90.7926,81.0735 C90.8466,81.1185 90.8116,81.2105 90.7416,81.2105 L62.0086,81.2105 C61.9376,81.2105 61.9036,81.1185 61.9576,81.0735 L61.9576,81.0735 Z M22.1246,37.2105 L97.9756,37.2105 C98.0166,37.2105 98.0496,37.2445 98.0496,37.2855 L98.0496,78.7575 C98.0496,78.8235 97.9736,78.8555 97.9276,78.8085 C93.9016,74.6625 86.3376,71.8965 83.4586,70.9225 C82.8086,70.7025 82.1036,70.7095 81.4566,70.9385 L76.3996,72.7265 C76.3846,72.7325 76.3666,72.7325 76.3506,72.7265 L71.4336,70.9885 C70.7916,70.7605 70.0936,70.7555 69.4496,70.9735 C66.2466,72.0615 56.6236,75.1115 53.0026,81.1765 C52.9896,81.1985 52.9676,81.2105 52.9416,81.2105 L22.1246,81.2105 C22.0836,81.2105 22.0496,81.1775 22.0496,81.1365 L22.0496,37.2855 C22.0496,37.2445 22.0836,37.2105 22.1246,37.2105 L22.1246,37.2105 Z M106.0496,35.8765 C106.0496,32.1955 103.0656,29.2105 99.3846,29.2105 L20.7156,29.2105 C17.0336,29.2105 14.0496,32.1955 14.0496,35.8765 L14.0496,82.5455 C14.0496,86.2265 17.0336,89.2105 20.7156,89.2105 L99.3846,89.2105 C103.0656,89.2105 106.0496,86.2265 106.0496,82.5455 L106.0496,35.8765 Z M45.7426,70.7485 C45.4886,72.2115 44.1046,73.2105 42.6196,73.2105 L32.8946,73.2105 C31.4096,73.2105 30.0246,72.2115 29.7706,70.7485 C29.4426,68.8545 30.8916,67.2105 32.7246,67.2105 L42.7896,67.2105 C44.6226,67.2105 46.0716,68.8545 45.7426,70.7485 L45.7426,70.7485 Z M50.1636,62.2105 L32.8946,62.2105 C31.4096,62.2105 30.0246,61.2115 29.7706,59.7485 C29.4426,57.8545 30.8916,56.2105 32.7246,56.2105 L49.9936,56.2105 C51.4786,56.2105 52.8626,57.2095 53.1166,58.6735 C53.4456,60.5665 51.9966,62.2105 50.1636,62.2105 L50.1636,62.2105 Z M29.7706,47.6735 C30.0246,46.2095 31.4096,45.2105 32.8946,45.2105 L49.9936,45.2105 C51.4786,45.2105 52.8626,46.2095 53.1166,47.6735 C53.4456,49.5665 51.9966,51.2105 50.1636,51.2105 L32.7246,51.2105 C30.8916,51.2105 29.4426,49.5665 29.7706,47.6735 L29.7706,47.6735 Z M76.3756,46.7435 C80.8026,46.7435 84.4036,50.3305 84.4036,54.7395 C84.4036,59.1495 80.8026,62.7375 76.3756,62.7375 C71.9486,62.7375 68.3476,59.1495 68.3476,54.7395 C68.3476,50.3305 71.9486,46.7435 76.3756,46.7435 L76.3756,46.7435 Z M76.3756,68.7375 C84.1106,68.7375 90.4036,62.4575 90.4036,54.7395 C90.4036,47.0225 84.1106,40.7435 76.3756,40.7435 C68.6406,40.7435 62.3476,47.0225 62.3476,54.7395 C62.3476,62.4575 68.6406,68.7375 76.3756,68.7375 L76.3756,68.7375 Z" id="Fill-26" fill="#FFFFFF"></path>
            </g>
        </g>
    </g>
</svg>