<?xml version="1.0" encoding="UTF-8"?>
<svg width="120px" height="120px" viewBox="0 0 120 120" version="1.1" xmlns="http://www.w3.org/2000/svg" xmlns:xlink="http://www.w3.org/1999/xlink">
    <!-- Generator: Sketch 45.2 (43514) - http://www.bohemiancoding.com/sketch -->
    <title>monitor</title>
    <desc>Created with Sketch.</desc>
    <defs>
        <path d="M100.0003,120.0004 L20.0003,120.0004 C8.9543,120.0004 0.0003,111.0454 0.0003,100.0004 L0.0003,20.0004 C0.0003,8.9544 8.9543,0.0004 20.0003,0.0004 L100.0003,0.0004 C111.0463,0.0004 120.0003,8.9544 120.0003,20.0004 L120.0003,100.0004 C120.0003,111.0454 111.0463,120.0004 100.0003,120.0004" id="path-1"></path>
    </defs>
    <g id="Page-1" stroke="none" stroke-width="1" fill="none" fill-rule="evenodd">
        <g id="monitor">
            <g id="Fill-3">
                <mask id="mask-2" fill="white">
                    <use xlink:href="#path-1"></use>
                </mask>
                <use id="Mask" fill="#F2DA3E" xlink:href="#path-1"></use>
                <path d="M115.8616,181.1342 L21.7596,93.0622 L29.8016,85.1032 C29.8016,85.1032 35.5536,56.9832 35.5746,49.8892 C35.5916,43.7102 56.1946,28.1742 57.7826,29.5082 C64.9546,28.9362 85.5066,37.5932 85.5066,37.5932 L151.3936,103.4802 L115.8616,181.1342 Z" fill-opacity="0.09" fill="#000000" mask="url(#mask-2)"></path>
            </g>
            <path d="M74.6282,49.5795 C74.7432,51.5115 73.2712,53.1705 71.3402,53.2855 C71.2702,53.2895 71.1992,53.2915 71.1292,53.2915 C69.2902,53.2915 67.7462,51.8555 67.6372,49.9945 C67.3722,45.5315 63.8482,43.8785 63.4472,43.7045 C61.6892,42.9425 60.8472,40.8975 61.5862,39.1285 C62.3252,37.3585 64.3262,36.5045 66.1052,37.2195 C66.4312,37.3505 74.0942,40.5425 74.6282,49.5795 L74.6282,49.5795 Z M60.3562,85.0625 C60.1612,85.0625 59.9712,85.0765 59.7832,85.1025 C59.5972,85.0765 59.4052,85.0625 59.2112,85.0625 L35.5742,85.0625 C39.3092,78.0625 39.3092,67.1735 39.3092,56.9825 C39.3092,40.7025 46.3772,32.0625 59.2112,32.0625 L60.3562,32.0625 C73.1912,32.0625 80.2592,40.7025 80.2592,56.9825 C80.2592,67.1735 80.2582,78.0625 83.9932,85.0625 L60.3562,85.0625 Z M62.0072,96.9525 C61.6042,97.3755 60.9672,97.9855 59.6042,97.9855 C58.2792,97.9855 57.6882,97.3425 57.3212,96.9445 C56.5372,96.0945 56.0882,95.0625 55.8522,93.0625 L59.2112,93.0625 C59.4052,93.0625 59.5972,93.0485 59.7832,93.0215 C59.9712,93.0485 60.1612,93.0625 60.3562,93.0625 L63.6172,93.0625 C63.3352,95.0625 62.8432,96.0755 62.0072,96.9525 L62.0072,96.9525 Z M97.8082,85.5485 C91.0772,85.5485 88.4752,81.6015 88.4752,57.1425 C88.4752,37.9645 79.7822,25.9125 64.7822,24.1255 L64.7822,18.0105 C64.7822,15.7985 62.9922,14.0055 60.7822,14.0055 C58.5712,14.0055 56.7822,15.7985 56.7822,18.0105 L56.7822,24.0085 C40.7822,25.3075 31.5182,37.4815 31.5182,57.1425 C31.5182,81.6015 28.5972,85.5485 21.8662,85.5485 C19.6562,85.5485 17.8112,87.0935 17.8112,89.3055 C17.8112,91.5175 19.5492,93.0625 21.7602,93.0625 L47.7692,93.0625 C48.0772,96.0625 48.9782,99.7515 51.4102,102.4085 C53.4842,104.6735 56.3172,105.9955 59.6042,105.9955 C62.8672,105.9955 65.7112,104.6265 67.8282,102.3895 C70.3522,99.7235 71.3532,96.0625 71.7382,93.0625 L97.8082,93.0625 C100.0182,93.0625 101.8112,91.5175 101.8112,89.3055 C101.8112,87.0935 100.0182,85.5485 97.8082,85.5485 L97.8082,85.5485 Z" id="Fill-6" fill="#FFFFFF"></path>
        </g>
    </g>
</svg>