<?xml version="1.0" encoding="UTF-8"?>
<svg width="46px" height="37px" viewBox="0 0 46 37" version="1.1" xmlns="http://www.w3.org/2000/svg" xmlns:xlink="http://www.w3.org/1999/xlink">
    <!-- Generator: Sketch 46.2 (44496) - http://www.bohemiancoding.com/sketch -->
    <title>WBV-Records</title>
    <desc>Created with Sketch.</desc>
    <defs></defs>
    <g id="Page-1" stroke="none" stroke-width="1" fill="none" fill-rule="evenodd">
        <g id="TF-Modal-BV-Step6" transform="translate(-900.000000, -666.000000)" fill="#F14F86">
            <path d="M944.377206,674.972 C944.249708,674.9965 944.122209,675.008 943.997211,675.0085 C943.057224,675.0085 942.219735,674.343 942.035238,673.386 L941.384247,670 L904.616253,670 L903.964762,673.386 C903.755765,674.4705 902.705279,675.1795 901.622794,674.972 C900.538309,674.7635 899.827819,673.7145 900.036316,672.63 L901.000303,667.622 C901.1808,666.6805 902.005289,666 902.964276,666 L943.035724,666 C943.994711,666 944.8192,666.6805 944.999697,667.622 L945.963684,672.63 C946.172181,673.7145 945.461691,674.7635 944.377206,674.972 L944.377206,674.972 Z M929.382412,683 C929.382412,684.1045 928.486924,685 927.38244,685 L918.61706,685 C917.513076,685 916.617088,684.1045 916.617088,683 C916.617088,681.8955 917.513076,681 918.61706,681 L927.38244,681 C928.486924,681 929.382412,681.8955 929.382412,683 L929.382412,683 Z M922.9995,699 L910.372674,699 L910.61467,677.5 L935.37733,677.5 L935.529328,699 L922.9995,699 Z M937.363302,673.5 L908.637198,673.5 C907.541213,673.5 906.649725,674.396 906.637725,675.4915 L906.350729,700.9705 C906.344729,701.5045 906.552726,702.0225 906.928721,702.4025 C907.304216,702.7825 907.816209,703 908.350202,703 L937.5428,703 C938.075793,703 938.586785,702.787 938.96228,702.409 C939.337775,702.031 939.546772,701.5185 939.542772,700.9855 L939.363275,675.5 C939.355275,674.401 938.462287,673.5 937.363302,673.5 L937.363302,673.5 Z" id="WBV-Records"></path>
        </g>
    </g>
</svg>