<?xml version="1.0" encoding="UTF-8"?>
<svg width="99px" height="105px" viewBox="0 0 99 105" version="1.1" xmlns="http://www.w3.org/2000/svg" xmlns:xlink="http://www.w3.org/1999/xlink">
    <!-- Generator: Sketch 44.1 (41455) - http://www.bohemiancoding.com/sketch -->
    <title>email</title>
    <desc>Created with Sketch.</desc>
    <defs></defs>
    <g id="Page-1" stroke="none" stroke-width="1" fill="none" fill-rule="evenodd">
        <g id="email" transform="translate(3.000000, 1.000000)">
            <path d="M93.1,33.7 L50.6,1 C48.9,-0.3 46.4,-0.3 44.7,1 L2.1,33.7 C0.9,34.6 0.2,36 0.2,37.6 L0.2,97.2 C0.2,99.9 2.4,102.1 5.1,102.1 L90.1,102.1 C92.8,102.1 95,99.9 95,97.2 L95,37.6 C95,36.1 94.3,34.6 93.1,33.7 Z" id="Shape" fill="#F5C419" fill-rule="nonzero"></path>
            <path d="M1.4,42.4 L59.4,83" id="Shape" stroke="#FFFFFF" stroke-width="8" opacity="0.4" stroke-linecap="round" stroke-linejoin="round"></path>
            <path d="M93.1,33.7 L50.6,1 C48.9,-0.3 46.4,-0.3 44.7,1 L2.1,33.7 C0.9,34.6 0.2,36 0.2,37.6 L0.2,97.2 C0.2,99.9 2.4,102.1 5.1,102.1 L90.1,102.1 C92.8,102.1 95,99.9 95,97.2 L95,37.6 C95,36.1 94.3,34.6 93.1,33.7 Z" id="Shape" stroke="#4A3B8F" stroke-width="2" stroke-linecap="round" stroke-linejoin="round"></path>
            <path d="M47.6,68.6 L94.6,35.6 C94.3,34.9 93.8,34.2 93.1,33.7 L50.6,1 C48.9,-0.3 46.4,-0.3 44.7,1 L2.1,33.7 C1.4,34.2 0.9,34.9 0.6,35.7 L47.6,68.6 Z" id="Shape" fill="#242C88" fill-rule="nonzero" opacity="0.2"></path>
            <g id="Group" transform="translate(6.000000, 7.000000)">
                <rect id="Rectangle-path" fill="#FFFFFF" fill-rule="nonzero" x="0" y="0" width="72" height="49"></rect>
                <rect id="Rectangle-path" stroke="#4A3B8F" stroke-width="2" stroke-linecap="round" stroke-linejoin="round" x="0" y="0" width="72" height="49"></rect>
                <path d="M72,49 L72,5 L9,5 C7.9,5 7,5.9 7,7 L7,49 L72,49 Z" id="Shape" fill="#242C88" fill-rule="nonzero" opacity="0.2"></path>
                <rect id="Rectangle-path" fill="#FFFFFF" fill-rule="nonzero" x="12" y="10" width="72" height="58"></rect>
                <rect id="Rectangle-path" stroke="#4A3B8F" stroke-width="2" stroke-linecap="round" stroke-linejoin="round" x="12" y="10" width="72" height="58"></rect>
                <path d="M27,33 L69,33" id="Shape" stroke="#242C88" stroke-width="2" opacity="0.2" stroke-linecap="round" stroke-linejoin="round"></path>
                <path d="M27,27 L69,27" id="Shape" stroke="#242C88" stroke-width="2" opacity="0.2" stroke-linecap="round" stroke-linejoin="round"></path>
                <path d="M27,45 L69,45" id="Shape" stroke="#242C88" stroke-width="2" opacity="0.2" stroke-linecap="round" stroke-linejoin="round"></path>
                <path d="M27,51 L48,51" id="Shape" stroke="#242C88" stroke-width="2" opacity="0.2" stroke-linecap="round" stroke-linejoin="round"></path>
                <path d="M27,39 L69,39" id="Shape" stroke="#242C88" stroke-width="2" opacity="0.2" stroke-linecap="round" stroke-linejoin="round"></path>
            </g>
            <path d="M1.4,36.4 L62.2,78.9" id="Shape" stroke="#4A3B8F" stroke-width="2" stroke-linecap="round" stroke-linejoin="round"></path>
            <path d="M93.8,36.4 L47.6,68.6" id="Shape" stroke="#4A3B8F" stroke-width="2" stroke-linecap="round" stroke-linejoin="round"></path>
        </g>
    </g>
</svg>