<?xml version="1.0" encoding="UTF-8"?>
<svg width="110px" height="105px" viewBox="0 0 110 105" version="1.1" xmlns="http://www.w3.org/2000/svg" xmlns:xlink="http://www.w3.org/1999/xlink">
    <!-- Generator: Sketch 44.1 (41455) - http://www.bohemiancoding.com/sketch -->
    <title>notification</title>
    <desc>Created with Sketch.</desc>
    <defs></defs>
    <g id="Page-1" stroke="none" stroke-width="1" fill="none" fill-rule="evenodd">
        <g id="notification" transform="translate(1.000000, 1.000000)">
            <path d="M80.3,64 L26.7,64 L13,71.4 L13,64 L3.7,64 C1.6,64 0,62.3 0,60.3 L0,3.7 C0,1.6 1.7,0 3.7,0 L80.3,0 C82.4,0 84,1.7 84,3.7 L84,60.3 C84,62.3 82.3,64 80.3,64 Z" id="Shape" fill="#589FFF" fill-rule="nonzero"></path>
            <path d="M16.8,17 L68,17" id="Shape" stroke="#4A3B8F" stroke-width="2" stroke-linecap="round" stroke-linejoin="round"></path>
            <path d="M16.8,36.3 L68,36.3" id="Shape" stroke="#4A3B8F" stroke-width="2" stroke-linecap="round" stroke-linejoin="round"></path>
            <path d="M16.8,46 L42.4,46" id="Shape" stroke="#4A3B8F" stroke-width="2" stroke-linecap="round" stroke-linejoin="round"></path>
            <path d="M16.8,26.7 L68,26.7" id="Shape" stroke="#4A3B8F" stroke-width="2" stroke-linecap="round" stroke-linejoin="round"></path>
            <path d="M80.3,64 L26.7,64 L13,71.4 L13,64 L3.7,64 C1.6,64 0,62.3 0,60.3 L0,3.7 C0,1.6 1.7,0 3.7,0 L80.3,0 C82.4,0 84,1.7 84,3.7 L84,60.3 C84,62.3 82.3,64 80.3,64 Z" id="Shape" stroke="#4A3B8F" stroke-width="2" stroke-linecap="round" stroke-linejoin="round"></path>
            <path d="M27.7,26 C22.9,26 19,29.9 19,34.7 L19,68.2 L26.7,64 L80.3,64 C82.4,64 84,62.3 84,60.3 L84,26 L27.7,26 Z" id="Shape" fill="#242C88" fill-rule="nonzero" opacity="0.3"></path>
            <path d="M27.7,95 L81.3,95 L95,102.4 L95,95 L104.3,95 C106.4,95 108,93.3 108,91.3 L108,34.7 C108,32.6 106.3,31 104.3,31 L27.7,31 C25.6,31 24,32.7 24,34.7 L24,91.3 C24,93.3 25.7,95 27.7,95 Z" id="Shape" fill="#FFFFFF" fill-rule="nonzero"></path>
            <path d="M27.7,95 L81.3,95 L95,102.4 L95,95 L104.3,95 C106.4,95 108,93.3 108,91.3 L108,34.7 C108,32.6 106.3,31 104.3,31 L27.7,31 C25.6,31 24,32.7 24,34.7 L24,91.3 C24,93.3 25.7,95 27.7,95 Z" id="Shape" stroke="#4A3B8F" stroke-width="2" stroke-linecap="round" stroke-linejoin="round"></path>
            <g id="Group" transform="translate(77.000000, 13.000000)">
                <polygon id="Shape" fill="#242C88" fill-rule="nonzero" opacity="0.2" points="6 18 6 51.2 15.5 70.8 25 51.2 25 18"></polygon>
                <polygon id="Shape" fill="#FFFFFF" fill-rule="nonzero" points="19 13 19 50.6 9.5 70.2 0 50.6 0 13"></polygon>
                <rect id="Rectangle-path" fill="#FFC408" fill-rule="nonzero" x="0" y="13" width="19" height="38"></rect>
                <rect id="Rectangle-path" fill="#242C88" fill-rule="nonzero" opacity="0.2" x="13" y="13" width="6" height="38"></rect>
                <polygon id="Shape" fill="#4A3B8F" fill-rule="nonzero" opacity="0.5" points="4.7 62 8.7 70.3 12.7 62"></polygon>
                <polygon id="Shape" stroke="#4A3B8F" stroke-width="2" stroke-linecap="round" stroke-linejoin="round" points="19 13 19 50.6 9.5 70.2 0 50.6 0 13"></polygon>
                <path d="M19,13 L19,4.4 C19,2 17,0 14.6,0 L4.4,0 C2,0 0,2 0,4.4 L0,13 L19,13 Z" id="Shape" fill="#F3877E" fill-rule="nonzero"></path>
                <path d="M19,13 L19,4.4 C19,2 17,0 14.6,0 L4.4,0 C2,0 0,2 0,4.4 L0,13 L19,13 Z" id="Shape" stroke="#4A3B8F" stroke-width="2" stroke-linecap="round" stroke-linejoin="round"></path>
                <path d="M13,35 L13,14" id="Shape" stroke="#4A3B8F" stroke-width="2" stroke-linecap="round" stroke-linejoin="round"></path>
                <path d="M13,51 L13,42" id="Shape" stroke="#4A3B8F" stroke-width="2" stroke-linecap="round" stroke-linejoin="round"></path>
                <rect id="Rectangle-path" fill="#FFFFFF" fill-rule="nonzero" x="0" y="10" width="19" height="8"></rect>
                <rect id="Rectangle-path" fill="#242C88" fill-rule="nonzero" opacity="0.2" x="0" y="10" width="19" height="8"></rect>
                <rect id="Rectangle-path" stroke="#4A3B8F" stroke-width="2" stroke-linecap="round" stroke-linejoin="round" x="0" y="10" width="19" height="8"></rect>
            </g>
            <path d="M39.1,74.7 L42.6,71.8 C42.9,71.6 43.2,71.8 43.2,72.2 L43.2,74.8 C43.2,75.2 43.5,75.4 43.8,75.2 L48.4,71.4 C48.7,71.2 49,71.4 49,71.8 L49,74.7 C49,74.7 49.2,75.3 49.5,75.1 L53.9,71.5 C54.2,71.3 54,71.9 54,71.9 L54,74.9 C54,75.3 54.3,75.5 54.6,75.3 L59.2,71.5 C59.5,71.3 59.8,71.5 59.8,71.9 L59.8,74.6 C59.8,75 60.1,75.2 60.4,75 L64.2,71.9 C64.5,71.7 64.8,71.9 64.8,72.3 L64.8,74.8 C64.8,75.2 65.1,75.4 65.4,75.2 L69.1,72.2" id="Shape" stroke="#242C88" stroke-width="2" opacity="0.2" stroke-linecap="round" stroke-linejoin="round"></path>
            <path d="M39.8,45 L68,45" id="Shape" stroke="#242C88" stroke-width="2" opacity="0.2" stroke-linecap="round" stroke-linejoin="round"></path>
            <path d="M39.8,57 L68,57" id="Shape" stroke="#242C88" stroke-width="2" opacity="0.2" stroke-linecap="round" stroke-linejoin="round"></path>
            <path d="M39.8,63 L53.9,63" id="Shape" stroke="#242C88" stroke-width="2" opacity="0.2" stroke-linecap="round" stroke-linejoin="round"></path>
            <path d="M39.8,51 L68,51" id="Shape" stroke="#242C88" stroke-width="2" opacity="0.2" stroke-linecap="round" stroke-linejoin="round"></path>
        </g>
    </g>
</svg>