<?xml version="1.0" encoding="utf-8"?>
<!-- Generator: Adobe Illustrator 19.2.1, SVG Export Plug-In . SVG Version: 6.00 Build 0)  -->
<svg version="1.1" id="Layer_1" xmlns="http://www.w3.org/2000/svg" xmlns:xlink="http://www.w3.org/1999/xlink" x="0px" y="0px"
	 viewBox="0 0 128 128" style="enable-background:new 0 0 128 128;" xml:space="preserve">
<style type="text/css">
	.st0{fill:#589FFF;}
	.st1{fill:none;stroke:#4A3B8F;stroke-width:2;stroke-linecap:round;stroke-linejoin:round;stroke-miterlimit:10;}
	.st2{opacity:0.3;fill:#242C88;enable-background:new    ;}
	.st3{fill:#FFFFFF;}
	.st4{opacity:0.2;fill:#242C88;enable-background:new    ;}
	.st5{fill:#FFC408;}
	.st6{opacity:0.5;fill:#4A3B8F;}
	.st7{fill:#F3877E;}
	
		.st8{opacity:0.2;fill:none;stroke:#242C88;stroke-width:2;stroke-linecap:round;stroke-linejoin:round;stroke-miterlimit:10;enable-background:new    ;}
</style>
<path class="st0" d="M90.3,78H36.7L23,85.4V78h-9.3c-2.1,0-3.7-1.7-3.7-3.7V17.7c0-2.1,1.7-3.7,3.7-3.7h76.6c2.1,0,3.7,1.7,3.7,3.7
	v56.6C94,76.3,92.3,78,90.3,78z"/>
<line class="st1" x1="26.8" y1="31" x2="78" y2="31"/>
<line class="st1" x1="26.8" y1="50.3" x2="78" y2="50.3"/>
<line class="st1" x1="26.8" y1="60" x2="52.4" y2="60"/>
<line class="st1" x1="26.8" y1="40.7" x2="78" y2="40.7"/>
<path class="st1" d="M90.3,78H36.7L23,85.4V78h-9.3c-2.1,0-3.7-1.7-3.7-3.7V17.7c0-2.1,1.7-3.7,3.7-3.7h76.6c2.1,0,3.7,1.7,3.7,3.7
	v56.6C94,76.3,92.3,78,90.3,78z"/>
<path class="st2" d="M37.7,40c-4.8,0-8.7,3.9-8.7,8.7v33.5l7.7-4.2h53.6c2.1,0,3.7-1.7,3.7-3.7V40H37.7z"/>
<path class="st3" d="M37.7,109h53.6l13.7,7.4V109h9.3c2.1,0,3.7-1.7,3.7-3.7V48.7c0-2.1-1.7-3.7-3.7-3.7H37.7
	c-2.1,0-3.7,1.7-3.7,3.7v56.6C34,107.3,35.7,109,37.7,109z"/>
<path class="st1" d="M37.7,109h53.6l13.7,7.4V109h9.3c2.1,0,3.7-1.7,3.7-3.7V48.7c0-2.1-1.7-3.7-3.7-3.7H37.7
	c-2.1,0-3.7,1.7-3.7,3.7v56.6C34,107.3,35.7,109,37.7,109z"/>
<g>
	<polygon class="st4" points="93,45 93,78.2 102.5,97.8 112,78.2 112,45 	"/>
	<polygon class="st3" points="106,40 106,77.6 96.5,97.2 87,77.6 87,40 	"/>
	<rect x="87" y="40" class="st5" width="19" height="38"/>
	<rect x="100" y="40" class="st4" width="6" height="38"/>
	<polygon class="st6" points="91.7,89 95.7,97.3 99.7,89 	"/>
	<polygon class="st1" points="106,40 106,77.6 96.5,97.2 87,77.6 87,40 	"/>
	<path class="st7" d="M106,40v-8.6c0-2.4-2-4.4-4.4-4.4H91.4C89,27,87,29,87,31.4V40H106z"/>
	<path class="st1" d="M106,40v-8.6c0-2.4-2-4.4-4.4-4.4H91.4C89,27,87,29,87,31.4V40H106z"/>
	<line class="st1" x1="100" y1="62" x2="100" y2="41"/>
	<line class="st1" x1="100" y1="78" x2="100" y2="69"/>
	<rect x="87" y="37" class="st3" width="19" height="8"/>
	<rect x="87" y="37" class="st4" width="19" height="8"/>
	<rect x="87" y="37" class="st1" width="19" height="8"/>
</g>
<path class="st8" d="M49.1,88.7l3.5-2.9c0.3-0.2,0.6,0,0.6,0.4v2.6c0,0.4,0.3,0.6,0.6,0.4l4.6-3.8c0.3-0.2,0.6,0,0.6,0.4v2.9
	c0,0,0.2,0.6,0.5,0.4l4.4-3.6c0.3-0.2,0.1,0.4,0.1,0.4v3c0,0.4,0.3,0.6,0.6,0.4l4.6-3.8c0.3-0.2,0.6,0,0.6,0.4v2.7
	c0,0.4,0.3,0.6,0.6,0.4l3.8-3.1c0.3-0.2,0.6,0,0.6,0.4v2.5c0,0.4,0.3,0.6,0.6,0.4l3.7-3"/>
<line class="st8" x1="49.8" y1="59" x2="78" y2="59"/>
<line class="st8" x1="49.8" y1="71" x2="78" y2="71"/>
<line class="st8" x1="49.8" y1="77" x2="63.9" y2="77"/>
<line class="st8" x1="49.8" y1="65" x2="78" y2="65"/>
</svg>
