<?xml version="1.0" encoding="UTF-8"?>
<svg width="110px" height="108px" viewBox="0 0 110 108" version="1.1" xmlns="http://www.w3.org/2000/svg" xmlns:xlink="http://www.w3.org/1999/xlink">
    <!-- Generator: Sketch 44.1 (41455) - http://www.bohemiancoding.com/sketch -->
    <title>pdf</title>
    <desc>Created with Sketch.</desc>
    <defs></defs>
    <g id="Page-1" stroke="none" stroke-width="1" fill="none" fill-rule="evenodd">
        <g id="pdf" transform="translate(1.000000, 1.000000)">
            <polygon id="Shape" fill="#FF5751" fill-rule="nonzero" points="5 46 0 46 0 56 5 61"></polygon>
            <polygon id="Shape" fill="#242C88" fill-rule="nonzero" opacity="0.6" points="5 46 0 46 0 56 5 61"></polygon>
            <polygon id="Shape" stroke="#242C88" stroke-width="2" stroke-linecap="round" stroke-linejoin="round" points="5 46 0 46 0 56 5 61"></polygon>
            <rect id="Rectangle-path" fill="#FFFFFF" fill-rule="nonzero" x="5" y="28" width="64" height="78"></rect>
            <rect id="Rectangle-path" fill="#242C88" fill-rule="nonzero" opacity="0.2" x="5" y="28" width="64" height="78"></rect>
            <rect id="Rectangle-path" stroke="#4A3B8F" stroke-width="2" stroke-linecap="round" stroke-linejoin="round" x="5" y="28" width="64" height="78"></rect>
            <path d="M38,39 L55,39" id="Shape" stroke="#FFFFFF" stroke-width="2" stroke-linecap="round" stroke-linejoin="round"></path>
            <path d="M38,44 L55,44" id="Shape" stroke="#FFFFFF" stroke-width="2" stroke-linecap="round" stroke-linejoin="round"></path>
            <path d="M38,49 L55,49" id="Shape" stroke="#FFFFFF" stroke-width="2" stroke-linecap="round" stroke-linejoin="round"></path>
            <path d="M38,54 L55,54" id="Shape" stroke="#FFFFFF" stroke-width="2" stroke-linecap="round" stroke-linejoin="round"></path>
            <rect id="Rectangle-path" stroke="#FFFFFF" stroke-width="2" stroke-linecap="round" stroke-linejoin="round" x="16" y="63" width="41" height="23"></rect>
            <rect id="Rectangle-path" stroke="#FFFFFF" stroke-width="2" stroke-linecap="round" stroke-linejoin="round" x="16" y="92" width="41" height="4"></rect>
            <path d="M41,83 L69,83 L69,28 L39,28 L39,81 C39,82.1 39.9,83 41,83 Z" id="Shape" fill="#242C88" fill-rule="nonzero" opacity="0.2"></path>
            <rect id="Rectangle-path" fill="#FFFFFF" fill-rule="nonzero" x="44" y="0" width="64" height="78"></rect>
            <rect id="Rectangle-path" stroke="#4A3B8F" stroke-width="2" stroke-linecap="round" stroke-linejoin="round" x="44" y="0" width="64" height="78"></rect>
            <path d="M5,60 L31,60 C31.5,60 32,59.6 32,59 L32,42 L5,42 L5,60 Z" id="Shape" fill="#242C88" fill-rule="nonzero" opacity="0.2"></path>
            <rect id="Rectangle-path" fill="#FF5751" fill-rule="nonzero" x="0" y="38" width="32" height="18"></rect>
            <rect id="Rectangle-path" stroke="#4A3B8F" stroke-width="2" stroke-linecap="round" stroke-linejoin="round" x="0" y="38" width="32" height="18"></rect>
            <g id="Group" transform="translate(5.000000, 43.000000)" fill-rule="nonzero" fill="#FFFFFF">
                <path d="M3.8,5.3 L2.2,5.3 L2.2,7.7 C2.2,8 2.1,8.3 1.9,8.5 C1.7,8.7 1.5,8.8 1.3,8.8 C1,8.8 0.8,8.7 0.7,8.5 C0.6,8.3 0.5,8.1 0.5,7.7 L0.5,1.1 C0.5,0.7 0.6,0.4 0.8,0.3 C1,0.2 1.3,0 1.6,0 L3.8,0 C4.5,0 5,0 5.3,0.2 C5.7,0.3 6,0.5 6.2,0.7 C6.4,0.9 6.7,1.2 6.8,1.5 C6.9,1.8 7,2.2 7,2.6 C7,3.5 6.7,4.1 6.2,4.6 C5.7,5.1 4.8,5.3 3.8,5.3 Z M3.4,1.4 L2.2,1.4 L2.2,4 L3.4,4 C3.8,4 4.2,4 4.4,3.9 C4.6,3.8 4.9,3.7 5,3.5 C5.1,3.3 5.2,3 5.2,2.7 C5.2,2.3 5.1,2 4.9,1.8 C4.6,1.5 4.1,1.4 3.4,1.4 Z" id="Shape"></path>
                <path d="M9.5,0.1 L11.8,0.1 C12.4,0.1 12.9,0.1 13.3,0.3 C13.7,0.5 14.1,0.6 14.4,0.9 C15.3,1.7 15.7,2.8 15.7,4.4 C15.7,4.9 15.7,5.4 15.6,5.8 C15.5,6.2 15.4,6.6 15.2,7 C15,7.4 14.8,7.7 14.5,7.9 C14.3,8.1 14,8.3 13.7,8.4 C13.4,8.5 13.1,8.6 12.8,8.7 C12.5,8.8 12.1,8.8 11.7,8.8 L9.4,8.8 C9.1,8.8 8.9,8.8 8.7,8.7 C8.5,8.6 8.4,8.5 8.4,8.3 C8.4,8.1 8.3,7.9 8.3,7.6 L8.3,1.3 C8.3,0.9 8.4,0.6 8.6,0.5 C8.8,0.4 9.1,0.1 9.5,0.1 Z M10.2,1.5 L10.2,7.3 L11.5,7.3 C11.8,7.3 12,7.3 12.2,7.3 C12.4,7.3 12.5,7.3 12.7,7.2 C12.9,7.1 13,7 13.2,6.9 C13.8,6.4 14.1,5.6 14.1,4.4 C14.1,3.6 14,2.9 13.7,2.5 C13.4,2.1 13.1,1.8 12.7,1.7 C12.3,1.6 11.9,1.5 11.3,1.5 L10.2,1.5 L10.2,1.5 Z" id="Shape"></path>
                <path d="M22.5,1.4 L19,1.4 L19,3.6 L21.9,3.6 C22.2,3.6 22.4,3.7 22.5,3.8 C22.6,3.9 22.7,4.1 22.7,4.3 C22.7,4.5 22.6,4.7 22.5,4.8 C22.4,4.9 22.2,5 21.9,5 L19,5 L19,7.8 C19,8.2 18.9,8.4 18.8,8.6 C18.7,8.8 18.4,8.9 18.2,8.9 C17.9,8.9 17.7,8.8 17.6,8.6 C17.5,8.4 17.4,8.2 17.4,7.8 L17.4,1.2 C17.4,0.9 17.4,0.7 17.5,0.6 C17.6,0.5 17.7,0.3 17.8,0.3 C17.9,0.3 18.2,0.2 18.4,0.2 L22.5,0.2 C22.8,0.2 23,0.3 23.1,0.4 C23.2,0.5 23.3,0.7 23.3,0.9 C23.3,1.1 23.2,1.3 23.1,1.4 C23,1.5 22.7,1.4 22.5,1.4 Z" id="Shape"></path>
            </g>
            <path d="M55,68 L96,68" id="Shape" stroke="#242C88" stroke-width="2" opacity="0.2" stroke-linecap="round" stroke-linejoin="round"></path>
            <path d="M55,63 L96,63" id="Shape" stroke="#242C88" stroke-width="2" opacity="0.2" stroke-linecap="round" stroke-linejoin="round"></path>
            <path d="M55,42 L95.8,42" id="Shape" stroke="#242C88" stroke-width="2" opacity="0.2" stroke-linecap="round" stroke-linejoin="round"></path>
            <path d="M55,38 L95.8,38" id="Shape" stroke="#242C88" stroke-width="2" opacity="0.2" stroke-linecap="round" stroke-linejoin="round"></path>
            <path d="M55,50 L95.8,50" id="Shape" stroke="#242C88" stroke-width="2" opacity="0.2" stroke-linecap="round" stroke-linejoin="round"></path>
            <path d="M55,54 L75.4,54" id="Shape" stroke="#242C88" stroke-width="2" opacity="0.2" stroke-linecap="round" stroke-linejoin="round"></path>
            <path d="M55,46 L95.8,46" id="Shape" stroke="#242C88" stroke-width="2" opacity="0.2" stroke-linecap="round" stroke-linejoin="round"></path>
            <g id="Group" transform="translate(64.000000, 7.000000)" fill-rule="nonzero">
                <path d="M12,23 C5.9,23 1,18.1 1,12 C1,5.9 5.9,1 12,1 C18.1,1 23,5.9 23,12 C23,18.1 18.1,23 12,23 Z" id="Shape" fill="#242C88" opacity="0.2"></path>
                <path d="M12,1.4 C17.8,1.4 22.5,6.1 22.5,11.9 C22.5,17.7 17.8,22.5 12,22.5 C6.2,22.5 1.5,17.8 1.5,12 C1.5,6.2 6.2,1.4 12,1.4 L12,1.4 Z M12,0.5 C5.7,0.5 0.5,5.6 0.5,12 C0.5,18.4 5.7,23.5 12,23.5 C18.3,23.5 23.5,18.3 23.5,12 C23.5,5.7 18.3,0.5 12,0.5 L12,0.5 Z" id="Shape" fill="#FFFFFF"></path>
            </g>
            <path d="M78.1,20.7 C79.9,19.5 80.5,17.1 79.3,15.3 C78.1,13.5 75.7,12.9 73.9,14.1 C72.1,15.3 71.5,17.7 72.7,19.5 C73,20 73.4,20.4 73.9,20.7 C71.3,20.9 69.3,23.1 69.3,25.7 L69.3,27.1 C71,28.6 73.5,29.5 76,29.5 C78.5,29.5 81,28.6 82.7,27.1 L82.7,25.7 C82.7,23.1 80.7,20.9 78.1,20.7 Z" id="Shape" fill="#4A3B8F" fill-rule="nonzero" opacity="0.5"></path>
        </g>
    </g>
</svg>