<?xml version="1.0" encoding="utf-8"?>
<!-- Generator: Adobe Illustrator 19.2.1, SVG Export Plug-In . SVG Version: 6.00 Build 0)  -->
<svg version="1.1" id="Layer_1" xmlns="http://www.w3.org/2000/svg" xmlns:xlink="http://www.w3.org/1999/xlink" x="0px" y="0px"
	 viewBox="0 0 128 128" style="enable-background:new 0 0 128 128;" xml:space="preserve">
<style type="text/css">
	.st0{fill:#FF5751;}
	.st1{opacity:0.6;fill:#242C88;enable-background:new    ;}
	.st2{fill:none;stroke:#242C88;stroke-width:2;stroke-linecap:round;stroke-linejoin:round;stroke-miterlimit:10;}
	.st3{fill:#FFFFFF;}
	.st4{opacity:0.2;fill:#242C88;enable-background:new    ;}
	.st5{fill:none;stroke:#4A3B8F;stroke-width:2;stroke-linecap:round;stroke-linejoin:round;stroke-miterlimit:10;}
	.st6{fill:none;stroke:#FFFFFF;stroke-width:2;stroke-linecap:round;stroke-linejoin:round;stroke-miterlimit:10;}
	
		.st7{opacity:0.2;fill:none;stroke:#242C88;stroke-width:2;stroke-linecap:round;stroke-linejoin:round;stroke-miterlimit:10;enable-background:new    ;}
	.st8{opacity:0.2;fill:#242C88;}
	.st9{opacity:0.5;fill:#4A3B8F;}
</style>
<polygon class="st0" points="15,56 10,56 10,66 15,71 "/>
<polygon class="st1" points="15,56 10,56 10,66 15,71 "/>
<polygon class="st2" points="15,56 10,56 10,66 15,71 "/>
<rect x="15" y="38" class="st3" width="64" height="78"/>
<rect x="15" y="38" class="st4" width="64" height="78"/>
<rect x="15" y="38" class="st5" width="64" height="78"/>
<line class="st6" x1="48" y1="49" x2="65" y2="49"/>
<line class="st6" x1="48" y1="54" x2="65" y2="54"/>
<line class="st6" x1="48" y1="59" x2="65" y2="59"/>
<line class="st6" x1="48" y1="64" x2="65" y2="64"/>
<rect x="26" y="73" class="st6" width="41" height="23"/>
<rect x="26" y="102" class="st6" width="41" height="4"/>
<path class="st4" d="M51,93h28V38H49v53C49,92.1,49.9,93,51,93z"/>
<rect x="54" y="10" class="st3" width="64" height="78"/>
<rect x="54" y="10" class="st5" width="64" height="78"/>
<path class="st4" d="M15,70h26c0.5,0,1-0.4,1-1V52H15V70z"/>
<rect x="10" y="48" class="st0" width="32" height="18"/>
<rect x="10" y="48" class="st5" width="32" height="18"/>
<g>
	<path class="st3" d="M18.8,58.3h-1.6v2.4c0,0.3-0.1,0.6-0.3,0.8s-0.4,0.3-0.6,0.3c-0.3,0-0.5-0.1-0.6-0.3s-0.2-0.4-0.2-0.8v-6.6
		c0-0.4,0.1-0.7,0.3-0.8s0.5-0.3,0.8-0.3h2.2c0.7,0,1.2,0,1.5,0.2c0.4,0.1,0.7,0.3,0.9,0.5s0.5,0.5,0.6,0.8s0.2,0.7,0.2,1.1
		c0,0.9-0.3,1.5-0.8,2S19.8,58.3,18.8,58.3z M18.4,54.4h-1.2V57h1.2c0.4,0,0.8,0,1-0.1s0.5-0.2,0.6-0.4s0.2-0.5,0.2-0.8
		c0-0.4-0.1-0.7-0.3-0.9C19.6,54.5,19.1,54.4,18.4,54.4z"/>
	<path class="st3" d="M24.5,53.1h2.3c0.6,0,1.1,0,1.5,0.2s0.8,0.3,1.1,0.6c0.9,0.8,1.3,1.9,1.3,3.5c0,0.5,0,1-0.1,1.4
		s-0.2,0.8-0.4,1.2s-0.4,0.7-0.7,0.9c-0.2,0.2-0.5,0.4-0.8,0.5s-0.6,0.2-0.9,0.3s-0.7,0.1-1.1,0.1h-2.3c-0.3,0-0.5,0-0.7-0.1
		s-0.3-0.2-0.3-0.4s-0.1-0.4-0.1-0.7v-6.3c0-0.4,0.1-0.7,0.3-0.8S24.1,53.1,24.5,53.1z M25.2,54.5v5.8h1.3c0.3,0,0.5,0,0.7,0
		s0.3,0,0.5-0.1s0.3-0.2,0.5-0.3c0.6-0.5,0.9-1.3,0.9-2.5c0-0.8-0.1-1.5-0.4-1.9s-0.6-0.7-1-0.8s-0.8-0.2-1.4-0.2L25.2,54.5
		L25.2,54.5z"/>
	<path class="st3" d="M37.5,54.4H34v2.2h2.9c0.3,0,0.5,0.1,0.6,0.2s0.2,0.3,0.2,0.5s-0.1,0.4-0.2,0.5s-0.3,0.2-0.6,0.2H34v2.8
		c0,0.4-0.1,0.6-0.2,0.8s-0.4,0.3-0.6,0.3c-0.3,0-0.5-0.1-0.6-0.3s-0.2-0.4-0.2-0.8v-6.6c0-0.3,0-0.5,0.1-0.6s0.2-0.3,0.3-0.3
		s0.4-0.1,0.6-0.1h4.1c0.3,0,0.5,0.1,0.6,0.2s0.2,0.3,0.2,0.5s-0.1,0.4-0.2,0.5S37.7,54.4,37.5,54.4z"/>
</g>
<line class="st7" x1="65" y1="78" x2="106" y2="78"/>
<line class="st7" x1="65" y1="73" x2="106" y2="73"/>
<line class="st7" x1="65" y1="52" x2="105.8" y2="52"/>
<line class="st7" x1="65" y1="48" x2="105.8" y2="48"/>
<line class="st7" x1="65" y1="60" x2="105.8" y2="60"/>
<line class="st7" x1="65" y1="64" x2="85.4" y2="64"/>
<line class="st7" x1="65" y1="56" x2="105.8" y2="56"/>
<g>
	<path class="st8" d="M86,40c-6.1,0-11-4.9-11-11s4.9-11,11-11s11,4.9,11,11S92.1,40,86,40z"/>
	<path class="st3" d="M86,18.4c5.8,0,10.5,4.7,10.5,10.5S91.8,39.5,86,39.5S75.5,34.8,75.5,29S80.2,18.4,86,18.4 M86,17.5
		c-6.3,0-11.5,5.1-11.5,11.5S79.7,40.5,86,40.5S97.5,35.3,97.5,29S92.3,17.5,86,17.5L86,17.5z"/>
</g>
<path class="st9" d="M88.1,30.7c1.8-1.2,2.4-3.6,1.2-5.4c-1.2-1.8-3.6-2.4-5.4-1.2s-2.4,3.6-1.2,5.4c0.3,0.5,0.7,0.9,1.2,1.2
	c-2.6,0.2-4.6,2.4-4.6,5v1.4c1.7,1.5,4.2,2.4,6.7,2.4s5-0.9,6.7-2.4v-1.4C92.7,33.1,90.7,30.9,88.1,30.7z"/>
</svg>
