<?xml version="1.0" encoding="UTF-8"?>
<svg width="54px" height="54px" viewBox="0 0 54 54" version="1.1" xmlns="http://www.w3.org/2000/svg" xmlns:xlink="http://www.w3.org/1999/xlink">
    <!-- Generator: Sketch 44.1 (41455) - http://www.bohemiancoding.com/sketch -->
    <title>pointer</title>
    <desc>Created with Sketch.</desc>
    <defs></defs>
    <g id="Page-1" stroke="none" stroke-width="1" fill="none" fill-rule="evenodd">
        <g id="pointer" transform="translate(-1.000000, -1.000000)" fill="#EF2742">
            <path d="M27.995,0.999 C42.907,0.999 54.995,13.087 54.995,27.999 C54.995,42.91 42.907,54.999 27.995,54.999 C13.083,54.999 0.995,42.91 0.995,27.999 C0.995,13.087 13.083,0.999 27.995,0.999 Z" id="Shape" fill-opacity="0.2"></path>
            <path d="M27.995,11.799 C36.942,11.799 44.196,19.052 44.196,27.999 C44.196,36.946 36.942,44.199 27.995,44.199 C19.049,44.199 11.797,36.946 11.797,27.999 C11.797,19.052 19.049,11.799 27.995,11.799 Z" id="Shape" fill-opacity="0.2"></path>
            <path d="M27.995,24.962 C29.0803729,24.9616427 30.0834894,25.5403521 30.6264852,26.480134 C31.1694811,27.4199158 31.1698623,28.5779949 30.6274852,29.518134 C30.0851082,30.4582731 29.0823729,31.0376428 27.997,31.038 C26.3191589,31.0385523 24.9585523,29.6788411 24.958,28.001 C24.9574477,26.3231589 26.3171589,24.9625523 27.995,24.962 L27.995,24.962 Z" id="Shape"></path>
        </g>
    </g>
</svg>