<svg xmlns="http://www.w3.org/2000/svg" width="54" height="54">
    <path fill="#EF2742" fill-opacity=".2" fill-rule="evenodd" d="M26.995-.001c14.912 0 27 12.088 27 27 0 14.911-12.088 27-27 27s-27-12.089-27-27c0-14.912 12.088-27 27-27z"/>
    <path fill="#EF2742" fill-opacity=".2" fill-rule="evenodd" d="M26.995 10.799c8.947 0 16.201 7.253 16.201 16.2s-7.254 16.2-16.201 16.2c-8.946 0-16.198-7.253-16.198-16.2s7.252-16.2 16.198-16.2z"/>
    <path fill="#EF2742" fill-rule="evenodd" d="M26.995 23.962a3.037 3.037 0 1 1 .002 6.076 3.037 3.037 0 0 1-.002-6.076z"/>
</svg>
