<?xml version="1.0" encoding="UTF-8"?>
<svg width="100px" height="100px" viewBox="0 0 100 100" version="1.1" xmlns="http://www.w3.org/2000/svg" xmlns:xlink="http://www.w3.org/1999/xlink">
    <!-- Generator: Sketch 44.1 (41455) - http://www.bohemiancoding.com/sketch -->
    <title>report</title>
    <desc>Created with Sketch.</desc>
    <defs></defs>
    <g id="Page-1" stroke="none" stroke-width="1" fill="none" fill-rule="evenodd">
        <g id="report">
            <circle id="Oval" fill="#5CB85C" fill-rule="nonzero" opacity="0.1" cx="50" cy="50" r="50"></circle>
            <circle id="Oval" fill="#5CB85C" fill-rule="nonzero" cx="50" cy="50" r="35"></circle>
            <path d="M60.28,45.33 C56.722354,45.3453873 53.464921,43.3383086 51.8789759,40.15368 C50.2930309,36.9690513 50.6540283,33.1599943 52.81,30.33 L35,30.33 C33.4536027,30.33 32.2,31.5836027 32.2,33.13 L32.2,68.7 C32.2,70.2463973 33.4536027,71.5 35,71.5 L63,71.5 C64.5463973,71.5 65.8,70.2463973 65.8,68.7 L65.8,43.44 C64.210716,44.6464527 62.2752235,45.3091485 60.28,45.33 L60.28,45.33 Z" id="Shape" fill="#FFFFFF" fill-rule="nonzero"></path>
            <path d="M39.72,58.41 L58.41,58.41" id="Shape" stroke="#5CB85C" stroke-width="0.93" stroke-linejoin="round"></path>
            <path d="M39.72,54.67 L58.41,54.67" id="Shape" stroke="#5CB85C" stroke-width="0.93" stroke-linejoin="round"></path>
            <path d="M39.72,62.15 L58.41,62.15" id="Shape" stroke="#5CB85C" stroke-width="0.93" stroke-linejoin="round"></path>
            <path d="M39.72,47.2 L58.41,47.2" id="Shape" stroke="#5CB85C" stroke-width="0.93" stroke-linejoin="round"></path>
            <path d="M39.72,43.46 L52.8,43.46" id="Shape" stroke="#5CB85C" stroke-width="0.93" stroke-linejoin="round"></path>
            <path d="M39.72,50.93 L58.41,50.93" id="Shape" stroke="#5CB85C" stroke-width="0.93" stroke-linejoin="round"></path>
            <circle id="Oval" fill="#FFFFFF" fill-rule="nonzero" cx="60.28" cy="35.98" r="7.48"></circle>
            <polygon id="Shape" fill="#5CB85C" fill-rule="nonzero" points="63.66 32.11 63 32.76 58.73 37.29 57.5 36 56.87 35.37 55.61 36.63 56.24 37.26 58.17 39.19 58.82 39.84 59.45 39.17 64.34 34 65 33.34"></polygon>
        </g>
    </g>
</svg>