<?xml version="1.0" encoding="UTF-8"?>
<svg width="101px" height="101px" viewBox="0 0 101 101" version="1.1" xmlns="http://www.w3.org/2000/svg" xmlns:xlink="http://www.w3.org/1999/xlink">
    <!-- Generator: Sketch 44.1 (41455) - http://www.bohemiancoding.com/sketch -->
    <title>searches</title>
    <desc>Created with Sketch.</desc>
    <defs></defs>
    <g id="Page-1" stroke="none" stroke-width="1" fill="none" fill-rule="evenodd">
        <g id="searches" transform="translate(1.000000, 1.000000)">
            <path d="M90.2,98.5 C88.1,98.5 86,97.7 84.4,96.1 L62.2,73.9 C59,70.7 59,65.4 62.2,62.2 C65.4,59 70.7,59 73.9,62.2 L96,84.3 C99.2,87.5 99.2,92.8 96,96 C94.5,97.7 92.3,98.5 90.2,98.5 Z" id="Shape" fill="#BC8D66" fill-rule="nonzero"></path>
            <path d="M84.4,96.1 C86,97.7 88.1,98.5 90.2,98.5 C92.3,98.5 94.4,97.7 96,96.1 C99.2,92.9 99.2,87.6 96,84.4 L93,81.4 L81.3,93.1 L84.4,96.1 Z" id="Shape" fill="#5E61A3" fill-rule="nonzero"></path>
            <g id="Group" transform="translate(59.000000, 59.000000)" stroke="#4A3B8F" stroke-width="1.848" stroke-linecap="round" stroke-linejoin="round">
                <path d="M31.2,39.5 C29.1,39.5 27,38.7 25.4,37.1 L3.2,14.9 C0,11.7 0,6.4 3.2,3.2 C6.4,0 11.7,0 14.9,3.2 L37,25.3 C40.2,28.5 40.2,33.8 37,37 C35.5,38.7 33.3,39.5 31.2,39.5 Z" id="Shape"></path>
                <path d="M16.2,10.4 L33.8,28 C34.6,28.8 35,29.8 35,31 C35,32.2 34.6,33.2 33.8,34" id="Shape"></path>
            </g>
            <path d="M73.9,62.2 C70.7,59 65.4,59 62.2,62.2 C59,65.4 59,70.7 62.2,73.9 L70.4,82.1 C74.7,78.7 78.7,74.7 82.1,70.4 L73.9,62.2 Z" id="Shape" fill="#242C88" fill-rule="nonzero" opacity="0.4"></path>
            <circle id="Oval" fill="#589FFF" fill-rule="nonzero" cx="42.1" cy="42.1" r="42.1"></circle>
            <path d="M4.5,42.1 C4.5,21.3 21.3,4.5 42.1,4.5" id="Shape" stroke="#FFFFFF" stroke-width="7" opacity="0.4" stroke-linecap="round" stroke-linejoin="round"></path>
            <path d="M79.7,42.1 C79.7,62.9 62.9,79.7 42.1,79.7" id="Shape" stroke="#242C88" stroke-width="7" opacity="0.2" stroke-linecap="round" stroke-linejoin="round"></path>
            <circle id="Oval" stroke="#4A3B8F" stroke-width="1.848" stroke-linecap="round" stroke-linejoin="round" cx="42.1" cy="42.1" r="42.1"></circle>
            <circle id="Oval" fill="#FFFFFF" fill-rule="nonzero" cx="42.1" cy="42.1" r="33"></circle>
            <circle id="Oval" fill="#CAEAFB" fill-rule="nonzero" cx="42.1" cy="42.1" r="33"></circle>
            <path d="M59.9,14.3 C63.2,19.4 65.1,25.6 65.1,32.1 C65.1,50.3 50.3,65.1 32.1,65.1 C25.5,65.1 19.4,63.2 14.3,59.9 C20.2,69.1 30.4,75.1 42.1,75.1 C60.3,75.1 75.1,60.3 75.1,42.1 C75.2,30.5 69.1,20.2 59.9,14.3 Z" id="Shape" fill="#242C88" fill-rule="nonzero" opacity="0.07"></path>
            <circle id="Oval" stroke="#4A3B8F" stroke-width="1.848" stroke-linecap="round" stroke-linejoin="round" cx="42.1" cy="42.1" r="33"></circle>
            <path d="M21.1,26.5 C25.9,20.1 33.5,16 42.1,16" id="Shape" stroke="#FFFFFF" stroke-width="4" stroke-linecap="round" stroke-linejoin="round"></path>
            <path d="M15.9,42.1 C15.9,38.5 16.6,35 18,31.9" id="Shape" stroke="#FFFFFF" stroke-width="4" stroke-linecap="round" stroke-linejoin="round"></path>
            <path d="M81.4,93.1 L93.1,81.4" id="Shape" stroke="#4A3B8F" stroke-width="1.848" stroke-linecap="round" stroke-linejoin="round"></path>
            <polygon id="Shape" fill="#5CB85C" fill-rule="nonzero" points="40.5 58.6 24.9 43 32 35.9 40.5 44.4 55.5 29.4 62.6 36.5"></polygon>
            <polygon id="Shape" stroke="#4A3B8F" stroke-width="1.848" stroke-linecap="round" stroke-linejoin="round" points="40.5 58.6 24.9 43 32 35.9 40.5 44.4 55.5 29.4 62.6 36.5"></polygon>
        </g>
    </g>
</svg>