<?xml version="1.0" encoding="utf-8"?>
<!-- Generator: Adobe Illustrator 19.2.1, SVG Export Plug-In . SVG Version: 6.00 Build 0)  -->
<svg version="1.1" id="Layer_1" xmlns="http://www.w3.org/2000/svg" xmlns:xlink="http://www.w3.org/1999/xlink" x="0px" y="0px"
	 viewBox="0 0 128 128" style="enable-background:new 0 0 128 128;" xml:space="preserve">
<style type="text/css">
	.st0{fill:#BC8D66;}
	.st1{fill:#5E61A3;}
	.st2{fill:none;stroke:#4A3B8F;stroke-width:1.848;stroke-linecap:round;stroke-linejoin:round;stroke-miterlimit:10;}
	.st3{opacity:0.4;fill:#242C88;enable-background:new    ;}
	.st4{fill:#589FFF;}
	
		.st5{opacity:0.4;fill:none;stroke:#FFFFFF;stroke-width:7;stroke-linecap:round;stroke-linejoin:round;stroke-miterlimit:10;enable-background:new    ;}
	
		.st6{opacity:0.2;fill:none;stroke:#242C88;stroke-width:7;stroke-linecap:round;stroke-linejoin:round;stroke-miterlimit:10;enable-background:new    ;}
	.st7{fill:#FFFFFF;}
	.st8{fill:#CAEAFB;}
	.st9{opacity:7.000000e-002;fill:#242C88;enable-background:new    ;}
	.st10{fill:none;stroke:#FFFFFF;stroke-width:4;stroke-linecap:round;stroke-linejoin:round;stroke-miterlimit:10;}
	.st11{fill:#5CB85C;}
</style>
<g>
	<path class="st0" d="M105.2,113.5c-2.1,0-4.2-0.8-5.8-2.4L77.2,88.9c-3.2-3.2-3.2-8.5,0-11.7s8.5-3.2,11.7,0L111,99.3
		c3.2,3.2,3.2,8.5,0,11.7C109.5,112.7,107.3,113.5,105.2,113.5z"/>
</g>
<path class="st1" d="M99.4,111.1c1.6,1.6,3.7,2.4,5.8,2.4s4.2-0.8,5.8-2.4c3.2-3.2,3.2-8.5,0-11.7l-3-3l-11.7,11.7L99.4,111.1z"/>
<g>
	<path class="st2" d="M105.2,113.5c-2.1,0-4.2-0.8-5.8-2.4L77.2,88.9c-3.2-3.2-3.2-8.5,0-11.7s8.5-3.2,11.7,0L111,99.3
		c3.2,3.2,3.2,8.5,0,11.7C109.5,112.7,107.3,113.5,105.2,113.5z"/>
	<path class="st2" d="M90.2,84.4l17.6,17.6c0.8,0.8,1.2,1.8,1.2,3s-0.4,2.2-1.2,3"/>
</g>
<path class="st3" d="M88.9,77.2c-3.2-3.2-8.5-3.2-11.7,0s-3.2,8.5,0,11.7l8.2,8.2c4.3-3.4,8.3-7.4,11.7-11.7L88.9,77.2z"/>
<circle class="st4" cx="57.1" cy="57.1" r="42.1"/>
<path class="st5" d="M19.5,57.1c0-20.8,16.8-37.6,37.6-37.6"/>
<path class="st6" d="M94.7,57.1c0,20.8-16.8,37.6-37.6,37.6"/>
<circle class="st2" cx="57.1" cy="57.1" r="42.1"/>
<circle class="st7" cx="57.1" cy="57.1" r="33"/>
<circle class="st8" cx="57.1" cy="57.1" r="33"/>
<path class="st9" d="M74.9,29.3c3.3,5.1,5.2,11.3,5.2,17.8c0,18.2-14.8,33-33,33c-6.6,0-12.7-1.9-17.8-5.2
	c5.9,9.2,16.1,15.2,27.8,15.2c18.2,0,33-14.8,33-33C90.2,45.5,84.1,35.2,74.9,29.3z"/>
<circle class="st2" cx="57.1" cy="57.1" r="33"/>
<path class="st10" d="M36.1,41.5c4.8-6.4,12.4-10.5,21-10.5"/>
<path class="st10" d="M30.9,57.1c0-3.6,0.7-7.1,2.1-10.2"/>
<line class="st2" x1="96.4" y1="108.1" x2="108.1" y2="96.4"/>
<g>
	<polygon class="st11" points="55.5,73.6 39.9,58 47,50.9 55.5,59.4 70.5,44.4 77.6,51.5 	"/>
</g>
<g>
	<polygon class="st2" points="55.5,73.6 39.9,58 47,50.9 55.5,59.4 70.5,44.4 77.6,51.5 	"/>
</g>
</svg>
