<?xml version="1.0" encoding="UTF-8"?>
<svg width="500px" height="500px" viewBox="0 0 500 500" version="1.1" xmlns="http://www.w3.org/2000/svg" xmlns:xlink="http://www.w3.org/1999/xlink">
    <!-- Generator: Sketch 44.1 (41455) - http://www.bohemiancoding.com/sketch -->
    <title>support</title>
    <desc>Created with Sketch.</desc>
    <defs></defs>
    <g id="Page-1" stroke="none" stroke-width="1" fill="none" fill-rule="evenodd">
        <g id="support" fill-rule="nonzero">
            <polygon id="Shape" fill="#FFFFFF" opacity="0.3" points="500 250 473.22 279.41 491.54 314.72 458.05 336.17 466.53 375.03 428.62 387.06 426.78 426.78 387.04 428.62 375.02 466.54 336.16 458.05 314.71 491.55 279.41 473.23 250 500 220.58 473.23 185.28 491.55 163.82 458.05 124.96 466.54 112.94 428.62 73.22 426.78 71.37 387.04 33.46 375.02 41.94 336.17 8.45 314.72 26.77 279.41 0 250 26.77 220.59 8.45 185.28 41.94 163.83 33.46 124.97 71.37 112.96 73.22 73.22 112.96 71.38 124.97 33.47 163.83 41.95 185.28 8.46 220.58 26.78 250 0 279.41 26.78 314.72 8.46 336.17 41.96 375.03 33.47 387.04 71.38 426.78 73.23 428.62 112.97 466.53 124.98 458.05 163.84 491.54 185.28 473.22 220.59"></polygon>
            <g id="_25" transform="translate(106.000000, 106.000000)">
                <path d="M287.23,144 C287.23,223.103745 223.103745,287.23 144,287.23 C64.8962553,287.23 0.77,223.103745 0.77,144 C0.77,64.8962553 64.8962553,0.77 144,0.77 C181.986958,0.77 218.418069,15.8602602 245.278904,42.7210957 C272.13974,69.5819312 287.23,106.013042 287.23,144 Z" id="Shape" fill="#F4F8F8"></path>
                <g id="_12" transform="translate(47.000000, 34.000000)">
                    <path d="M80.05,87.93 C104.42,82.11 122.05,64.7 122.05,45.04 C122.05,20.58 94.74,0.74 61.05,0.74 C27.36,0.74 0.05,20.59 0.05,45.04 C0.05,67.85 23.78,86.64 54.29,89.04 L54.29,89.04 C54.29,89.04 69.37,106.13 86,109.21 C86,109.25 79.21,98.56 80.05,87.93 Z" id="Shape" fill="#FC6E51"></path>
                    <path d="M110.69,27.3 L97.12,57.46 L88.36,57.46 L95.62,41.46 C96.17,40.3 96.76,39.13 97.39,37.97 C98.02,36.81 98.72,35.66 99.51,34.5 L89.29,34.5 L89.29,27.3 L110.69,27.3 Z M32.51,43.84 C33.6898747,41.780992 34.3200803,39.4530195 34.34,37.08 C34.4361532,34.4754466 33.4602642,31.9453638 31.64,30.08 C29.8232044,28.2374891 27.3157741,27.2432259 24.73,27.34 C22.0400739,27.2099601 19.4202766,28.2217039 17.5159902,30.1259902 C15.6117039,32.0302766 14.5999601,34.6500739 14.73,37.34 L14.73,38.44 L22.59,38.44 C22.59,38.19 22.59,37.98 22.59,37.8 C22.5807392,37.640134 22.5807392,37.479866 22.59,37.32 C22.59,34.89 23.25,33.66 24.59,33.66 C25.155065,33.6441943 25.691025,33.9103004 26.02,34.37 C26.386396,34.9447191 26.5646542,35.6193039 26.53,36.3 C26.5256189,37.8158223 26.1551095,39.3081516 25.45,40.65 C24.9978906,41.5382126 24.5005721,42.402679 23.96,43.24 C23.31,44.24 22.53,45.31 21.6,46.56 L13.35,57.46 L34,57.46 L34,50.23 C32.7438521,50.2238343 31.4884058,50.2906134 30.24,50.43 C29.0116126,50.5619485 27.7948615,50.7859109 26.6,51.1 C27.8639515,49.9084263 29.0560486,48.6428667 30.17,47.31 C31.0485025,46.2229003 31.8314152,45.0619145 32.51,43.84 Z M56.19,45 L58.78,45 L58.78,51.35 L56.19,51.35 L56.19,57.47 L48.07,57.47 L48.07,51.35 L37.07,51.35 L37.07,45 L46.18,27.32 L56.18,27.32 L56.18,45 L56.19,45 Z M48.54,35.91 L47.33,38.48 C46.73,39.74 46.12,40.92 45.52,42.01 C44.92,43.1 44.31,44.1 43.72,45.01 L48.34,45.01 L48.34,39.36 C48.34,39.12 48.34,38.68 48.34,38.1 C48.34,37.52 48.47,36.78 48.54,35.89 L48.54,35.91 Z M60,64.48 L64.24,66.87 L85.83,26.58 L81.58,24.33 L60,64.48 Z" id="Shape" fill="#F4F8F8"></path>
                    <path d="M89.15,131 L62.55,160 L57.5,155.35 C54.7917817,152.845447 54.6131152,148.624451 57.1,145.9 L74.65,126.8 C77.1558877,124.082754 81.3889524,123.90824 84.11,126.41 L89.15,131 Z" id="Shape" fill="#484B4D"></path>
                    <path d="M133.24,72.88 C130.531782,70.3754472 130.353115,66.1544513 132.84,63.43 L150.39,44.33 C152.895888,41.6127536 157.128952,41.4382404 159.85,43.94 L164.85,48.57 L138.25,77.57 L133.24,72.88 Z" id="Shape" fill="#484B4D"></path>
                    <path d="M64.49,161.74 L91.09,132.74 C91.09,132.74 99.65,140.21 122.9,115.41 C123.35,114.9 123.79,114.41 124.2,113.93 L124.2,113.93 C124.216607,113.928009 124.233393,113.928009 124.25,113.93 L124.25,113.88 L124.25,113.88 L125.62,112.47 C148.37,87.19 140.19,79.3 140.19,79.3 L166.79,50.3 C187.68,65.3 177.5,87.15 170.56,97.76 C165.81,105.38 155.76,117.95 143.35,131.46 C130.94,144.97 119.26,156.05 112.06,161.46 C102.11,169.3 81.2,181.29 64.49,161.74 Z" id="Shape" fill="#484B4D"></path>
                    <path d="M116,196.78 C116.409236,198.662402 115.220395,200.521641 113.34,200.94 C109.144009,201.909255 104.856139,202.425542 100.55,202.48 L100.2,202.48 C88.29,202.48 81.1,197.13 77.72,191.39 C75.4161627,187.513238 74.1712759,183.099235 74.11,178.59 L74.11,178.25 C74.1900814,176.317003 75.8220035,174.814919 77.755,174.895 C79.6879965,174.975082 81.1900812,176.607003 81.11,178.54 L81.11,178.59 C81.1894115,181.809383 82.0802688,184.95662 83.7,187.74 C86.18,191.63 90.34,195.37 100.56,195.47 C104.357008,195.417866 108.137926,194.965362 111.84,194.12 C112.744864,193.915078 113.694108,194.081049 114.475754,194.580852 C115.257399,195.080654 115.806343,195.872658 116,196.78 Z" id="Shape" fill="#FC6E51"></path>
                    <path d="M141.36,184.4 L128.66,202 C127.1854,204.035169 124.340169,204.4896 122.305,203.015 C120.269831,201.5404 119.8154,198.695169 121.29,196.66 L134,179.08 C134.950326,177.765263 136.529868,177.057388 138.143628,177.223027 C139.757387,177.388665 141.160195,178.402651 141.823628,179.883027 C142.48706,181.363402 142.310326,183.085263 141.36,184.4 L141.36,184.4 Z" id="Shape" fill="#FC6E51"></path>
                    <path d="M161.06,184.4 L148.37,202 C146.8954,204.037931 144.047931,204.4946 142.01,203.02 C139.972069,201.5454 139.5154,198.697931 140.99,196.66 L153.7,179.09 C154.626343,177.717487 156.226469,176.95817 157.875493,177.108579 C159.524517,177.258989 160.960864,178.295267 161.623609,179.812723 C162.286353,181.330179 162.070368,183.088108 161.06,184.4 L161.06,184.4 Z" id="Shape" fill="#FC6E51"></path>
                    <path d="M180.77,184.4 L168.05,202 C166.538928,203.921103 163.780032,204.305162 161.801716,202.869807 C159.8234,201.434453 159.332528,198.692547 160.69,196.66 L173.39,179.09 C174.896515,177.173543 177.645752,176.784866 179.624489,178.208592 C181.603226,179.632317 182.108364,182.362557 180.77,184.4 L180.77,184.4 Z" id="Shape" fill="#FC6E51"></path>
                    <path d="M200.46,184.4 L187.77,202 C186.2954,204.037931 183.447931,204.4946 181.41,203.02 C179.372069,201.5454 178.9154,198.697931 180.39,196.66 L193.11,179.09 C194.020336,177.679226 195.634956,176.886044 197.307951,177.02776 C198.980946,177.169475 200.439141,178.222947 201.099202,179.766745 C201.759264,181.310544 201.513413,183.092592 200.46,184.4 Z" id="Shape" fill="#FC6E51"></path>
                </g>
            </g>
        </g>
    </g>
</svg>