<svg id="Layer_1" data-name="Layer 1" xmlns="http://www.w3.org/2000/svg" viewBox="0 0 500 500"><defs><style>.cls-1{fill:#fff;opacity:0.3;}.cls-2{fill:#f4f8f8;}.cls-3{fill:#fc6e51;}.cls-4{fill:#484b4d;}</style></defs><title>Vector Smart Object1</title><g id="telephone-24-7-customer-support"><polygon class="cls-1" points="500 250 473.22 279.41 491.54 314.72 458.05 336.17 466.53 375.03 428.62 387.06 426.78 426.78 387.04 428.62 375.02 466.54 336.16 458.05 314.71 491.55 279.41 473.23 250 500 220.58 473.23 185.28 491.55 163.82 458.05 124.96 466.54 112.94 428.62 73.22 426.78 71.37 387.04 33.46 375.02 41.94 336.17 8.45 314.72 26.77 279.41 0 250 26.77 220.59 8.45 185.28 41.94 163.83 33.46 124.97 71.37 112.96 73.22 73.22 112.96 71.38 124.97 33.47 163.83 41.95 185.28 8.46 220.58 26.78 250 0 279.41 26.78 314.72 8.46 336.17 41.96 375.03 33.47 387.04 71.38 426.78 73.23 428.62 112.97 466.53 124.98 458.05 163.84 491.54 185.28 473.22 220.59 500 250"/><g id="_25" data-name="25"><path class="cls-2" d="M393.23,250A143.23,143.23,0,1,1,250,106.77,143.23,143.23,0,0,1,393.23,250Z"/><g id="_12" data-name="12"><path class="cls-3" d="M233.05,227.93c24.37-5.82,42-23.23,42-42.89,0-24.46-27.31-44.3-61-44.3s-61,19.85-61,44.3c0,22.81,23.73,41.6,54.24,44h0s15.08,17.09,31.71,20.17C239,249.25,232.21,238.56,233.05,227.93Z"/><path class="cls-2" d="M263.69,167.3l-13.57,30.16h-8.76l7.26-16c0.55-1.16,1.14-2.33,1.77-3.49s1.33-2.31,2.12-3.47H242.29V167.3h21.4Zm-78.18,16.54a13.83,13.83,0,0,0,1.83-6.76,9.52,9.52,0,0,0-2.7-7,9.22,9.22,0,0,0-6.91-2.74,9.55,9.55,0,0,0-10,10l0,1.1h7.86c0-.25,0-0.46,0-0.64a4.15,4.15,0,0,1,0-.48c0-2.43.66-3.66,2-3.66a1.7,1.7,0,0,1,1.43.71,3.28,3.28,0,0,1,.51,1.93,9.41,9.41,0,0,1-1.08,4.35,29.18,29.18,0,0,1-1.49,2.59c-0.65,1-1.43,2.07-2.36,3.32l-8.25,10.9H187v-7.23a32.45,32.45,0,0,0-3.76.2,24.69,24.69,0,0,0-3.64.67,43.89,43.89,0,0,0,3.57-3.79A24.26,24.26,0,0,0,185.51,183.84ZM209.19,185h2.59v6.35h-2.59v6.12h-8.12v-6.12h-11V185l9.11-17.68h10V185Zm-7.65-9.09-1.21,2.57c-0.6,1.26-1.21,2.44-1.81,3.53s-1.21,2.09-1.8,3h4.62v-5.65c0-.24,0-0.68,0-1.26S201.47,176.78,201.54,175.89ZM213,204.48l4.24,2.39,21.59-40.29-4.25-2.25Z"/><path class="cls-4" d="M242.15,271l-26.6,29-5.05-4.65a6.71,6.71,0,0,1-.4-9.45l17.55-19.1a6.7,6.7,0,0,1,9.46-.39Z"/><path class="cls-4" d="M286.24,212.88a6.71,6.71,0,0,1-.4-9.45l17.55-19.1a6.7,6.7,0,0,1,9.46-.39l5,4.63-26.6,29Z"/><path class="cls-4" d="M217.49,301.74l26.6-29s8.56,7.47,31.81-17.33c0.45-.51.89-1,1.3-1.48h0a0.21,0.21,0,0,1,.05,0l0-.05h0l1.37-1.41c22.75-25.28,14.57-33.17,14.57-33.17l26.6-29c20.89,15,10.71,36.85,3.77,47.46-4.75,7.62-14.8,20.19-27.21,33.7s-24.09,24.59-31.29,30C255.11,309.3,234.2,321.29,217.49,301.74Z"/><path class="cls-3" d="M269,336.78a3.5,3.5,0,0,1-2.66,4.16,60.21,60.21,0,0,1-12.79,1.54h-0.35c-11.91,0-19.1-5.35-22.48-11.09a25.74,25.74,0,0,1-3.61-12.8v-0.34a3.5,3.5,0,0,1,7,.29v0.05a19.13,19.13,0,0,0,2.59,9.15c2.48,3.89,6.64,7.63,16.86,7.73a54,54,0,0,0,11.28-1.35A3.47,3.47,0,0,1,269,336.78Z"/><path class="cls-3" d="M294.36,324.4L281.66,342a4.55,4.55,0,1,1-7.37-5.34L287,319.08A4.54,4.54,0,0,1,294.36,324.4Z"/><path class="cls-3" d="M314.06,324.4L301.37,342a4.55,4.55,0,0,1-7.38-5.34l12.71-17.57A4.54,4.54,0,1,1,314.06,324.4Z"/><path class="cls-3" d="M333.77,324.4L321.05,342a4.55,4.55,0,0,1-7.36-5.34l12.7-17.57A4.55,4.55,0,0,1,333.77,324.4Z"/><path class="cls-3" d="M353.46,324.4L340.77,342a4.55,4.55,0,0,1-7.38-5.34l12.72-17.57A4.54,4.54,0,1,1,353.46,324.4Z"/></g></g></g></svg>