<?xml version="1.0" encoding="UTF-8"?>
<svg width="48px" height="48px" viewBox="0 0 48 48" version="1.1" xmlns="http://www.w3.org/2000/svg" xmlns:xlink="http://www.w3.org/1999/xlink">
    <!-- Generator: Sketch 44.1 (41455) - http://www.bohemiancoding.com/sketch -->
    <title>twitter</title>
    <desc>Created with Sketch.</desc>
    <defs></defs>
    <g id="Page-1" stroke="none" stroke-width="1" fill="none" fill-rule="evenodd">
        <g id="twitter" fill-rule="nonzero">
            <path d="M44,0 L4,0 C1.8,0 0,1.8 0,4 L0,44 C0,46.2 1.8,48 4,48 L44,48 C46.2,48 48,46.2 48,44 L48,4 C48,1.8 46.2,0 44,0 Z" id="Shape" fill="#2CA7E0"></path>
            <path d="M39,15.2 C37.9,15.7 36.2,16.3 35,16.5 C36.3,15.7 37.5,13.9 38,12.5 C37,13.1 35.9,13.9 34.8,14.3 L34,13.5 C32.9,12.3 31.8,11.5 30,11.5 C26.6,11.5 24,14.1 24,17.5 C24,17.9 24,18.2 24.1,18.5 L24,18.5 C18,18.5 14,17.2 11,13.5 C10.5,14.4 10,15.4 10,16.5 C10,18.6 11.3,20.4 13,21.5 C12,21.5 10.8,21 10,20.5 C10,23.5 14.2,26.9 17,27.5 C16,28.5 12.4,27.6 12,27.5 C12.8,29.9 15.3,31.4 18,31.5 C15.9,33.1 13.4,34 10.5,34 C10,34 9.5,34 9,33.9 C11.7,35.6 15.5,36.5 19,36.5 C30.3,36.5 36,27.6 36,19.5 C36,19.2 36,18.8 36,18.5 C37.2,17.6 38.2,16.4 39,15.2 Z" id="Brid_1_" fill="#FFFFFF"></path>
        </g>
    </g>
</svg>