<?xml version="1.0" encoding="UTF-8"?>
<svg width="38px" height="41px" viewBox="0 0 38 41" version="1.1" xmlns="http://www.w3.org/2000/svg" xmlns:xlink="http://www.w3.org/1999/xlink">
    <!-- Generator: Sketch 43.1 (39012) - http://www.bohemiancoding.com/sketch -->
    <title>10year</title>
    <desc>Created with Sketch.</desc>
    <defs></defs>
    <g id="Page-1" stroke="none" stroke-width="1" fill="none" fill-rule="evenodd">
        <g id="AccountModal-Stats3" transform="translate(-647.000000, -479.000000)">
            <g id="10year" transform="translate(647.000000, 479.000000)">
                <path d="M37.806476,34.1461453 L32.3265024,25.9871453 C32.1065596,26.0845203 31.928297,26.2043172 31.8224936,26.3619109 C31.2242236,27.2543016 32.5567049,29.7399266 31.7994092,30.4965047 C31.0421136,31.2530828 28.5541312,29.9218641 27.6608942,30.5195672 C26.7740696,31.1121453 27.0574944,33.9193641 26.0603777,34.3325672 C25.3819536,34.6138016 24.3194313,33.6579891 23.3755369,33.1108953 L28.3354709,40.4953797 C28.5797805,40.8592547 29.01133,41.0508016 29.4448032,40.9886609 C29.8789177,40.9258797 30.2386492,40.6203016 30.3707431,40.2026141 L31.5775428,36.3742391 C31.7372097,35.8662234 32.2290351,35.5363016 32.7606169,35.5811453 L36.7644731,35.9168328 C37.2011525,35.9533484 37.6198773,35.7361766 37.842385,35.3588484 C38.0648927,34.9815203 38.0507856,34.5100203 37.806476,34.1461453" id="Fill-2917" fill="#4A3B8F"></path>
                <path d="M12.5100433,34.3325672 C11.5122854,33.9193641 11.7963514,31.1121453 10.9095268,30.5189266 C10.0156486,29.9212234 7.52830741,31.2524422 6.77037051,30.4958641 C6.01307483,29.7386453 7.34619736,27.2536609 6.74792737,26.3606297 C6.64597139,26.2094422 6.47668599,26.0941297 6.26892663,25.9986766 L0.796647836,34.1461453 C0.552338225,34.5100203 0.538231108,34.9815203 0.760738811,35.3588484 C0.982605282,35.7361766 1.40197139,35.9533484 1.83865077,35.9168328 L5.84250697,35.5811453 C6.37408877,35.5363016 6.86591416,35.8662234 7.02558107,36.3742391 L8.23238078,40.2026141 C8.36447469,40.6203016 8.72356493,40.9258797 9.15767938,40.9886609 C9.59179384,41.0508016 10.0233434,40.8592547 10.2670117,40.4953797 L15.2468239,33.0827078 C14.2901049,33.6240359 13.2006508,34.6189266 12.5100433,34.3325672" id="Fill-2918" fill="#4A3B8F"></path>
                <path d="M36.9835181,17.9935547 C36.9835181,19.0871016 34.2794404,19.9013359 34.0748872,20.9346641 C33.8639216,21.9993828 36.0466773,23.7828828 35.6401359,24.7623984 C35.2258996,25.7592109 32.4166597,25.4754141 31.8228784,26.3613984 C31.2246084,27.2544297 32.5570897,29.7394141 31.799794,30.4966328 C31.0418571,31.2532109 28.5545159,29.9219922 27.6606377,30.5196953 C26.7738131,31.1122734 27.0578791,33.9194922 26.0601212,34.3326953 C25.0796766,34.7388516 23.2944851,32.5581641 22.2287566,32.7689297 C21.1950897,32.9732891 20.3800831,35.6748047 19.285499,35.6748047 C18.190915,35.6748047 17.3759084,32.9732891 16.3416003,32.7689297 C15.2758718,32.5581641 13.4906803,34.7388516 12.5102357,34.3326953 C11.5124778,33.9188516 11.7959026,31.1122734 10.9097191,30.5190547 C10.0158409,29.9213516 7.52849978,31.2525703 6.77056288,30.4959922 C6.0132672,29.7387734 7.3457485,27.2537891 6.7474785,26.3607578 C6.15433837,25.4747734 3.34445723,25.7585703 2.93086222,24.7617578 C2.52432076,23.7822422 4.70707645,21.9987422 4.49611093,20.9340234 C4.29155774,19.9006953 1.58747997,19.0871016 1.58747997,17.9935547 C1.58747997,16.9000078 4.29155774,16.0857734 4.49675216,15.0524453 C4.70707645,13.9877266 2.52432076,12.2042266 2.93086222,11.2247109 C3.34509846,10.2278984 6.15433837,10.5110547 6.74811974,9.62571094 C7.34638973,8.73267969 6.01390844,6.24769531 6.77184534,5.49047656 C7.52914101,4.73389844 10.0164822,6.06511719 10.9103604,5.46741406 C11.797185,4.87483594 11.513119,2.06761719 12.5108769,1.65441406 C13.4913215,1.24825781 15.276513,3.42894531 16.3422415,3.21817969 C17.3765497,3.01382031 18.190915,0.312304688 19.285499,0.312304688 C20.3800831,0.312304688 21.1950897,3.01382031 22.2293978,3.21817969 C23.2951263,3.42894531 25.0803178,1.24825781 26.0607624,1.65441406 C27.0585203,2.06825781 26.7744543,4.87483594 27.6612789,5.46805469 C28.5551572,6.06575781 31.0424983,4.73453906 31.8004352,5.49111719 C32.5577309,6.24833594 31.2252496,8.73332031 31.8235196,9.62635156 C32.4166597,10.5123359 35.2265409,10.2285391 35.6401359,11.2253516 C36.0466773,12.2048672 33.8639216,13.9883672 34.0748872,15.0530859 C34.2794404,16.0864141 36.9835181,16.9000078 36.9835181,17.9935547" id="Fill-2919" fill="#F2DA3E"></path>
                <path d="M31.8002428,5.4914375 C31.0429472,4.73485937 28.5549648,6.06607812 27.6610866,5.468375 C26.7749032,4.87515625 27.058328,2.0679375 26.0605701,1.65473437 C25.0801255,1.24857812 23.294934,3.42926562 22.2292054,3.2185 C21.1948973,3.01414062 20.3798907,0.312625 19.2853067,0.312625 C18.1913639,0.312625 17.3763573,3.01414062 16.3420492,3.2185 C15.2763206,3.42926562 13.4911291,1.2479375 12.5106845,1.65409375 C11.5129266,2.0679375 11.7969927,4.87451562 10.910168,5.46773437 C10.016931,6.0654375 7.52894864,4.73357812 6.77165297,5.49079687 C6.01371607,6.247375 7.34619736,8.733 6.7485686,9.62539062 C6.154146,10.511375 3.34490609,10.2282187 2.93131108,11.2243906 C2.52412839,12.2045469 4.70752531,13.9880469 4.49655979,15.0527656 C4.2920066,16.0860937 1.5872876,16.9003281 1.5872876,17.9932344 C1.5872876,19.0867812 4.2920066,19.9010156 4.49591856,20.9343437 C4.70752531,21.9990625 2.52412839,23.7825625 2.93066985,24.7620781 C3.34490609,25.75825 6.154146,25.4750937 6.74792737,26.3610781 C7.34619736,27.2534687 6.01307483,29.7390937 6.77037051,30.4956719 C6.79345488,30.5187344 6.82295158,30.5341094 6.84860088,30.5533281 L31.8566713,5.56895312 C31.8380756,5.54332812 31.8233272,5.51385937 31.8002428,5.4914375" id="Fill-2920" fill="#FCEA6F"></path>
                <path d="M31.2451919,17.9935547 C31.2451919,24.5926328 25.8908999,29.9418516 19.2855632,29.9418516 C12.6802264,29.9418516 7.32593441,24.5926328 7.32593441,17.9935547 C7.32593441,11.3944766 12.6802264,6.04525781 19.2855632,6.04525781 C25.8908999,6.04525781 31.2451919,11.3944766 31.2451919,17.9935547" id="Fill-2921" fill="#FBF6D8"></path>
                <path d="M19.2855632,6.04525781 C12.6802264,6.04525781 7.32593441,11.3944766 7.32593441,17.9935547 C7.32593441,21.2780391 8.65328584,24.2511797 10.8001325,26.4107266 L27.710718,9.51616406 C25.549123,7.37135156 22.5725213,6.04525781 19.2855632,6.04525781" id="Fill-2922" fill="#FFFFFF"></path>
                <text id="10" font-family="Lato-Bold, Lato" font-size="14.4" font-weight="bold" letter-spacing="-0.960000038" fill="#353167">
                    <tspan x="11.3191489" y="21.2352941">1</tspan>
                    <tspan x="18.7111489" y="21.2352941">0</tspan>
                </text>
                <text id="YEARS" font-family="Lato-Bold, Lato" font-size="4.8" font-weight="bold" letter-spacing="0.320000005" fill="#353167">
                    <tspan x="11.3191489" y="26.7058824">YEARS</tspan>
                </text>
            </g>
        </g>
    </g>
</svg>