<?xml version="1.0" encoding="UTF-8"?>
<svg width="23px" height="22px" viewBox="0 0 23 22" version="1.1" xmlns="http://www.w3.org/2000/svg" xmlns:xlink="http://www.w3.org/1999/xlink">
    <!-- Generator: Sketch 44.1 (41455) - http://www.bohemiancoding.com/sketch -->
    <title>24-hours1</title>
    <desc>Created with Sketch.</desc>
    <defs></defs>
    <g id="Page-1" stroke="none" stroke-width="1" fill="none" fill-rule="evenodd">
        <g id="24-hours1" fill-rule="nonzero" fill="#FFFFFF">
            <path d="M7.7,14.4 C7.7,12.3 10.4,12 10.4,10.8 C10.4,10.3 10,10 9.5,10 C8.8,10 8.4,10.7 8.4,10.7 L7.6,10.2 C7.6,10.2 8.1,9 9.5,9 C10.5,9 11.4,9.6 11.4,10.7 C11.4,12.6 8.8,12.9 8.8,14 L11.5,14 L11.5,14.9 L7.7,14.9 C7.7,14.7 7.7,14.5 7.7,14.4 Z M12.2,12.8 L14.7,9.1 L16,9.1 L16,12.5 L16.8,12.5 L16.8,13.4 L16,13.4 L16,14.9 L15,14.9 L15,13.4 L12.3,13.4 L12.3,12.8 L12.2,12.8 Z M14.9,12.5 L14.9,10.7 C14.9,10.4 14.9,10.1 14.9,10.1 L14.9,10.1 C14.9,10.1 14.8,10.4 14.6,10.6 L13.3,12.5 L13.3,12.5 L14.9,12.5 L14.9,12.5 Z M20.1,12.2 L19.9,12.9 C18.7,17 14.5,19.6 10.4,18.6 C6.4,17.6 3.9,13.7 4.5,9.8 L5.7,10.1 C6,10.2 6.2,9.9 6.2,9.6 L4.8,4.6 C4.7,4.3 4.4,4.2 4.2,4.4 L0.4,8.1 C0.2,8.3 0.3,8.7 0.6,8.8 L1.9,9.2 C0.9,14.5 4.2,19.9 9.6,21.3 C15.2,22.8 20.9,19.3 22.4,13.7 L22.6,13 C22.7,12.8 22.5,12.6 22.3,12.5 L20.5,12 C20.3,11.9 20.1,12 20.1,12.2 Z M22.2,9 L20.3,9.2 C20.1,9.2 19.9,9.4 20,9.6 L20.1,10.2 C20.1,10.4 20.3,10.6 20.5,10.5 L22.4,10.3 C22.6,10.3 22.8,10.1 22.7,9.9 L22.6,9.3 C22.6,9.2 22.4,9 22.2,9 Z M20.7,5.4 L19,6.3 C18.8,6.4 18.8,6.6 18.9,6.8 L19.2,7.3 C19.3,7.5 19.5,7.5 19.7,7.4 L21.4,6.5 C21.6,6.4 21.6,6.2 21.5,6 L21.2,5.5 C21.1,5.4 20.9,5.3 20.7,5.4 Z M18,2.7 L16.8,4.2 C16.7,4.4 16.7,4.6 16.9,4.7 L17.3,5 C17.5,5.1 17.7,5.1 17.8,4.9 L19,3.4 C19.2,3.3 19.2,3.1 19,3 L18.5,2.6 C18.4,2.5 18.2,2.5 18,2.7 Z M14.5,1.1 L14,2.9 C13.9,3.1 14.1,3.3 14.3,3.4 L14.9,3.6 C15.1,3.7 15.3,3.5 15.4,3.3 L15.9,1.5 C16,1.3 15.8,1.1 15.6,1 L15,0.8 C14.7,0.8 14.5,0.9 14.5,1.1 Z M10.6,1 L10.8,2.9 C10.8,3.1 11,3.3 11.2,3.2 L11.8,3.1 C12,3.1 12.2,2.9 12.1,2.7 L11.9,0.8 C11.9,0.6 11.7,0.4 11.5,0.5 L10.9,0.6 C10.7,0.6 10.6,0.8 10.6,1 Z M7,2.3 L7.8,4 C7.9,4.2 8.1,4.3 8.3,4.2 L8.8,3.9 C9.1,3.8 9.1,3.6 9,3.4 L8.1,1.7 C8,1.5 7.8,1.4 7.6,1.5 L7.1,1.8 C6.9,1.9 6.9,2.1 7,2.3 Z" id="Shape"></path>
        </g>
    </g>
</svg>