<?xml version="1.0" encoding="utf-8"?>
<!-- Generator: Adobe Illustrator 19.2.1, SVG Export Plug-In . SVG Version: 6.00 Build 0)  -->
<svg version="1.1" id="Capa_1" xmlns="http://www.w3.org/2000/svg" xmlns:xlink="http://www.w3.org/1999/xlink" x="0px" y="0px"
	 viewBox="0 0 23 22" style="enable-background:new 0 0 23 22;" xml:space="preserve">
<style type="text/css">
	.st0{fill:#FFFFFF;}
</style>
<g>
	<path class="st0" d="M7.7,14.4c0-2.1,2.7-2.4,2.7-3.6c0-0.5-0.4-0.8-0.9-0.8c-0.7,0-1.1,0.7-1.1,0.7l-0.8-0.5c0,0,0.5-1.2,1.9-1.2
		c1,0,1.9,0.6,1.9,1.7c0,1.9-2.6,2.2-2.6,3.3h2.7v0.9H7.7C7.7,14.7,7.7,14.5,7.7,14.4z M12.2,12.8l2.5-3.7H16v3.4h0.8v0.9H16v1.5h-1
		v-1.5h-2.7V12.8L12.2,12.8z M14.9,12.5v-1.8c0-0.3,0-0.6,0-0.6h0c0,0-0.1,0.3-0.3,0.5l-1.3,1.9v0L14.9,12.5L14.9,12.5z M20.1,12.2
		l-0.2,0.7c-1.2,4.1-5.4,6.7-9.5,5.7c-4-1-6.5-4.9-5.9-8.8l1.2,0.3c0.3,0.1,0.5-0.2,0.5-0.5L4.8,4.6C4.7,4.3,4.4,4.2,4.2,4.4
		L0.4,8.1C0.2,8.3,0.3,8.7,0.6,8.8l1.3,0.4c-1,5.3,2.3,10.7,7.7,12.1c5.6,1.5,11.3-2,12.8-7.6l0.2-0.7c0.1-0.2-0.1-0.4-0.3-0.5
		L20.5,12C20.3,11.9,20.1,12,20.1,12.2z M22.2,9l-1.9,0.2c-0.2,0-0.4,0.2-0.3,0.4l0.1,0.6c0,0.2,0.2,0.4,0.4,0.3l1.9-0.2
		c0.2,0,0.4-0.2,0.3-0.4l-0.1-0.6C22.6,9.2,22.4,9,22.2,9z M20.7,5.4l-1.7,0.9c-0.2,0.1-0.2,0.3-0.1,0.5l0.3,0.5
		c0.1,0.2,0.3,0.2,0.5,0.1l1.7-0.9c0.2-0.1,0.2-0.3,0.1-0.5l-0.3-0.5C21.1,5.4,20.9,5.3,20.7,5.4z M18,2.7l-1.2,1.5
		c-0.1,0.2-0.1,0.4,0.1,0.5L17.3,5c0.2,0.1,0.4,0.1,0.5-0.1l1.2-1.5C19.2,3.3,19.2,3.1,19,3l-0.5-0.4C18.4,2.5,18.2,2.5,18,2.7z
		 M14.5,1.1l-0.5,1.8c-0.1,0.2,0.1,0.4,0.3,0.5l0.6,0.2c0.2,0.1,0.4-0.1,0.5-0.3l0.5-1.8c0.1-0.2-0.1-0.4-0.3-0.5l-0.6-0.2
		C14.7,0.8,14.5,0.9,14.5,1.1z M10.6,1l0.2,1.9c0,0.2,0.2,0.4,0.4,0.3l0.6-0.1c0.2,0,0.4-0.2,0.3-0.4l-0.2-1.9
		c0-0.2-0.2-0.4-0.4-0.3l-0.6,0.1C10.7,0.6,10.6,0.8,10.6,1z M7,2.3L7.8,4c0.1,0.2,0.3,0.3,0.5,0.2l0.5-0.3C9.1,3.8,9.1,3.6,9,3.4
		L8.1,1.7C8,1.5,7.8,1.4,7.6,1.5L7.1,1.8C6.9,1.9,6.9,2.1,7,2.3z"/>
</g>
</svg>
