<svg width="22" height="18" viewBox="0 0 22 18" version="1.1" xmlns="http://www.w3.org/2000/svg" xmlns:xlink="http://www.w3.org/1999/xlink"><title>Antenna</title><desc>Created with Sketch.</desc><g id="Page-1" stroke="none" stroke-width="1" fill="none" fill-rule="evenodd"><path d="M16.801,7.716 C17.756,7.171 18.074,5.977 17.512,5.048 C16.952,4.119 15.722,3.806 14.767,4.351 C14.108,4.727 13.778,5.416 13.805,6.11 L12.624,6.782 L8.998,0.778 C5.139,2.977 3.847,7.8 6.112,11.548 C6.176,11.657 6.264,11.742 6.336,11.848 L0.002,17.991 L10.729,18.003 L10.729,15.067 C12.821,15.692 15.159,15.517 17.196,14.355 L13.57,8.35 L14.752,7.677 C15.363,8.036 16.142,8.091 16.801,7.716 Z M9.065,16.385 L4.015,16.38 L7.386,13.108 C7.894,13.602 8.457,14.013 9.065,14.353 L9.065,16.385 L9.065,16.385 Z M17.896,9.528 L17.475,8.832 C19.062,7.928 19.594,5.935 18.662,4.391 C17.732,2.847 15.679,2.327 14.094,3.232 L13.673,2.536 C15.657,1.405 18.215,2.056 19.378,3.983 C20.543,5.912 19.876,8.399 17.896,9.528 Z M18.93,11.241 L18.509,10.544 C21.066,9.086 21.926,5.876 20.424,3.387 C18.921,0.899 15.617,0.062 13.058,1.52 L12.639,0.823 C15.59,-0.859 19.404,0.106 21.138,2.978 C22.872,5.851 21.881,9.557 18.93,11.241 Z" id="Antenna" fill="#D7D7D7"/></g></svg>