<?xml version="1.0" encoding="UTF-8"?>
<svg width="120px" height="120px" viewBox="0 0 120 120" version="1.1" xmlns="http://www.w3.org/2000/svg" xmlns:xlink="http://www.w3.org/1999/xlink">
    <!-- Generator: Sketch 44.1 (41455) - http://www.bohemiancoding.com/sketch -->
    <title>avatar no shadow</title>
    <desc>Created with Sketch.</desc>
    <defs></defs>
    <g id="Page-1" stroke="none" stroke-width="1" fill="none" fill-rule="evenodd">
        <g id="avatar-no-shadow" fill-rule="nonzero">
            <g id="Shape">
                <path d="M60,117.5 C28.2436269,117.5 2.5,91.7563731 2.5,60 C2.5,28.2436269 28.2436269,2.5 60,2.5 C91.7563731,2.5 117.5,28.2436269 117.5,60 C117.466929,91.7426645 91.7426645,117.466929 60,117.5 Z" fill="#EBEBEB"></path>
                <path d="M60,5 C90.3756612,5 115,29.6243388 115,60 C115,90.3756612 90.3756612,115 60,115 C29.6243388,115 5,90.3756612 5,60 C5,29.6243388 29.6243388,5 60,5 L60,5 Z M60,-4.87720975e-15 C26.862915,-9.12671705e-15 -1.01527322e-14,26.862915 -1.42108547e-14,60 C-1.82689772e-14,93.137085 26.862915,120 60,120 C93.137085,120 120,93.137085 120,60 C119.961426,26.878906 93.121094,0.0385738115 60,-7.10542736e-15 L60,-4.87720975e-15 Z" fill="#FFFFFF"></path>
                <path d="M71.07,68.87 C78.7756437,63.9529982 82.3121889,54.5408897 79.751109,45.7662261 C77.1900291,36.9915625 69.1457796,30.9595653 60.005,30.9595653 C50.8642204,30.9595653 42.8199709,36.9915625 40.258891,45.7662261 C37.6978111,54.5408897 41.2343563,63.9529982 48.94,68.87 C35.3833814,70.1103858 25.005392,81.4767551 25,95.09 L25,102.38 C34,110.26 46.68,115 60,115 C73.32,115 86,110.26 95,102.38 L95,95.09 C94.9950831,81.4802536 84.6226607,70.1152341 71.07,68.87 Z" fill="#BCBCBC"></path>
            </g>
        </g>
    </g>
</svg>