<?xml version="1.0" encoding="UTF-8"?>
<svg width="120px" height="120px" viewBox="0 0 120 120" version="1.1" xmlns="http://www.w3.org/2000/svg" xmlns:xlink="http://www.w3.org/1999/xlink">
    <!-- Generator: Sketch 44.1 (41455) - http://www.bohemiancoding.com/sketch -->
    <title>avatar1</title>
    <desc>Created with Sketch.</desc>
    <defs></defs>
    <g id="Page-1" stroke="none" stroke-width="1" fill="none" fill-rule="evenodd">
        <g id="avatar1" fill-rule="nonzero">
            <g id="Group">
                <path d="M60,117.5 C28.3,117.5 2.5,91.7 2.5,60 C2.5,28.3 28.3,2.5 60,2.5 C91.7,2.5 117.5,28.3 117.5,60 C117.5,91.7 91.7,117.5 60,117.5 Z" id="Shape" fill="#EBEBEB"></path>
                <path d="M60,5 C90.4,5 115,29.6 115,60 C115,90.4 90.4,115 60,115 C29.6,115 5,90.4 5,60 C5,29.6 29.6,5 60,5 L60,5 Z M60,0 C26.9,0 0,26.9 0,60 C0,93.1 26.9,120 60,120 C93.1,120 120,93.1 120,60 C120,26.9 93.1,0 60,0 L60,0 Z" id="Shape" fill="#FFFFFF"></path>
            </g>
            <path d="M71.1,68.9 C80.7,62.8 83.5,50.1 77.4,40.5 C71.3,30.9 58.6,28.1 49,34.2 C39.4,40.3 36.6,53 42.7,62.6 C44.3,65.1 46.5,67.3 49,68.9 C35.4,70.1 25,81.5 25,95.1 L25,102.4 C34,110.3 46.7,115 60,115 C73.3,115 86,110.3 95,102.4 L95,95.1 C95,81.5 84.6,70.1 71.1,68.9 Z" id="Shape" fill="#BCBCBC"></path>
        </g>
    </g>
</svg>