<svg id="Layer_1" data-name="Layer 1" xmlns="http://www.w3.org/2000/svg" viewBox="0 0 120 120"><defs><style>.cls-1{fill:#ebebeb;}.cls-2{fill:#fff;}.cls-3{fill:#bcbcbc;}</style></defs><title>avatar no shadow</title><path class="cls-1" d="M60,117.5A57.5,57.5,0,1,1,117.5,60,57.56,57.56,0,0,1,60,117.5Z"/><path class="cls-2" d="M60,5A55,55,0,1,1,5,60,55,55,0,0,1,60,5m0-5a60,60,0,1,0,60,60A60.07,60.07,0,0,0,60,0h0Z"/><path class="cls-3" d="M71.07,68.87a20.57,20.57,0,1,0-22.13,0A26.34,26.34,0,0,0,25,95.09v7.29C34,110.26,46.68,115,60,115s26-4.74,35-12.62V95.09A26.34,26.34,0,0,0,71.07,68.87Z"/></svg>