<?xml version="1.0" encoding="utf-8"?>
<!-- Generator: Adobe Illustrator 19.2.1, SVG Export Plug-In . SVG Version: 6.00 Build 0)  -->
<svg version="1.1" id="Layer_1" xmlns="http://www.w3.org/2000/svg" xmlns:xlink="http://www.w3.org/1999/xlink" x="0px" y="0px"
	 viewBox="0 0 120 120" style="enable-background:new 0 0 120 120;" xml:space="preserve">
<style type="text/css">
	.st0{fill:#EBEBEB;}
	.st1{fill:#FFFFFF;}
	.st2{fill:#BCBCBC;}
</style>
<title>avatar no shadow</title>
<g>
	<path class="st0" d="M60,117.5C28.3,117.5,2.5,91.7,2.5,60S28.3,2.5,60,2.5s57.5,25.8,57.5,57.5S91.7,117.5,60,117.5z"/>
	<path class="st1" d="M60,5c30.4,0,55,24.6,55,55s-24.6,55-55,55S5,90.4,5,60S29.6,5,60,5 M60,0C26.9,0,0,26.9,0,60s26.9,60,60,60
		s60-26.9,60-60S93.1,0,60,0L60,0z"/>
</g>
<path class="st2" d="M71.1,68.9c9.6-6.1,12.4-18.8,6.3-28.4s-18.8-12.4-28.4-6.3S36.6,53,42.7,62.6c1.6,2.5,3.8,4.7,6.3,6.3
	C35.4,70.1,25,81.5,25,95.1v7.3c9,7.9,21.7,12.6,35,12.6s26-4.7,35-12.6v-7.3C95,81.5,84.6,70.1,71.1,68.9z"/>
</svg>
