<?xml version="1.0" encoding="UTF-8"?>
<svg width="16px" height="17px" viewBox="0 0 16 17" version="1.1" xmlns="http://www.w3.org/2000/svg" xmlns:xlink="http://www.w3.org/1999/xlink">
    <!-- Generator: Sketch 44.1 (41455) - http://www.bohemiancoding.com/sketch -->
    <title>calendar</title>
    <desc>Created with Sketch.</desc>
    <defs></defs>
    <g id="Page-1" stroke="none" stroke-width="1" fill="none" fill-rule="evenodd">
        <g id="calendar" transform="translate(-1.000000, 0.000000)" fill="#D7D7D7">
            <path d="M15.532,16.999 L2.466,16.999 C1.655,16.999 0.998,16.308 0.998,15.467 L0.998,3.415 C0.998,2.589 1.642,1.917 2.423,1.892 L2.423,3.949 C2.423,4.878 3.149,5.628 4.043,5.628 L5.065,5.628 C5.959,5.628 6.695,4.878 6.695,3.949 L6.695,1.885 L11.302,1.885 L11.302,3.949 C11.302,4.878 12.037,5.628 12.932,5.628 L13.954,5.628 C14.849,5.628 15.574,4.878 15.574,3.949 L15.574,1.892 C16.356,1.917 16.998,2.589 16.998,3.415 L16.998,15.467 C16.998,16.307 16.34,16.999 15.532,16.999 Z M15.1,8.491 C15.1,8.127 14.815,7.832 14.466,7.832 L3.504,7.832 C3.154,7.832 2.869,8.127 2.869,8.491 L2.869,14.716 C2.869,15.08 3.154,15.375 3.504,15.375 L14.466,15.375 C14.815,15.375 15.1,15.08 15.1,14.716 L15.1,8.491 Z M12.886,14.475 L11.59,14.475 C11.384,14.475 11.218,14.303 11.218,14.09 L11.218,12.744 C11.218,12.53 11.384,12.358 11.59,12.358 L12.886,12.358 C13.09,12.358 13.257,12.53 13.257,12.744 L13.257,14.09 C13.257,14.303 13.09,14.475 12.886,14.475 Z M12.886,11.111 L11.59,11.111 C11.384,11.111 11.218,10.938 11.218,10.725 L11.218,9.378 C11.218,9.165 11.384,8.993 11.59,8.993 L12.886,8.993 C13.09,8.993 13.257,9.165 13.257,9.378 L13.257,10.725 C13.257,10.938 13.09,11.111 12.886,11.111 Z M9.646,14.475 L8.35,14.475 C8.146,14.475 7.98,14.303 7.98,14.09 L7.98,12.744 C7.98,12.53 8.146,12.358 8.35,12.358 L9.646,12.358 C9.852,12.358 10.018,12.53 10.018,12.744 L10.018,14.09 C10.018,14.303 9.852,14.475 9.646,14.475 Z M9.646,11.111 L8.35,11.111 C8.146,11.111 7.98,10.938 7.98,10.725 L7.98,9.378 C7.98,9.165 8.146,8.993 8.35,8.993 L9.646,8.993 C9.852,8.993 10.018,9.165 10.018,9.378 L10.018,10.725 C10.018,10.938 9.852,11.111 9.646,11.111 Z M6.407,14.475 L5.112,14.475 C4.906,14.475 4.739,14.303 4.739,14.09 L4.739,12.744 C4.739,12.53 4.906,12.358 5.112,12.358 L6.407,12.358 C6.611,12.358 6.778,12.53 6.778,12.744 L6.778,14.09 C6.778,14.303 6.611,14.475 6.407,14.475 Z M6.407,11.111 L5.112,11.111 C4.906,11.111 4.739,10.938 4.739,10.725 L4.739,9.378 C4.739,9.165 4.906,8.993 5.112,8.993 L6.407,8.993 C6.611,8.993 6.778,9.165 6.778,9.378 L6.778,10.725 C6.778,10.938 6.611,11.111 6.407,11.111 Z M13.931,4.525 L12.919,4.525 C12.612,4.525 12.363,4.267 12.363,3.948 L12.363,0.577 C12.363,0.258 12.612,0 12.919,0 L13.931,0 C14.237,0 14.484,0.258 14.484,0.577 L14.484,3.948 C14.484,4.267 14.237,4.525 13.931,4.525 Z M5.05,4.525 L4.039,4.525 C3.732,4.525 3.483,4.267 3.483,3.948 L3.483,0.577 C3.483,0.258 3.732,0 4.039,0 L5.05,0 C5.357,0 5.606,0.258 5.606,0.577 L5.606,3.948 C5.606,4.267 5.357,4.525 5.05,4.525 Z"></path>
        </g>
    </g>
</svg>