<?xml version="1.0" encoding="UTF-8"?>
<svg width="16px" height="16px" viewBox="0 0 16 16" version="1.1" xmlns="http://www.w3.org/2000/svg" xmlns:xlink="http://www.w3.org/1999/xlink">
    <!-- Generator: Sketch 44.1 (41455) - http://www.bohemiancoding.com/sketch -->
    <title>calendar-white</title>
    <desc>Created with Sketch.</desc>
    <defs></defs>
    <g id="Page-1" stroke="none" stroke-width="1" fill="none" fill-rule="evenodd">
        <g id="calendar-white" transform="translate(-1.000000, 0.000000)" fill="#FFFFFF">
            <path d="M15.531,16 L2.465,16 C1.656,16 0.999,15.349 0.999,14.557 L0.999,3.214 C0.999,2.437 1.64,1.804 2.423,1.781 L2.423,3.717 C2.423,4.591 3.148,5.296 4.042,5.296 L5.064,5.296 C5.96,5.296 6.695,4.591 6.695,3.717 L6.695,1.774 L11.301,1.774 L11.301,3.717 C11.301,4.591 12.037,5.296 12.931,5.296 L13.954,5.296 C14.848,5.296 15.574,4.591 15.574,3.717 L15.574,1.781 C16.356,1.804 16.998,2.437 16.998,3.214 L16.998,14.557 C16.998,15.348 16.34,16 15.531,16 Z M15.099,7.992 C15.099,7.649 14.815,7.371 14.466,7.371 L3.503,7.371 C3.153,7.371 2.87,7.649 2.87,7.992 L2.87,13.851 C2.87,14.193 3.153,14.471 3.503,14.471 L14.466,14.471 C14.815,14.471 15.099,14.193 15.099,13.851 L15.099,7.992 Z M12.884,13.624 L11.589,13.624 C11.385,13.624 11.219,13.462 11.219,13.261 L11.219,11.994 C11.219,11.793 11.385,11.631 11.589,11.631 L12.884,11.631 C13.091,11.631 13.257,11.793 13.257,11.994 L13.257,13.261 C13.257,13.461 13.091,13.624 12.884,13.624 Z M12.884,10.457 L11.589,10.457 C11.385,10.457 11.219,10.294 11.219,10.094 L11.219,8.826 C11.219,8.626 11.385,8.464 11.589,8.464 L12.884,8.464 C13.091,8.464 13.257,8.626 13.257,8.826 L13.257,10.094 C13.257,10.294 13.091,10.457 12.884,10.457 Z M9.646,13.624 L8.35,13.624 C8.145,13.624 7.978,13.462 7.978,13.261 L7.978,11.994 C7.978,11.793 8.145,11.631 8.35,11.631 L9.646,11.631 C9.85,11.631 10.018,11.793 10.018,11.994 L10.018,13.261 C10.018,13.461 9.85,13.624 9.646,13.624 Z M9.646,10.457 L8.35,10.457 C8.145,10.457 7.978,10.294 7.978,10.094 L7.978,8.826 C7.978,8.626 8.145,8.464 8.35,8.464 L9.646,8.464 C9.85,8.464 10.018,8.626 10.018,8.826 L10.018,10.094 C10.018,10.294 9.85,10.457 9.646,10.457 Z M6.407,13.624 L5.111,13.624 C4.906,13.624 4.739,13.462 4.739,13.261 L4.739,11.994 C4.739,11.793 4.906,11.631 5.111,11.631 L6.407,11.631 C6.612,11.631 6.778,11.793 6.778,11.994 L6.778,13.261 C6.778,13.461 6.612,13.624 6.407,13.624 Z M6.407,10.457 L5.111,10.457 C4.906,10.457 4.739,10.294 4.739,10.094 L4.739,8.826 C4.739,8.626 4.906,8.464 5.111,8.464 L6.407,8.464 C6.612,8.464 6.778,8.626 6.778,8.826 L6.778,10.094 C6.778,10.294 6.612,10.457 6.407,10.457 Z M13.929,4.259 L12.919,4.259 C12.612,4.259 12.362,4.016 12.362,3.716 L12.362,0.543 C12.362,0.243 12.612,0 12.919,0 L13.929,0 C14.237,0 14.485,0.243 14.485,0.543 L14.485,3.716 C14.485,4.016 14.237,4.259 13.929,4.259 Z M5.05,4.259 L4.04,4.259 C3.731,4.259 3.484,4.016 3.484,3.716 L3.484,0.543 C3.484,0.243 3.731,0 4.04,0 L5.05,0 C5.358,0 5.605,0.243 5.605,0.543 L5.605,3.716 C5.605,4.016 5.358,4.259 5.05,4.259 Z"></path>
        </g>
    </g>
</svg>