<?xml version="1.0" encoding="UTF-8"?>
<svg width="38px" height="40px" viewBox="0 0 38 40" version="1.1" xmlns="http://www.w3.org/2000/svg" xmlns:xlink="http://www.w3.org/1999/xlink">
    <!-- Generator: Sketch 44.1 (41455) - http://www.bohemiancoding.com/sketch -->
    <title>Carrier1</title>
    <desc>Created with Sketch.</desc>
    <defs></defs>
    <g id="Page-1" stroke="none" stroke-width="1" fill="none" fill-rule="evenodd">
        <g id="Carrier1" fill-rule="nonzero">
            <path d="M28.86,39.2 L9.15,39.2 C8.36,39.2 7.72,38.56 7.72,37.77 L7.72,1.63 C7.72,0.84 8.36,0.2 9.15,0.2 L28.87,0.2 C29.66,0.2 30.3,0.84 30.3,1.63 L30.3,37.77 C30.29,38.56 29.65,39.2 28.86,39.2 Z" id="Shape" fill="#EAEAEA"></path>
            <rect id="Rectangle-path" fill="#6F29B5" x="9.73" y="6.36" width="18.55" height="26.95"></rect>
            <circle id="Oval" fill="#F4C31A" cx="19" cy="20.25" r="7.91"></circle>
            <circle id="Oval" fill="#F4A217" cx="19" cy="20.25" r="7.06"></circle>
            <circle id="Oval" fill="#F4C31A" cx="19" cy="20.25" r="6.2"></circle>
            <rect id="Rectangle-path" fill="#9C9C9C" x="15.24" y="2.42" width="7.53" height="1.11"></rect>
            <circle id="Oval" fill="#D6D6D6" cx="19.02" cy="35.78" r="1.62"></circle>
            <g id="Group" transform="translate(31.000000, 14.000000)" fill="#6F29B5">
                <path d="M4.31,0.69 C4.18,0.57 3.99,0.56 3.85,0.65 L3.85,0.65 C3.64,0.79 3.61,1.09 3.8,1.26 C5.01,2.35 5.8,4.06 5.8,5.99 C5.8,7.86 5.06,9.53 3.9,10.62 C3.72,10.79 3.75,11.09 3.96,11.22 L3.96,11.22 C4.11,11.31 4.3,11.3 4.43,11.18 C5.73,9.95 6.56,8.08 6.56,5.99 C6.56,3.84 5.68,1.92 4.31,0.69 Z" id="Shape"></path>
                <path d="M2.64,1.78 C2.51,1.66 2.32,1.64 2.17,1.74 L2.17,1.74 C1.96,1.87 1.93,2.17 2.11,2.34 C3.06,3.25 3.65,4.53 3.65,5.94 C3.65,7.33 3.07,8.6 2.14,9.51 C1.96,9.68 2,9.97 2.21,10.11 L2.21,10.11 C2.36,10.21 2.56,10.19 2.68,10.06 C3.75,9.01 4.42,7.55 4.42,5.94 C4.41,4.3 3.73,2.83 2.64,1.78 Z" id="Shape"></path>
                <path d="M1.02,2.85 C0.89,2.71 0.68,2.68 0.53,2.78 L0.53,2.78 C0.33,2.91 0.29,3.19 0.46,3.37 C1.11,4.08 1.49,4.96 1.49,5.92 C1.49,6.87 1.11,7.75 0.47,8.46 C0.31,8.64 0.34,8.92 0.54,9.04 L0.54,9.04 C0.7,9.14 0.91,9.11 1.04,8.97 C1.81,8.13 2.26,7.07 2.26,5.92 C2.26,4.76 1.8,3.69 1.02,2.85 Z" id="Shape"></path>
            </g>
            <g id="Group" transform="translate(0.000000, 14.000000)" fill="#6F29B5">
                <path d="M2.73,0.69 C2.86,0.57 3.05,0.56 3.19,0.65 L3.19,0.65 C3.4,0.79 3.43,1.09 3.24,1.26 C2.03,2.35 1.24,4.06 1.24,5.99 C1.24,7.86 1.98,9.53 3.14,10.62 C3.32,10.79 3.29,11.09 3.08,11.22 L3.08,11.22 C2.93,11.31 2.74,11.3 2.61,11.18 C1.31,9.95 0.48,8.08 0.48,5.99 C0.48,3.84 1.36,1.92 2.73,0.69 Z" id="Shape"></path>
                <path d="M4.4,1.78 C4.53,1.66 4.72,1.64 4.87,1.74 L4.87,1.74 C5.08,1.87 5.11,2.17 4.93,2.34 C3.98,3.25 3.39,4.53 3.39,5.94 C3.39,7.33 3.97,8.6 4.9,9.51 C5.08,9.68 5.04,9.97 4.83,10.11 L4.83,10.11 C4.68,10.21 4.48,10.19 4.36,10.06 C3.29,9 2.63,7.54 2.63,5.93 C2.63,4.3 3.31,2.83 4.4,1.78 Z" id="Shape"></path>
                <path d="M6.02,2.85 C6.15,2.71 6.36,2.68 6.51,2.78 L6.51,2.78 C6.71,2.91 6.75,3.19 6.58,3.37 C5.93,4.08 5.55,4.96 5.55,5.92 C5.55,6.87 5.93,7.75 6.57,8.46 C6.73,8.64 6.7,8.92 6.5,9.04 L6.5,9.04 C6.34,9.14 6.13,9.11 6,8.97 C5.23,8.13 4.78,7.07 4.78,5.92 C4.78,4.76 5.24,3.69 6.02,2.85 Z" id="Shape"></path>
            </g>
            <g id="Group" transform="translate(15.000000, 16.000000)" fill="#6F29B5">
                <path d="M2.05,1.05 C2.17,0.93 2.17,0.74 2.05,0.62 C1.93,0.5 1.74,0.5 1.62,0.62 C0.31,1.93 0.31,4.07 1.62,5.38 C1.68,5.44 1.76,5.47 1.83,5.47 C1.91,5.47 1.98,5.44 2.04,5.38 C2.16,5.26 2.16,5.07 2.04,4.95 C0.97,3.89 0.97,2.13 2.05,1.05 Z" id="Shape"></path>
                <path d="M6.39,0.63 C6.27,0.51 6.08,0.51 5.96,0.63 C5.84,0.75 5.84,0.94 5.96,1.06 C6.48,1.58 6.77,2.28 6.77,3.02 C6.77,3.76 6.48,4.45 5.96,4.98 C5.84,5.1 5.84,5.29 5.96,5.41 C6.02,5.47 6.1,5.5 6.17,5.5 C6.25,5.5 6.32,5.47 6.38,5.41 C7.02,4.77 7.37,3.93 7.37,3.03 C7.37,2.11 7.02,1.26 6.39,0.63 Z" id="Shape"></path>
                <path d="M2.43,4.58 C2.49,4.64 2.57,4.67 2.64,4.67 C2.72,4.67 2.79,4.64 2.85,4.58 C2.97,4.46 2.97,4.27 2.85,4.15 C2.22,3.52 2.22,2.5 2.85,1.87 C2.97,1.75 2.97,1.56 2.85,1.44 C2.73,1.32 2.54,1.32 2.42,1.44 C1.57,2.3 1.57,3.71 2.43,4.58 Z" id="Shape"></path>
                <path d="M5.15,4.58 C5.21,4.64 5.29,4.67 5.36,4.67 C5.43,4.67 5.51,4.64 5.57,4.58 C5.99,4.16 6.22,3.6 6.22,3.01 C6.22,2.42 5.99,1.86 5.57,1.44 C5.45,1.32 5.26,1.32 5.14,1.44 C5.02,1.56 5.02,1.75 5.14,1.87 C5.45,2.18 5.61,2.58 5.61,3.01 C5.61,3.44 5.44,3.85 5.14,4.15 C5.03,4.27 5.03,4.46 5.15,4.58 Z" id="Shape"></path>
                <path d="M4,3.78 C4.42,3.78 4.77,3.44 4.77,3.01 C4.77,2.59 4.43,2.24 4,2.24 C3.58,2.24 3.23,2.58 3.23,3.01 C3.24,3.43 3.58,3.78 4,3.78 Z" id="Shape"></path>
                <path d="M4.29,4.2 C4.25,4.08 4.13,3.99 4,3.99 C3.87,3.99 3.75,4.07 3.71,4.2 L2.4,8.24 C2.35,8.4 2.44,8.57 2.59,8.62 C2.62,8.63 2.65,8.63 2.68,8.63 C2.81,8.63 2.93,8.55 2.97,8.42 L3.13,7.93 L4.85,7.93 L5.01,8.42 C5.06,8.58 5.23,8.67 5.39,8.61 C5.55,8.56 5.64,8.39 5.58,8.23 L4.29,4.2 Z M4,5.27 L4.25,6.05 L3.74,6.05 L4,5.27 Z M3.34,7.33 L3.56,6.66 L4.46,6.66 L4.68,7.33 L3.34,7.33 Z" id="Shape"></path>
            </g>
        </g>
    </g>
</svg>