<?xml version="1.0" encoding="utf-8"?>
<!-- Generator: Adobe Illustrator 19.2.1, SVG Export Plug-In . SVG Version: 6.00 Build 0)  -->
<svg version="1.1" id="Layer_1" xmlns="http://www.w3.org/2000/svg" xmlns:xlink="http://www.w3.org/1999/xlink" x="0px" y="0px"
	 viewBox="0 0 37.83 39.7" style="enable-background:new 0 0 37.83 39.7;" xml:space="preserve">
<style type="text/css">
	.st0{fill:#EAEAEA;}
	.st1{fill:#6F29B5;}
	.st2{fill:#F4C31A;}
	.st3{fill:#F4A217;}
	.st4{fill:#9C9C9C;}
	.st5{fill:#D6D6D6;}
	.st6{fill:none;stroke:#000000;stroke-width:0.0855;stroke-miterlimit:10;}
</style>
<g>
	<path class="st0" d="M28.86,39.2H9.15c-0.79,0-1.43-0.64-1.43-1.43V1.63c0-0.79,0.64-1.43,1.43-1.43h19.72
		c0.79,0,1.43,0.64,1.43,1.43v36.14C30.29,38.56,29.65,39.2,28.86,39.2z"/>
	<rect x="9.73" y="6.36" class="st1" width="18.55" height="26.95"/>
	<circle class="st2" cx="19" cy="20.25" r="7.91"/>
	<circle class="st3" cx="19" cy="20.25" r="7.06"/>
	<circle class="st2" cx="19" cy="20.25" r="6.2"/>
	<rect x="15.24" y="2.42" class="st4" width="7.53" height="1.11"/>
	<circle class="st5" cx="19.02" cy="35.78" r="1.62"/>
	<path class="st6" d="M35.16,25.4"/>
	<g>
		<path class="st1" d="M35.31,14.69c-0.13-0.12-0.32-0.13-0.46-0.04l0,0c-0.21,0.14-0.24,0.44-0.05,0.61c1.21,1.09,2,2.8,2,4.73
			c0,1.87-0.74,3.54-1.9,4.63c-0.18,0.17-0.15,0.47,0.06,0.6l0,0c0.15,0.09,0.34,0.08,0.47-0.04c1.3-1.23,2.13-3.1,2.13-5.19
			C37.56,17.84,36.68,15.92,35.31,14.69z"/>
		<path class="st1" d="M33.64,15.78c-0.13-0.12-0.32-0.14-0.47-0.04l0,0c-0.21,0.13-0.24,0.43-0.06,0.6
			c0.95,0.91,1.54,2.19,1.54,3.6c0,1.39-0.58,2.66-1.51,3.57c-0.18,0.17-0.14,0.46,0.07,0.6l0,0c0.15,0.1,0.35,0.08,0.47-0.05
			c1.07-1.05,1.74-2.51,1.74-4.12C35.41,18.3,34.73,16.83,33.64,15.78z"/>
		<path class="st1" d="M32.02,16.85c-0.13-0.14-0.34-0.17-0.49-0.07l0,0c-0.2,0.13-0.24,0.41-0.07,0.59
			c0.65,0.71,1.03,1.59,1.03,2.55c0,0.95-0.38,1.83-1.02,2.54c-0.16,0.18-0.13,0.46,0.07,0.58l0,0c0.16,0.1,0.37,0.07,0.5-0.07
			c0.77-0.84,1.22-1.9,1.22-3.05C33.26,18.76,32.8,17.69,32.02,16.85z"/>
	</g>
	<g>
		<path class="st1" d="M2.73,14.69c0.13-0.12,0.32-0.13,0.46-0.04l0,0c0.21,0.14,0.24,0.44,0.05,0.61c-1.21,1.09-2,2.8-2,4.73
			c0,1.87,0.74,3.54,1.9,4.63c0.18,0.17,0.15,0.47-0.06,0.6l0,0c-0.15,0.09-0.34,0.08-0.47-0.04c-1.3-1.23-2.13-3.1-2.13-5.19
			C0.48,17.84,1.36,15.92,2.73,14.69z"/>
		<path class="st1" d="M4.4,15.78c0.13-0.12,0.32-0.14,0.47-0.04l0,0c0.21,0.13,0.24,0.43,0.06,0.6c-0.95,0.91-1.54,2.19-1.54,3.6
			c0,1.39,0.58,2.66,1.51,3.57c0.18,0.17,0.14,0.46-0.07,0.6l0,0c-0.15,0.1-0.35,0.08-0.47-0.05C3.29,23,2.63,21.54,2.63,19.93
			C2.63,18.3,3.31,16.83,4.4,15.78z"/>
		<path class="st1" d="M6.02,16.85c0.13-0.14,0.34-0.17,0.49-0.07l0,0c0.2,0.13,0.24,0.41,0.07,0.59c-0.65,0.71-1.03,1.59-1.03,2.55
			c0,0.95,0.38,1.83,1.02,2.54c0.16,0.18,0.13,0.46-0.07,0.58l0,0c-0.16,0.1-0.37,0.07-0.5-0.07c-0.77-0.84-1.22-1.9-1.22-3.05
			C4.78,18.76,5.24,17.69,6.02,16.85z"/>
	</g>
	<g>
		<path class="st1" d="M17.05,17.05c0.12-0.12,0.12-0.31,0-0.43c-0.12-0.12-0.31-0.12-0.43,0c-1.31,1.31-1.31,3.45,0,4.76
			c0.06,0.06,0.14,0.09,0.21,0.09c0.08,0,0.15-0.03,0.21-0.09c0.12-0.12,0.12-0.31,0-0.43C15.97,19.89,15.97,18.13,17.05,17.05z"/>
		<path class="st1" d="M21.39,16.63c-0.12-0.12-0.31-0.12-0.43,0c-0.12,0.12-0.12,0.31,0,0.43c0.52,0.52,0.81,1.22,0.81,1.96
			c0,0.74-0.29,1.43-0.81,1.96c-0.12,0.12-0.12,0.31,0,0.43c0.06,0.06,0.14,0.09,0.21,0.09c0.08,0,0.15-0.03,0.21-0.09
			c0.64-0.64,0.99-1.48,0.99-2.38C22.37,18.11,22.02,17.26,21.39,16.63z"/>
		<path class="st1" d="M17.43,20.58c0.06,0.06,0.14,0.09,0.21,0.09c0.08,0,0.15-0.03,0.21-0.09c0.12-0.12,0.12-0.31,0-0.43
			c-0.63-0.63-0.63-1.65,0-2.28c0.12-0.12,0.12-0.31,0-0.43c-0.12-0.12-0.31-0.12-0.43,0C16.57,18.3,16.57,19.71,17.43,20.58z"/>
		<path class="st1" d="M20.15,20.58c0.06,0.06,0.14,0.09,0.21,0.09s0.15-0.03,0.21-0.09c0.42-0.42,0.65-0.98,0.65-1.57
			c0-0.59-0.23-1.15-0.65-1.57c-0.12-0.12-0.31-0.12-0.43,0c-0.12,0.12-0.12,0.31,0,0.43c0.31,0.31,0.47,0.71,0.47,1.14
			c0,0.43-0.17,0.84-0.47,1.14C20.03,20.27,20.03,20.46,20.15,20.58z"/>
		<path class="st1" d="M19,19.78c0.42,0,0.77-0.34,0.77-0.77c0-0.42-0.34-0.77-0.77-0.77c-0.42,0-0.77,0.34-0.77,0.77
			C18.24,19.43,18.58,19.78,19,19.78z"/>
		<path class="st1" d="M19.29,20.2c-0.04-0.12-0.16-0.21-0.29-0.21s-0.25,0.08-0.29,0.21l-1.31,4.04c-0.05,0.16,0.04,0.33,0.19,0.38
			c0.03,0.01,0.06,0.01,0.09,0.01c0.13,0,0.25-0.08,0.29-0.21l0.16-0.49h1.72l0.16,0.49c0.05,0.16,0.22,0.25,0.38,0.19
			c0.16-0.05,0.25-0.22,0.19-0.38L19.29,20.2z M19,21.27l0.25,0.78h-0.51L19,21.27z M18.34,23.33l0.22-0.67h0.9l0.22,0.67H18.34z"/>
	</g>
</g>
</svg>
