<svg id="Layer_1" data-name="Layer 1" xmlns="http://www.w3.org/2000/svg" viewBox="0 0 78 78"><defs><style>.cls-1{fill:#fff;}.cls-2{fill:#5cb85c;}</style></defs><title>checkmark</title><polygon class="cls-1" points="13.43 39.59 34.92 57.52 65.83 23.56 57.82 17.46 33.78 43.66 20.98 32.93 13.43 39.59"/><path class="cls-2" d="M39,0A39,39,0,1,0,78,39,39,39,0,0,0,39,0ZM60.74,26l-24,27a3,3,0,0,1-4.12.35l-15-12a3,3,0,0,1,3.75-4.69L34.15,46.88,56.26,22A3,3,0,0,1,60.74,26Z" transform="translate(0)"/></svg>