<?xml version="1.0" encoding="UTF-8"?>
<svg width="78px" height="78px" viewBox="0 0 78 78" version="1.1" xmlns="http://www.w3.org/2000/svg" xmlns:xlink="http://www.w3.org/1999/xlink">
    <!-- Generator: Sketch 44.1 (41455) - http://www.bohemiancoding.com/sketch -->
    <title>checkmark</title>
    <desc>Created with Sketch.</desc>
    <defs></defs>
    <g id="Page-1" stroke="none" stroke-width="1" fill="none" fill-rule="evenodd">
        <g id="checkmark">
            <g>
                <path d="M39,0 C17.4608948,-1.31888981e-15 2.63777963e-15,17.4608948 0,39 C-2.63777963e-15,60.5391052 17.4608948,78 39,78 C60.5391052,78 78,60.5391052 78,39 C78,28.6565569 73.8910832,18.7367543 66.5771645,11.4228355 C59.2632457,4.10891677 49.3434431,6.33353224e-16 39,0 Z" id="Shape" fill="#5CB85C" fill-rule="nonzero"></path>
                <path d="M60.74,26 L36.74,53 C35.6791842,54.1955723 33.86729,54.3494953 32.62,53.35 L17.62,41.35 C16.7822122,40.680127 16.3654373,39.6141844 16.5266704,38.5537024 C16.6879035,37.4932204 17.4026495,36.5993114 18.4016704,36.2087024 C19.4006914,35.8180933 20.5322122,35.990127 21.37,36.66 L34.15,46.88 L56.26,22 C57.3645695,20.7628822 59.2628821,20.6554306 60.4999999,21.7600001 C61.7371178,22.8645695 61.8445694,24.7628822 60.74,26 L60.74,26 Z" id="Path" fill="#FFFFFF"></path>
            </g>
        </g>
    </g>
</svg>