<svg width="42" height="29" viewBox="0 0 42 29" version="1.1" xmlns="http://www.w3.org/2000/svg" xmlns:xlink="http://www.w3.org/1999/xlink"><title>Computer</title><desc>Created with Sketch.</desc><g id="Page-1" stroke="none" stroke-width="1" fill="none" fill-rule="evenodd"><g id="AccountModal-Stats3" transform="translate(-644.000000, -260.000000)"><g id="Computer" transform="translate(644.000000, 260.000000)"><path d="M0,23.7272727 L0,26.3636364 C1.68065625,28.0515682 3.96046875,29 6.33740625,29 L35.6625937,29 C38.0395313,29 40.3193437,28.0515682 42,26.3636364 L42,23.7272727 L0,23.7272727 Z" id="Fill-6667" fill="#9095A5"/><polygon id="Fill-6670" fill="#A9AFC2" points="13.125 23.7272727 15.75 26.3636364 26.25 26.3636364 28.875 23.7272727"/><path d="M39.0230699,23.8654477 L2.625,23.8654477 L2.625,1.49159048 C2.625,0.66748674 3.30443064,0 4.14158624,0 L37.5064836,0 C38.3436392,0 39.0230699,0.66748674 39.0230699,1.49159048 L39.0230699,23.8654477 Z" id="Fill-6029" fill="#747B91"/><polygon id="Fill-6032" fill="#3E3E3F" points="36.2379749 3.29545455 5.90625 3.29545455 5.90625 21.1945403 36.2379749 21.1945403"/><polygon id="Fill-6033" fill="#5B5C5F" points="5.90625 3.29545455 5.90625 21.1945403 15.0914546 21.1945403 33.2904895 3.29545455"/><g id="BeenVerified-Icon" style="mix-blend-mode:lighten" transform="translate(14.996569, 5.610161)" fill="#81B44C"><path d="M6.88667641,6.82499236 C5.27635178,6.82499236 3.97066062,5.56582284 3.97066062,4.01287391 C3.97066062,2.45982445 5.27635178,1.20075547 6.88667641,1.20075547 C8.4971053,1.20075547 9.8026922,2.45982445 9.8026922,4.01287391 C9.8026922,5.56582284 8.4971053,6.82499236 6.88667641,6.82499236 Z M6.88678067,0.00603243141 C3.08324101,0.00603243141 0,2.97951841 0,6.64723671 C0,9.15461683 1.44122282,11.3367483 3.56802733,12.4670249 L3.26037046,8.42941803 C3.26037046,7.80707219 3.80260136,7.30225822 4.47160648,7.30225822 L9.30185059,7.30225822 C9.97075146,7.30225822 10.5129824,7.80707219 10.5129824,8.42941803 L10.2053255,12.4670249 C12.3320257,11.3367483 13.7733528,9.15461683 13.7733528,6.64723671 C13.7733528,2.97951841 10.6901118,0.00603243141 6.88678067,0.00603243141 L6.88678067,0.00603243141 Z" id="Fill-1"/><polyline id="Fill-3" points="8.61887528 10.6954003 9.85169211 9.83638212 8.28296528 9.83638212 7.81319169 8.63532502 7.34352236 9.83638212 5.77479552 9.83638212 7.00761235 10.695702 6.40397519 12.2392001 7.81319169 11.2570197 9.22251244 12.2392001 8.61887528 10.6954003"/></g></g></g></g></svg>