<?xml version="1.0" encoding="UTF-8"?>
<svg width="20px" height="18px" viewBox="0 0 20 18" version="1.1" xmlns="http://www.w3.org/2000/svg" xmlns:xlink="http://www.w3.org/1999/xlink">
    <!-- Generator: Sketch 44.1 (41455) - http://www.bohemiancoding.com/sketch -->
    <title>criminal</title>
    <desc>Created with Sketch.</desc>
    <defs></defs>
    <g id="Page-1" stroke="none" stroke-width="1" fill="none" fill-rule="evenodd">
        <g id="criminal" transform="translate(-1.000000, -1.000000)" fill="#D7D7D7">
            <path d="M19.535,11.427 C18.56,12.383 17.28,12.862 15.999,12.862 C14.719,12.862 13.439,12.383 12.463,11.427 C11.35,10.334 10.874,8.85 11.034,7.42 L9.811,6.221 C9.323,5.742 9.323,4.965 9.811,4.486 L10.401,3.908 C10.384,3.827 10.373,3.745 10.373,3.662 C10.373,3.343 10.504,3.024 10.737,2.797 C11.029,2.51 11.463,2.403 11.862,2.473 L12.463,1.883 C12.951,1.404 13.743,1.404 14.231,1.883 L15.453,3.083 C16.908,2.927 18.422,3.393 19.535,4.486 C21.484,6.4 21.484,9.513 19.535,11.427 Z M17.766,6.221 C17.28,5.743 16.639,5.504 15.999,5.504 C15.359,5.504 14.72,5.742 14.232,6.22 L14.23,6.223 C13.258,7.18 13.258,8.736 14.231,9.692 C15.206,10.649 16.792,10.649 17.766,9.692 C18.743,8.735 18.743,7.178 17.766,6.221 Z M8.849,3.398 C8.773,3.417 8.699,3.423 8.622,3.423 C8.03,3.423 7.503,3.006 7.391,2.41 C7.273,1.741 7.723,1.104 8.404,0.987 C9.086,0.865 9.736,1.306 9.856,1.975 C9.979,2.644 9.523,3.282 8.849,3.398 Z M7.385,4.724 C7.255,5.294 6.735,5.674 6.167,5.674 C6.078,5.674 5.987,5.668 5.886,5.644 C5.217,5.49 4.797,4.833 4.955,4.171 C5.105,3.515 5.78,3.104 6.454,3.257 C7.123,3.404 7.543,4.067 7.385,4.724 Z M6.88,7.085 C6.958,7.163 7.021,7.251 7.076,7.343 L7.874,7.343 C8.564,7.343 9.124,7.892 9.124,8.57 L9.124,10.266 C10.265,11.167 11,12.546 11,14.092 C11,16.797 8.756,18.999 5.999,18.999 C3.242,18.999 0.997,16.797 0.997,14.092 C0.997,12.546 1.732,11.167 2.872,10.266 L2.872,8.57 C2.872,7.892 3.433,7.343 4.123,7.343 L4.921,7.343 C4.976,7.251 5.038,7.163 5.117,7.085 C5.578,6.631 6.418,6.631 6.88,7.085 Z M3.498,14.092 C3.498,15.444 4.619,16.545 5.999,16.545 C7.376,16.545 8.498,15.444 8.498,14.092 C8.498,12.738 7.376,11.638 5.999,11.638 C4.619,11.638 3.498,12.738 3.498,14.092 Z"></path>
        </g>
    </g>
</svg>