<svg 
 xmlns="http://www.w3.org/2000/svg"
 xmlns:xlink="http://www.w3.org/1999/xlink"
 width="19px" height="17px">
<path fill-rule="evenodd"  fill="rgb(255, 255, 255)"
 d="M17.609,9.861 C16.682,10.763 15.466,11.214 14.249,11.214 C13.033,11.214 11.817,10.763 10.890,9.861 C9.833,8.831 9.381,7.432 9.533,6.084 L8.371,4.954 C7.907,4.502 7.907,3.770 8.371,3.318 L8.931,2.773 C8.915,2.697 8.905,2.619 8.905,2.541 C8.905,2.241 9.029,1.940 9.250,1.726 C9.528,1.455 9.940,1.354 10.319,1.421 L10.890,0.864 C11.354,0.413 12.106,0.413 12.570,0.864 L13.731,1.995 C15.113,1.849 16.551,2.288 17.609,3.318 C19.460,5.122 19.460,8.057 17.609,9.861 ZM15.928,4.954 C15.466,4.503 14.857,4.278 14.249,4.278 C13.642,4.278 13.034,4.502 12.571,4.953 L12.569,4.955 C11.645,5.857 11.645,7.324 12.570,8.226 C13.496,9.128 15.003,9.128 15.928,8.226 C16.856,7.324 16.856,5.856 15.928,4.954 ZM7.457,2.293 C7.385,2.310 7.315,2.316 7.241,2.316 C6.679,2.316 6.179,1.922 6.072,1.361 C5.960,0.731 6.387,0.129 7.034,0.020 C7.682,-0.096 8.300,0.320 8.413,0.951 C8.531,1.581 8.098,2.183 7.457,2.293 ZM6.066,3.542 C5.943,4.079 5.448,4.438 4.909,4.438 C4.825,4.438 4.738,4.433 4.642,4.409 C4.007,4.265 3.608,3.646 3.757,3.021 C3.900,2.402 4.541,2.015 5.182,2.160 C5.817,2.298 6.216,2.923 6.066,3.542 ZM5.586,5.768 C5.661,5.841 5.720,5.924 5.772,6.011 L6.531,6.011 C7.186,6.011 7.718,6.529 7.718,7.168 L7.718,8.767 C8.802,9.616 9.500,10.916 9.500,12.373 C9.500,14.924 7.368,16.999 4.750,16.999 C2.130,16.999 -0.002,14.924 -0.002,12.373 C-0.002,10.916 0.696,9.616 1.779,8.767 L1.779,7.168 C1.779,6.529 2.312,6.011 2.968,6.011 L3.725,6.011 C3.778,5.924 3.837,5.841 3.912,5.768 C4.350,5.340 5.147,5.340 5.586,5.768 ZM2.374,12.373 C2.374,13.649 3.439,14.686 4.750,14.686 C6.057,14.686 7.123,13.649 7.123,12.373 C7.123,11.097 6.057,10.060 4.750,10.060 C3.439,10.060 2.374,11.097 2.374,12.373 Z"/>
</svg>