<svg width="19" height="17" viewBox="0 0 19 17" version="1.1" xmlns="http://www.w3.org/2000/svg" xmlns:xlink="http://www.w3.org/1999/xlink"><title>criminal-white</title><desc>Created with Sketch.</desc><g id="Page-1" stroke="none" stroke-width="1" fill="none" fill-rule="evenodd"><path d="M18.609,9.861 C17.682,10.763 16.466,11.214 15.249,11.214 C14.033,11.214 12.817,10.763 11.89,9.861 C10.833,8.831 10.381,7.432 10.533,6.084 L9.371,4.954 C8.907,4.502 8.907,3.77 9.371,3.318 L9.931,2.773 C9.915,2.697 9.905,2.619 9.905,2.541 C9.905,2.241 10.029,1.94 10.25,1.726 C10.528,1.455 10.94,1.354 11.319,1.421 L11.89,0.864 C12.354,0.413 13.106,0.413 13.57,0.864 L14.731,1.995 C16.113,1.849 17.551,2.288 18.609,3.318 C20.46,5.122 20.46,8.057 18.609,9.861 Z M16.928,4.954 C16.466,4.503 15.857,4.278 15.249,4.278 C14.642,4.278 14.034,4.502 13.571,4.953 L13.569,4.955 C12.645,5.857 12.645,7.324 13.57,8.226 C14.496,9.128 16.003,9.128 16.928,8.226 C17.856,7.324 17.856,5.856 16.928,4.954 Z M8.457,2.293 C8.385,2.31 8.315,2.316 8.241,2.316 C7.679,2.316 7.179,1.922 7.072,1.361 C6.96,0.731 7.387,0.129 8.034,0.02 C8.682,-0.096 9.3,0.32 9.413,0.951 C9.531,1.581 9.098,2.183 8.457,2.293 Z M7.066,3.542 C6.943,4.079 6.448,4.438 5.909,4.438 C5.825,4.438 5.738,4.433 5.642,4.409 C5.007,4.265 4.608,3.646 4.757,3.021 C4.9,2.402 5.541,2.015 6.182,2.16 C6.817,2.298 7.216,2.923 7.066,3.542 Z M6.586,5.768 C6.661,5.841 6.72,5.924 6.772,6.011 L7.531,6.011 C8.186,6.011 8.718,6.529 8.718,7.168 L8.718,8.767 C9.802,9.616 10.5,10.916 10.5,12.373 C10.5,14.924 8.368,16.999 5.75,16.999 C3.13,16.999 0.998,14.924 0.998,12.373 C0.998,10.916 1.696,9.616 2.779,8.767 L2.779,7.168 C2.779,6.529 3.312,6.011 3.968,6.011 L4.725,6.011 C4.778,5.924 4.837,5.841 4.912,5.768 C5.35,5.34 6.147,5.34 6.586,5.768 Z M3.374,12.373 C3.374,13.649 4.439,14.686 5.75,14.686 C7.057,14.686 8.123,13.649 8.123,12.373 C8.123,11.097 7.057,10.06 5.75,10.06 C4.439,10.06 3.374,11.097 3.374,12.373 Z" id="criminal-white" transform="translate(-1.000000, 0.000000)" fill="#FFF"/></g></svg>