<?xml version="1.0" encoding="UTF-8"?>
<svg width="19px" height="15px" viewBox="0 0 19 15" version="1.1" xmlns="http://www.w3.org/2000/svg" xmlns:xlink="http://www.w3.org/1999/xlink">
    <!-- Generator: Sketch 45 (43475) - http://www.bohemiancoding.com/sketch -->
    <title>education</title>
    <desc>Created with Sketch.</desc>
    <defs></defs>
    <g id="Page-1" stroke="none" stroke-width="1" fill="none" fill-rule="evenodd">
        <g id="education" transform="translate(0.000000, -1.000000)" fill-rule="nonzero" fill="#FFFFFF">
            <path d="M16.5,8.7 L11.14,12.07 C10.4264066,12.4868121 9.54359341,12.4868121 8.83,12.07 L3.61,8.79 C3.61,8.79 3.14,8.49 3.14,9.16 L3.14,12.44 C3.14,14.16 6.21,16.01 9.99,16.01 C13.77,16.01 16.84,14.15 16.84,12.42 L16.84,9.01 C16.84,8.44 16.5,8.7 16.5,8.7 Z M18.67,5.26 L10.67,1.18 C10.2161691,0.927175498 9.66383093,0.927175498 9.21,1.18 L1.21,5.26 C1.02562333,5.33854413 0.905959179,5.51959058 0.905959179,5.72 C0.905959179,5.92040942 1.02562333,6.10145587 1.21,6.18 L9.21,11.18 C9.66383093,11.4328245 10.2161691,11.4328245 10.67,11.18 L18.67,6.18 C18.8552534,6.10348055 18.9769081,5.92372807 18.9790867,5.72330529 C18.9812652,5.5228825 18.8635463,5.34052814 18.68,5.26 L18.67,5.26 Z M18.43,13.71 C18.3792945,13.6908018 18.3442327,13.6440527 18.34,13.59 L18.34,8.07 C18.34,8.07 18.34,7.81 18.19,7.89 C18.0091549,7.98769089 17.8353941,8.09796218 17.67,8.22 C17.5945535,8.32000973 17.5621557,8.44600122 17.58,8.57 L17.58,13.57 C17.5735898,13.6232051 17.539282,13.6689488 17.49,13.69 C17.2097197,13.8697119 17.0372641,14.1771327 17.03,14.51 C17.03,15.0236248 17.4463752,15.44 17.96,15.44 C18.4736248,15.44 18.89,15.0236248 18.89,14.51 C18.876231,14.1842953 18.7045655,13.8857467 18.43,13.71 L18.43,13.71 Z" id="Shape"></path>
        </g>
    </g>
</svg>