<svg width="16" height="13" viewBox="0 0 16 13" version="1.1" xmlns="http://www.w3.org/2000/svg" xmlns:xlink="http://www.w3.org/1999/xlink"><title>email-white</title><desc>Created with Sketch.</desc><g id="Page-1" stroke="none" stroke-width="1" fill="none" fill-rule="evenodd"><path d="M13.005,7.193 C13.855,6.578 14.888,5.846 16.105,4.994 C16.446,4.754 16.742,4.487 16.998,4.191 L16.998,11.323 L13.005,7.193 Z M15.471,4.007 C14.028,5.043 12.936,5.826 12.196,6.358 C11.79,6.65 11.487,6.867 11.294,7.007 C11.264,7.028 11.219,7.061 11.16,7.105 C11.096,7.153 11.014,7.213 10.914,7.289 C10.721,7.434 10.559,7.55 10.431,7.64 C10.303,7.728 10.148,7.829 9.967,7.939 C9.786,8.05 9.614,8.134 9.453,8.189 C9.293,8.244 9.144,8.272 9.007,8.272 L8.999,8.272 L8.99,8.272 C8.852,8.272 8.704,8.244 8.542,8.189 C8.382,8.134 8.211,8.05 8.029,7.939 C7.848,7.829 7.694,7.729 7.566,7.64 C7.438,7.55 7.277,7.434 7.084,7.289 C6.983,7.213 6.902,7.153 6.837,7.105 C6.777,7.061 6.733,7.028 6.703,7.007 C6.454,6.826 6.152,6.607 5.803,6.355 C5.393,6.059 4.915,5.716 4.365,5.322 C3.347,4.593 2.737,4.154 2.534,4.007 C2.164,3.748 1.816,3.393 1.49,2.94 C1.161,2.488 0.999,2.068 0.999,1.68 C0.999,1.2 1.122,0.8 1.368,0.48 C1.617,0.16 1.969,0 2.427,0 L15.57,0 C15.956,0 16.292,0.145 16.575,0.434 C16.857,0.723 16.998,1.071 16.998,1.477 C16.998,1.964 16.852,2.428 16.562,2.871 C16.27,3.314 15.907,3.693 15.471,4.007 Z M4.994,7.192 L0.999,11.323 L0.999,4.191 C1.261,4.493 1.56,4.761 1.9,4.994 C3.165,5.883 4.194,6.614 4.994,7.192 Z M6.337,8.18 C6.676,8.438 6.952,8.639 7.162,8.784 C7.374,8.929 7.656,9.076 8.008,9.227 C8.359,9.378 8.686,9.453 8.99,9.453 L8.999,9.453 L9.007,9.453 C9.31,9.453 9.639,9.378 9.988,9.227 C10.34,9.076 10.621,8.929 10.834,8.784 C11.044,8.639 11.32,8.438 11.659,8.18 C11.758,8.105 11.865,8.027 11.972,7.946 L16.505,12.633 C16.24,12.876 15.928,12.999 15.57,12.999 L2.427,12.999 C2.066,12.999 1.755,12.876 1.49,12.633 L6.024,7.945 C6.138,8.029 6.242,8.108 6.337,8.18 Z" id="email-white" transform="translate(-1.000000, 0.000000)" fill="#FFF"/></g></svg>