<svg width="16" height="16" viewBox="0 0 16 16" version="1.1" xmlns="http://www.w3.org/2000/svg" xmlns:xlink="http://www.w3.org/1999/xlink"><title>email</title><desc>Created with Sketch.</desc><g id="Page-1" stroke="none" stroke-width="1" fill="none" fill-rule="evenodd"><path d="M14.788,3.017 C13.316,1.672 11.486,0.999 9.299,0.999 C7.002,0.999 5.041,1.763 3.425,3.294 C1.809,4.825 0.998,6.728 0.998,9.006 C0.998,11.189 1.77,13.066 3.307,14.64 C4.851,16.213 6.925,16.999 9.537,16.999 C11.111,16.999 12.654,16.679 14.169,16.037 C14.664,15.828 14.903,15.267 14.703,14.773 L14.703,14.773 C14.495,14.265 13.909,14.029 13.399,14.245 C12.082,14.806 10.791,15.087 9.533,15.087 C7.531,15.087 5.981,14.483 4.88,13.272 C3.784,12.064 3.234,10.645 3.234,9.016 C3.234,7.247 3.823,5.771 4.999,4.587 C6.171,3.405 7.617,2.811 9.33,2.811 C10.906,2.811 12.239,3.297 13.327,4.27 C14.413,5.242 14.956,6.467 14.956,7.942 C14.956,8.951 14.706,9.793 14.209,10.462 C13.711,11.134 13.195,11.467 12.658,11.467 C12.369,11.467 12.222,11.314 12.222,11.004 C12.222,10.752 12.244,10.458 12.28,10.119 L12.892,5.155 L10.784,5.155 L10.649,5.641 C10.113,5.207 9.523,4.988 8.885,4.988 C7.87,4.988 7.002,5.389 6.28,6.189 C5.555,6.989 5.197,8.02 5.197,9.28 C5.197,10.511 5.516,11.506 6.158,12.26 C6.8,13.017 7.571,13.393 8.474,13.393 C9.28,13.393 9.968,13.057 10.541,12.388 C10.972,13.03 11.607,13.35 12.448,13.35 C13.683,13.35 14.749,12.818 15.648,11.751 C16.547,10.687 16.998,9.401 16.998,7.896 C16.998,5.99 16.263,4.361 14.788,3.017 Z M9.936,10.527 C9.563,11.023 9.119,11.275 8.602,11.275 C8.249,11.275 7.966,11.092 7.752,10.726 C7.534,10.36 7.426,9.907 7.426,9.362 C7.426,8.689 7.577,8.147 7.88,7.736 C8.183,7.325 8.558,7.116 9.006,7.116 C9.395,7.116 9.741,7.27 10.043,7.58 C10.345,7.89 10.498,8.301 10.498,8.817 C10.496,9.46 10.307,10.028 9.936,10.527 Z" id="email" transform="translate(-1.000000, -1.000000)" fill="#D7D7D7"/></g></svg>