<svg 
 xmlns="http://www.w3.org/2000/svg"
 xmlns:xlink="http://www.w3.org/1999/xlink"
 width="16px" height="13px">
<path fill-rule="evenodd"  fill="rgb(255, 255, 255)"
 d="M12.005,7.193 C12.855,6.578 13.888,5.846 15.105,4.994 C15.446,4.754 15.742,4.487 15.998,4.191 L15.998,11.323 L12.005,7.193 ZM14.471,4.007 C13.028,5.043 11.936,5.826 11.196,6.358 C10.790,6.650 10.487,6.867 10.294,7.007 C10.264,7.028 10.219,7.061 10.160,7.105 C10.096,7.153 10.014,7.213 9.914,7.289 C9.721,7.434 9.559,7.550 9.431,7.640 C9.303,7.728 9.148,7.829 8.967,7.939 C8.786,8.050 8.614,8.134 8.453,8.189 C8.293,8.244 8.144,8.272 8.007,8.272 L7.999,8.272 L7.990,8.272 C7.852,8.272 7.704,8.244 7.542,8.189 C7.382,8.134 7.211,8.050 7.029,7.939 C6.848,7.829 6.694,7.729 6.566,7.640 C6.438,7.550 6.277,7.434 6.084,7.289 C5.983,7.213 5.902,7.153 5.837,7.105 C5.777,7.061 5.733,7.028 5.703,7.007 C5.454,6.826 5.152,6.607 4.803,6.355 C4.393,6.059 3.915,5.716 3.365,5.322 C2.347,4.593 1.737,4.154 1.534,4.007 C1.164,3.748 0.816,3.393 0.490,2.940 C0.161,2.488 -0.001,2.068 -0.001,1.680 C-0.001,1.200 0.122,0.800 0.368,0.480 C0.617,0.160 0.969,0.000 1.427,0.000 L14.570,0.000 C14.956,0.000 15.292,0.145 15.575,0.434 C15.857,0.723 15.998,1.071 15.998,1.477 C15.998,1.964 15.852,2.428 15.562,2.871 C15.270,3.314 14.907,3.693 14.471,4.007 ZM3.994,7.192 L-0.001,11.323 L-0.001,4.191 C0.261,4.493 0.560,4.761 0.900,4.994 C2.165,5.883 3.194,6.614 3.994,7.192 ZM5.337,8.180 C5.676,8.438 5.952,8.639 6.162,8.784 C6.374,8.929 6.656,9.076 7.008,9.227 C7.359,9.378 7.686,9.453 7.990,9.453 L7.999,9.453 L8.007,9.453 C8.310,9.453 8.639,9.378 8.988,9.227 C9.340,9.076 9.621,8.929 9.834,8.784 C10.044,8.639 10.320,8.438 10.659,8.180 C10.758,8.105 10.865,8.027 10.972,7.946 L15.505,12.633 C15.240,12.876 14.928,12.999 14.570,12.999 L1.427,12.999 C1.066,12.999 0.755,12.876 0.490,12.633 L5.024,7.945 C5.138,8.029 5.242,8.108 5.337,8.180 Z"/>
</svg>