<svg 
 xmlns="http://www.w3.org/2000/svg"
 xmlns:xlink="http://www.w3.org/1999/xlink"
 width="16px" height="16px">
<path fill-rule="evenodd"  fill="rgb(215, 215, 215)"
 d="M13.788,2.017 C12.316,0.672 10.486,-0.001 8.299,-0.001 C6.002,-0.001 4.041,0.763 2.425,2.294 C0.809,3.825 -0.002,5.728 -0.002,8.006 C-0.002,10.189 0.770,12.066 2.307,13.640 C3.851,15.213 5.925,15.999 8.537,15.999 C10.111,15.999 11.654,15.679 13.169,15.037 C13.664,14.828 13.903,14.267 13.703,13.773 L13.703,13.773 C13.495,13.265 12.909,13.029 12.399,13.245 C11.082,13.806 9.791,14.087 8.533,14.087 C6.531,14.087 4.981,13.483 3.880,12.272 C2.784,11.064 2.234,9.645 2.234,8.016 C2.234,6.247 2.823,4.771 3.999,3.587 C5.171,2.405 6.617,1.811 8.330,1.811 C9.906,1.811 11.239,2.297 12.327,3.270 C13.413,4.242 13.956,5.467 13.956,6.942 C13.956,7.951 13.706,8.793 13.209,9.462 C12.711,10.134 12.195,10.467 11.658,10.467 C11.369,10.467 11.222,10.314 11.222,10.004 C11.222,9.752 11.244,9.458 11.280,9.119 L11.892,4.155 L9.784,4.155 L9.649,4.641 C9.113,4.207 8.523,3.988 7.885,3.988 C6.870,3.988 6.002,4.389 5.280,5.189 C4.555,5.989 4.197,7.020 4.197,8.280 C4.197,9.511 4.516,10.506 5.158,11.260 C5.800,12.017 6.571,12.393 7.474,12.393 C8.280,12.393 8.968,12.057 9.541,11.388 C9.972,12.030 10.607,12.350 11.448,12.350 C12.683,12.350 13.749,11.818 14.648,10.751 C15.547,9.687 15.998,8.401 15.998,6.896 C15.998,4.990 15.263,3.361 13.788,2.017 ZM8.936,9.527 C8.563,10.023 8.119,10.275 7.602,10.275 C7.249,10.275 6.966,10.092 6.752,9.726 C6.534,9.360 6.426,8.907 6.426,8.362 C6.426,7.689 6.577,7.147 6.880,6.736 C7.183,6.325 7.558,6.116 8.006,6.116 C8.395,6.116 8.741,6.270 9.043,6.580 C9.345,6.890 9.498,7.301 9.498,7.817 C9.496,8.460 9.307,9.028 8.936,9.527 Z"/>
</svg>