<?xml version="1.0" encoding="UTF-8"?>
<svg width="27px" height="12px" viewBox="0 0 27 12" version="1.1" xmlns="http://www.w3.org/2000/svg" xmlns:xlink="http://www.w3.org/1999/xlink">
    <!-- Generator: Sketch 44.1 (41455) - http://www.bohemiancoding.com/sketch -->
    <title>key-icon</title>
    <desc>Created with Sketch.</desc>
    <defs></defs>
    <g id="Page-1" stroke="none" stroke-width="1" fill="none" fill-rule="evenodd">
        <g id="key-icon" fill="#007EE3">
            <path d="M26.936,7.49 L24.983,4.42 C24.860092,4.24276478 24.6623431,4.13208447 24.447,4.12 L12.327,4.12 C11.5817319,1.68942542 9.34716922,0.0222037052 6.805,4.54747351e-13 C3.4912915,4.54747351e-13 0.805,2.6862915 0.805,6 C0.805,9.3137085 3.4912915,12 6.805,12 C9.34429498,11.9719392 11.5746215,10.3066718 12.323,7.88 L16.691,7.88 C16.9115358,7.89370416 17.1218505,7.97783002 17.291,8.12 L19.661,10.41 C19.806612,10.5397825 20.026388,10.5397825 20.172,10.41 L21.814,8.83 C21.9551444,8.68992217 22.1828556,8.68992217 22.324,8.83 L23.967,10.41 C24.1097489,10.5403149 24.3295757,10.5359184 24.467,10.4 L26.867,8.03 C27.0079722,7.88558796 27.0361304,7.66521959 26.936,7.49 Z M6.813,7.85 C6.05897214,7.87608679 5.36457223,7.44191094 5.05785543,6.75259001 C4.75113863,6.06326909 4.89349578,5.25677398 5.41767313,4.71411696 C5.94185048,4.17145994 6.74293141,4.00125641 7.44246149,4.28391558 C8.14199157,4.56657475 8.59995648,5.24552102 8.6,6 C8.61671532,7.00406107 7.81703763,7.8319311 6.813,7.85 L6.813,7.85 Z" id="Forma_1_copy_4"></path>
        </g>
    </g>
</svg>