<?xml version="1.0" encoding="UTF-8"?>
<svg width="78px" height="78px" viewBox="0 0 78 78" version="1.1" xmlns="http://www.w3.org/2000/svg" xmlns:xlink="http://www.w3.org/1999/xlink">
    <!-- Generator: Sketch 44.1 (41455) - http://www.bohemiancoding.com/sketch -->
    <title>key</title>
    <desc>Created with Sketch.</desc>
    <defs></defs>
    <g id="Page-1" stroke="none" stroke-width="1" fill="none" fill-rule="evenodd">
        <g id="key" fill-rule="nonzero">
            <g id="Shape">
                <path d="M39,0 C17.4608948,-1.31888981e-15 2.63777963e-15,17.4608948 0,39 C-2.63777963e-15,60.5391052 17.4608948,78 39,78 C60.5391052,78 78,60.5391052 78,39 C78,28.6565569 73.8910832,18.7367543 66.5771645,11.4228355 C59.2632457,4.10891677 49.3434431,6.33353224e-16 39,0 Z" fill="#5CB85C"></path>
                <path d="M29.06,45.41 C30.7881299,45.4188738 32.4440314,44.7174657 33.64,43.47 C34.2190765,42.8561636 34.6801049,42.1408916 35,41.36 C36.0278036,38.8893833 35.4894337,36.0442748 33.63,34.12 C33.0432757,33.5255812 32.3471713,33.0501928 31.58,32.72 C29.9601379,32.0314275 28.1298621,32.0314275 26.51,32.72 C25.7356583,33.0532948 25.0302658,33.5280782 24.43,34.12 C23.8302794,34.7176957 23.3545094,35.4279523 23.03,36.21 C22.3531423,37.8634104 22.3531423,39.7165896 23.03,41.37 C23.3585229,42.1558121 23.8336484,42.8718941 24.43,43.48 C25.0251129,44.0832309 25.7314611,44.5654494 26.51,44.9 C27.3149294,45.2466237 28.1836714,45.4203722 29.06,45.41 Z M58.54,35.68 C59.2021199,35.6722372 59.8357354,35.9489888 60.28,36.44 C61.2405361,37.4786308 61.2405361,39.0813692 60.28,40.12 C59.8357354,40.6110112 59.2021199,40.8877628 58.54,40.88 L58.2,40.88 L58.2,49 C58.2087542,49.6689671 57.9367158,50.3109778 57.45,50.77 C56.4436314,51.7532456 54.8363686,51.7532456 53.83,50.77 C53.3469687,50.3092355 53.0786532,49.6674537 53.09,49 L53.09,40.9 L50.67,40.9 L50.67,45.96 C50.6787542,46.6289671 50.4067158,47.2709778 49.92,47.73 C48.9136314,48.7132456 47.3063686,48.7132456 46.3,47.73 C45.8132842,47.2709778 45.5412458,46.6289671 45.55,45.96 L45.55,40.89 L40.93,40.89 C40.6780401,42.2961934 40.1876498,43.6489942 39.48,44.89 C38.7955124,46.10692 37.9057357,47.1963044 36.85,48.11 C35.7897554,49.0203283 34.582587,49.7439531 33.28,50.25 C31.9356612,50.7768275 30.5038734,51.0448636 29.06,51.04 C27.4408335,51.0371888 25.8400627,50.6965993 24.36,50.04 C22.9221116,49.4196455 21.6180711,48.5265136 20.52,47.41 C15.7955479,42.5759749 15.7955479,34.8540251 20.52,30.02 C21.6180711,28.9034864 22.9221116,28.0103545 24.36,27.39 C28.40227,25.6765333 33.0602189,26.3342619 36.47,29.1 C38.5468762,30.792415 40.0403589,33.0938473 40.74,35.68 L58.54,35.68 L58.54,35.68 Z" fill="#FFFFFF"></path>
            </g>
        </g>
    </g>
</svg>