<svg id="Layer_1" data-name="Layer 1" xmlns="http://www.w3.org/2000/svg" viewBox="0 0 78 78"><defs><style>.cls-1{fill:#5cb85c;}.cls-2{fill:#fff;}</style></defs><title>checkmark</title><polygon class="cls-1" points="13.43 39.59 34.92 57.52 65.83 23.56 57.82 17.46 33.78 43.66 20.98 32.93 13.43 39.59"/><path class="cls-1" d="M39,0A39,39,0,1,0,78,39,39,39,0,0,0,39,0ZM60.74,26l-24,27a3,3,0,0,1-4.12.35l-15-12a3,3,0,1,1,3.75-4.69L34.15,46.88,56.26,22A3,3,0,0,1,60.74,26Z"/><path class="cls-2" d="M29.06,45.41a6.3,6.3,0,0,0,4.58-1.94A6.87,6.87,0,0,0,35,41.36a6.71,6.71,0,0,0-1.37-7.24,6.48,6.48,0,0,0-2.05-1.4,6.48,6.48,0,0,0-5.07,0,6.78,6.78,0,0,0-2.08,1.4,6.43,6.43,0,0,0-1.4,2.09,6.81,6.81,0,0,0,0,5.16,6.71,6.71,0,0,0,1.4,2.11,6.56,6.56,0,0,0,2.08,1.42A6.26,6.26,0,0,0,29.06,45.41Zm29.48-9.73a2.31,2.31,0,0,1,1.74.76,2.71,2.71,0,0,1,0,3.68,2.31,2.31,0,0,1-1.74.76H58.2V49a2.39,2.39,0,0,1-.75,1.77,2.59,2.59,0,0,1-3.62,0A2.39,2.39,0,0,1,53.09,49v-8.1H50.67v5.06a2.39,2.39,0,0,1-.75,1.77,2.59,2.59,0,0,1-3.62,0,2.39,2.39,0,0,1-.75-1.77V40.89H40.93a12.54,12.54,0,0,1-1.45,4,12.11,12.11,0,0,1-2.63,3.22,12.34,12.34,0,0,1-3.57,2.14,11.46,11.46,0,0,1-4.22.79,11.64,11.64,0,0,1-4.7-1,12.12,12.12,0,0,1-3.84-2.63,12.44,12.44,0,0,1,0-17.39,12.12,12.12,0,0,1,3.84-2.63A11.87,11.87,0,0,1,36.47,29.1a12.8,12.8,0,0,1,4.27,6.58h17.8Z"/></svg>