<svg 
 xmlns="http://www.w3.org/2000/svg"
 xmlns:xlink="http://www.w3.org/1999/xlink"
 width="18px" height="22px">
<path fill-rule="evenodd"  fill="rgb(215, 215, 215)"
 d="M18.003,5.532 L17.182,5.532 C17.182,2.925 15.000,0.803 12.316,0.803 L12.316,0.005 C15.452,0.005 18.003,2.484 18.003,5.532 ZM12.316,1.385 L12.316,2.183 C14.216,2.183 15.762,3.685 15.762,5.532 L16.583,5.532 C16.583,3.245 14.670,1.385 12.316,1.385 ZM12.316,2.808 L12.316,3.607 C13.411,3.607 14.297,4.471 14.297,5.532 L15.119,5.532 C15.119,4.031 13.861,2.808 12.316,2.808 ZM13.330,6.284 L13.330,20.487 C13.330,21.316 12.633,21.994 11.779,21.994 L1.542,21.994 C0.690,21.994 -0.008,21.316 -0.008,20.487 L-0.008,6.284 C-0.008,5.460 0.683,4.786 1.529,4.778 L1.529,0.882 C1.529,0.398 1.933,0.005 2.430,0.005 C2.930,0.005 3.333,0.398 3.333,0.882 L3.333,4.777 L11.779,4.777 C12.633,4.777 13.330,5.456 13.330,6.284 ZM4.308,19.716 C4.308,19.416 4.059,19.174 3.750,19.174 L2.079,19.174 C1.772,19.174 1.520,19.416 1.520,19.716 C1.520,20.015 1.771,20.258 2.079,20.258 L3.750,20.258 C4.059,20.258 4.308,20.015 4.308,19.716 ZM4.308,17.650 C4.308,17.351 4.059,17.108 3.750,17.108 L2.079,17.108 C1.772,17.108 1.520,17.351 1.520,17.650 C1.520,17.949 1.771,18.192 2.079,18.192 L3.750,18.192 C4.059,18.191 4.308,17.949 4.308,17.650 ZM4.308,15.584 C4.308,15.284 4.059,15.042 3.750,15.042 L2.079,15.042 C1.772,15.042 1.520,15.284 1.520,15.584 C1.520,15.883 1.771,16.126 2.079,16.126 L3.750,16.126 C4.059,16.126 4.308,15.883 4.308,15.584 ZM4.308,13.518 C4.308,13.219 4.059,12.976 3.750,12.976 L2.079,12.976 C1.772,12.976 1.520,13.219 1.520,13.518 C1.520,13.817 1.771,14.060 2.079,14.060 L3.750,14.060 C4.059,14.060 4.308,13.817 4.308,13.518 ZM8.054,19.716 C8.054,19.416 7.804,19.174 7.497,19.174 L5.826,19.174 C5.517,19.174 5.268,19.416 5.268,19.716 C5.268,20.015 5.517,20.258 5.826,20.258 L7.497,20.258 C7.804,20.258 8.054,20.015 8.054,19.716 ZM8.054,17.650 C8.054,17.351 7.804,17.108 7.497,17.108 L5.826,17.108 C5.517,17.108 5.268,17.351 5.268,17.650 C5.268,17.949 5.517,18.192 5.826,18.192 L7.497,18.192 C7.804,18.191 8.054,17.949 8.054,17.650 ZM8.054,15.584 C8.054,15.284 7.804,15.042 7.497,15.042 L5.826,15.042 C5.517,15.042 5.268,15.284 5.268,15.584 C5.268,15.883 5.517,16.126 5.826,16.126 L7.497,16.126 C7.804,16.126 8.054,15.883 8.054,15.584 ZM8.054,13.518 C8.054,13.219 7.804,12.976 7.497,12.976 L5.826,12.976 C5.517,12.976 5.268,13.219 5.268,13.518 C5.268,13.817 5.517,14.060 5.826,14.060 L7.497,14.060 C7.804,14.060 8.054,13.817 8.054,13.518 ZM11.801,19.716 C11.801,19.416 11.551,19.174 11.243,19.174 L9.572,19.174 C9.263,19.174 9.013,19.416 9.013,19.716 C9.013,20.015 9.263,20.258 9.572,20.258 L11.243,20.258 C11.551,20.258 11.801,20.015 11.801,19.716 ZM11.801,17.650 C11.801,17.351 11.551,17.108 11.243,17.108 L9.572,17.108 C9.263,17.108 9.013,17.351 9.013,17.650 C9.013,17.949 9.263,18.192 9.572,18.192 L11.243,18.192 C11.551,18.191 11.801,17.949 11.801,17.650 ZM11.801,15.584 C11.801,15.284 11.551,15.042 11.243,15.042 L9.572,15.042 C9.263,15.042 9.013,15.284 9.013,15.584 C9.013,15.883 9.263,16.126 9.572,16.126 L11.243,16.126 C11.551,16.126 11.801,15.883 11.801,15.584 ZM11.801,13.518 C11.801,13.219 11.551,12.976 11.243,12.976 L9.572,12.976 C9.263,12.976 9.013,13.219 9.013,13.518 C9.013,13.817 9.263,14.060 9.572,14.060 L11.243,14.060 C11.551,14.060 11.801,13.817 11.801,13.518 ZM11.834,6.873 L1.490,6.873 L1.490,11.725 L11.834,11.725 L11.834,6.873 Z"/>
</svg>