<?xml version="1.0" encoding="UTF-8"?>
<svg width="19px" height="22px" viewBox="0 0 19 22" version="1.1" xmlns="http://www.w3.org/2000/svg" xmlns:xlink="http://www.w3.org/1999/xlink">
    <!-- Generator: Sketch 44.1 (41455) - http://www.bohemiancoding.com/sketch -->
    <title>line-type</title>
    <desc>Created with Sketch.</desc>
    <defs></defs>
    <g id="Page-1" stroke="none" stroke-width="1" fill="none" fill-rule="evenodd">
        <g id="line-type" fill="#D7D7D7">
            <path d="M19.003,5.532 L18.182,5.532 C18.182,2.925 16,0.803 13.316,0.803 L13.316,0.005 C16.452,0.005 19.003,2.484 19.003,5.532 Z M13.316,1.385 L13.316,2.183 C15.216,2.183 16.762,3.685 16.762,5.532 L17.583,5.532 C17.583,3.245 15.67,1.385 13.316,1.385 Z M13.316,2.808 L13.316,3.607 C14.411,3.607 15.297,4.471 15.297,5.532 L16.119,5.532 C16.119,4.031 14.861,2.808 13.316,2.808 Z M14.33,6.284 L14.33,20.487 C14.33,21.316 13.633,21.994 12.779,21.994 L2.542,21.994 C1.69,21.994 0.992,21.316 0.992,20.487 L0.992,6.284 C0.992,5.46 1.683,4.786 2.529,4.778 L2.529,0.882 C2.529,0.398 2.933,0.005 3.43,0.005 C3.93,0.005 4.333,0.398 4.333,0.882 L4.333,4.777 L12.779,4.777 C13.633,4.777 14.33,5.456 14.33,6.284 Z M5.308,19.716 C5.308,19.416 5.059,19.174 4.75,19.174 L3.079,19.174 C2.772,19.174 2.52,19.416 2.52,19.716 C2.52,20.015 2.771,20.258 3.079,20.258 L4.75,20.258 C5.059,20.258 5.308,20.015 5.308,19.716 Z M5.308,17.65 C5.308,17.351 5.059,17.108 4.75,17.108 L3.079,17.108 C2.772,17.108 2.52,17.351 2.52,17.65 C2.52,17.949 2.771,18.192 3.079,18.192 L4.75,18.192 C5.059,18.191 5.308,17.949 5.308,17.65 Z M5.308,15.584 C5.308,15.284 5.059,15.042 4.75,15.042 L3.079,15.042 C2.772,15.042 2.52,15.284 2.52,15.584 C2.52,15.883 2.771,16.126 3.079,16.126 L4.75,16.126 C5.059,16.126 5.308,15.883 5.308,15.584 Z M5.308,13.518 C5.308,13.219 5.059,12.976 4.75,12.976 L3.079,12.976 C2.772,12.976 2.52,13.219 2.52,13.518 C2.52,13.817 2.771,14.06 3.079,14.06 L4.75,14.06 C5.059,14.06 5.308,13.817 5.308,13.518 Z M9.054,19.716 C9.054,19.416 8.804,19.174 8.497,19.174 L6.826,19.174 C6.517,19.174 6.268,19.416 6.268,19.716 C6.268,20.015 6.517,20.258 6.826,20.258 L8.497,20.258 C8.804,20.258 9.054,20.015 9.054,19.716 Z M9.054,17.65 C9.054,17.351 8.804,17.108 8.497,17.108 L6.826,17.108 C6.517,17.108 6.268,17.351 6.268,17.65 C6.268,17.949 6.517,18.192 6.826,18.192 L8.497,18.192 C8.804,18.191 9.054,17.949 9.054,17.65 Z M9.054,15.584 C9.054,15.284 8.804,15.042 8.497,15.042 L6.826,15.042 C6.517,15.042 6.268,15.284 6.268,15.584 C6.268,15.883 6.517,16.126 6.826,16.126 L8.497,16.126 C8.804,16.126 9.054,15.883 9.054,15.584 Z M9.054,13.518 C9.054,13.219 8.804,12.976 8.497,12.976 L6.826,12.976 C6.517,12.976 6.268,13.219 6.268,13.518 C6.268,13.817 6.517,14.06 6.826,14.06 L8.497,14.06 C8.804,14.06 9.054,13.817 9.054,13.518 Z M12.801,19.716 C12.801,19.416 12.551,19.174 12.243,19.174 L10.572,19.174 C10.263,19.174 10.013,19.416 10.013,19.716 C10.013,20.015 10.263,20.258 10.572,20.258 L12.243,20.258 C12.551,20.258 12.801,20.015 12.801,19.716 Z M12.801,17.65 C12.801,17.351 12.551,17.108 12.243,17.108 L10.572,17.108 C10.263,17.108 10.013,17.351 10.013,17.65 C10.013,17.949 10.263,18.192 10.572,18.192 L12.243,18.192 C12.551,18.191 12.801,17.949 12.801,17.65 Z M12.801,15.584 C12.801,15.284 12.551,15.042 12.243,15.042 L10.572,15.042 C10.263,15.042 10.013,15.284 10.013,15.584 C10.013,15.883 10.263,16.126 10.572,16.126 L12.243,16.126 C12.551,16.126 12.801,15.883 12.801,15.584 Z M12.801,13.518 C12.801,13.219 12.551,12.976 12.243,12.976 L10.572,12.976 C10.263,12.976 10.013,13.219 10.013,13.518 C10.013,13.817 10.263,14.06 10.572,14.06 L12.243,14.06 C12.551,14.06 12.801,13.817 12.801,13.518 Z M12.834,6.873 L2.49,6.873 L2.49,11.725 L12.834,11.725 L12.834,6.873 Z"></path>
        </g>
    </g>
</svg>