<svg width="58" height="79" viewBox="0 0 58 79" version="1.1" xmlns="http://www.w3.org/2000/svg" xmlns:xlink="http://www.w3.org/1999/xlink"><title>Location1</title><desc>Created with Sketch.</desc><g id="Page-1" stroke="none" stroke-width="1" fill="none" fill-rule="evenodd"><g id="Location1" transform="translate(0.000000, -1.000000)" fill-rule="nonzero"><g id="Group"><path d="M55.73,79.5 L57.5,79.5 C56.71,63.5 44.25,51.13 29,51.13 C13.75,51.13 1.29,63.5 0.5,79.5 L2.27,79.5 C2.5,74.5 3.66,70.5 5.67,66.5 L13.84,66.5 C12.96,71.5 12.62,75.5 12.56,79.5 L14.39,79.5 C14.37,77.5 14.48,75.06 14.74,72.61 C14.97,70.53 15.24,68.5 15.6,66.5 L28.5,66.5 L28.5,79.5 L30.5,79.5 L30.5,66.5 L42.88,66.5 C43.24,68.5 43.52,70.53 43.74,72.61 C44.01,75.05 44.11,77.5 44.09,79.5 L45.92,79.5 C45.86,75.5 45.56,71.5 44.71,66.5 L52.32,66.5 C54.33,70.5 55.5,74.5 55.73,79.5 Z M6.71,65.5 C7.69,63.5 8.82,62.11 10.1,60.78 C12.52,58.24 15.33,56.44 18.37,55.05 C16.46,58.32 15.14,61.51 14.25,65.51 L6.71,65.51 L6.71,65.5 Z M15.99,65.5 C17,60.5 18.76,57.4 21.33,53.77 C23.57,53.04 25.51,52.23 28.51,52.14 L28.51,65.5 L15.99,65.5 Z M30.5,65.5 L30.5,52.14 C32.5,52.23 35.38,53.12 37.81,53.98 C40.29,57.53 41.5,61.49 42.49,65.49 L30.5,65.49 L30.5,65.5 Z M44.32,65.5 C43.48,61.5 42.24,58.39 40.42,55.22 C43.16,56.59 45.69,58.66 47.91,60.99 C49.18,62.33 50.31,63.5 51.29,65.5 L44.32,65.5 Z" id="Shape" fill="#6F29B5"/><path d="M50.95,23.22 C50.95,35.5 28.89,59.72 28.89,59.72 C28.89,59.72 6.83,35.49 6.83,23.22 C6.83,10.95 16.7,0.99 28.89,0.99 C41.08,0.99 50.95,10.94 50.95,23.22 Z" id="Shape" fill="#F4C31A"/><circle id="Oval" fill="#F4A217" cx="28.91" cy="23.11" r="17.45"/><ellipse id="Oval" fill="#FFF" cx="28.91" cy="23.24" rx="15.02" ry="15.13"/><path d="M29.46,12.15 L32.4,19.11 L39.92,19.76 C40.44,19.81 40.65,20.46 40.26,20.8 L34.55,25.74 L36.26,33.1 C36.38,33.61 35.82,34.01 35.38,33.74 L28.91,29.84 L22.44,33.74 C21.99,34.01 21.44,33.61 21.56,33.1 L23.27,25.74 L17.56,20.79 C17.16,20.45 17.37,19.8 17.9,19.75 L25.42,19.1 L28.36,12.15 C28.57,11.66 29.25,11.66 29.46,12.15 Z" id="Shape" fill="#6F29B5"/></g><rect id="Rectangle-path" fill="#6F29B5" x="4.9" y="66" width="48.38" height="1"/></g></g></svg>