<svg 
 xmlns="http://www.w3.org/2000/svg"
 xmlns:xlink="http://www.w3.org/1999/xlink"
 width="16px" height="20px">
<path fill-rule="evenodd"  fill="rgb(215, 215, 215)"
 d="M14.275,12.427 L7.998,19.999 L1.721,12.427 C0.642,11.119 -0.003,9.468 -0.003,7.675 C-0.003,3.443 3.587,-0.000 7.998,-0.000 C12.409,-0.000 15.996,3.443 15.996,7.675 C15.996,9.468 15.354,11.119 14.275,12.427 ZM7.998,4.117 C6.013,4.117 4.397,5.667 4.397,7.572 C4.397,9.477 6.013,11.027 7.998,11.027 C9.984,11.027 11.599,9.477 11.599,7.572 C11.599,5.667 9.984,4.117 7.998,4.117 ZM7.998,9.645 C6.806,9.645 5.837,8.715 5.837,7.572 C5.837,6.429 6.806,5.499 7.998,5.499 C9.189,5.499 10.159,6.429 10.159,7.572 C10.159,8.715 9.189,9.645 7.998,9.645 Z"/>
</svg>