<svg width="16" height="20" viewBox="0 0 16 20" version="1.1" xmlns="http://www.w3.org/2000/svg" xmlns:xlink="http://www.w3.org/1999/xlink"><title>map-pin</title><desc>Created with Sketch.</desc><g id="Page-1" stroke="none" stroke-width="1" fill="none" fill-rule="evenodd"><path d="M15.275,12.427 L8.998,19.999 L2.721,12.427 C1.642,11.119 0.997,9.468 0.997,7.675 C0.997,3.443 4.587,0 8.998,0 C13.409,0 16.996,3.443 16.996,7.675 C16.996,9.468 16.354,11.119 15.275,12.427 Z M8.998,4.117 C7.013,4.117 5.397,5.667 5.397,7.572 C5.397,9.477 7.013,11.027 8.998,11.027 C10.984,11.027 12.599,9.477 12.599,7.572 C12.599,5.667 10.984,4.117 8.998,4.117 Z M8.998,9.645 C7.806,9.645 6.837,8.715 6.837,7.572 C6.837,6.429 7.806,5.499 8.998,5.499 C10.189,5.499 11.159,6.429 11.159,7.572 C11.159,8.715 10.189,9.645 8.998,9.645 Z" id="map-pin" transform="translate(-1.000000, 0.000000)" fill="#D7D7D7"/></g></svg>