<svg width="14" height="19" viewBox="0 0 14 19" version="1.1" xmlns="http://www.w3.org/2000/svg" xmlns:xlink="http://www.w3.org/1999/xlink"><title>map-pin-white</title><desc>Created with Sketch.</desc><g id="Page-1" stroke="none" stroke-width="1" fill="none" fill-rule="evenodd"><path d="M13.49,11.806 L7.999,18.999 L2.506,11.806 C1.562,10.563 0.998,8.994 0.998,7.291 C0.998,3.271 4.139,0 7.999,0 C11.857,0 14.998,3.271 14.998,7.291 C14.998,8.994 14.434,10.563 13.49,11.806 Z M7.999,3.912 C6.261,3.912 4.848,5.384 4.848,7.194 C4.848,9.003 6.261,10.476 7.999,10.476 C9.735,10.476 11.148,9.003 11.148,7.194 C11.148,5.384 9.735,3.912 7.999,3.912 Z M7.999,9.163 C6.956,9.163 6.107,8.28 6.107,7.194 C6.107,6.108 6.956,5.225 7.999,5.225 C9.04,5.225 9.888,6.108 9.888,7.194 C9.888,8.28 9.04,9.163 7.999,9.163 Z" id="map-pin-white" transform="translate(-1.000000, 0.000000)" fill="#FFF"/></g></svg>