<svg 
 xmlns="http://www.w3.org/2000/svg"
 xmlns:xlink="http://www.w3.org/1999/xlink"
 width="14px" height="19px">
<path fill-rule="evenodd"  fill="rgb(255, 255, 255)"
 d="M12.490,11.806 L6.999,18.999 L1.506,11.806 C0.562,10.563 -0.002,8.994 -0.002,7.291 C-0.002,3.271 3.139,-0.000 6.999,-0.000 C10.857,-0.000 13.998,3.271 13.998,7.291 C13.998,8.994 13.434,10.563 12.490,11.806 ZM6.999,3.912 C5.261,3.912 3.848,5.384 3.848,7.194 C3.848,9.003 5.261,10.476 6.999,10.476 C8.735,10.476 10.148,9.003 10.148,7.194 C10.148,5.384 8.735,3.912 6.999,3.912 ZM6.999,9.163 C5.956,9.163 5.107,8.280 5.107,7.194 C5.107,6.108 5.956,5.225 6.999,5.225 C8.040,5.225 8.888,6.108 8.888,7.194 C8.888,8.280 8.040,9.163 6.999,9.163 Z"/>
</svg>