<?xml version="1.0" encoding="utf-8"?>
<!-- Generator: Adobe Illustrator 19.2.1, SVG Export Plug-In . SVG Version: 6.00 Build 0)  -->
<svg version="1.1" id="Layer_1" xmlns="http://www.w3.org/2000/svg" xmlns:xlink="http://www.w3.org/1999/xlink" x="0px" y="0px"
	 viewBox="0 0 77 98.15" style="enable-background:new 0 0 77 98.15;" xml:space="preserve">
<style type="text/css">
	.st0{fill:#6F29B5;}
	.st1{fill:#8A57C3;}
	.st2{fill:#FFFFFF;}
	.st3{fill:#F5F05F;}
	.st4{clip-path:url(#SVGID_2_);fill:#F4C31A;}
	.st5{clip-path:url(#SVGID_4_);}
	.st6{opacity:0.22;fill:#1EB6F9;}
	.st7{fill:#F4C31A;}
	.st8{clip-path:url(#SVGID_6_);}
	.st9{fill:#B59214;}
	.st10{fill:#6C2DAE;}
	.st11{fill:#F9CDBB;}
	.st12{clip-path:url(#SVGID_8_);fill:#FAE0D5;}
	.st13{fill:#282828;}
	.st14{clip-path:url(#SVGID_10_);fill:#58595B;}
</style>
<g>
	<circle class="st0" cx="35.38" cy="57.08" r="34.17"/>
	<circle class="st1" cx="35.49" cy="57.19" r="27.27"/>
	<circle class="st2" cx="35.36" cy="57.32" r="24.53"/>
	<polygon class="st0" points="61.15,79.01 62.81,80.67 58.96,84.51 57.17,82.72 	"/>
	<polygon class="st3" points="56.77,86.05 64.61,78.47 75.6,89.46 73.67,91.5 67.49,97.26 	"/>
	<g>
		<defs>
			<polygon id="SVGID_1_" points="64.47,78.09 60.32,82.34 71.5,93.53 73.83,91.76 76.27,88.97 			"/>
		</defs>
		<clipPath id="SVGID_2_">
			<use xlink:href="#SVGID_1_"  style="overflow:visible;"/>
		</clipPath>
		<polygon class="st4" points="56.77,86.05 64.61,78.47 75.6,89.46 73.67,91.5 67.49,97.26 		"/>
	</g>
</g>
<g>
	<defs>
		<path id="SVGID_3_" d="M60.67,18.96c0-18.15-11.34-32.86-25.33-32.86c-13.99,0-25.33,14.71-25.33,32.86
			c0,8.63,2.56,16.47,6.75,22.33c-3.71,4.3-5.96,9.9-5.96,16.03c0,13.55,10.98,24.53,24.53,24.53c13.55,0,24.53-10.98,24.53-24.53
			c0-6.13-2.25-11.73-5.96-16.03C58.1,35.43,60.67,27.58,60.67,18.96z"/>
	</defs>
	<clipPath id="SVGID_4_">
		<use xlink:href="#SVGID_3_"  style="overflow:visible;"/>
	</clipPath>
	<g class="st5">
		<path class="st6" d="M47.31-4.5H47.3C47.3-4.5,47.3-4.5,47.31-4.5z"/>
		<path class="st7" d="M8.5,81.5h54.36c0,0,2.95-13.89-7.38-24.88c0,0-0.48-8.12-9.74-9.12H24.19c0,0-8.29,0.82-8.29,8.93
			C15.9,56.43,6.29,65.5,8.5,81.5z"/>
		<g>
			<defs>
				<path id="SVGID_5_" d="M8.5,81.5h54.36c0,0,2.95-13.89-7.38-24.88c0,0-0.48-8.12-9.74-9.12H24.19c0,0-8.29,0.82-8.29,8.93
					C15.9,56.43,6.29,65.5,8.5,81.5z"/>
			</defs>
			<clipPath id="SVGID_6_">
				<use xlink:href="#SVGID_5_"  style="overflow:visible;"/>
			</clipPath>
			<g class="st8">
				<path class="st9" d="M46.55,46.19l-3.21,3.13c3.06,0.3,6.98,3.08,6.98,3.08c0.89-0.07,3.16-2.73,3.16-2.73L46.55,46.19z"/>
				<path class="st9" d="M17.83,50.14l3.21,2.38c0,0,3.32-2.51,5.3-2.72l-2.24-3.72L17.83,50.14z"/>
			</g>
		</g>
		<rect x="28.98" y="60.83" class="st10" width="13.42" height="21.14"/>
		<ellipse class="st11" cx="51.5" cy="27.37" rx="2.34" ry="2.38"/>
		<ellipse class="st11" cx="19.33" cy="27.37" rx="2.34" ry="2.38"/>
		<path class="st11" d="M48.76,11.5c0,0-26.22,1.62-28.26,4.34S19,24.97,19,24.97v4.72C18,43.7,23.42,47,23.42,47l-0.37,0.47
			l2.58,2.57c0.64,2.9,3.37,4.35,3.37,4.35v7.11h0.05c0.46,3,3.27,5.78,6.66,5.78c3.39,0,6.2-2.78,6.66-5.78H43v-0.88
			c0-0.25,0.04-0.49,0.04-0.75c0-0.25-0.04-0.5-0.04-0.75v-5.88c0-0.58,2.16-3.49,2.16-3.49c0.83-0.25,2.42-2.44,2.42-2.44
			l-0.2-0.34c1-1.03,1.79-2.21,2.46-3.47c0.52-0.98,0.93-2.02,1.27-3.08c0.2-0.66,0.45-1.37,0.44-2.07c0-0.19,0-0.38,0-0.56
			c0-0.62,0-1.25,0.01-1.87c0-0.84,0.01-1.68,0.01-2.53c0-0.92,0.01-1.85,0.01-2.77c0-0.87,0.01-1.73,0.01-2.6
			c0-0.68,0.2-1.35,0.21-2.03c0-0.35,0.2-0.69,0.2-1.04c0-0.02,0-0.04,0-0.06C52,15.98,48.76,11.5,48.76,11.5z"/>
		<g>
			<defs>
				<path id="SVGID_7_" d="M48.76,11.5c0,0-26.22,1.62-28.26,4.34S19,24.97,19,24.97v4.72C18,43.7,23.42,47,23.42,47l-0.37,0.47
					l2.58,2.57c0.64,2.9,3.37,4.35,3.37,4.35v7.11h0.05c0.46,3,3.27,5.78,6.66,5.78c3.39,0,6.2-2.78,6.66-5.78H43v-0.88
					c0-0.25,0.04-0.49,0.04-0.75c0-0.25-0.04-0.5-0.04-0.75v-5.88c0-0.58,2.16-3.49,2.16-3.49c0.83-0.25,2.42-2.44,2.42-2.44
					l-0.2-0.34c1-1.03,1.79-2.21,2.46-3.47c0.52-0.98,0.93-2.02,1.27-3.08c0.2-0.66,0.45-1.37,0.44-2.07c0-0.19,0-0.38,0-0.56
					c0-0.62,0-1.25,0.01-1.87c0-0.84,0.01-1.68,0.01-2.53c0-0.92,0.01-1.85,0.01-2.77c0-0.87,0.01-1.73,0.01-2.6
					c0-0.68,0.2-1.35,0.21-2.03c0-0.35,0.2-0.69,0.2-1.04c0-0.02,0-0.04,0-0.06C52,15.98,48.76,11.5,48.76,11.5z"/>
			</defs>
			<clipPath id="SVGID_8_">
				<use xlink:href="#SVGID_7_"  style="overflow:visible;"/>
			</clipPath>
			<path class="st12" d="M43,53.2c0,0-2.21,3.09-7.27,3.35l-0.09,10.44c0,0,5.37,0.56,7.37-5.74V53.2z"/>
		</g>
		<path class="st2" d="M45.43,77.27L45.43,77.27c-0.45,0-0.81-0.36-0.81-0.81V52.62c0-0.45,0.36-0.81,0.81-0.81l0,0
			c0.45,0,0.81,0.36,0.81,0.81v23.84C46.24,76.91,45.88,77.27,45.43,77.27z"/>
		<path class="st2" d="M25.79,77.27L25.79,77.27c-0.45,0-0.81-0.36-0.81-0.81V52.62c0-0.45,0.36-0.81,0.81-0.81l0,0
			c0.45,0,0.81,0.36,0.81,0.81v23.84C26.6,76.91,26.23,77.27,25.79,77.27z"/>
		<path class="st13" d="M55.19,0.5H34.12c-0.19,0-0.4-0.25-0.59-0.25c-0.19,0-0.38-0.11-0.57-0.1c-1.91,0.08-3.73,0.53-5.36,1.36
			c-0.02,0.01-0.03-0.01-0.05,0c-4.66,2.4-7.87,7.53-7.87,13.45c0,0.49,0.02,1.43,0.07,1.94c0,0.04,0.01,0.6,0.01,0.6h19.01
			c0.27,0,0.55-0.44,0.82-0.41c0.06,0.01,0.11-0.22,0.17-0.21c0.55,0.07,1.12-0.01,1.7-0.01s1.14-0.1,1.7-0.17
			c0.06-0.01,0.11-0.05,0.17-0.05c0.28-0.04,0.55-0.1,0.82-0.16c0.09-0.02,0.18-0.04,0.26-0.07c0,0,0.01-0.01,0.01-0.01
			c1.04-0.24,2.03-0.61,2.97-1.09c0.02-0.01,0.05-0.03,0.07-0.04c4.65-2.4,7.85-7.27,7.85-13.19C55.29,1.48,55.26,0.5,55.19,0.5z"/>
		<g>
			<defs>
				<path id="SVGID_9_" d="M49.86-1.72c0,0,1.73,16.81-15.08,18.33l-8.24,0.15c0,0,17.49-1.54,14.07-21.56L49.86-1.72z"/>
			</defs>
			<clipPath id="SVGID_10_">
				<use xlink:href="#SVGID_9_"  style="overflow:visible;"/>
			</clipPath>
			<path class="st14" d="M55.19,0.5H34.12c-0.19,0-0.4-0.25-0.59-0.25c-0.19,0-0.38-0.11-0.57-0.1c-1.91,0.08-3.73,0.53-5.36,1.36
				c-0.02,0.01-0.03-0.01-0.05,0c-4.66,2.4-7.87,7.53-7.87,13.45c0,0.49,0.02,1.43,0.07,1.94c0,0.04,0.01,0.6,0.01,0.6h19.01
				c0.27,0,0.55-0.44,0.82-0.41c0.06,0.01,0.11-0.22,0.17-0.21c0.55,0.07,1.12-0.01,1.7-0.01s1.14-0.1,1.7-0.17
				c0.06-0.01,0.11-0.05,0.17-0.05c0.28-0.04,0.55-0.1,0.82-0.16c0.09-0.02,0.18-0.04,0.26-0.07c0,0,0.01-0.01,0.01-0.01
				c1.04-0.24,2.03-0.61,2.97-1.09c0.02-0.01,0.05-0.03,0.07-0.04c4.65-2.4,7.85-7.27,7.85-13.19C55.29,1.48,55.26,0.5,55.19,0.5z"
				/>
		</g>
	</g>
</g>
</svg>
