<?xml version="1.0" encoding="UTF-8"?>
<svg width="75px" height="98px" viewBox="0 0 75 98" version="1.1" xmlns="http://www.w3.org/2000/svg" xmlns:xlink="http://www.w3.org/1999/xlink">
    <!-- Generator: Sketch 44.1 (41455) - http://www.bohemiancoding.com/sketch -->
    <title>Owner_name1</title>
    <desc>Created with Sketch.</desc>
    <defs></defs>
    <g id="Page-1" stroke="none" stroke-width="1" fill="none" fill-rule="evenodd">
        <g id="Owner_name1" transform="translate(0.000000, -5.000000)" fill-rule="nonzero">
            <g id="Group" transform="translate(0.000000, 27.000000)">
                <circle id="Oval" fill="#6F29B5" cx="34.38" cy="35.08" r="34.17"></circle>
                <circle id="Oval" fill="#8A57C3" cx="34.49" cy="35.19" r="27.27"></circle>
                <circle id="Oval" fill="#FFFFFF" cx="34.36" cy="35.32" r="24.53"></circle>
                <polygon id="Shape" fill="#6F29B5" points="60.15 57.01 61.81 58.67 57.96 62.51 56.17 60.72"></polygon>
                <polygon id="Shape" fill="#F5F05F" points="55.77 64.05 63.61 56.47 74.6 67.46 72.67 69.5 66.49 75.26"></polygon>
                <polygon id="Shape" fill="#F4C31A" points="55.77 64.05 63.61 56.47 74.6 67.46 72.67 69.5 66.49 75.26"></polygon>
            </g>
            <g id="Group" transform="translate(7.000000, 0.000000)">
                <path d="M0.5,86.5 L54.86,86.5 C54.86,86.5 57.81,72.61 47.48,61.62 C47.48,61.62 47,53.5 37.74,52.5 L16.19,52.5 C16.19,52.5 7.9,53.32 7.9,61.43 C7.9,61.43 -1.71,70.5 0.5,86.5 Z" id="Shape" fill="#F4C31A"></path>
                <g transform="translate(9.000000, 51.000000)" id="Shape" fill="#B59214">
                    <path d="M29.55,0.19 L26.34,3.32 C29.4,3.62 33.32,6.4 33.32,6.4 C34.21,6.33 36.48,3.67 36.48,3.67 L29.55,0.19 Z"></path>
                    <path d="M0.83,4.14 L4.04,6.52 C4.04,6.52 7.36,4.01 9.34,3.8 L7.1,0.08 L0.83,4.14 Z"></path>
                </g>
                <rect id="Rectangle-path" fill="#6C2DAE" x="20.98" y="65.83" width="13.42" height="21.14"></rect>
                <ellipse id="Oval" fill="#F9CDBB" cx="43.5" cy="32.37" rx="2.34" ry="2.38"></ellipse>
                <ellipse id="Oval" fill="#F9CDBB" cx="11.33" cy="32.37" rx="2.34" ry="2.38"></ellipse>
                <path d="M40.76,16.5 C40.76,16.5 14.54,18.12 12.5,20.84 C10.46,23.56 11,29.97 11,29.97 L11,34.69 C10,48.7 15.42,52 15.42,52 L15.05,52.47 L17.63,55.04 C18.27,57.94 21,59.39 21,59.39 L21,66.5 L21.05,66.5 C21.51,69.5 24.32,72.28 27.71,72.28 C31.1,72.28 33.91,69.5 34.37,66.5 L35,66.5 L35,65.62 C35,65.37 35.04,65.13 35.04,64.87 C35.04,64.62 35,64.37 35,64.12 L35,58.24 C35,57.66 37.16,54.75 37.16,54.75 C37.99,54.5 39.58,52.31 39.58,52.31 L39.38,51.97 C40.38,50.94 41.17,49.76 41.84,48.5 C42.36,47.52 42.77,46.48 43.11,45.42 C43.31,44.76 43.56,44.05 43.55,43.35 C43.55,43.16 43.55,42.97 43.55,42.79 C43.55,42.17 43.55,41.54 43.56,40.92 C43.56,40.08 43.57,39.24 43.57,38.39 C43.57,37.47 43.58,36.54 43.58,35.62 C43.58,34.75 43.59,33.89 43.59,33.02 C43.59,32.34 43.79,31.67 43.8,30.99 C43.8,30.64 44,30.3 44,29.95 C44,29.93 44,29.91 44,29.89 C44,20.98 40.76,16.5 40.76,16.5 Z" id="Shape" fill="#F9CDBB"></path>
                <path d="M35,58.2 C35,58.2 32.79,61.29 27.73,61.55 L27.64,71.99 C27.64,71.99 33.01,72.55 35.01,66.25 L35.01,58.2 L35,58.2 Z" id="Shape" fill="#FAE0D5"></path>
                <path d="M37.43,82.27 L37.43,82.27 C36.98,82.27 36.62,81.91 36.62,81.46 L36.62,57.62 C36.62,57.17 36.98,56.81 37.43,56.81 L37.43,56.81 C37.88,56.81 38.24,57.17 38.24,57.62 L38.24,81.46 C38.24,81.91 37.88,82.27 37.43,82.27 Z" id="Shape" fill="#FFFFFF"></path>
                <path d="M17.79,82.27 L17.79,82.27 C17.34,82.27 16.98,81.91 16.98,81.46 L16.98,57.62 C16.98,57.17 17.34,56.81 17.79,56.81 L17.79,56.81 C18.24,56.81 18.6,57.17 18.6,57.62 L18.6,81.46 C18.6,81.91 18.23,82.27 17.79,82.27 Z" id="Shape" fill="#FFFFFF"></path>
                <path d="M47.19,5.5 L26.12,5.5 C25.93,5.5 25.72,5.25 25.53,5.25 C25.34,5.25 25.15,5.14 24.96,5.15 C23.05,5.23 21.23,5.68 19.6,6.51 C19.58,6.52 19.57,6.5 19.55,6.51 C14.89,8.91 11.68,14.04 11.68,19.96 C11.68,20.45 11.7,21.39 11.75,21.9 C11.75,21.94 11.76,22.5 11.76,22.5 L30.77,22.5 C31.04,22.5 31.32,22.06 31.59,22.09 C31.65,22.1 31.7,21.87 31.76,21.88 C32.31,21.95 32.88,21.87 33.46,21.87 C34.04,21.87 34.6,21.77 35.16,21.7 C35.22,21.69 35.27,21.65 35.33,21.65 C35.61,21.61 35.88,21.55 36.15,21.49 C36.24,21.47 36.33,21.45 36.41,21.42 C36.41,21.42 36.42,21.41 36.42,21.41 C37.46,21.17 38.45,20.8 39.39,20.32 C39.41,20.31 39.44,20.29 39.46,20.28 C44.11,17.88 47.31,13.01 47.31,7.09 C47.29,6.48 47.26,5.5 47.19,5.5 Z" id="Shape" fill="#282828"></path>
                <path d="M47.19,5.5 L26.12,5.5 C25.93,5.5 25.72,5.25 25.53,5.25 C25.34,5.25 25.15,5.14 24.96,5.15 C23.05,5.23 21.23,5.68 19.6,6.51 C19.58,6.52 19.57,6.5 19.55,6.51 C14.89,8.91 11.68,14.04 11.68,19.96 C11.68,20.45 11.7,21.39 11.75,21.9 C11.75,21.94 11.76,22.5 11.76,22.5 L30.77,22.5 C31.04,22.5 31.32,22.06 31.59,22.09 C31.65,22.1 31.7,21.87 31.76,21.88 C32.31,21.95 32.88,21.87 33.46,21.87 C34.04,21.87 34.6,21.77 35.16,21.7 C35.22,21.69 35.27,21.65 35.33,21.65 C35.61,21.61 35.88,21.55 36.15,21.49 C36.24,21.47 36.33,21.45 36.41,21.42 C36.41,21.42 36.42,21.41 36.42,21.41 C37.46,21.17 38.45,20.8 39.39,20.32 C39.41,20.31 39.44,20.29 39.46,20.28 C44.11,17.88 47.31,13.01 47.31,7.09 C47.29,6.48 47.26,5.5 47.19,5.5 Z" id="Shape" fill="#58595B"></path>
            </g>
        </g>
    </g>
</svg>