<?xml version="1.0" encoding="utf-8"?>
<!-- Generator: Adobe Illustrator 19.2.1, SVG Export Plug-In . SVG Version: 6.00 Build 0)  -->
<svg version="1.1" id="Layer_1" xmlns="http://www.w3.org/2000/svg" xmlns:xlink="http://www.w3.org/1999/xlink" x="0px" y="0px"
	 viewBox="0 0 59 49" style="enable-background:new 0 0 59 49;" xml:space="preserve">
<style type="text/css">
	.st0{fill:#F5C419;}
	.st1{fill:#FFFFFF;}
</style>
<g>
	<g>
		<path class="st0" d="M29.8,9.3c9.8,0.1,16-0.5,16.8,10.4h12c0-16.9-14.7-19.1-29.1-19.1C15.1,0.5,0.4,2.8,0.4,19.6h11.9
			C13.2,8.5,20.1,9.2,29.8,9.3z"/>
		<path class="st0" d="M6.3,25.1c2.9,0,5.3,0.2,5.9-2.7c0.1-0.4,0.1-0.8,0.1-1.3h-0.1H0.3C0.3,25.3,3,25.1,6.3,25.1z"/>
		<path class="st0" d="M46.7,21h-0.1c0,0.5,0,1,0.1,1.3c0.6,2.6,3,2.5,5.9,2.5c3.3,0,6,0.2,6-3.8C58.7,21,46.7,21,46.7,21z"/>
		<path class="st1" d="M40.9,18.1v-1.7c0-0.8-0.9-0.8-2-0.8h-1.8c-1.1,0-2,0-2,0.8v1.5V19H22.7v-1.1v-1.5c0-0.8-0.9-0.8-2-0.8H19
			c-1.1,0-2,0-2,0.8v1.7v1.5c-2.8,3-12.1,15.5-12.5,17l0,10.2c0,0.9,0.8,1.7,1.7,1.7h45.4c0.9,0,1.7-0.8,1.7-1.7V36.6
			c-0.3-1.5-9.6-14-12.5-17V18.1z M22.1,38c-0.9,0-1.7-0.7-1.7-1.7c0-0.9,0.7-1.7,1.7-1.7c0.9,0,1.7,0.7,1.7,1.7
			C23.7,37.3,23,38,22.1,38z M22.1,32.3c-0.9,0-1.7-0.7-1.7-1.7c0-0.9,0.7-1.7,1.7-1.7c0.9,0,1.7,0.7,1.7,1.7
			C23.7,31.6,23,32.3,22.1,32.3z M22.1,26.7c-0.9,0-1.7-0.7-1.7-1.7c0-0.9,0.7-1.7,1.7-1.7c0.9,0,1.7,0.7,1.7,1.7
			C23.7,25.9,23,26.7,22.1,26.7z M28.9,38c-0.9,0-1.7-0.7-1.7-1.7c0-0.9,0.7-1.7,1.7-1.7c0.9,0,1.7,0.7,1.7,1.7
			C30.6,37.3,29.8,38,28.9,38z M28.9,32.3c-0.9,0-1.7-0.7-1.7-1.7c0-0.9,0.7-1.7,1.7-1.7c0.9,0,1.7,0.7,1.7,1.7
			C30.6,31.6,29.8,32.3,28.9,32.3z M28.9,26.7c-0.9,0-1.7-0.7-1.7-1.7c0-0.9,0.7-1.7,1.7-1.7c0.9,0,1.7,0.7,1.7,1.7
			C30.6,25.9,29.8,26.7,28.9,26.7z M35.7,38c-0.9,0-1.7-0.7-1.7-1.7c0-0.9,0.7-1.7,1.7-1.7s1.7,0.7,1.7,1.7
			C37.4,37.3,36.6,38,35.7,38z M35.7,32.3c-0.9,0-1.7-0.7-1.7-1.7c0-0.9,0.7-1.7,1.7-1.7s1.7,0.7,1.7,1.7
			C37.4,31.6,36.6,32.3,35.7,32.3z M35.7,26.7c-0.9,0-1.7-0.7-1.7-1.7c0-0.9,0.7-1.7,1.7-1.7s1.7,0.7,1.7,1.7
			C37.4,25.9,36.6,26.7,35.7,26.7z"/>
	</g>
</g>
</svg>
