<svg width="18" height="14" viewBox="0 0 18 14" version="1.1" xmlns="http://www.w3.org/2000/svg" xmlns:xlink="http://www.w3.org/1999/xlink"><title>phone-white</title><desc>Created with Sketch.</desc><g id="Page-1" stroke="none" stroke-width="1" fill="none" fill-rule="evenodd"><path d="M10.098,3.555 C7.089,3.527 4.969,3.344 4.686,6.582 L1.013,6.582 C1.013,1.66 5.557,0.997 10.002,0.997 C14.445,0.997 18.989,1.66 18.989,6.582 L15.288,6.582 C15.032,3.405 13.132,3.583 10.098,3.555 Z M4.703,6.985 C4.703,7.134 4.689,7.263 4.666,7.377 C4.5,8.215 3.75,8.164 2.848,8.164 C1.827,8.164 0.997,8.231 0.997,6.985 L4.66,6.985 L4.703,6.985 Z M6.15,6.137 L6.15,5.642 C6.15,5.42 6.421,5.407 6.753,5.407 L7.298,5.407 C7.632,5.407 7.903,5.42 7.903,5.642 L7.903,6.068 L7.903,6.399 L11.755,6.399 L11.755,6.068 L11.755,5.642 C11.755,5.42 12.025,5.407 12.358,5.407 L12.902,5.407 C13.236,5.407 13.505,5.42 13.505,5.642 L13.505,6.137 L13.505,6.569 C14.384,7.43 17.254,11.097 17.358,11.528 L17.358,14.505 C17.358,14.779 17.122,15.002 16.833,15.002 L2.823,15.002 C2.534,15.002 2.298,14.779 2.298,14.505 L2.298,11.542 C2.401,11.098 5.273,7.43 6.15,6.569 L6.15,6.137 Z M11.915,11.941 C12.197,11.941 12.426,11.725 12.426,11.459 C12.426,11.192 12.197,10.976 11.915,10.976 C11.632,10.976 11.403,11.192 11.403,11.459 C11.403,11.725 11.632,11.941 11.915,11.941 Z M11.915,10.287 C12.197,10.287 12.426,10.071 12.426,9.804 C12.426,9.538 12.197,9.322 11.915,9.322 C11.632,9.322 11.403,9.538 11.403,9.804 C11.403,10.071 11.632,10.287 11.915,10.287 Z M11.915,8.633 C12.197,8.633 12.426,8.417 12.426,8.15 C12.426,7.884 12.197,7.668 11.915,7.668 C11.632,7.668 11.403,7.884 11.403,8.15 C11.403,8.417 11.632,8.633 11.915,8.633 Z M9.813,11.941 C10.097,11.941 10.324,11.725 10.324,11.459 C10.324,11.192 10.097,10.976 9.813,10.976 C9.532,10.976 9.302,11.192 9.302,11.459 C9.302,11.725 9.532,11.941 9.813,11.941 Z M9.813,10.287 C10.097,10.287 10.324,10.071 10.324,9.804 C10.324,9.538 10.097,9.322 9.813,9.322 C9.532,9.322 9.302,9.538 9.302,9.804 C9.302,10.071 9.532,10.287 9.813,10.287 Z M9.813,8.633 C10.097,8.633 10.324,8.417 10.324,8.15 C10.324,7.884 10.097,7.668 9.813,7.668 C9.532,7.668 9.302,7.884 9.302,8.15 C9.302,8.417 9.532,8.633 9.813,8.633 Z M7.712,11.941 C7.995,11.941 8.224,11.725 8.224,11.459 C8.224,11.192 7.995,10.976 7.712,10.976 C7.43,10.976 7.201,11.192 7.201,11.459 C7.201,11.725 7.43,11.941 7.712,11.941 Z M7.712,10.287 C7.995,10.287 8.224,10.071 8.224,9.804 C8.224,9.538 7.995,9.322 7.712,9.322 C7.43,9.322 7.201,9.538 7.201,9.804 C7.201,10.071 7.43,10.287 7.712,10.287 Z M7.712,8.633 C7.995,8.633 8.224,8.417 8.224,8.15 C8.224,7.884 7.995,7.668 7.712,7.668 C7.43,7.668 7.201,7.884 7.201,8.15 C7.201,8.417 7.43,8.633 7.712,8.633 Z M15.317,7.377 C15.292,7.265 15.279,7.136 15.279,6.985 L15.313,6.985 L19.002,6.985 C19.002,8.165 18.168,8.102 17.141,8.102 C16.242,8.102 15.493,8.149 15.317,7.377 Z" id="phone-white" transform="translate(-1.000000, -1.000000)" fill="#FFF"/></g></svg>