<?xml version="1.0" encoding="UTF-8"?>
<svg width="44px" height="41px" viewBox="0 0 44 41" version="1.1" xmlns="http://www.w3.org/2000/svg" xmlns:xlink="http://www.w3.org/1999/xlink">
    <!-- Generator: Sketch 44.1 (41455) - http://www.bohemiancoding.com/sketch -->
    <title>Premium1</title>
    <desc>Created with Sketch.</desc>
    <defs></defs>
    <g id="Page-1" stroke="none" stroke-width="1" fill="none" fill-rule="evenodd">
        <g id="Premium1" fill-rule="nonzero">
            <path d="M43.3,24.56 L0.75,24.56 C0.39,24.56 0.15,24.22 0.29,23.88 L1.77,20.4 C1.82,20.27 1.82,20.13 1.77,20.01 L0.29,16.49 C0.15,16.15 0.39,15.76 0.75,15.76 L43.3,15.76 C43.66,15.76 43.9,16.16 43.76,16.5 L42.28,20 C42.23,20.13 42.23,20.28 42.28,20.41 L43.76,23.88 C43.9,24.21 43.66,24.56 43.3,24.56 Z" id="Shape" fill="#592B88"></path>
            <g id="Group" transform="translate(0.000000, 15.000000)" fill="#6F29B5">
                <path d="M9.55,9.03 L7.97,7.01 C7.14,5.95 7.14,4.45 7.97,3.39 L9.55,1.41 C9.72,1.2 9.85,1 9.95,0.75 L0.75,0.75 C0.39,0.75 0.15,1.09 0.29,1.43 L1.77,4.91 C1.82,5.04 1.82,5.17 1.77,5.3 L0.29,8.82 C0.15,9.16 0.39,9.56 0.75,9.56 L9.87,9.56 C9.78,9.31 9.67,9.19 9.55,9.03 Z" id="Shape"></path>
                <path d="M42.28,5.29 C42.23,5.16 42.23,5.02 42.28,4.89 L43.76,1.43 C43.9,1.09 43.66,0.75 43.3,0.75 L33.62,0.75 C33.72,1 33.86,1.19 34.02,1.4 L35.6,3.39 C36.43,4.45 36.43,5.94 35.6,6.99 L34.02,9.03 C33.9,9.18 33.79,9.3 33.71,9.55 L43.3,9.55 C43.66,9.55 43.9,9.14 43.76,8.81 L42.28,5.29 Z" id="Shape"></path>
            </g>
            <path d="M23.62,7.41 L25.61,9.01 C26.03,9.35 26.54,9.56 27.07,9.62 L29.59,9.91 C30.92,10.06 31.97,11.12 32.12,12.46 L32.41,15.01 C32.47,15.55 32.68,16.06 33.02,16.49 L34.6,18.5 C35.43,19.56 35.43,21.05 34.6,22.11 L33.02,24.12 C32.68,24.55 32.47,25.06 32.41,25.6 L32.12,28.15 C31.97,29.49 30.92,30.55 29.59,30.7 L27.07,31 C26.54,31.06 26.03,31.27 25.61,31.61 L23.62,33.21 C22.57,34.05 21.09,34.05 20.05,33.21 L18.06,31.61 C17.64,31.27 17.13,31.06 16.6,31 L14.08,30.71 C12.75,30.56 11.7,29.5 11.55,28.16 L11.26,25.61 C11.2,25.07 10.99,24.56 10.65,24.13 L9.07,22.12 C8.24,21.06 8.24,19.57 9.07,18.51 L10.65,16.5 C10.99,16.07 11.2,15.56 11.26,15.02 L11.55,12.47 C11.7,11.13 12.75,10.07 14.08,9.92 L16.6,9.63 C17.13,9.57 17.64,9.36 18.06,9.02 L20.05,7.42 C21.09,6.57 22.57,6.57 23.62,7.41 Z" id="Shape" fill="#F4C31A"></path>
            <ellipse id="Oval" fill="#F5DC6A" cx="21.83" cy="20.31" rx="9.09" ry="9.19"></ellipse>
            <path d="M21.93,24.28 L25.58,26.5 C25.72,26.59 25.9,26.46 25.86,26.29 L24.89,22.09 C24.87,22.02 24.9,21.95 24.95,21.9 L28.17,19.08 C28.3,18.97 28.23,18.76 28.06,18.74 L23.81,18.37 C23.74,18.36 23.68,18.32 23.65,18.25 L21.99,14.29 C21.92,14.13 21.7,14.13 21.64,14.29 L20,18.26 C19.97,18.33 19.91,18.37 19.84,18.38 L15.59,18.75 C15.42,18.76 15.35,18.98 15.48,19.09 L18.7,21.91 C18.75,21.96 18.78,22.03 18.76,22.1 L17.79,26.3 C17.75,26.47 17.93,26.6 18.07,26.51 L21.72,24.29 C21.79,24.24 21.87,24.24 21.93,24.28 Z" id="Shape" fill="#FEFEFE"></path>
            <g id="Group" transform="translate(6.000000, 0.000000)" fill="#6F29B5">
                <path d="M15.68,4.8 L15.59,4.8 C15.24,4.8 14.95,4.51 14.95,4.16 L14.95,1.04 C14.95,0.69 15.24,0.4 15.59,0.4 L15.68,0.4 C16.03,0.4 16.32,0.69 16.32,1.04 L16.32,4.16 C16.32,4.52 16.03,4.8 15.68,4.8 Z" id="Shape"></path>
                <path d="M3.33,14.25 L3.33,14.25 C3.22,14.62 2.84,14.82 2.47,14.71 L1.16,14.31 C0.8,14.2 0.59,13.81 0.71,13.45 L0.71,13.45 C0.82,13.08 1.2,12.88 1.57,12.99 L2.88,13.39 C3.23,13.5 3.44,13.89 3.33,14.25 Z" id="Shape"></path>
                <path d="M4.71,11.12 L4.71,11.12 C4.51,11.44 4.09,11.54 3.77,11.34 L1.24,9.74 C0.92,9.54 0.82,9.11 1.02,8.79 L1.02,8.79 C1.22,8.47 1.64,8.37 1.96,8.57 L4.48,10.16 C4.81,10.36 4.91,10.79 4.71,11.12 Z" id="Shape"></path>
                <path d="M6.84,8.44 L6.84,8.44 C6.56,8.7 6.13,8.69 5.87,8.41 L4.77,7.22 C4.51,6.94 4.53,6.5 4.8,6.24 L4.8,6.24 C5.08,5.98 5.51,5.99 5.77,6.27 L6.87,7.46 C7.14,7.75 7.12,8.18 6.84,8.44 Z" id="Shape"></path>
                <path d="M9.49,6.48 L9.49,6.48 C9.16,6.66 8.74,6.54 8.56,6.2 L7.14,3.56 C6.96,3.22 7.08,2.8 7.42,2.62 L7.42,2.62 C7.75,2.44 8.17,2.56 8.35,2.9 L9.77,5.54 C9.95,5.88 9.83,6.3 9.49,6.48 Z" id="Shape"></path>
                <path d="M12.66,5.22 L12.66,5.22 C12.29,5.31 11.92,5.08 11.83,4.71 L11.46,3.13 C11.37,2.76 11.6,2.38 11.97,2.3 L11.97,2.3 C12.34,2.21 12.71,2.44 12.8,2.81 L13.17,4.39 C13.25,4.76 13.02,5.13 12.66,5.22 Z" id="Shape"></path>
                <path d="M28.52,14.25 L28.52,14.25 C28.63,14.62 29.01,14.82 29.38,14.71 L30.69,14.31 C31.05,14.2 31.26,13.81 31.14,13.45 L31.14,13.45 C31.03,13.08 30.65,12.88 30.28,12.99 L28.97,13.39 C28.62,13.5 28.41,13.89 28.52,14.25 Z" id="Shape"></path>
                <path d="M27.14,11.12 L27.14,11.12 C27.34,11.44 27.76,11.54 28.08,11.34 L30.6,9.75 C30.92,9.55 31.02,9.12 30.82,8.8 L30.82,8.8 C30.62,8.48 30.2,8.38 29.88,8.58 L27.36,10.17 C27.04,10.36 26.94,10.79 27.14,11.12 Z" id="Shape"></path>
                <path d="M25.01,8.44 L25.01,8.44 C25.29,8.7 25.72,8.69 25.98,8.41 L27.08,7.22 C27.34,6.94 27.32,6.5 27.05,6.24 L27.05,6.24 C26.77,5.98 26.34,5.99 26.08,6.27 L24.98,7.46 C24.71,7.75 24.73,8.18 25.01,8.44 Z" id="Shape"></path>
                <path d="M22.36,6.48 L22.36,6.48 C22.69,6.66 23.11,6.54 23.29,6.2 L24.71,3.56 C24.89,3.22 24.77,2.8 24.43,2.62 L24.43,2.62 C24.1,2.44 23.68,2.57 23.5,2.9 L22.08,5.54 C21.9,5.88 22.02,6.3 22.36,6.48 Z" id="Shape"></path>
                <path d="M19.19,5.22 L19.19,5.22 C19.56,5.31 19.93,5.08 20.02,4.71 L20.39,3.13 C20.48,2.76 20.25,2.38 19.88,2.3 L19.88,2.3 C19.51,2.21 19.14,2.44 19.05,2.81 L18.68,4.39 C18.6,4.76 18.83,5.13 19.19,5.22 Z" id="Shape"></path>
            </g>
            <g id="Group" transform="translate(6.000000, 26.000000)" fill="#6F29B5">
                <path d="M15.68,10.01 L15.59,10.01 C15.24,10.01 14.95,10.3 14.95,10.65 L14.95,13.77 C14.95,14.12 15.24,14.41 15.59,14.41 L15.68,14.41 C16.03,14.41 16.32,14.12 16.32,13.77 L16.32,10.65 C16.32,10.3 16.03,10.01 15.68,10.01 Z" id="Shape"></path>
                <path d="M3.33,0.62 L3.33,0.62 C3.22,0.25 2.84,0.05 2.47,0.16 L1.16,0.56 C0.8,0.67 0.59,1.06 0.71,1.42 L0.71,1.42 C0.82,1.8 1.2,2 1.56,1.89 L2.87,1.49 C3.23,1.37 3.44,0.99 3.33,0.62 Z" id="Shape"></path>
                <path d="M4.71,3.76 L4.71,3.76 C4.51,3.44 4.09,3.34 3.77,3.54 L1.25,5.13 C0.93,5.33 0.83,5.76 1.03,6.08 L1.03,6.08 C1.23,6.4 1.65,6.5 1.97,6.3 L4.49,4.71 C4.81,4.51 4.91,4.08 4.71,3.76 Z" id="Shape"></path>
                <path d="M6.84,6.43 L6.84,6.43 C6.56,6.17 6.13,6.18 5.87,6.46 L4.77,7.65 C4.51,7.93 4.53,8.37 4.8,8.63 L4.8,8.63 C5.08,8.89 5.51,8.88 5.77,8.6 L6.87,7.41 C7.14,7.13 7.12,6.69 6.84,6.43 Z" id="Shape"></path>
                <path d="M9.49,8.4 L9.49,8.4 C9.16,8.22 8.74,8.34 8.56,8.68 L7.14,11.32 C6.96,11.66 7.08,12.08 7.42,12.26 L7.42,12.26 C7.75,12.44 8.17,12.32 8.35,11.98 L9.77,9.34 C9.95,9 9.83,8.58 9.49,8.4 Z" id="Shape"></path>
                <path d="M12.66,9.66 L12.66,9.66 C12.29,9.57 11.92,9.8 11.83,10.17 L11.46,11.75 C11.37,12.12 11.6,12.5 11.97,12.58 L11.97,12.58 C12.34,12.67 12.71,12.44 12.8,12.07 L13.17,10.49 C13.25,10.12 13.02,9.75 12.66,9.66 Z" id="Shape"></path>
                <path d="M28.52,0.62 L28.52,0.62 C28.63,0.25 29.01,0.05 29.38,0.16 L30.69,0.56 C31.05,0.67 31.26,1.06 31.14,1.42 L31.14,1.42 C31.03,1.79 30.65,1.99 30.28,1.88 L28.97,1.48 C28.62,1.37 28.41,0.99 28.52,0.62 Z" id="Shape"></path>
                <path d="M27.14,3.76 L27.14,3.76 C27.34,3.44 27.76,3.34 28.08,3.54 L30.6,5.13 C30.92,5.33 31.02,5.76 30.82,6.08 L30.82,6.08 C30.62,6.4 30.2,6.5 29.88,6.3 L27.36,4.71 C27.04,4.51 26.94,4.08 27.14,3.76 Z" id="Shape"></path>
                <path d="M25.01,6.43 L25.01,6.43 C25.29,6.17 25.72,6.18 25.98,6.46 L27.08,7.65 C27.34,7.93 27.32,8.37 27.05,8.63 L27.05,8.63 C26.77,8.89 26.34,8.88 26.08,8.6 L24.98,7.41 C24.71,7.13 24.73,6.69 25.01,6.43 Z" id="Shape"></path>
                <path d="M22.36,8.4 L22.36,8.4 C22.69,8.22 23.11,8.34 23.29,8.68 L24.71,11.32 C24.89,11.66 24.77,12.08 24.43,12.26 L24.43,12.26 C24.1,12.44 23.68,12.32 23.5,11.98 L22.08,9.34 C21.9,9 22.02,8.58 22.36,8.4 Z" id="Shape"></path>
                <path d="M19.19,9.66 L19.19,9.66 C19.56,9.57 19.93,9.8 20.02,10.17 L20.39,11.75 C20.48,12.12 20.25,12.5 19.88,12.58 L19.88,12.58 C19.51,12.67 19.14,12.44 19.05,12.07 L18.68,10.49 C18.6,10.12 18.83,9.75 19.19,9.66 Z" id="Shape"></path>
            </g>
        </g>
    </g>
</svg>