<?xml version="1.0" encoding="utf-8"?>
<!-- Generator: Adobe Illustrator 19.2.1, SVG Export Plug-In . SVG Version: 6.00 Build 0)  -->
<svg version="1.1" id="Layer_1" xmlns="http://www.w3.org/2000/svg" xmlns:xlink="http://www.w3.org/1999/xlink" x="0px" y="0px"
	 viewBox="0 0 44.14 40.79" style="enable-background:new 0 0 44.14 40.79;" xml:space="preserve">
<style type="text/css">
	.st0{fill:#592B88;}
	.st1{fill:#6F29B5;}
	.st2{fill:#F4C31A;}
	.st3{fill:#F5DC6A;}
	.st4{fill:#FEFEFE;}
</style>
<g>
	<path class="st0" d="M43.3,24.56H0.75c-0.36,0-0.6-0.34-0.46-0.68l1.48-3.48c0.05-0.13,0.05-0.27,0-0.39l-1.48-3.52
		c-0.14-0.34,0.1-0.73,0.46-0.73H43.3c0.36,0,0.6,0.4,0.46,0.74L42.28,20c-0.05,0.13-0.05,0.28,0,0.41l1.48,3.47
		C43.9,24.21,43.66,24.56,43.3,24.56z"/>
	<g>
		<path class="st1" d="M9.55,24.03l-1.58-2.02c-0.83-1.06-0.83-2.56,0-3.62l1.58-1.98c0.17-0.21,0.3-0.41,0.4-0.66h-9.2
			c-0.36,0-0.6,0.34-0.46,0.68l1.48,3.48c0.05,0.13,0.05,0.26,0,0.39l-1.48,3.52c-0.14,0.34,0.1,0.74,0.46,0.74h9.12
			C9.78,24.31,9.67,24.19,9.55,24.03z"/>
		<path class="st1" d="M42.28,20.29c-0.05-0.13-0.05-0.27,0-0.4l1.48-3.46c0.14-0.34-0.1-0.68-0.46-0.68h-9.68
			c0.1,0.25,0.24,0.44,0.4,0.65l1.58,1.99c0.83,1.06,0.83,2.55,0,3.6l-1.58,2.04c-0.12,0.15-0.23,0.27-0.31,0.52h9.59
			c0.36,0,0.6-0.41,0.46-0.74L42.28,20.29z"/>
	</g>
	<path class="st2" d="M23.62,7.41l1.99,1.6c0.42,0.34,0.93,0.55,1.46,0.61l2.52,0.29c1.33,0.15,2.38,1.21,2.53,2.55l0.29,2.55
		c0.06,0.54,0.27,1.05,0.61,1.48l1.58,2.01c0.83,1.06,0.83,2.55,0,3.61l-1.58,2.01c-0.34,0.43-0.55,0.94-0.61,1.48l-0.29,2.55
		c-0.15,1.34-1.2,2.4-2.53,2.55L27.07,31c-0.53,0.06-1.04,0.27-1.46,0.61l-1.99,1.6c-1.05,0.84-2.53,0.84-3.57,0l-1.99-1.6
		c-0.42-0.34-0.93-0.55-1.46-0.61l-2.52-0.29c-1.33-0.15-2.38-1.21-2.53-2.55l-0.29-2.55c-0.06-0.54-0.27-1.05-0.61-1.48l-1.58-2.01
		c-0.83-1.06-0.83-2.55,0-3.61l1.58-2.01c0.34-0.43,0.55-0.94,0.61-1.48l0.29-2.55c0.15-1.34,1.2-2.4,2.53-2.55l2.52-0.29
		c0.53-0.06,1.04-0.27,1.46-0.61l1.99-1.6C21.09,6.57,22.57,6.57,23.62,7.41z"/>
	<ellipse class="st3" cx="21.83" cy="20.31" rx="9.09" ry="9.19"/>
	<path class="st4" d="M21.93,24.28l3.65,2.22c0.14,0.09,0.32-0.04,0.28-0.21l-0.97-4.2c-0.02-0.07,0.01-0.14,0.06-0.19l3.22-2.82
		c0.13-0.11,0.06-0.32-0.11-0.34l-4.25-0.37c-0.07-0.01-0.13-0.05-0.16-0.12l-1.66-3.96c-0.07-0.16-0.29-0.16-0.35,0L20,18.26
		c-0.03,0.07-0.09,0.11-0.16,0.12l-4.25,0.37c-0.17,0.01-0.24,0.23-0.11,0.34l3.22,2.82c0.05,0.05,0.08,0.12,0.06,0.19l-0.97,4.2
		c-0.04,0.17,0.14,0.3,0.28,0.21l3.65-2.22C21.79,24.24,21.87,24.24,21.93,24.28z"/>
	<g>
		<path class="st1" d="M21.68,4.8h-0.09c-0.35,0-0.64-0.29-0.64-0.64V1.04c0-0.35,0.29-0.64,0.64-0.64h0.09
			c0.35,0,0.64,0.29,0.64,0.64v3.12C22.32,4.52,22.03,4.8,21.68,4.8z"/>
		<path class="st1" d="M9.33,14.25L9.33,14.25c-0.11,0.37-0.49,0.57-0.86,0.46l-1.31-0.4c-0.36-0.11-0.57-0.5-0.45-0.86l0,0
			c0.11-0.37,0.49-0.57,0.86-0.46l1.31,0.4C9.23,13.5,9.44,13.89,9.33,14.25z"/>
		<path class="st1" d="M10.71,11.12L10.71,11.12c-0.2,0.32-0.62,0.42-0.94,0.22L7.24,9.74c-0.32-0.2-0.42-0.63-0.22-0.95l0,0
			c0.2-0.32,0.62-0.42,0.94-0.22l2.52,1.59C10.81,10.36,10.91,10.79,10.71,11.12z"/>
		<path class="st1" d="M12.84,8.44L12.84,8.44c-0.28,0.26-0.71,0.25-0.97-0.03l-1.1-1.19c-0.26-0.28-0.24-0.72,0.03-0.98l0,0
			c0.28-0.26,0.71-0.25,0.97,0.03l1.1,1.19C13.14,7.75,13.12,8.18,12.84,8.44z"/>
		<path class="st1" d="M15.49,6.48L15.49,6.48c-0.33,0.18-0.75,0.06-0.93-0.28l-1.42-2.64c-0.18-0.34-0.06-0.76,0.28-0.94l0,0
			c0.33-0.18,0.75-0.06,0.93,0.28l1.42,2.64C15.95,5.88,15.83,6.3,15.49,6.48z"/>
		<path class="st1" d="M18.66,5.22L18.66,5.22c-0.37,0.09-0.74-0.14-0.83-0.51l-0.37-1.58c-0.09-0.37,0.14-0.75,0.51-0.83l0,0
			c0.37-0.09,0.74,0.14,0.83,0.51l0.37,1.58C19.25,4.76,19.02,5.13,18.66,5.22z"/>
		<path class="st1" d="M34.52,14.25L34.52,14.25c0.11,0.37,0.49,0.57,0.86,0.46l1.31-0.4c0.36-0.11,0.57-0.5,0.45-0.86v0
			c-0.11-0.37-0.49-0.57-0.86-0.46l-1.31,0.4C34.62,13.5,34.41,13.89,34.52,14.25z"/>
		<path class="st1" d="M33.14,11.12L33.14,11.12c0.2,0.32,0.62,0.42,0.94,0.22l2.52-1.59c0.32-0.2,0.42-0.63,0.22-0.95l0,0
			c-0.2-0.32-0.62-0.42-0.94-0.22l-2.52,1.59C33.04,10.36,32.94,10.79,33.14,11.12z"/>
		<path class="st1" d="M31.01,8.44L31.01,8.44c0.28,0.26,0.71,0.25,0.97-0.03l1.1-1.19c0.26-0.28,0.24-0.72-0.03-0.98v0
			c-0.28-0.26-0.71-0.25-0.97,0.03l-1.1,1.19C30.71,7.75,30.73,8.18,31.01,8.44z"/>
		<path class="st1" d="M28.36,6.48L28.36,6.48c0.33,0.18,0.75,0.06,0.93-0.28l1.42-2.64c0.18-0.34,0.06-0.76-0.28-0.94l0,0
			C30.1,2.44,29.68,2.57,29.5,2.9l-1.42,2.64C27.9,5.88,28.02,6.3,28.36,6.48z"/>
		<path class="st1" d="M25.19,5.22L25.19,5.22c0.37,0.09,0.74-0.14,0.83-0.51l0.37-1.58c0.09-0.37-0.14-0.75-0.51-0.83v0
			c-0.37-0.09-0.74,0.14-0.83,0.51l-0.37,1.58C24.6,4.76,24.83,5.13,25.19,5.22z"/>
	</g>
	<g>
		<path class="st1" d="M21.68,36.01h-0.09c-0.35,0-0.64,0.29-0.64,0.64v3.12c0,0.35,0.29,0.64,0.64,0.64h0.09
			c0.35,0,0.64-0.29,0.64-0.64v-3.12C22.32,36.3,22.03,36.01,21.68,36.01z"/>
		<path class="st1" d="M9.33,26.62L9.33,26.62c-0.11-0.37-0.49-0.57-0.86-0.46l-1.31,0.4c-0.36,0.11-0.57,0.5-0.45,0.86l0,0
			C6.82,27.8,7.2,28,7.56,27.89l1.31-0.4C9.23,27.37,9.44,26.99,9.33,26.62z"/>
		<path class="st1" d="M10.71,29.76L10.71,29.76c-0.2-0.32-0.62-0.42-0.94-0.22l-2.52,1.59c-0.32,0.2-0.42,0.63-0.22,0.95l0,0
			c0.2,0.32,0.62,0.42,0.94,0.22l2.52-1.59C10.81,30.51,10.91,30.08,10.71,29.76z"/>
		<path class="st1" d="M12.84,32.43L12.84,32.43c-0.28-0.26-0.71-0.25-0.97,0.03l-1.1,1.19c-0.26,0.28-0.24,0.72,0.03,0.98l0,0
			c0.28,0.26,0.71,0.25,0.97-0.03l1.1-1.19C13.14,33.13,13.12,32.69,12.84,32.43z"/>
		<path class="st1" d="M15.49,34.4L15.49,34.4c-0.33-0.18-0.75-0.06-0.93,0.28l-1.42,2.64c-0.18,0.34-0.06,0.76,0.28,0.94h0
			c0.33,0.18,0.75,0.06,0.93-0.28l1.42-2.64C15.95,35,15.83,34.58,15.49,34.4z"/>
		<path class="st1" d="M18.66,35.66L18.66,35.66c-0.37-0.09-0.74,0.14-0.83,0.51l-0.37,1.58c-0.09,0.37,0.14,0.75,0.51,0.83h0
			c0.37,0.09,0.74-0.14,0.83-0.51l0.37-1.58C19.25,36.12,19.02,35.75,18.66,35.66z"/>
		<path class="st1" d="M34.52,26.62L34.52,26.62c0.11-0.37,0.49-0.57,0.86-0.46l1.31,0.4c0.36,0.11,0.57,0.5,0.45,0.86v0
			c-0.11,0.37-0.49,0.57-0.86,0.46l-1.31-0.4C34.62,27.37,34.41,26.99,34.52,26.62z"/>
		<path class="st1" d="M33.14,29.76L33.14,29.76c0.2-0.32,0.62-0.42,0.94-0.22l2.52,1.59c0.32,0.2,0.42,0.63,0.22,0.95l0,0
			c-0.2,0.32-0.62,0.42-0.94,0.22l-2.52-1.59C33.04,30.51,32.94,30.08,33.14,29.76z"/>
		<path class="st1" d="M31.01,32.43L31.01,32.43c0.28-0.26,0.71-0.25,0.97,0.03l1.1,1.19c0.26,0.28,0.24,0.72-0.03,0.98v0
			c-0.28,0.26-0.71,0.25-0.97-0.03l-1.1-1.19C30.71,33.13,30.73,32.69,31.01,32.43z"/>
		<path class="st1" d="M28.36,34.4L28.36,34.4c0.33-0.18,0.75-0.06,0.93,0.28l1.42,2.64c0.18,0.34,0.06,0.76-0.28,0.94l0,0
			c-0.33,0.18-0.75,0.06-0.93-0.28l-1.42-2.64C27.9,35,28.02,34.58,28.36,34.4z"/>
		<path class="st1" d="M25.19,35.66L25.19,35.66c0.37-0.09,0.74,0.14,0.83,0.51l0.37,1.58c0.09,0.37-0.14,0.75-0.51,0.83l0,0
			c-0.37,0.09-0.74-0.14-0.83-0.51l-0.37-1.58C24.6,36.12,24.83,35.75,25.19,35.66z"/>
	</g>
</g>
</svg>
