<?xml version="1.0" encoding="UTF-8"?>
<svg width="37px" height="32px" viewBox="0 0 37 32" version="1.1" xmlns="http://www.w3.org/2000/svg" xmlns:xlink="http://www.w3.org/1999/xlink">
    <!-- Generator: Sketch 44.1 (41455) - http://www.bohemiancoding.com/sketch -->
    <title>quote</title>
    <desc>Created with Sketch.</desc>
    <defs></defs>
    <g id="Page-1" stroke="none" stroke-width="1" fill="none" fill-rule="evenodd" opacity="0.102">
        <g id="quote" fill="#000000">
            <path d="M28.407,29.831 C20.19,35.871 29.054,28.532 31.036,17.152 C30.14,17.46 29.184,17.634 28.183,17.634 C23.32,17.634 19.377,13.687 19.377,8.818 C19.377,3.947 23.319,0 28.183,0 C33.049,0 36.991,3.947 36.991,8.818 C36.991,8.821 36.991,8.826 36.991,8.829 C37.001,9.087 37.52,23.133 28.407,29.831 Z M9.031,29.831 C0.813,35.871 9.678,28.532 11.659,17.152 C10.764,17.46 9.807,17.634 8.807,17.634 C3.943,17.634 0,13.687 0,8.818 C0,3.947 3.943,0 8.807,0 C13.671,0 17.614,3.947 17.614,8.818 C17.614,8.821 17.614,8.826 17.614,8.829 C17.625,9.087 18.142,23.133 9.031,29.831 Z"></path>
        </g>
    </g>
</svg>