<?xml version="1.0" encoding="UTF-8"?>
<svg width="37px" height="37px" viewBox="0 0 37 37" version="1.1" xmlns="http://www.w3.org/2000/svg" xmlns:xlink="http://www.w3.org/1999/xlink">
    <!-- Generator: Sketch 43.1 (39012) - http://www.bohemiancoding.com/sketch -->
    <title>Records</title>
    <desc>Created with Sketch.</desc>
    <defs></defs>
    <g id="Page-1" stroke="none" stroke-width="1" fill="none" fill-rule="evenodd">
        <g id="AccountModal-Stats3" transform="translate(-647.000000, -405.000000)">
            <g id="Records" transform="translate(647.000000, 405.000000)">
                <path d="M11.5625,2.3125 C11.5625,1.03542188 10.5270781,0 9.25,0 L2.3125,0 C1.03542188,0 0,1.03542188 0,2.3125 L0,34.6875 C0,35.9645781 1.03542188,37 2.3125,37 L9.25,37 C10.5270781,37 11.5625,35.9645781 11.5625,34.6875 L11.5625,2.3125 Z" id="Fill-2435" fill="#F2DA3E"></path>
                <path d="M23.125,2.3125 C23.125,1.03542188 22.0895781,0 20.8125,0 L13.875,0 C12.5979219,0 11.5625,1.03542188 11.5625,2.3125 L11.5625,34.6875 C11.5625,35.9645781 12.5979219,37 13.875,37 L20.8125,37 C22.0895781,37 23.125,35.9645781 23.125,34.6875 L23.125,2.3125 Z" id="Fill-2436" fill="#0484AB"></path>
                <polygon id="Fill-2437" fill="#FFFFFF" points="9.25 20.8125 2.3125 20.8125 2.3125 2.3125 9.25 2.3125"></polygon>
                <polygon id="Fill-2438" fill="#FFFFFF" points="20.8125 20.8125 13.875 20.8125 13.875 2.3125 20.8125 2.3125"></polygon>
                <polygon id="Fill-2439" fill="#FFFFFF" points="9.25 27.75 2.3125 27.75 2.3125 23.125 9.25 23.125"></polygon>
                <polygon id="Fill-2440" fill="#FFFFFF" points="20.8125 27.75 13.875 27.75 13.875 23.125 20.8125 23.125"></polygon>
                <path d="M8.09375,32.375 C8.09375,33.6520781 7.05832812,34.6875 5.78125,34.6875 C4.50417188,34.6875 3.46875,33.6520781 3.46875,32.375 C3.46875,31.0979219 4.50417188,30.0625 5.78125,30.0625 C7.05832812,30.0625 8.09375,31.0979219 8.09375,32.375" id="Fill-2441" fill="#3E3E3F"></path>
                <path d="M19.65625,32.375 C19.65625,33.6520781 18.6208281,34.6875 17.34375,34.6875 C16.0666719,34.6875 15.03125,33.6520781 15.03125,32.375 C15.03125,31.0979219 16.0666719,30.0625 17.34375,30.0625 C18.6208281,30.0625 19.65625,31.0979219 19.65625,32.375" id="Fill-2442" fill="#3E3E3F"></path>
                <path d="M2.3125,2.3125 L9.25,2.3125 L9.25,8.79501563 L11.5625,6.48251563 L11.5625,2.3125 C11.5625,1.03542188 10.5270781,0 9.25,0 L2.3125,0 C1.03542188,0 0,1.03542188 0,2.3125 L0,18.0450156 L2.3125,15.7325156 L2.3125,2.3125 Z" id="Fill-2443" fill="#F7E46F"></path>
                <path d="M13.875,2.3125 L20.8125,2.3125 L20.8125,8.79501563 L23.125,6.48251563 L23.125,2.3125 C23.125,1.03542188 22.0895781,0 20.8125,0 L13.875,0 C12.5979219,0 11.5625,1.03542188 11.5625,2.3125 L11.5625,18.0450156 L13.875,15.7325156 L13.875,2.3125 Z" id="Fill-2444" fill="#059BBF"></path>
                <path d="M34.7545625,2.34215781 C34.6753594,1.08762656 33.5936875,0.134298438 32.3391563,0.214079688 L25.5230625,0.644782812 C24.2685313,0.724564063 23.3157812,1.80565781 23.3949844,3.06076719 L25.4068594,34.8674703 C25.4860625,36.1220016 26.5677344,37.0747516 27.8222656,36.9955484 L34.6383594,36.5642672 C35.8928906,36.4850641 36.8456406,35.4033922 36.7664375,34.1488609 L34.7545625,2.34215781 Z" id="Fill-2445" fill="#81B44C"></path>
                <polygon id="Fill-2446" fill="#FFFFFF" points="33.6322484 20.6609156 26.8167328 21.0921969 25.6668422 2.91710312 32.4829359 2.48582187"></polygon>
                <polygon id="Fill-2447" fill="#FFFFFF" points="34.0633563 27.4767203 27.2478406 27.9080016 26.9605125 23.3639391 33.7760281 22.9326578"></polygon>
                <path d="M33.2147844,32.0922969 C33.2939875,33.3468281 32.3412375,34.4285 31.0867063,34.5077031 C29.8315969,34.5874844 28.7505031,33.6341562 28.6713,32.379625 C28.5915188,31.1250938 29.5442688,30.0434219 30.7993781,29.9642187 C32.0539094,29.8850156 33.1355813,30.8377656 33.2147844,32.0922969" id="Fill-2448" fill="#3E3E3F"></path>
            </g>
        </g>
    </g>
</svg>