<?xml version="1.0" encoding="UTF-8"?>
<svg width="46px" height="37px" viewBox="0 0 46 37" version="1.1" xmlns="http://www.w3.org/2000/svg" xmlns:xlink="http://www.w3.org/1999/xlink">
    <!-- Generator: Sketch 43.1 (39012) - http://www.bohemiancoding.com/sketch -->
    <title>Reports</title>
    <desc>Created with Sketch.</desc>
    <defs></defs>
    <g id="Page-1" stroke="none" stroke-width="1" fill="none" fill-rule="evenodd">
        <g id="AccountModal-Stats3" transform="translate(-642.000000, -180.000000)">
            <g id="Reports" transform="translate(641.000000, 180.000000)">
                <g id="Report" style="mix-blend-mode: multiply;" transform="translate(29.990494, 19.396315) rotate(13.000000) translate(-29.990494, -19.396315) translate(15.337577, 4.845682)">
                    <path d="M25.6426042,0 C27.6665383,0 29.3058333,1.62785206 29.3058333,3.63765823 L29.3058333,25.4636076 C29.3058333,27.4734138 27.6665383,29.1012658 25.6426042,29.1012658 L3.66322917,29.1012658 C1.63929505,29.1012658 0,27.4734138 0,25.4636076 L0,3.63765823 C0,1.62785206 1.63929505,0 3.66322917,0 L25.6426042,0 Z" id="Fill-6259" fill="#F9F9F9"></path>
                    <path d="M25.6426042,0 L3.66322917,0 C1.64021086,0 0,1.62830676 0,3.63765823 L0,5.45648734 L29.3058333,5.45648734 L29.3058333,3.63765823 C29.3058333,1.62830676 27.6656225,0 25.6426042,0" id="Fill-6260" fill="#81B44C"></path>
                    <polygon id="Fill-6261" fill="#6FDAF1" points="10.0738802 14.5506329 3.66322917 14.5506329 3.66322917 8.18473101 10.0738802 8.18473101"></polygon>
                    <polygon id="Fill-6262" fill="#E2E4E5" points="10.0738802 17.2788766 3.66322917 17.2788766 3.66322917 16.369462 10.0738802 16.369462"></polygon>
                    <polygon id="Fill-6263" fill="#E2E4E5" points="10.0738802 19.552413 3.66322917 19.552413 3.66322917 18.6429984 10.0738802 18.6429984"></polygon>
                    <polygon id="Fill-6264" fill="#E2E4E5" points="10.0738802 21.8259494 3.66322917 21.8259494 3.66322917 20.9165348 10.0738802 20.9165348"></polygon>
                    <polygon id="Fill-6265" fill="#E2E4E5" points="7.78436198 24.0994858 3.66322917 24.0994858 3.66322917 23.1900712 7.78436198 23.1900712"></polygon>
                    <path d="M8.70016927,10.9129747 C8.70016927,11.9174231 7.88006384,12.7318038 6.86855469,12.7318038 C5.85704553,12.7318038 5.0369401,11.9174231 5.0369401,10.9129747 C5.0369401,9.90852631 5.85704553,9.09414557 6.86855469,9.09414557 C7.88006384,9.09414557 8.70016927,9.90852631 8.70016927,10.9129747" id="Fill-6266" fill="#21B2D1"></path>
                    <path d="M10.0738802,14.5506329 L10.0738802,13.7548952 C9.61597656,13.2433495 8.70016927,12.7318038 6.86855469,12.7318038 C5.0369401,12.7318038 4.12113281,13.2433495 3.66322917,13.7548952 L3.66322917,14.5506329 L10.0738802,14.5506329 Z" id="Fill-6267" fill="#21B2D1"></path>
                    <polygon id="Fill-6269" fill="#E2E4E5" points="25.6426042 14.5506329 12.8213021 14.5506329 12.8213021 8.18473101 25.6426042 8.18473101"></polygon>
                    <polygon id="Fill-6270" fill="#E2E4E5" points="25.6426042 20.0071203 12.8213021 20.0071203 12.8213021 16.8241693 25.6426042 16.8241693"></polygon>
                    <polygon id="Fill-6271" fill="#E2E4E5" points="25.6426042 25.9183149 12.8213021 25.9183149 12.8213021 21.8259494 25.6426042 21.8259494"></polygon>
                </g>
                <g id="Report" style="mix-blend-mode: multiply;" transform="translate(18.645000, 19.007077) rotate(-19.000000) translate(-18.645000, -19.007077) translate(3.992083, 4.456444)">
                    <path d="M25.6426042,0 C27.6665383,0 29.3058333,1.62785206 29.3058333,3.63765823 L29.3058333,25.4636076 C29.3058333,27.4734138 27.6665383,29.1012658 25.6426042,29.1012658 L3.66322917,29.1012658 C1.63929505,29.1012658 0,27.4734138 0,25.4636076 L0,3.63765823 C0,1.62785206 1.63929505,0 3.66322917,0 L25.6426042,0 Z" id="Fill-6259" fill="#F9F9F9"></path>
                    <path d="M25.6426042,0 L3.66322917,0 C1.64021086,0 0,1.62830676 0,3.63765823 L0,5.45648734 L29.3058333,5.45648734 L29.3058333,3.63765823 C29.3058333,1.62830676 27.6656225,0 25.6426042,0" id="Fill-6260" fill="#81B44C"></path>
                    <polygon id="Fill-6261" fill="#6FDAF1" points="10.0738802 14.5506329 3.66322917 14.5506329 3.66322917 8.18473101 10.0738802 8.18473101"></polygon>
                    <polygon id="Fill-6262" fill="#E2E4E5" points="10.0738802 17.2788766 3.66322917 17.2788766 3.66322917 16.369462 10.0738802 16.369462"></polygon>
                    <polygon id="Fill-6263" fill="#E2E4E5" points="10.0738802 19.552413 3.66322917 19.552413 3.66322917 18.6429984 10.0738802 18.6429984"></polygon>
                    <polygon id="Fill-6264" fill="#E2E4E5" points="10.0738802 21.8259494 3.66322917 21.8259494 3.66322917 20.9165348 10.0738802 20.9165348"></polygon>
                    <polygon id="Fill-6265" fill="#E2E4E5" points="7.78436198 24.0994858 3.66322917 24.0994858 3.66322917 23.1900712 7.78436198 23.1900712"></polygon>
                    <path d="M8.70016927,10.9129747 C8.70016927,11.9174231 7.88006384,12.7318038 6.86855469,12.7318038 C5.85704553,12.7318038 5.0369401,11.9174231 5.0369401,10.9129747 C5.0369401,9.90852631 5.85704553,9.09414557 6.86855469,9.09414557 C7.88006384,9.09414557 8.70016927,9.90852631 8.70016927,10.9129747" id="Fill-6266" fill="#21B2D1"></path>
                    <path d="M10.0738802,14.5506329 L10.0738802,13.7548952 C9.61597656,13.2433495 8.70016927,12.7318038 6.86855469,12.7318038 C5.0369401,12.7318038 4.12113281,13.2433495 3.66322917,13.7548952 L3.66322917,14.5506329 L10.0738802,14.5506329 Z" id="Fill-6267" fill="#21B2D1"></path>
                    <polygon id="Fill-6269" fill="#E2E4E5" points="25.6426042 14.5506329 12.8213021 14.5506329 12.8213021 8.18473101 25.6426042 8.18473101"></polygon>
                    <polygon id="Fill-6270" fill="#E2E4E5" points="25.6426042 20.0071203 12.8213021 20.0071203 12.8213021 16.8241693 25.6426042 16.8241693"></polygon>
                    <polygon id="Fill-6271" fill="#E2E4E5" points="25.6426042 25.9183149 12.8213021 25.9183149 12.8213021 21.8259494 25.6426042 21.8259494"></polygon>
                </g>
                <g id="Report" transform="translate(8.250835, 0.000000)">
                    <path d="M28.4298437,0 C30.6737707,0 32.49125,1.8047925 32.49125,4.03305586 L32.49125,28.231391 C32.49125,30.4596544 30.6737707,32.2644469 28.4298437,32.2644469 L4.06140625,32.2644469 C1.8174793,32.2644469 0,30.4596544 0,28.231391 L0,4.03305586 C0,1.8047925 1.8174793,0 4.06140625,0 L28.4298437,0 Z" id="Fill-6259" fill="#FFFFFF"></path>
                    <path d="M28.4298437,0 L4.06140625,0 C1.81849465,0 0,1.80529663 0,4.03305586 L0,6.04958379 L32.49125,6.04958379 L32.49125,4.03305586 C32.49125,1.80529663 30.6727554,0 28.4298437,0" id="Fill-6260" fill="#81B44C"></path>
                    <polygon id="Fill-6261" fill="#6FDAF1" points="11.1688672 16.1322234 4.06140625 16.1322234 4.06140625 9.07437569 11.1688672 9.07437569"></polygon>
                    <polygon id="Fill-6262" fill="#E2E4E5" points="11.1688672 19.1570153 4.06140625 19.1570153 4.06140625 18.1487514 11.1688672 18.1487514"></polygon>
                    <polygon id="Fill-6263" fill="#E2E4E5" points="11.1688672 21.6776753 4.06140625 21.6776753 4.06140625 20.6694113 11.1688672 20.6694113"></polygon>
                    <polygon id="Fill-6264" fill="#E2E4E5" points="11.1688672 24.1983352 4.06140625 24.1983352 4.06140625 23.1900712 11.1688672 23.1900712"></polygon>
                    <polygon id="Fill-6265" fill="#E2E4E5" points="8.63048828 26.7189951 4.06140625 26.7189951 4.06140625 25.7107311 8.63048828 25.7107311"></polygon>
                    <path d="M9.64583984,12.0991676 C9.64583984,13.2127951 8.73659252,14.1156955 7.61513672,14.1156955 C6.49368092,14.1156955 5.58443359,13.2127951 5.58443359,12.0991676 C5.58443359,10.98554 6.49368092,10.0826397 7.61513672,10.0826397 C8.73659252,10.0826397 9.64583984,10.98554 9.64583984,12.0991676" id="Fill-6266" fill="#21B2D1"></path>
                    <path d="M11.1688672,16.1322234 L11.1688672,15.2499925 C10.6611914,14.682844 9.64583984,14.1156955 7.61513672,14.1156955 C5.58443359,14.1156955 4.56908203,14.682844 4.06140625,15.2499925 L4.06140625,16.1322234 L11.1688672,16.1322234 Z" id="Fill-6267" fill="#21B2D1"></path>
                    <polygon id="Fill-6269" fill="#E2E4E5" points="28.4298437 16.1322234 14.2149219 16.1322234 14.2149219 9.07437569 28.4298437 9.07437569"></polygon>
                    <polygon id="Fill-6270" fill="#E2E4E5" points="28.4298437 22.1818072 14.2149219 22.1818072 14.2149219 18.6528834 28.4298437 18.6528834"></polygon>
                    <polygon id="Fill-6271" fill="#E2E4E5" points="28.4298437 28.735523 14.2149219 28.735523 14.2149219 24.1983352 28.4298437 24.1983352"></polygon>
                </g>
            </g>
        </g>
    </g>
</svg>