<?xml version="1.0" encoding="UTF-8"?>
<svg width="16px" height="16px" viewBox="0 0 16 16" version="1.1" xmlns="http://www.w3.org/2000/svg" xmlns:xlink="http://www.w3.org/1999/xlink">
    <!-- Generator: Sketch 44.1 (41455) - http://www.bohemiancoding.com/sketch -->
    <title>social</title>
    <desc>Created with Sketch.</desc>
    <defs></defs>
    <g id="Page-1" stroke="none" stroke-width="1" fill="none" fill-rule="evenodd">
        <g id="social" transform="translate(-1.000000, -1.000000)" fill="#D7D7D7">
            <path d="M14.055,11.168 C13.122,11.168 12.299,11.61 11.76,12.286 L6.766,9.754 C6.831,9.512 6.878,9.262 6.878,8.999 C6.878,8.713 6.822,8.444 6.744,8.181 L11.716,5.661 C12.251,6.367 13.097,6.828 14.055,6.828 C15.682,6.828 16.997,5.524 16.997,3.914 C16.997,2.304 15.682,0.999 14.055,0.999 C12.434,0.999 11.117,2.304 11.117,3.914 C11.117,4.177 11.164,4.427 11.231,4.67 L6.239,7.203 C5.699,6.525 4.874,6.083 3.937,6.083 C2.313,6.083 0.998,7.389 0.998,8.999 C0.998,10.609 2.313,11.914 3.937,11.914 C4.9,11.914 5.743,11.451 6.282,10.744 L11.252,13.264 C11.174,13.526 11.117,13.798 11.117,14.084 C11.117,15.694 12.434,16.999 14.055,16.999 C15.682,16.999 16.997,15.694 16.997,14.084 C16.997,12.473 15.682,11.168 14.055,11.168 Z"></path>
        </g>
    </g>
</svg>