<svg width="16" height="16" viewBox="0 0 16 16" version="1.1" xmlns="http://www.w3.org/2000/svg" xmlns:xlink="http://www.w3.org/1999/xlink"><title>social-white</title><desc>Created with Sketch.</desc><g id="Page-1" stroke="none" stroke-width="1" fill="none" fill-rule="evenodd"><path d="M14.055,11.169 C13.122,11.169 12.299,11.61 11.76,12.286 L6.766,9.754 C6.832,9.512 6.879,9.263 6.879,9 C6.879,8.714 6.822,8.444 6.745,8.182 L11.716,5.661 C12.251,6.368 13.098,6.829 14.055,6.829 C15.682,6.829 16.998,5.525 16.998,3.914 C16.998,2.304 15.682,0.999 14.055,0.999 C12.434,0.999 11.117,2.304 11.117,3.914 C11.117,4.178 11.164,4.428 11.231,4.671 L6.239,7.203 C5.7,6.526 4.875,6.084 3.937,6.084 C2.314,6.084 0.998,7.389 0.998,9 C0.998,10.609 2.314,11.915 3.937,11.915 C4.9,11.915 5.744,11.452 6.282,10.744 L11.252,13.264 C11.174,13.526 11.117,13.798 11.117,14.084 C11.117,15.695 12.434,17 14.055,17 C15.682,17 16.998,15.695 16.998,14.084 C16.998,12.473 15.682,11.169 14.055,11.169 Z" id="social-white" transform="translate(-1.000000, -1.000000)" fill="#FFF"/></g></svg>