<?xml version="1.0" encoding="UTF-8"?>
<svg width="34px" height="30px" viewBox="0 0 34 30" version="1.1" xmlns="http://www.w3.org/2000/svg" xmlns:xlink="http://www.w3.org/1999/xlink">
    <!-- Generator: Sketch 43.1 (39012) - http://www.bohemiancoding.com/sketch -->
    <title>Thumb</title>
    <desc>Created with Sketch.</desc>
    <defs></defs>
    <g id="Page-1" stroke="none" stroke-width="1" fill="none" fill-rule="evenodd">
        <g id="AccountModal-Stats3" transform="translate(-648.000000, -331.000000)">
            <g id="Thumb" transform="translate(648.000000, 331.000000)">
                <polygon id="Fill-5048" fill="#7FDCF8" points="27.3714075 29.3450321 33.751495 29.3450321 33.751495 14.0251176 27.3714075 14.0251176"></polygon>
                <path d="M31.6247992,26.1756059 C31.6247992,26.7593475 31.148951,27.2321517 30.5614512,27.2321517 C29.9739515,27.2321517 29.4981033,26.7593475 29.4981033,26.1756059 C29.4981033,25.5918643 29.9739515,25.1190601 30.5614512,25.1190601 C31.148951,25.1190601 31.6247992,25.5918643 31.6247992,26.1756059" id="Fill-5049" fill="#FFFFFF"></path>
                <path d="M27.3714075,14.5536018 C27.3714075,14.5536018 21.5229939,10.3274185 19.927972,2.93159771 C19.3962981,0.818506052 17.8012762,0.290233139 17.2696022,0.290233139 C16.7379282,0.290233139 14.6112324,-0.238039775 14.6112324,3.45987062 L14.6112324,10.8556914 L3.72839808,10.8556914 C3.54337554,10.8556914 3.36154305,10.9037642 3.20097751,10.9946272 L0.713275044,12.407229 C0.457539869,12.552504 0.274112352,12.7965661 0.206058085,13.0818335 C0.138535492,13.3665726 0.192766236,13.6671599 0.356521816,13.9106937 L1.50865929,15.6281089 C1.72026553,15.9434878 1.74578588,16.3476166 1.57511854,16.6867678 L0.550051138,18.7237882 C0.369813665,19.0819572 0.408625864,19.5103865 0.650537517,19.8305199 L1.45655524,20.8986878 C1.6984669,21.2188211 1.73727909,21.6472505 1.55704162,22.0054195 L1.04876131,23.0154773 C0.886069082,23.3387804 0.900955953,23.7217782 1.08810519,24.0313461 L2.1312495,25.7587986 C2.29075169,26.0234633 2.32637384,26.344125 2.22801416,26.6367881 L2.0270414,27.2353214 C1.91698489,27.5639071 1.9760007,27.9257741 2.18548024,28.2031173 L3.12707483,29.450898 C3.32804759,29.7171475 3.64333025,29.8735163 3.97775317,29.8735163 L16.0940711,29.8735163 C16.5140935,29.8735163 16.9245458,29.7499004 17.2738556,29.5185169 L19.3920447,28.115424 C19.7413545,27.8840405 20.1518068,27.7604246 20.5718292,27.7604246 L27.3714075,27.7604246 L27.3714075,14.5536018 Z" id="Fill-5050" fill="#0484AB"></path>
                <path d="M19.927972,2.93154488 C19.3962981,0.818453225 17.8012762,0.290180311 17.2696022,0.290180311 C16.7379282,0.290180311 14.6112324,-0.238092602 14.6112324,3.45981779 L14.6112324,10.8556386 L3.72839808,10.8556386 C3.54337554,10.8556386 3.36154305,10.9037114 3.20097751,10.9951026 L0.713275044,12.4071761 C0.457539869,12.5524512 0.274112352,12.7970415 0.206058085,13.0817806 C0.138535492,13.3665197 0.192766236,13.667107 0.356521816,13.9106408 L1.50865929,15.6280561 C1.72026553,15.9439633 1.74578588,16.3475638 1.57511854,16.686715 L0.550051138,18.7242636 C0.369813665,19.0819044 0.408625864,19.5103337 0.650537517,19.8304671 L1.45655524,20.8986349 C1.6984669,21.2187683 1.73727909,21.6471977 1.55704162,22.0053667 L1.04876131,23.0154245 C0.886069082,23.3387275 0.900955953,23.7217254 1.08810519,24.0312933 L2.1312495,25.7587457 C2.29075169,26.0234105 2.32637384,26.3440721 2.22801416,26.6367353 L2.02757308,27.2352685 C1.91698489,27.5638543 1.9760007,27.9257212 2.18548024,28.2030645 L3.12707483,29.4508451 C3.31050235,29.6938507 3.59016285,29.8385974 3.89162199,29.8634263 L23.4178799,10.4620753 C22.0030955,8.55553831 20.5941595,6.02141315 19.927972,2.93154488" id="Fill-5051" fill="#2DA9CF"></path>
            </g>
        </g>
    </g>
</svg>
