<svg 
 xmlns="http://www.w3.org/2000/svg"
 xmlns:xlink="http://www.w3.org/1999/xlink"
 width="11px" height="14px">
<path fill-rule="evenodd"  fill="rgb(245, 196, 25)"
 d="M1.130,14.000 L9.864,14.000 C10.489,14.000 10.998,13.503 10.998,12.891 L10.998,6.774 C10.998,6.162 10.489,5.665 9.864,5.665 L9.834,5.665 L9.834,4.202 C9.834,1.885 7.904,-0.001 5.533,-0.001 C3.162,-0.001 1.231,1.885 1.231,4.202 L1.231,5.665 L1.134,5.665 C0.506,5.665 -0.001,6.162 -0.001,6.774 L-0.001,12.891 C-0.004,13.503 0.504,14.000 1.130,14.000 ZM3.113,4.202 C3.113,2.899 4.196,1.837 5.533,1.837 C6.867,1.837 7.955,2.897 7.955,4.202 L7.955,5.665 L3.113,5.665 L3.113,4.202 Z"/>
</svg>