<?xml version="1.0" encoding="UTF-8"?>
<svg width="11px" height="14px" viewBox="0 0 11 14" version="1.1" xmlns="http://www.w3.org/2000/svg" xmlns:xlink="http://www.w3.org/1999/xlink">
    <!-- Generator: Sketch 44.1 (41455) - http://www.bohemiancoding.com/sketch -->
    <title>tiny-lock</title>
    <desc>Created with Sketch.</desc>
    <defs></defs>
    <g id="Page-1" stroke="none" stroke-width="1" fill="none" fill-rule="evenodd">
        <g id="tiny-lock" transform="translate(-1.000000, -1.000000)" fill="#F5C419">
            <path d="M2.13,15 L10.864,15 C11.489,15 11.998,14.503 11.998,13.891 L11.998,7.774 C11.998,7.162 11.489,6.665 10.864,6.665 L10.834,6.665 L10.834,5.202 C10.834,2.885 8.904,0.999 6.533,0.999 C4.162,0.999 2.231,2.885 2.231,5.202 L2.231,6.665 L2.134,6.665 C1.506,6.665 0.999,7.162 0.999,7.774 L0.999,13.891 C0.996,14.503 1.504,15 2.13,15 Z M4.113,5.202 C4.113,3.899 5.196,2.837 6.533,2.837 C7.867,2.837 8.955,3.897 8.955,5.202 L8.955,6.665 L4.113,6.665 L4.113,5.202 Z"></path>
        </g>
    </g>
</svg>