<?xml version="1.0" encoding="utf-8"?>
<!-- Generator: Adobe Illustrator 19.2.1, SVG Export Plug-In . SVG Version: 6.00 Build 0)  -->
<svg version="1.1" id="Layer_1" xmlns="http://www.w3.org/2000/svg" xmlns:xlink="http://www.w3.org/1999/xlink" x="0px" y="0px"
	 viewBox="0 0 128 128" style="enable-background:new 0 0 128 128;" xml:space="preserve">
<style type="text/css">
	.st0{fill:#F5C419;}
	
		.st1{opacity:0.4;fill:none;stroke:#FFFFFF;stroke-width:8;stroke-linecap:round;stroke-linejoin:round;stroke-miterlimit:10;enable-background:new    ;}
	.st2{fill:none;stroke:#4A3B8F;stroke-width:2;stroke-linecap:round;stroke-linejoin:round;stroke-miterlimit:10;}
	.st3{opacity:0.2;fill:#242C88;enable-background:new    ;}
	.st4{clip-path:url(#SVGID_2_);fill:#FFFFFF;}
	
		.st5{clip-path:url(#SVGID_4_);fill:none;stroke:#4A3B8F;stroke-width:2;stroke-linecap:round;stroke-linejoin:round;stroke-miterlimit:10;}
	.st6{opacity:0.2;clip-path:url(#SVGID_6_);fill:#242C88;enable-background:new    ;}
	.st7{clip-path:url(#SVGID_8_);fill:#FFFFFF;}
	
		.st8{clip-path:url(#SVGID_10_);fill:none;stroke:#4A3B8F;stroke-width:2;stroke-linecap:round;stroke-linejoin:round;stroke-miterlimit:10;}
	
		.st9{opacity:0.2;clip-path:url(#SVGID_12_);fill:none;stroke:#242C88;stroke-width:2;stroke-linecap:round;stroke-linejoin:round;stroke-miterlimit:10;enable-background:new    ;}
	
		.st10{opacity:0.2;clip-path:url(#SVGID_14_);fill:none;stroke:#242C88;stroke-width:2;stroke-linecap:round;stroke-linejoin:round;stroke-miterlimit:10;enable-background:new    ;}
	
		.st11{opacity:0.2;clip-path:url(#SVGID_16_);fill:none;stroke:#242C88;stroke-width:2;stroke-linecap:round;stroke-linejoin:round;stroke-miterlimit:10;enable-background:new    ;}
	
		.st12{opacity:0.2;clip-path:url(#SVGID_18_);fill:none;stroke:#242C88;stroke-width:2;stroke-linecap:round;stroke-linejoin:round;stroke-miterlimit:10;enable-background:new    ;}
	
		.st13{opacity:0.2;clip-path:url(#SVGID_20_);fill:none;stroke:#242C88;stroke-width:2;stroke-linecap:round;stroke-linejoin:round;stroke-miterlimit:10;enable-background:new    ;}
</style>
<path class="st0" d="M109.1,46.7L66.6,14c-1.7-1.3-4.2-1.3-5.9,0L18.1,46.7c-1.2,0.9-1.9,2.3-1.9,3.9v59.6c0,2.7,2.2,4.9,4.9,4.9h85
	c2.7,0,4.9-2.2,4.9-4.9V50.6C111,49.1,110.3,47.6,109.1,46.7z"/>
<line class="st1" x1="17.4" y1="55.4" x2="75.4" y2="96"/>
<path class="st2" d="M109.1,46.7L66.6,14c-1.7-1.3-4.2-1.3-5.9,0L18.1,46.7c-1.2,0.9-1.9,2.3-1.9,3.9v59.6c0,2.7,2.2,4.9,4.9,4.9h85
	c2.7,0,4.9-2.2,4.9-4.9V50.6C111,49.1,110.3,47.6,109.1,46.7z"/>
<path class="st3" d="M63.6,81.6l47-33c-0.3-0.7-0.8-1.4-1.5-1.9L66.6,14c-1.7-1.3-4.2-1.3-5.9,0L18.1,46.7c-0.7,0.5-1.2,1.2-1.5,2
	L63.6,81.6z"/>
<g>
	<g>
		<defs>
			<path id="SVGID_1_" d="M63.6,81.6l47-33c-0.3-0.7-0.8-1.4-1.5-1.9L111,13c-1.7-1.3-91.3-1.3-93,0l0.1,33.7
				c-0.7,0.5-1.2,1.2-1.5,2L63.6,81.6z"/>
		</defs>
		<clipPath id="SVGID_2_">
			<use xlink:href="#SVGID_1_"  style="overflow:visible;"/>
		</clipPath>
		<rect x="22" y="20" class="st4" width="72" height="49"/>
	</g>
	<g>
		<defs>
			<path id="SVGID_3_" d="M63.6,81.6l47-33c-0.3-0.7-0.8-1.4-1.5-1.9L111,13c-1.7-1.3-91.3-1.3-93,0l0.1,33.7
				c-0.7,0.5-1.2,1.2-1.5,2L63.6,81.6z"/>
		</defs>
		<clipPath id="SVGID_4_">
			<use xlink:href="#SVGID_3_"  style="overflow:visible;"/>
		</clipPath>
		<rect x="22" y="20" class="st5" width="72" height="49"/>
	</g>
	<g>
		<defs>
			<path id="SVGID_5_" d="M63.6,81.6l47-33c-0.3-0.7-0.8-1.4-1.5-1.9L111,13c-1.7-1.3-91.3-1.3-93,0l0.1,33.7
				c-0.7,0.5-1.2,1.2-1.5,2L63.6,81.6z"/>
		</defs>
		<clipPath id="SVGID_6_">
			<use xlink:href="#SVGID_5_"  style="overflow:visible;"/>
		</clipPath>
		<path class="st6" d="M94,69V25H31c-1.1,0-2,0.9-2,2v42H94z"/>
	</g>
	<g>
		<defs>
			<path id="SVGID_7_" d="M63.6,81.6l47-33c-0.3-0.7-0.8-1.4-1.5-1.9L111,13c-1.7-1.3-91.3-1.3-93,0l0.1,33.7
				c-0.7,0.5-1.2,1.2-1.5,2L63.6,81.6z"/>
		</defs>
		<clipPath id="SVGID_8_">
			<use xlink:href="#SVGID_7_"  style="overflow:visible;"/>
		</clipPath>
		<rect x="34" y="30" class="st7" width="72" height="58"/>
	</g>
	<g>
		<defs>
			<path id="SVGID_9_" d="M63.6,81.6l47-33c-0.3-0.7-0.8-1.4-1.5-1.9L111,13c-1.7-1.3-91.3-1.3-93,0l0.1,33.7
				c-0.7,0.5-1.2,1.2-1.5,2L63.6,81.6z"/>
		</defs>
		<clipPath id="SVGID_10_">
			<use xlink:href="#SVGID_9_"  style="overflow:visible;"/>
		</clipPath>
		<rect x="34" y="30" class="st8" width="72" height="58"/>
	</g>
	<g>
		<defs>
			<path id="SVGID_11_" d="M63.6,81.6l47-33c-0.3-0.7-0.8-1.4-1.5-1.9L111,13c-1.7-1.3-91.3-1.3-93,0l0.1,33.7
				c-0.7,0.5-1.2,1.2-1.5,2L63.6,81.6z"/>
		</defs>
		<clipPath id="SVGID_12_">
			<use xlink:href="#SVGID_11_"  style="overflow:visible;"/>
		</clipPath>
		<line class="st9" x1="49" y1="53" x2="91" y2="53"/>
	</g>
	<g>
		<defs>
			<path id="SVGID_13_" d="M63.6,81.6l47-33c-0.3-0.7-0.8-1.4-1.5-1.9L111,13c-1.7-1.3-91.3-1.3-93,0l0.1,33.7
				c-0.7,0.5-1.2,1.2-1.5,2L63.6,81.6z"/>
		</defs>
		<clipPath id="SVGID_14_">
			<use xlink:href="#SVGID_13_"  style="overflow:visible;"/>
		</clipPath>
		<line class="st10" x1="49" y1="47" x2="91" y2="47"/>
	</g>
	<g>
		<defs>
			<path id="SVGID_15_" d="M63.6,81.6l47-33c-0.3-0.7-0.8-1.4-1.5-1.9L111,13c-1.7-1.3-91.3-1.3-93,0l0.1,33.7
				c-0.7,0.5-1.2,1.2-1.5,2L63.6,81.6z"/>
		</defs>
		<clipPath id="SVGID_16_">
			<use xlink:href="#SVGID_15_"  style="overflow:visible;"/>
		</clipPath>
		<line class="st11" x1="49" y1="65" x2="91" y2="65"/>
	</g>
	<g>
		<defs>
			<path id="SVGID_17_" d="M63.6,81.6l47-33c-0.3-0.7-0.8-1.4-1.5-1.9L111,13c-1.7-1.3-91.3-1.3-93,0l0.1,33.7
				c-0.7,0.5-1.2,1.2-1.5,2L63.6,81.6z"/>
		</defs>
		<clipPath id="SVGID_18_">
			<use xlink:href="#SVGID_17_"  style="overflow:visible;"/>
		</clipPath>
		<line class="st12" x1="49" y1="71" x2="70" y2="71"/>
	</g>
	<g>
		<defs>
			<path id="SVGID_19_" d="M63.6,81.6l47-33c-0.3-0.7-0.8-1.4-1.5-1.9L111,13c-1.7-1.3-91.3-1.3-93,0l0.1,33.7
				c-0.7,0.5-1.2,1.2-1.5,2L63.6,81.6z"/>
		</defs>
		<clipPath id="SVGID_20_">
			<use xlink:href="#SVGID_19_"  style="overflow:visible;"/>
		</clipPath>
		<line class="st13" x1="49" y1="59" x2="91" y2="59"/>
	</g>
</g>
<line class="st2" x1="17.4" y1="49.4" x2="78.2" y2="91.9"/>
<line class="st2" x1="109.8" y1="49.4" x2="63.6" y2="81.6"/>
</svg>
