<?xml version="1.0" encoding="UTF-8"?>
<svg width="34px" height="34px" viewBox="0 0 34 34" version="1.1" xmlns="http://www.w3.org/2000/svg" xmlns:xlink="http://www.w3.org/1999/xlink">
    <!-- Generator: Sketch 40.3 (33839) - http://www.bohemiancoding.com/sketch -->
    <title>Mark</title>
    <desc>Created with Sketch.</desc>
    <defs></defs>
    <g id="TownPage" stroke="none" stroke-width="1" fill="none" fill-rule="evenodd">
        <g id="NeighborWho-TownPage" transform="translate(-13.000000, -9.000000)">
            <g id="SideNav">
                <g id="Mark" transform="translate(14.000000, 10.000000)">
                    <polygon id="Fill-1" fill="#FACB1B" points="31.8241758 31.8241758 24.7912088 31.8241758 24.7912088 3.69230769 28.3076923 0.175824176 31.8241758 3.69230769"></polygon>
                    <polygon id="Stroke-2" stroke="#000000" stroke-width="2" stroke-linecap="round" stroke-linejoin="round" points="31.8241758 31.8241758 24.7912088 31.8241758 24.7912088 3.69230769 28.3076923 0.175824176 31.8241758 3.69230769"></polygon>
                    <polygon id="Fill-4" fill="#FACB1B" points="31.8241758 31.8241758 24.7912088 31.8241758 12.4835165 3.69230769 16 0.175824176 19.5164835 3.69230769"></polygon>
                    <polygon id="Stroke-5" stroke="#000000" stroke-width="2" stroke-linecap="round" stroke-linejoin="round" points="31.8241758 31.8241758 24.7912088 31.8241758 12.4835165 3.69230769 16 0.175824176 19.5164835 3.69230769"></polygon>
                    <polygon id="Fill-7" fill="#FACB1B" points="19.5164835 31.8241758 12.4835165 31.8241758 12.4835165 3.69230769 16 0.175824176 19.5164835 3.69230769"></polygon>
                    <polygon id="Stroke-8" stroke="#000000" stroke-width="2" stroke-linecap="round" stroke-linejoin="round" points="19.5164835 31.8241758 12.4835165 31.8241758 12.4835165 3.69230769 16 0.175824176 19.5164835 3.69230769"></polygon>
                    <polygon id="Fill-10" fill="#FACB1B" points="19.5164835 31.8241758 12.4835165 31.8241758 0.175824176 3.69230769 3.69230769 0.175824176 7.20879121 3.69230769"></polygon>
                    <polygon id="Stroke-11" stroke="#000000" stroke-width="2" stroke-linecap="round" stroke-linejoin="round" points="19.5164835 31.8241758 12.4835165 31.8241758 0.175824176 3.69230769 3.69230769 0.175824176 7.20879121 3.69230769"></polygon>
                    <polygon id="Fill-13" fill="#FACB1B" points="7.20879121 31.8241758 0.175824176 31.8241758 0.175824176 3.69230769 3.69230769 0.175824176 7.20879121 3.69230769"></polygon>
                    <polygon id="Stroke-14" stroke="#000000" stroke-width="2" stroke-linecap="round" stroke-linejoin="round" points="7.20879121 31.8241758 0.175824176 31.8241758 0.175824176 3.69230769 3.69230769 0.175824176 7.20879121 3.69230769"></polygon>
                </g>
            </g>
        </g>
    </g>
</svg>