<?xml version="1.0" encoding="utf-8"?>
<!-- Generator: Adobe Illustrator 16.0.0, SVG Export Plug-In . SVG Version: 6.00 Build 0)  -->
<!DOCTYPE svg PUBLIC "-//W3C//DTD SVG 1.1//EN" "http://www.w3.org/Graphics/SVG/1.1/DTD/svg11.dtd">
<svg version="1.1" id="Layer_1" xmlns="http://www.w3.org/2000/svg" xmlns:xlink="http://www.w3.org/1999/xlink" x="0px" y="0px"
	 width="146.104px" height="20.954px" viewBox="0.815 2.121 146.104 20.954" enable-background="new 0.815 2.121 146.104 20.954"
	 xml:space="preserve">
<g id="OVsvDd_1_" display="none">
</g>
<g display="none">
	<g display="inline">
		<g display="none">
			<path display="inline" fill="#121212" d="M36.976,30.574L25.962,19.141l-2.182,2.186l11.011,11.433
				c0.604,0.604,1.582,0.604,2.185,0C37.579,32.156,37.579,31.176,36.976,30.574z"/>
			<g display="inline">
				<path fill="#121212" d="M29.991,15.165c0-5.498-4.458-9.955-9.955-9.955c-5.498,0-9.955,4.457-9.955,9.955
					c0,3.647,1.969,6.831,4.896,8.563c0.587-0.762,1.097-1.619,1.448-2.498c-2.037-1.215-3.408-3.436-3.408-5.981
					c0-3.847,3.12-6.965,6.966-6.965c3.847,0,6.966,3.118,6.966,6.965c0,2.911-1.788,5.405-4.325,6.446
					c-0.644,1.135-1.438,2.285-2.355,3.41C25.658,24.98,29.991,20.586,29.991,15.165z"/>
			</g>
		</g>
		<g display="none">
			<path display="inline" fill="#6DAD47" d="M6.367,25.555c-0.395-0.396-1.29,0.158-3.017,1.896
				c-1.866,1.846-3.122,3.022-2.254,3.894c0.232,0.23,0.808,0.758,1.06,0.928l5.442-5.443C7.241,26.467,6.709,25.877,6.367,25.555z"
				/>
		</g>
		<g display="none">
			<path display="inline" fill="#6DAD47" d="M15.925,15.997c-0.399-0.396,0.158-1.288,1.893-3.017
				c1.84-1.865,3.024-3.123,3.891-2.254c0.232,0.233,0.757,0.808,0.927,1.061l-5.442,5.441
				C16.836,16.871,16.248,16.341,15.925,15.997z"/>
		</g>
		<g display="none">
			<path display="inline" fill="#6DAD47" d="M23.369,12.515l-5.506,5.506c0.702,2.176-0.85,5.164-2.676,6.984
				c-1.821,1.824-4.468,3.034-6.643,2.334L3.04,32.848c3.381,1.482,9.676-1.771,14.413-6.507
				C22.186,21.604,24.853,15.898,23.369,12.515z"/>
		</g>
	</g>
</g>
<g display="none">
	<path display="inline" fill="#02458B" d="M53.421,31.07c-1.082,0-1.75-0.063-2.005-0.191c-0.254-0.127-0.542-0.551-0.86-1.273
		l-4.298-9.422h-1.687l0.127,0.795v8.627h0.032c0,0.725-0.08,1.146-0.239,1.273c-0.159,0.128-0.695,0.191-1.608,0.191h-0.191V8.085
		l3.629-0.319c2.208,0,3.629,0.425,4.266,1.274c0.255,0.339,0.446,0.636,0.574,0.891c0.127,0.254,0.223,0.647,0.286,1.178
		c0.084,0.701,0.127,1.555,0.127,2.562c0,1.008-0.016,1.772-0.048,2.292c-0.032,0.521-0.111,1.062-0.238,1.624
		s-0.308,1.003-0.542,1.321c-0.531,0.742-1.358,1.156-2.483,1.24l5.284,10.92h-0.126V31.07L53.421,31.07z M46.322,18.368
		c1.083,0,1.921-0.202,2.515-0.604c0.36-0.274,0.574-0.977,0.637-2.102c0.021-0.339,0.032-0.901,0.032-1.687
		c0-0.786-0.01-1.348-0.032-1.688c-0.021-0.339-0.08-0.731-0.175-1.178c-0.096-0.446-0.25-0.753-0.462-0.923
		c-0.594-0.403-1.433-0.605-2.515-0.605h-1.624v7.991l-0.127,0.796H46.322z"/>
	<path display="inline" fill="#02458B" d="M63.353,30.751c-1.634,0.36-2.775,0.541-3.422,0.541s-1.146-0.015-1.496-0.047
		c-0.351-0.032-0.668-0.117-0.955-0.255c-0.286-0.137-0.536-0.254-0.748-0.35c-0.213-0.098-0.403-0.287-0.573-0.574
		c-0.17-0.287-0.308-0.521-0.414-0.7c-0.106-0.181-0.19-0.494-0.255-0.939c-0.063-0.446-0.116-0.806-0.159-1.083
		c-0.042-0.275-0.075-0.727-0.096-1.353c-0.022-0.625-0.031-1.13-0.031-1.513V20.88c0-1.399,0.031-2.31,0.094-2.722
		c0.064-0.414,0.128-0.854,0.191-1.322c0.064-0.466,0.149-0.8,0.255-1.002s0.244-0.451,0.414-0.748
		c0.17-0.297,0.36-0.504,0.573-0.621c0.211-0.117,0.461-0.244,0.748-0.382s0.604-0.228,0.955-0.271
		c0.35-0.042,0.749-0.063,1.194-0.063c0.446,0,0.849,0.032,1.209,0.096c0.361,0.063,0.663,0.19,0.908,0.382
		c0.244,0.191,0.457,0.371,0.637,0.541c0.18,0.17,0.329,0.445,0.445,0.83c0.117,0.381,0.207,0.704,0.271,0.971
		c0.063,0.266,0.111,0.68,0.144,1.24c0.031,0.562,0.047,1.015,0.047,1.354v1.654l0.127,1.721l-6.495,0.158l0.127,0.797
		c0,2.716,0.106,4.287,0.318,4.711c0.339,0.699,0.732,1.104,1.178,1.21c0.297,0.085,0.876,0.127,1.735,0.127
		c0.859,0,1.883-0.14,3.072-0.415v1.625L63.353,30.751L63.353,30.751z M57.241,18.463c0,0.383,0,0.956,0,1.719l-0.127,0.797h4.52
		l-0.159-0.83c0-1.695-0.117-2.905-0.35-3.629c-0.234-0.721-0.759-1.082-1.576-1.082c-0.817,0-1.396,0.219-1.735,0.652
		C57.474,16.527,57.283,17.316,57.241,18.463z"/>
	<path display="inline" fill="#02458B" d="M74.272,14.611c0,1.083-1.03,6.569-3.088,16.458h-2.77l-3.247-17.092
		c0.891,0,1.433,0.063,1.624,0.19c0.191,0.128,0.35,0.553,0.478,1.273l2.324,13.082h0.414l2.611-14.545
		c0.997,0,1.528,0.096,1.591,0.286C74.251,14.325,74.272,14.441,74.272,14.611z"/>
	<path display="inline" fill="#02458B" d="M84.364,30.751c-1.635,0.36-2.775,0.541-3.422,0.541c-0.648,0-1.146-0.015-1.496-0.047
		c-0.351-0.032-0.668-0.117-0.956-0.255c-0.286-0.137-0.536-0.254-0.748-0.35c-0.212-0.098-0.403-0.287-0.573-0.574
		s-0.308-0.521-0.415-0.7c-0.106-0.181-0.19-0.494-0.254-0.939c-0.063-0.446-0.117-0.806-0.159-1.083
		c-0.042-0.275-0.075-0.727-0.096-1.353c-0.021-0.625-0.031-1.13-0.031-1.513V20.88c0-1.399,0.031-2.31,0.095-2.722
		c0.064-0.414,0.128-0.854,0.191-1.322c0.064-0.466,0.148-0.8,0.254-1.002s0.244-0.451,0.415-0.748
		c0.169-0.297,0.36-0.504,0.573-0.621c0.211-0.117,0.462-0.244,0.748-0.382c0.287-0.138,0.605-0.228,0.956-0.271
		c0.35-0.042,0.748-0.063,1.193-0.063c0.446,0,0.849,0.032,1.21,0.096c0.361,0.063,0.664,0.19,0.907,0.382
		C83,14.42,83.213,14.6,83.393,14.77c0.179,0.17,0.329,0.445,0.445,0.828c0.117,0.381,0.208,0.707,0.271,0.971
		c0.064,0.268,0.112,0.682,0.144,1.242c0.031,0.562,0.047,1.015,0.047,1.354v1.654l0.127,1.721l-6.494,0.159l0.127,0.796
		c0,2.716,0.106,4.287,0.318,4.711c0.339,0.699,0.732,1.104,1.178,1.21c0.297,0.085,0.875,0.127,1.735,0.127s1.883-0.14,3.072-0.415
		L84.364,30.751L84.364,30.751z M78.252,18.463c0,0.383,0,0.956,0,1.719l-0.127,0.797h4.521l-0.159-0.83
		c0-1.695-0.117-2.905-0.35-3.629c-0.234-0.721-0.759-1.082-1.576-1.082s-1.396,0.219-1.735,0.652
		C78.485,16.527,78.294,17.316,78.252,18.463z"/>
	<path display="inline" fill="#02458B" d="M87.452,29.605v-15.63c0.934,0,1.48,0.037,1.64,0.111
		c0.159,0.075,0.239,0.355,0.239,0.844v0.351l2.547-1.528c0.36,0,0.891,0.074,1.591,0.223c0,0.743-0.069,1.172-0.206,1.29
		c-0.139,0.115-0.6,0.174-1.385,0.174l-2.706,1.496l0.159,0.797V31.07c-0.934,0-1.48-0.063-1.639-0.191
		C87.532,30.751,87.452,30.328,87.452,29.605z"/>
	<path display="inline" fill="#02458B" d="M101.778,30.243c-0.254,0.317-0.595,0.557-1.019,0.716
		c-0.425,0.159-0.944,0.239-1.56,0.239c-0.616,0-1.878-0.159-3.788-0.479v-1.687c0.084,0,0.621,0.052,1.608,0.157
		s1.724,0.16,2.212,0.16c1.188,0,1.782-1.104,1.782-3.312c0-0.146,0-0.297,0-0.446c-0.021-0.679-0.679-1.512-1.974-2.499
		c-1.294-0.984-2.25-1.851-2.865-2.595c-0.616-0.742-0.923-1.496-0.923-2.261c0-0.764,0.011-1.295,0.032-1.592
		s0.095-0.67,0.223-1.113c0.127-0.446,0.318-0.764,0.573-0.955c0.657-0.53,1.655-0.796,2.992-0.796l3.024,0.446
		c0,0.934-0.383,1.4-1.146,1.4c-0.148,0-0.297-0.01-0.446-0.03l-1.305-0.191c-1.04,0-1.676,0.234-1.91,0.701
		c-0.191,0.401-0.287,0.992-0.287,1.767s0.828,1.819,2.483,3.135c0.764,0.573,1.342,1.03,1.735,1.369
		c0.393,0.34,0.775,0.785,1.146,1.337c0.371,0.553,0.557,1.087,0.557,1.607c0,0.52-0.011,0.966-0.031,1.337
		c-0.021,0.372-0.069,0.812-0.144,1.321c-0.074,0.51-0.19,0.934-0.35,1.271C102.239,29.596,102.032,29.924,101.778,30.243z"/>
	<path display="inline" fill="#02458B" d="M113.843,30.751c-1.634,0.36-2.774,0.541-3.421,0.541c-0.648,0-1.146-0.015-1.497-0.047
		s-0.668-0.117-0.956-0.255c-0.285-0.137-0.535-0.254-0.748-0.35c-0.212-0.098-0.402-0.287-0.572-0.574
		c-0.172-0.287-0.31-0.521-0.416-0.7c-0.104-0.181-0.188-0.494-0.254-0.939c-0.062-0.446-0.117-0.806-0.16-1.083
		c-0.041-0.275-0.072-0.727-0.096-1.353c-0.021-0.625-0.031-1.13-0.031-1.513V20.88c0-1.399,0.031-2.31,0.097-2.722
		c0.062-0.414,0.127-0.854,0.188-1.322c0.064-0.466,0.149-0.8,0.256-1.002c0.105-0.202,0.244-0.451,0.414-0.748
		s0.36-0.504,0.574-0.621c0.211-0.117,0.461-0.244,0.747-0.382c0.287-0.138,0.605-0.228,0.956-0.271
		c0.35-0.042,0.748-0.063,1.193-0.063s0.849,0.032,1.209,0.096c0.361,0.063,0.664,0.19,0.908,0.382
		c0.244,0.191,0.457,0.371,0.637,0.541s0.329,0.445,0.445,0.83c0.117,0.381,0.207,0.704,0.271,0.971
		c0.063,0.266,0.112,0.68,0.144,1.24c0.031,0.562,0.047,1.015,0.047,1.354v1.654l0.131,1.721l-6.494,0.158l0.127,0.797
		c0,2.716,0.104,4.287,0.316,4.711c0.341,0.699,0.732,1.104,1.18,1.21c0.297,0.085,0.875,0.127,1.734,0.127
		c0.858,0,1.883-0.14,3.07-0.415L113.843,30.751L113.843,30.751L113.843,30.751z M107.73,18.463c0,0.383,0,0.956,0,1.719
		l-0.127,0.797h4.521l-0.159-0.83c0-1.695-0.115-2.905-0.35-3.629c-0.234-0.721-0.76-1.082-1.576-1.082s-1.396,0.219-1.734,0.652
		C107.964,16.527,107.773,17.316,107.73,18.463z"/>
	<path display="inline" fill="#02458B" d="M117.631,31.07h-0.699V8.119l5.156-0.35c6.207,0,6.207,2.546,6.207,6.494
		c0,3.917-0.062,6.43-6.175,6.43h-2.196v8.435C119.923,31.07,119.923,31.07,117.631,31.07z M122.119,17.859
		c3.087,0,3.087-1.02,3.087-3.596c0-2.61,0-3.661-3.087-3.661h-2.451l0.255,0.796v5.73l-0.255,0.731H122.119z"/>
	<path display="inline" fill="#02458B" d="M134.312,29.16c0,1.91,0,1.91-2.834,1.91V8.151c2.801,0,2.801,0,2.801,1.942v4.52
		l2.48-0.859c4.616,0,4.616,2.546,4.616,8.85v8.467c-2.866,0-2.866,0-2.866-1.908V22.57c0-3.881,0-6.047-1.558-6.11l-2.933,0.858
		l0.289,0.893V29.16H134.312z"/>
	<path display="inline" fill="#02458B" d="M148.988,13.754c4.933,0,4.933,2.387,4.933,8.689c0,6.302-0.03,8.85-4.933,8.85
		c-4.872,0-4.902-2.516-4.902-8.85C144.085,16.109,144.116,13.754,148.988,13.754z M146.917,22.443c0,4.394,0,6.144,2.069,6.144
		c2.068,0,2.068-1.75,2.068-6.144c0-4.328,0-5.984-2.068-5.984C146.917,16.459,146.917,18.115,146.917,22.443z"/>
	<path display="inline" fill="#02458B" d="M159.62,31.07c-2.832,0-2.832,0-2.832-1.91V13.977c2.291,0,2.771,0,2.832,0.668
		l2.354-0.891c4.521,0,4.68,0.955,4.68,8.85v8.467c-2.864,0-2.864,0-2.864-1.908V22.57c0-5.125,0.317-6.047-1.529-6.11l-2.928,0.858
		l0.287,0.893V31.07L159.62,31.07z"/>
	<path display="inline" fill="#02458B" d="M171.973,22.953l0.256,0.732c0,3.852,0,4.899,2.102,4.899
		c1.562,0,2.834-0.095,4.395-0.315v2.479c-1.561,0.287-2.803,0.541-4.395,0.541c-4.838,0-4.936-2.354-4.936-8.021
		c0-6.973-0.351-9.52,4.936-9.52c4.139,0,4.457,2.93,4.488,6.875l0.096,2.165L171.973,22.953z M172.132,20.215h4.17l-0.317-0.701
		c-0.031-2.164-0.223-3.056-1.654-3.056c-1.75,0-1.938,0.573-1.938,3.056L172.132,20.215z"/>
	<path display="inline" fill="#121212" d="M189.991,31.07h-7.927V8.149h0.254c0.912,0,1.447,0.063,1.605,0.191
		c0.158,0.127,0.24,0.552,0.24,1.273v18.846l-0.129,0.796h4.105c0.912,0,1.446,0.063,1.606,0.19
		c0.157,0.128,0.237,0.553,0.237,1.271v0.354H189.991z"/>
	<path display="inline" fill="#121212" d="M198.777,30.927c-0.299,0.097-0.446,0.144-0.446,0.144s-0.187,0.037-0.558,0.111
		c-0.373,0.074-0.815,0.111-1.338,0.111c-0.521,0-0.985-0.031-1.399-0.095c-0.414-0.064-0.772-0.201-1.08-0.414
		c-0.312-0.212-0.563-0.409-0.767-0.589c-0.205-0.18-0.371-0.504-0.51-0.973c-0.141-0.468-0.242-0.858-0.318-1.179
		c-0.075-0.315-0.127-0.844-0.159-1.576c-0.029-0.729-0.054-1.329-0.062-1.798c-0.015-0.467-0.019-1.209-0.019-2.229
		c0-1.021,0.004-1.756,0.019-2.213c0.01-0.455,0.03-1.049,0.062-1.783c0.032-0.731,0.084-1.252,0.159-1.561
		c0.076-0.307,0.181-0.688,0.318-1.146c0.139-0.456,0.307-0.769,0.51-0.939c0.201-0.169,0.461-0.35,0.777-0.542
		c0.488-0.339,1.152-0.509,1.99-0.509s1.439,0.037,1.812,0.111c0.371,0.075,0.705,0.154,1.004,0.239
		c0.295,0.085,0.553,0.26,0.766,0.525c0.211,0.266,0.393,0.487,0.541,0.668c0.146,0.183,0.268,0.5,0.352,0.955
		c0.084,0.457,0.152,0.828,0.207,1.112c0.053,0.287,0.096,0.771,0.127,1.449c0.029,0.682,0.047,1.231,0.047,1.656v1.975v0.127v1.941
		c0,1.443-0.041,2.395-0.127,2.85c-0.084,0.457-0.17,0.918-0.254,1.387c-0.084,0.467-0.201,0.791-0.352,0.971
		c-0.148,0.182-0.33,0.403-0.541,0.668C199.329,30.65,199.073,30.832,198.777,30.927z M198.938,23.175v-1.082
		c0-2.78-0.117-4.53-0.353-5.253c-0.338-0.912-1.037-1.379-2.099-1.4c-0.87,0-1.457,0.225-1.754,0.668
		c-0.17,0.3-0.309,0.574-0.412,0.828c-0.104,0.254-0.182,0.7-0.225,1.338c-0.062,0.935-0.096,1.836-0.096,2.705
		c0,0.871,0,1.746,0,2.627s0.008,1.642,0.031,2.275c0.021,0.637,0.109,1.311,0.271,2.021c0.159,0.711,0.407,1.174,0.747,1.386
		c0.344,0.212,0.768,0.317,1.275,0.317s0.898-0.047,1.178-0.145c0.271-0.096,0.504-0.273,0.686-0.541
		c0.181-0.266,0.316-0.527,0.414-0.796c0.094-0.267,0.164-0.687,0.207-1.257C198.896,26.04,198.938,24.811,198.938,23.175z"/>
	<path display="inline" fill="#121212" d="M210.046,30.927c-0.297,0.097-0.444,0.144-0.444,0.144s-0.188,0.037-0.558,0.111
		c-0.373,0.074-0.815,0.111-1.338,0.111c-0.521,0-0.985-0.031-1.401-0.095c-0.412-0.063-0.771-0.201-1.08-0.414
		c-0.31-0.212-0.562-0.409-0.765-0.589s-0.371-0.504-0.512-0.973c-0.138-0.468-0.242-0.858-0.316-1.179
		c-0.075-0.315-0.127-0.844-0.159-1.576c-0.031-0.729-0.054-1.329-0.062-1.798c-0.013-0.467-0.017-1.209-0.017-2.229
		c0-1.021,0.004-1.756,0.017-2.213c0.01-0.455,0.03-1.049,0.062-1.783c0.032-0.731,0.084-1.252,0.159-1.561
		c0.074-0.307,0.181-0.688,0.316-1.146c0.141-0.456,0.309-0.769,0.512-0.939c0.201-0.169,0.461-0.35,0.778-0.542
		c0.488-0.339,1.15-0.509,1.988-0.509c0.84,0,1.441,0.037,1.814,0.111c0.369,0.075,0.705,0.154,1.002,0.239s0.555,0.26,0.768,0.525
		c0.211,0.266,0.392,0.487,0.541,0.668c0.146,0.183,0.265,0.5,0.349,0.955c0.084,0.457,0.153,0.828,0.207,1.112
		c0.053,0.287,0.098,0.771,0.129,1.449c0.03,0.682,0.047,1.231,0.047,1.656v1.975v0.127v1.941c0,1.443-0.041,2.395-0.127,2.85
		c-0.086,0.457-0.172,0.918-0.256,1.387c-0.084,0.467-0.201,0.791-0.349,0.971c-0.149,0.182-0.33,0.403-0.541,0.668
		C210.6,30.65,210.343,30.832,210.046,30.927z M210.206,23.175v-1.082c0-2.78-0.117-4.53-0.353-5.253
		c-0.338-0.912-1.039-1.379-2.102-1.4c-0.871,0-1.455,0.225-1.752,0.668c-0.17,0.3-0.309,0.574-0.414,0.828
		c-0.104,0.254-0.18,0.7-0.225,1.338c-0.062,0.935-0.094,1.836-0.094,2.705c0,0.871,0,1.746,0,2.627s0.008,1.642,0.028,2.275
		c0.022,0.637,0.111,1.311,0.271,2.021c0.16,0.711,0.408,1.174,0.748,1.386c0.343,0.212,0.769,0.317,1.275,0.317
		c0.508,0,0.9-0.047,1.178-0.145c0.273-0.096,0.502-0.273,0.687-0.541c0.178-0.266,0.315-0.527,0.414-0.796
		c0.094-0.267,0.164-0.687,0.205-1.257C210.163,26.04,210.206,24.811,210.206,23.175z"/>
	<path display="inline" fill="#121212" d="M215.458,29.605V7.767c0.935,0,1.479,0.064,1.642,0.191
		c0.157,0.127,0.237,0.552,0.237,1.273V31.07c-0.935,0-1.479-0.063-1.64-0.191C215.538,30.751,215.458,30.328,215.458,29.605z
		 M224.055,31.07h-2.068l-4.269-9.327l3.82-7.768h1.94l-3.852,7.768L224.055,31.07z"/>
	<path display="inline" fill="#121212" d="M226.124,22.443v-8.468c0.933,0,1.479,0.058,1.637,0.175c0.16,0.117,0.24,0.546,0.24,1.29
		v6.939c0,2.462,0.067,4.145,0.207,5.046c0.138,0.902,0.351,1.491,0.635,1.767c0.289,0.276,0.675,0.414,1.162,0.414l3.152-1.463
		l-0.158-0.797v-13.37c0.935,0,1.479,0.058,1.64,0.175c0.158,0.117,0.237,0.546,0.237,1.289V31.07c-0.935,0-1.479-0.053-1.64-0.159
		c-0.159-0.106-0.237-0.478-0.237-1.114l-2.865,1.496c-1.338,0-2.389-0.414-3.151-1.241c-0.484-0.552-0.765-1.952-0.828-4.202
		C226.132,25.148,226.124,24.014,226.124,22.443z"/>
	<path display="inline" fill="#121212" d="M238.062,35.973V13.975c0.912,0,1.444,0.026,1.604,0.079
		c0.158,0.053,0.233,0.239,0.233,0.557l2.552-0.859c1.481,0,2.577,0.446,3.274,1.337c0.574,0.722,0.914,2.134,1.021,4.234
		c0.043,0.807,0.062,1.846,0.062,3.12c0,1.271-0.017,2.273-0.047,3.008c-0.035,0.732-0.103,1.464-0.207,2.197
		c-0.107,0.729-0.257,1.295-0.447,1.687c-0.189,0.394-0.443,0.759-0.765,1.099c-0.596,0.573-1.602,0.858-3.022,0.858l-2.422-1.464
		v7.607c-0.91,0-1.445-0.062-1.605-0.189C238.141,37.119,238.062,36.693,238.062,35.973z M244.443,28.125
		c0.328-0.986,0.492-2.796,0.492-5.428c0-2.633-0.17-4.5-0.512-5.604c-0.338-1.104-1.049-1.655-2.133-1.655l-2.48,0.795l0.127,0.795
		v10.348l-0.158,0.796l2.481,1.435C243.389,29.605,244.113,29.111,244.443,28.125z"/>
</g>
<g id="bv_logo_color_gray">
	
		<linearGradient id="SVGID_1_" gradientUnits="userSpaceOnUse" x1="309.9766" y1="-948.2944" x2="309.9766" y2="-931.2311" gradientTransform="matrix(1 0 0 -1 -298 -929)">
		<stop  offset="0" style="stop-color:#68A542"/>
		<stop  offset="1" style="stop-color:#74B64A"/>
	</linearGradient>
	<path fill="url(#SVGID_1_)" d="M11.977,2.598c-5.889,0-10.661,4.772-10.661,10.659c0,4.024,2.232,7.528,5.524,9.34l-0.477-6.479
		c0-0.998,0.839-1.809,1.874-1.809h7.478c1.035,0,1.875,0.811,1.875,1.809l-0.475,6.479c3.292-1.812,5.523-5.314,5.523-9.34
		C22.636,7.371,17.863,2.598,11.977,2.598z M11.977,13.543c-2.493,0-4.513-2.022-4.513-4.513c0-2.492,2.021-4.514,4.513-4.514
		S16.49,6.538,16.49,9.03C16.49,11.521,14.469,13.543,11.977,13.543z"/>
	<path fill="#303030" d="M25.62,6.756c0-0.618,0.303-1.097,1.014-1.097h3.341c2.715,0,4.138,2.034,4.138,3.886
		c0,1.783-0.883,3.154-2.133,3.565v0.046c1.854,0.206,3.319,1.873,3.319,4.023c0,2.561-1.788,4.752-5.022,4.752h-3.643
		c-0.711,0-1.014-0.479-1.014-1.096L25.62,6.756L25.62,6.756z M27.517,12.54h2.155c1.617,0,2.544-1.144,2.544-2.628
		c0-1.463-0.798-2.516-2.479-2.516h-2.221V12.54z M27.517,20.197h2.674c1.853,0,3.21-1.211,3.21-3.018
		c0-1.668-1.143-2.993-3.125-2.993h-2.759V20.197L27.517,20.197z"/>
	<path fill="#303030" d="M37.802,16.631c0,2.08,1.249,3.703,3.383,3.703c2.522,0,3.169-1.646,3.88-1.646
		c0.345,0,0.69,0.32,0.69,0.891c0,0.984-2.35,2.49-4.591,2.49c-3.664,0-5.259-2.992-5.259-6.215c0-3.291,1.94-6.218,5.152-6.218
		c3.125,0,4.935,2.994,4.935,5.921c0,0.707-0.237,1.074-1.057,1.074H37.802z M44.096,15.121c0-1.736-0.948-3.748-3.038-3.748
		c-2.351-0.091-3.191,1.897-3.255,3.748H44.096z"/>
	<path fill="#303030" d="M48.412,16.631c0,2.08,1.25,3.703,3.384,3.703c2.522,0,3.168-1.646,3.88-1.646
		c0.344,0,0.689,0.32,0.689,0.891c0,0.984-2.35,2.49-4.591,2.49c-3.663,0-5.258-2.992-5.258-6.215c0-3.291,1.938-6.218,5.151-6.218
		c3.125,0,4.936,2.994,4.936,5.921c0,0.707-0.238,1.074-1.056,1.074H48.412z M54.707,15.121c0-1.736-0.949-3.748-3.039-3.748
		c-2.35-0.091-3.19,1.897-3.255,3.748H54.707z"/>
	<path fill="#303030" d="M57.514,10.711c0-0.663,0.367-1.074,0.949-1.074s0.949,0.412,0.949,1.074v0.481l0.042,0.044
		c0.84-1.143,2.027-1.601,3.169-1.601c1.768,0,3.988,1.189,3.988,4.617v6.743c0,0.662-0.366,1.074-0.949,1.074
		c-0.581,0-0.948-0.412-0.948-1.074v-6.629c0-2.126-1.4-2.994-2.65-2.994s-2.651,0.868-2.651,2.994v6.629
		c0,0.662-0.367,1.074-0.948,1.074s-0.949-0.412-0.949-1.074V10.711H57.514z"/>
	
		<linearGradient id="SVGID_2_" gradientUnits="userSpaceOnUse" x1="371.043" y1="-950.6841" x2="371.043" y2="-933.7422" gradientTransform="matrix(1 0 0 -1 -298 -929)">
		<stop  offset="0" style="stop-color:#68A542"/>
		<stop  offset="1" style="stop-color:#74B64A"/>
	</linearGradient>
	<path fill="url(#SVGID_2_)" d="M66.727,8.015c-0.107-0.297-0.15-0.526-0.15-0.846c0-0.96,0.797-1.646,1.659-1.646
		c0.732,0,1.186,0.504,1.466,1.121l3.341,9.508l3.339-9.508c0.283-0.617,0.732-1.121,1.466-1.121c0.862,0,1.66,0.686,1.66,1.646
		c0,0.32-0.044,0.549-0.149,0.846l-4.722,12.731c-0.283,0.732-0.646,1.324-1.595,1.324c-0.95,0-1.315-0.592-1.596-1.324
		L66.727,8.015z"/>
	
		<linearGradient id="SVGID_3_" gradientUnits="userSpaceOnUse" x1="381.4258" y1="-950.6846" x2="381.4258" y2="-933.7439" gradientTransform="matrix(1 0 0 -1 -298 -929)">
		<stop  offset="0" style="stop-color:#68A542"/>
		<stop  offset="1" style="stop-color:#74B64A"/>
	</linearGradient>
	<path fill="url(#SVGID_3_)" d="M81.022,16.951c0.216,1.623,1.487,2.377,2.931,2.377c1.597,0,2.695-1.326,3.514-1.326
		c0.669,0,1.272,0.709,1.272,1.418c0,1.416-2.759,2.789-5.065,2.789c-3.492,0-5.82-2.697-5.82-6.332
		c0-3.337,2.287-6.376,5.561-6.376c3.364,0,5.582,3.246,5.582,5.988c0,0.982-0.407,1.463-1.356,1.463H81.022L81.022,16.951z
		 M85.894,14.756c-0.171-1.44-1.033-2.515-2.479-2.515c-1.378,0-2.306,1.12-2.457,2.515H85.894z"/>
	
		<linearGradient id="SVGID_4_" gradientUnits="userSpaceOnUse" x1="391.4668" y1="-950.6851" x2="391.4668" y2="-933.7429" gradientTransform="matrix(1 0 0 -1 -298 -929)">
		<stop  offset="0" style="stop-color:#68A542"/>
		<stop  offset="1" style="stop-color:#74B64A"/>
	</linearGradient>
	<path fill="url(#SVGID_4_)" d="M90.051,11.283c0-1.098,0.82-1.646,1.598-1.646c0.817,0,1.506,0.32,1.506,1.372h0.043
		c0.582-0.914,1.207-1.372,2.179-1.372c0.754,0,1.507,0.571,1.507,1.759c0,1.076-0.926,1.144-1.854,1.601
		c-0.926,0.458-1.875,0.892-1.875,2.192v5.053c0,1.096-0.646,1.83-1.551,1.83c-0.907,0-1.554-0.732-1.554-1.83L90.051,11.283
		L90.051,11.283z"/>
	
		<linearGradient id="SVGID_5_" gradientUnits="userSpaceOnUse" x1="396.7822" y1="-950.6841" x2="396.7822" y2="-933.7426" gradientTransform="matrix(1 0 0 -1 -298 -929)">
		<stop  offset="0" style="stop-color:#68A542"/>
		<stop  offset="1" style="stop-color:#74B64A"/>
	</linearGradient>
	<path fill="url(#SVGID_5_)" d="M100.527,6.505c0,1.028-0.774,1.897-1.746,1.897c-0.926,0-1.744-0.892-1.744-1.897
		c0-0.937,0.818-1.805,1.744-1.805C99.708,4.7,100.527,5.545,100.527,6.505z M97.23,11.465c0-1.098,0.646-1.829,1.551-1.829
		c0.907,0,1.552,0.731,1.552,1.829v8.777c0,1.098-0.645,1.83-1.552,1.83c-0.904,0-1.551-0.73-1.551-1.83V11.465z"/>
	
		<linearGradient id="SVGID_6_" gradientUnits="userSpaceOnUse" x1="402.5684" y1="-950.6851" x2="402.5684" y2="-933.7424" gradientTransform="matrix(1 0 0 -1 -298 -929)">
		<stop  offset="0" style="stop-color:#68A542"/>
		<stop  offset="1" style="stop-color:#74B64A"/>
	</linearGradient>
	<path fill="url(#SVGID_6_)" d="M102.769,12.654h-0.69c-0.84,0-1.358-0.548-1.358-1.44c0-0.822,0.583-1.44,1.358-1.44h0.69v-1.69
		c0-2.423,1.359-3.749,3.258-3.749c1.097,0,2.155,0.342,2.155,1.487c0,0.959-0.41,1.393-1.272,1.393c-0.52,0-1.035,0-1.035,1.212
		v1.349h0.97c0.928,0,1.573,0.388,1.573,1.441c0,1.028-0.669,1.439-1.573,1.439h-0.97v7.589c0,1.096-0.646,1.83-1.552,1.83
		c-0.905,0-1.552-0.732-1.552-1.83v-7.59H102.769z"/>
	
		<linearGradient id="SVGID_7_" gradientUnits="userSpaceOnUse" x1="408.5459" y1="-950.6841" x2="408.5459" y2="-933.7426" gradientTransform="matrix(1 0 0 -1 -298 -929)">
		<stop  offset="0" style="stop-color:#68A542"/>
		<stop  offset="1" style="stop-color:#74B64A"/>
	</linearGradient>
	<path fill="url(#SVGID_7_)" d="M112.291,6.505c0,1.028-0.775,1.897-1.745,1.897c-0.928,0-1.747-0.892-1.747-1.897
		c0-0.937,0.819-1.805,1.747-1.805C111.47,4.7,112.291,5.545,112.291,6.505z M108.991,11.465c0-1.098,0.647-1.829,1.555-1.829
		c0.903,0,1.552,0.731,1.552,1.829v8.777c0,1.098-0.648,1.83-1.552,1.83c-0.907,0-1.555-0.73-1.555-1.83V11.465L108.991,11.465z"/>
	
		<linearGradient id="SVGID_8_" gradientUnits="userSpaceOnUse" x1="416.7227" y1="-950.6846" x2="416.7227" y2="-933.7439" gradientTransform="matrix(1 0 0 -1 -298 -929)">
		<stop  offset="0" style="stop-color:#68A542"/>
		<stop  offset="1" style="stop-color:#74B64A"/>
	</linearGradient>
	<path fill="url(#SVGID_8_)" d="M116.319,16.951c0.218,1.623,1.487,2.377,2.932,2.377c1.596,0,2.695-1.326,3.513-1.326
		c0.672,0,1.272,0.709,1.272,1.418c0,1.416-2.757,2.789-5.065,2.789c-3.492,0-5.82-2.697-5.82-6.332
		c0-3.337,2.287-6.376,5.563-6.376c3.361,0,5.58,3.246,5.58,5.988c0,0.982-0.408,1.463-1.356,1.463H116.319L116.319,16.951z
		 M121.19,14.756c-0.171-1.44-1.033-2.515-2.476-2.515c-1.381,0-2.309,1.12-2.459,2.515H121.19z"/>
	<path fill="#303030" d="M140.486,21.773c0-0.289,0.236-0.525,0.526-0.525c0.288,0,0.525,0.236,0.525,0.525
		s-0.236,0.525-0.525,0.525C140.723,22.299,140.486,22.062,140.486,21.773z"/>
	<path fill="#303030" d="M138.872,18.184c0,0.242-0.189,0.459-0.189,0.768c0,0.551,0.491,0.816,0.99,0.816
		c0.478,0,0.975-0.291,0.975-0.816c0-0.242-0.201-0.607-0.201-0.723c0-0.227,0.196-0.416,0.424-0.416c0.5,0,0.67,0.836,0.67,1.184
		c0,1.045-0.855,1.738-1.865,1.738c-0.984,0-1.882-0.713-1.882-1.738c0-0.383,0.143-1.184,0.614-1.184
		C138.607,17.812,138.872,17.955,138.872,18.184z"/>
	<path fill="#303030" d="M139.673,14.145c1.011,0,1.866,0.693,1.866,1.738c0,1.043-0.855,1.738-1.866,1.738
		c-0.982,0-1.879-0.717-1.879-1.738C137.794,14.859,138.69,14.145,139.673,14.145z M139.673,16.648c0.463,0,0.976-0.242,0.976-0.766
		c0-0.527-0.513-0.768-0.976-0.768c-0.465,0-0.99,0.234-0.99,0.768C138.683,16.414,139.206,16.648,139.673,16.648z"/>
	<path fill="#303030" d="M138.373,13.733c-0.323,0-0.538-0.2-0.538-0.484c0-0.249,0.133-0.411,0.363-0.445
		c-0.255-0.236-0.404-0.545-0.404-0.903c0-0.403,0.169-0.747,0.492-1.002c-0.31-0.269-0.492-0.694-0.492-1.024
		c0-0.788,0.457-1.326,1.306-1.326h1.86c0.321,0,0.537,0.202,0.537,0.485s-0.216,0.485-0.537,0.485h-1.689
		c-0.393,0-0.669,0.215-0.669,0.565c0,0.357,0.276,0.572,0.669,0.572h1.689c0.321,0,0.537,0.202,0.537,0.485
		s-0.216,0.485-0.537,0.485h-1.689c-0.393,0-0.669,0.216-0.669,0.566c0,0.396,0.276,0.572,0.669,0.572h1.689
		c0.321,0,0.537,0.202,0.537,0.485s-0.216,0.484-0.537,0.484L138.373,13.733L138.373,13.733z"/>
	
		<linearGradient id="SVGID_9_" gradientUnits="userSpaceOnUse" x1="311.3965" y1="-950.5679" x2="311.3965" y2="-945.4098" gradientTransform="matrix(1 0 0 -1 -298 -929)">
		<stop  offset="0" style="stop-color:#68A542"/>
		<stop  offset="1" style="stop-color:#74B64A"/>
	</linearGradient>
	<polygon fill="url(#SVGID_9_)" points="14.632,19.686 16.521,18.32 14.116,18.32 13.396,16.412 12.677,18.32 10.272,18.32 
		12.162,19.686 11.236,22.139 13.396,20.58 15.556,22.139 	"/>
	
		<linearGradient id="SVGID_10_" gradientUnits="userSpaceOnUse" x1="428.4707" y1="-950.6846" x2="428.4707" y2="-933.7427" gradientTransform="matrix(1 0 0 -1 -298 -929)">
		<stop  offset="0" style="stop-color:#68A542"/>
		<stop  offset="1" style="stop-color:#74B64A"/>
	</linearGradient>
	<path fill="url(#SVGID_10_)" d="M134.445,4.334c-0.903,0-1.551,0.732-1.551,1.829v4.481c-0.82-0.755-1.875-1.144-2.953-1.144
		c-3.342,0-5,3.314-5,6.515c0,3.107,1.983,6.193,5.107,6.193c1.056,0,2.263-0.504,2.845-1.508c0.193,0.869,0.689,1.369,1.55,1.369
		c0.907,0,1.554-0.729,1.554-1.826V6.163C135.998,5.066,135.353,4.334,134.445,4.334z M131.814,15.975l1.015,2.691l-2.367-1.713
		l-2.368,1.713l1.015-2.691l-2.07-1.498h2.635l0.789-2.093l0.79,2.093h2.636L131.814,15.975z"/>
	<g>
		<path fill="#303030" d="M144.409,4.705v0.329h-0.555v1.524h-0.39V5.034h-0.555V4.705H144.409z"/>
		<path fill="#303030" d="M145.865,4.705h0.555v1.853h-0.358V5.305c0-0.037,0-0.086,0-0.151c0-0.064,0.002-0.115,0.002-0.149
			l-0.354,1.555h-0.374l-0.349-1.555c0,0.035,0.002,0.087,0.004,0.149c0,0.065,0,0.116,0,0.151v1.253h-0.361V4.705h0.562
			l0.338,1.457L145.865,4.705z"/>
	</g>
</g>
</svg>
