<svg 
 xmlns="http://www.w3.org/2000/svg"
 xmlns:xlink="http://www.w3.org/1999/xlink"
 width="16px" height="16px">
<path fill-rule="evenodd"  fill="rgb(255, 255, 255)"
 d="M14.531,16.000 L1.465,16.000 C0.656,16.000 -0.001,15.349 -0.001,14.557 L-0.001,3.214 C-0.001,2.437 0.640,1.804 1.423,1.781 L1.423,3.717 C1.423,4.591 2.148,5.296 3.042,5.296 L4.064,5.296 C4.960,5.296 5.695,4.591 5.695,3.717 L5.695,1.774 L10.301,1.774 L10.301,3.717 C10.301,4.591 11.037,5.296 11.931,5.296 L12.954,5.296 C13.848,5.296 14.574,4.591 14.574,3.717 L14.574,1.781 C15.356,1.804 15.998,2.437 15.998,3.214 L15.998,14.557 C15.998,15.348 15.340,16.000 14.531,16.000 ZM14.099,7.992 C14.099,7.649 13.815,7.371 13.466,7.371 L2.503,7.371 C2.153,7.371 1.870,7.649 1.870,7.992 L1.870,13.851 C1.870,14.193 2.153,14.471 2.503,14.471 L13.466,14.471 C13.815,14.471 14.099,14.193 14.099,13.851 L14.099,7.992 ZM11.884,13.624 L10.589,13.624 C10.385,13.624 10.219,13.462 10.219,13.261 L10.219,11.994 C10.219,11.793 10.385,11.631 10.589,11.631 L11.884,11.631 C12.091,11.631 12.257,11.793 12.257,11.994 L12.257,13.261 C12.257,13.461 12.091,13.624 11.884,13.624 ZM11.884,10.457 L10.589,10.457 C10.385,10.457 10.219,10.294 10.219,10.094 L10.219,8.826 C10.219,8.626 10.385,8.464 10.589,8.464 L11.884,8.464 C12.091,8.464 12.257,8.626 12.257,8.826 L12.257,10.094 C12.257,10.294 12.091,10.457 11.884,10.457 ZM8.646,13.624 L7.350,13.624 C7.145,13.624 6.978,13.462 6.978,13.261 L6.978,11.994 C6.978,11.793 7.145,11.631 7.350,11.631 L8.646,11.631 C8.850,11.631 9.018,11.793 9.018,11.994 L9.018,13.261 C9.018,13.461 8.850,13.624 8.646,13.624 ZM8.646,10.457 L7.350,10.457 C7.145,10.457 6.978,10.294 6.978,10.094 L6.978,8.826 C6.978,8.626 7.145,8.464 7.350,8.464 L8.646,8.464 C8.850,8.464 9.018,8.626 9.018,8.826 L9.018,10.094 C9.018,10.294 8.850,10.457 8.646,10.457 ZM5.407,13.624 L4.111,13.624 C3.906,13.624 3.739,13.462 3.739,13.261 L3.739,11.994 C3.739,11.793 3.906,11.631 4.111,11.631 L5.407,11.631 C5.612,11.631 5.778,11.793 5.778,11.994 L5.778,13.261 C5.778,13.461 5.612,13.624 5.407,13.624 ZM5.407,10.457 L4.111,10.457 C3.906,10.457 3.739,10.294 3.739,10.094 L3.739,8.826 C3.739,8.626 3.906,8.464 4.111,8.464 L5.407,8.464 C5.612,8.464 5.778,8.626 5.778,8.826 L5.778,10.094 C5.778,10.294 5.612,10.457 5.407,10.457 ZM12.929,4.259 L11.919,4.259 C11.612,4.259 11.362,4.016 11.362,3.716 L11.362,0.543 C11.362,0.243 11.612,-0.000 11.919,-0.000 L12.929,-0.000 C13.237,-0.000 13.485,0.243 13.485,0.543 L13.485,3.716 C13.485,4.016 13.237,4.259 12.929,4.259 ZM4.050,4.259 L3.040,4.259 C2.731,4.259 2.484,4.016 2.484,3.716 L2.484,0.543 C2.484,0.243 2.731,-0.000 3.040,-0.000 L4.050,-0.000 C4.358,-0.000 4.605,0.243 4.605,0.543 L4.605,3.716 C4.605,4.016 4.358,4.259 4.050,4.259 Z"/>
</svg>