<svg 
 xmlns="http://www.w3.org/2000/svg"
 xmlns:xlink="http://www.w3.org/1999/xlink"
 width="16px" height="17px">
<path fill-rule="evenodd"  fill="rgb(215, 215, 215)"
 d="M14.532,16.999 L1.466,16.999 C0.655,16.999 -0.002,16.308 -0.002,15.467 L-0.002,3.415 C-0.002,2.589 0.642,1.917 1.423,1.892 L1.423,3.949 C1.423,4.878 2.149,5.628 3.043,5.628 L4.065,5.628 C4.959,5.628 5.695,4.878 5.695,3.949 L5.695,1.885 L10.302,1.885 L10.302,3.949 C10.302,4.878 11.037,5.628 11.932,5.628 L12.954,5.628 C13.849,5.628 14.574,4.878 14.574,3.949 L14.574,1.892 C15.356,1.917 15.998,2.589 15.998,3.415 L15.998,15.467 C15.998,16.307 15.340,16.999 14.532,16.999 ZM14.100,8.491 C14.100,8.127 13.815,7.832 13.466,7.832 L2.504,7.832 C2.154,7.832 1.869,8.127 1.869,8.491 L1.869,14.716 C1.869,15.080 2.154,15.375 2.504,15.375 L13.466,15.375 C13.815,15.375 14.100,15.080 14.100,14.716 L14.100,8.491 ZM11.886,14.475 L10.590,14.475 C10.384,14.475 10.218,14.303 10.218,14.090 L10.218,12.744 C10.218,12.530 10.384,12.358 10.590,12.358 L11.886,12.358 C12.090,12.358 12.257,12.530 12.257,12.744 L12.257,14.090 C12.257,14.303 12.090,14.475 11.886,14.475 ZM11.886,11.111 L10.590,11.111 C10.384,11.111 10.218,10.938 10.218,10.725 L10.218,9.378 C10.218,9.165 10.384,8.993 10.590,8.993 L11.886,8.993 C12.090,8.993 12.257,9.165 12.257,9.378 L12.257,10.725 C12.257,10.938 12.090,11.111 11.886,11.111 ZM8.646,14.475 L7.350,14.475 C7.146,14.475 6.980,14.303 6.980,14.090 L6.980,12.744 C6.980,12.530 7.146,12.358 7.350,12.358 L8.646,12.358 C8.852,12.358 9.018,12.530 9.018,12.744 L9.018,14.090 C9.018,14.303 8.852,14.475 8.646,14.475 ZM8.646,11.111 L7.350,11.111 C7.146,11.111 6.980,10.938 6.980,10.725 L6.980,9.378 C6.980,9.165 7.146,8.993 7.350,8.993 L8.646,8.993 C8.852,8.993 9.018,9.165 9.018,9.378 L9.018,10.725 C9.018,10.938 8.852,11.111 8.646,11.111 ZM5.407,14.475 L4.112,14.475 C3.906,14.475 3.739,14.303 3.739,14.090 L3.739,12.744 C3.739,12.530 3.906,12.358 4.112,12.358 L5.407,12.358 C5.611,12.358 5.778,12.530 5.778,12.744 L5.778,14.090 C5.778,14.303 5.611,14.475 5.407,14.475 ZM5.407,11.111 L4.112,11.111 C3.906,11.111 3.739,10.938 3.739,10.725 L3.739,9.378 C3.739,9.165 3.906,8.993 4.112,8.993 L5.407,8.993 C5.611,8.993 5.778,9.165 5.778,9.378 L5.778,10.725 C5.778,10.938 5.611,11.111 5.407,11.111 ZM12.931,4.525 L11.919,4.525 C11.612,4.525 11.363,4.267 11.363,3.948 L11.363,0.577 C11.363,0.258 11.612,-0.000 11.919,-0.000 L12.931,-0.000 C13.237,-0.000 13.484,0.258 13.484,0.577 L13.484,3.948 C13.484,4.267 13.237,4.525 12.931,4.525 ZM4.050,4.525 L3.039,4.525 C2.732,4.525 2.483,4.267 2.483,3.948 L2.483,0.577 C2.483,0.258 2.732,-0.000 3.039,-0.000 L4.050,-0.000 C4.357,-0.000 4.606,0.258 4.606,0.577 L4.606,3.948 C4.606,4.267 4.357,4.525 4.050,4.525 Z"/>
</svg>