<svg 
 xmlns="http://www.w3.org/2000/svg"
 xmlns:xlink="http://www.w3.org/1999/xlink"
 width="20px" height="18px">
<path fill-rule="evenodd"  fill="rgb(215, 215, 215)"
 d="M18.535,10.427 C17.560,11.383 16.280,11.862 14.999,11.862 C13.719,11.862 12.439,11.383 11.463,10.427 C10.350,9.334 9.874,7.850 10.034,6.420 L8.811,5.221 C8.323,4.742 8.323,3.965 8.811,3.486 L9.401,2.908 C9.384,2.827 9.373,2.745 9.373,2.662 C9.373,2.343 9.504,2.024 9.737,1.797 C10.029,1.510 10.463,1.403 10.862,1.473 L11.463,0.883 C11.951,0.404 12.743,0.404 13.231,0.883 L14.453,2.083 C15.908,1.927 17.422,2.393 18.535,3.486 C20.484,5.400 20.484,8.513 18.535,10.427 ZM16.766,5.221 C16.280,4.743 15.639,4.504 14.999,4.504 C14.359,4.504 13.720,4.742 13.232,5.220 L13.230,5.223 C12.258,6.180 12.258,7.736 13.231,8.692 C14.206,9.649 15.792,9.649 16.766,8.692 C17.743,7.735 17.743,6.178 16.766,5.221 ZM7.849,2.398 C7.773,2.417 7.699,2.423 7.622,2.423 C7.030,2.423 6.503,2.006 6.391,1.410 C6.273,0.741 6.723,0.104 7.404,-0.013 C8.086,-0.135 8.736,0.306 8.856,0.975 C8.979,1.644 8.523,2.282 7.849,2.398 ZM6.385,3.724 C6.255,4.294 5.735,4.674 5.167,4.674 C5.078,4.674 4.987,4.668 4.886,4.644 C4.217,4.490 3.797,3.833 3.955,3.171 C4.105,2.515 4.780,2.104 5.454,2.257 C6.123,2.404 6.543,3.067 6.385,3.724 ZM5.880,6.085 C5.958,6.163 6.021,6.251 6.076,6.343 L6.874,6.343 C7.564,6.343 8.124,6.892 8.124,7.570 L8.124,9.266 C9.265,10.167 10.000,11.546 10.000,13.092 C10.000,15.797 7.756,17.999 4.999,17.999 C2.242,17.999 -0.003,15.797 -0.003,13.092 C-0.003,11.546 0.732,10.167 1.872,9.266 L1.872,7.570 C1.872,6.892 2.433,6.343 3.123,6.343 L3.921,6.343 C3.976,6.251 4.038,6.163 4.117,6.085 C4.578,5.631 5.418,5.631 5.880,6.085 ZM2.498,13.092 C2.498,14.444 3.619,15.545 4.999,15.545 C6.376,15.545 7.498,14.444 7.498,13.092 C7.498,11.738 6.376,10.638 4.999,10.638 C3.619,10.638 2.498,11.738 2.498,13.092 Z"/>
</svg>