<svg id="Layer_1" data-name="Layer 1" xmlns="http://www.w3.org/2000/svg" viewBox="0 0 28 28"><defs><style>.cls-1{fill:#f5c419;isolation:isolate;}.cls-2{fill:#fff;}</style></defs><title>lock</title><circle class="cls-1" cx="14" cy="14" r="14"/><path class="cls-2" d="M18,12.94h-0.4V11.48a3.59,3.59,0,1,0-7.17,0v1.46H10a1.2,1.2,0,0,0-1.2,1.2v4.78a1.2,1.2,0,0,0,1.2,1.2h8a1.2,1.2,0,0,0,1.2-1.2h0V14.14a1.2,1.2,0,0,0-1.2-1.2h0Zm-3.59,3.91v1.27a0.4,0.4,0,0,1-.8,0V16.85a1.2,1.2,0,1,1,.81,0h0ZM16,12.94H12V11.48a2,2,0,0,1,4,0v1.46h0Z"/></svg>