<svg
 xmlns="http://www.w3.org/2000/svg"
 xmlns:xlink="http://www.w3.org/1999/xlink"
 width="18px" height="14px">
<path fill-rule="evenodd"  fill="rgb(255, 255, 255)"
 d="M9.098,2.555 C6.089,2.527 3.969,2.344 3.686,5.582 L0.013,5.582 C0.013,0.660 4.557,-0.003 9.002,-0.003 C13.445,-0.003 17.989,0.660 17.989,5.582 L14.288,5.582 C14.032,2.405 12.132,2.583 9.098,2.555 ZM3.703,5.985 C3.703,6.134 3.689,6.263 3.666,6.377 C3.500,7.215 2.750,7.164 1.848,7.164 C0.827,7.164 -0.003,7.231 -0.003,5.985 L3.660,5.985 L3.703,5.985 ZM5.150,5.137 L5.150,4.642 C5.150,4.420 5.421,4.407 5.753,4.407 L6.298,4.407 C6.632,4.407 6.903,4.420 6.903,4.642 L6.903,5.068 L6.903,5.399 L10.755,5.399 L10.755,5.068 L10.755,4.642 C10.755,4.420 11.025,4.407 11.358,4.407 L11.902,4.407 C12.236,4.407 12.505,4.420 12.505,4.642 L12.505,5.137 L12.505,5.569 C13.384,6.430 16.254,10.097 16.358,10.528 L16.358,13.505 C16.358,13.779 16.122,14.002 15.833,14.002 L1.823,14.002 C1.534,14.002 1.298,13.779 1.298,13.505 L1.298,10.542 C1.401,10.098 4.273,6.430 5.150,5.569 L5.150,5.137 ZM10.915,10.941 C11.197,10.941 11.426,10.725 11.426,10.459 C11.426,10.192 11.197,9.976 10.915,9.976 C10.632,9.976 10.403,10.192 10.403,10.459 C10.403,10.725 10.632,10.941 10.915,10.941 ZM10.915,9.287 C11.197,9.287 11.426,9.071 11.426,8.804 C11.426,8.538 11.197,8.322 10.915,8.322 C10.632,8.322 10.403,8.538 10.403,8.804 C10.403,9.071 10.632,9.287 10.915,9.287 ZM10.915,7.633 C11.197,7.633 11.426,7.417 11.426,7.150 C11.426,6.884 11.197,6.668 10.915,6.668 C10.632,6.668 10.403,6.884 10.403,7.150 C10.403,7.417 10.632,7.633 10.915,7.633 ZM8.813,10.941 C9.097,10.941 9.324,10.725 9.324,10.459 C9.324,10.192 9.097,9.976 8.813,9.976 C8.532,9.976 8.302,10.192 8.302,10.459 C8.302,10.725 8.532,10.941 8.813,10.941 ZM8.813,9.287 C9.097,9.287 9.324,9.071 9.324,8.804 C9.324,8.538 9.097,8.322 8.813,8.322 C8.532,8.322 8.302,8.538 8.302,8.804 C8.302,9.071 8.532,9.287 8.813,9.287 ZM8.813,7.633 C9.097,7.633 9.324,7.417 9.324,7.150 C9.324,6.884 9.097,6.668 8.813,6.668 C8.532,6.668 8.302,6.884 8.302,7.150 C8.302,7.417 8.532,7.633 8.813,7.633 ZM6.712,10.941 C6.995,10.941 7.224,10.725 7.224,10.459 C7.224,10.192 6.995,9.976 6.712,9.976 C6.430,9.976 6.201,10.192 6.201,10.459 C6.201,10.725 6.430,10.941 6.712,10.941 ZM6.712,9.287 C6.995,9.287 7.224,9.071 7.224,8.804 C7.224,8.538 6.995,8.322 6.712,8.322 C6.430,8.322 6.201,8.538 6.201,8.804 C6.201,9.071 6.430,9.287 6.712,9.287 ZM6.712,7.633 C6.995,7.633 7.224,7.417 7.224,7.150 C7.224,6.884 6.995,6.668 6.712,6.668 C6.430,6.668 6.201,6.884 6.201,7.150 C6.201,7.417 6.430,7.633 6.712,7.633 ZM14.317,6.377 C14.292,6.265 14.279,6.136 14.279,5.985 L14.313,5.985 L18.002,5.985 C18.002,7.165 17.168,7.102 16.141,7.102 C15.242,7.102 14.493,7.149 14.317,6.377 Z"/>
</svg>
