<?xml version="1.0" encoding="utf-8"?>
<!-- Generator: Adobe Illustrator 19.2.1, SVG Export Plug-In . SVG Version: 6.00 Build 0)  -->
<svg version="1.1" id="Capa_1" xmlns="http://www.w3.org/2000/svg" xmlns:xlink="http://www.w3.org/1999/xlink" x="0px" y="0px"
	 viewBox="0 0 39 34" style="enable-background:new 0 0 39 34;" xml:space="preserve">
<style type="text/css">
	.st0{fill:#E5E5E5;}
</style>
<g>
	<g>
		<path class="st0" d="M38,9.8C38,9.8,38,9.8,38,9.8C38,4.9,34.1,1,29.2,1s-8.8,3.9-8.8,8.8s3.9,8.8,8.8,8.8c1,0,2-0.2,2.9-0.5
			c-2,11.4-10.9,18.7-2.6,12.7C38.5,24.1,38,10.1,38,9.8z"/>
		<path class="st0" d="M9.8,18.6c1,0,2-0.2,2.9-0.5c-2,11.4-10.9,18.7-2.6,12.7c9.1-6.7,8.6-20.7,8.6-21c0,0,0,0,0,0
			c0-4.9-3.9-8.8-8.8-8.8C4.9,1,1,4.9,1,9.8S4.9,18.6,9.8,18.6z"/>
	</g>
</g>
</svg>
