<svg 
 xmlns="http://www.w3.org/2000/svg"
 xmlns:xlink="http://www.w3.org/1999/xlink"
 width="37px" height="32px">
<path fill-rule="evenodd"  opacity="0.102" fill="rgb(0, 0, 0)"
 d="M28.404,29.830 C20.187,35.870 29.051,28.531 31.033,17.151 C30.137,17.459 29.181,17.633 28.180,17.633 C23.317,17.633 19.374,13.686 19.374,8.817 C19.374,3.946 23.316,-0.001 28.180,-0.001 C33.046,-0.001 36.988,3.946 36.988,8.817 C36.988,8.820 36.988,8.825 36.988,8.828 C36.998,9.086 37.517,23.132 28.404,29.830 ZM9.028,29.830 C0.810,35.870 9.675,28.531 11.656,17.151 C10.761,17.459 9.804,17.633 8.804,17.633 C3.940,17.633 -0.003,13.686 -0.003,8.817 C-0.003,3.946 3.940,-0.001 8.804,-0.001 C13.668,-0.001 17.611,3.946 17.611,8.817 C17.611,8.820 17.611,8.825 17.611,8.828 C17.622,9.086 18.139,23.132 9.028,29.830 Z"/>
</svg>