<svg 
 xmlns="http://www.w3.org/2000/svg"
 xmlns:xlink="http://www.w3.org/1999/xlink"
 width="8px" height="10px">
<path fill-rule="evenodd"  fill="rgb(231, 17, 76)"
 d="M0.898,3.002 L0.898,4.046 L0.826,4.046 C0.369,4.046 -0.000,4.400 -0.000,4.839 L-0.000,9.207 C-0.000,9.645 0.369,10.000 0.826,10.000 L7.173,10.000 C7.630,10.000 7.999,9.645 7.999,9.207 L7.999,4.839 C7.999,4.400 7.630,4.046 7.173,4.046 L7.152,4.046 L7.152,3.002 C7.152,1.346 5.751,-0.000 4.026,-0.000 C2.299,-0.000 0.898,1.348 0.898,3.002 ZM4.487,7.219 C4.423,7.263 4.407,7.308 4.407,7.378 C4.408,7.698 4.408,8.018 4.408,8.338 L4.408,8.338 C4.415,8.471 4.345,8.601 4.222,8.662 C3.928,8.805 3.637,8.605 3.637,8.340 L3.637,8.338 C3.637,8.016 3.637,7.696 3.640,7.374 C3.640,7.308 3.625,7.265 3.565,7.223 C3.262,7.009 3.164,6.644 3.314,6.321 C3.461,6.007 3.820,5.826 4.160,5.891 C4.536,5.964 4.799,6.256 4.801,6.617 C4.803,6.866 4.697,7.072 4.487,7.219 ZM2.266,3.002 C2.266,2.070 3.056,1.313 4.024,1.313 C4.995,1.313 5.782,2.072 5.782,3.002 L5.782,4.046 L2.266,4.046 L2.266,3.002 L2.266,3.002 Z"/>
</svg>