<svg 
 xmlns="http://www.w3.org/2000/svg"
 xmlns:xlink="http://www.w3.org/1999/xlink"
 width="16px" height="16px">
<path fill-rule="evenodd"  fill="rgb(255, 255, 255)"
 d="M13.055,10.169 C12.122,10.169 11.299,10.610 10.760,11.286 L5.766,8.754 C5.832,8.512 5.879,8.263 5.879,8.000 C5.879,7.714 5.822,7.444 5.745,7.182 L10.716,4.661 C11.251,5.368 12.098,5.829 13.055,5.829 C14.682,5.829 15.998,4.525 15.998,2.914 C15.998,1.304 14.682,-0.001 13.055,-0.001 C11.434,-0.001 10.117,1.304 10.117,2.914 C10.117,3.178 10.164,3.428 10.231,3.671 L5.239,6.203 C4.700,5.526 3.875,5.084 2.937,5.084 C1.314,5.084 -0.002,6.389 -0.002,8.000 C-0.002,9.609 1.314,10.915 2.937,10.915 C3.900,10.915 4.744,10.452 5.282,9.744 L10.252,12.264 C10.174,12.526 10.117,12.798 10.117,13.084 C10.117,14.695 11.434,16.000 13.055,16.000 C14.682,16.000 15.998,14.695 15.998,13.084 C15.998,11.473 14.682,10.169 13.055,10.169 Z"/>
</svg>