<svg 
 xmlns="http://www.w3.org/2000/svg"
 xmlns:xlink="http://www.w3.org/1999/xlink"
 width="16px" height="16px">
<path fill-rule="evenodd"  fill="rgb(215, 215, 215)"
 d="M13.055,10.168 C12.122,10.168 11.299,10.610 10.760,11.286 L5.766,8.754 C5.831,8.512 5.878,8.262 5.878,7.999 C5.878,7.713 5.822,7.444 5.744,7.181 L10.716,4.661 C11.251,5.367 12.097,5.828 13.055,5.828 C14.682,5.828 15.997,4.524 15.997,2.914 C15.997,1.304 14.682,-0.001 13.055,-0.001 C11.434,-0.001 10.117,1.304 10.117,2.914 C10.117,3.177 10.164,3.427 10.231,3.670 L5.239,6.203 C4.699,5.525 3.874,5.083 2.937,5.083 C1.313,5.083 -0.002,6.389 -0.002,7.999 C-0.002,9.609 1.313,10.914 2.937,10.914 C3.900,10.914 4.743,10.451 5.282,9.744 L10.252,12.264 C10.174,12.526 10.117,12.798 10.117,13.084 C10.117,14.694 11.434,15.999 13.055,15.999 C14.682,15.999 15.997,14.694 15.997,13.084 C15.997,11.473 14.682,10.168 13.055,10.168 Z"/>
</svg>