<?xml version="1.0" encoding="UTF-8"?>
<svg width="103px" height="113px" viewBox="0 0 103 113" version="1.1" xmlns="http://www.w3.org/2000/svg" xmlns:xlink="http://www.w3.org/1999/xlink">
    <!-- Generator: Sketch 41.2 (35397) - http://www.bohemiancoding.com/sketch -->
    <title>refine-icon</title>
    <desc>Created with Sketch.</desc>
    <defs>
        <filter x="-50%" y="-50%" width="200%" height="200%" filterUnits="objectBoundingBox" id="filter-1">
            <feOffset dx="0" dy="2" in="SourceAlpha" result="shadowOffsetOuter1"></feOffset>
            <feColorMatrix values="0 0 0 0 0   0 0 0 0 0   0 0 0 0 0  0 0 0 0.115942029 0" type="matrix" in="shadowOffsetOuter1" result="shadowMatrixOuter1"></feColorMatrix>
            <feMerge>
                <feMergeNode in="shadowMatrixOuter1"></feMergeNode>
                <feMergeNode in="SourceGraphic"></feMergeNode>
            </feMerge>
        </filter>
    </defs>
    <g id="Page-1" stroke="none" stroke-width="1" fill="none" fill-rule="evenodd">
        <g id="refine-icon">
            <g id="Group">
                <path d="M89.6,0 C96.672,0 102.4,5.74816901 102.4,12.8450704 L102.4,89.915493 C102.4,97.0123944 96.672,102.760563 89.6,102.760563 L12.8,102.760563 C5.728,102.760563 0,97.0123944 0,89.915493 L0,12.8450704 C0,5.74816901 5.728,0 12.8,0 L89.6,0 Z" id="Fill-6250" fill="#E2E4E5"></path>
                <path d="M6.39723802,1.72401766e-13 C2.86414102,1.72475668e-13 0,2.87055147 0,6.39202536 L0,16.056338 L102.4,16.056338 L102.319747,6.39202536 C102.290431,2.86180723 99.3978047,1.70456453e-13 95.8694287,1.70530257e-13 L6.39723802,1.72401766e-13 Z" id="Fill-6251" fill="#4A4A4A"></path>
                <path d="M16,8.02816901 C16,9.80239437 14.5664,11.2394366 12.8,11.2394366 C11.0336,11.2394366 9.6,9.80239437 9.6,8.02816901 C9.6,6.25394366 11.0336,4.81690141 12.8,4.81690141 C14.5664,4.81690141 16,6.25394366 16,8.02816901" id="Fill-6252" fill="#EC5260"></path>
                <path d="M24,11.2394366 C22.2336,11.2394366 20.8,9.80239437 20.8,8.02816901 C20.8,6.25394366 22.2336,4.81690141 24,4.81690141 C25.7664,4.81690141 27.2,6.25394366 27.2,8.02816901 C27.2,9.80239437 25.7664,11.2394366 24,11.2394366 Z" id="Fill-6253" fill="#F2DA3E"></path>
                <path d="M38.4,8.02816901 C38.4,9.80239437 36.9664,11.2394366 35.2,11.2394366 C33.4336,11.2394366 32,9.80239437 32,8.02816901 C32,6.25394366 33.4336,4.81690141 35.2,4.81690141 C36.9664,4.81690141 38.4,6.25394366 38.4,8.02816901" id="Fill-6254" fill="#81B44C"></path>
                <polygon id="Fill-6256" fill="#E2E4E5" points="86.4 69.0422535 41.6 69.0422535 41.6 59.4084507 86.4 59.4084507"></polygon>
                <polygon id="Fill-6257" fill="#E2E4E5" points="86.4 88.3098592 41.6 88.3098592 41.6 75.4647887 86.4 75.4647887"></polygon>
                <g id="Group-3" transform="translate(8.000000, 24.084507)">
                    <polygon id="Fill-6255" fill="#FFFFFF" points="86.4 20.8732394 0 20.8732394 0 0 86.4 0"></polygon>
                    <rect id="Rectangle-3" fill="#81B44C" x="65.6" y="8.02816901" width="16" height="6.42253521" rx="1.6"></rect>
                    <rect id="Rectangle-3-Copy" fill="#9B9B9B" x="20.8" y="9.63380282" width="38.4" height="3.21126761"></rect>
                    <ellipse id="Oval" fill="#4A3B8F" cx="10.4" cy="10.4366197" rx="5.6" ry="5.61971831"></ellipse>
                </g>
                <g id="Group-3-Copy" transform="translate(8.000000, 48.169014)">
                    <polygon id="Fill-6255" fill="#FFFFFF" points="86.4 20.8732394 0 20.8732394 0 0 86.4 0"></polygon>
                    <rect id="Rectangle-3" fill="#81B44C" x="65.6" y="8.02816901" width="16" height="6.42253521" rx="1.6"></rect>
                    <rect id="Rectangle-3-Copy" fill="#9B9B9B" x="20.8" y="9.63380282" width="38.4" height="3.21126761"></rect>
                    <ellipse id="Oval" fill="#4A3B8F" cx="10.4" cy="10.4366197" rx="5.6" ry="5.61971831"></ellipse>
                </g>
                <g id="Group-3-Copy-2" transform="translate(8.000000, 72.253521)">
                    <polygon id="Fill-6255" fill="#FFFFFF" points="86.4 20.8732394 0 20.8732394 0 0 86.4 0"></polygon>
                    <rect id="Rectangle-3" fill="#81B44C" x="65.6" y="8.02816901" width="16" height="6.42253521" rx="1.6"></rect>
                    <rect id="Rectangle-3-Copy" fill="#9B9B9B" x="20.8" y="9.63380282" width="38.4" height="3.21126761"></rect>
                    <ellipse id="Oval" fill="#4A3B8F" cx="10.4" cy="10.4366197" rx="5.6" ry="5.61971831"></ellipse>
                </g>
            </g>
            <g id="MagGlass" filter="url(#filter-1)" transform="translate(37.000000, 45.000000)">
                <path d="M26.67728,46.5979014 L9.40048,63.9355352 C7.25008,66.093507 3.76528,66.093507 1.61488,63.9355352 C-0.53712,61.7759577 -0.53712,58.2788873 1.61488,56.1209155 L18.93008,38.7447465 C20.84688,41.9479859 23.50448,44.6438451 26.67728,46.5979014" id="Fill-6309" fill="#84462D"></path>
                <path d="M22.27776,43.0719296 L1.55616,63.866493 C-0.53664,61.7085211 -0.51744,58.2596197 1.60416,56.1209155 L18.92896,38.7351127 C19.87296,40.3070282 21.00256,41.763338 22.27776,43.0719296" id="Fill-6310" fill="#9C6144"></path>
                <path d="M38.9312,49.934569 C26.1392,49.934569 15.7312,39.4899211 15.7312,26.6528789 C15.7312,13.8158366 26.1392,3.37118873 38.9312,3.37118873 C51.7232,3.37118873 62.1312,13.8158366 62.1312,26.6528789 C62.1312,39.4899211 51.7232,49.934569 38.9312,49.934569" id="Fill-6311" fill="#FFFFFF"></path>
                <path d="M38.9312,0.159921127 C24.3744,0.159921127 12.5312,12.0448225 12.5312,26.6528789 C12.5312,41.2609352 24.3744,53.1458366 38.9312,53.1458366 C53.488,53.1458366 65.3312,41.2609352 65.3312,26.6528789 C65.3312,12.0448225 53.488,0.159921127 38.9312,0.159921127 M38.9312,3.35192113 C51.7504,3.35192113 62.1504,13.7885408 62.1504,26.6528789 C62.1504,39.5172169 51.7504,49.9538366 38.9312,49.9538366 C26.0656,49.9538366 15.712,39.4192732 15.712,26.6528789 C15.712,13.7885408 26.112,3.35192113 38.9312,3.35192113" id="Fill-6312" fill="#CFD3D4"></path>
                <path d="M57.42384,26.6528789 C57.42384,16.4041183 49.14384,8.09496338 38.93104,8.09496338 C28.71824,8.09496338 20.43824,16.4041183 20.43824,26.6528789 C20.43824,36.9016394 28.71824,45.2107944 38.93104,45.2107944 C49.14384,45.2107944 57.42384,36.9016394 57.42384,26.6528789" id="Fill-6313" fill="#6FDAF1"></path>
                <path d="M38.9312,8.09480282 C28.7184,8.09480282 20.4384,16.4039577 20.4384,26.6527183 C20.4384,31.7233099 22.4704,36.3154225 25.7552,39.6647746 L51.8976,13.4303239 C48.56,10.1339577 43.984,8.09480282 38.9312,8.09480282" id="Fill-6314" fill="#9CE5F4"></path>
            </g>
        </g>
    </g>
</svg>