<?xml version="1.0" encoding="UTF-8"?>
<svg width="40px" height="41px" viewBox="0 0 40 41" version="1.1" xmlns="http://www.w3.org/2000/svg" xmlns:xlink="http://www.w3.org/1999/xlink">
    <!-- Generator: Sketch 46.2 (44496) - http://www.bohemiancoding.com/sketch -->
    <title>Self-Gray</title>
    <desc>Created with Sketch.</desc>
    <defs>
        <path d="M33.3333333,40.6613603 L6.66666667,40.6613603 C2.98466667,40.6613603 0,37.6270215 0,33.8845008 L0,6.77706281 C0,3.03420331 2.98466667,0.000203305785 6.66666667,0.000203305785 L33.3333333,0.000203305785 C37.0153333,0.000203305785 40,3.03420331 40,6.77706281 L40,33.8845008 C40,37.6270215 37.0153333,40.6613603 33.3333333,40.6613603" id="path-1"></path>
    </defs>
    <g id="Page-1" stroke="none" stroke-width="1" fill="none" fill-rule="evenodd">
        <g id="TF-Modal-BV-Step1A" transform="translate(-336.000000, -314.000000)">
            <g id="Self-Gray" transform="translate(336.000000, 314.000000)">
                <g id="Fill-3">
                    <mask id="mask-2" fill="white">
                        <use xlink:href="#path-1"></use>
                    </mask>
                    <use id="Mask" fill="#B7B2B9" xlink:href="#path-1"></use>
                    <path d="M41.6054667,71.0394124 L4.6728,33.7788835 C4.6728,33.7788835 9.65079868,27.555372 15.7672526,25.7312193 C17.0499871,25.3486605 18.1072158,29.3496021 19.4853516,28.985634 C20.4028267,28.7433273 21.2284206,28.4507002 21.9621333,28.1077528 L13.1097005,20.7567794 C13.7323586,13.4227606 14.4698362,9.50393851 15.3221333,9.00031322 C18.1124667,7.35150331 20.0481333,5.37130496 21.9621333,7.00554463 C26.5174667,9.71628843 27.4724667,9.82675124 27.4724667,9.82675124 L63.6824667,46.6356025 L41.6054667,71.0394124 Z" fill-opacity="0.09" fill="#000000" mask="url(#mask-2)"></path>
                </g>
                <path d="M8.0332,31.851443 C9.50353333,30.269724 13.0205333,28.5080793 15.9595333,27.4668149 L19.1365333,30.2131372 C19.6345333,30.6438066 20.3658667,30.6438066 20.8638667,30.2131372 L24.0405333,27.4668149 C26.9795333,28.5080793 30.4965333,30.269724 31.9668667,31.851443 L8.0332,31.851443 Z M24.1552,24.6479802 C23.7165333,24.5049884 23.2368667,24.6032529 22.8862,24.9065174 L19.9998667,27.4014182 L17.1138667,24.9065174 C16.7632,24.6032529 16.2838667,24.5049884 15.8452,24.6479802 C13.9785333,25.2531537 4.66653333,28.5107901 4.66653333,33.2068149 C4.66653333,33.955319 5.26353333,34.5621868 5.99986667,34.5621868 L33.9998667,34.5621868 C34.7362,34.5621868 35.3332,33.955319 35.3332,33.2068149 C35.3332,28.5107901 26.0218667,25.2531537 24.1552,24.6479802 L24.1552,24.6479802 Z M19.9998667,8.13243471 C23.4785333,8.13243471 26.3085333,11.0271702 26.3085333,14.5856992 C26.3085333,18.1449058 23.4785333,21.040319 19.9998667,21.040319 C16.5215333,21.040319 13.6915333,18.1449058 13.6915333,14.5856992 C13.6915333,11.0271702 16.5215333,8.13243471 19.9998667,8.13243471 L19.9998667,8.13243471 Z M19.9998667,23.7510628 C24.9488667,23.7510628 28.9752,19.6395421 28.9752,14.5856992 C28.9752,9.53253388 24.9488667,5.42169091 19.9998667,5.42169091 C15.0512,5.42169091 11.0248667,9.53253388 11.0248667,14.5856992 C11.0248667,19.6395421 15.0512,23.7510628 19.9998667,23.7510628 L19.9998667,23.7510628 Z" id="Fill-5" fill="#FFFFFF"></path>
            </g>
        </g>
    </g>
</svg>