<svg xmlns="http://www.w3.org/2000/svg" width="69" height="59">
    <defs>
        <filter id="a">
            <feOffset in="SourceAlpha"/>
            <feGaussianBlur result="blurOut" stdDeviation="2.236"/>
            <feFlood flood-color="#DB9200" result="floodOut"/>
            <feComposite in="floodOut" in2="blurOut" operator="out" result="compOut"/>
            <feComposite in="compOut" in2="SourceAlpha" operator="in"/>
            <feComponentTransfer>
                <feFuncA slope=".41" type="linear"/>
            </feComponentTransfer>
            <feBlend in2="SourceGraphic"/>
        </filter>
    </defs>
    <path fill="#FFDD98" fill-rule="evenodd" d="M61.502 39.749a1.574 1.574 0 0 1-.557 1.027c-4.88 4.096-15.205 6.64-26.945 6.64s-22.065-2.544-26.946-6.64a1.574 1.574 0 0 1-.557-1.027L4.014 18.994a1.59 1.59 0 0 1 .808-1.575 1.624 1.624 0 0 1 1.779.135c.039.031 4.245 3.222 9.478 3.222 6.843 0 12.368-5.301 16.422-15.755a1.604 1.604 0 0 1 1.498-1.022c.665 0 1.261.406 1.5 1.022 4.053 10.454 9.578 15.755 16.421 15.755 5.271 0 9.438-3.189 9.479-3.222a1.62 1.62 0 0 1 1.777-.135c.566.316.885.938.809 1.575l-2.483 20.755zm-45.625-7.757c-1.398 0-2.53 1.274-2.53 2.844 0 1.571 1.132 2.845 2.53 2.845 1.396 0 2.53-1.274 2.53-2.845 0-1.57-1.134-2.844-2.53-2.844zm19.129-4.427l-4.863 7.271 2.131 3.185 2.732 4.087 2.733-4.087 2.13-3.185-4.863-7.271zm18.733 4.419c-1.402 0-2.539 1.277-2.539 2.852s1.137 2.852 2.539 2.852c1.4 0 2.538-1.277 2.538-2.852s-1.138-2.852-2.538-2.852zM9.258 43.513c4.768 3.942 15.862 5.707 24.741 5.707 8.881 0 19.975-1.765 24.742-5.707a2.422 2.422 0 0 1 3.393.303 2.374 2.374 0 0 1-.306 3.364c-5.084 4.205-15.748 6.817-27.829 6.817-12.081 0-22.744-2.612-27.828-6.816a2.375 2.375 0 0 1-.306-3.365 2.423 2.423 0 0 1 3.393-.303z" filter="url(#a)"/>
</svg>
