<?xml version="1.0" encoding="utf-8"?>
<!-- Generator: Adobe Illustrator 19.2.1, SVG Export Plug-In . SVG Version: 6.00 Build 0)  -->
<svg version="1.1" id="Layer_1" xmlns="http://www.w3.org/2000/svg" xmlns:xlink="http://www.w3.org/1999/xlink" x="0px" y="0px"
	 viewBox="0 0 15 15" style="enable-background:new 0 0 15 15;" xml:space="preserve">
<style type="text/css">
	.st0{fill:#007EE3;}
</style>
<g>
	<g>
		<path class="st0" d="M9.96,3.75h1.15l-0.79,4.46c-0.09,0.52-0.09,0.89-0.01,1.12c0.08,0.23,0.27,0.35,0.55,0.35
			s0.56-0.07,0.84-0.2c0.27-0.13,0.52-0.33,0.74-0.61c0.22-0.27,0.4-0.62,0.53-1.04c0.14-0.42,0.21-0.91,0.21-1.48
			c0-0.82-0.14-1.52-0.41-2.11c-0.27-0.58-0.65-1.06-1.13-1.44c-0.48-0.38-1.04-0.66-1.68-0.83S8.61,1.71,7.87,1.71
			c-0.85,0-1.65,0.15-2.38,0.46C4.75,2.48,4.12,2.9,3.57,3.44C3.03,3.97,2.61,4.61,2.3,5.35C1.99,6.09,1.84,6.9,1.84,7.76
			c0,0.86,0.13,1.62,0.39,2.3c0.26,0.68,0.63,1.26,1.13,1.74c0.49,0.48,1.1,0.84,1.83,1.1c0.73,0.26,1.56,0.39,2.51,0.39
			c0.32,0,0.68-0.04,1.08-0.11c0.41-0.08,0.77-0.19,1.1-0.35l0.51,1.58c-0.45,0.22-0.91,0.37-1.37,0.46c-0.47,0.09-1,0.13-1.6,0.13
			c-1.06,0-2.05-0.15-2.95-0.46c-0.9-0.31-1.69-0.76-2.35-1.37c-0.66-0.6-1.18-1.35-1.55-2.25C0.19,10.04,0,9,0,7.83
			c0-1.2,0.21-2.28,0.64-3.24c0.43-0.96,1-1.79,1.72-2.47c0.72-0.68,1.56-1.2,2.51-1.57C5.83,0.18,6.84,0,7.9,0
			c1.01,0,1.94,0.15,2.81,0.44c0.86,0.29,1.62,0.71,2.25,1.25c0.64,0.54,1.13,1.21,1.5,1.99C14.82,4.46,15,5.35,15,6.35
			c0,0.7-0.12,1.36-0.37,1.97c-0.25,0.61-0.59,1.15-1.02,1.6c-0.43,0.45-0.94,0.81-1.51,1.07c-0.57,0.26-1.19,0.39-1.85,0.39
			c-0.27,0-0.53-0.03-0.76-0.09c-0.24-0.06-0.43-0.16-0.59-0.3c-0.16-0.14-0.28-0.33-0.35-0.56c-0.08-0.23-0.1-0.51-0.07-0.86H8.41
			c-0.16,0.23-0.34,0.46-0.53,0.67c-0.19,0.22-0.4,0.41-0.63,0.58c-0.23,0.17-0.48,0.3-0.76,0.4c-0.27,0.1-0.58,0.15-0.9,0.15
			c-0.26,0-0.51-0.06-0.76-0.17c-0.24-0.12-0.45-0.28-0.62-0.49c-0.18-0.21-0.32-0.46-0.42-0.76c-0.1-0.3-0.16-0.63-0.16-0.99
			C3.63,8.3,3.74,7.64,3.96,7c0.22-0.64,0.52-1.21,0.9-1.7C5.23,4.8,5.67,4.41,6.17,4.1c0.5-0.3,1.03-0.45,1.59-0.45
			c0.38,0,0.71,0.06,0.97,0.17c0.26,0.12,0.5,0.27,0.72,0.45L9.96,3.75z M8.92,5.74C8.78,5.62,8.63,5.53,8.48,5.46
			C8.32,5.4,8.13,5.36,7.9,5.36c-0.33,0-0.63,0.09-0.91,0.28C6.71,5.83,6.47,6.07,6.27,6.37c-0.2,0.3-0.36,0.63-0.47,0.99
			C5.69,7.73,5.63,8.09,5.63,8.44c0,0.36,0.07,0.66,0.22,0.89C6,9.56,6.26,9.67,6.62,9.67c0.15,0,0.32-0.05,0.49-0.14
			c0.18-0.09,0.34-0.22,0.51-0.37C7.79,9.01,7.95,8.83,8.1,8.64c0.15-0.2,0.29-0.41,0.41-0.63L8.92,5.74z"/>
	</g>
</g>
</svg>
