<?xml version="1.0" encoding="utf-8"?>
<!-- Generator: Adobe Illustrator 19.2.1, SVG Export Plug-In . SVG Version: 6.00 Build 0)  -->
<svg version="1.1" id="Capa_1" xmlns="http://www.w3.org/2000/svg" xmlns:xlink="http://www.w3.org/1999/xlink" x="0px" y="0px"
	 viewBox="0 0 64 64" style="enable-background:new 0 0 64 64;" xml:space="preserve">
<style type="text/css">
	.st0{fill:#E6E6E6;stroke:#E6E6E6;stroke-width:0.9647;stroke-miterlimit:10;}
	.st1{fill:#A1A1A1;}
</style>
<g>
	<path class="st0" d="M32,61.9c-8.8,0-17-3.8-22.7-10.5c-4.5-5.3-7-12.2-7-19.2C2.3,15.8,15.6,2.5,32,2.5
		c16.4,0,29.7,13.3,29.7,29.7c0,7-2.5,13.8-7,19.2C49,58,40.8,61.9,32,61.9z"/>
	<path class="st0" d="M32,3.6c15.8,0,28.6,12.8,28.6,28.6c0,7-2.5,13.5-6.7,18.4C48.6,56.8,40.7,60.7,32,60.7
		c-8.7,0-16.6-3.9-21.8-10.1c-4.2-5-6.7-11.4-6.7-18.4C3.4,16.4,16.2,3.6,32,3.6 M32,1.3C15,1.3,1.2,15.2,1.2,32.2
		c0,7.3,2.6,14.3,7.3,19.9C14.3,59,22.9,63,32,63s17.7-4,23.6-10.9c4.7-5.6,7.3-12.6,7.3-19.9C62.8,15.2,49,1.3,32,1.3L32,1.3z"/>
</g>
<ellipse class="st1" cx="32" cy="29.3" rx="12.4" ry="12.9"/>
<path class="st1" d="M54.2,49.2C48.9,55.8,40.9,59.9,32,59.9S15.1,55.8,9.8,49.2c2.3-3,5.8-5,9.8-5h24.8
	C48.4,44.2,52,46.1,54.2,49.2z"/>
</svg>
