<?xml version="1.0" encoding="UTF-8"?>
<svg width="72px" height="78px" viewBox="0 0 72 78" version="1.1" xmlns="http://www.w3.org/2000/svg" xmlns:xlink="http://www.w3.org/1999/xlink">
    <!-- Generator: Sketch 40.3 (33839) - http://www.bohemiancoding.com/sketch -->
    <title>Optimize-Icon</title>
    <desc>Created with Sketch.</desc>
    <defs>
        <path d="M30.947389,0.219649328 C30.4241605,-0.07319655 29.5759106,-0.0732363343 29.052611,0.219649328 L0.947389025,15.949867 C0.424160514,16.2427129 0,16.9728063 0,17.5794039 L0,48.4205961 C0,49.0277186 0.424089432,49.7572473 0.947389025,50.050133 L29.052611,65.7803507 C29.5758395,66.0731966 30.4240894,66.0732363 30.947389,65.7803507 L59.052611,50.050133 C59.5758395,49.7572871 60,49.0271937 60,48.4205961 L60,17.5794039 C60,16.9722814 59.5759106,16.2427527 59.052611,15.949867 L30.947389,0.219649328 Z" id="path-1"></path>
        <filter x="-50%" y="-50%" width="200%" height="200%" filterUnits="objectBoundingBox" id="filter-2">
            <feOffset dx="0" dy="0" in="SourceAlpha" result="shadowOffsetOuter1"></feOffset>
            <feGaussianBlur stdDeviation="3" in="shadowOffsetOuter1" result="shadowBlurOuter1"></feGaussianBlur>
            <feColorMatrix values="0 0 0 0 0   0 0 0 0 0   0 0 0 0 0  0 0 0 0.217391304 0" type="matrix" in="shadowBlurOuter1"></feColorMatrix>
        </filter>
    </defs>
    <g id="Page-1" stroke="none" stroke-width="1" fill="none" fill-rule="evenodd">
        <g id="KTC-Landing-768" transform="translate(-42.000000, -1189.000000)">
            <g id="Section2" transform="translate(0.000000, 980.000000)">
                <g id="Optimize" transform="translate(45.000000, 215.000000)">
                    <g id="Optimize-Icon" transform="translate(3.000000, 0.000000)">
                        <g id="Page-1">
                            <use fill="black" fill-opacity="1" filter="url(#filter-2)" xlink:href="#path-1"></use>
                            <use fill="#FFFFFF" fill-rule="evenodd" xlink:href="#path-1"></use>
                        </g>
                        <g id="Page-1" transform="translate(10.500000, 17.250000)">
                            <path d="M2.25,4.5 C1.007,4.5 0,3.493 0,2.25 C0,1.007 1.007,0 2.25,0 C3.493,0 4.5,1.007 4.5,2.25 C4.5,3.493 3.493,4.5 2.25,4.5 Z" id="Fill-1" fill="#19B2CC"></path>
                            <path d="M4.5,30.75 C4.5,31.993 3.493,33 2.25,33 C1.007,33 0,31.993 0,30.75 C0,29.507 1.007,28.5 2.25,28.5 C3.493,28.5 4.5,29.507 4.5,30.75" id="Fill-3" fill="#19B2CC"></path>
                            <path d="M39,30.75 C39,31.993 37.993,33 36.75,33 C35.507,33 34.5,31.993 34.5,30.75 C34.5,29.507 35.507,28.5 36.75,28.5 C37.993,28.5 39,29.507 39,30.75" id="Fill-5" fill="#19B2CC"></path>
                            <path d="M18.75,12.75 C18.75,13.993 17.743,15 16.5,15 C15.257,15 14.25,13.993 14.25,12.75 C14.25,11.507 15.257,10.5 16.5,10.5 C17.743,10.5 18.75,11.507 18.75,12.75" id="Fill-7" fill="#263348"></path>
                            <path d="M27.75,24 C27.75,25.243 26.743,26.25 25.5,26.25 C24.257,26.25 23.25,25.243 23.25,24 C23.25,22.757 24.257,21.75 25.5,21.75 C26.743,21.75 27.75,22.757 27.75,24" id="Fill-9" fill="#263348"></path>
                            <path d="M36.75,4.5 C36.75,5.743 35.743,6.75 34.5,6.75 C33.257,6.75 32.25,5.743 32.25,4.5 C32.25,3.257 33.257,2.25 34.5,2.25 C35.743,2.25 36.75,3.257 36.75,4.5" id="Fill-11" fill="#263348"></path>
                            <path d="M11.25,24 C11.25,25.243 10.243,26.25 9,26.25 C7.757,26.25 6.75,25.243 6.75,24 C6.75,22.757 7.757,21.75 9,21.75 C10.243,21.75 11.25,22.757 11.25,24" id="Fill-13" fill="#263348"></path>
                            <polyline id="Stroke-15" stroke="#19B2CC" stroke-width="2.5" stroke-linejoin="round" points="36.75 30.75 2.25 30.75 2.25 2.25"></polyline>
                            <path d="M9.09640078,23.5999584 L16.7426626,12.2126066" id="Stroke-19" stroke="#263348" stroke-width="1.5" stroke-linecap="round" stroke-linejoin="round" stroke-dasharray="1.125,2.925000071525574"></path>
                            <path d="M17.3869801,13.9766447 L24.7072785,23.8999402" id="Stroke-23" stroke="#263348" stroke-width="1.5" stroke-linecap="round" stroke-linejoin="round" stroke-dasharray="1.125,2.925000071525574"></path>
                            <path d="M25.0106145,24.2258169 L35.1617221,4.56119365" id="Stroke-27" stroke="#263348" stroke-width="1.5" stroke-linecap="round" stroke-linejoin="round" stroke-dasharray="1.125,2.925000071525574"></path>
                        </g>
                    </g>
                </g>
            </g>
        </g>
    </g>
</svg>