<?xml version="1.0" encoding="utf-8"?>
<!-- Generator: Adobe Illustrator 13.0.0, SVG Export Plug-In . SVG Version: 6.00 Build 14948)  -->
<!DOCTYPE svg PUBLIC "-//W3C//DTD SVG 1.1//EN" "http://www.w3.org/Graphics/SVG/1.1/DTD/svg11.dtd">
<svg version="1.1" id="Layer_1" xmlns="http://www.w3.org/2000/svg" xmlns:xlink="http://www.w3.org/1999/xlink" x="0px" y="0px"
	 width="500px" height="500px" viewBox="0 0 500 500" enable-background="new 0 0 500 500" xml:space="preserve">
<g>
	<g>
		<path fill="#0172B8" d="M336,243.734v-27.498c0-8.194-7.594-14.236-15.788-14.236h-41.926c-8.194,0-14.286,6.042-14.286,14.236
			v2.442v25.056c-13,9.463-21.522,23.784-23.56,40.167c0.006,0.024-0.181,0.05-0.174,0.074c-0.313,2.407-0.577,4.857-0.577,7.346
			c0,32.888,26.667,59.548,59.554,59.548s60.026-26.661,60.026-59.548C359.27,271.871,350,254.602,336,243.734z M299.249,216.623
			c4.481,0,8.115,3.633,8.115,8.115c0,4.482-3.634,8.115-8.115,8.115s-8.115-3.633-8.115-8.115
			C291.134,220.256,294.768,216.623,299.249,216.623z M322.443,314.516c-6.195,6.194-14.434,9.606-23.194,9.606
			c-8.763,0-16.999-3.412-23.194-9.606c-4.179-4.179-7.085-9.287-8.539-14.858c-0.336-1.292-0.592-2.609-0.771-3.944
			c-0.018-0.135-0.033-0.27-0.051-0.404c-0.062-0.513-0.11-1.026-0.148-1.543c-0.012-0.166-0.027-0.332-0.036-0.498
			c-0.038-0.646-0.063-1.295-0.063-1.947c0-0.617,0.021-1.23,0.056-1.84c0.009-0.156,0.024-0.312,0.034-0.467
			c0.033-0.472,0.072-0.94,0.126-1.408c0.017-0.148,0.036-0.297,0.055-0.444c0.063-0.498,0.136-0.993,0.222-1.485
			c0.018-0.102,0.033-0.203,0.053-0.305c0.109-0.594,0.23-1.184,0.369-1.768c1.396-5.813,4.361-11.146,8.695-15.479
			c6.194-6.195,14.432-9.606,23.194-9.606c8.762,0,16.999,3.411,23.194,9.606c6.194,6.194,9.606,14.433,9.606,23.194
			C332.051,300.082,328.639,308.32,322.443,314.516z"/>
		<path fill="#0172B8" d="M232.494,314.532c-3.505,3.786-7.881,6.715-12.871,8.524c-8.237,2.988-17.144,2.59-25.08-1.123
			c-7.937-3.711-13.953-10.291-16.94-18.528c-2.988-8.237-2.589-17.144,1.123-25.08s10.292-13.953,18.529-16.94
			c8.237-2.988,17.144-2.589,25.08,1.123c3.701,1.731,6.977,4.092,9.731,6.947c1.136-3.505,2.858-6.926,4.529-10.201
			c3.99-7.822,10.407-14.917,16.407-20.775v-22.243c0-0.91-0.291-1.81-0.199-2.696l-25.09-11.654
			c-7.422-3.471-16.338-0.268-19.81,7.154l-11.691,24.909c-17.668,3.734-33.453,15.427-41.693,33.046
			c-13.932,29.791-1.086,65.235,28.705,79.167c21.504,10.056,45.944,6.15,63.122-8.002c-5.1-5.749-9.206-12.227-12.209-19.325
			C233.536,317.416,232.997,315.979,232.494,314.532z M235.318,220.519c4.482,0,8.115,3.633,8.115,8.115
			c0,4.482-3.633,8.115-8.115,8.115s-8.115-3.633-8.115-8.115C227.203,224.152,230.836,220.519,235.318,220.519z"/>
		<path fill="#0172B8" d="M247.924,205.046c11.249,0,20.4-9.152,20.4-20.4c0-0.272-0.03-0.537-0.041-0.807
			c0.984,0.147,1.984,0.247,3.008,0.247c3.068,0,5.969-0.7,8.582-1.919c2.678,8.146,10.345,14.049,19.375,14.049
			c11.249,0,20.4-9.152,20.4-20.4c0-11.249-9.152-20.4-20.4-20.4c-3.068,0-5.969,0.7-8.582,1.919
			c-2.678-8.146-10.346-14.049-19.375-14.049c-11.249,0-20.4,9.152-20.4,20.4c0,0.272,0.03,0.537,0.041,0.807
			c-0.983-0.147-1.983-0.247-3.008-0.247c-11.249,0-20.4,9.152-20.4,20.4S236.675,205.046,247.924,205.046z M299.249,166.542
			c5.121,0,9.273,4.152,9.273,9.273s-4.152,9.273-9.273,9.273s-9.272-4.152-9.272-9.273S294.127,166.542,299.249,166.542z
			 M271.292,154.412c5.121,0,9.272,4.152,9.272,9.273s-4.151,9.273-9.272,9.273s-9.272-4.152-9.272-9.273
			S266.171,154.412,271.292,154.412z M247.924,175.373c5.121,0,9.273,4.152,9.273,9.273s-4.152,9.273-9.273,9.273
			c-5.121,0-9.273-4.152-9.273-9.273C238.651,179.524,242.803,175.373,247.924,175.373z"/>
	</g>
</g>
</svg>
