<?xml version="1.0" encoding="utf-8"?>
<!-- Generator: Adobe Illustrator 17.1.0, SVG Export Plug-In . SVG Version: 6.00 Build 0)  -->
<!DOCTYPE svg PUBLIC "-//W3C//DTD SVG 1.1//EN" "http://www.w3.org/Graphics/SVG/1.1/DTD/svg11.dtd">
<svg version="1.1" id="Capa_1" xmlns="http://www.w3.org/2000/svg" xmlns:xlink="http://www.w3.org/1999/xlink" x="0px" y="0px"
	 viewBox="0 0 350.2 350.2" enable-background="new 0 0 350.2 350.2" xml:space="preserve">
<g>
	<g>
		<g>
			<path fill="#0072BC" d="M233.7,248.7c-3.5-3.5-8.4-5.4-13.7-5.4c-5.6,0-11,2.2-14.9,6l-24.2,24.2l-6.5-3.6
				c-14.4-8-34.1-18.9-55-39.8c-20.9-20.9-31.9-40.7-39.9-55.1l-3.6-6.4l24.3-24.3c8-8.1,8.3-20.9,0.6-28.6L55.9,70.9
				c-3.5-3.5-8.4-5.4-13.7-5.4c-5.6,0-11,2.2-14.9,6l-11,11.1l-1,1.7c-4.1,5.3-7.5,11.2-10,17.6c-2.3,6.1-3.8,12-4.5,17.8
				c-5.8,48.1,16.4,92.2,76.5,152.3c71.2,71.2,130.8,76.8,147.3,76.8c2.8,0,4.6-0.2,5-0.2c6.1-0.7,12-2.2,17.9-4.5
				c6.4-2.5,12.3-5.8,17.5-9.9l2.5-2l10.3-10.1c8-8,8.3-20.8,0.6-28.5L233.7,248.7z"/>
		</g>
		<g>
			<g>
				<path fill="#0072BC" d="M186.2,165.8c-9.8-9.8-22-16.8-35.4-20.3l-6.2-1.6l-1.8,6.1c-0.7,2.3-1.4,4.4-2.3,6.3l-3.3,7.1l7.6,2
					c10.1,2.6,19.3,7.8,26.7,15.1c7,7,12.1,15.7,14.8,25.3l1.3,4.6l9.6,0.5c1,0.1,1.9,0.2,2.9,0.3l9.1,0.9l-2.1-8.9
					C203.7,189,196.5,176,186.2,165.8z"/>
			</g>
			<g>
				<path fill="#0072BC" d="M217.7,134.3c-18.1-18.1-41.3-29.9-66.9-34.2l-8.9-1.5l1.4,8.9c0.4,2.6,0.8,5.3,1.1,7.9l0.6,4.7l4.7,0.9
					c20.4,3.8,38.9,13.4,53.4,27.9c16.6,16.6,26.8,37.8,29.3,61.4l0.5,5l7.5,1.1c1.2,0.1,2.4,0.1,4.2,0.1l9.1,0.3l-0.7-7.4
					C250.2,180.5,237.9,154.5,217.7,134.3z"/>
			</g>
			<g>
				<path fill="#0072BC" d="M251.9,100.1c-29.7-29.7-69.3-47.4-111.5-49.8l-8.2-0.5l1.4,8.1c0.4,2.6,0.9,5.3,1.5,8.1l1,4.9l5,0.3
					c36.4,2.5,70.6,18,96.2,43.6c25.2,25.2,40.7,59,43.4,95.1l0.5,6.4l6.4-0.4c1.5-0.1,3-0.2,5.2-0.4l9.2-0.7l-0.5-6.5
					C298.2,167.3,280.7,128.9,251.9,100.1z"/>
			</g>
			<g>
				<path fill="#0072BC" d="M349.7,203.7c-4.2-52-26.8-100.9-63.6-137.8C246.8,26.6,194.5,3.8,138.9,1.7l-6.3-0.3l-0.5,6.3
					c-0.1,1.8-0.2,3.5-0.3,5.3l-0.4,9.2l6.5,0.2c50.5,1.9,97.9,22.5,133.4,58.1c33.3,33.3,53.8,77.7,57.6,124.8l0.5,6.6l6.7-0.6
					c2.3-0.2,4.5-0.4,6.9-0.6l7.2-0.6L349.7,203.7z"/>
			</g>
		</g>
	</g>
</g>
</svg>
