<?xml version="1.0" encoding="utf-8"?>
<!-- Generator: Adobe Illustrator 13.0.0, SVG Export Plug-In . SVG Version: 6.00 Build 14948)  -->
<!DOCTYPE svg PUBLIC "-//W3C//DTD SVG 1.1//EN" "http://www.w3.org/Graphics/SVG/1.1/DTD/svg11.dtd">
<svg version="1.1" id="Capa_1" xmlns="http://www.w3.org/2000/svg" xmlns:xlink="http://www.w3.org/1999/xlink" x="0px" y="0px"
	 width="612px" height="792px" viewBox="0 0 612 792" enable-background="new 0 0 612 792" xml:space="preserve">
<g>
	<g>
		<path fill="#0172B8" d="M476,498c-23.365,0-44.825,7.942-62.022,21.162L236.524,412.694C237.415,407.247,238,401.691,238,396
			c0-5.705-0.585-11.247-1.476-16.701l177.453-106.468C431.175,286.064,452.635,294,476,294c56.324,0,102-45.676,102-102
			S532.324,90,476,90s-102,45.676-102,102c0,5.691,0.585,11.247,1.489,16.694L198.037,315.162C180.839,301.942,159.378,294,136,294
			c-56.324,0-102,45.676-102,102s45.676,102,102,102c23.378,0,44.839-7.936,62.037-21.168l177.453,106.467
			C374.585,588.753,374,594.295,374,600c0,56.324,45.676,102,102,102s102-45.676,102-102S532.324,498,476,498z"/>
	</g>
</g>
</svg>
