<?xml version="1.0" encoding="utf-8"?>
<!-- Generator: Adobe Illustrator 13.0.0, SVG Export Plug-In . SVG Version: 6.00 Build 14948)  -->
<!DOCTYPE svg PUBLIC "-//W3C//DTD SVG 1.1//EN" "http://www.w3.org/Graphics/SVG/1.1/DTD/svg11.dtd">
<svg version="1.1" id="Capa_1" xmlns="http://www.w3.org/2000/svg" xmlns:xlink="http://www.w3.org/1999/xlink" x="0px" y="0px"
	 width="612px" height="792px" viewBox="0 0 612 792" enable-background="new 0 0 612 792" xml:space="preserve">
<g>
	<path fill="#0172B8" d="M83.216,653.438c0,0-0.544,13.681,12.82,13.681c16.625,0,154.268-0.182,154.268-0.182l0.227-126.408
		c0,0-2.174-20.838,18.052-20.838h64.008c23.918,0,22.446,20.838,22.446,20.838l-0.271,126.001c0,0,130.508,0,151.007,0
		c16.964,0,16.194-17.033,16.194-17.033V416.453L309.148,227.145L83.216,416.453V653.438z"/>
	<path fill="#0172B8" d="M0,398.831c0,0,19.185,35.356,61.019,0l250.009-211.504l234.403,210.191c48.426,34.926,66.568,0,66.568,0
		L311.028,124.881L0,398.831z"/>
	<polygon fill="#0172B8" points="539.747,186.828 479.453,186.828 479.702,259.942 539.747,310.882 	"/>
</g>
</svg>
