<?xml version="1.0" encoding="utf-8"?>
<!-- Generator: Adobe Illustrator 17.1.0, SVG Export Plug-In . SVG Version: 6.00 Build 0)  -->
<!DOCTYPE svg PUBLIC "-//W3C//DTD SVG 1.1//EN" "http://www.w3.org/Graphics/SVG/1.1/DTD/svg11.dtd">
<svg version="1.1" id="Capa_1" xmlns="http://www.w3.org/2000/svg" xmlns:xlink="http://www.w3.org/1999/xlink" x="0px" y="0px"
	 viewBox="0 0 929.6 929.6" enable-background="new 0 0 929.6 929.6" xml:space="preserve">
<g>
	<g>
		<path fill="#0072BC" d="M404.3,894.6c0,19.3,15.7,35,35,35h59c19.3,0,35-15.7,35-35v-157h-129V894.6z"/>
		<path fill="#0072BC" d="M533.3,35c0-19.3-15.7-35-35-35h-59c-19.3,0-35,15.7-35,35v30.7h129V35z"/>
		<rect x="404.3" y="365.7" fill="#0072BC" width="129" height="71.9"/>
		<path fill="#0072BC" d="M779.3,109.4c-6.6-8.6-16.9-13.7-27.8-13.7H533.3h-129H193.8c-19.3,0-35,15.7-35,35v170
			c0,19.3,15.7,35,35,35h210.5h129h218.2c10.9,0,21.2-5.1,27.8-13.7l65.2-85c9.6-12.6,9.6-30,0-42.6L779.3,109.4z"/>
		<path fill="#0072BC" d="M533.3,707.6h202.5c19.3,0,35-15.7,35-35v-170c0-19.3-15.7-35-35-35H533.3h-129H178.1
			c-10.9,0-21.2,5.1-27.8,13.7l-65.2,85c-9.6,12.6-9.6,30,0,42.6l65.2,85c6.6,8.6,16.9,13.7,27.8,13.7h226.2L533.3,707.6
			L533.3,707.6z"/>
	</g>
</g>
</svg>
