<?xml version="1.0" encoding="utf-8"?>
<!-- Generator: Adobe Illustrator 17.1.0, SVG Export Plug-In . SVG Version: 6.00 Build 0)  -->
<!DOCTYPE svg PUBLIC "-//W3C//DTD SVG 1.1//EN" "http://www.w3.org/Graphics/SVG/1.1/DTD/svg11.dtd">
<svg version="1.1" id="Capa_1" xmlns="http://www.w3.org/2000/svg" xmlns:xlink="http://www.w3.org/1999/xlink" x="0px" y="0px"
	 viewBox="0 0 176.6 176.6" enable-background="new 0 0 176.6 176.6" xml:space="preserve">
<g>
	<g>
		<path fill="#0072BC" d="M90,96l3.2-3.7c-1.5,0.6-3.1,0.9-4.8,0.9c-1.7,0-3.3-0.3-4.8-0.9l3.2,3.7h0.1l-8.3,20l9.8,9.8l9.8-9.8
			L90,96L90,96z"/>
		<path fill="#0072BC" d="M140.4,0H36.3C25.2,0,16.1,9,16.1,20.2v4.6h12.6c4.2,0,7.6,3.4,7.6,7.6c0,4.2-3.4,7.5-7.6,7.5H16.1v12.9
			h12.6c4.2,0,7.6,3.4,7.6,7.6c0,4.2-3.4,7.6-7.6,7.6H16.1v12.9h12.6c4.2,0,7.6,3.4,7.6,7.6c0,4.2-3.4,7.6-7.6,7.6H16.1v12.9h12.6
			c4.2,0,7.6,3.4,7.6,7.6c0,4.2-3.4,7.6-7.6,7.6H16.1v12.9h12.6c4.2,0,7.6,3.4,7.6,7.6c0,4.2-3.4,7.6-7.6,7.6H16.1v4.6
			c0,11.1,9,20.2,20.2,20.2h104.1c11.1,0,20.2-9,20.2-20.2V20.2C160.5,9,151.5,0,140.4,0z M53.3,117.2c0-9.7,11.2-22.9,26.4-26.8
			C73.3,86.2,69,77.8,69,70.2c0-10.7,8.7-19.4,19.3-19.4c10.7,0,19.4,8.7,19.4,19.4c0,7.6-4.4,16-10.7,20.2
			c15.2,3.8,26.4,17,26.4,26.8C123.3,128.7,53.3,128.7,53.3,117.2z"/>
	</g>
</g>
</svg>
