<?xml version="1.0" encoding="utf-8"?>
<!-- Generator: Adobe Illustrator 19.2.1, SVG Export Plug-In . SVG Version: 6.00 Build 0)  -->
<svg version="1.1" id="Layer_1" xmlns="http://www.w3.org/2000/svg" xmlns:xlink="http://www.w3.org/1999/xlink" x="0px" y="0px"
	 viewBox="0 0 42 42" style="enable-background:new 0 0 42 42;" xml:space="preserve">
<style type="text/css">
	.st0{fill:#F5C419;}
	.st1{fill:#FFFFFF;}
</style>
<circle class="st0" cx="21" cy="21" r="21"/>
<g>
	<path class="st1" d="M10.08,17.85c-0.17-0.17-0.44-0.17-0.61,0C8.52,18.81,8,20.08,8,21.43c0,1.35,0.52,2.62,1.47,3.57
		c0.08,0.09,0.2,0.13,0.31,0.13S10,25.09,10.08,25c0.17-0.17,0.17-0.45,0-0.62c-0.78-0.79-1.21-1.84-1.21-2.96
		c0-1.12,0.43-2.17,1.21-2.96C10.25,18.3,10.25,18.03,10.08,17.85z"/>
	<path class="st1" d="M11.6,24.14c0.11,0,0.22-0.04,0.31-0.13c0.17-0.17,0.17-0.45,0-0.62c-1.11-1.12-1.11-2.93,0-4.05
		c0.17-0.17,0.17-0.45,0-0.62s-0.44-0.17-0.61,0c-1.45,1.46-1.45,3.83,0,5.28C11.38,24.09,11.49,24.14,11.6,24.14z"/>
	<path class="st1" d="M32.53,17.85c-0.17-0.17-0.44-0.17-0.61,0c-0.17,0.17-0.17,0.45,0,0.62c0.78,0.79,1.21,1.84,1.21,2.96
		c0,1.12-0.43,2.17-1.21,2.96c-0.17,0.17-0.17,0.45,0,0.62c0.08,0.09,0.2,0.13,0.31,0.13c0.11,0,0.22-0.04,0.31-0.13
		c0.95-0.95,1.47-2.22,1.47-3.57C34,20.08,33.48,18.81,32.53,17.85z"/>
	<path class="st1" d="M30.09,18.73c-0.17,0.17-0.17,0.45,0,0.62c1.11,1.12,1.11,2.93,0,4.05c-0.17,0.17-0.17,0.45,0,0.62
		c0.08,0.09,0.2,0.13,0.31,0.13s0.22-0.04,0.31-0.13c1.45-1.46,1.45-3.83,0-5.28C30.54,18.56,30.26,18.56,30.09,18.73z"/>
	<path class="st1" d="M28.38,21.65v-3.92c0.02-2.99-1.98-4.98-3.7-5.77c-0.48-0.22-0.99-0.39-1.51-0.51v-0.27
		C23.17,9.98,22.19,9,21,9s-2.17,0.98-2.17,2.18v0.31c-0.47,0.12-0.93,0.27-1.36,0.48c-1.9,0.88-3.82,3-3.84,5.76v3.93
		c0,2.79-0.98,5.18-2.91,7.11c-0.11,0.12-0.16,0.28-0.11,0.44c0.05,0.16,0.18,0.27,0.34,0.3l4.11,0.72
		c0.78,0.13,1.48,0.24,2.14,0.33c0.76,1.49,2.24,2.45,3.86,2.45c1.62,0,3.11-0.96,3.86-2.45c0.66-0.09,1.36-0.2,2.13-0.33l4.11-0.72
		c0.16-0.03,0.29-0.14,0.34-0.3c0.05-0.16,0.01-0.33-0.11-0.44C29.4,26.74,28.38,24.35,28.38,21.65z M19.7,11.18
		c0-0.72,0.58-1.31,1.3-1.31s1.3,0.59,1.3,1.31v0.08c-0.86-0.12-1.74-0.12-2.6,0.02V11.18z M16.23,18.16
		C16.23,18.16,16.23,18.16,16.23,18.16c-0.24,0-0.43-0.2-0.43-0.44c0.01-2.04,1.63-3.34,2.58-3.78c1.67-0.77,3.72-0.77,5.4,0
		c0.22,0.1,0.31,0.36,0.21,0.58c-0.1,0.22-0.36,0.32-0.57,0.22c-1.45-0.67-3.24-0.67-4.68,0c-0.77,0.36-2.06,1.38-2.07,2.99
		C16.67,17.97,16.47,18.16,16.23,18.16z M23.86,30.68c-0.66,0.9-1.68,1.45-2.78,1.45c-1.1,0-2.12-0.55-2.78-1.45h0
		c0.17,0.02,0.33,0.03,0.5,0.05c0.08,0.01,0.16,0.02,0.24,0.02c0.06,0,0.12,0.01,0.18,0.01c1.26,0.09,2.42,0.09,3.68,0
		c0.07-0.01,0.15-0.01,0.22-0.01c0.09-0.01,0.19-0.02,0.28-0.03c0.15-0.01,0.3-0.03,0.45-0.04C23.85,30.68,23.86,30.68,23.86,30.68z
		"/>
</g>
</svg>
