<svg width="60" height="50" viewBox="0 0 60 50" version="1.1" xmlns="http://www.w3.org/2000/svg" xmlns:xlink="http://www.w3.org/1999/xlink"><title>crown</title><desc>Created with Sketch.</desc><g id="Page-1" stroke="none" stroke-width="1" fill="none" fill-rule="evenodd"><path d="M57.502,36.749 C57.4549647,37.1501145 57.2555468,37.5178026 56.945,37.776 C52.065,41.872 41.74,44.416 30,44.416 C18.26,44.416 7.935,41.872 3.054,37.776 C2.74345325,37.5178026 2.54403525,37.1501145 2.497,36.749 L0.014,15.994 C-0.0608304444,15.3537505 0.258304025,14.7316753 0.822,14.419 C1.38883119,14.1050697 2.08803233,14.1581288 2.601,14.554 C2.64,14.585 6.846,17.776 12.079,17.776 C18.922,17.776 24.447,12.475 28.501,2.021 C28.7413721,1.40367396 29.3365286,0.997632621 29.999,0.999 C30.664,0.999 31.26,1.405 31.499,2.021 C35.552,12.475 41.077,17.776 47.92,17.776 C53.191,17.776 57.358,14.587 57.399,14.554 C57.9111458,14.1579684 58.6099037,14.1048833 59.176,14.419 C59.742,14.735 60.061,15.357 59.985,15.994 L57.502,36.749 Z M11.877,28.992 C10.479,28.992 9.347,30.266 9.347,31.836 C9.347,33.407 10.479,34.681 11.877,34.681 C13.273,34.681 14.407,33.407 14.407,31.836 C14.407,30.266 13.273,28.992 11.877,28.992 L11.877,28.992 Z M31.006,24.565 L26.143,31.836 L28.274,35.021 L31.006,39.108 L33.739,35.021 L35.869,31.836 L31.006,24.565 L31.006,24.565 Z M49.739,28.984 C48.337,28.984 47.2,30.261 47.2,31.836 C47.2,33.411 48.337,34.688 49.739,34.688 C51.139,34.688 52.277,33.411 52.277,31.836 C52.277,30.261 51.139,28.984 49.739,28.984 Z M5.258,40.513 C10.026,44.455 21.12,46.22 29.999,46.22 C38.88,46.22 49.974,44.455 54.741,40.513 C55.763955,39.6672011 57.2770986,39.8023271 58.134,40.816 C58.5432685,41.3010897 58.7412578,41.9298598 58.6837632,42.5619255 C58.6262685,43.1939913 58.3180776,43.7767176 57.828,44.18 C52.744,48.385 42.08,50.997 29.999,50.997 C17.918,50.997 7.255,48.385 2.171,44.181 C1.68085969,43.7775389 1.37264672,43.1946427 1.31515431,42.5624141 C1.2576619,41.9301854 1.45567607,41.3012549 1.865,40.816 C2.72217128,39.8028469 4.23487146,39.6677605 5.258,40.513 L5.258,40.513 Z" id="crown" transform="translate(0.000000, -1.000000)" fill="#FFDD98"/></g></svg>