<?xml version="1.0" encoding="utf-8"?>
<!-- Generator: Adobe Illustrator 19.2.1, SVG Export Plug-In . SVG Version: 6.00 Build 0)  -->
<svg version="1.1" id="Layer_1" xmlns="http://www.w3.org/2000/svg" xmlns:xlink="http://www.w3.org/1999/xlink" x="0px" y="0px"
	 viewBox="0 0 14 13" style="enable-background:new 0 0 14 13;" xml:space="preserve">
<style type="text/css">
	.st0{fill:#F5C419;}
</style>
<g>
	<g>
		<g>
			<path class="st0" d="M1.35,4.05h1.9c0.4,0,0.73-0.31,0.73-0.7c0-0.28,0.23-0.51,0.53-0.51H9.5c0.29,0,0.52,0.23,0.52,0.51
				c0,0.39,0.33,0.7,0.73,0.7h1.9c0.4,0,0.73-0.31,0.73-0.7V1.99c0-1.1-0.92-1.99-2.06-1.99H2.68C1.54,0,0.62,0.89,0.62,1.99v1.36
				C0.62,3.74,0.94,4.05,1.35,4.05z"/>
			<path class="st0" d="M13.94,11.18l-0.92-3.13c-0.42-1.43-1.71-2.44-3.21-2.59V4.62c0-0.53-0.44-0.96-0.99-0.96
				c-0.55,0-0.99,0.43-0.99,0.96v0.8H6.17v-0.8c0-0.53-0.44-0.96-0.99-0.96c-0.55,0-0.99,0.43-0.99,0.96v0.83
				C2.69,5.61,1.4,6.62,0.98,8.05l-0.92,3.13c-0.13,0.43-0.04,0.89,0.24,1.25C0.58,12.79,1.02,13,1.48,13h11.04
				c0.46,0,0.9-0.21,1.18-0.57C13.98,12.08,14.07,11.61,13.94,11.18z M6.63,11.2c0,0.14-0.11,0.25-0.26,0.25H5.06
				c-0.14,0-0.26-0.11-0.26-0.25V9.93c0-0.14,0.11-0.25,0.26-0.25h1.31c0.14,0,0.26,0.11,0.26,0.25V11.2z M6.63,8.72
				c0,0.14-0.11,0.25-0.26,0.25H5.06c-0.14,0-0.26-0.11-0.26-0.25V7.46c0-0.14,0.11-0.25,0.26-0.25h1.31c0.14,0,0.26,0.11,0.26,0.25
				V8.72z M9.19,11.2c0,0.14-0.11,0.25-0.26,0.25H7.63c-0.14,0-0.26-0.11-0.26-0.25V9.94c0-0.14,0.11-0.25,0.26-0.25h1.31
				c0.14,0,0.26,0.11,0.26,0.25V11.2z M9.19,8.72c0,0.14-0.11,0.25-0.26,0.25H7.63c-0.14,0-0.26-0.11-0.26-0.25V7.46
				c0-0.14,0.11-0.25,0.26-0.25h1.31c0.14,0,0.26,0.11,0.26,0.25V8.72z"/>
		</g>
	</g>
</g>
</svg>
