<svg version="1.1" id="Layer_1" xmlns="http://www.w3.org/2000/svg" xmlns:xlink="http://www.w3.org/1999/xlink" x="0" y="0" viewBox="0 0 16 13" xml:space="preserve" enable-background="new 0 0 16 13"><style type="text/css">.st0{fill:#88d042}</style><path class="st0" d="M15.47,0H2.67C2.38,0,2.14,0.23,2.14,0.51v0.51H1.6c-0.29,0-0.53,0.23-0.53,0.51v0.51H0.53 C0.24,2.04,0,2.27,0,2.55v9.94C0,12.77,0.24,13,0.53,13h12.8c0.29,0,0.53-0.23,0.53-0.51v-0.51h0.53c0.29,0,0.53-0.23,0.53-0.51 v-0.51h0.53c0.29,0,0.53-0.23,0.53-0.51V0.51C16,0.23,15.76,0,15.47,0z M13.33,8.24l-1.4-1.53c-0.11-0.12-0.29-0.12-0.4,0 L9.85,8.56l-4.6-3.91c-0.1-0.09-0.25-0.09-0.35,0l-4.35,3.7V2.8c0-0.14,0.12-0.25,0.27-0.25h12.26c0.15,0,0.27,0.11,0.27,0.25 V8.24z M14.14,11.47h-0.27V2.55c0-0.28-0.24-0.51-0.53-0.51H1.61V1.78c0-0.14,0.12-0.25,0.27-0.25h12.26 c0.15,0,0.27,0.11,0.27,0.25l0,9.43C14.4,11.35,14.28,11.47,14.14,11.47z M15.2,10.44h-0.27V1.53c0-0.28-0.24-0.51-0.53-0.51 H2.67V0.76c0-0.14,0.12-0.25,0.27-0.25H15.2c0.15,0,0.27,0.11,0.27,0.25v9.43h0C15.47,10.33,15.35,10.44,15.2,10.44z"/><path class="st0" d="M9.6,4.08c-0.59,0-1.07,0.46-1.07,1.02S9.02,6.11,9.6,6.11c0.59,0,1.07-0.46,1.07-1.02S10.19,4.08,9.6,4.08z"/></svg>