<?xml version="1.0" encoding="utf-8"?>
<!-- Generator: Adobe Illustrator 19.2.1, SVG Export Plug-In . SVG Version: 6.00 Build 0)  -->
<svg version="1.1" id="Layer_1" xmlns="http://www.w3.org/2000/svg" xmlns:xlink="http://www.w3.org/1999/xlink" x="0px" y="0px"
	 viewBox="0 0 13 14" style="enable-background:new 0 0 13 14;" xml:space="preserve">
<style type="text/css">
	.st0{fill:#8D4DDD;}
</style>
<path class="st0" d="M10.64,9.25c-0.63,0-1.22,0.25-1.67,0.7c-0.12,0.12-0.23,0.26-0.32,0.41L4.56,7.87
	C4.67,7.59,4.73,7.3,4.73,6.99s-0.06-0.6-0.17-0.88l4.09-2.47c0.42,0.66,1.16,1.1,1.99,1.1c1.3,0,2.36-1.06,2.36-2.37
	S11.94,0,10.64,0S8.27,1.06,8.27,2.37c0,0.3,0.06,0.58,0.16,0.85L4.34,5.69C3.92,5.04,3.19,4.62,2.36,4.62C1.06,4.62,0,5.68,0,6.99
	s1.06,2.37,2.36,2.37c0.83,0,1.55-0.43,1.98-1.07l4.09,2.49c-0.1,0.27-0.16,0.55-0.16,0.85c0,0.63,0.25,1.23,0.69,1.68
	c0.45,0.45,1.04,0.7,1.67,0.7s1.22-0.25,1.67-0.7c0.45-0.45,0.69-1.04,0.69-1.68c0-0.63-0.25-1.23-0.69-1.68
	C11.86,9.5,11.27,9.25,10.64,9.25z"/>
</svg>
