<?xml version="1.0" encoding="UTF-8"?>
<svg width="135px" height="102px" viewBox="0 0 135 102" version="1.1" xmlns="http://www.w3.org/2000/svg" xmlns:xlink="http://www.w3.org/1999/xlink">
    <!-- Generator: Sketch 43.1 (39012) - http://www.bohemiancoding.com/sketch -->
    <title>10YearSeal</title>
    <desc>Created with Sketch.</desc>
    <defs>
        <linearGradient x1="53.6613699%" y1="28.0969636%" x2="68.8069659%" y2="123.026565%" id="linearGradient-1">
            <stop stop-color="#FFCD0F" offset="0%"></stop>
            <stop stop-color="#FF8E04" offset="100%"></stop>
        </linearGradient>
        <linearGradient x1="49.9997765%" y1="0%" x2="49.9997765%" y2="115.990719%" id="linearGradient-2">
            <stop stop-color="#81B44C" offset="0%"></stop>
            <stop stop-color="#6DAC45" offset="100%"></stop>
        </linearGradient>
        <linearGradient x1="83.5492503%" y1="0%" x2="9.12028781%" y2="75.7324961%" id="linearGradient-3">
            <stop stop-color="#F2DA3E" offset="0%"></stop>
            <stop stop-color="#FFCD0F" offset="100%"></stop>
        </linearGradient>
        <path d="M8.22,57.806 C9.716,65.439 11.273,73.068 12.893,80.692 L12.893,80.692 C52.773,73.658 91.343,63.598 128.282,50.837 L128.282,50.837 C125.629,43.532 123.037,36.212 120.506,28.882 L120.506,28.882 C84.581,41.26 47.049,51.01 8.22,57.806" id="path-4"></path>
        <filter x="-0.4%" y="-1.0%" width="100.8%" height="103.9%" filterUnits="objectBoundingBox" id="filter-5">
            <feOffset dx="0" dy="1" in="SourceAlpha" result="shadowOffsetOuter1"></feOffset>
            <feColorMatrix values="0 0 0 0 0   0 0 0 0 0   0 0 0 0 0  0 0 0 0.0198426178 0" type="matrix" in="shadowOffsetOuter1"></feColorMatrix>
        </filter>
    </defs>
    <g id="Page-1" stroke="none" stroke-width="1" fill="none" fill-rule="evenodd">
        <g id="Artboard-2" transform="translate(-2792.000000, -4050.000000)">
            <g id="10YearSeal" transform="translate(2792.000000, 4050.000000)">
                <path d="M0,64.049 C2.549,67.502 5.129,70.944 7.743,74.375 L7.743,74.375 C7.609,78.567 7.478,82.76 7.348,86.952 L7.348,86.952 C51.859,74.791 94.301,59.283 134.338,40.915 L134.338,40.915 L134.338,40.914 C131.355,37.896 128.404,34.863 125.482,31.813 L125.482,31.813 C125.047,27.643 124.615,23.47 124.183,19.299 L124.183,19.299 C85.059,37.18 43.552,52.259 0,64.049" id="Fill-1" fill="url(#linearGradient-1)"></path>
                <g id="Group-7" transform="translate(18.000000, 0.773000)">
                    <path d="M97.3157,37.3344 C104.3737,63.6744 88.7427,90.7474 62.4027,97.8054 C36.0637,104.8624 8.9897,89.2314 1.9317,62.8924 C-5.1253,36.5534 10.5047,9.4794 36.8447,2.4214 C63.1847,-4.6366 90.2577,10.9944 97.3157,37.3344" id="Fill-3" fill="#FFFFFF"></path>
                    <path d="M97.3157,37.3344 C104.3737,63.6744 88.7427,90.7474 62.4027,97.8054 C36.0637,104.8624 8.9897,89.2314 1.9317,62.8924 C-5.1253,36.5534 10.5047,9.4794 36.8447,2.4214 C63.1847,-4.6366 90.2577,10.9944 97.3157,37.3344 Z" id="Stroke-5" stroke="#81B44C" stroke-width="3"></path>
                </g>
                <path d="M59.737,21.449 C43.544,25.788 33.934,42.432 38.273,58.623 L38.273,58.623 C41.24,69.692 49.956,77.682 60.348,80.245 L60.348,80.245 L54.262,62.772 C53.526,60.025 55.237,57.178 58.085,56.414 L58.085,56.414 L78.648,50.904 C81.496,50.142 84.403,51.751 85.138,54.499 L85.138,54.499 L88.605,72.674 C96.322,65.257 99.877,53.98 96.91,42.911 L96.91,42.911 C93.277,29.352 81.012,20.408 67.611,20.407 L67.611,20.407 C65.01,20.407 62.368,20.744 59.737,21.449 M52.061,42.465 C50.225,35.609 54.294,28.561 61.15,26.724 L61.15,26.724 C68.005,24.887 75.053,28.956 76.89,35.811 L76.89,35.811 C78.728,42.667 74.659,49.716 67.802,51.553 L67.802,51.553 C66.689,51.851 65.569,51.994 64.469,51.994 L64.469,51.994 C58.793,51.994 53.6,48.207 52.061,42.465" id="Fill-8" fill="url(#linearGradient-2)"></path>
                <g id="Group-54" transform="translate(26.000000, 6.773000)">
                    <polygon id="Fill-10" fill="#81B44C" points="53.7551 59.89 57.9871 54.691 51.3091 56.481 47.8881 51.714 47.3101 57.552 40.6311 59.342 46.8961 61.729 46.1511 69.231 50.9891 63.288 58.1511 66.016"></polygon>
                    <path d="M6.4807,29.017 C6.4947,28.979 6.5147,28.945 6.5427,28.912 C6.5697,28.878 6.6067,28.852 6.6547,28.83 L7.5447,28.438 C7.8057,28.843 7.9537,29.288 7.9877,29.769 C8.0207,30.251 7.9367,30.776 7.7327,31.342 C7.5447,31.864 7.2887,32.298 6.9617,32.647 C6.6367,32.996 6.2667,33.257 5.8507,33.432 C5.4357,33.607 4.9867,33.694 4.5027,33.693 C4.0197,33.693 3.5267,33.603 3.0247,33.422 C2.5137,33.238 2.0747,32.986 1.7067,32.665 C1.3367,32.345 1.0517,31.979 0.8497,31.566 C0.6477,31.153 0.5367,30.705 0.5147,30.223 C0.4947,29.741 0.5737,29.247 0.7547,28.742 C0.8487,28.485 0.9587,28.251 1.0847,28.04 C1.2127,27.829 1.3527,27.639 1.5027,27.47 C1.6537,27.301 1.8167,27.154 1.9897,27.029 C2.1617,26.903 2.3367,26.799 2.5147,26.718 L3.0427,27.514 C3.0727,27.564 3.0987,27.619 3.1177,27.679 C3.1357,27.739 3.1307,27.811 3.1007,27.896 C3.0807,27.953 3.0477,28.001 3.0057,28.042 C2.9617,28.083 2.9127,28.126 2.8567,28.169 C2.7997,28.213 2.7387,28.261 2.6707,28.313 C2.6047,28.365 2.5367,28.431 2.4677,28.51 C2.3977,28.59 2.3297,28.688 2.2587,28.802 C2.1887,28.917 2.1247,29.057 2.0647,29.223 C1.9697,29.487 1.9327,29.746 1.9507,29.998 C1.9697,30.251 2.0437,30.491 2.1727,30.716 C2.3027,30.942 2.4887,31.147 2.7287,31.33 C2.9677,31.514 3.2627,31.669 3.6117,31.793 C3.9617,31.92 4.2917,31.985 4.5987,31.988 C4.9067,31.991 5.1827,31.943 5.4287,31.845 C5.6737,31.747 5.8857,31.607 6.0617,31.422 C6.2377,31.238 6.3717,31.02 6.4607,30.769 C6.5127,30.624 6.5537,30.491 6.5827,30.366 C6.6107,30.242 6.6277,30.121 6.6317,30.006 C6.6357,29.891 6.6277,29.778 6.6057,29.667 C6.5837,29.557 6.5467,29.439 6.4957,29.314 C6.4777,29.266 6.4657,29.215 6.4617,29.164 C6.4587,29.113 6.4637,29.064 6.4807,29.017" id="Fill-12" fill="#353167"></path>
                    <polygon id="Fill-14" fill="#353167" points="5.1203 22.7855 6.5783 23.6585 7.7553 21.6935 8.8273 22.3365 7.6503 24.3005 9.1403 25.1915 10.6753 22.6275 11.7903 23.2955 9.3813 27.3185 3.1313 23.5765 5.5403 19.5525 6.6553 20.2205"></polygon>
                    <polygon id="Fill-16" fill="#353167" points="14.9035 17.4789 15.9215 18.3659 13.0355 21.6739 7.5465 16.8839 8.6575 15.6109 13.1295 19.5129"></polygon>
                    <polygon id="Fill-18" fill="#353167" points="14.843 11.3881 15.905 12.7141 17.693 11.2831 18.474 12.2581 16.687 13.6901 17.772 15.0431 20.105 13.1741 20.918 14.1891 17.258 17.1211 12.703 11.4361 16.364 8.5041 17.177 9.5181"></polygon>
                    <path d="M24.5647,10.6342 C24.7627,10.5322 24.9127,10.4232 25.0117,10.3082 C25.1127,10.1932 25.1767,10.0762 25.2067,9.9602 C25.2367,9.8432 25.2387,9.7282 25.2127,9.6132 C25.1877,9.4982 25.1487,9.3902 25.0947,9.2862 C25.0337,9.1672 24.9627,9.0702 24.8827,8.9902 C24.8037,8.9112 24.7087,8.8592 24.5987,8.8332 C24.4907,8.8072 24.3647,8.8082 24.2217,8.8362 C24.0797,8.8652 23.9127,8.9292 23.7227,9.0272 L22.6747,9.5682 L23.5067,11.1812 L24.5647,10.6342 Z M21.3307,6.9652 L22.1567,8.5642 L22.9377,8.1602 C23.1037,8.0742 23.2477,7.9862 23.3687,7.8932 C23.4897,7.8002 23.5817,7.7002 23.6437,7.5932 C23.7077,7.4862 23.7357,7.3672 23.7317,7.2382 C23.7267,7.1102 23.6837,6.9672 23.6027,6.8102 C23.5227,6.6552 23.4377,6.5372 23.3467,6.4552 C23.2547,6.3732 23.1537,6.3222 23.0417,6.3012 C22.9287,6.2802 22.8037,6.2872 22.6687,6.3242 C22.5317,6.3622 22.3787,6.4232 22.2107,6.5102 L21.3307,6.9652 Z M21.6287,5.3862 C22.0777,5.1552 22.4787,5.0002 22.8357,4.9212 C23.1927,4.8422 23.5087,4.8262 23.7857,4.8752 C24.0617,4.9242 24.3007,5.0322 24.5027,5.2022 C24.7047,5.3712 24.8757,5.5902 25.0117,5.8572 C25.0867,6.0022 25.1387,6.1532 25.1677,6.3092 C25.1947,6.4652 25.1947,6.6242 25.1677,6.7862 C25.1377,6.9502 25.0797,7.1162 24.9907,7.2862 C24.9017,7.4552 24.7787,7.6262 24.6197,7.7982 C25.0997,7.6822 25.5017,7.6862 25.8257,7.8122 C26.1487,7.9372 26.4057,8.1842 26.5947,8.5512 C26.7377,8.8262 26.8167,9.1102 26.8327,9.4022 C26.8467,9.6952 26.7977,9.9822 26.6827,10.2642 C26.5677,10.5462 26.3847,10.8162 26.1337,11.0712 C25.8837,11.3262 25.5637,11.5542 25.1757,11.7542 L22.5907,13.0892 L19.2487,6.6162 L21.6287,5.3862 Z" id="Fill-20" fill="#353167"></path>
                    <path d="M30.6975,5.4789 C30.9195,5.4169 31.0995,5.3349 31.2395,5.2339 C31.3785,5.1339 31.4835,5.0199 31.5545,4.8919 C31.6265,4.7649 31.6655,4.6279 31.6735,4.4819 C31.6795,4.3359 31.6615,4.1859 31.6175,4.0329 C31.5305,3.7249 31.3615,3.5119 31.1115,3.3969 C30.8625,3.2809 30.5275,3.2829 30.1075,3.4009 L29.4535,3.5869 L30.0445,5.6659 L30.6975,5.4789 Z M35.2065,8.2109 L33.7345,8.6289 C33.4625,8.7069 33.2375,8.6599 33.0595,8.4879 L31.3185,6.7849 C31.2395,6.7129 31.1605,6.6669 31.0825,6.6459 C31.0035,6.6249 30.9015,6.6319 30.7765,6.6679 L30.3625,6.7859 L31.0985,9.3779 L29.4735,9.8399 L27.4815,2.8329 L29.7605,2.1849 C30.2685,2.0409 30.7155,1.9699 31.1025,1.9729 C31.4885,1.9749 31.8225,2.0379 32.1015,2.1589 C32.3795,2.2809 32.6075,2.4539 32.7805,2.6779 C32.9565,2.9019 33.0855,3.1639 33.1715,3.4609 C33.2355,3.6889 33.2645,3.9129 33.2605,4.1309 C33.2595,4.3509 33.2215,4.5639 33.1535,4.7679 C33.0835,4.9739 32.9795,5.1679 32.8435,5.3529 C32.7065,5.5379 32.5365,5.7049 32.3335,5.8569 C32.4545,5.8809 32.5735,5.9199 32.6905,5.9759 C32.8055,6.0309 32.9175,6.1049 33.0225,6.1959 L35.2065,8.2109 Z" id="Fill-22" fill="#353167"></path>
                    <path d="M40.4514,5.0345 L39.6634,3.0805 C39.6064,2.9575 39.5454,2.8105 39.4784,2.6425 C39.4124,2.4745 39.3454,2.2925 39.2774,2.0965 C39.2394,2.3025 39.1964,2.4935 39.1494,2.6695 C39.1024,2.8455 39.0574,2.9985 39.0154,3.1275 L38.4594,5.1465 L40.4514,5.0345 Z M43.2884,7.6635 L41.9814,7.7375 C41.8354,7.7455 41.7144,7.7185 41.6204,7.6545 C41.5264,7.5925 41.4534,7.5085 41.4014,7.4045 L40.9004,6.1615 L38.1354,6.3165 L37.7774,7.6085 C37.7454,7.7045 37.6844,7.7925 37.5954,7.8725 C37.5034,7.9535 37.3884,7.9975 37.2484,8.0055 L35.9304,8.0795 L38.3344,0.6465 L40.0604,0.5495 L43.2884,7.6635 Z" id="Fill-24" fill="#353167"></path>
                    <polygon id="Fill-26" fill="#353167" points="50.093 2.6254 48.062 2.3534 47.271 8.2454 45.596 8.0214 46.386 2.1284 44.354 1.8554 44.532 0.5274 50.271 1.2974"></polygon>
                    <polygon id="Fill-28" fill="#353167" points="52.7512 9.5551 51.1222 9.0711 53.1982 2.0871 54.8272 2.5721"></polygon>
                    <path d="M63.9963,6.5853 L60.7293,13.0963 L59.9433,12.7013 C59.8263,12.6433 59.7383,12.5753 59.6793,12.4983 C59.6183,12.4213 59.5733,12.3173 59.5413,12.1873 L58.4203,6.7623 C58.3733,6.8843 58.3253,7.0013 58.2743,7.1113 C58.2253,7.2233 58.1763,7.3263 58.1283,7.4213 L56.3773,10.9113 L55.0443,10.2433 L58.3113,3.7313 L59.1073,4.1313 C59.1733,4.1643 59.2263,4.1943 59.2683,4.2243 C59.3093,4.2523 59.3453,4.2833 59.3723,4.3173 C59.3993,4.3523 59.4233,4.3923 59.4393,4.4393 C59.4583,4.4843 59.4753,4.5433 59.4913,4.6143 L60.6273,10.0793 C60.6753,9.9463 60.7253,9.8193 60.7773,9.6993 C60.8313,9.5783 60.8843,9.4663 60.9353,9.3623 L62.6653,5.9163 L63.9963,6.5853 Z" id="Fill-30" fill="#353167"></path>
                    <path d="M67.759,13.7357 L69.749,15.3937 L67.78,17.7557 C67.318,17.7267 66.885,17.6247 66.482,17.4497 C66.079,17.2737 65.702,17.0387 65.348,16.7457 C64.887,16.3607 64.529,15.9387 64.272,15.4787 C64.014,15.0197 63.857,14.5497 63.802,14.0717 C63.745,13.5917 63.788,13.1177 63.935,12.6457 C64.079,12.1747 64.323,11.7347 64.665,11.3257 C65.012,10.9087 65.402,10.5827 65.831,10.3477 C66.261,10.1137 66.71,9.9767 67.179,9.9377 C67.647,9.8987 68.122,9.9617 68.605,10.1247 C69.087,10.2877 69.554,10.5567 70.004,10.9327 C70.238,11.1277 70.44,11.3297 70.613,11.5387 C70.785,11.7477 70.931,11.9577 71.048,12.1677 C71.165,12.3787 71.257,12.5897 71.323,12.8007 C71.391,13.0127 71.435,13.2187 71.457,13.4217 L70.605,13.6797 C70.471,13.7197 70.349,13.7127 70.238,13.6547 C70.127,13.5957 70.046,13.4897 69.994,13.3347 C69.943,13.1867 69.891,13.0527 69.837,12.9327 C69.784,12.8117 69.721,12.6977 69.65,12.5907 C69.579,12.4837 69.496,12.3807 69.402,12.2797 C69.308,12.1797 69.196,12.0757 69.065,11.9657 C68.821,11.7637 68.567,11.6247 68.3,11.5477 C68.034,11.4707 67.769,11.4537 67.501,11.4957 C67.234,11.5377 66.972,11.6367 66.715,11.7947 C66.458,11.9517 66.218,12.1647 65.994,12.4327 C65.746,12.7297 65.567,13.0277 65.457,13.3267 C65.347,13.6257 65.3,13.9167 65.318,14.2007 C65.335,14.4837 65.414,14.7547 65.553,15.0107 C65.693,15.2687 65.888,15.5027 66.142,15.7147 C66.298,15.8437 66.452,15.9467 66.605,16.0217 C66.758,16.0967 66.914,16.1587 67.078,16.2077 L67.785,15.3597 L67.233,14.8977 C67.151,14.8297 67.105,14.7547 67.095,14.6727 C67.085,14.5897 67.109,14.5157 67.163,14.4497 L67.759,13.7357 Z" id="Fill-32" fill="#353167"></path>
                    <polygon id="Fill-34" fill="#353167" points="15.8196 78.8763 14.4736 77.8373 18.9246 72.0703 20.2706 73.1103"></polygon>
                    <path d="M27.6828,77.4564 L24.2898,83.9024 L23.5118,83.4934 C23.3968,83.4334 23.3098,83.3634 23.2508,83.2854 C23.1918,83.2074 23.1478,83.1024 23.1208,82.9714 L22.1028,77.5254 C22.0548,77.6464 22.0038,77.7624 21.9528,77.8724 C21.8998,77.9824 21.8488,78.0854 21.7988,78.1804 L19.9808,81.6354 L18.6618,80.9414 L22.0548,74.4944 L22.8418,74.9084 C22.9068,74.9424 22.9598,74.9754 23.0008,75.0044 C23.0418,75.0334 23.0768,75.0644 23.1038,75.1014 C23.1298,75.1354 23.1518,75.1754 23.1688,75.2234 C23.1858,75.2684 23.2018,75.3274 23.2168,75.3994 L24.2448,80.8844 C24.2958,80.7534 24.3488,80.6274 24.4048,80.5084 C24.4598,80.3894 24.5148,80.2764 24.5698,80.1744 L26.3648,76.7624 L27.6828,77.4564 Z" id="Fill-36" fill="#353167"></path>
                    <path d="M34.3782,80.6888 L34.0722,82.4618 L34.9402,82.6128 C35.1232,82.6438 35.2922,82.6598 35.4442,82.6588 C35.5962,82.6578 35.7312,82.6328 35.8452,82.5848 C35.9602,82.5378 36.0542,82.4598 36.1282,82.3558 C36.2022,82.2508 36.2542,82.1098 36.2842,81.9358 C36.3142,81.7648 36.3162,81.6188 36.2932,81.4988 C36.2712,81.3768 36.2212,81.2758 36.1442,81.1908 C36.0662,81.1058 35.9632,81.0388 35.8312,80.9848 C35.7002,80.9308 35.5412,80.8888 35.3542,80.8568 L34.3782,80.6888 Z M34.7442,85.5668 C34.9652,85.6048 35.1492,85.6078 35.2982,85.5768 C35.4472,85.5438 35.5692,85.4908 35.6632,85.4168 C35.7582,85.3398 35.8292,85.2508 35.8782,85.1428 C35.9272,85.0378 35.9622,84.9248 35.9822,84.8108 C36.0032,84.6798 36.0072,84.5578 35.9902,84.4468 C35.9742,84.3358 35.9312,84.2378 35.8582,84.1508 C35.7872,84.0638 35.6872,83.9888 35.5562,83.9248 C35.4252,83.8628 35.2532,83.8118 35.0432,83.7768 L33.8802,83.5758 L33.5722,85.3648 L34.7442,85.5668 Z M35.5682,79.6098 C36.0652,79.6958 36.4792,79.8148 36.8122,79.9658 C37.1442,80.1178 37.4052,80.2968 37.5972,80.5028 C37.7882,80.7078 37.9122,80.9388 37.9722,81.1968 C38.0302,81.4538 38.0342,81.7298 37.9832,82.0248 C37.9562,82.1858 37.9062,82.3378 37.8342,82.4798 C37.7632,82.6218 37.6662,82.7488 37.5452,82.8608 C37.4252,82.9738 37.2772,83.0708 37.1052,83.1528 C36.9312,83.2348 36.7302,83.2958 36.4992,83.3368 C36.9522,83.5338 37.2702,83.7798 37.4522,84.0758 C37.6352,84.3708 37.6912,84.7218 37.6202,85.1288 C37.5672,85.4338 37.4602,85.7098 37.2962,85.9508 C37.1332,86.1928 36.9202,86.3928 36.6582,86.5488 C36.3962,86.7058 36.0882,86.8088 35.7342,86.8608 C35.3802,86.9138 34.9872,86.9028 34.5582,86.8288 L31.6902,86.3348 L32.9282,79.1548 L35.5682,79.6098 Z" id="Fill-38" fill="#353167"></path>
                    <path d="M43.593,86.0258 C43.82,86.0148 44.02,85.9688 44.195,85.8848 C44.368,85.8008 44.514,85.6868 44.63,85.5408 C44.747,85.3948 44.833,85.2188 44.888,85.0158 C44.944,84.8108 44.965,84.5808 44.953,84.3248 L44.746,80.0138 L46.434,79.9328 L46.641,84.2438 C46.662,84.6888 46.61,85.1028 46.483,85.4828 C46.356,85.8628 46.164,86.1938 45.907,86.4758 C45.651,86.7588 45.332,86.9838 44.954,87.1528 C44.574,87.3208 44.143,87.4168 43.66,87.4398 C43.174,87.4628 42.735,87.4088 42.341,87.2778 C41.948,87.1468 41.61,86.9528 41.327,86.6958 C41.044,86.4388 40.823,86.1278 40.661,85.7608 C40.501,85.3958 40.409,84.9898 40.388,84.5438 L40.182,80.2338 L41.869,80.1518 L42.075,84.4578 C42.089,84.7138 42.132,84.9408 42.206,85.1388 C42.281,85.3378 42.383,85.5048 42.513,85.6398 C42.644,85.7758 42.799,85.8778 42.981,85.9428 C43.162,86.0088 43.366,86.0378 43.593,86.0258" id="Fill-40" fill="#353167"></path>
                    <path d="M52.7375,79.9691 C52.7085,80.0581 52.6735,80.1291 52.6285,80.1821 C52.5855,80.2341 52.5205,80.2701 52.4365,80.2911 C52.3635,80.3091 52.2765,80.3061 52.1785,80.2811 C52.0825,80.2551 51.9715,80.2271 51.8485,80.1961 C51.7255,80.1641 51.5895,80.1431 51.4385,80.1301 C51.2885,80.1181 51.1235,80.1341 50.9455,80.1791 C50.6385,80.2561 50.4245,80.3781 50.3075,80.5471 C50.1905,80.7141 50.1595,80.9111 50.2155,81.1341 C50.2505,81.2771 50.3255,81.3831 50.4385,81.4541 C50.5535,81.5261 50.6925,81.5771 50.8565,81.6081 C51.0205,81.6391 51.2045,81.6591 51.4075,81.6681 C51.6105,81.6791 51.8195,81.6941 52.0345,81.7141 C52.2495,81.7341 52.4625,81.7671 52.6755,81.8141 C52.8875,81.8601 53.0865,81.9381 53.2695,82.0471 C53.4525,82.1561 53.6145,82.3031 53.7585,82.4901 C53.9015,82.6751 54.0095,82.9151 54.0825,83.2091 C54.1635,83.5361 54.1825,83.8571 54.1405,84.1691 C54.0995,84.4821 53.9975,84.7711 53.8355,85.0361 C53.6735,85.3021 53.4485,85.5341 53.1645,85.7341 C52.8795,85.9351 52.5355,86.0841 52.1345,86.1851 C51.9155,86.2401 51.6845,86.2731 51.4465,86.2841 C51.2065,86.2961 50.9695,86.2871 50.7355,86.2571 C50.5015,86.2291 50.2765,86.1811 50.0615,86.1151 C49.8445,86.0481 49.6505,85.9631 49.4765,85.8581 L49.7705,84.9711 C49.7965,84.9061 49.8355,84.8481 49.8875,84.7941 C49.9425,84.7401 50.0075,84.7061 50.0815,84.6871 C50.1785,84.6621 50.2835,84.6691 50.3975,84.7061 C50.5105,84.7431 50.6395,84.7821 50.7835,84.8261 C50.9255,84.8701 51.0865,84.9021 51.2625,84.9231 C51.4405,84.9451 51.6385,84.9271 51.8585,84.8721 C52.1565,84.7981 52.3715,84.6751 52.5035,84.5031 C52.6355,84.3301 52.6675,84.1021 52.5945,83.8191 C52.5535,83.6541 52.4755,83.5301 52.3595,83.4481 C52.2435,83.3671 52.1025,83.3131 51.9385,83.2811 C51.7745,83.2491 51.5915,83.2321 51.3915,83.2271 C51.1905,83.2221 50.9845,83.2121 50.7715,83.1981 C50.5575,83.1841 50.3465,83.1551 50.1355,83.1101 C49.9245,83.0651 49.7275,82.9851 49.5435,82.8701 C49.3575,82.7581 49.1925,82.6001 49.0465,82.3981 C48.8995,82.1951 48.7845,81.9301 48.7025,81.5991 C48.6355,81.3341 48.6255,81.0621 48.6695,80.7821 C48.7135,80.5041 48.8135,80.2401 48.9705,79.9901 C49.1295,79.7421 49.3435,79.5211 49.6145,79.3281 C49.8855,79.1351 50.2165,78.9901 50.6045,78.8941 C50.8205,78.8391 51.0365,78.8041 51.2505,78.7851 C51.4645,78.7691 51.6715,78.7711 51.8725,78.7911 C52.0725,78.8111 52.2645,78.8481 52.4485,78.9001 C52.6315,78.9511 52.7995,79.0211 52.9565,79.1051 L52.7375,79.9691 Z" id="Fill-42" fill="#353167"></path>
                    <polygon id="Fill-44" fill="#353167" points="59.0266 83.7611 57.4556 84.4111 54.6676 77.6811 56.2386 77.0311"></polygon>
                    <path d="M63.677,72.7601 L67.594,78.9021 L66.851,79.3751 C66.742,79.4451 66.638,79.4861 66.541,79.4991 C66.445,79.5111 66.331,79.4961 66.203,79.4561 L60.971,77.6401 C61.053,77.7421 61.128,77.8431 61.197,77.9441 C61.267,78.0421 61.33,78.1381 61.388,78.2281 L63.488,81.5211 L62.232,82.3231 L58.315,76.1791 L59.065,75.7011 C59.127,75.6611 59.181,75.6311 59.226,75.6101 C59.273,75.5881 59.316,75.5751 59.36,75.5691 C59.404,75.5631 59.449,75.5641 59.498,75.5731 C59.547,75.5801 59.607,75.5961 59.677,75.6181 L64.95,77.4441 C64.861,77.3351 64.779,77.2281 64.702,77.1191 C64.626,77.0121 64.556,76.9091 64.493,76.8121 L62.42,73.5611 L63.677,72.7601 Z" id="Fill-46" fill="#353167"></path>
                    <polygon id="Fill-48" fill="#353167" points="67.4114 71.0756 68.6024 72.2886 70.2364 70.6826 71.1134 71.5756 69.4794 73.1796 70.6944 74.4176 72.8284 72.3216 73.7394 73.2496 70.3934 76.5366 65.2884 71.3396 68.6344 68.0536 69.5444 68.9806"></polygon>
                    <path d="M73.3557,64.1527 C73.3917,64.2397 73.4117,64.3167 73.4117,64.3847 C73.4137,64.4527 73.3877,64.5227 73.3377,64.5927 C73.2937,64.6557 73.2267,64.7097 73.1357,64.7537 C73.0457,64.7977 72.9447,64.8477 72.8307,64.9057 C72.7167,64.9617 72.5987,65.0347 72.4767,65.1237 C72.3547,65.2127 72.2417,65.3327 72.1357,65.4817 C71.9527,65.7417 71.8727,65.9717 71.8937,66.1757 C71.9137,66.3817 72.0187,66.5487 72.2057,66.6817 C72.3257,66.7677 72.4527,66.7987 72.5847,66.7787 C72.7177,66.7577 72.8567,66.7067 73.0007,66.6227 C73.1457,66.5397 73.2977,66.4347 73.4587,66.3087 C73.6187,66.1827 73.7867,66.0577 73.9617,65.9327 C74.1377,65.8087 74.3217,65.6947 74.5137,65.5897 C74.7047,65.4877 74.9047,65.4177 75.1147,65.3807 C75.3257,65.3417 75.5447,65.3467 75.7747,65.3957 C76.0027,65.4437 76.2427,65.5537 76.4907,65.7287 C76.7647,65.9237 76.9897,66.1527 77.1617,66.4187 C77.3337,66.6817 77.4457,66.9677 77.4957,67.2747 C77.5457,67.5817 77.5287,67.9037 77.4427,68.2427 C77.3577,68.5797 77.1967,68.9177 76.9577,69.2557 C76.8267,69.4397 76.6747,69.6147 76.5007,69.7797 C76.3277,69.9447 76.1417,70.0927 75.9467,70.2227 C75.7497,70.3537 75.5467,70.4647 75.3407,70.5547 C75.1337,70.6467 74.9307,70.7097 74.7317,70.7427 L74.3747,69.8787 C74.3507,69.8137 74.3417,69.7437 74.3477,69.6687 C74.3547,69.5927 74.3797,69.5237 74.4247,69.4617 C74.4817,69.3797 74.5657,69.3147 74.6757,69.2687 C74.7867,69.2217 74.9107,69.1687 75.0457,69.1077 C75.1837,69.0477 75.3267,68.9667 75.4737,68.8677 C75.6217,68.7687 75.7597,68.6267 75.8917,68.4407 C76.0687,68.1897 76.1517,67.9567 76.1387,67.7397 C76.1267,67.5227 76.0017,67.3307 75.7607,67.1617 C75.6227,67.0627 75.4817,67.0217 75.3407,67.0357 C75.2007,67.0507 75.0567,67.0997 74.9137,67.1827 C74.7687,67.2657 74.6187,67.3727 74.4627,67.4997 C74.3077,67.6267 74.1447,67.7547 73.9747,67.8817 C73.8037,68.0107 73.6247,68.1277 73.4347,68.2297 C73.2467,68.3337 73.0437,68.4027 72.8307,68.4367 C72.6167,68.4707 72.3877,68.4607 72.1447,68.4017 C71.9017,68.3447 71.6417,68.2177 71.3637,68.0217 C71.1397,67.8647 70.9547,67.6657 70.8057,67.4247 C70.6567,67.1867 70.5607,66.9197 70.5187,66.6297 C70.4737,66.3377 70.4937,66.0297 70.5717,65.7067 C70.6517,65.3827 70.8067,65.0567 71.0377,64.7307 C71.1667,64.5487 71.3057,64.3817 71.4577,64.2277 C71.6067,64.0757 71.7647,63.9407 71.9307,63.8257 C72.0967,63.7097 72.2647,63.6117 72.4377,63.5327 C72.6107,63.4517 72.7847,63.3927 72.9577,63.3567 L73.3557,64.1527 Z" id="Fill-50" fill="#353167"></path>
                    <path d="M76.383,58.2738 C76.434,58.3528 76.466,58.4258 76.479,58.4928 C76.491,58.5588 76.48,58.6318 76.442,58.7108 C76.41,58.7798 76.353,58.8438 76.271,58.9038 C76.191,58.9628 76.098,59.0308 75.997,59.1058 C75.895,59.1818 75.791,59.2738 75.687,59.3828 C75.582,59.4918 75.49,59.6298 75.412,59.7948 C75.279,60.0828 75.238,60.3238 75.294,60.5218 C75.351,60.7198 75.484,60.8678 75.692,60.9648 C75.824,61.0278 75.954,61.0378 76.081,60.9948 C76.208,60.9518 76.335,60.8758 76.463,60.7668 C76.591,60.6608 76.724,60.5308 76.859,60.3788 C76.995,60.2278 77.138,60.0748 77.29,59.9208 C77.441,59.7678 77.603,59.6248 77.773,59.4888 C77.944,59.3528 78.128,59.2488 78.329,59.1748 C78.529,59.1018 78.747,59.0688 78.981,59.0758 C79.215,59.0828 79.47,59.1508 79.743,59.2798 C80.048,59.4228 80.309,59.6108 80.525,59.8398 C80.74,60.0718 80.9,60.3338 81.003,60.6268 C81.107,60.9198 81.146,61.2408 81.119,61.5878 C81.094,61.9348 80.993,62.2958 80.818,62.6698 C80.721,62.8748 80.603,63.0738 80.46,63.2658 C80.318,63.4598 80.161,63.6368 79.99,63.7998 C79.82,63.9628 79.641,64.1078 79.453,64.2328 C79.265,64.3578 79.076,64.4558 78.885,64.5228 L78.384,63.7348 C78.35,63.6738 78.328,63.6068 78.321,63.5318 C78.314,63.4568 78.327,63.3838 78.36,63.3138 C78.403,63.2238 78.474,63.1468 78.574,63.0808 C78.676,63.0168 78.787,62.9428 78.911,62.8588 C79.035,62.7758 79.161,62.6708 79.29,62.5468 C79.418,62.4228 79.53,62.2588 79.626,62.0538 C79.757,61.7768 79.798,61.5318 79.748,61.3208 C79.698,61.1098 79.541,60.9418 79.276,60.8168 C79.121,60.7448 78.976,60.7278 78.84,60.7668 C78.704,60.8058 78.571,60.8788 78.445,60.9868 C78.316,61.0938 78.187,61.2238 78.056,61.3768 C77.926,61.5278 77.787,61.6828 77.642,61.8378 C77.497,61.9948 77.34,62.1408 77.172,62.2748 C77.003,62.4108 76.817,62.5118 76.612,62.5838 C76.407,62.6548 76.18,62.6828 75.931,62.6698 C75.681,62.6548 75.404,62.5768 75.095,62.4308 C74.848,62.3138 74.63,62.1508 74.442,61.9408 C74.253,61.7308 74.112,61.4858 74.019,61.2078 C73.926,60.9258 73.89,60.6208 73.912,60.2888 C73.934,59.9578 74.029,59.6098 74.2,59.2478 C74.295,59.0448 74.404,58.8558 74.526,58.6788 C74.648,58.5028 74.78,58.3428 74.923,58.1998 C75.066,58.0568 75.215,57.9308 75.371,57.8228 C75.527,57.7128 75.688,57.6258 75.851,57.5598 L76.383,58.2738 Z" id="Fill-52" fill="#353167"></path>
                </g>
                <g id="Fill-55">
                    <use fill="black" fill-opacity="1" filter="url(#filter-5)" xlink:href="#path-4"></use>
                    <use fill="url(#linearGradient-3)" fill-rule="evenodd" xlink:href="#path-4"></use>
                </g>
                <g id="Group-71" transform="translate(23.000000, 36.773000)" fill="#FFFFFF">
                    <path d="M11.3791,33.3383 C11.5251,34.0643 11.5991,34.4263 11.7451,35.1513 C8.5231,35.8023 6.9091,36.1163 3.6781,36.7213 C3.5421,35.9943 3.4741,35.6303 3.3381,34.9033 C4.5181,34.6823 5.1081,34.5703 6.2861,34.3433 C5.6491,31.0323 5.3291,29.3763 4.6921,26.0663 C4.6291,25.7373 4.5731,25.3993 4.5251,25.0473 C3.8351,25.8903 3.4871,26.3103 2.7911,27.1503 C2.6901,27.2653 2.5821,27.3443 2.4711,27.3893 C2.3581,27.4343 2.2501,27.4553 2.1441,27.4543 C2.0371,27.4543 1.9401,27.4373 1.8511,27.4033 C1.7631,27.3693 1.6931,27.3263 1.6431,27.2753 C1.2541,26.9113 1.0601,26.7303 0.6721,26.3663 C2.1481,24.5673 2.8791,23.6653 4.3291,21.8573 C5.1281,21.7023 5.5271,21.6243 6.3251,21.4673 C7.3031,26.4243 7.7911,28.9023 8.7691,33.8593 C9.8131,33.6533 10.3351,33.5493 11.3791,33.3383" id="Fill-57"></path>
                    <path d="M20.2366,25.9691 C20.0116,24.9481 19.7506,24.1181 19.4516,23.4801 C19.1526,22.8431 18.8336,22.3531 18.4936,22.0101 C18.1546,21.6691 17.8036,21.4531 17.4416,21.3651 C17.0796,21.2771 16.7216,21.2711 16.3686,21.3461 C16.0216,21.4211 15.7036,21.5731 15.4126,21.8021 C15.1226,22.0311 14.8936,22.3701 14.7286,22.8211 C14.5646,23.2721 14.4776,23.8491 14.4716,24.5521 C14.4656,25.2561 14.5686,26.1191 14.7846,27.1431 C14.9996,28.1671 15.2526,29.0001 15.5446,29.6411 C15.8346,30.2811 16.1496,30.7741 16.4866,31.1171 C16.8236,31.4611 17.1746,31.6781 17.5396,31.7681 C17.9036,31.8571 18.2626,31.8631 18.6166,31.7861 C18.9756,31.7091 19.3066,31.5551 19.6046,31.3231 C19.9026,31.0911 20.1366,30.7471 20.3066,30.2951 C20.4756,29.8421 20.5636,29.2631 20.5686,28.5591 C20.5736,27.8551 20.4626,26.9911 20.2366,25.9691 M22.7606,25.4071 C23.0376,26.6351 23.1446,27.7351 23.0806,28.7011 C23.0136,29.6691 22.8086,30.5041 22.4656,31.2001 C22.1206,31.8991 21.6536,32.4651 21.0646,32.8981 C20.4776,33.3301 19.8036,33.6291 19.0486,33.7911 C18.2916,33.9541 17.5576,33.9591 16.8506,33.8051 C16.1436,33.6521 15.4906,33.3261 14.8916,32.8311 C14.2946,32.3371 13.7676,31.6601 13.3136,30.8051 C12.8586,29.9491 12.5056,28.9041 12.2526,27.6691 C11.9976,26.4301 11.9086,25.3261 11.9856,24.3661 C12.0616,23.4041 12.2696,22.5781 12.6116,21.8871 C12.9536,21.1961 13.4086,20.6391 13.9776,20.2161 C14.5476,19.7921 15.1996,19.5011 15.9376,19.3421 C16.6736,19.1841 17.3926,19.1801 18.0906,19.3301 C18.7906,19.4811 19.4406,19.7991 20.0396,20.2871 C20.6376,20.7771 21.1716,21.4421 21.6406,22.2871 C22.1086,23.1311 22.4826,24.1721 22.7606,25.4071" id="Fill-59"></path>
                    <path d="M35.7541,24.0023 C36.2951,26.1763 36.5661,27.2633 37.1071,29.4363 C36.0381,29.7023 35.5041,29.8333 34.4351,30.0953 C33.9031,27.9183 33.6391,26.8303 33.1081,24.6543 C30.1851,21.7203 28.7391,20.2433 25.8761,17.2733 C26.8001,17.0573 27.2631,16.9473 28.1861,16.7283 C28.4131,16.6733 28.6061,16.6863 28.7651,16.7643 C28.9251,16.8423 29.0701,16.9543 29.2011,17.1023 C30.6821,18.7333 31.4271,19.5473 32.9231,21.1693 C33.1421,21.4093 33.3391,21.6403 33.5141,21.8563 C33.6901,22.0743 33.8531,22.2963 34.0061,22.5193 C34.0301,22.2523 34.0671,21.9813 34.1181,21.7073 C34.1691,21.4363 34.2321,21.1423 34.3081,20.8273 C34.8741,18.6963 35.1531,17.6313 35.7021,15.4993 C35.7371,15.3403 35.8101,15.1803 35.9221,15.0213 C36.0331,14.8613 36.1981,14.7543 36.4181,14.6983 C37.3421,14.4633 37.8031,14.3453 38.7261,14.1063 C37.5711,18.0653 36.9781,20.0453 35.7541,24.0023" id="Fill-61"></path>
                    <path d="M43.5188,15.058 C43.9328,16.608 44.1398,17.382 44.5538,18.932 C46.5328,18.403 47.5208,18.134 49.4958,17.587 C49.7158,18.385 49.8268,18.785 50.0468,19.582 C48.0658,20.131 47.0748,20.401 45.0878,20.932 C45.5098,22.512 45.7218,23.302 46.1438,24.883 C48.6818,24.204 49.9488,23.859 52.4788,23.152 C52.7098,23.98 52.8268,24.394 53.0578,25.222 C49.4508,26.231 47.6428,26.72 44.0198,27.669 C42.5538,22.075 41.8208,19.277 40.3538,13.682 C43.8858,12.756 45.6498,12.279 49.1658,11.296 L49.7428,13.357 C47.2558,14.051 46.0118,14.392 43.5188,15.058" id="Fill-63"></path>
                    <path d="M61.5715,17.0765 C60.3355,15.4385 59.7185,14.6185 58.4925,12.9745 C58.3475,12.7945 58.1895,12.5775 58.0155,12.3235 C57.8425,12.0675 57.6635,11.7905 57.4775,11.4905 C57.4895,11.8415 57.4925,12.1725 57.4855,12.4835 C57.4785,12.7955 57.4655,13.0675 57.4435,13.3045 C57.3055,15.3415 57.2345,16.3605 57.0845,18.3985 C58.8825,17.8775 59.7795,17.6125 61.5715,17.0765 M67.8025,20.8905 C66.9865,21.1425 66.5785,21.2675 65.7605,21.5155 C65.5315,21.5865 65.3275,21.5875 65.1495,21.5185 C64.9715,21.4515 64.8225,21.3455 64.6995,21.2015 C63.9335,20.1995 63.5515,19.6985 62.7915,18.6945 C60.4495,19.3975 59.2765,19.7435 56.9275,20.4215 C56.8315,21.6785 56.7825,22.3055 56.6815,23.5625 C56.6715,23.7245 56.6075,23.8885 56.4915,24.0555 C56.3745,24.2195 56.2055,24.3335 55.9815,24.3965 C55.1515,24.6345 54.7365,24.7515 53.9065,24.9845 C54.5915,18.7845 54.9035,15.6855 55.4695,9.4955 C56.5235,9.1875 57.0505,9.0325 58.1015,8.7205 C61.9295,13.6165 63.8705,16.0515 67.8025,20.8905" id="Fill-65"></path>
                    <path d="M71.4397,11.8041 C71.9277,11.6481 72.3357,11.4501 72.6597,11.2131 C72.9837,10.9751 73.2277,10.7111 73.3947,10.4231 C73.5597,10.1351 73.6527,9.8251 73.6727,9.4961 C73.6937,9.1671 73.6467,8.8281 73.5327,8.4811 C73.3057,7.7831 72.8997,7.3231 72.3157,7.0991 C71.7317,6.8741 70.9657,6.9161 70.0137,7.2201 C69.3557,7.4311 69.0267,7.5361 68.3677,7.7441 C68.9477,9.5751 69.2367,10.4911 69.8167,12.3211 C70.4657,12.1151 70.7907,12.0111 71.4397,11.8041 M80.5047,16.8161 C79.5577,17.1321 79.0837,17.2891 78.1347,17.6011 C77.6867,17.7481 77.3047,17.6841 76.9917,17.4081 C75.2307,16.0341 74.3537,15.3451 72.6097,13.9601 C72.4467,13.8291 72.2887,13.7511 72.1327,13.7241 C71.9787,13.6971 71.7727,13.7231 71.5137,13.8061 C71.0687,13.9481 70.8447,14.0191 70.3997,14.1601 C71.0817,16.3151 71.4227,17.3921 72.1057,19.5471 C71.0517,19.8801 70.5247,20.0461 69.4697,20.3741 C67.7507,14.8521 66.8897,12.0911 65.1697,6.5691 C66.8557,6.0431 67.6987,5.7781 69.3797,5.2401 C70.3157,4.9401 71.1487,4.7781 71.8807,4.7541 C72.6147,4.7291 73.2527,4.8211 73.7957,5.0281 C74.3387,5.2351 74.7937,5.5461 75.1567,5.9641 C75.5207,6.3811 75.7987,6.8801 75.9917,7.4621 C76.1447,7.9241 76.2207,8.3831 76.2187,8.8401 C76.2167,9.2981 76.1417,9.7361 75.9927,10.1581 C75.8427,10.5781 75.6177,10.9801 75.3187,11.3571 C75.0197,11.7361 74.6477,12.0771 74.2067,12.3831 C74.4047,12.4241 74.5957,12.4871 74.7797,12.5701 C74.9627,12.6541 75.1427,12.7661 75.3177,12.9051 C77.3807,14.4781 78.4187,15.2601 80.5047,16.8161" id="Fill-67"></path>
                    <path d="M85.7756,2.5033 C85.7476,2.6623 85.6976,2.7873 85.6336,2.8763 C85.5706,2.9663 85.4746,3.0333 85.3476,3.0783 C85.2146,3.1243 85.0536,3.1263 84.8636,3.0833 C84.6746,3.0393 84.4516,2.9963 84.1946,2.9523 C83.9376,2.9073 83.6476,2.8863 83.3256,2.8893 C83.0046,2.8913 82.6466,2.9603 82.2536,3.0973 C81.8986,3.2193 81.6036,3.3683 81.3666,3.5443 C81.1296,3.7213 80.9466,3.9153 80.8166,4.1293 C80.6876,4.3433 80.6146,4.5693 80.5976,4.8113 C80.5816,5.0543 80.6156,5.3003 80.7016,5.5543 C80.8106,5.8753 80.9946,6.1123 81.2486,6.2653 C81.5036,6.4173 81.8056,6.5183 82.1576,6.5663 C82.5086,6.6153 82.8966,6.6333 83.3216,6.6203 C83.7456,6.6083 84.1826,6.5993 84.6296,6.5953 C85.0786,6.5913 85.5266,6.6113 85.9706,6.6573 C86.4166,6.7033 86.8376,6.8103 87.2336,6.9783 C87.6296,7.1463 87.9886,7.3953 88.3106,7.7273 C88.6326,8.0583 88.8946,8.5073 89.0956,9.0733 C89.3136,9.6883 89.4096,10.3033 89.3846,10.9163 C89.3596,11.5303 89.2096,12.1093 88.9326,12.6553 C88.6586,13.2013 88.2586,13.6943 87.7376,14.1333 C87.2176,14.5723 86.5666,14.9273 85.7906,15.1943 C85.3426,15.3483 84.8876,15.4563 84.4246,15.5203 C83.9616,15.5833 83.5046,15.6033 83.0516,15.5803 C82.5996,15.5583 82.1616,15.4943 81.7366,15.3913 C81.3116,15.2873 80.9196,15.1463 80.5556,14.9643 C80.6986,14.3723 80.7706,14.0763 80.9126,13.4843 C80.9466,13.3743 81.0046,13.2713 81.0886,13.1763 C81.1706,13.0823 81.2716,13.0163 81.3866,12.9773 C81.5476,12.9223 81.7446,12.9283 81.9746,12.9943 C82.2066,13.0613 82.4776,13.1273 82.7896,13.1973 C83.1006,13.2683 83.4516,13.3103 83.8406,13.3193 C84.2306,13.3313 84.6676,13.2543 85.1516,13.0873 C85.8936,12.8313 86.4086,12.4613 86.6946,11.9773 C86.9806,11.4923 87.0106,10.9283 86.7876,10.2863 C86.6626,9.9293 86.4686,9.6673 86.2066,9.5043 C85.9456,9.3413 85.6356,9.2343 85.2826,9.1853 C84.9286,9.1363 84.5396,9.1243 84.1186,9.1493 C83.6976,9.1753 83.2646,9.1913 82.8256,9.2013 C82.3856,9.2113 81.9426,9.1933 81.4986,9.1483 C81.0536,9.1023 80.6326,8.9873 80.2366,8.8053 C79.8386,8.6223 79.4776,8.3483 79.1526,7.9833 C78.8266,7.6183 78.5586,7.1223 78.3486,6.4963 C78.1806,5.9983 78.1186,5.4783 78.1596,4.9363 C78.1996,4.3953 78.3476,3.8773 78.6046,3.3823 C78.8606,2.8873 79.2306,2.4343 79.7106,2.0243 C80.1916,1.6133 80.7916,1.2843 81.5106,1.0353 C82.3176,0.7573 83.1066,0.6233 83.8746,0.6373 C84.6436,0.6493 85.3486,0.7983 85.9886,1.0813 C85.9036,1.6503 85.8616,1.9353 85.7756,2.5033" id="Fill-69"></path>
                </g>
            </g>
        </g>
    </g>
</svg>