<?xml version="1.0" encoding="UTF-8"?>
<svg width="115px" height="149px" viewBox="0 0 115 149" version="1.1" xmlns="http://www.w3.org/2000/svg" xmlns:xlink="http://www.w3.org/1999/xlink">
    <!-- Generator: Sketch 42 (36781) - http://www.bohemiancoding.com/sketch -->
    <title>BVPro</title>
    <desc>Created with Sketch.</desc>
    <defs></defs>
    <g id="Page-1" stroke="none" stroke-width="1" fill="none" fill-rule="evenodd">
        <g id="BVPro" transform="translate(-303.000000, -387.000000)">
            <g transform="translate(303.000000, 387.000000)" id="Group-Copy-2">
                <g transform="translate(0.257256, 0.516097)">
                    <path d="M99.3448276,54.1195409 C99.3448276,50.1877744 96.1603987,47 92.2327586,47 L21.112069,47 C17.1844289,47 14,50.1877744 14,54.1195409 L14,103.956327 L99.3448276,103.956327 L99.3448276,54.1195409 Z" id="Fill-3166" fill="#BDBDBD"></path>
                    <polygon id="Fill-3167" fill="#3E3E3F" points="92.4568966 103.956327 21.3362069 103.956327 21.3362069 54.1195409 92.4568966 54.1195409"></polygon>
                    <g id="Group" transform="translate(40.965517, 66.348684)">
                        <polygon id="Fill-1598" fill="#FCF7C2" points="18.2068966 0 0 6.96831364 0 21.4856337 13.6551724 28.4539474 31.862069 21.4856337 31.862069 6.96831364"></polygon>
                        <polygon id="Fill-1599" fill="#F3B606" points="31.862069 21.4856337 13.6551724 28.4539474 13.6551724 13.9366273 31.862069 6.96831364"></polygon>
                        <polygon id="Fill-1600" fill="#FACB1B" points="0 21.4856337 13.6551724 28.4539474 13.6551724 13.9366273 0 6.96831364"></polygon>
                        <path d="M18.2068966,8.12969925 L18.2068966,10.4524705 C18.2068966,11.0912325 16.6763793,11.6138561 14.7931034,11.6138561 C12.9098276,11.6138561 11.3793103,11.0912325 11.3793103,10.4524705 L11.3793103,8.12969925 C11.3793103,8.76846133 12.9098276,9.29108485 14.7931034,9.29108485 C16.6763793,9.29108485 18.2068966,8.76846133 18.2068966,8.12969925" id="Fill-1601" fill="#F3B606"></path>
                        <path d="M14.7931034,6.96831364 C12.9098276,6.96831364 11.3793103,7.49093716 11.3793103,8.12969925 C11.3793103,8.76846133 12.9098276,9.29108485 14.7931034,9.29108485 C16.6763793,9.29108485 18.2068966,8.76846133 18.2068966,8.12969925 C18.2068966,7.49093716 16.6763793,6.96831364 14.7931034,6.96831364" id="Fill-1602" fill="#FCF7C2"></path>
                        <path d="M11.3793103,4.64554243 L11.3793103,6.96831364 C11.3793103,7.60707573 9.8487931,8.12969925 7.96551724,8.12969925 C6.08224138,8.12969925 4.55172414,7.60707573 4.55172414,6.96831364 L4.55172414,4.64554243 C4.55172414,5.28430451 6.08224138,5.80692803 7.96551724,5.80692803 C9.8487931,5.80692803 11.3793103,5.28430451 11.3793103,4.64554243" id="Fill-1603" fill="#F3B606"></path>
                        <path d="M7.96551724,3.48415682 C6.08224138,3.48415682 4.55172414,4.00678034 4.55172414,4.64554243 C4.55172414,5.28430451 6.08224138,5.80692803 7.96551724,5.80692803 C9.8487931,5.80692803 11.3793103,5.28430451 11.3793103,4.64554243 C11.3793103,4.00678034 9.8487931,3.48415682 7.96551724,3.48415682" id="Fill-1604" fill="#FCF7C2"></path>
                        <path d="M20.4827586,1.16138561 L20.4827586,3.48415682 C20.4827586,4.1229189 18.9522414,4.64554243 17.0689655,4.64554243 C15.1856897,4.64554243 13.6551724,4.1229189 13.6551724,3.48415682 L13.6551724,1.16138561 C13.6551724,1.80014769 15.1856897,2.32277121 17.0689655,2.32277121 C18.9522414,2.32277121 20.4827586,1.80014769 20.4827586,1.16138561" id="Fill-1605" fill="#F3B606"></path>
                        <path d="M17.0689655,0 C15.1856897,0 13.6551724,0.522623523 13.6551724,1.16138561 C13.6551724,1.80014769 15.1856897,2.32277121 17.0689655,2.32277121 C18.9522414,2.32277121 20.4827586,1.80014769 20.4827586,1.16138561 C20.4827586,0.522623523 18.9522414,0 17.0689655,0" id="Fill-1606" fill="#FCF7C2"></path>
                        <path d="M27.3103448,4.64554243 L27.3103448,6.96831364 C27.3103448,7.60707573 25.7798276,8.12969925 23.8965517,8.12969925 C22.0132759,8.12969925 20.4827586,7.60707573 20.4827586,6.96831364 L20.4827586,4.64554243 C20.4827586,5.28430451 22.0132759,5.80692803 23.8965517,5.80692803 C25.7798276,5.80692803 27.3103448,5.28430451 27.3103448,4.64554243" id="Fill-1607" fill="#F3B606"></path>
                        <path d="M23.8965517,3.48415682 C22.0132759,3.48415682 20.4827586,4.00678034 20.4827586,4.64554243 C20.4827586,5.28430451 22.0132759,5.80692803 23.8965517,5.80692803 C25.7798276,5.80692803 27.3103448,5.28430451 27.3103448,4.64554243 C27.3103448,4.00678034 25.7798276,3.48415682 23.8965517,3.48415682" id="Fill-1608" fill="#FCF7C2"></path>
                    </g>
                    <g id="Group-8-Copy" transform="translate(5.000000, 0.000000)">
                        <path d="M67.4966325,15.88053 C67.4966325,24.6513467 60.3018129,31.76106 51.4260057,31.76106 C42.5501986,31.76106 35.355379,24.6513467 35.355379,15.88053 C35.355379,7.10971328 42.5501986,0 51.4260057,0 C60.3018129,0 67.4966325,7.10971328 67.4966325,15.88053" id="Fill-5337" fill="#4A3B8F"></path>
                        <path d="M59.7849816,17.0259926 C59.2401873,16.8401904 55.1405704,15.6777356 55.1405704,15.1108007 C56.4985384,14.0341008 57.3695664,12.3841137 57.3695664,10.5292678 C57.3695664,7.28487553 54.7082706,4.65664781 51.4266486,4.65664781 C48.1434195,4.65664781 45.4821237,7.28487553 45.4821237,10.5292678 C45.4821237,12.3841137 46.3531517,14.0341008 47.7111197,15.1108007 C47.7111197,15.6777356 43.6131098,16.8401904 43.0667085,17.0259926 C42.2728195,17.4738236 41.7842725,18.3091395 41.7842725,19.2111536 L42.5267355,23.929259 L60.3249546,23.929259 L61.0690246,19.2111536 C61.0690246,18.3091395 60.5788705,17.4738236 59.7849816,17.0259926" id="Fill-5343" fill="#FFFFFF"></path>
                        <path d="M32.1412536,25.408848 C32.1412536,34.1796647 24.946434,41.289378 16.0706268,41.289378 C7.19481962,41.289378 0,34.1796647 0,25.408848 C0,16.6380313 7.19481962,9.528318 16.0706268,9.528318 C24.946434,9.528318 32.1412536,16.6380313 32.1412536,25.408848" id="Fill-5344" fill="#4A3B8F"></path>
                        <path d="M24.4296026,26.5543106 C23.8848084,26.3685084 19.7851915,25.2060536 19.7851915,24.6391187 C21.1431594,23.5624188 22.0141874,21.9124317 22.0141874,20.0575858 C22.0141874,16.8131935 19.3528916,14.1849658 16.0712696,14.1849658 C12.7880406,14.1849658 10.1267448,16.8131935 10.1267448,20.0575858 C10.1267448,21.9124317 10.9977727,23.5624188 12.3557407,24.6391187 C12.3557407,25.2060536 8.25773087,26.3685084 7.71132956,26.5543106 C6.9174406,27.0021416 6.42889354,27.8374575 6.42889354,28.7394716 L7.1713565,33.457577 L24.9695757,33.457577 L25.7136457,28.7394716 C25.7136457,27.8374575 25.2234916,27.0021416 24.4296026,26.5543106" id="Fill-5345" fill="#FFFFFF"></path>
                        <path d="M102.852011,25.408848 C102.852011,34.1796647 95.6571919,41.289378 86.7813847,41.289378 C77.9055775,41.289378 70.7107579,34.1796647 70.7107579,25.408848 C70.7107579,16.6380313 77.9055775,9.528318 86.7813847,9.528318 C95.6571919,9.528318 102.852011,16.6380313 102.852011,25.408848" id="Fill-5346" fill="#4A3B8F"></path>
                        <path d="M95.1403605,26.5543106 C94.6164581,26.3748606 90.4959494,25.1472957 90.4959494,24.6391187 C91.8539173,23.5624188 92.7249453,21.9124317 92.7249453,20.0575858 C92.7249453,16.8131935 90.0636495,14.1849658 86.7820275,14.1849658 C83.4987985,14.1849658 80.8375027,16.8131935 80.8375027,20.0575858 C80.8375027,21.9124317 81.7085306,23.5624188 83.0664986,24.6391187 C83.0664986,25.2060536 78.9684888,26.3685084 78.4220875,26.5543106 C77.6281985,27.0021416 77.1396514,27.8374575 77.1396514,28.7394716 L77.8821144,33.457577 L95.6803336,33.457577 L96.4244036,28.7394716 C96.4244036,27.8374575 95.9342495,27.0021416 95.1403605,26.5543106" id="Fill-5347" fill="#FFFFFF"></path>
                        <path d="M54.6401311,38.113272 C54.6401311,39.8680706 53.2002029,41.289378 51.4260057,41.289378 C49.6518085,41.289378 48.2118804,39.8680706 48.2118804,38.113272 C48.2118804,36.3584734 49.6518085,34.937166 51.4260057,34.937166 C53.2002029,34.937166 54.6401311,36.3584734 54.6401311,38.113272" id="Fill-5348" fill="#353167"></path>
                        <path d="M54.6401311,50.817696 C54.6401311,52.5724946 53.2002029,53.993802 51.4260057,53.993802 C49.6518085,53.993802 48.2118804,52.5724946 48.2118804,50.817696 C48.2118804,49.0628974 49.6518085,47.64159 51.4260057,47.64159 C53.2002029,47.64159 54.6401311,49.0628974 54.6401311,50.817696" id="Fill-5349" fill="#353167"></path>
                        <path d="M54.6401311,63.52212 C54.6401311,65.2769186 53.2002029,66.698226 51.4260057,66.698226 C49.6518085,66.698226 48.2118804,65.2769186 48.2118804,63.52212 C48.2118804,61.7673214 49.6518085,60.346014 51.4260057,60.346014 C53.2002029,60.346014 54.6401311,61.7673214 54.6401311,63.52212" id="Fill-5350" fill="#353167"></path>
                        <path d="M65.8895699,52.405749 C65.8895699,54.1605476 64.4496417,55.581855 62.6754445,55.581855 C60.9012473,55.581855 59.4613191,54.1605476 59.4613191,52.405749 C59.4613191,50.6509504 60.9012473,49.229643 62.6754445,49.229643 C64.4496417,49.229643 65.8895699,50.6509504 65.8895699,52.405749" id="Fill-5351" fill="#353167"></path>
                        <path d="M75.5319459,42.877431 C75.5319459,44.6322296 74.0920178,46.053537 72.3178206,46.053537 C70.5436234,46.053537 69.1036952,44.6322296 69.1036952,42.877431 C69.1036952,41.1226324 70.5436234,39.701325 72.3178206,39.701325 C74.0920178,39.701325 75.5319459,41.1226324 75.5319459,42.877431" id="Fill-5352" fill="#353167"></path>
                        <path d="M36.9624416,52.405749 C36.9624416,54.1605476 38.4023698,55.581855 40.176567,55.581855 C41.9507642,55.581855 43.3906923,54.1605476 43.3906923,52.405749 C43.3906923,50.6509504 41.9507642,49.229643 40.176567,49.229643 C38.4023698,49.229643 36.9624416,50.6509504 36.9624416,52.405749" id="Fill-5353" fill="#353167"></path>
                        <path d="M27.3200656,42.877431 C27.3200656,44.6322296 28.7599937,46.053537 30.5341909,46.053537 C32.3083881,46.053537 33.7483163,44.6322296 33.7483163,42.877431 C33.7483163,41.1226324 32.3083881,39.701325 30.5341909,39.701325 C28.7599937,39.701325 27.3200656,41.1226324 27.3200656,42.877431" id="Fill-5354" fill="#353167"></path>
                    </g>
                    <polygon id="Fill-3168" fill="#5B5C5F" style="mix-blend-mode: soft-light;" points="70.2642188 54.1195409 21.3367403 54.1195409 21.3367403 103.098422"></polygon>
                    <polygon id="Fill-3170" fill="#BDBDBD" points="64.0086207 129.994261 64.0086207 108.635638 49.7844828 108.635638 49.7844828 129.994261 0 129.994261 0 140.673572 113.793103 140.673572 113.793103 129.994261"></polygon>
                    <path d="M69.3426724,134.443974 C69.3426724,141.816259 63.3720905,147.793113 56.0075431,147.793113 C48.6429957,147.793113 42.6724138,141.816259 42.6724138,134.443974 C42.6724138,127.071689 48.6429957,121.094835 56.0075431,121.094835 C63.3720905,121.094835 69.3426724,127.071689 69.3426724,134.443974" id="Fill-3171" fill="#909090"></path>
                    <g id="Group-3" transform="translate(49.000000, 125.000000)">
                        <path d="M3.02272727,6.22010271 C3.02272727,4.07884226 4.80653409,2.33749083 7,2.33749083 C9.19346591,2.33749083 10.9772727,4.07884226 10.9772727,6.22010271 L10.9772727,8.16140866 L12.9659091,8.16140866 L12.9659091,6.22010271 C12.9659091,3.00821203 10.2901989,0.396184886 7,0.396184886 C3.70980114,0.396184886 1.03409091,3.00821203 1.03409091,6.22010271 L1.03409091,8.16140866 L3.02272727,8.16140866 L3.02272727,6.22010271 Z" id="Fill-3172" fill="#FBE158"></path>
                        <path d="M13.9602273,16.8972854 C13.9602273,17.4330858 13.5147727,17.8679384 12.9659091,17.8679384 L1.03409091,17.8679384 C0.485227273,17.8679384 0.0397727273,17.4330858 0.0397727273,16.8972854 L0.0397727273,9.13206163 C0.0397727273,8.59626119 0.485227273,8.16140866 1.03409091,8.16140866 L12.9659091,8.16140866 C13.5147727,8.16140866 13.9602273,8.59626119 13.9602273,9.13206163 L13.9602273,16.8972854 Z" id="Fill-3173" fill="#FACB1B"></path>
                        <path d="M8.49147727,11.5586941 C8.49147727,10.7549934 7.82329545,10.1027146 7,10.1027146 C6.17670455,10.1027146 5.50852273,10.7549934 5.50852273,11.5586941 C5.50852273,11.9886933 5.70241477,12.3701599 6.00568182,12.6370895 L6.00568182,14.9559795 L7.99431818,14.9559795 L7.99431818,12.6370895 C8.29758523,12.3701599 8.49147727,11.9886933 8.49147727,11.5586941" id="Fill-3174" fill="#3E3E3F"></path>
                    </g>
                    <path d="M0,103.956327 L0,107.516097 C4.55350216,112.074383 10.7303341,114.635638 17.1703125,114.635638 L96.6227909,114.635638 C103.062769,114.635638 109.239601,112.074383 113.793103,107.516097 L113.793103,103.956327 L0,103.956327 Z" id="Fill-3169" fill="#909090"></path>
                </g>
            </g>
        </g>
    </g>
</svg>