<?xml version="1.0" encoding="UTF-8"?>
<svg width="122px" height="148px" viewBox="0 0 122 148" version="1.1" xmlns="http://www.w3.org/2000/svg" xmlns:xlink="http://www.w3.org/1999/xlink">
    <!-- Generator: Sketch 42 (36781) - http://www.bohemiancoding.com/sketch -->
    <title>Whatisitimg</title>
    <desc>Created with Sketch.</desc>
    <defs></defs>
    <g id="Page-1" stroke="none" stroke-width="1" fill="none" fill-rule="evenodd">
        <g id="BVPro" transform="translate(-789.000000, -381.000000)">
            <g id="Whatisitimg" transform="translate(789.000000, 381.000000)">
                <g id="Group-4">
                    <g id="Group-Copy" transform="translate(20.965909, 27.541667)">
                        <path d="M78.2727273,0 C84.4506818,0 89.4545455,4.99708333 89.4545455,11.1666667 L89.4545455,78.1666667 C89.4545455,84.33625 84.4506818,89.3333333 78.2727273,89.3333333 L11.1818182,89.3333333 C5.00386364,89.3333333 0,84.33625 0,78.1666667 L0,11.1666667 C0,4.99708333 5.00386364,0 11.1818182,0 L78.2727273,0 Z" id="Fill-6259" fill="#DEE0E2"></path>
                        <path d="M78.2727273,0 L11.1818182,0 C5.00665909,0 0,4.99847917 0,11.1666667 L0,16.75 L89.4545455,16.75 L89.4545455,11.1666667 C89.4545455,4.99847917 84.4478864,0 78.2727273,0" id="Fill-6260" fill="#353167"></path>
                        <polygon id="Fill-6261" fill="#6FDAF1" points="30.75 44.6666667 11.1818182 44.6666667 11.1818182 25.125 30.75 25.125"></polygon>
                        <polygon id="Fill-6262" fill="#E2E4E5" points="30.75 53.0416667 11.1818182 53.0416667 11.1818182 50.25 30.75 50.25"></polygon>
                        <polygon id="Fill-6263" fill="#E2E4E5" points="30.75 60.0208333 11.1818182 60.0208333 11.1818182 57.2291667 30.75 57.2291667"></polygon>
                        <polygon id="Fill-6264" fill="#E2E4E5" points="30.75 67 11.1818182 67 11.1818182 64.2083333 30.75 64.2083333"></polygon>
                        <polygon id="Fill-6265" fill="#E2E4E5" points="23.7613636 73.9791667 11.1818182 73.9791667 11.1818182 71.1875 23.7613636 71.1875"></polygon>
                        <path d="M26.5568182,33.5 C26.5568182,36.5833958 24.0534886,39.0833333 20.9659091,39.0833333 C17.8783295,39.0833333 15.375,36.5833958 15.375,33.5 C15.375,30.4166042 17.8783295,27.9166667 20.9659091,27.9166667 C24.0534886,27.9166667 26.5568182,30.4166042 26.5568182,33.5" id="Fill-6266" fill="#21B2D1"></path>
                        <path d="M30.75,44.6666667 L30.75,42.2239583 C29.3522727,40.6536458 26.5568182,39.0833333 20.9659091,39.0833333 C15.375,39.0833333 12.5795455,40.6536458 11.1818182,42.2239583 L11.1818182,44.6666667 L30.75,44.6666667 Z" id="Fill-6267" fill="#21B2D1"></path>
                        <polygon id="Fill-6269" fill="#E2E4E5" points="78.2727273 44.6666667 39.1363636 44.6666667 39.1363636 25.125 78.2727273 25.125"></polygon>
                        <polygon id="Fill-6270" fill="#E2E4E5" points="78.2727273 61.4166667 39.1363636 61.4166667 39.1363636 51.6458333 78.2727273 51.6458333"></polygon>
                        <polygon id="Fill-6271" fill="#E2E4E5" points="78.2727273 79.5625 39.1363636 79.5625 39.1363636 67 78.2727273 67"></polygon>
                        <ellipse id="Oval-2" fill="#81B44C" cx="73.3806818" cy="23.03125" rx="11.8806818" ry="11.8645833"></ellipse>
                        <polyline id="Path-2" stroke="#FFFFFF" stroke-width="2.79999995" stroke-linecap="round" stroke-linejoin="round" points="67.7911377 22.6822917 72.1583529 26.5208333 79.3210227 19.5416667"></polyline>
                    </g>
                    <g id="Group-Copy" transform="translate(9.784091, 13.770833)">
                        <path d="M78.2727273,-7.81597009e-14 C84.4506818,-7.81597009e-14 89.4545455,4.99708333 89.4545455,11.1666667 L89.4545455,78.1666667 C89.4545455,84.33625 84.4506818,89.3333333 78.2727273,89.3333333 L11.1818182,89.3333333 C5.00386364,89.3333333 -2.84217094e-14,84.33625 -2.84217094e-14,78.1666667 L-2.84217094e-14,11.1666667 C-2.84217094e-14,4.99708333 5.00386364,-7.81597009e-14 11.1818182,-7.81597009e-14 L78.2727273,-7.81597009e-14 Z" id="Fill-6259" fill="#F5F7F9"></path>
                        <path d="M78.2727273,-7.81597009e-14 L11.1818182,-7.81597009e-14 C5.00665909,-7.81597009e-14 -2.84217094e-14,4.99847917 -2.84217094e-14,11.1666667 L-2.84217094e-14,16.75 L89.4545455,16.75 L89.4545455,11.1666667 C89.4545455,4.99847917 84.4478864,-7.81597009e-14 78.2727273,-7.81597009e-14" id="Fill-6260" fill="#353167"></path>
                        <polygon id="Fill-6261" fill="#6FDAF1" points="30.75 44.6666667 11.1818182 44.6666667 11.1818182 25.125 30.75 25.125"></polygon>
                        <polygon id="Fill-6262" fill="#E2E4E5" points="30.75 53.0416667 11.1818182 53.0416667 11.1818182 50.25 30.75 50.25"></polygon>
                        <polygon id="Fill-6263" fill="#E2E4E5" points="30.75 60.0208333 11.1818182 60.0208333 11.1818182 57.2291667 30.75 57.2291667"></polygon>
                        <polygon id="Fill-6264" fill="#E2E4E5" points="30.75 67 11.1818182 67 11.1818182 64.2083333 30.75 64.2083333"></polygon>
                        <polygon id="Fill-6265" fill="#E2E4E5" points="23.7613636 73.9791667 11.1818182 73.9791667 11.1818182 71.1875 23.7613636 71.1875"></polygon>
                        <path d="M26.5568182,33.5 C26.5568182,36.5833958 24.0534886,39.0833333 20.9659091,39.0833333 C17.8783295,39.0833333 15.375,36.5833958 15.375,33.5 C15.375,30.4166042 17.8783295,27.9166667 20.9659091,27.9166667 C24.0534886,27.9166667 26.5568182,30.4166042 26.5568182,33.5" id="Fill-6266" fill="#21B2D1"></path>
                        <path d="M30.75,44.6666667 L30.75,42.2239583 C29.3522727,40.6536458 26.5568182,39.0833333 20.9659091,39.0833333 C15.375,39.0833333 12.5795455,40.6536458 11.1818182,42.2239583 L11.1818182,44.6666667 L30.75,44.6666667 Z" id="Fill-6267" fill="#21B2D1"></path>
                        <polygon id="Fill-6269" fill="#E2E4E5" points="78.2727273 44.6666667 39.1363636 44.6666667 39.1363636 25.125 78.2727273 25.125"></polygon>
                        <polygon id="Fill-6270" fill="#E2E4E5" points="78.2727273 61.4166667 39.1363636 61.4166667 39.1363636 51.6458333 78.2727273 51.6458333"></polygon>
                        <polygon id="Fill-6271" fill="#E2E4E5" points="78.2727273 79.5625 39.1363636 79.5625 39.1363636 67 78.2727273 67"></polygon>
                        <ellipse id="Oval-2" fill="#81B44C" cx="73.3806818" cy="23.03125" rx="11.8806818" ry="11.8645833"></ellipse>
                        <polyline id="Path-2" stroke="#FFFFFF" stroke-width="2.79999995" stroke-linecap="round" stroke-linejoin="round" points="67.7911377 22.6822917 72.1583529 26.5208333 79.3210227 19.5416667"></polyline>
                    </g>
                    <g id="Group">
                        <path d="M78.2727273,0 C84.4506818,0 89.4545455,4.99708333 89.4545455,11.1666667 L89.4545455,78.1666667 C89.4545455,84.33625 84.4506818,89.3333333 78.2727273,89.3333333 L11.1818182,89.3333333 C5.00386364,89.3333333 0,84.33625 0,78.1666667 L0,11.1666667 C0,4.99708333 5.00386364,0 11.1818182,0 L78.2727273,0 Z" id="Fill-6259" fill="#FFFFFF"></path>
                        <path d="M78.2727273,0 L11.1818182,0 C5.00665909,0 0,4.99847917 0,11.1666667 L0,16.75 L89.4545455,16.75 L89.4545455,11.1666667 C89.4545455,4.99847917 84.4478864,0 78.2727273,0" id="Fill-6260" fill="#353167"></path>
                        <polygon id="Fill-6261" fill="#6FDAF1" points="30.75 44.6666667 11.1818182 44.6666667 11.1818182 25.125 30.75 25.125"></polygon>
                        <polygon id="Fill-6262" fill="#E2E4E5" points="30.75 53.0416667 11.1818182 53.0416667 11.1818182 50.25 30.75 50.25"></polygon>
                        <polygon id="Fill-6263" fill="#E2E4E5" points="30.75 60.0208333 11.1818182 60.0208333 11.1818182 57.2291667 30.75 57.2291667"></polygon>
                        <polygon id="Fill-6264" fill="#E2E4E5" points="30.75 67 11.1818182 67 11.1818182 64.2083333 30.75 64.2083333"></polygon>
                        <polygon id="Fill-6265" fill="#E2E4E5" points="23.7613636 73.9791667 11.1818182 73.9791667 11.1818182 71.1875 23.7613636 71.1875"></polygon>
                        <path d="M26.5568182,33.5 C26.5568182,36.5833958 24.0534886,39.0833333 20.9659091,39.0833333 C17.8783295,39.0833333 15.375,36.5833958 15.375,33.5 C15.375,30.4166042 17.8783295,27.9166667 20.9659091,27.9166667 C24.0534886,27.9166667 26.5568182,30.4166042 26.5568182,33.5" id="Fill-6266" fill="#21B2D1"></path>
                        <path d="M30.75,44.6666667 L30.75,42.2239583 C29.3522727,40.6536458 26.5568182,39.0833333 20.9659091,39.0833333 C15.375,39.0833333 12.5795455,40.6536458 11.1818182,42.2239583 L11.1818182,44.6666667 L30.75,44.6666667 Z" id="Fill-6267" fill="#21B2D1"></path>
                        <polygon id="Fill-6269" fill="#E2E4E5" points="78.2727273 44.6666667 39.1363636 44.6666667 39.1363636 25.125 78.2727273 25.125"></polygon>
                        <polygon id="Fill-6270" fill="#E2E4E5" points="78.2727273 61.4166667 39.1363636 61.4166667 39.1363636 51.6458333 78.2727273 51.6458333"></polygon>
                        <polygon id="Fill-6271" fill="#E2E4E5" points="78.2727273 79.5625 39.1363636 79.5625 39.1363636 67 78.2727273 67"></polygon>
                        <ellipse id="Oval-2" fill="#81B44C" cx="73.3806818" cy="23.03125" rx="11.8806818" ry="11.8645833"></ellipse>
                        <polyline id="Path-2" stroke="#FFFFFF" stroke-width="2.79999995" stroke-linecap="round" stroke-linejoin="round" points="67.7911377 22.6822917 72.1583529 26.5208333 79.3210227 19.5416667"></polyline>
                    </g>
                </g>
                <g id="Group" transform="translate(43.000000, 58.000000)">
                    <path d="M0,16.75 L0,39.0833333 C0,61.4166667 20.8680682,82.3541667 39.0385227,89.3333333 C57.2089773,82.3541667 78.0770455,61.4166667 78.0770455,39.0833333 L78.0770455,16.75 C58.3621023,16.75 39.0385227,0 39.0385227,0 C39.0385227,0 19.664625,16.75 0,16.75" id="Fill-4516" fill="#FBE158"></path>
                    <path d="M72.4866955,20.9375 L72.4866955,39.0833333 C72.4866955,50.7538958 69.3725591,64.9551042 44.6299909,80.8466667 C42.8129455,82.0191667 40.9399909,82.99625 39.0390818,83.75 C37.1381727,82.99625 35.2652182,82.0191667 33.4481727,80.8466667 C9.646275,65.5595 5.59146818,51.6946875 5.59146818,39.0833333 L5.59146818,20.9375 C12.6989114,20.828625 29.8825705,17.5079375 39.0390818,6.97916667 C48.0865705,17.5498125 65.2842068,20.9375 72.4866955,20.9375" id="Fill-4517" fill="#F3B606"></path>
                    <path d="M0,16.75 L0,39.0833333 C0,61.4166667 20.8680682,82.3541667 39.0385227,89.3333333 L39.0385227,0 C39.0385227,0 19.664625,16.75 0,16.75" id="Fill-4518" fill="#FBED9A"></path>
                    <path d="M5.59090909,20.9375 L5.59090909,39.0833333 C5.59090909,51.6946875 9.64571591,65.5595 33.4476136,80.8466667 C35.2646591,82.0191667 37.1376136,82.99625 39.0385227,83.75 L39.0385227,6.97916667 C29.8820114,17.5079375 12.6983523,20.828625 5.59090909,20.9375" id="Fill-4519" fill="#FACB1B"></path>
                    <path d="M41.5523352,47.9498063 L41.5523352,55.0141188 C43.9438466,54.6581813 45.1654602,53.5401188 45.1654602,51.7101813 C45.1654602,50.0337854 44.300267,48.9157229 41.5523352,47.9498063 M36.7693125,39.0555563 L36.7693125,32.1950354 C34.3260852,32.5509729 33.2568239,33.7709313 33.2568239,35.3970771 C33.2568239,36.9729729 33.9696648,38.0407854 36.7693125,39.0555563 M39.1608239,22.5917021 C40.6368239,22.5917021 41.8067216,23.7600146 41.8067216,25.2340146 L41.8067216,25.9458896 C44.5546534,26.3520771 46.9978807,27.1644521 49.1853239,28.3844104 C50.1525511,28.9427437 51.0177443,29.9100563 51.0177443,31.4329104 C51.0177443,33.3647437 49.4914261,34.8387438 47.5569716,34.8387438 C46.9461648,34.8387438 46.335358,34.6865979 45.776267,34.3809104 C44.3505852,33.6187854 42.9263011,33.0088062 41.5523352,32.6542646 L41.5523352,40.3774104 C49.287358,42.4613896 52.5943807,45.6117854 52.5943807,51.3039937 C52.5943807,56.9948063 48.2194943,60.6546812 41.8067216,61.3665563 L41.8067216,64.0605146 C41.8067216,65.5331188 40.6368239,66.7014313 39.1608239,66.7014313 C37.6848239,66.7014313 36.5149261,65.5331188 36.5149261,64.0605146 L36.5149261,61.3149104 C32.9018011,60.8584729 29.4927443,59.5868688 26.4904261,57.7583271 C25.4211648,57.0967021 24.7600398,56.0805354 24.7600398,54.7084313 C24.7600398,52.7263479 26.286358,51.2537438 28.2711307,51.2537438 C28.9322557,51.2537438 29.6450966,51.5063896 30.2545057,51.9139729 C32.3930284,53.2860771 34.4281193,54.2505979 36.7693125,54.7586813 L36.7693125,46.6795979 C29.4410284,44.6975146 25.8279034,41.9016604 25.8279034,35.8549104 C25.8279034,30.2645979 30.1035511,26.5042229 36.5149261,25.8439938 L36.5149261,25.2340146 C36.5149261,23.7600146 37.6848239,22.5917021 39.1608239,22.5917021" id="Fill-4520" fill="#FFFFFF"></path>
                </g>
            </g>
        </g>
    </g>
</svg>