<svg version="1.1" id="Layer_1" xmlns="http://www.w3.org/2000/svg" xmlns:xlink="http://www.w3.org/1999/xlink" x="0" y="0" viewBox="0 0 52 52" xml:space="preserve" enable-background="new 0 0 52 52"><style type="text/css">.st0{fill:#fff}.st1{fill:#fb6620}.st2{fill:#ef5830}.st3{fill:#f9a121}</style><circle class="st0" cx="26" cy="26" r="25"/><path class="st1" d="M37.86,23.17c-0.53-0.23-2.79,0.02-3.42-0.54c-0.44-0.41-0.47-1.15-0.65-2.14c-0.29-1.66-0.41-2.03-0.71-2.68 c-1.1-2.32-3.73-4.31-6.12-4.31h-5.54c-4.36,0-7.92,3.56-7.92,7.9v9.21c0,4.33,3.56,7.89,7.92,7.89h9.1c4.36,0,7.9-3.55,7.92-7.89 l0.05-6.38C38.5,24.23,38.5,23.44,37.86,23.17z M21.52,19.95h4.39c0.84,0,1.52,0.58,1.52,1.41c0,0.83-0.68,1.42-1.52,1.42h-4.39 c-0.84,0-1.52-0.59-1.52-1.42C20.01,20.53,20.68,19.95,21.52,19.95z M30.45,32.05h-8.93c-0.84,0-1.52-0.79-1.52-1.61 c0-0.83,0.68-1.61,1.52-1.61h8.93c0.83,0,1.51,0.79,1.51,1.61C31.96,31.25,31.28,32.05,30.45,32.05z"/><path class="st2" d="M37.86,23.17c-0.53-0.23-2.79,0.02-3.42-0.54c-0.14-0.13-0.24-0.3-0.31-0.49c-0.37,2.65-1.44,4.91-3.19,6.78 c0.63,0.24,1.02,0.91,1.02,1.61c0,0.82-0.68,1.53-1.51,1.53h-3.79c-1.57,0.81-3.32,1.06-5.15,1.06c-3.04,0-5.82-1.09-8.01-2.86 v0.37c0,4.34,3.56,7.89,7.92,7.89h9.1c4.36,0,7.9-3.55,7.92-7.89l0.05-6.38C38.5,24.23,38.5,23.44,37.86,23.17z"/><path class="st3" d="M21.52,23.98h4.39c0.84,0,1.53-1.42,1.53-2.25c0-0.17-0.01-0.09-0.1,0.12c-0.26,0.57-0.76,0.92-1.43,0.92 h-4.39c-0.66,0-1.21-0.38-1.43-0.92c-0.09-0.23-0.09-0.27-0.09-0.1C20,22.58,20.68,23.98,21.52,23.98z"/><path class="st3" d="M21.42,14.31h5.54c2.39,0,5.02,2.07,6.12,4.39c0.3,0.65,0.42,1.07,0.71,2.72c0.17,0.99,0.2,1.75,0.65,2.16 c0.63,0.57,2.89,0.33,3.42,0.55c0.51,0.22,0.61,0.76,0.63,0.97l0.01-0.88c0,0,0-0.79-0.64-1.06c-0.53-0.23-2.79,0.03-3.42-0.54 c-0.44-0.41-0.47-1.15-0.65-2.14c-0.29-1.66-0.41-2.03-0.71-2.68c-1.1-2.32-3.73-4.31-6.12-4.31h-5.54c-4.36,0-7.92,3.56-7.92,7.9 v0.98C13.5,18.03,17.06,14.31,21.42,14.31z"/><path class="st3" d="M21.52,32.85h8.93c0.83,0,1.55-1.22,1.55-2.03c0-0.17,0.01-0.23-0.13,0.16c-0.26,0.57-0.76,1.07-1.42,1.07 h-8.93c-0.66,0-1.14-0.48-1.39-1.01c-0.13-0.35-0.15-0.37-0.15-0.19C19.99,31.66,20.68,32.85,21.52,32.85z"/></svg>