<svg version="1.1" id="Layer_1" xmlns="http://www.w3.org/2000/svg" xmlns:xlink="http://www.w3.org/1999/xlink" x="0" y="0" viewBox="0 0 52 52" xml:space="preserve" enable-background="new 0 0 52 52"><style type="text/css">.st0{fill:#fff}.st1{fill:#40e269}.st2{fill:#46d16a}.st3{fill:#38bc5f}.st4{fill:#30aa6f}</style><circle class="st0" cx="26" cy="26" r="25"/><path class="st1" d="M15.66,16.56L15.66,16.56h2.9c0.17,0,0.41-0.16,0.41-0.33c0,0,0.07-2.52,0.07-3.22v-0.01 c0-0.57,0.01-1.07,0.22-1.48l0.04-0.19c-0.01,0-0.05,0.01-0.06,0.02l-5.64,5.61c-0.01,0.01-0.03,0.02-0.03,0.03 c0.12-0.06,0.27-0.11,0.3-0.12C14.36,16.65,14.95,16.56,15.66,16.56z"/><path class="st2" d="M36.59,13.81c-0.71-0.26-2.16-0.53-3.98-0.74c-1.47-0.17-3.19-0.16-4.23-0.13c-0.12-0.86-0.72-1.64-1.4-1.91 c-1.79-0.72-4.55-0.55-5.26-0.35c-0.56,0.16-1.19,0.48-1.53,0.98c-0.23,0.33-0.38,0.76-0.38,1.36c0,0.34,0.01,1.13,0.02,1.84 c0.01,0.71,0.02,1.45,0.02,1.45c0,0.63-0.51,1.25-1.14,1.25h-2.9c-0.62,0-1.09,0-1.45,0.17c-0.36,0.17-0.62,0.34-0.81,0.6 c-0.39,0.52-0.45,1.14-0.45,1.8c0,0,0.01,0.53,0.14,1.56c0.11,0.8,0.98,6.42,1.8,8.12c0.32,0.66,0.53,0.94,1.16,1.23 c1.4,0.6,4.6,1.27,6.1,1.46c1.5,0.19,2.43,0.59,3-0.58c0,0,0.11-0.28,0.26-0.7c0.49-1.48,0.56-2.73,0.56-3.72h0.14 c0,0.5-0.13,3.02,1.66,3.66c0.7,0.25,2.16,0.46,3.65,0.64c1.34,0.15,2.32,0.68,2.32,4.14c0,2.1-0.44,2.39-2.74,2.39 c-1.87,0-2.58,0.05-2.58-1.44c0-1.2,1.19-1.08,2.06-1.08c0.39,0,0.11-0.29,0.11-1.03c0-0.74,0.46-1.16,0.02-1.17 c-3.03-0.08-4.82,0-4.82,3.81c0,3.46,1.32,4.1,5.63,4.1c3.38,0,4.57-0.11,5.96-4.46c0.28-0.86,0.94-3.48,1.35-7.87 c0.26-2.78-0.24-11.16-0.63-13.28C37.98,14.66,37.25,14.05,36.59,13.81z M32.32,25.16c-0.42-0.01-0.82,0.01-1.19,0.07 c0.1-0.85,0.46-1.9,1.7-1.86c1.38,0.05,1.57,1.35,1.58,2.24C33.83,25.36,33.11,25.19,32.32,25.16z"/><path class="st3" d="M35.62,16.1c-0.71-0.26-1.2-2.82-3.02-3.04c-1.47-0.17-3.19-0.16-4.23-0.13c-0.12-0.86-0.72-1.64-1.4-1.91 c-1.79-0.72-4.55-0.55-5.26-0.35c-0.56,0.16-1.19,0.48-1.53,0.98c-0.23,0.33-0.38,0.76-0.38,1.36c0,0.34,0.01,1.13,0.02,1.84 c0.01,0.71,0.02,1.45,0.02,1.45c0,0.63-0.51,1.25-1.14,1.25h-2.9c-0.62,0-1.09,0-1.45,0.17c-0.36,0.17-0.62,0.34-0.81,0.6 c-0.39,0.52-0.45,1.14-0.45,1.8c0,0,0.01,0.53,0.14,1.56c0.11,0.8,0.98,6.42,1.8,8.12c0.32,0.66,0.53,0.94,1.16,1.23 c1.4,0.6,4.6,1.27,6.1,1.46c1.5,0.19,2.43,0.59,3-0.58c0,0,0.11-0.28,0.26-0.7c0.49-1.48,0.56-2.73,0.56-3.72h0.14 c0,0.5-0.13,3.02,1.66,3.66c0.7,0.25,2.16,0.46,3.65,0.64c1.34,0.15,2.32,0.68,2.32,4.14c0,2.1-0.44,2.39-2.74,2.39 c-1.87,0-2.58,0.05-2.58-1.44c0-1.2,1.19-1.08,2.06-1.08c0.39,0,0.11-0.29,0.11-1.03c0-0.74,0.46-1.16,0.02-1.17 c-3.03-0.08-4.82,0-4.82,3.81c0,3.46,1.32,4.1,5.63,4.1c3.38,0,4.57-0.11,5.96-4.46c0.28-0.86,0.94-3.48,1.35-7.87 c0.26-2.78-1.2-8.87-1.6-10.99C37.02,16.95,36.29,16.34,35.62,16.1z M32.32,25.16c-0.42-0.01-0.82,0.01-1.19,0.07 c0.1-0.85,0.46-1.9,1.7-1.86c1.38,0.05,1.57,1.35,1.58,2.24C33.83,25.36,33.11,25.19,32.32,25.16z"/><path class="st4" d="M28.45,13.91c-0.03-0.36-0.02-0.68,0.01-0.97c-0.03,0-0.06,0-0.08,0c-0.12-0.86-0.72-1.64-1.4-1.91 c-1.79-0.72-4.55-0.55-5.26-0.35c-0.56,0.16-1.19,0.48-1.54,0.98c-0.23,0.33-0.38,0.76-0.38,1.36c0,0.34,0.01,1.13,0.02,1.84 c0.01,0.71,0.02,1.45,0.02,1.45c0,0.63-0.51,1.25-1.14,1.25h-2.9c-0.62,0-1.09,0-1.45,0.17c-0.36,0.17-0.62,0.34-0.81,0.6 c-0.39,0.52-0.45,1.14-0.45,1.8c0,0,0.01,0.53,0.14,1.56c0.11,0.8,0.98,6.42,1.8,8.12c0.32,0.66,0.53,0.94,1.16,1.23 c1.4,0.6,4.6,1.27,6.1,1.46c1.5,0.19,2.43,0.59,3-0.58c0,0,0.11-0.29,0.26-0.72c0.24-0.72,0.38-1.41,0.45-2.03l0.1-1.71 c0,0,0.02-6.36,2.2-8.62C30.47,16.57,28.69,16.49,28.45,13.91z"/><path class="st4" d="M28.21,20.93c-3.79,0-4.68,4.51-4.68,10.98c0,0.26,0.01,0.52,0.02,0.77c0.79,0.1,1.35,0.03,1.73-0.77 c0,0,0.11-0.28,0.26-0.7c0.49-1.48,0.55-2.73,0.55-3.72h0.14c0,0.5-0.13,3.02,1.66,3.66c0.7,0.25,2.17,0.46,3.65,0.64 c1.34,0.15,2.32,0.68,2.32,4.14c0,2.1-0.44,2.39-2.74,2.39c-1.87,0-2.58,0.05-2.58-1.44c0-1.2,1.19-1.08,2.06-1.08 c0.39,0,0.11-0.29,0.11-1.03c0-0.74,0.46-1.16,0.02-1.17c-3.03-0.08-4.82,0-4.82,3.81c0,3.46,1.32,4.1,5.63,4.1 c3.38,0,4.57-0.11,5.96-4.46c0.09-0.28,0.22-0.74,0.37-1.38c0.25-1.22,0.37-2.54,0.35-3.91C38.06,22.54,32,20.93,28.21,20.93z M32.32,25.16c-0.42-0.01-0.82,0.01-1.19,0.07c0.1-0.85,0.46-1.9,1.7-1.86c1.38,0.05,1.57,1.35,1.58,2.24 C33.83,25.36,33.11,25.19,32.32,25.16z"/></svg>