<svg version="1.1" id="Layer_1" xmlns="http://www.w3.org/2000/svg" xmlns:xlink="http://www.w3.org/1999/xlink" x="0" y="0" viewBox="0 0 52 52" xml:space="preserve" enable-background="new 0 0 52 52"><style type="text/css">.st0{fill:#fff}.st1{fill:#f91d80}.st2{fill:#c6056f}.st3{fill:#0063d1}.st4{fill:#0842b7}</style><circle class="st0" cx="26" cy="26" r="25"/><path class="st1" d="M34.98,19.05c-3.91,0-7.08,3.12-7.08,6.97c0,3.85,3.16,6.98,7.08,6.98c3.91,0,7.07-3.12,7.07-6.98 C42.06,22.18,38.89,19.05,34.98,19.05z"/><path class="st2" d="M39.91,30.95c2.76-2.76,2.79-7.21,0.07-9.93c-2.72-2.72-7.17-2.69-9.93,0.07"/><path class="st3" d="M17.01,19.05c-3.91,0-7.07,3.12-7.07,6.97c0,3.85,3.16,6.98,7.07,6.98c3.91,0,7.08-3.12,7.08-6.98 C24.09,22.18,20.93,19.05,17.01,19.05z"/><path class="st1" d="M34.98,20.47c3.67,0,6.67,2.75,7.03,6.26c0.02-0.23,0.04-0.47,0.04-0.71c0-3.85-3.16-6.97-7.07-6.97 c-3.91,0-7.08,3.12-7.08,6.97c0,0.24,0.01,0.48,0.04,0.71C28.31,23.22,31.32,20.47,34.98,20.47z"/><path class="st4" d="M21.95,30.96c2.77-2.77,2.79-7.21,0.07-9.94c-2.72-2.72-7.17-2.69-9.93,0.07"/><path class="st3" d="M17.01,20.47c3.67,0,6.68,2.75,7.04,6.26c0.02-0.23,0.04-0.47,0.04-0.71c0-3.85-3.16-6.97-7.08-6.97 c-3.91,0-7.07,3.12-7.07,6.97c0,0.24,0.01,0.48,0.04,0.71C10.34,23.22,13.35,20.47,17.01,20.47z"/></svg>