<svg version="1.1" id="Layer_1" xmlns="http://www.w3.org/2000/svg" xmlns:xlink="http://www.w3.org/1999/xlink" x="0" y="0" viewBox="0 0 52 52" xml:space="preserve" enable-background="new 0 0 52 52"><style type="text/css">.st0{fill:#fff}.st1{fill:#ff7976}.st2{fill:#e3443a}.st3{fill:#f4d72c}.st4{fill:#f7b92b}.st5{fill:#59c96e}.st6{fill:#40a557}.st7{fill:#0faef4}.st8{fill:#4087ed}</style><circle class="st0" cx="26" cy="26" r="25"/><path class="st1" d="M26.32,12c-4.25,0-8.03,1.86-10.6,4.82c-0.78,0.9-1.45,1.9-1.98,2.98l4.72,3.6c0.55-1.66,1.6-3.08,2.98-4.09 c1.37-1,3.05-1.58,4.88-1.58c1.98,0,3.76,0.7,5.16,1.85l4.08-4.07C33.07,13.34,29.89,12,26.32,12z"/><path class="st2" d="M13.74,19.8l4.72,3.6c0.55-1.66,1.6-3.08,2.98-4.09c1.37-1,3.05-1.58,4.88-1.58c1.98,0,3.76,0.7,5.16,1.85 l4.08-4.07c-2.49-2.16-5.67-3.5-9.24-3.5"/><path class="st3" d="M18.03,26c0-0.13,0.01-0.26,0.02-0.38c0.04-0.77,0.17-1.51,0.4-2.22l-4.72-3.6c-0.87,1.76-1.37,3.73-1.43,5.82 c0,0.13-0.01,0.26-0.01,0.38c0,0.13,0.01,0.26,0.01,0.38c0.06,2.09,0.56,4.06,1.42,5.81l4.72-3.61c-0.23-0.7-0.36-1.44-0.4-2.2 C18.04,26.26,18.03,26.13,18.03,26z"/><path class="st4" d="M13.73,32.2l4.72-3.61c-0.23-0.7-0.36-1.44-0.4-2.2c-0.01-0.13-0.02-0.26-0.02-0.38 c0-0.13,0.01-0.26,0.02-0.38c0.04-0.77,0.17-1.51,0.4-2.22l-4.72-3.6"/><path class="st5" d="M30.97,33.05c-1.26,0.8-2.86,1.22-4.66,1.22c-1.05,0-2.06-0.2-2.98-0.56c-0.68-0.26-1.32-0.61-1.9-1.04 c-1.38-1-2.44-2.42-2.98-4.08l-4.72,3.6c0.53,1.08,1.2,2.08,1.98,2.98c2.57,2.96,6.35,4.82,10.6,4.82c1.28,0,2.55-0.17,3.75-0.51 c2-0.56,3.85-1.56,5.38-2.98L30.97,33.05z"/><path class="st6" d="M13.74,32.2c0.53,1.08,1.2,2.08,1.98,2.98c2.57,2.96,6.35,4.82,10.6,4.82c1.28,0,2.55-0.17,3.75-0.51 c2-0.56,3.85-1.56,5.38-2.98l-4.48-3.46c-1.26,0.8-2.86,1.22-4.66,1.22c-1.05,0-2.06-0.2-2.98-0.56c-0.68-0.26-1.32-0.61-1.9-1.04"/><path class="st7" d="M39.38,23.3h-0.84H26.45v2.31v0.77v2.31h7.39c-0.38,1.8-1.4,3.43-2.86,4.35l4.48,3.46 c1.23-1.14,2.25-2.57,2.98-4.23c0.8-1.81,1.27-3.98,1.27-6.37C39.7,25.09,39.57,24.2,39.38,23.3z"/><path class="st8" d="M35.45,36.51c1.23-1.14,2.26-2.59,2.99-4.24c0.8-1.81,1.26-3.98,1.26-6.36c0-0.83-0.13-1.7-0.32-2.6h-0.8"/><polyline class="st8" points="26.45,25.55 26.45,26.38 26.45,28.7 33.63,28.7"/></svg>