<svg version="1.1" id="Layer_1" xmlns="http://www.w3.org/2000/svg" xmlns:xlink="http://www.w3.org/1999/xlink" x="0" y="0" viewBox="0 0 52 52" xml:space="preserve" enable-background="new 0 0 52 52"><style type="text/css">.st0{fill:#fff}.st1{fill:url(#SVGID_1_)}.st2{fill:url(#SVGID_2_)}.st3{fill:url(#SVGID_3_)}.st4,.st5{opacity:.4;fill:url(#SVGID_4_);enable-background:new}.st5{fill:url(#SVGID_5_)}.st6{opacity:.3}.st7{fill:url(#SVGID_6_)}.st8{fill:url(#SVGID_7_)}.st9{fill:url(#SVGID_8_)}.st10{fill:url(#SVGID_9_)}</style><circle class="st0" cx="26" cy="26" r="25"/><radialGradient id="SVGID_1_" cx="20.335" cy="-262.383" r="27.275" gradientTransform="matrix(1 0 0 -1 0 -222.95)" gradientUnits="userSpaceOnUse"><stop offset="0" stop-color="#FFD676"/><stop offset=".246" stop-color="#F2A454"/><stop offset=".379" stop-color="#F05C3C"/><stop offset=".7" stop-color="#C22F86"/><stop offset=".957" stop-color="#6666AD"/><stop offset=".985" stop-color="#5C6CB2"/></radialGradient><path class="st1" d="M39.53,33.59c0,3.27-2.64,5.91-5.89,5.91H18.36c-3.25,0-5.89-2.65-5.89-5.91V18.41c0-3.27,2.64-5.91,5.89-5.91 h15.28c3.25,0,5.89,2.65,5.89,5.91L39.53,33.59L39.53,33.59L39.53,33.59z"/><linearGradient id="SVGID_2_" gradientUnits="userSpaceOnUse" x1="12.161" y1="-237.248" x2="28.251" y2="-250.854" gradientTransform="matrix(1 0 0 -1 0 -222.95)"><stop offset="0" stop-color="#FFD676"/><stop offset=".246" stop-color="#F2A454"/><stop offset=".379" stop-color="#F05C3C"/><stop offset=".7" stop-color="#C22F86"/><stop offset=".957" stop-color="#6666AD"/><stop offset=".985" stop-color="#5C6CB2"/></linearGradient><path class="st2" d="M30.37,16.25h-8.74c-2.97,0-5.38,2.41-5.38,5.38v8.74c0,2.97,2.41,5.38,5.38,5.38h8.74 c2.97,0,5.38-2.41,5.38-5.38v-8.74C35.75,18.66,33.34,16.25,30.37,16.25z"/><linearGradient id="SVGID_3_" gradientUnits="userSpaceOnUse" x1="30.578" y1="-269.275" x2="27.188" y2="-245.469" gradientTransform="matrix(1 0 0 -1 0 -222.95)"><stop offset="0" stop-color="#FFD676"/><stop offset=".246" stop-color="#F2A454"/><stop offset=".379" stop-color="#F05C3C"/><stop offset=".7" stop-color="#C22F86"/><stop offset=".957" stop-color="#6666AD"/><stop offset=".985" stop-color="#5C6CB2"/></linearGradient><path class="st3" d="M30.37,16.25h-8.74c-1.51,0-2.87,0.62-3.84,1.62L33.92,34.4c1.12-0.99,1.83-2.43,1.83-4.04v-8.74 C35.75,18.66,33.34,16.25,30.37,16.25z"/><radialGradient id="SVGID_4_" cx="32.157" cy="-243.744" r="1.053" gradientTransform="matrix(1 0 0 -1 0 -222.95)" gradientUnits="userSpaceOnUse"><stop offset="0" stop-color="#FFD676"/><stop offset=".246" stop-color="#F2A454"/><stop offset=".379" stop-color="#F05C3C"/><stop offset=".7" stop-color="#C22F86"/><stop offset=".957" stop-color="#6666AD"/><stop offset=".985" stop-color="#5C6CB2"/></radialGradient><path class="st4" d="M33.21,20.79c0,0.58-0.47,1.05-1.05,1.05c-0.58,0-1.05-0.47-1.05-1.05c0-0.58,0.47-1.05,1.05-1.05 C32.74,19.74,33.21,20.21,33.21,20.79z"/><radialGradient id="SVGID_5_" cx="27.565" cy="-262.408" r="17" gradientTransform="matrix(1 0 0 -1 0 -222.95)" gradientUnits="userSpaceOnUse"><stop offset="0" stop-color="#FFD676"/><stop offset=".246" stop-color="#F2A454"/><stop offset=".379" stop-color="#F05C3C"/><stop offset=".7" stop-color="#C22F86"/><stop offset=".957" stop-color="#6666AD"/><stop offset=".985" stop-color="#5C6CB2"/></radialGradient><path class="st5" d="M39.53,33.59v-1.05L29.7,22.7l-7.03,6.96l9.84,9.84h1.14C36.89,39.5,39.53,36.85,39.53,33.59z"/><g class="st6"><radialGradient id="SVGID_6_" cx="26.807" cy="-249.757" r="10.382" gradientTransform="matrix(1 0 0 -1 0 -222.95)" gradientUnits="userSpaceOnUse"><stop offset="0" stop-color="#FFD676"/><stop offset=".246" stop-color="#F2A454"/><stop offset=".379" stop-color="#F05C3C"/><stop offset=".7" stop-color="#C22F86"/><stop offset=".957" stop-color="#6666AD"/><stop offset=".985" stop-color="#5C6CB2"/></radialGradient><path class="st7" d="M31.18,37.19h-8.74c-3.32,0-6.01-2.7-6.01-6.01v-8.74c0-3.32,2.7-6.01,6.01-6.01h8.74 c3.32,0,6.01,2.7,6.01,6.01v8.74C37.19,34.49,34.49,37.19,31.18,37.19z M22.44,17.7c-2.61,0-4.74,2.13-4.74,4.74v8.74 c0,2.61,2.13,4.74,4.74,4.74h8.74c2.61,0,4.74-2.13,4.74-4.74v-8.74c0-2.61-2.13-4.74-4.74-4.74C31.18,17.7,22.44,17.7,22.44,17.7 z"/></g><g class="st6"><radialGradient id="SVGID_7_" cx="26.807" cy="-249.757" r="4.953" gradientTransform="matrix(1 0 0 -1 0 -222.95)" gradientUnits="userSpaceOnUse"><stop offset="0" stop-color="#FFD676"/><stop offset=".246" stop-color="#F2A454"/><stop offset=".379" stop-color="#F05C3C"/><stop offset=".7" stop-color="#C22F86"/><stop offset=".957" stop-color="#6666AD"/><stop offset=".985" stop-color="#5C6CB2"/></radialGradient><path class="st8" d="M26.81,31.76c-2.73,0-4.95-2.22-4.95-4.95s2.22-4.95,4.95-4.95s4.95,2.22,4.95,4.95S29.54,31.76,26.81,31.76z M26.81,23.13c-2.03,0-3.68,1.65-3.68,3.68s1.65,3.68,3.68,3.68s3.68-1.65,3.68-3.68S28.84,23.13,26.81,23.13z"/></g><path class="st0" d="M30.37,36.38h-8.74c-3.32,0-6.01-2.7-6.01-6.01v-8.74c0-3.32,2.7-6.01,6.01-6.01h8.74 c3.32,0,6.01,2.7,6.01,6.01v8.74C36.38,33.68,33.68,36.38,30.37,36.38z M21.63,16.89c-2.61,0-4.74,2.13-4.74,4.74v8.74 c0,2.61,2.13,4.74,4.74,4.74h8.74c2.61,0,4.74-2.13,4.74-4.74v-8.74c0-2.61-2.13-4.74-4.74-4.74L21.63,16.89L21.63,16.89z"/><linearGradient id="SVGID_8_" gradientUnits="userSpaceOnUse" x1="34.605" y1="-241.726" x2="24.081" y2="-250.561" gradientTransform="matrix(1 0 0 -1 0 -222.95)"><stop offset="0" stop-color="#FFD676"/><stop offset=".246" stop-color="#F2A454"/><stop offset=".379" stop-color="#F05C3C"/><stop offset=".7" stop-color="#C22F86"/><stop offset=".957" stop-color="#6666AD"/><stop offset=".985" stop-color="#5C6CB2"/></linearGradient><circle class="st9" cx="26" cy="26" r="4.32"/><linearGradient id="SVGID_9_" gradientUnits="userSpaceOnUse" x1="27.944" y1="-257.157" x2="24.198" y2="-241.847" gradientTransform="matrix(1 0 0 -1 0 -222.95)"><stop offset="0" stop-color="#FFD676"/><stop offset=".246" stop-color="#F2A454"/><stop offset=".379" stop-color="#F05C3C"/><stop offset=".7" stop-color="#C22F86"/><stop offset=".957" stop-color="#6666AD"/><stop offset=".985" stop-color="#5C6CB2"/></linearGradient><path class="st10" d="M21.68,26c0,2.38,1.93,4.32,4.32,4.32s4.32-1.93,4.32-4.32L21.68,26z"/><path class="st0" d="M26,30.95c-2.73,0-4.95-2.22-4.95-4.95s2.22-4.95,4.95-4.95s4.95,2.22,4.95,4.95S28.73,30.95,26,30.95z M26,22.32c-2.03,0-3.68,1.65-3.68,3.68s1.65,3.68,3.68,3.68s3.68-1.65,3.68-3.68S28.03,22.32,26,22.32z"/><path class="st0" d="M32.74,20.32c0,0.58-0.47,1.05-1.05,1.05c-0.58,0-1.05-0.47-1.05-1.05c0-0.58,0.47-1.05,1.05-1.05 C32.26,19.27,32.74,19.74,32.74,20.32z"/></svg>