<svg version="1.1" id="Layer_1" xmlns="http://www.w3.org/2000/svg" xmlns:xlink="http://www.w3.org/1999/xlink" x="0" y="0" viewBox="0 0 52 52" xml:space="preserve" enable-background="new 0 0 52 52"><style type="text/css">.st0{fill:#fff}.st1{fill:#187fb8}.st2{fill:#1267a0}.st3{fill:#2499ce}</style><circle class="st0" cx="26" cy="26" r="25"/><rect id="SVGCleanerId_0" x="13.61" y="21.77" class="st1" width="5.13" height="16.23"/><rect id="SVGCleanerId_0_1_" x="13.61" y="21.77" class="st1" width="5.13" height="16.23"/><rect id="SVGCleanerId_0_2_" x="13.61" y="21.77" class="st2" width="5.13" height="16.23"/><path class="st1" d="M13.61,30.95c1.28,0.51,2.99,0.94,5.13,1.28V21.77h-5.13V30.95z"/><path class="st3" d="M13.61,23.86c1.28,0.51,2.99,0.94,5.13,1.28v-3.37h-5.13V23.86z"/><path class="st1" d="M32.78,21.56c-2.96,0-5.07,1.6-5.07,2.72v-2.52h-5.97c0.08,1.28,0,16.23,0,16.23h5.97v-8.77 c0-0.49-0.11-0.98,0.04-1.34c0.4-0.98,1.15-2,2.69-2c2.01,0,2.82,1.51,2.82,3.73V38h5.98v-9.02 C39.24,23.92,36.45,21.56,32.78,21.56z"/><path class="st2" d="M32.78,21.56c-2.96,0-5.07,1.6-5.07,2.72v-2.52h-5.97c0.08,1.28,0,16.23,0,16.23h5.97v-8.77 c0-0.49-0.11-0.98,0.04-1.34c0.4-0.98,1.15-2,2.69-2c2.01,0,2.82,1.51,2.82,3.73V38h5.98v-9.02 C39.24,23.92,36.45,21.56,32.78,21.56z"/><path class="st1" d="M32.78,21.56c-2.96,0-5.07,1.6-5.07,2.72v-2.52h-5.97c0.04,0.85,0.04,6.48,0.02,10.92 c1.85,0.2,3.81,0.31,5.95,0.31v-3.78c0-0.49,0.01-0.59,0.01-0.59c0-1.54,1.18-2.75,2.72-2.75c2.01,0,2.82,1.51,2.82,3.73v3.09 c2.14-0.22,4.16-0.56,5.98-1.01v-2.71C39.24,23.92,36.45,21.56,32.78,21.56z"/><path class="st3" d="M32.78,21.56c-2.96,0-5.07,1.6-5.07,2.72v-2.52h-5.97c0.02,0.43,0.03,1.89,0.03,3.85 c1.88,0.21,3.85,0.31,5.88,0.31c3.85,0,7.52-0.4,10.74-1.11C37.27,22.62,35.22,21.56,32.78,21.56z"/><path class="st3" d="M15.91,14c-1.91,0-3.15,1.2-3.15,2.82c0,1.59,1.21,2.81,3.08,2.81h0.04c1.94,0,3.15-1.23,3.15-2.82 C18.99,15.2,17.82,14,15.91,14z"/><path class="st1" d="M15.91,15.54c-1.91,0-3.15-0.34-3.15,1.28c0,1.59,1.21,2.81,3.08,2.81h0.04c1.94,0,3.15-1.23,3.15-2.82 C18.99,15.2,17.82,15.54,15.91,15.54z"/><path class="st2" d="M15.91,17.88c-1.91,0-3.15-1.57-3.15-1.07c0,1.59,1.21,2.81,3.08,2.81h0.04c1.94,0,3.15-1.23,3.15-2.82 C19.01,16.31,17.79,17.88,15.91,17.88z"/></svg>