<svg version="1.1" id="Layer_1" xmlns="http://www.w3.org/2000/svg" xmlns:xlink="http://www.w3.org/1999/xlink" x="0" y="0" viewBox="0 0 52 52" xml:space="preserve" enable-background="new 0 0 52 52"><style type="text/css">.st0{fill:#fff}.st1{fill:#c6232c}.st2{fill:#890a1c}.st3{fill:#700318}.st4{fill:#680719}.st5{fill:#e2102e}</style><circle class="st0" cx="26" cy="26" r="25"/><path class="st1" d="M26,11c-8.28,0-15,6.71-15,15c0,6.14,3.69,11.42,8.98,13.74c-0.04-1.05-0.01-2.31,0.26-3.45 c0.29-1.22,1.93-8.17,1.93-8.17s-0.48-0.96-0.48-2.37c0-2.22,1.29-3.88,2.89-3.88c1.36,0,2.02,1.02,2.02,2.25 c0,1.37-0.88,3.42-1.32,5.32c-0.38,1.59,0.8,2.89,2.37,2.89c2.84,0,4.76-3.65,4.76-7.97c0-3.29-2.21-5.75-6.24-5.75 c-4.55,0-7.38,3.39-7.38,7.18c0,1.31,0.38,2.23,0.99,2.94c0.28,0.33,0.32,0.46,0.21,0.84c-0.07,0.27-0.24,0.94-0.31,1.2 c-0.1,0.38-0.41,0.52-0.75,0.38c-2.1-0.86-3.07-3.15-3.07-5.73c0-4.26,3.59-9.37,10.72-9.37c5.73,0,9.5,4.15,9.5,8.59 c0,5.88-3.27,10.28-8.1,10.28c-1.62,0-3.14-0.88-3.66-1.87c0,0-0.87,3.45-1.05,4.12c-0.32,1.16-0.94,2.31-1.51,3.21 C23.1,40.78,24.53,41,26,41c8.28,0,15-6.72,15-15C41,17.72,34.28,11,26,11z"/><path class="st2" d="M22.17,28.12c0,0-0.48-0.96-0.48-2.37c0-2.22,1.29-3.88,2.89-3.88c1.36,0,2.02,1.02,2.02,2.25 c0,1.37-0.88,3.42-1.32,5.32c-0.38,1.59,0.8,2.89,2.37,2.89c2.84,0,4.76-3.65,4.76-7.97c0-3.29-2.21-5.75-6.24-5.75 c-4.55,0-7.38,3.39-7.38,7.18c0,1.31,0.38,2.23,0.99,2.94c0.28,0.33,0.32,0.46,0.21,0.84c-0.07,0.27-0.24,0.94-0.31,1.2 c-0.1,0.38-0.41,0.52-0.75,0.38c-0.34-0.14-0.64-0.31-0.92-0.52l2.89,2.89C21.46,31.11,22.17,28.12,22.17,28.12z"/><path class="st3" d="M33.89,19.02c-0.12-0.02-0.52-0.52-0.64-0.54c1.8,1.61,2.83,3.84,2.83,6.16c0,5.88-3.27,10.28-8.1,10.28 c-1.62,0-3.14-0.88-3.66-1.87c0,0-0.46,1.84-0.79,3.09l4.69,4.69C35.45,39.76,41,33.53,41,26c0-0.02,0-0.04,0-0.06L33.89,19.02z"/><path class="st4" d="M25.77,22.22l-0.05-0.05l-0.01,0.01C25.73,22.2,25.75,22.21,25.77,22.22z"/><path class="st3" d="M31.82,28.27l-5.66-5.66c0.3,0.4,0.45,0.93,0.45,1.51c0,1.37-0.88,3.42-1.32,5.32 c-0.38,1.59,0.8,2.89,2.37,2.89C29.56,32.33,31.05,30.67,31.82,28.27z"/><path class="st2" d="M31.27,40.04l-5.93-5.93c-0.41-0.28-0.74-0.61-0.96-0.96l-0.08-0.08c-0.08,0.31-0.87,3.46-1.05,4.09 c-0.32,1.16-0.94,2.31-1.51,3.21C23.1,40.78,24.52,41,26,41C27.86,41,29.63,40.66,31.27,40.04z"/><path class="st5" d="M12.03,27.03c0-8.29,6.72-15,15-15c3.88,0,7.41,1.47,10.08,3.89C34.36,12.9,30.4,11,26,11 c-8.28,0-15,6.71-15,15c0,4.37,1.88,8.3,4.86,11.04C13.48,34.39,12.03,30.88,12.03,27.03z"/></svg>