<svg version="1.1" id="Layer_1" xmlns="http://www.w3.org/2000/svg" xmlns:xlink="http://www.w3.org/1999/xlink" x="0" y="0" viewBox="0 0 52 52" xml:space="preserve" enable-background="new 0 0 52 52"><style type="text/css">.st0{fill:#fff}.st1{fill:#f8571d}.st2{fill:#e23c0a}.st3{fill:#ff7f00}</style><circle class="st0" cx="26" cy="26" r="25"/><path class="st1" d="M37.39,22.16c-0.86,0-1.65,0.3-2.27,0.8c-2.2-1.37-4.99-2.19-7.98-2.37l1.56-4.89l4.29,1 c0.11,1.55,1.42,2.77,3.01,2.77c1.66,0,3.02-1.34,3.02-2.99c0-1.65-1.35-2.99-3.02-2.99c-1.16,0-2.17,0.66-2.68,1.61l-4.98-1.16 c-0.42-0.1-0.84,0.14-0.97,0.55l-1.94,6.07c-3.22,0.08-6.25,0.91-8.61,2.35c-0.61-0.47-1.38-0.76-2.22-0.76 c-1.99,0-3.61,1.6-3.61,3.57c0,1.22,0.62,2.29,1.56,2.94c-0.04,0.28-0.06,0.57-0.06,0.86c0,2.46,1.44,4.75,4.07,6.45 c2.51,1.63,5.84,2.52,9.37,2.52c3.53,0,6.86-0.9,9.37-2.52c2.62-1.7,4.07-3.99,4.07-6.45c0-0.26-0.02-0.52-0.05-0.78 c1-0.63,1.67-1.75,1.67-3.01C41,23.76,39.38,22.16,37.39,22.16z M36,15.12c0.76,0,1.38,0.61,1.38,1.36c0,0.75-0.62,1.36-1.38,1.36 c-0.76,0-1.38-0.61-1.38-1.36C34.62,15.74,35.24,15.12,36,15.12z M19.51,27.94c0-1.11,0.94-2.04,2.06-2.04s2.03,0.93,2.03,2.04 s-0.91,2.01-2.03,2.01S19.51,29.05,19.51,27.94z M30.94,33.86c-1.04,1.03-2.66,1.54-4.92,1.54c-0.01,0-0.01,0-0.02,0 c-0.01,0-0.01,0-0.02,0c-2.27,0-3.88-0.5-4.92-1.54c-0.32-0.32-0.32-0.83,0-1.15c0.32-0.32,0.84-0.32,1.16,0 c0.72,0.71,1.95,1.06,3.76,1.06c0.01,0,0.01,0,0.02,0c0.01,0,0.01,0,0.02,0c1.81,0,3.04-0.35,3.77-1.06c0.32-0.32,0.84-0.32,1.16,0 C31.26,33.03,31.26,33.54,30.94,33.86z M30.46,29.95c-1.12,0-2.06-0.9-2.06-2.01c0-1.11,0.94-2.04,2.06-2.04 c1.12,0,2.03,0.93,2.03,2.04C32.49,29.05,31.58,29.95,30.46,29.95z"/><path class="st2" d="M36.56,15.24c0.48,0.21,0.82,0.69,0.82,1.24c0,0.59-0.38,1.09-0.92,1.28c-0.07,0.57-0.16,1.14-0.29,1.7 c1.58-0.09,2.84-1.39,2.84-2.98c0-1.51-1.14-2.76-2.61-2.96C36.48,14.09,36.53,14.66,36.56,15.24z"/><path class="st2" d="M41,25.73c0-1.97-1.62-3.57-3.61-3.57c-0.86,0-1.65,0.3-2.27,0.8c-0.04-0.03-0.09-0.05-0.14-0.08 c-0.71,1.49-1.63,2.88-2.73,4.12c0.15,0.28,0.24,0.6,0.24,0.94c0,1.11-0.91,2.01-2.03,2.01c-0.41,0-0.79-0.12-1.11-0.33 c-2.03,1.48-4.39,2.6-6.96,3.23c0.74,0.61,1.91,0.92,3.59,0.92c0.01,0,0.01,0,0.02,0s0.01,0,0.02,0c1.81,0,3.04-0.35,3.77-1.06 c0.32-0.32,0.84-0.32,1.16,0c0.32,0.32,0.32,0.83,0,1.15c-1.04,1.03-2.66,1.54-4.92,1.54c-0.01,0-0.01,0-0.02,0s-0.01,0-0.02,0 c-2.27,0-3.88-0.5-4.92-1.54c-0.19-0.19-0.27-0.45-0.23-0.69c-1.08,0.17-2.19,0.27-3.32,0.27c-1.35,0-2.67-0.13-3.95-0.38 c0.69,1.09,1.7,2.08,3.01,2.92c2.51,1.63,5.84,2.52,9.37,2.52c3.53,0,6.86-0.9,9.37-2.52c2.62-1.7,4.07-3.99,4.07-6.45 c0-0.26-0.02-0.52-0.05-0.78C40.33,28.11,41,27,41,25.73z"/><path class="st3" d="M14.38,28.83c1.85,0,3.6-0.43,5.15-1.19c0.15-0.97,1.01-1.74,2.03-1.74c0.17,0,0.33,0.03,0.48,0.07 c1.87-1.63,3.2-3.85,3.69-6.36l-0.3,0.95c-3.22,0.08-6.25,0.91-8.61,2.35c-0.61-0.47-1.38-0.76-2.22-0.76 c-1.99,0-3.61,1.6-3.61,3.57c0,1.22,0.62,2.29,1.56,2.94c0,0.01,0,0.01,0,0.01C13.15,28.78,13.76,28.83,14.38,28.83z"/></svg>