<svg version="1.1" id="Layer_1" xmlns="http://www.w3.org/2000/svg" xmlns:xlink="http://www.w3.org/1999/xlink" x="0" y="0" viewBox="0 0 52 52" xml:space="preserve" enable-background="new 0 0 52 52"><style type="text/css">.st0{fill:#fff}.st1{fill:#ffeb5a}.st2{fill:#fcdf31}.st3{fill:#f4c811}.st4{fill:#efab00}</style><circle class="st0" cx="26" cy="26" r="25"/><path class="st1" d="M39.18,32.17c-3.67-0.6-5.32-4.36-5.39-4.52c-0.01-0.01-0.01-0.02-0.02-0.03c-0.19-0.38-0.23-0.69-0.13-0.93 c0.2-0.47,0.97-0.71,1.48-0.87c0.15-0.05,0.29-0.09,0.4-0.14c0.5-0.2,0.86-0.41,1.09-0.65c0.28-0.29,0.34-0.57,0.33-0.75 c-0.01-0.44-0.34-0.83-0.88-1.02c-0.18-0.07-0.39-0.11-0.6-0.11c-0.14,0-0.35,0.02-0.55,0.11c-0.43,0.2-0.81,0.31-1.14,0.33 c-0.17-0.01-0.3-0.05-0.38-0.08c0.01-0.17,0.02-0.35,0.03-0.53l0-0.08c0.12-1.86,0.26-4.17-0.35-5.54 c-0.42-0.94-0.98-1.75-1.68-2.4c-0.58-0.55-1.26-0.95-2.01-1.28c-1.31-0.57-2.53-0.62-3.14-0.62h0c-0.02,0-0.05,0-0.07,0 c-0.17,0-0.52-0.05-0.55-0.05c-0.61,0-1.75,0.08-3.06,0.66c-0.75,0.33-1.42,0.76-2,1.31c-0.69,0.65-1.33,1.45-1.74,2.39 c-0.61,1.37-0.43,3.67-0.43,5.53v0c0,0.2,0.1,0.41,0.11,0.61c-0.09,0.04-0.2,0.08-0.41,0.08c-0.35,0-0.74-0.11-1.2-0.33 c-0.14-0.06-0.28-0.1-0.46-0.1c-0.28,0-0.56,0.08-0.82,0.23c-0.32,0.19-0.52,0.45-0.58,0.74c-0.04,0.19-0.03,0.58,0.39,0.96 c0.23,0.21,0.58,0.41,1.02,0.58c0.12,0.05,0.25,0.09,0.4,0.14c0.51,0.16,1.28,0.4,1.48,0.88c0.1,0.24,0.06,0.55-0.13,0.93 c-0.01,0.01-0.01,0.02-0.01,0.03c-0.05,0.11-0.48,1.1-1.38,2.14c-0.51,0.59-1.07,1.09-1.67,1.47c-0.73,0.47-1.51,0.78-2.34,0.91 c-0.32,0.05-0.55,0.34-0.54,0.67c0,0.09,0.03,0.19,0.07,0.28l0,0c0.13,0.31,0.44,0.56,0.93,0.79c0.6,0.28,1.51,0.51,2.68,0.7 c0.06,0.11,0.12,0.4,0.16,0.59c0.04,0.21,0.09,0.42,0.16,0.64c0.07,0.24,0.26,0.54,0.74,0.54c0.18,0,0.39-0.04,0.63-0.09 c0.35-0.07,0.84-0.16,1.44-0.16c0.33,0,0.68,0.03,1.03,0.09c0.67,0.11,1.25,0.52,1.92,0.99c0.98,0.69,2.09,1.47,3.79,1.47 c0.05,0,0.09,0,0.14,0c0.06,0,0.13,0,0.2,0c1.7,0,2.81-0.78,3.79-1.47l0,0c0.67-0.47,1.25-0.88,1.92-0.99 c0.35-0.06,0.7-0.09,1.03-0.09c0.58,0,1.03,0.01,1.44,0.09c0.26,0.05,0.47,0.02,0.63,0.02H35h0.02c0.35,0,0.61-0.13,0.7-0.47 c0.06-0.22,0.11-0.4,0.16-0.61c0.04-0.18,0.1-0.46,0.16-0.57c1.18-0.18,2.08-0.41,2.68-0.69c0.49-0.23,0.8-0.48,0.93-0.79 c0.04-0.09,0.06-0.18,0.07-0.28C39.73,32.51,39.5,32.22,39.18,32.17z"/><path class="st2" d="M18.42,22.86v0.03c0,0.2,0.1,0.41,0.11,0.61c-0.09,0.04-0.2,0.08-0.41,0.08c-0.35,0-0.74-0.11-1.2-0.33 c-0.14-0.06-0.28-0.1-0.46-0.1c-0.28,0-0.56,0.08-0.82,0.23c-0.32,0.19-0.52,0.45-0.58,0.74c-0.04,0.19-0.03,0.58,0.39,0.96 c0.23,0.21,0.58,0.41,1.02,0.58c0.12,0.05,0.25,0.09,0.4,0.14c0.51,0.16,1.28,0.4,1.48,0.88c0.1,0.24,0.06,0.55-0.13,0.93 c-0.01,0.01-0.01,0.02-0.01,0.03c-0.05,0.11-0.48,1.1-1.38,2.14c-0.51,0.59-1.07,1.09-1.67,1.47c-0.73,0.47-1.51,0.78-2.34,0.91 c-0.32,0.05-0.55,0.34-0.54,0.67c0,0.09,0.03,0.19,0.07,0.28l0,0c0.13,0.31,0.44,0.56,0.93,0.79c0.6,0.28,1.51,0.51,2.68,0.7 c0.06,0.11,0.12,0.4,0.16,0.59c0.04,0.21,0.09,0.42,0.16,0.64c0.07,0.24,0.26,0.54,0.74,0.54c0.18,0,0.39-0.04,0.63-0.09 c0.35-0.07,0.84-0.16,1.44-0.16c0.33,0,0.68,0.03,1.03,0.09c0.67,0.11,1.25,0.52,1.92,0.99c0.98,0.69,2.09,1.47,3.79,1.47 c0.05,0,0.09,0,0.14,0c0.06,0,0.13,0,0.2,0c1.7,0,2.81-0.78,3.79-1.47l0,0c0.67-0.47,1.25-0.88,1.92-0.99 c0.35-0.06,0.7-0.09,1.03-0.09c0.58,0,1.03,0.01,1.44,0.09c0.26,0.05,0.47,0.02,0.63,0.02H35h0.02c0.35,0,0.61-0.13,0.7-0.47 c0.06-0.22,0.11-0.4,0.16-0.61c0.04-0.18,0.1-0.46,0.16-0.57c1.18-0.18,2.08-0.41,2.68-0.69c0.49-0.23,0.8-0.48,0.93-0.79 c0.04-0.09,0.06-0.18,0.07-0.28c0.02-0.33-0.21-0.61-0.54-0.67c-3.67-0.6-5.32-4.36-5.39-4.52c-0.01-0.01-0.01-0.02-0.02-0.03 c-0.19-0.38-0.23-0.69-0.13-0.93c0.2-0.47,0.97-0.71,1.48-0.87c0.15-0.05,0.29-0.09,0.4-0.14c0.5-0.2,0.86-0.41,1.09-0.65 c0.28-0.29,0.34-0.57,0.33-0.75c-0.01-0.44-0.34-0.83-0.88-1.02c-0.18-0.07-0.39-0.11-0.6-0.11c-0.14,0-0.35,0.02-0.55,0.11 c-0.43,0.2-0.81,0.31-1.14,0.33c-0.17-0.01-0.3-0.05-0.38-0.08c0.01-0.17,0.02-0.35,0.03-0.53l0-0.08 c0.12-1.86,0.26-4.17-0.35-5.54c-0.42-0.94-0.98-1.75-1.68-2.4c-0.58-0.55-1.26-0.95-2.01-1.28c-1.31-0.57-2.53-0.62-3.14-0.62h0 c-0.02,0-0.05,0-0.07,0c-0.17,0-0.52-0.05-0.55-0.05"/><path class="st3" d="M39.18,32.17c-3.67-0.6-5.32-4.36-5.39-4.52c-0.01-0.01-0.01-0.02-0.02-0.03c-0.19-0.38-0.23-0.69-0.13-0.93 c0.2-0.47,0.97-0.71,1.48-0.87c0.15-0.05,0.29-0.09,0.4-0.14c0.5-0.2,0.86-0.41,1.09-0.65c0.28-0.29,0.34-0.57,0.33-0.75 c-0.01-0.44-0.34-0.83-0.88-1.02c-0.18-0.07-0.39-0.11-0.6-0.11c-0.14,0-0.35,0.02-0.55,0.11c-0.43,0.2-0.81,0.31-1.14,0.33 c-0.17-0.01-0.3-0.05-0.38-0.08c0.01-0.17,0.02-0.35,0.03-0.53l0-0.08c0.12-1.86,0.26-4.17-0.35-5.54 c-0.42-0.94-0.98-1.75-1.68-2.4c-0.58-0.55-1.26-0.95-2.01-1.28c-1.31-0.57-2.53-0.62-3.14-0.62h0c-0.02,0-0.05,0-0.07,0 c-0.17,0-0.53-0.04-0.56-0.04l-0.09,0.12v25.55c0,0,0.16,0.01,0.19,0.01c0.05,0,0.13,0,0.18,0c0.06,0,0.15,0,0.22,0 c1.7,0,2.82-0.78,3.8-1.47l0.01,0c0.67-0.47,1.25-0.88,1.92-0.99c0.35-0.06,0.7-0.09,1.03-0.09c0.58,0,1.03,0.01,1.44,0.09 c0.27,0.05,0.47,0.02,0.63,0.02H35h0.02c0.35,0,0.61-0.13,0.7-0.47c0.06-0.22,0.11-0.4,0.16-0.61c0.04-0.18,0.1-0.46,0.16-0.57 c1.18-0.18,2.08-0.41,2.68-0.69c0.49-0.23,0.8-0.48,0.93-0.79c0.04-0.09,0.06-0.18,0.07-0.28C39.73,32.51,39.5,32.22,39.18,32.17z"/><path class="st3" d="M39.18,32.17c-3.67-0.6-5.32-4.36-5.39-4.52c-0.01-0.01-0.01-0.02-0.02-0.03c-0.19-0.38-0.23-0.69-0.13-0.93 c0.2-0.47,0.97-0.71,1.48-0.87c0.15-0.05,0.29-0.09,0.4-0.14c0.5-0.2,0.86-0.41,1.09-0.65c0.28-0.29,0.34-0.57,0.33-0.75 c-0.01-0.44-0.34-0.83-0.88-1.02c-0.18-0.07-0.39-0.11-0.6-0.11c-0.14,0-0.35,0.02-0.55,0.11c-0.43,0.2-0.81,0.31-1.14,0.33 c-0.17-0.01-0.3-0.05-0.38-0.08c0.01-0.17,0.02-0.35,0.03-0.53l0-0.08c0.12-1.86,0.26-4.17-0.35-5.54 c-0.42-0.94-0.98-1.75-1.68-2.4c-0.58-0.55-1.26-0.95-2.01-1.28c-1.31-0.57-2.58-0.65-3.19-0.65l-0.05,0.04 c-0.02,0,0.29-0.04-0.16-0.04c0,0,0.45,0,0,0L25.55,13v25.68c0,0,0.16,0.01,0.19,0.01c0.05,0,0.13,0,0.18,0c0.06,0,0.15,0,0.22,0 c1.7,0,2.82-0.78,3.8-1.47l0.01,0c0.67-0.47,1.25-0.88,1.92-0.99c0.35-0.06,0.7-0.09,1.03-0.09c0.58,0,1.03,0.01,1.44,0.09 c0.27,0.05,0.47,0.02,0.63,0.02H35h0.02c0.35,0,0.61-0.13,0.7-0.47c0.06-0.22,0.11-0.4,0.16-0.61c0.04-0.18,0.1-0.46,0.16-0.57 c1.18-0.18,2.08-0.41,2.68-0.69c0.49-0.23,0.8-0.48,0.93-0.79c0.04-0.09,0.06-0.18,0.07-0.28C39.73,32.51,39.5,32.22,39.18,32.17z"/><circle class="st2" cx="19.07" cy="38.29" r=".71"/><circle class="st4" cx="16.58" cy="37.88" r=".37"/><circle class="st2" cx="15.06" cy="35.25" r=".33"/><circle class="st2" cx="14.69" cy="37.48" r=".33"/><circle class="st3" cx="31.94" cy="38.22" r=".56"/><circle class="st3" cx="33.01" cy="36.99" r=".15"/><circle class="st3" cx="34.43" cy="37.88" r=".22"/><circle class="st4" cx="36.32" cy="37.55" r=".41"/><g><circle class="st3" cx="37.03" cy="35.43" r=".22"/><circle class="st3" cx="39.07" cy="36.06" r=".26"/><circle class="st3" cx="20.52" cy="37.07" r=".22"/><circle class="st3" cx="22.08" cy="38.48" r=".37"/></g><g><path class="st4" d="M36.25,30.83c-1.64-1.31-2.41-3.07-2.46-3.18c-0.01-0.01-0.01-0.02-0.02-0.03c-0.19-0.38-0.23-0.69-0.13-0.93 c0.14-0.32,0.54-0.54,0.94-0.69c-3.15,1.15-1.07,3.5,1.17,4.6C35.93,30.68,36.09,30.76,36.25,30.83z"/><path class="st4" d="M32.98,18.95c-0.26,3.19-0.7,4.28,0.47,4.57c-0.02-0.01-0.05-0.01-0.06-0.02c0.01-0.17,0.02-0.35,0.03-0.53 l0-0.08c0.12-1.86,0.26-4.17-0.35-5.54c-0.2-0.45-0.44-0.87-0.71-1.26C32.42,16.8,33.15,16.88,32.98,18.95z"/><path class="st4" d="M32.51,35.34c-1.06-0.41-1.29,0.73-2.73,1.99c0.06-0.04,0.12-0.08,0.17-0.12l0,0 c0.67-0.47,1.25-0.88,1.92-0.99c0.35-0.06,0.7-0.09,1.03-0.09c0.58,0,1.03,0.01,1.44,0.09c0.26,0.05,0.47,0.02,0.63,0.02H35h0.02 c0.03,0,0.06,0.05,0.1,0.05C34.49,35.92,33.58,35.75,32.51,35.34z"/><path class="st4" d="M36.04,34.61c1.18-0.18,2.08-0.42,2.68-0.7c0.49-0.23,0.8-0.49,0.93-0.79c0.04-0.09,0.06-0.19,0.07-0.28 c0-0.04-0.01-0.07-0.01-0.11c-0.02,0.01-0.03,0.02-0.05,0.04c-0.81,0.78-1.65-0.03-2.62-0.03c-0.96,0-1.03,1.04-1.03,1.97 C36.01,34.67,36.02,34.64,36.04,34.61z"/></g><path class="st1" d="M15.76,30.83c1.64-1.31,2.41-3.07,2.46-3.18c0.01-0.01,0.01-0.02,0.02-0.03c0.19-0.38,0.23-0.69,0.13-0.93 c-0.14-0.32-0.54-0.54-0.94-0.69c3.15,1.15,1.07,3.5-1.17,4.6C16.08,30.68,15.92,30.76,15.76,30.83z"/><g><path class="st3" d="M19.5,35.34c1.06-0.41,1.29,0.73,2.73,1.99c-0.06-0.04-0.12-0.08-0.17-0.12l0,0 c-0.67-0.47-1.25-0.88-1.92-0.99c-0.35-0.06-0.7-0.09-1.03-0.09c-0.58,0-1.03,0.01-1.44,0.09c-0.26,0.05-0.47,0.02-0.63,0.02 h-0.02H17c-0.03,0-0.06,0.05-0.1,0.05C17.52,35.92,18.43,35.75,19.5,35.34z"/><path class="st3" d="M15.98,34.61c-1.18-0.18-2.08-0.42-2.68-0.7c-0.49-0.23-0.8-0.49-0.93-0.79c-0.04-0.09-0.06-0.19-0.07-0.28 c0-0.04,0.01-0.07,0.01-0.11c0.02,0.01,0.03,0.02,0.05,0.04c0.81,0.78,1.65-0.03,2.62-0.03c0.96,0,1.03,1.04,1.03,1.97 C16,34.67,15.99,34.64,15.98,34.61z"/></g></svg>