<svg version="1.1" id="Layer_1" xmlns="http://www.w3.org/2000/svg" xmlns:xlink="http://www.w3.org/1999/xlink" x="0" y="0" viewBox="0 0 52 52" xml:space="preserve" enable-background="new 0 0 52 52"><style type="text/css">.st0{fill:#fff}.st1{fill:#9165b7}.st2{fill:#7b509c}.st3{fill:#5f3882}</style><circle class="st0" cx="26" cy="26" r="25"/><path class="st1" d="M39.02,35.57c-0.32,0.83-1.58,2.39-2.46,3.06c-0.79,0.6-1.36,0.83-2.1,0.87c-0.61,0.03-0.86-0.02-1.65-0.34 c-6.13-2.52-11.02-6.29-14.9-11.46c-2.03-2.7-3.57-5.5-4.63-8.41c-0.62-1.7-0.65-2.43-0.14-3.3c0.22-0.37,1.15-1.27,1.82-1.78 c1.13-0.84,1.65-1.15,2.06-1.23c0.28-0.06,0.78-0.01,1.09,0.1c0.15,0.05,0.39,0.17,0.52,0.26c0.83,0.55,3.14,3.5,3.89,4.97 c0.43,0.84,0.58,1.46,0.44,1.93c-0.14,0.5-0.37,0.76-1.4,1.59c-0.41,0.34-0.8,0.68-0.86,0.77c-0.16,0.23-0.28,0.67-0.28,0.98 c0.01,0.73,0.48,2.05,1.1,3.06c0.48,0.79,1.34,1.8,2.19,2.58c1,0.91,1.88,1.54,2.88,2.03c1.28,0.64,2.06,0.8,2.63,0.53 c0.14-0.06,0.3-0.15,0.35-0.19c0.04-0.04,0.38-0.45,0.75-0.9c0.71-0.89,0.87-1.03,1.35-1.2c0.62-0.21,1.24-0.15,1.88,0.17 c0.48,0.25,1.53,0.9,2.2,1.37c0.89,0.62,2.79,2.17,3.05,2.48C39.25,34.06,39.33,34.78,39.02,35.57z"/><path class="st2" d="M38.8,33.5c-0.26-0.31-2.16-1.86-3.05-2.48c-0.68-0.47-1.72-1.12-2.2-1.37c-0.63-0.32-1.26-0.38-1.88-0.17 c-0.48,0.17-0.65,0.31-1.35,1.2c-0.37,0.45-0.7,0.86-0.75,0.9c-0.05,0.04-0.2,0.13-0.35,0.19c-0.57,0.27-1.35,0.1-2.63-0.53 c-0.99-0.49-1.88-1.12-2.88-2.03c-0.85-0.78-1.71-1.79-2.19-2.58c-0.62-1.02-1.09-2.34-1.1-3.06c0-0.31,0.13-0.76,0.28-0.98 c0.02-0.04,0.1-0.12,0.22-0.22c-1.54,0.92-3.39,1.46-5.38,1.46c-0.05,0-0.1,0-0.15,0c0.74,1.31,1.58,2.59,2.52,3.86 c3.88,5.17,8.78,8.94,14.9,11.46c0.78,0.32,1.03,0.37,1.65,0.34c0.74-0.04,1.3-0.27,2.1-0.87c0.88-0.67,2.13-2.23,2.46-3.06 C39.33,34.78,39.25,34.06,38.8,33.5z"/><path class="st1" d="M25.83,12.7c0.21-0.19,0.35-0.21,1.06-0.19c0.37,0.01,0.92,0.06,1.21,0.09c1.5,0.19,2.71,0.55,4.04,1.2 c1.31,0.64,2.15,1.25,3.26,2.35c1.04,1.04,1.61,1.83,2.23,3.05c0.85,1.71,1.34,3.74,1.42,5.97c0.03,0.76,0.01,0.93-0.17,1.15 c-0.33,0.42-1.06,0.35-1.31-0.12c-0.08-0.16-0.1-0.29-0.13-0.9c-0.04-0.94-0.11-1.54-0.24-2.27c-0.51-2.84-1.88-5.1-4.05-6.73 c-1.81-1.36-3.68-2.02-6.14-2.17c-0.83-0.05-0.97-0.08-1.16-0.22C25.51,13.64,25.49,13,25.83,12.7z"/><path class="st2" d="M31.03,18.31c-0.88-0.52-2.17-0.91-3.36-1.01c-0.43-0.03-0.66-0.12-0.82-0.31c-0.25-0.28-0.27-0.67-0.06-0.98 c0.23-0.35,0.57-0.41,1.62-0.25c2.65,0.39,4.7,1.62,6.04,3.61c0.76,1.12,1.23,2.44,1.39,3.86c0.06,0.52,0.06,1.46,0,1.62 c-0.06,0.15-0.24,0.35-0.4,0.43c-0.17,0.09-0.53,0.08-0.73-0.03c-0.34-0.17-0.44-0.44-0.44-1.17c0-1.13-0.29-2.32-0.8-3.24 C32.89,19.79,32.05,18.92,31.03,18.31z"/><path class="st3" d="M32.5,24.12c-0.26,0.24-0.73,0.24-1.02,0.02c-0.21-0.16-0.27-0.32-0.32-0.77c-0.06-0.6-0.16-1.02-0.34-1.4 c-0.38-0.82-1.06-1.25-2.2-1.39c-0.54-0.06-0.7-0.13-0.87-0.33c-0.32-0.38-0.2-0.99,0.24-1.22c0.17-0.08,0.24-0.09,0.6-0.07 c0.23,0.01,0.56,0.05,0.74,0.09c0.86,0.18,1.52,0.51,2.08,1.04c0.72,0.68,1.12,1.51,1.3,2.7C32.83,23.56,32.78,23.87,32.5,24.12z"/><path class="st3" d="M38.8,33.5c-0.26-0.31-2.16-1.86-3.05-2.48c-0.68-0.47-1.72-1.12-2.2-1.37c-0.63-0.32-1.26-0.38-1.88-0.17 c-0.48,0.17-0.65,0.31-1.35,1.2c-0.37,0.45-0.7,0.86-0.75,0.9c-0.05,0.04-0.19,0.12-0.33,0.18c-1.08,1.3-2.36,2.43-3.79,3.33 c2.23,1.6,4.68,2.94,7.37,4.05c0.78,0.32,1.03,0.37,1.65,0.34c0.74-0.04,1.3-0.27,2.1-0.87c0.88-0.67,2.13-2.23,2.46-3.06 C39.33,34.78,39.25,34.06,38.8,33.5z"/></svg>