<svg version="1.1" id="Layer_1" xmlns="http://www.w3.org/2000/svg" xmlns:xlink="http://www.w3.org/1999/xlink" x="0" y="0" viewBox="0 0 52 52" xml:space="preserve" enable-background="new 0 0 52 52"><style type="text/css">.st0{fill:#fff}.st1{fill:#1cb1e6}.st2{fill:#1cddf7}</style><circle class="st0" cx="26" cy="26" r="25"/><path class="st1" d="M36.36,13.51c-4.07-0.13-6.82,2.12-8.27,6.75c0.74-0.31,1.46-0.45,2.16-0.45c1.49,0,2.14,0.82,1.97,2.46 c-0.09,1-0.74,2.45-1.97,4.35c-1.23,1.9-2.14,2.85-2.76,2.85c-0.79,0-1.51-1.47-2.17-4.41c-0.22-0.87-0.61-3.07-1.18-6.62 c-0.53-3.29-1.93-4.83-4.2-4.61c-0.96,0.09-2.41,0.95-4.33,2.6c-1.4,1.25-2.82,2.51-4.27,3.76l1.38,1.76 c1.31-0.91,2.08-1.37,2.3-1.37c1,0,1.94,1.56,2.82,4.68c0.79,2.85,1.57,5.71,2.36,8.57c1.18,3.12,2.62,4.67,4.33,4.67 c2.75,0,6.13-2.55,10.1-7.66c3.84-4.89,5.84-8.74,5.96-11.56C40.8,15.52,39.37,13.59,36.36,13.51z"/><path class="st2" d="M28.28,29.1c-0.58,0.52-0.88,0.39-0.66,0.39c0.61,0,1.62,0,4.08-2.87c1.47-1.72,1.88-3.35,1.97-4.35 c0.18-1.65-0.48-2.46-1.97-2.46c-0.26,0-0.53,0.03-0.81,0.07c1.02,0.22,1.47,1.01,1.32,2.39c-0.09,1-0.74,2.45-1.97,4.35 C29.47,27.84,28.82,28.66,28.28,29.1z"/><path class="st2" d="M36.77,13.53c-0.13-0.01-0.27-0.02-0.41-0.03c-4.07-0.13-6.82,2.12-8.27,6.75c0.54-0.22,1.07-0.36,1.59-0.42 C31.03,15.89,33.39,13.79,36.77,13.53z"/><path class="st2" d="M12.81,20.19c1.44-1.25,2.86-2.51,4.27-3.76c1.73-1.48,3.07-2.32,4.02-2.54c-0.35-0.08-0.73-0.09-1.14-0.06 c-0.96,0.09-2.41,0.95-4.33,2.6c-1.4,1.25-2.82,2.51-4.27,3.76l1.38,1.76"/><path class="st2" d="M21.67,33.83c-0.79-2.86-1.58-5.72-2.36-8.57c-0.88-3.12-3.15-4.7-4.15-4.7c-0.1,0,0.14,0.03,0.65,0.33 c0.72,0.6,1.41,2.05,2.06,4.37c0.79,2.85,1.57,5.71,2.36,8.57c1.18,3.12,2.62,4.67,4.33,4.67c0.26,0,0.53-0.03,0.81-0.08 C23.93,38.08,22.7,36.55,21.67,33.83z"/></svg>