<svg version="1.1" id="Layer_1" xmlns="http://www.w3.org/2000/svg" xmlns:xlink="http://www.w3.org/1999/xlink" x="0" y="0" viewBox="0 0 52 52" xml:space="preserve" enable-background="new 0 0 52 52"><style type="text/css">.st0{fill:#fff}.st1{fill:#c8131a}.st2{fill:#e01726}.st3{fill:#8e0919}</style><circle class="st0" cx="26" cy="26" r="25"/><path class="st1" d="M26,10c-8.84,0-16,7.16-16,16c0,8.84,7.16,16,16,16c8.84,0,16-7.16,16-16C42,17.16,34.84,10,26,10z M22.39,30.93v-9.85l9.41,4.94L22.39,30.93z"/><polygon class="st2" points="31.12,26.37 23.42,30.39 23.59,32.09 32.86,27.27"/><path class="st2" d="M11.17,27.26c0-8.84,7.16-16,16-16c4.32,0,8.23,1.71,11.11,4.49C35.35,12.23,30.93,10,26,10 c-8.84,0-16,7.16-16,16c0,4.52,1.88,8.6,4.89,11.51C12.57,34.73,11.17,31.16,11.17,27.26z"/><path class="st3" d="M31.79,26.03l-0.95,0.5l-8.41,4.4l9.81,9.81c3.19-1.35,5.85-3.71,7.58-6.68L31.79,26.03z"/></svg>