<?xml version="1.0" encoding="utf-8"?>
<!-- Generator: Adobe Illustrator 19.0.0, SVG Export Plug-In . SVG Version: 6.00 Build 0)  -->
<svg version="1.1" id="Layer_1" xmlns="http://www.w3.org/2000/svg" xmlns:xlink="http://www.w3.org/1999/xlink" x="0px" y="0px"
	 width="24px" height="24px" viewBox="0 0 24 24" style="enable-background:new 0 0 24 24;" xml:space="preserve">
<style type="text/css">
	.st0{clip-path:url(#SVGID_2_);}
	.st1{clip-path:url(#SVGID_4_);fill:#FBCC1E;}
	.st2{clip-path:url(#SVGID_6_);}
	.st3{clip-path:url(#SVGID_8_);fill:#FFFFFF;}
	.st4{clip-path:url(#SVGID_10_);}
	.st5{clip-path:url(#SVGID_12_);fill:#FFFFFF;}
	.st6{clip-path:url(#SVGID_14_);}
	.st7{clip-path:url(#SVGID_16_);fill:#FBCC1E;}
	.st8{clip-path:url(#SVGID_18_);}
	.st9{clip-path:url(#SVGID_20_);fill:#FAE158;}
	.st10{clip-path:url(#SVGID_22_);}
	.st11{clip-path:url(#SVGID_24_);fill:#FBCC1E;}
	.st12{clip-path:url(#SVGID_26_);}
	.st13{clip-path:url(#SVGID_28_);fill:#FAE158;}
	.st14{clip-path:url(#SVGID_30_);}
	.st15{clip-path:url(#SVGID_32_);fill:#FAE158;}
	.st16{clip-path:url(#SVGID_34_);}
	.st17{clip-path:url(#SVGID_36_);fill:#F2B71B;}
	.st18{clip-path:url(#SVGID_38_);}
	.st19{clip-path:url(#SVGID_40_);fill:#FBCC1E;}
	.st20{clip-path:url(#SVGID_42_);}
	.st21{clip-path:url(#SVGID_44_);fill:#FAE158;}
	.st22{clip-path:url(#SVGID_46_);}
	.st23{clip-path:url(#SVGID_48_);fill:#FBCC1E;}
	.st24{clip-path:url(#SVGID_50_);}
	.st25{clip-path:url(#SVGID_52_);fill:#F2B71B;}
</style>
<g>
	<defs>
		<path id="SVGID_1_" d="M12.4,6h-0.8c-0.4,0-0.8-0.3-1.1-0.7V18h3V5.3C13.2,5.7,12.8,6,12.4,6"/>
	</defs>
	<clipPath id="SVGID_2_">
		<use xlink:href="#SVGID_1_"  style="overflow:visible;"/>
	</clipPath>
	<g class="st0">
		<defs>
			<rect id="SVGID_3_" x="-682" y="-2711" width="1424" height="4477"/>
		</defs>
		<clipPath id="SVGID_4_">
			<use xlink:href="#SVGID_3_"  style="overflow:visible;"/>
		</clipPath>
		<rect x="5.5" y="0.3" class="st1" width="13" height="22.7"/>
	</g>
</g>
<g>
	<defs>
		<path id="SVGID_5_" d="M1.8,13.1l2-7.5l2,7.5h0.6c0,0,0,0,0-0.1L4,4.4c0-0.1-0.1-0.2-0.3-0.2c-0.1,0-0.2,0.1-0.3,0.2l-2.3,8.6
			c0,0,0,0,0,0.1H1.8z"/>
	</defs>
	<clipPath id="SVGID_6_">
		<use xlink:href="#SVGID_5_"  style="overflow:visible;"/>
	</clipPath>
	<g class="st2">
		<defs>
			<rect id="SVGID_7_" x="-682" y="-2711" width="1424" height="4477"/>
		</defs>
		<clipPath id="SVGID_8_">
			<use xlink:href="#SVGID_7_"  style="overflow:visible;"/>
		</clipPath>
		<rect x="-3.8" y="-0.8" class="st3" width="15.1" height="18.9"/>
	</g>
</g>
<g>
	<defs>
		<path id="SVGID_9_" d="M18.3,13.1l2-7.5l2,7.5h0.6c0,0,0,0,0-0.1l-2.3-8.6c0-0.1-0.1-0.2-0.3-0.2c-0.1,0-0.2,0.1-0.3,0.2l-2.3,8.6
			c0,0,0,0,0,0.1H18.3z"/>
	</defs>
	<clipPath id="SVGID_10_">
		<use xlink:href="#SVGID_9_"  style="overflow:visible;"/>
	</clipPath>
	<g class="st4">
		<defs>
			<rect id="SVGID_11_" x="-682" y="-2711" width="1424" height="4477"/>
		</defs>
		<clipPath id="SVGID_12_">
			<use xlink:href="#SVGID_11_"  style="overflow:visible;"/>
		</clipPath>
		<rect x="12.7" y="-0.8" class="st5" width="15.1" height="18.9"/>
	</g>
</g>
<g>
	<defs>
		<path id="SVGID_13_" d="M24,13.1c0,1.7-1.3,3-3,3h-1.5c-1.7,0-3-1.3-3-3H24z"/>
	</defs>
	<clipPath id="SVGID_14_">
		<use xlink:href="#SVGID_13_"  style="overflow:visible;"/>
	</clipPath>
	<g class="st6">
		<defs>
			<rect id="SVGID_15_" x="-682" y="-2711" width="1424" height="4477"/>
		</defs>
		<clipPath id="SVGID_16_">
			<use xlink:href="#SVGID_15_"  style="overflow:visible;"/>
		</clipPath>
		<rect x="11.5" y="8.1" class="st7" width="17.5" height="13"/>
	</g>
</g>
<g>
	<defs>
		<path id="SVGID_17_" d="M20.3,13.1h-3.8c0,1.7,1.3,3,3,3h0.8V13.1z"/>
	</defs>
	<clipPath id="SVGID_18_">
		<use xlink:href="#SVGID_17_"  style="overflow:visible;"/>
	</clipPath>
	<g class="st8">
		<defs>
			<rect id="SVGID_19_" x="-682" y="-2711" width="1424" height="4477"/>
		</defs>
		<clipPath id="SVGID_20_">
			<use xlink:href="#SVGID_19_"  style="overflow:visible;"/>
		</clipPath>
		<rect x="11.5" y="8.1" class="st9" width="13.8" height="13"/>
	</g>
</g>
<g>
	<defs>
		<path id="SVGID_21_" d="M7.5,13.1c0,1.7-1.3,3-3,3H3c-1.7,0-3-1.3-3-3H7.5z"/>
	</defs>
	<clipPath id="SVGID_22_">
		<use xlink:href="#SVGID_21_"  style="overflow:visible;"/>
	</clipPath>
	<g class="st10">
		<defs>
			<rect id="SVGID_23_" x="-682" y="-2711" width="1424" height="4477"/>
		</defs>
		<clipPath id="SVGID_24_">
			<use xlink:href="#SVGID_23_"  style="overflow:visible;"/>
		</clipPath>
		<rect x="-5" y="8.1" class="st11" width="17.5" height="13"/>
	</g>
</g>
<g>
	<defs>
		<path id="SVGID_25_" d="M3.8,13.1H0c0,1.7,1.3,3,3,3h0.8V13.1z"/>
	</defs>
	<clipPath id="SVGID_26_">
		<use xlink:href="#SVGID_25_"  style="overflow:visible;"/>
	</clipPath>
	<g class="st12">
		<defs>
			<rect id="SVGID_27_" x="-682" y="-2711" width="1424" height="4477"/>
		</defs>
		<clipPath id="SVGID_28_">
			<use xlink:href="#SVGID_27_"  style="overflow:visible;"/>
		</clipPath>
		<rect x="-5" y="8.1" class="st13" width="13.8" height="13"/>
	</g>
</g>
<g>
	<defs>
		<path id="SVGID_29_" d="M20.3,5.2C17.8,3.8,14.9,3,12,3S6.2,3.8,3.8,5.2c-0.4,0.2-0.8,0.1-1-0.3C2.5,4.6,2.6,4.1,3,3.9
			c2.7-1.6,5.8-2.4,9-2.4c3.2,0,6.3,0.8,9,2.4c0.4,0.2,0.5,0.7,0.3,1C21.1,5.3,20.6,5.4,20.3,5.2"/>
	</defs>
	<clipPath id="SVGID_30_">
		<use xlink:href="#SVGID_29_"  style="overflow:visible;"/>
	</clipPath>
	<g class="st14">
		<defs>
			<rect id="SVGID_31_" x="-682" y="-2711" width="1424" height="4477"/>
		</defs>
		<clipPath id="SVGID_32_">
			<use xlink:href="#SVGID_31_"  style="overflow:visible;"/>
		</clipPath>
		<rect x="-2.4" y="-3.5" class="st15" width="28.8" height="13.8"/>
	</g>
</g>
<g>
	<defs>
		<path id="SVGID_33_" d="M13.5,18h-3C10.3,24.1,6,20.7,6,24h12C18,20.7,13.7,24,13.5,18"/>
	</defs>
	<clipPath id="SVGID_34_">
		<use xlink:href="#SVGID_33_"  style="overflow:visible;"/>
	</clipPath>
	<g class="st16">
		<defs>
			<rect id="SVGID_35_" x="-682" y="-2711" width="1424" height="4477"/>
		</defs>
		<clipPath id="SVGID_36_">
			<use xlink:href="#SVGID_35_"  style="overflow:visible;"/>
		</clipPath>
		<rect x="1" y="13" class="st17" width="22" height="16"/>
	</g>
</g>
<g>
	<defs>
		<path id="SVGID_37_" d="M10.5,18C10.3,24.1,6,20.7,6,24h6v-6H10.5z"/>
	</defs>
	<clipPath id="SVGID_38_">
		<use xlink:href="#SVGID_37_"  style="overflow:visible;"/>
	</clipPath>
	<g class="st18">
		<defs>
			<rect id="SVGID_39_" x="-682" y="-2711" width="1424" height="4477"/>
		</defs>
		<clipPath id="SVGID_40_">
			<use xlink:href="#SVGID_39_"  style="overflow:visible;"/>
		</clipPath>
		<rect x="1" y="13" class="st19" width="16" height="16"/>
	</g>
</g>
<g>
	<defs>
		<path id="SVGID_41_" d="M11.6,6c-0.4,0-0.8-0.3-1.1-0.7V18H12V6H11.6z"/>
	</defs>
	<clipPath id="SVGID_42_">
		<use xlink:href="#SVGID_41_"  style="overflow:visible;"/>
	</clipPath>
	<g class="st20">
		<defs>
			<rect id="SVGID_43_" x="-682" y="-2711" width="1424" height="4477"/>
		</defs>
		<clipPath id="SVGID_44_">
			<use xlink:href="#SVGID_43_"  style="overflow:visible;"/>
		</clipPath>
		<rect x="5.5" y="0.3" class="st21" width="11.5" height="22.7"/>
	</g>
</g>
<g>
	<defs>
		<path id="SVGID_45_" d="M12,0L12,0L9.4,2.3c0,1.2,1,3.8,2.3,3.8h0.8c1.2,0,2.3-2.5,2.3-3.8L12,0z"/>
	</defs>
	<clipPath id="SVGID_46_">
		<use xlink:href="#SVGID_45_"  style="overflow:visible;"/>
	</clipPath>
	<g class="st22">
		<defs>
			<rect id="SVGID_47_" x="-682" y="-2711" width="1424" height="4477"/>
		</defs>
		<clipPath id="SVGID_48_">
			<use xlink:href="#SVGID_47_"  style="overflow:visible;"/>
		</clipPath>
		<rect x="4.4" y="-5" class="st23" width="15.3" height="16"/>
	</g>
</g>
<g>
	<defs>
		<path id="SVGID_49_" d="M12,0v6h0.4c1.2,0,2.3-2.5,2.3-3.8L12,0z"/>
	</defs>
	<clipPath id="SVGID_50_">
		<use xlink:href="#SVGID_49_"  style="overflow:visible;"/>
	</clipPath>
	<g class="st24">
		<defs>
			<rect id="SVGID_51_" x="-682" y="-2711" width="1424" height="4477"/>
		</defs>
		<clipPath id="SVGID_52_">
			<use xlink:href="#SVGID_51_"  style="overflow:visible;"/>
		</clipPath>
		<rect x="7" y="-5" class="st25" width="12.6" height="16"/>
	</g>
</g>
</svg>
