<?xml version="1.0" encoding="UTF-8"?>
<svg width="21px" height="21px" viewBox="0 0 21 21" version="1.1" xmlns="http://www.w3.org/2000/svg" xmlns:xlink="http://www.w3.org/1999/xlink">
    <!-- Generator: Sketch 40.3 (33839) - http://www.bohemiancoding.com/sketch -->
    <title>bday</title>
    <desc>Created with Sketch.</desc>
    <defs></defs>
    <g id="Page-1" stroke="none" stroke-width="1" fill="none" fill-rule="evenodd">
        <g id="ORG-ProfilePage-Desktop-7" transform="translate(-412.000000, -361.000000)">
            <g id="Body" transform="translate(139.000000, 179.000000)">
                <g id="HeaderCard" transform="translate(0.000000, 34.000000)">
                    <g id="Age" transform="translate(273.000000, 148.000000)">
                        <g id="bday">
                            <g transform="translate(0.000000, 0.125000)">
                                <path d="M4.60094572,5.41480794 C4.24958573,5.41480794 3.93281558,5.30080438 3.69068668,5.11877869 L3.69068668,9.97495042 L5.51120477,9.97495042 L5.51120477,5.11877869 C5.26907586,5.30080438 4.95230572,5.41480794 4.60094572,5.41480794" id="Fill-2851" fill="#F0386B"></path>
                                <path d="M5.96633429,4.10560629 C5.96633429,4.86149403 5.35509534,5.47414173 4.60094572,5.47414173 C3.8467961,5.47414173 3.23555715,4.86149403 3.23555715,4.10560629 C3.23555715,2.73707086 4.60094572,2.73707086 4.60094572,0 C4.60094572,0 5.96633429,1.82471391 5.96633429,4.10560629" id="Fill-2852" fill="#F3B607"></path>
                                <path d="M8.24198191,5.41480794 C7.89062192,5.41480794 7.57385177,5.30080438 7.33172286,5.11877869 L7.33172286,9.97495042 L9.15224095,9.97495042 L9.15224095,5.11877869 C8.91011205,5.30080438 8.5933419,5.41480794 8.24198191,5.41480794" id="Fill-2853" fill="#5CB85C"></path>
                                <path d="M9.60737048,4.10560629 C9.60737048,4.86149403 8.99613153,5.47414173 8.24198191,5.47414173 C7.48783229,5.47414173 6.87659334,4.86149403 6.87659334,4.10560629 C6.87659334,2.73707086 8.24198191,2.73707086 8.24198191,0 C8.24198191,0 9.60737048,1.82471391 9.60737048,4.10560629" id="Fill-2854" fill="#F3B607"></path>
                                <path d="M11.8830181,5.41480794 C11.5316581,5.41480794 11.214888,5.30080438 10.972759,5.11877869 L10.972759,9.97495042 L12.7932771,9.97495042 L12.7932771,5.11877869 C12.5511482,5.30080438 12.2343781,5.41480794 11.8830181,5.41480794" id="Fill-2855" fill="#F0386B"></path>
                                <path d="M13.2484067,4.10560629 C13.2484067,4.86149403 12.6371677,5.47414173 11.8830181,5.47414173 C11.1288685,5.47414173 10.5176295,4.86149403 10.5176295,4.10560629 C10.5176295,2.73707086 11.8830181,2.73707086 11.8830181,0 C11.8830181,0 13.2484067,1.82471391 13.2484067,4.10560629" id="Fill-2856" fill="#F3B607"></path>
                                <path d="M15.5240543,5.41480794 C15.1726943,5.41480794 14.8559241,5.30080438 14.6137952,5.11877869 L14.6137952,9.97495042 L16.4343133,9.97495042 L16.4343133,5.11877869 C16.1921844,5.30080438 15.8754143,5.41480794 15.5240543,5.41480794" id="Fill-2857" fill="#5CB85C"></path>
                                <path d="M16.8894428,4.10560629 C16.8894428,4.86149403 16.2782039,5.47414173 15.5240543,5.47414173 C14.7699047,5.47414173 14.1586657,4.86149403 14.1586657,4.10560629 C14.1586657,2.73707086 15.5240543,2.73707086 15.5240543,0 C15.5240543,0 16.8894428,1.82471391 16.8894428,4.10560629" id="Fill-2858" fill="#F3B607"></path>
                                <path d="M20.125,19.9010417 L0,19.9010417 L0,11.7252604 C0,10.219554 0.90059375,9 2.0125,9 L18.1125,9 C19.2244063,9 20.125,10.219554 20.125,11.7252604 L20.125,19.9010417 Z" id="Fill-2846" fill="#D9A767"></path>
                                <path d="M0,19.9010417 L6.00980505,19.9010417 L14.0875,9 L2.01942374,9 C0.903692123,9 0,10.219554 0,11.7252604 L0,19.9010417 Z" id="Fill-2847" fill="#E0BA87"></path>
                                <path d="M20.125,14.4505208 C20.125,14.4505208 20.125,17.1757812 18.1125,17.1757812 C16.1,17.1757812 16.603125,12.4065755 14.590625,12.4065755 C12.578125,12.4065755 12.578125,17.1757812 10.0625,17.1757812 C7.546875,17.1757812 7.546875,12.4065755 5.534375,12.4065755 C3.521875,12.4065755 4.025,17.1757812 2.0125,17.1757812 C0,17.1757812 0,14.4505208 0,14.4505208 L0,11.7252604 C0,10.219554 0.90059375,9 2.0125,9 L18.1125,9 C19.2244063,9 20.125,10.219554 20.125,11.7252604 L20.125,14.4505208 Z" id="Fill-2848" fill="#8E6134"></path>
                                <path d="M2.01942374,9 C0.903692123,9 0,10.219554 0,11.7252604 L0,14.4505208 C0,14.4505208 0,17.1757812 2.01942374,17.1757812 C4.03884748,17.1757812 3.53399154,12.4065755 5.55341528,12.4065755 C7.06242967,12.4065755 7.44460561,15.0677923 8.59365772,16.414071 L14.0875,9 L2.01942374,9 Z" id="Fill-2859" fill="#A97A45"></path>
                            </g>
                        </g>
                    </g>
                </g>
            </g>
        </g>
    </g>
</svg>