<?xml version="1.0" encoding="UTF-8"?>
<svg width="121px" height="134px" viewBox="0 0 121 134" version="1.1" xmlns="http://www.w3.org/2000/svg" xmlns:xlink="http://www.w3.org/1999/xlink">
    <!-- Generator: Sketch 40.1 (33804) - http://www.bohemiancoding.com/sketch -->
    <title>device-collage</title>
    <desc>Created with Sketch.</desc>
    <defs>
        <rect id="path-1" x="0" y="0" width="96.4631994" height="130.485735" rx="5.76000009"></rect>
        <mask id="mask-2" maskContentUnits="userSpaceOnUse" maskUnits="objectBoundingBox" x="0" y="0" width="96.4631994" height="130.485735" fill="white">
            <use xlink:href="#path-1"></use>
        </mask>
        <rect id="path-3" x="5.75899698" y="13.0485735" width="84.9452055" height="104.388588"></rect>
        <linearGradient x1="15.0547474%" y1="49.7500002%" x2="94.4360456%" y2="49.7500002%" id="linearGradient-5">
            <stop stop-color="#552D88" offset="0%"></stop>
            <stop stop-color="#6F2681" offset="28.6352041%"></stop>
            <stop stop-color="#6F2681" offset="77.2580517%"></stop>
            <stop stop-color="#3C56B3" offset="100%"></stop>
        </linearGradient>
        <rect id="path-6" x="2.83150685" y="4.97739647" width="17.6969178" height="4.97739647" rx="0.849600013"></rect>
        <filter x="-50%" y="-50%" width="200%" height="200%" filterUnits="objectBoundingBox" id="filter-7">
            <feOffset dx="0" dy="-1" in="SourceAlpha" result="shadowOffsetInner1"></feOffset>
            <feComposite in="shadowOffsetInner1" in2="SourceAlpha" operator="arithmetic" k2="-1" k3="1" result="shadowInnerInner1"></feComposite>
            <feColorMatrix values="0 0 0 0 0   0 0 0 0 0   0 0 0 0 0  0 0 0 0.12 0" type="matrix" in="shadowInnerInner1"></feColorMatrix>
        </filter>
        <ellipse id="path-8" cx="7.07876712" cy="7.11056639" rx="7.07876712" ry="7.11056639"></ellipse>
        <rect id="path-10" x="0" y="0" width="38.8732296" height="75.3917578" rx="2.88000004"></rect>
        <mask id="mask-11" maskContentUnits="userSpaceOnUse" maskUnits="objectBoundingBox" x="0" y="0" width="38.8732296" height="75.3917578" fill="white">
            <use xlink:href="#path-10"></use>
        </mask>
        <rect id="path-12" x="0" y="0" width="33.1142326" height="55.0939769"></rect>
        <ellipse id="path-14" cx="4.12413214" cy="4.14524162" rx="4.12413214" ry="4.14524162"></ellipse>
    </defs>
    <g id="Page-1" stroke="none" stroke-width="1" fill="none" fill-rule="evenodd">
        <g id="ORG-Results-1400-2" transform="translate(-1090.000000, -666.000000)">
            <g id="RigthNav" transform="translate(1019.000000, 322.000000)">
                <g id="CTA-APP2" transform="translate(1.000000, 314.000000)">
                    <g id="device-collage" transform="translate(70.000000, 30.000000)">
                        <g id="tablet" transform="translate(12.638495, 0.000000)">
                            <g id="body">
                                <use id="main-body" stroke="#CCCCCC" mask="url(#mask-2)" fill="#F0F0F0" xlink:href="#path-1"></use>
                                <rect id="home-button" fill="#999999" x="44.6322266" y="120.336844" width="7.19874623" height="7.24920749" rx="3.59937311"></rect>
                                <rect id="microphone" fill="#999999" x="47.5117251" y="5.79936599" width="1.43974925" height="1.4498415" rx="0.719874623"></rect>
                            </g>
                            <mask id="mask-4" fill="white">
                                <use xlink:href="#path-3"></use>
                            </mask>
                            <use id="screen" fill="#FFFFFF" xlink:href="#path-3"></use>
                            <g id="report" mask="url(#mask-4)">
                                <g transform="translate(5.758997, 13.048573)">
                                    <g id="Top-Nav">
                                        <g id="Fill-Background">
                                            <rect id="Rectangle-1" fill="#D8D8D8" x="0" y="0" width="84.9452055" height="7.27095511"></rect>
                                            <rect id="Header-Background" fill="url(#linearGradient-5)" x="0" y="0" width="84.9452055" height="7.27095511"></rect>
                                        </g>
                                        <g id="Search-Bar" transform="translate(17.696918, 1.454191)">
                                            <rect fill="#FFFFFF" x="0" y="0" width="49.5513699" height="4.36257306" rx="0.849600013"></rect>
                                            <text id="Label" font-family="FontAwesome" font-size="1.98240003" font-weight="normal" fill="#6F2681">
                                                <tspan x="1.41575342" y="3.16335282"></tspan>
                                            </text>
                                        </g>
                                        <path d="M3.41940446,1.81230187 C2.32606273,1.81230187 1.43974925,2.67723987 1.43974925,3.74408252 C1.43974925,4.47341335 1.8540455,5.10813793 2.46542019,5.43690561 L2.37698065,4.26247212 C2.37698065,4.08141886 2.53282125,3.93461102 2.72513456,3.93461102 L4.11364439,3.93461102 C4.30595769,3.93461102 4.46182827,4.08141886 4.46182827,4.26247212 L4.37338872,5.43690561 C4.98473344,5.10813793 5.39905967,4.47341335 5.39905967,3.74408252 C5.39905967,2.67723987 4.51274619,1.81230187 3.41940446,1.81230187 Z M2.58116181,2.97781577 C2.58116181,2.52604534 2.95652789,2.15984458 3.41937449,2.15984458 C3.88234097,2.15984458 4.25767707,2.52604534 4.25767707,2.97781577 C4.25767707,3.4295277 3.88234097,3.79578695 3.41937449,3.79578695 C2.95652789,3.79578695 2.58116181,3.4295277 2.58116181,2.97781577 Z M3.54548258,4.66450342 L3.09563129,4.66450342 L3.44913285,4.91187261 L3.27604414,5.35619364 L3.68012707,5.07345705 L4.08423989,5.35619364 L3.91115118,4.91178579 L4.26465274,4.66450342 L3.81483134,4.66450342 L3.68012707,4.31875961 L3.54548258,4.66450342 Z" id="assets/bv-mark" fill="#5CB85C"></path>
                                        <g id="Hamburger" transform="translate(78.574315, 0.987851)" fill="#9B90DC">
                                            <rect transform="translate(2.123630, 1.129693) scale(1, -1) translate(-2.123630, -1.129693) " x="0" y="0.629692913" width="4.24726027" height="0.727095511" rx="0.363547755"></rect>
                                            <rect id="Rectangle-8-Copy" x="0" y="2.35678842" width="4.24726027" height="0.727095511" rx="0.363547755"></rect>
                                            <rect id="Rectangle-8-Copy-3" x="0" y="3.81097945" width="4.24726027" height="0.727095511" rx="0.363547755"></rect>
                                        </g>
                                    </g>
                                    <g id="Header" transform="translate(0.000000, 7.249207)">
                                        <rect id="Fill" fill="#736F9C" x="0" y="0" width="84.9452055" height="28.4422656"></rect>
                                        <g id="AlertMe" transform="translate(57.338014, 8.248257)">
                                            <rect id="Rectangle-9" fill="#3B2469" x="0" y="0" width="23.3599315" height="12.0879629" rx="0.849600013"></rect>
                                            <g id="Rectangle-8">
                                                <use fill="#5CB85C" fill-rule="evenodd" xlink:href="#path-6"></use>
                                                <use fill="black" fill-opacity="1" filter="url(#filter-7)" xlink:href="#path-6"></use>
                                            </g>
                                            <rect id="Rectangle-10" fill="#F0F0F0" x="5.6630137" y="6.68393241" width="12.0339041" height="1.42211328"></rect>
                                            <rect id="Rectangle-10" fill="#F0F0F0" x="2.12363014" y="1.70653593" width="18.9710959" height="1.42211328"></rect>
                                        </g>
                                        <g id="Avatar-+-Label" transform="translate(2.519561, 6.886747)">
                                            <rect id="Rectangle-10" fill="#F0F0F0" x="15.8852333" y="8.04544231" width="26.8993151" height="2.13316992"></rect>
                                            <rect id="Rectangle-10" fill="#F0F0F0" x="15.8852333" y="3.77910248" width="20.5284247" height="3.5552832"></rect>
                                            <g id="Mask-+-Group" transform="translate(0.311946, 0.223819)">
                                                <mask id="mask-9" fill="white">
                                                    <use xlink:href="#path-8"></use>
                                                </mask>
                                                <use id="Mask" fill="#CFD9DE" xlink:href="#path-8"></use>
                                                <g id="Group-Copy-2" mask="url(#mask-9)">
                                                    <g transform="translate(-0.707877, 2.133170)">
                                                        <path d="M11.5039434,3.72974102 C11.5039434,1.69089243 9.84577401,0.00208819334 7.78845507,0.00208819334 C5.7442288,0.00208819334 4.07296679,1.67030158 4.07296679,3.72974102 C4.07296679,4.99394784 4.70389208,6.11082363 5.66531891,6.78499627 L5.66531891,7.81240839 L9.91159124,7.81240839 L9.91159124,6.78499627 C10.8730181,6.11082363 11.5039434,4.99394784 11.5039434,3.72974102" id="Fill-615" fill="#F8B4B4"></path>
                                                        <path d="M4.07296679,3.72970551 C4.07296679,4.99391234 4.70389208,6.11078813 5.66531891,6.78496077 L5.66531891,7.81237289 L7.78845507,7.81237289 L7.78845507,0.00205269189 C5.7442288,0.00205269189 4.07296679,1.67026608 4.07296679,3.72970551" id="Fill-616" fill="#FBC8C8"></path>
                                                        <path d="M15.5732877,14.9126995 L0.00362247244,14.9126995 L0.392510246,10.3035455 C0.392510246,9.66948953 0.811475783,9.11247169 1.41904658,8.93815954 L5.66531891,7.81240839 L9.91159124,7.81240839 L14.1578636,8.93815954 C14.7654344,9.11247169 15.1843999,9.66948953 15.1843999,10.3035455 L15.5732877,14.9126995 Z" id="Fill-617" fill="#3E3E3F"></path>
                                                        <polygon id="Fill-618" fill="#FFFFFF" points="5.66531891 7.81240839 9.91159124 7.81240839 7.78845507 14.9126995"></polygon>
                                                        <polygon id="Fill-619" fill="#DF2C2C" points="7.78845507 7.81240839 6.72688699 11.3625539 7.78845507 14.9126995 8.85002315 11.3625539"></polygon>
                                                        <path d="M11.4915584,3.51843635 C10.8103855,3.65511696 10.0860423,3.72967001 9.33657519,3.72967001 C7.41089069,3.72967001 5.64585683,3.25146541 4.29589608,2.45623281 C4.81606444,1.02694421 6.18477956,0.00201719043 7.78845507,0.00201719043 C9.76367942,0.00201719043 11.3864632,1.56159613 11.4915584,3.51843635" id="Fill-620" fill="#692E19"></path>
                                                        <polygon id="Fill-621" fill="#FA5655" points="6.72688699 11.3625184 7.78845507 14.912664 7.78845507 7.81237289"></polygon>
                                                        <path d="M7.78845507,0.00205269189 C6.18477956,0.00205269189 4.81606444,1.02697971 4.29589608,2.45626831 C5.27395414,3.03210191 6.47140294,3.43894859 7.78845507,3.62071605 L7.78845507,0.00205269189 Z" id="Fill-622" fill="#84462D"></path>
                                                    </g>
                                                </g>
                                            </g>
                                        </g>
                                    </g>
                                    <g id="Section-3" transform="translate(2.519561, 89.516839)">
                                        <path d="M79.678583,1.62050771 L79.678583,1.07023325 C79.678583,0.474610023 79.2012696,0 78.6124736,0 L1.06610941,0 C0.46792221,0 0,0.479159749 0,1.07023325 L0,1.62050771 L0,4.31124868 L79.678583,4.31124868 L79.678583,1.62050771 Z" id="Rectangle-10" fill="#A1ADB2"></path>
                                        <rect id="Rectangle-10" fill="#FFFFFF" x="0" y="4.31124868" width="79.678583" height="13.6522875"></rect>
                                        <rect id="Rectangle-10" fill="#F0F0F0" x="1.94338007" y="1.43708289" width="23.3205609" height="1.43708289"></rect>
                                        <rect id="Rectangle-10" fill="#CFD9DE" x="1.94338007" y="6.46687301" width="75.7918229" height="1.43708289"></rect>
                                        <rect id="Rectangle-10" fill="#CFD9DE" x="1.94338007" y="9.3410388" width="33.0374613" height="1.43708289"></rect>
                                        <rect id="Rectangle-10" fill="#CFD9DE" x="1.94338007" y="12.2152046" width="33.0374613" height="1.43708289"></rect>
                                        <rect id="Rectangle-10" fill="#CFD9DE" x="38.8676015" y="12.2152046" width="33.0374613" height="1.43708289"></rect>
                                        <rect id="Rectangle-10" fill="#CFD9DE" x="38.8676015" y="9.3410388" width="33.0374613" height="1.43708289"></rect>
                                    </g>
                                    <g id="Section-2" transform="translate(2.519561, 60.893343)">
                                        <rect id="Rectangle-10" fill="#FFFFFF" x="0" y="4.25259223" width="79.678583" height="20.5541958"></rect>
                                        <path d="M79.678583,1.59845999 L79.678583,1.05567226 C79.678583,0.468152744 79.2012696,0 78.6124736,0 L1.06610941,0 C0.46792221,0 0,0.472640569 0,1.05567226 L0,1.59845999 L0,4.25259223 L79.678583,4.25259223 L79.678583,1.59845999 Z" id="Rectangle-10" fill="#A1ADB2"></path>
                                        <rect id="Rectangle-10" fill="#F0F0F0" x="1.94338007" y="1.41753074" width="33.0374613" height="1.41753074"></rect>
                                        <rect id="Rectangle-10" fill="#CFD9DE" x="1.94338007" y="6.37888835" width="33.0374613" height="7.08765372"></rect>
                                        <rect id="Rectangle-10" fill="#CFD9DE" x="1.94338007" y="14.8840728" width="33.0374613" height="7.08765372"></rect>
                                        <rect id="Rectangle-10" fill="#CFD9DE" x="38.8676015" y="6.37888835" width="33.0374613" height="7.08765372"></rect>
                                    </g>
                                    <g id="Section-1" transform="translate(2.519561, 38.420800)">
                                        <rect id="Rectangle-10" fill="#FFFFFF" x="0" y="4.31124868" width="79.678583" height="13.6522875"></rect>
                                        <path d="M79.678583,1.62050771 L79.678583,1.07023325 C79.678583,0.474610023 79.2012696,0 78.6124736,0 L1.06610941,0 C0.46792221,0 0,0.479159749 0,1.07023325 L0,1.62050771 L0,4.31124868 L79.678583,4.31124868 L79.678583,1.62050771 Z" id="Rectangle-10" fill="#A1ADB2"></path>
                                        <rect id="Rectangle-10" fill="#F0F0F0" x="1.94338007" y="1.43708289" width="23.3205609" height="1.43708289"></rect>
                                        <rect id="Rectangle-10" fill="#CFD9DE" x="1.94338007" y="6.46687301" width="75.7918229" height="1.43708289"></rect>
                                        <rect id="Rectangle-10" fill="#CFD9DE" x="1.94338007" y="9.3410388" width="33.0374613" height="1.43708289"></rect>
                                        <rect id="Rectangle-10" fill="#CFD9DE" x="1.94338007" y="12.2152046" width="33.0374613" height="1.43708289"></rect>
                                        <rect id="Rectangle-10" fill="#CFD9DE" x="38.8676015" y="12.2152046" width="33.0374613" height="1.43708289"></rect>
                                        <rect id="Rectangle-10" fill="#CFD9DE" x="38.8676015" y="9.3410388" width="33.0374613" height="1.43708289"></rect>
                                    </g>
                                </g>
                            </g>
                        </g>
                        <g id="smartphone" transform="translate(82.000000, 57.000000)">
                            <g id="body">
                                <use id="main-body" stroke="#CFD9DE" mask="url(#mask-11)" fill="#3D3D3D" xlink:href="#path-10"></use>
                                <rect id="home-button" fill="#666666" x="17.2769909" y="68.1425504" width="4.31924774" height="4.34952449" rx="1.08000002"></rect>
                                <rect id="microphone" fill="#A1A1A1" x="12.9577432" y="4.34952449" width="1.43974925" height="1.4498415" rx="0.719874623"></rect>
                                <rect id="Rectangle-267" fill="#121212" x="15.8372417" y="4.34952449" width="7.19874623" height="1.4498415"></rect>
                            </g>
                            <g id="Screen" transform="translate(2.879498, 10.148890)">
                                <mask id="mask-13" fill="white">
                                    <use xlink:href="#path-12"></use>
                                </mask>
                                <use id="screen" fill="#FFFFFF" xlink:href="#path-12"></use>
                                <g id="Report-Base" mask="url(#mask-13)">
                                    <g id="Top-Nav">
                                        <g id="Fill">
                                            <rect id="Rectangle-1" fill="#D8D8D8" x="0" y="0" width="33.1142326" height="5.82655662"></rect>
                                            <rect id="Header-Background" fill="url(#linearGradient-5)" x="0" y="0" width="33.1142326" height="5.82655662"></rect>
                                        </g>
                                        <g id="Search-Bar" transform="translate(9.358370, 1.087381)">
                                            <rect fill="#FFFFFF" x="0" y="0" width="14.7574298" height="3.49593397" rx="0.67968001"></rect>
                                            <text id="Label" font-family="FontAwesome" font-size="1.58592002" font-weight="normal" fill="#6F2681">
                                                <tspan x="1.13380253" y="1.93224906"></tspan>
                                            </text>
                                        </g>
                                        <path d="M2.69952984,1.4498415 C1.80497751,1.4498415 1.07981193,2.14179189 1.07981193,2.99526601 C1.07981193,3.57873068 1.4187816,4.08651035 1.91899725,4.34952449 L1.84663763,3.4099777 C1.84663763,3.26513509 1.97414358,3.14768882 2.13149082,3.14768882 L3.26754433,3.14768882 C3.42489157,3.14768882 3.55242204,3.26513509 3.55242204,3.4099777 L3.48006242,4.34952449 C3.98025355,4.08651035 4.31924774,3.57873068 4.31924774,2.99526601 C4.31924774,2.14179189 3.59408216,1.4498415 2.69952984,1.4498415 Z M2.01369494,2.38225261 C2.01369494,2.02083627 2.32081264,1.72787566 2.69950531,1.72787566 C3.07829607,1.72787566 3.38538925,2.02083627 3.38538925,2.38225261 C3.38538925,2.74362216 3.07829607,3.03662956 2.69950531,3.03662956 C2.32081264,3.03662956 2.01369494,2.74362216 2.01369494,2.38225261 Z M2.80268466,3.73160274 L2.43462451,3.73160274 L2.72385307,3.92949809 L2.58223503,4.28495491 L2.91284833,4.05876564 L3.2434861,4.28495491 L3.10186806,3.92942863 L3.39109661,3.73160274 L3.02306092,3.73160274 L2.91284833,3.45500769 L2.80268466,3.73160274 Z" id="assets/bv-mark" fill="#5CB85C"></path>
                                        <g id="Hamburger" transform="translate(28.075110, 0.547244)" fill="#9B90DC">
                                            <rect transform="translate(1.700704, 0.985253) scale(1, -1) translate(-1.700704, -0.985253) " x="0" y="0.485253064" width="3.40140759" height="0.582655662" rx="0.291327831"></rect>
                                            <rect id="Rectangle-8-Copy" x="0" y="2.06790873" width="3.40140759" height="0.582655662" rx="0.291327831"></rect>
                                            <rect id="Rectangle-8-Copy-3" x="0" y="3.23322005" width="3.40140759" height="0.582655662" rx="0.291327831"></rect>
                                        </g>
                                    </g>
                                    <g id="Header" transform="translate(0.000000, 5.809129)">
                                        <rect id="Fill" fill="#736F9C" x="0" y="0" width="33.1142326" height="16.3107168"></rect>
                                        <g id="Avatar-+-Label" transform="translate(2.159624, 1.812302)">
                                            <rect id="Rectangle-10" fill="#F0F0F0" x="12.579809" y="6.52895662" width="14.055552" height="1.70940889"></rect>
                                            <rect id="Rectangle-10" fill="#F0F0F0" x="12.579809" y="3.11013884" width="16.4401367" height="2.84901482"></rect>
                                            <g id="Mask-+-Group" transform="translate(0.107981, 0.261124)">
                                                <mask id="mask-15" fill="white">
                                                    <use xlink:href="#path-14"></use>
                                                </mask>
                                                <use id="Mask" fill="#CFD9DE" xlink:href="#path-14"></use>
                                                <g id="Group-Copy-2" mask="url(#mask-15)">
                                                    <g transform="translate(-0.412413, 1.243572)">
                                                        <path d="M6.70226634,2.17432435 C6.70226634,0.985738305 5.73620694,0.00121735253 4.5376006,0.00121735253 C3.34662212,0.00121735253 2.37293486,0.973734476 2.37293486,2.17432435 C2.37293486,2.91131807 2.74051571,3.56242232 3.30064874,3.95544424 L3.30064874,4.55439393 L5.77455245,4.55439393 L5.77455245,3.95544424 C6.33468548,3.56242232 6.70226634,2.91131807 6.70226634,2.17432435" id="Fill-615" fill="#F8B4B4"></path>
                                                        <path d="M2.37293486,2.17430366 C2.37293486,2.91129737 2.74051571,3.56240162 3.30064874,3.95542355 L3.30064874,4.55437323 L4.5376006,4.55437323 L4.5376006,0.00119665627 C3.34662212,0.00119665627 2.37293486,0.97371378 2.37293486,2.17430366" id="Fill-616" fill="#FBC8C8"></path>
                                                        <path d="M9.07309072,8.69364536 L0.00211047415,8.69364536 L0.228678822,6.00665029 C0.228678822,5.63701514 0.472770654,5.31229086 0.826745042,5.21067224 L3.30064874,4.55439393 L5.77455245,4.55439393 L8.24845615,5.21067224 C8.60243054,5.31229086 8.84652237,5.63701514 8.84652237,6.00665029 L9.07309072,8.69364536 Z" id="Fill-617" fill="#3E3E3F"></path>
                                                        <polygon id="Fill-618" fill="#FFFFFF" points="3.30064874 4.55439393 5.77455245 4.55439393 4.5376006 8.69364536"></polygon>
                                                        <polygon id="Fill-619" fill="#DF2C2C" points="4.5376006 4.55439393 3.91912467 6.62401964 4.5376006 8.69364536 5.15607652 6.62401964"></polygon>
                                                        <path d="M6.69505078,2.05114023 C6.2981954,2.13082082 5.87618866,2.17428296 5.43954465,2.17428296 C4.31762933,2.17428296 3.28931002,1.89550438 2.5028148,1.43190822 C2.805868,0.598676904 3.60328963,0.00117596001 4.5376006,0.00117596001 C5.68837814,0.00117596001 6.63382167,0.910362537 6.69505078,2.05114023" id="Fill-620" fill="#692E19"></path>
                                                        <polygon id="Fill-621" fill="#FA5655" points="3.91912467 6.62399895 4.5376006 8.69362466 4.5376006 4.55437323"></polygon>
                                                        <path d="M4.5376006,0.00119665627 C3.60328963,0.00119665627 2.805868,0.5986976 2.5028148,1.43192891 C3.07263729,1.7676222 3.77027813,2.00480131 4.5376006,2.11076615 L4.5376006,0.00119665627 Z" id="Fill-622" fill="#84462D"></path>
                                                    </g>
                                                </g>
                                            </g>
                                        </g>
                                    </g>
                                    <g id="Section-1" transform="translate(1.799687, 25.372226)">
                                        <rect id="Rectangle-10" fill="#FFFFFF" x="0" y="3.45480534" width="29.5148595" height="14.305753"></rect>
                                        <path d="M29.5148595,1.29858867 L29.5148595,0.857627995 C29.5148595,0.380327224 29.1336336,0 28.6633676,0 L0.851491943,0 C0.373176878,0 0,0.383973132 0,0.857627995 L0,1.29858867 L0,3.45480534 L29.5148595,3.45480534 L29.5148595,1.29858867 Z" id="Rectangle-10" fill="#A1ADB2"></path>
                                        <rect id="Rectangle-10" fill="#F0F0F0" x="1.55635099" y="1.15160178" width="18.6762119" height="1.15160178"></rect>
                                        <rect id="Rectangle-10" fill="#CFD9DE" x="1.55635099" y="5.182208" width="26.4579669" height="1.15160178"></rect>
                                        <rect id="Rectangle-10" fill="#CFD9DE" x="1.55635099" y="7.48541156" width="26.4579669" height="1.15160178"></rect>
                                        <rect id="Rectangle-10" fill="#CFD9DE" x="1.55635099" y="9.78861512" width="26.4579669" height="1.15160178"></rect>
                                        <rect id="Rectangle-10" fill="#CFD9DE" x="1.43974925" y="14.3950222" width="26.4579669" height="1.15160178"></rect>
                                        <rect id="Rectangle-10" fill="#CFD9DE" x="1.43974925" y="12.0918187" width="26.4579669" height="1.15160178"></rect>
                                    </g>
                                    <g id="Section-2" transform="translate(1.657847, 46.984384)">
                                        <rect id="Rectangle-10" fill="#FFFFFF" x="0" y="3.40780118" width="29.8747968" height="16.471039"></rect>
                                        <path d="M29.8747968,1.2809208 L29.8747968,0.845959587 C29.8747968,0.375152704 29.4960425,0 29.0288254,0 L0.845971488,0 C0.377727816,0 0,0.378749008 0,0.845959587 L0,1.2809208 L0,3.40780118 L29.8747968,3.40780118 L29.8747968,1.2809208 Z" id="Rectangle-10" fill="#A1ADB2"></path>
                                        <rect id="Rectangle-10" fill="#F0F0F0" x="1.55635099" y="1.13593373" width="26.4579669" height="1.13593373"></rect>
                                        <rect id="Rectangle-10" fill="#CFD9DE" x="1.55635099" y="5.11170177" width="26.4579669" height="5.67966864"></rect>
                                        <rect id="Rectangle-10" fill="#CFD9DE" x="1.55635099" y="11.9273041" width="26.4579669" height="5.67966864"></rect>
                                    </g>
                                </g>
                            </g>
                        </g>
                        <g id="Download" transform="translate(0.000000, 101.000000)">
                            <path d="M0,16.488462 C0,7.38167835 7.44187311,0 16.6229191,0 C25.8039652,0 33.2458383,7.38167835 33.2458383,16.488462 C33.2458383,25.5952457 25.8039652,32.9769241 16.6229191,32.9769241 C7.44187311,32.9769241 0,25.5952457 0,16.488462" id="Fill-6691" fill="#FACB1B"></path>
                            <path d="M26.9078534,17.8889508 C26.6959111,17.3819306 26.1961846,17.0501003 25.6424336,17.0501003 L22.1007129,17.0501003 L22.1007129,7.54141032 C22.1007129,6.7911853 21.4877428,6.18317326 20.7314,6.18317326 L12.5144832,6.18317326 C11.7581404,6.18317326 11.1451703,6.7911853 11.1451703,7.54141032 L11.1451703,17.0501003 L7.60344956,17.0501003 C7.04969857,17.0501003 6.54997206,17.3819306 6.33802984,17.8889508 C6.12608762,18.3970015 6.24244806,18.9802809 6.63516452,19.3698208 L15.6281638,27.5357316 C16.163214,28.066454 17.0296836,28.066454 17.5647339,27.5357316 L26.6107187,19.3698208 C27.0023962,18.9802809 27.1197956,18.3970015 26.9078534,17.8889508" id="Fill-6692" fill="#FFFFFF"></path>
                        </g>
                    </g>
                </g>
            </g>
        </g>
    </g>
</svg>