<?xml version="1.0" encoding="utf-8"?>
<!-- Generator: Adobe Illustrator 19.0.0, SVG Export Plug-In . SVG Version: 6.00 Build 0)  -->
<svg version="1.1" id="Layer_1" xmlns="http://www.w3.org/2000/svg" xmlns:xlink="http://www.w3.org/1999/xlink" x="0px" y="0px"
	 width="26px" height="26px" viewBox="0 0 26 26" style="enable-background:new 0 0 26 26;" xml:space="preserve">
<style type="text/css">
	.st0{clip-path:url(#SVGID_2_);}
	.st1{clip-path:url(#SVGID_4_);fill:#FFFFFF;}
	.st2{clip-path:url(#SVGID_6_);}
	.st3{clip-path:url(#SVGID_8_);fill:#E2E4E5;}
	.st4{clip-path:url(#SVGID_10_);}
	.st5{clip-path:url(#SVGID_12_);fill:#DF2E2C;}
	.st6{clip-path:url(#SVGID_14_);}
	.st7{clip-path:url(#SVGID_16_);fill:#48C6E4;}
	.st8{clip-path:url(#SVGID_18_);}
	.st9{clip-path:url(#SVGID_20_);fill:#85472E;}
	.st10{clip-path:url(#SVGID_22_);}
	.st11{clip-path:url(#SVGID_24_);fill:#FBCC1E;}
	.st12{clip-path:url(#SVGID_26_);}
	.st13{clip-path:url(#SVGID_28_);fill:#0F9782;}
	.st14{clip-path:url(#SVGID_30_);}
	.st15{clip-path:url(#SVGID_32_);fill:#19B198;}
</style>
<g>
	<defs>
		<rect id="SVGID_1_" x="1.6" y="9.8" width="22.7" height="14.6"/>
	</defs>
	<clipPath id="SVGID_2_">
		<use xlink:href="#SVGID_1_"  style="overflow:visible;"/>
	</clipPath>
	<g class="st0">
		<defs>
			<rect id="SVGID_3_" x="-652" y="-3048" width="1424" height="4477"/>
		</defs>
		<clipPath id="SVGID_4_">
			<use xlink:href="#SVGID_3_"  style="overflow:visible;"/>
		</clipPath>
		<rect x="-3.4" y="4.8" class="st1" width="32.7" height="24.6"/>
	</g>
</g>
<g>
	<defs>
		<path id="SVGID_5_" d="M22.7,2.4c0-0.4-0.4-0.8-0.8-0.8h-1.6c-0.4,0-0.8,0.4-0.8,0.8v4.9c0,0.4,0.4,0.8,0.8,0.8h1.6
			c0.4,0,0.8-0.4,0.8-0.8V2.4z"/>
	</defs>
	<clipPath id="SVGID_6_">
		<use xlink:href="#SVGID_5_"  style="overflow:visible;"/>
	</clipPath>
	<g class="st2">
		<defs>
			<rect id="SVGID_7_" x="-652" y="-3048" width="1424" height="4477"/>
		</defs>
		<clipPath id="SVGID_8_">
			<use xlink:href="#SVGID_7_"  style="overflow:visible;"/>
		</clipPath>
		<rect x="14.5" y="-3.4" class="st3" width="13.2" height="16.5"/>
	</g>
</g>
<g>
	<defs>
		<path id="SVGID_9_" d="M13.5,0.2c-0.3-0.2-0.7-0.2-1,0L0.3,8.3C0,8.5-0.1,8.9,0,9.2c0.1,0.3,0.4,0.5,0.8,0.5h24.3
			c0.3,0,0.7-0.2,0.8-0.5c0.1-0.3,0-0.7-0.3-0.9L13.5,0.2z"/>
	</defs>
	<clipPath id="SVGID_10_">
		<use xlink:href="#SVGID_9_"  style="overflow:visible;"/>
	</clipPath>
	<g class="st4">
		<defs>
			<rect id="SVGID_11_" x="-652" y="-3048" width="1424" height="4477"/>
		</defs>
		<clipPath id="SVGID_12_">
			<use xlink:href="#SVGID_11_"  style="overflow:visible;"/>
		</clipPath>
		<rect x="-5" y="-5" class="st5" width="36" height="19.8"/>
	</g>
</g>
<g>
	<defs>
		<rect id="SVGID_13_" x="14.2" y="13" width="8.5" height="6.1"/>
	</defs>
	<clipPath id="SVGID_14_">
		<use xlink:href="#SVGID_13_"  style="overflow:visible;"/>
	</clipPath>
	<g class="st6">
		<defs>
			<rect id="SVGID_15_" x="-652" y="-3048" width="1424" height="4477"/>
		</defs>
		<clipPath id="SVGID_16_">
			<use xlink:href="#SVGID_15_"  style="overflow:visible;"/>
		</clipPath>
		<rect x="9.2" y="8" class="st7" width="18.5" height="16.1"/>
	</g>
</g>
<g>
	<defs>
		<path id="SVGID_17_" d="M10.5,16.3c0-1.8-1.5-3.3-3.2-3.3c-1.8,0-3.2,1.5-3.2,3.3v6.5h6.5V16.3z"/>
	</defs>
	<clipPath id="SVGID_18_">
		<use xlink:href="#SVGID_17_"  style="overflow:visible;"/>
	</clipPath>
	<g class="st8">
		<defs>
			<rect id="SVGID_19_" x="-652" y="-3048" width="1424" height="4477"/>
		</defs>
		<clipPath id="SVGID_20_">
			<use xlink:href="#SVGID_19_"  style="overflow:visible;"/>
		</clipPath>
		<rect x="-0.9" y="8" class="st9" width="16.5" height="19.8"/>
	</g>
</g>
<g>
	<defs>
		<path id="SVGID_21_" d="M9.7,18.7c0,0.4-0.4,0.8-0.8,0.8s-0.8-0.4-0.8-0.8c0-0.4,0.4-0.8,0.8-0.8S9.7,18.2,9.7,18.7"/>
	</defs>
	<clipPath id="SVGID_22_">
		<use xlink:href="#SVGID_21_"  style="overflow:visible;"/>
	</clipPath>
	<g class="st10">
		<defs>
			<rect id="SVGID_23_" x="-652" y="-3048" width="1424" height="4477"/>
		</defs>
		<clipPath id="SVGID_24_">
			<use xlink:href="#SVGID_23_"  style="overflow:visible;"/>
		</clipPath>
		<rect x="3.1" y="12.9" class="st11" width="11.6" height="11.6"/>
	</g>
</g>
<g>
	<defs>
		<rect id="SVGID_25_" x="0" y="24.4" width="26" height="1.6"/>
	</defs>
	<clipPath id="SVGID_26_">
		<use xlink:href="#SVGID_25_"  style="overflow:visible;"/>
	</clipPath>
	<g class="st12">
		<defs>
			<rect id="SVGID_27_" x="-652" y="-3048" width="1424" height="4477"/>
		</defs>
		<clipPath id="SVGID_28_">
			<use xlink:href="#SVGID_27_"  style="overflow:visible;"/>
		</clipPath>
		<rect x="-5" y="19.4" class="st13" width="36" height="11.6"/>
	</g>
</g>
<g>
	<defs>
		<path id="SVGID_29_" d="M0,24.4l1.3-1.3c0.2-0.2,0.5-0.4,0.9-0.4h21.7c0.3,0,0.6,0.1,0.9,0.4l1.3,1.3H0z"/>
	</defs>
	<clipPath id="SVGID_30_">
		<use xlink:href="#SVGID_29_"  style="overflow:visible;"/>
	</clipPath>
	<g class="st14">
		<defs>
			<rect id="SVGID_31_" x="-652" y="-3048" width="1424" height="4477"/>
		</defs>
		<clipPath id="SVGID_32_">
			<use xlink:href="#SVGID_31_"  style="overflow:visible;"/>
		</clipPath>
		<rect x="-5" y="17.8" class="st15" width="36" height="11.6"/>
	</g>
</g>
</svg>
