<?xml version="1.0" encoding="utf-8"?>
<!-- Generator: Adobe Illustrator 19.0.0, SVG Export Plug-In . SVG Version: 6.00 Build 0)  -->
<svg version="1.1" id="Layer_1" xmlns="http://www.w3.org/2000/svg" xmlns:xlink="http://www.w3.org/1999/xlink" x="0px" y="0px"
	 width="24px" height="26px" viewBox="0 0 24 26" style="enable-background:new 0 0 24 26;" xml:space="preserve">
<style type="text/css">
	.st0{clip-path:url(#SVGID_2_);}
	.st1{clip-path:url(#SVGID_4_);fill:#989898;}
	.st2{clip-path:url(#SVGID_6_);}
	.st3{clip-path:url(#SVGID_8_);fill:#CFD9DE;}
	.st4{clip-path:url(#SVGID_10_);}
	.st5{clip-path:url(#SVGID_12_);fill:#F1F0F0;}
	.st6{clip-path:url(#SVGID_14_);}
	.st7{clip-path:url(#SVGID_16_);fill:#F1F0F0;}
</style>
<g>
	<defs>
		<path id="SVGID_1_" d="M18.2,19c1,1.2,1.1,2.6-0.2,3.9c-1.1,1.1-3,1.1-4.1,0c-5.5-5.4-8.8-10.4-12.6-6.6c-1.7,1.7-1.6,4.3-0.1,5.8
			L5,25.8c0.2,0.2,0.6,0.2,0.9,0c0.2-0.2,0.2-0.6,0-0.9l-3.8-3.7c-1.1-1.1-1.2-2.8,0.1-4.1c1.1-1.1,3-1.1,4.1,0l6.8,6.6
			c1.6,1.6,4.2,1.6,5.9,0c1.5-1.5,1.6-3.2,0.9-4.7C19.2,19.1,18.7,19.1,18.2,19"/>
	</defs>
	<clipPath id="SVGID_2_">
		<use xlink:href="#SVGID_1_"  style="overflow:visible;"/>
	</clipPath>
	<g class="st0">
		<defs>
			<rect id="SVGID_3_" x="-607" y="-3050" width="1424" height="4477"/>
		</defs>
		<clipPath id="SVGID_4_">
			<use xlink:href="#SVGID_3_"  style="overflow:visible;"/>
		</clipPath>
		<rect x="-5" y="10" class="st1" width="30.2" height="21"/>
	</g>
</g>
<g>
	<defs>
		<path id="SVGID_5_" d="M19.4,10.7c-2,0.3-3.6,2-3.6,4.1c0,0,0,0.1,0,0.1c-2.9-1.2-5.1-3.7-5.9-6.8c0.2,0,0.4,0.1,0.7,0.1
			c1.8,0,3.4-1.2,3.9-2.9L9.7,0C7,0.6,6.3,3,6.3,5.7c0,6.9,5.2,13.4,13.4,13.4c2,0,3.8-1.5,4.2-3.3L19.4,10.7z"/>
	</defs>
	<clipPath id="SVGID_6_">
		<use xlink:href="#SVGID_5_"  style="overflow:visible;"/>
	</clipPath>
	<g class="st2">
		<defs>
			<rect id="SVGID_7_" x="-607" y="-3050" width="1424" height="4477"/>
		</defs>
		<clipPath id="SVGID_8_">
			<use xlink:href="#SVGID_7_"  style="overflow:visible;"/>
		</clipPath>
		<rect x="1.3" y="-5" class="st3" width="27.7" height="29.1"/>
	</g>
</g>
<g>
	<defs>
		<path id="SVGID_9_" d="M17.3,11.7l5.8,5.9c0.4-0.5,0.8-1.1,0.9-1.8l-4.5-5.1C18.6,10.8,17.9,11.1,17.3,11.7"/>
	</defs>
	<clipPath id="SVGID_10_">
		<use xlink:href="#SVGID_9_"  style="overflow:visible;"/>
	</clipPath>
	<g class="st4">
		<defs>
			<rect id="SVGID_11_" x="-607" y="-3050" width="1424" height="4477"/>
		</defs>
		<clipPath id="SVGID_12_">
			<use xlink:href="#SVGID_11_"  style="overflow:visible;"/>
		</clipPath>
		<rect x="12.3" y="5.7" class="st5" width="16.7" height="16.9"/>
	</g>
</g>
<g>
	<defs>
		<path id="SVGID_13_" d="M7.2,1.7l5.8,5.8c0.7-0.5,1.3-1.3,1.6-2.2L9.7,0C8.6,0.2,7.8,0.8,7.2,1.7"/>
	</defs>
	<clipPath id="SVGID_14_">
		<use xlink:href="#SVGID_13_"  style="overflow:visible;"/>
	</clipPath>
	<g class="st6">
		<defs>
			<rect id="SVGID_15_" x="-607" y="-3050" width="1424" height="4477"/>
		</defs>
		<clipPath id="SVGID_16_">
			<use xlink:href="#SVGID_15_"  style="overflow:visible;"/>
		</clipPath>
		<rect x="2.2" y="-5" class="st7" width="17.4" height="17.5"/>
	</g>
</g>
</svg>
