<?xml version="1.0" encoding="utf-8"?>
<!-- Generator: Adobe Illustrator 19.0.0, SVG Export Plug-In . SVG Version: 6.00 Build 0)  -->
<svg version="1.1" id="Layer_1" xmlns="http://www.w3.org/2000/svg" xmlns:xlink="http://www.w3.org/1999/xlink" x="0px" y="0px"
	 width="28.1px" height="22.7px" viewBox="0 0 28.1 22.7" style="enable-background:new 0 0 28.1 22.7;" xml:space="preserve">
<style type="text/css">
	.st0{clip-path:url(#XMLID_93_);}
	.st1{clip-path:url(#XMLID_94_);fill:#FAC8C8;}
	.st2{clip-path:url(#XMLID_95_);}
	.st3{clip-path:url(#XMLID_96_);fill:#FAD7D7;}
	.st4{clip-path:url(#XMLID_97_);}
	.st5{clip-path:url(#XMLID_98_);fill:#9D6245;}
	.st6{clip-path:url(#XMLID_99_);}
	.st7{clip-path:url(#XMLID_100_);fill:#6A2F1A;}
	.st8{clip-path:url(#XMLID_101_);}
	.st9{clip-path:url(#XMLID_102_);fill:#FAC8C8;}
	.st10{clip-path:url(#XMLID_103_);}
	.st11{clip-path:url(#XMLID_104_);fill:#FAD7D7;}
	.st12{clip-path:url(#XMLID_105_);}
	.st13{clip-path:url(#XMLID_106_);fill:#85472E;}
	.st14{clip-path:url(#XMLID_107_);}
	.st15{clip-path:url(#XMLID_108_);fill:#9D6245;}
	.st16{clip-path:url(#XMLID_109_);}
	.st17{clip-path:url(#XMLID_110_);fill:#FAC8C8;}
	.st18{clip-path:url(#XMLID_111_);}
	.st19{clip-path:url(#XMLID_112_);fill:#FAC8C8;}
	.st20{clip-path:url(#XMLID_113_);}
	.st21{clip-path:url(#XMLID_114_);fill:#FAC8C8;}
	.st22{clip-path:url(#XMLID_115_);}
	.st23{clip-path:url(#XMLID_116_);fill:#F1F0F0;}
	.st24{clip-path:url(#XMLID_117_);}
	.st25{clip-path:url(#XMLID_118_);fill:#F1F0F0;}
</style>
<g id="XMLID_62_">
	<defs>
		<path id="XMLID_63_" d="M9.8,0c-3,0.9-5.4,3.1-5.7,4.7C1.3,4,0,5.2,0,5.2c0.5,1.3,1.7,2.6,2.5,2.9c0,0,0,0.1-0.1,0.1L0.8,8.8
			C0.4,9,0.1,9.5,0.3,9.9L1.1,12c0.2,0.5,0.7,0.7,1.1,0.5l0,0c0.8-0.3,1.7-0.1,2.3,0.6c0.8,0.8,1.8,1.4,3,1.7l-0.1,1.9
			c0,0.2,0.1,0.4,0.3,0.6c0.2,0.1,0.4,0.2,0.6,0.1L9.7,17c0.2-0.1,0.3-0.2,0.4-0.4l0.5-1.5c0.5-0.1,1-0.2,1.4-0.4l2.5-0.9l0.3-0.6
			l-4.6-2.1l2.1-4.6L7.8,4.4L9.8,0z"/>
	</defs>
	<clipPath id="XMLID_93_">
		<use xlink:href="#XMLID_63_"  style="overflow:visible;"/>
	</clipPath>
	<g id="XMLID_64_" class="st0">
		<defs>
			<rect id="XMLID_65_" x="-366" y="-2712.5" width="1424" height="4477"/>
		</defs>
		<clipPath id="XMLID_94_">
			<use xlink:href="#XMLID_65_"  style="overflow:visible;"/>
		</clipPath>
		
			<rect id="XMLID_66_" x="-4.4" y="-3.4" transform="matrix(-0.9397 0.342 -0.342 -0.9397 16.4814 16.159)" class="st1" width="22.5" height="25.9"/>
	</g>
</g>
<g id="XMLID_57_">
	<defs>
		<path id="XMLID_58_" d="M10.5,5.6l-4.1,8.8c-0.7-0.3-1.3-0.8-1.8-1.3c-0.6-0.6-1.5-0.9-2.3-0.6C2.5,12.5,1.4,13,1.1,12L0.3,9.9
			C0.1,9.5,0.4,9,0.8,8.8l1.6-0.6c0,0,0-0.1,0.1-0.1C1.7,7.8,0.5,6.4,0,5.2c0,0,1.3-1.2,4.1-0.4C4.4,3.1,6.9,0.9,9.8,0l-2,4.4
			L10.5,5.6z"/>
	</defs>
	<clipPath id="XMLID_95_">
		<use xlink:href="#XMLID_58_"  style="overflow:visible;"/>
	</clipPath>
	<g id="XMLID_59_" class="st2">
		<defs>
			<rect id="XMLID_60_" x="-366" y="-2712.5" width="1424" height="4477"/>
		</defs>
		<clipPath id="XMLID_96_">
			<use xlink:href="#XMLID_60_"  style="overflow:visible;"/>
		</clipPath>
		
			<rect id="XMLID_61_" x="-5" y="-3.3" transform="matrix(-0.9397 0.342 -0.342 -0.9397 14.6199 13.2632)" class="st3" width="22.3" height="22.4"/>
	</g>
</g>
<g id="XMLID_52_">
	<defs>
		<path id="XMLID_53_" d="M8.3,3.3C7.8,3.6,7.3,4,6.9,4.4C6.6,4.6,6.2,4.6,6,4.4C5.9,4.3,5.9,4.2,5.8,4.1c0-0.1,0-0.2,0.1-0.3
			c0.9-0.9,1.9-1.6,3-2L8.3,3.3z"/>
	</defs>
	<clipPath id="XMLID_97_">
		<use xlink:href="#XMLID_53_"  style="overflow:visible;"/>
	</clipPath>
	<g id="XMLID_54_" class="st4">
		<defs>
			<rect id="XMLID_55_" x="-366" y="-2712.5" width="1424" height="4477"/>
		</defs>
		<clipPath id="XMLID_98_">
			<use xlink:href="#XMLID_55_"  style="overflow:visible;"/>
		</clipPath>
		
			<rect id="XMLID_56_" x="0.6" y="-2.6" transform="matrix(-0.9397 0.342 -0.342 -0.9397 15.6884 3.8079)" class="st5" width="13.7" height="11.7"/>
	</g>
</g>
<g id="XMLID_47_">
	<defs>
		<path id="XMLID_48_" d="M5,6.9C4.7,7,4.5,7.3,4.5,7.7l0.1,0l0.5,0.1L4.7,8.2L4.7,8.2c0.2,0.3,0.6,0.4,0.9,0.2
			C6,8.3,6.3,7.8,6.1,7.4C5.9,7,5.5,6.7,5,6.9"/>
	</defs>
	<clipPath id="XMLID_99_">
		<use xlink:href="#XMLID_48_"  style="overflow:visible;"/>
	</clipPath>
	<g id="XMLID_49_" class="st6">
		<defs>
			<rect id="XMLID_50_" x="-366" y="-2712.5" width="1424" height="4477"/>
		</defs>
		<clipPath id="XMLID_100_">
			<use xlink:href="#XMLID_50_"  style="overflow:visible;"/>
		</clipPath>
		
			<rect id="XMLID_51_" x="-0.5" y="1.8" transform="matrix(-0.9397 0.342 -0.342 -0.9397 12.9849 13.0703)" class="st7" width="11.6" height="11.7"/>
	</g>
</g>
<g id="XMLID_42_">
	<defs>
		<path id="XMLID_43_" d="M21.4,1c2.9,1.3,5.3,3.9,4.3,8.5c1.1,0.3,1.4-0.2,1.7-0.5c0.2-0.2,0.7,0.1,0.6,0.3
			c-0.6,1.5-1.4,3.2-3.3,2.7c-1,1.6-2.6,2.6-4.5,3l0.1,1.6c0,0.2-0.1,0.4-0.3,0.6c-0.2,0.1-0.4,0.2-0.6,0.1l-1.3-0.5
			c-0.2-0.1-0.3-0.2-0.4-0.4l-0.5-1.4c-0.3-0.1-0.6-0.1-0.9-0.2l-0.3-0.1l0.6-0.3l-2.1-4.6l4.6-2.1L17,3L21.4,1z"/>
	</defs>
	<clipPath id="XMLID_101_">
		<use xlink:href="#XMLID_43_"  style="overflow:visible;"/>
	</clipPath>
	<g id="XMLID_44_" class="st8">
		<defs>
			<rect id="XMLID_45_" x="-366" y="-2712.5" width="1424" height="4477"/>
		</defs>
		<clipPath id="XMLID_102_">
			<use xlink:href="#XMLID_45_"  style="overflow:visible;"/>
		</clipPath>
		
			<rect id="XMLID_46_" x="10.1" y="-3.5" transform="matrix(-0.9397 -0.342 0.342 -0.9397 38.2026 25.553)" class="st9" width="22.5" height="25.9"/>
	</g>
</g>
<g id="XMLID_37_">
	<defs>
		<path id="XMLID_38_" d="M18.3,5.7l5.9-2.8c-0.8-0.9-1.8-1.5-2.8-2L17,3L18.3,5.7z"/>
	</defs>
	<clipPath id="XMLID_103_">
		<use xlink:href="#XMLID_38_"  style="overflow:visible;"/>
	</clipPath>
	<g id="XMLID_39_" class="st10">
		<defs>
			<rect id="XMLID_40_" x="-366" y="-2712.5" width="1424" height="4477"/>
		</defs>
		<clipPath id="XMLID_104_">
			<use xlink:href="#XMLID_40_"  style="overflow:visible;"/>
		</clipPath>
		
			<rect id="XMLID_41_" x="12" y="-4.2" transform="matrix(-0.9397 -0.342 0.342 -0.9397 38.3889 13.8644)" class="st11" width="16.7" height="15.5"/>
	</g>
</g>
<g id="XMLID_32_">
	<defs>
		<path id="XMLID_33_" d="M23.7,4.5c0-0.1,0-0.2-0.1-0.2c-0.3-0.2-0.5-0.5-0.8-0.7l-1,0.5c0.3,0.2,0.6,0.5,0.9,0.7
			C23,5,23.4,5,23.6,4.7C23.7,4.7,23.7,4.6,23.7,4.5z"/>
	</defs>
	<clipPath id="XMLID_105_">
		<use xlink:href="#XMLID_33_"  style="overflow:visible;"/>
	</clipPath>
	<g id="XMLID_34_" class="st12">
		<defs>
			<rect id="XMLID_35_" x="-366" y="-2712.5" width="1424" height="4477"/>
		</defs>
		<clipPath id="XMLID_106_">
			<use xlink:href="#XMLID_35_"  style="overflow:visible;"/>
		</clipPath>
		
			<rect id="XMLID_36_" x="16.8" y="-1.4" transform="matrix(-0.9397 -0.342 0.342 -0.9397 42.7597 15.9812)" class="st13" width="12" height="11.2"/>
	</g>
</g>
<g id="XMLID_27_">
	<defs>
		<path id="XMLID_28_" d="M18.1,2.5c1.3,0.2,2.5,0.7,3.7,1.6l1-0.5c-1-0.8-2.1-1.4-3.3-1.8L18.1,2.5z"/>
	</defs>
	<clipPath id="XMLID_107_">
		<use xlink:href="#XMLID_28_"  style="overflow:visible;"/>
	</clipPath>
	<g id="XMLID_29_" class="st14">
		<defs>
			<rect id="XMLID_30_" x="-366" y="-2712.5" width="1424" height="4477"/>
		</defs>
		<clipPath id="XMLID_108_">
			<use xlink:href="#XMLID_30_"  style="overflow:visible;"/>
		</clipPath>
		
			<rect id="XMLID_31_" x="13.1" y="-2.8" transform="matrix(-0.9397 -0.342 0.342 -0.9397 38.8069 12.6143)" class="st15" width="14.8" height="11.3"/>
	</g>
</g>
<g id="XMLID_22_">
	<defs>
		<polygon id="XMLID_23_" points="8.9,18.5 7.4,19.7 9,20.3 		"/>
	</defs>
	<clipPath id="XMLID_109_">
		<use xlink:href="#XMLID_23_"  style="overflow:visible;"/>
	</clipPath>
	<g id="XMLID_24_" class="st16">
		<defs>
			<rect id="XMLID_25_" x="-366" y="-2712.5" width="1424" height="4477"/>
		</defs>
		<clipPath id="XMLID_110_">
			<use xlink:href="#XMLID_25_"  style="overflow:visible;"/>
		</clipPath>
		<rect id="XMLID_26_" x="2.4" y="13.5" class="st17" width="11.5" height="11.8"/>
	</g>
</g>
<g id="XMLID_17_">
	<defs>
		<polygon id="XMLID_18_" points="14.1,18 15.2,19.5 15.9,18 		"/>
	</defs>
	<clipPath id="XMLID_111_">
		<use xlink:href="#XMLID_18_"  style="overflow:visible;"/>
	</clipPath>
	<g id="XMLID_19_" class="st18">
		<defs>
			<rect id="XMLID_20_" x="-366" y="-2712.5" width="1424" height="4477"/>
		</defs>
		<clipPath id="XMLID_112_">
			<use xlink:href="#XMLID_20_"  style="overflow:visible;"/>
		</clipPath>
		
			<rect id="XMLID_21_" x="9.2" y="12.8" transform="matrix(-6.975875e-002 0.9976 -0.9976 -6.975875e-002 34.6708 5.0469)" class="st19" width="11.5" height="11.8"/>
	</g>
</g>
<g id="XMLID_12_">
	<defs>
		<polygon id="XMLID_13_" points="13.1,22.3 14.9,22.7 14.5,21.1 		"/>
	</defs>
	<clipPath id="XMLID_113_">
		<use xlink:href="#XMLID_13_"  style="overflow:visible;"/>
	</clipPath>
	<g id="XMLID_14_" class="st20">
		<defs>
			<rect id="XMLID_15_" x="-366" y="-2712.5" width="1424" height="4477"/>
		</defs>
		<clipPath id="XMLID_114_">
			<use xlink:href="#XMLID_15_"  style="overflow:visible;"/>
		</clipPath>
		
			<rect id="XMLID_16_" x="8.4" y="16.4" transform="matrix(0.5736 0.8191 -0.8191 0.5736 24.3049 -2.1133)" class="st21" width="11.5" height="11.8"/>
	</g>
</g>
<g id="XMLID_7_">
	<defs>
		<polygon id="XMLID_8_" points="13.1,19.3 11.3,18.8 11.7,20.4 		"/>
	</defs>
	<clipPath id="XMLID_115_">
		<use xlink:href="#XMLID_8_"  style="overflow:visible;"/>
	</clipPath>
	<g id="XMLID_9_" class="st22">
		<defs>
			<rect id="XMLID_10_" x="-366" y="-2712.5" width="1424" height="4477"/>
		</defs>
		<clipPath id="XMLID_116_">
			<use xlink:href="#XMLID_10_"  style="overflow:visible;"/>
		</clipPath>
		
			<rect id="XMLID_11_" x="6.2" y="13.4" transform="matrix(-0.5592 -0.8291 0.8291 -0.5592 2.691 40.0079)" class="st23" width="11.5" height="11.8"/>
	</g>
</g>
<g id="XMLID_2_">
	<defs>
		<polygon id="XMLID_3_" points="19.2,20.6 17.6,19.7 17.6,21.3 		"/>
	</defs>
	<clipPath id="XMLID_117_">
		<use xlink:href="#XMLID_3_"  style="overflow:visible;"/>
	</clipPath>
	<g id="XMLID_4_" class="st24">
		<defs>
			<rect id="XMLID_5_" x="-366" y="-2712.5" width="1424" height="4477"/>
		</defs>
		<clipPath id="XMLID_118_">
			<use xlink:href="#XMLID_5_"  style="overflow:visible;"/>
		</clipPath>
		
			<rect id="XMLID_6_" x="12.4" y="14.4" transform="matrix(-0.342 -0.9397 0.9397 -0.342 5.276 44.2724)" class="st25" width="11.5" height="11.8"/>
	</g>
</g>
</svg>
