<?xml version="1.0" encoding="utf-8"?>
<!-- Generator: Adobe Illustrator 19.0.0, SVG Export Plug-In . SVG Version: 6.00 Build 0)  -->
<svg version="1.1" id="Layer_1" xmlns="http://www.w3.org/2000/svg" xmlns:xlink="http://www.w3.org/1999/xlink" x="0px" y="0px"
	 width="43px" height="43px" viewBox="0 0 43 43" style="enable-background:new 0 0 43 43;" xml:space="preserve">
<style type="text/css">
	.st0{clip-path:url(#SVGID_2_);}
	.st1{clip-path:url(#SVGID_4_);fill:#363268;}
	.st2{clip-path:url(#SVGID_6_);}
	.st3{clip-path:url(#SVGID_8_);fill:#5A559B;}
	.st4{clip-path:url(#SVGID_10_);}
	.st5{clip-path:url(#SVGID_12_);fill:#79D0E8;}
	.st6{clip-path:url(#SVGID_14_);}
	.st7{clip-path:url(#SVGID_16_);fill:#A2DCED;}
</style>
<g>
	<defs>
		<path id="SVGID_1_" d="M37.9,4.8c-3-3-7.2-4.8-11.7-4.8C16.9,0,9.4,7.5,9.4,16.8c0,3.4,1,6.6,2.8,9.3L1.5,35.3
			c-2,1.7-2,4.6-0.2,6.4c1.8,1.8,4.7,1.7,6.4-0.2l9.2-10.7c2.7,1.8,5.9,2.8,9.3,2.8c9.3,0,16.8-7.5,16.8-16.8
			C43,12.1,41.1,7.8,37.9,4.8 M4.4,40.3c-0.9,0-1.7-0.8-1.7-1.7c0-0.9,0.8-1.7,1.7-1.7c0.4,0,0.7,0.1,1,0.4C5.8,37.6,6,38.1,6,38.6
			C6,39.6,5.3,40.3,4.4,40.3"/>
	</defs>
	<clipPath id="SVGID_2_">
		<use xlink:href="#SVGID_1_"  style="overflow:visible;"/>
	</clipPath>
	<g class="st0">
		<defs>
			<rect id="SVGID_3_" x="-10" y="-7" width="64" height="63"/>
		</defs>
		<clipPath id="SVGID_4_">
			<use xlink:href="#SVGID_3_"  style="overflow:visible;"/>
		</clipPath>
		<rect x="-5" y="-5" class="st1" width="53" height="53"/>
	</g>
</g>
<g>
	<defs>
		<path id="SVGID_5_" d="M37.9,4.8c-3-3-7.2-4.8-11.7-4.8C16.9,0,9.4,7.5,9.4,16.8c0,3.4,1,6.6,2.8,9.3L1.5,35.3
			c-1.9,1.6-2.1,4.5-0.2,6.4l1.9-1.9c-0.4-0.4-0.5-0.8-0.5-1.2c0-0.9,0.8-1.7,1.7-1.7c0.4,0,0.7,0.1,1,0.4c0.1,0.1,0.1,0.1,0.2,0.2
			L38.1,5C38,4.9,38,4.8,37.9,4.8"/>
	</defs>
	<clipPath id="SVGID_6_">
		<use xlink:href="#SVGID_5_"  style="overflow:visible;"/>
	</clipPath>
	<g class="st2">
		<defs>
			<rect id="SVGID_7_" x="-10" y="-7" width="64" height="63"/>
		</defs>
		<clipPath id="SVGID_8_">
			<use xlink:href="#SVGID_7_"  style="overflow:visible;"/>
		</clipPath>
		<rect x="-5" y="-5" class="st3" width="48.1" height="51.7"/>
	</g>
</g>
<g>
	<defs>
		<path id="SVGID_9_" d="M38.8,16.8c0,7-5.6,12.6-12.6,12.6c-7,0-12.6-5.6-12.6-12.6c0-7,5.6-12.6,12.6-12.6
			C33.2,4.2,38.8,9.8,38.8,16.8"/>
	</defs>
	<clipPath id="SVGID_10_">
		<use xlink:href="#SVGID_9_"  style="overflow:visible;"/>
	</clipPath>
	<g class="st4">
		<defs>
			<rect id="SVGID_11_" x="-10" y="-7" width="64" height="63"/>
		</defs>
		<clipPath id="SVGID_12_">
			<use xlink:href="#SVGID_11_"  style="overflow:visible;"/>
		</clipPath>
		<rect x="8.6" y="-0.8" class="st5" width="35.2" height="35.2"/>
	</g>
</g>
<g>
	<defs>
		<path id="SVGID_13_" d="M26.2,4.2c-7,0-12.6,5.6-12.6,12.6c0,3.5,1.4,6.7,3.7,8.9L35.1,7.9C32.9,5.6,29.7,4.2,26.2,4.2"/>
	</defs>
	<clipPath id="SVGID_14_">
		<use xlink:href="#SVGID_13_"  style="overflow:visible;"/>
	</clipPath>
	<g class="st6">
		<defs>
			<rect id="SVGID_15_" x="-10" y="-7" width="64" height="63"/>
		</defs>
		<clipPath id="SVGID_16_">
			<use xlink:href="#SVGID_15_"  style="overflow:visible;"/>
		</clipPath>
		<rect x="8.6" y="-0.8" class="st7" width="31.5" height="31.5"/>
	</g>
</g>
</svg>
