<?xml version="1.0" encoding="utf-8"?>
<!-- Generator: Adobe Illustrator 19.0.0, SVG Export Plug-In . SVG Version: 6.00 Build 0)  -->
<svg version="1.1" id="Layer_1" xmlns="http://www.w3.org/2000/svg" xmlns:xlink="http://www.w3.org/1999/xlink" x="0px" y="0px"
	 width="43px" height="43px" viewBox="0 0 43 43" style="enable-background:new 0 0 43 43;" xml:space="preserve">
<style type="text/css">
	.st0{clip-path:url(#SVGID_2_);}
	.st1{clip-path:url(#XMLID_41_);fill:#363268;}
	.st2{clip-path:url(#XMLID_42_);}
	.st3{clip-path:url(#XMLID_43_);fill:#5A559B;}
	.st4{clip-path:url(#XMLID_44_);}
	.st5{clip-path:url(#XMLID_45_);fill:#79D0E8;}
	.st6{clip-path:url(#XMLID_46_);}
	.st7{clip-path:url(#XMLID_47_);fill:#A2DCED;}
</style>
<g>
	<defs>
		<path id="SVGID_1_" d="M5.1,4.8c3-3,7.2-4.8,11.7-4.8c9.3,0,16.8,7.5,16.8,16.8c0,3.4-1,6.6-2.8,9.3l10.7,9.2c2,1.7,2,4.6,0.2,6.4
			c-1.8,1.8-4.7,1.7-6.4-0.2l-9.2-10.7c-2.7,1.8-5.9,2.8-9.3,2.8C7.5,33.6,0,26.1,0,16.8C0,12.1,1.9,7.8,5.1,4.8 M38.6,40.3
			c0.9,0,1.7-0.8,1.7-1.7c0-0.9-0.8-1.7-1.7-1.7c-0.4,0-0.7,0.1-1,0.4c-0.4,0.3-0.7,0.8-0.7,1.3C37,39.6,37.7,40.3,38.6,40.3"/>
	</defs>
	<clipPath id="SVGID_2_">
		<use xlink:href="#SVGID_1_"  style="overflow:visible;"/>
	</clipPath>
	<g class="st0">
		<defs>
			<rect id="XMLID_38_" x="-11" y="-7" width="64" height="63"/>
		</defs>
		<clipPath id="XMLID_41_">
			<use xlink:href="#XMLID_38_"  style="overflow:visible;"/>
		</clipPath>
		<rect id="XMLID_39_" x="-5" y="-5" class="st1" width="53" height="53"/>
	</g>
</g>
<g>
	<defs>
		<path id="XMLID_33_" d="M5.1,4.8c3-3,7.2-4.8,11.7-4.8c9.3,0,16.8,7.5,16.8,16.8c0,3.4-1,6.6-2.8,9.3l10.7,9.2
			c1.9,1.6,2.1,4.5,0.2,6.4l-1.9-1.9c0.4-0.4,0.5-0.8,0.5-1.2c0-0.9-0.8-1.7-1.7-1.7c-0.4,0-0.7,0.1-1,0.4c-0.1,0.1-0.1,0.1-0.2,0.2
			L4.9,5C5,4.9,5,4.8,5.1,4.8"/>
	</defs>
	<clipPath id="XMLID_42_">
		<use xlink:href="#XMLID_33_"  style="overflow:visible;"/>
	</clipPath>
	<g class="st2">
		<defs>
			<rect id="XMLID_34_" x="-11" y="-7" width="64" height="63"/>
		</defs>
		<clipPath id="XMLID_43_">
			<use xlink:href="#XMLID_34_"  style="overflow:visible;"/>
		</clipPath>
		<rect id="XMLID_35_" x="-0.1" y="-5" class="st3" width="48.1" height="51.7"/>
	</g>
</g>
<g>
	<defs>
		<path id="XMLID_30_" d="M4.2,16.8c0,7,5.6,12.6,12.6,12.6c7,0,12.6-5.6,12.6-12.6c0-7-5.6-12.6-12.6-12.6
			C9.8,4.2,4.2,9.8,4.2,16.8"/>
	</defs>
	<clipPath id="XMLID_44_">
		<use xlink:href="#XMLID_30_"  style="overflow:visible;"/>
	</clipPath>
	<g class="st4">
		<defs>
			<rect id="XMLID_31_" x="-11" y="-7" width="64" height="63"/>
		</defs>
		<clipPath id="XMLID_45_">
			<use xlink:href="#XMLID_31_"  style="overflow:visible;"/>
		</clipPath>
		<rect id="XMLID_32_" x="-0.8" y="-0.8" class="st5" width="35.2" height="35.2"/>
	</g>
</g>
<g>
	<defs>
		<path id="XMLID_27_" d="M16.8,4.2c7,0,12.6,5.6,12.6,12.6c0,3.5-1.4,6.7-3.7,8.9L7.9,7.9C10.1,5.6,13.3,4.2,16.8,4.2"/>
	</defs>
	<clipPath id="XMLID_46_">
		<use xlink:href="#XMLID_27_"  style="overflow:visible;"/>
	</clipPath>
	<g class="st6">
		<defs>
			<rect id="XMLID_28_" x="-11" y="-7" width="64" height="63"/>
		</defs>
		<clipPath id="XMLID_47_">
			<use xlink:href="#XMLID_28_"  style="overflow:visible;"/>
		</clipPath>
		<rect id="XMLID_29_" x="2.9" y="-0.8" class="st7" width="31.5" height="31.5"/>
	</g>
</g>
</svg>
