<?xml version="1.0" encoding="utf-8"?>
<!-- Generator: Adobe Illustrator 19.0.0, SVG Export Plug-In . SVG Version: 6.00 Build 0)  -->
<svg version="1.1" id="Layer_1" xmlns="http://www.w3.org/2000/svg" xmlns:xlink="http://www.w3.org/1999/xlink" x="0px" y="0px"
	 width="24px" height="24.8px" viewBox="0 0 24 24.8" style="enable-background:new 0 0 24 24.8;" xml:space="preserve">
<style type="text/css">
	.st0{clip-path:url(#XMLID_58_);}
	.st1{clip-path:url(#XMLID_59_);fill:#FBCC1E;}
	.st2{clip-path:url(#XMLID_60_);}
	.st3{clip-path:url(#XMLID_61_);fill:#FAE158;}
	.st4{clip-path:url(#XMLID_62_);}
	.st5{clip-path:url(#XMLID_63_);fill:#FAE158;}
	.st6{clip-path:url(#XMLID_64_);}
	.st7{clip-path:url(#XMLID_65_);fill:#FAEC99;}
	.st8{clip-path:url(#XMLID_66_);}
	.st9{clip-path:url(#XMLID_67_);fill:#F2B71B;}
	.st10{clip-path:url(#XMLID_68_);}
	.st11{clip-path:url(#XMLID_69_);fill:#FBCC1E;}
</style>
<g id="XMLID_27_">
	<defs>
		<path id="XMLID_28_" d="M22.2,16.7L19,12.4l3.2-4.3c1,0.2,1.8-0.6,1.8-1.5C24,5.7,23.3,5,22.5,5c-0.7,0-1.3,0.5-1.5,1.2h-5.9
			l-1.9-3.7c0.2-0.3,0.3-0.6,0.3-0.9C13.5,0.7,12.9,0,12,0s-1.5,0.7-1.5,1.6c0,0.3,0.1,0.7,0.3,0.9L8.9,6.2H3C2.9,5.5,2.3,5,1.5,5
			C0.7,5,0,5.7,0,6.6c0,0.9,0.8,1.7,1.8,1.5L5,12.4l-3.2,4.3c-1-0.2-1.8,0.6-1.8,1.5c0,0.9,0.7,1.6,1.5,1.6c0.7,0,1.3-0.5,1.5-1.2
			h5.9l1.9,3.7c-0.2,0.3-0.3,0.6-0.3,0.9c0,0.9,0.7,1.6,1.5,1.6s1.5-0.7,1.5-1.6c0-0.3-0.1-0.7-0.3-0.9l1.9-3.7H21
			c0.2,0.7,0.8,1.2,1.5,1.2c0.9,0,1.5-0.7,1.5-1.6C24,17.3,23.2,16.5,22.2,16.7"/>
	</defs>
	<clipPath id="XMLID_58_">
		<use xlink:href="#XMLID_28_"  style="overflow:visible;"/>
	</clipPath>
	<g id="XMLID_29_" class="st0">
		<defs>
			<rect id="XMLID_30_" x="-367" y="-2648.6" width="1424" height="4477"/>
		</defs>
		<clipPath id="XMLID_59_">
			<use xlink:href="#XMLID_30_"  style="overflow:visible;"/>
		</clipPath>
		<rect id="XMLID_31_" x="-5" y="-5" class="st1" width="34" height="34.8"/>
	</g>
</g>
<g id="XMLID_22_">
	<defs>
		<path id="XMLID_23_" d="M15.1,6.2l-1.9-3.7c0.2-0.3,0.3-0.6,0.3-0.9C13.5,0.7,12.9,0,12,0s-1.5,0.7-1.5,1.6c0,0.3,0.1,0.7,0.3,0.9
			L8.9,6.2H3C2.9,5.5,2.3,5,1.5,5C0.7,5,0,5.7,0,6.6c0,0.9,0.8,1.7,1.8,1.5L5,12.4l-3.2,4.3c-1-0.2-1.8,0.6-1.8,1.5
			c0,0.9,0.7,1.6,1.5,1.6c0.7,0,1.3-0.5,1.5-1.2h2.8L18.2,6.2H15.1z"/>
	</defs>
	<clipPath id="XMLID_60_">
		<use xlink:href="#XMLID_23_"  style="overflow:visible;"/>
	</clipPath>
	<g id="XMLID_24_" class="st2">
		<defs>
			<rect id="XMLID_25_" x="-367" y="-2648.6" width="1424" height="4477"/>
		</defs>
		<clipPath id="XMLID_61_">
			<use xlink:href="#XMLID_25_"  style="overflow:visible;"/>
		</clipPath>
		<rect id="XMLID_26_" x="-5" y="-5" class="st3" width="28.2" height="29.8"/>
	</g>
</g>
<g id="XMLID_17_">
	<defs>
		<path id="XMLID_18_" d="M17.4,12.4c0,3-2.4,5.4-5.4,5.4s-5.4-2.4-5.4-5.4S9,7,12,7S17.4,9.4,17.4,12.4"/>
	</defs>
	<clipPath id="XMLID_62_">
		<use xlink:href="#XMLID_18_"  style="overflow:visible;"/>
	</clipPath>
	<g id="XMLID_19_" class="st4">
		<defs>
			<rect id="XMLID_20_" x="-367" y="-2648.6" width="1424" height="4477"/>
		</defs>
		<clipPath id="XMLID_63_">
			<use xlink:href="#XMLID_20_"  style="overflow:visible;"/>
		</clipPath>
		<rect id="XMLID_21_" x="1.6" y="2" class="st5" width="20.8" height="20.8"/>
	</g>
</g>
<g id="XMLID_12_">
	<defs>
		<path id="XMLID_13_" d="M12,7c-3,0-5.4,2.4-5.4,5.4c0,1.5,0.6,2.8,1.6,3.8l7.7-7.7C14.8,7.6,13.5,7,12,7"/>
	</defs>
	<clipPath id="XMLID_64_">
		<use xlink:href="#XMLID_13_"  style="overflow:visible;"/>
	</clipPath>
	<g id="XMLID_14_" class="st6">
		<defs>
			<rect id="XMLID_15_" x="-367" y="-2648.6" width="1424" height="4477"/>
		</defs>
		<clipPath id="XMLID_65_">
			<use xlink:href="#XMLID_15_"  style="overflow:visible;"/>
		</clipPath>
		<rect id="XMLID_16_" x="1.6" y="2" class="st7" width="19.2" height="19.3"/>
	</g>
</g>
<g id="XMLID_7_">
	<defs>
		<path id="XMLID_8_" d="M16.3,12.4c0,2.4-1.9,4.3-4.3,4.3s-4.3-1.9-4.3-4.3S9.6,8.1,12,8.1S16.3,10,16.3,12.4"/>
	</defs>
	<clipPath id="XMLID_66_">
		<use xlink:href="#XMLID_8_"  style="overflow:visible;"/>
	</clipPath>
	<g id="XMLID_9_" class="st8">
		<defs>
			<rect id="XMLID_10_" x="-367" y="-2648.6" width="1424" height="4477"/>
		</defs>
		<clipPath id="XMLID_67_">
			<use xlink:href="#XMLID_10_"  style="overflow:visible;"/>
		</clipPath>
		<rect id="XMLID_11_" x="2.7" y="3.1" class="st9" width="18.5" height="18.5"/>
	</g>
</g>
<g id="XMLID_2_">
	<defs>
		<path id="XMLID_3_" d="M12,8.1c-2.4,0-4.3,1.9-4.3,4.3c0,1.2,0.5,2.2,1.2,3l6-6C14.2,8.6,13.2,8.1,12,8.1"/>
	</defs>
	<clipPath id="XMLID_68_">
		<use xlink:href="#XMLID_3_"  style="overflow:visible;"/>
	</clipPath>
	<g id="XMLID_4_" class="st10">
		<defs>
			<rect id="XMLID_5_" x="-367" y="-2648.6" width="1424" height="4477"/>
		</defs>
		<clipPath id="XMLID_69_">
			<use xlink:href="#XMLID_5_"  style="overflow:visible;"/>
		</clipPath>
		<rect id="XMLID_6_" x="2.7" y="3.1" class="st11" width="17.3" height="17.3"/>
	</g>
</g>
</svg>
