<?xml version="1.0" encoding="utf-8"?>
<!-- Generator: Adobe Illustrator 19.0.0, SVG Export Plug-In . SVG Version: 6.00 Build 0)  -->
<svg version="1.1" id="Layer_1" xmlns="http://www.w3.org/2000/svg" xmlns:xlink="http://www.w3.org/1999/xlink" x="0px" y="0px"
	 width="64px" height="63px" viewBox="0 0 64 63" style="enable-background:new 0 0 64 63;" xml:space="preserve">
<style type="text/css">
	.st0{enable-background:new    ;}
	.st1{clip-path:url(#SVGID_2_);}
	.st2{clip-path:url(#SVGID_4_);fill:#F2F2F2;}
	.st3{clip-path:url(#SVGID_6_);}
	.st4{opacity:0.2971;clip-path:url(#SVGID_8_);fill:#757C92;}
	.st5{clip-path:url(#SVGID_10_);}
	.st6{opacity:0.2971;clip-path:url(#SVGID_12_);fill:#757C92;}
	.st7{clip-path:url(#SVGID_14_);}
	.st8{clip-path:url(#SVGID_16_);enable-background:new    ;}
	.st9{clip-path:url(#SVGID_18_);}
	.st10{clip-path:url(#SVGID_20_);}
	.st11{opacity:0.2;clip-path:url(#SVGID_22_);fill:#757C92;}
	.st12{clip-path:url(#SVGID_24_);}
	.st13{opacity:0.2;clip-path:url(#SVGID_26_);fill:#757C92;}
</style>
<g class="st0">
	<g>
		<defs>
			<rect id="SVGID_1_" width="64" height="63"/>
		</defs>
		<clipPath id="SVGID_2_">
			<use xlink:href="#SVGID_1_"  style="overflow:visible;"/>
		</clipPath>
		<g class="st1">
			<defs>
				<rect id="SVGID_3_" width="64" height="63"/>
			</defs>
			<clipPath id="SVGID_4_">
				<use xlink:href="#SVGID_3_"  style="overflow:visible;"/>
			</clipPath>
			<rect x="-5" y="-5" class="st2" width="73.3" height="73"/>
		</g>
		<g class="st1">
			<defs>
				<path id="SVGID_5_" d="M46.4,31.8c0.6-0.5,1.2-1.6,1.7-3.1c0.6-3.1,0.1-5.4-1.6-6.8c0-9-7.5-13.4-14.8-13.4
					c-7.3,0-14.8,4.4-14.8,13.4c-1.7,1.4-2.2,3.7-1.6,6.8c0.5,1.6,1.1,2.6,1.7,3.1c0.3,3.8,2.6,16.3,14.7,16.3
					C43.8,48.1,46,35.6,46.4,31.8z"/>
			</defs>
			<clipPath id="SVGID_6_">
				<use xlink:href="#SVGID_5_"  style="overflow:visible;"/>
			</clipPath>
			<g class="st3">
				<defs>
					<rect id="SVGID_7_" width="64" height="63"/>
				</defs>
				<clipPath id="SVGID_8_">
					<use xlink:href="#SVGID_7_"  style="overflow:visible;"/>
				</clipPath>
				<rect x="10" y="3.4" class="st4" width="43.3" height="49.6"/>
			</g>
		</g>
		<g class="st1">
			<defs>
				<path id="SVGID_9_" d="M64.2,58.7c-1-1.9-3-3.6-6-5.1c-2.5-1.2-11.2-5.5-13.9-6.8c-3,2.7-7.1,4.5-12.3,4.5h0h0
					c-5.2,0-9.3-1.7-12.3-4.5c-2.1,1.1-7.9,4.1-9.5,4.7C8.1,52.3,6,53.4,4,54.7c-2.1,1.3-3.5,2.6-4.2,4c-2,4-3,8.2-3,12.6
					c0,1,0.5,1.5,1.5,1.5h67.5c1,0,1.5-0.5,1.5-1.5C67.3,66.9,66.3,62.7,64.2,58.7"/>
			</defs>
			<clipPath id="SVGID_10_">
				<use xlink:href="#SVGID_9_"  style="overflow:visible;"/>
			</clipPath>
			<g class="st5">
				<defs>
					<rect id="SVGID_11_" width="64" height="63"/>
				</defs>
				<clipPath id="SVGID_12_">
					<use xlink:href="#SVGID_11_"  style="overflow:visible;"/>
				</clipPath>
				<rect x="-8.3" y="41.8" class="st6" width="80.5" height="36"/>
			</g>
		</g>
		<g class="st1">
			<defs>
				<rect id="SVGID_13_" x="31.3" y="-5.2" width="41.1" height="79.9"/>
			</defs>
			<clipPath id="SVGID_14_">
				<use xlink:href="#SVGID_13_"  style="overflow:visible;"/>
			</clipPath>
			<g class="st7">
				<defs>
					<rect id="SVGID_15_" width="64" height="63"/>
				</defs>
				<clipPath id="SVGID_16_">
					<use xlink:href="#SVGID_15_"  style="overflow:visible;"/>
				</clipPath>
				<g class="st8">
					<g>
						<defs>
							<rect id="SVGID_17_" x="31" y="8" width="33" height="55"/>
						</defs>
						<clipPath id="SVGID_18_">
							<use xlink:href="#SVGID_17_"  style="overflow:visible;"/>
						</clipPath>
						<g class="st9">
							<defs>
								<path id="SVGID_19_" d="M46.4,31.8c0.6-0.5,1.2-1.6,1.7-3.1c0.6-3.1,0.1-5.4-1.6-6.8c0-9-7.5-13.4-14.8-13.4
									c-7.3,0-14.8,4.4-14.8,13.4c-1.7,1.4-2.2,3.7-1.6,6.8c0.5,1.6,1.1,2.6,1.7,3.1c0.3,3.8,2.6,16.3,14.7,16.3
									C43.8,48.1,46,35.6,46.4,31.8z"/>
							</defs>
							<clipPath id="SVGID_20_">
								<use xlink:href="#SVGID_19_"  style="overflow:visible;"/>
							</clipPath>
							<g class="st10">
								<defs>
									<rect id="SVGID_21_" x="31" y="8" width="33" height="55"/>
								</defs>
								<clipPath id="SVGID_22_">
									<use xlink:href="#SVGID_21_"  style="overflow:visible;"/>
								</clipPath>
								<rect x="10" y="3.4" class="st11" width="43.3" height="49.6"/>
							</g>
						</g>
						<g class="st9">
							<defs>
								<path id="SVGID_23_" d="M64.2,58.7c-1-1.9-3-3.6-6-5.1c-2.5-1.2-11.2-5.5-13.9-6.8c-3,2.7-7.1,4.5-12.3,4.5h0h0
									c-5.2,0-9.3-1.7-12.3-4.5c-2.1,1.1-7.9,4.1-9.5,4.7C8.1,52.3,6,53.4,4,54.7c-2.1,1.3-3.5,2.6-4.2,4c-2,4-3,8.2-3,12.6
									c0,1,0.5,1.5,1.5,1.5h67.5c1,0,1.5-0.5,1.5-1.5C67.3,66.9,66.3,62.7,64.2,58.7"/>
							</defs>
							<clipPath id="SVGID_24_">
								<use xlink:href="#SVGID_23_"  style="overflow:visible;"/>
							</clipPath>
							<g class="st12">
								<defs>
									<rect id="SVGID_25_" x="31" y="8" width="33" height="55"/>
								</defs>
								<clipPath id="SVGID_26_">
									<use xlink:href="#SVGID_25_"  style="overflow:visible;"/>
								</clipPath>
								<rect x="-8.3" y="41.8" class="st13" width="80.5" height="36"/>
							</g>
						</g>
					</g>
				</g>
			</g>
		</g>
	</g>
</g>
</svg>
