<?xml version="1.0" encoding="utf-8"?>
<!-- Generator: Adobe Illustrator 19.0.0, SVG Export Plug-In . SVG Version: 6.00 Build 0)  -->
<svg version="1.1" id="Layer_1" xmlns="http://www.w3.org/2000/svg" xmlns:xlink="http://www.w3.org/1999/xlink" x="0px" y="0px"
	 width="63.3px" height="63px" viewBox="0 0 63.3 63" style="enable-background:new 0 0 63.3 63;" xml:space="preserve">
<style type="text/css">
	.st0{clip-path:url(#XMLID_72_);}
	.st1{clip-path:url(#XMLID_73_);enable-background:new    ;}
	.st2{clip-path:url(#XMLID_74_);}
	.st3{clip-path:url(#XMLID_75_);fill:#F2F2F2;}
	.st4{clip-path:url(#XMLID_76_);}
	.st5{opacity:0.2971;clip-path:url(#XMLID_77_);fill:#757C92;}
	.st6{clip-path:url(#XMLID_78_);}
	.st7{opacity:0.2971;clip-path:url(#XMLID_79_);fill:#757C92;}
	.st8{clip-path:url(#XMLID_80_);}
	.st9{clip-path:url(#XMLID_81_);enable-background:new    ;}
	.st10{clip-path:url(#XMLID_82_);}
	.st11{clip-path:url(#XMLID_83_);}
	.st12{opacity:0.2;clip-path:url(#XMLID_84_);fill:#757C92;}
	.st13{clip-path:url(#XMLID_85_);}
	.st14{opacity:0.2;clip-path:url(#XMLID_86_);fill:#757C92;}
	.st15{clip-path:url(#XMLID_87_);}
	.st16{clip-path:url(#XMLID_88_);fill:#F2B71B;}
</style>
<g id="XMLID_9_">
	<defs>
		<ellipse id="XMLID_10_" cx="31.7" cy="31.5" rx="31.7" ry="31.5"/>
	</defs>
	<clipPath id="XMLID_72_">
		<use xlink:href="#XMLID_10_"  style="overflow:visible;"/>
	</clipPath>
	<g id="XMLID_11_" class="st0">
		<defs>
			<rect id="XMLID_12_" x="-355" y="-2544" width="1424" height="4477"/>
		</defs>
		<clipPath id="XMLID_73_">
			<use xlink:href="#XMLID_12_"  style="overflow:visible;"/>
		</clipPath>
		<g id="XMLID_13_" class="st1">
			<g id="XMLID_14_">
				<defs>
					<rect id="XMLID_15_" x="0" y="0" width="64" height="63"/>
				</defs>
				<clipPath id="XMLID_74_">
					<use xlink:href="#XMLID_15_"  style="overflow:visible;"/>
				</clipPath>
				<g id="XMLID_43_" class="st2">
					<defs>
						<rect id="XMLID_44_" x="0" y="0" width="64" height="63"/>
					</defs>
					<clipPath id="XMLID_75_">
						<use xlink:href="#XMLID_44_"  style="overflow:visible;"/>
					</clipPath>
					<rect id="XMLID_45_" x="-5" y="-5" class="st3" width="73.3" height="73"/>
				</g>
				<g id="XMLID_38_" class="st2">
					<defs>
						<path id="XMLID_39_" d="M46.4,31.8c0.6-0.5,1.2-1.6,1.7-3.1c0.6-3.1,0.1-5.4-1.6-6.8c0-9-7.5-13.4-14.8-13.4
							c-7.3,0-14.8,4.4-14.8,13.4c-1.7,1.4-2.2,3.7-1.6,6.8c0.5,1.6,1.1,2.6,1.7,3.1c0.3,3.8,2.6,16.3,14.7,16.3
							C43.8,48.1,46,35.6,46.4,31.8z"/>
					</defs>
					<clipPath id="XMLID_76_">
						<use xlink:href="#XMLID_39_"  style="overflow:visible;"/>
					</clipPath>
					<g id="XMLID_40_" class="st4">
						<defs>
							<rect id="XMLID_41_" x="0" y="0" width="64" height="63"/>
						</defs>
						<clipPath id="XMLID_77_">
							<use xlink:href="#XMLID_41_"  style="overflow:visible;"/>
						</clipPath>
						<rect id="XMLID_42_" x="10" y="3.4" class="st5" width="43.3" height="49.6"/>
					</g>
				</g>
				<g id="XMLID_33_" class="st2">
					<defs>
						<path id="XMLID_34_" d="M64.2,58.7c-1-1.9-3-3.6-6-5.1c-2.5-1.2-11.2-5.5-13.9-6.8c-3,2.7-7.1,4.5-12.3,4.5h0h0
							c-5.2,0-9.3-1.7-12.3-4.5c-2.1,1.1-7.9,4.1-9.5,4.7C8.1,52.3,6,53.4,4,54.7c-2.1,1.3-3.5,2.6-4.2,4c-2,4-3,8.2-3,12.6
							c0,1,0.5,1.5,1.5,1.5h67.5c1,0,1.5-0.5,1.5-1.5C67.3,66.9,66.3,62.7,64.2,58.7"/>
					</defs>
					<clipPath id="XMLID_78_">
						<use xlink:href="#XMLID_34_"  style="overflow:visible;"/>
					</clipPath>
					<g id="XMLID_35_" class="st6">
						<defs>
							<rect id="XMLID_36_" x="0" y="0" width="64" height="63"/>
						</defs>
						<clipPath id="XMLID_79_">
							<use xlink:href="#XMLID_36_"  style="overflow:visible;"/>
						</clipPath>
						<rect id="XMLID_37_" x="-8.3" y="41.8" class="st7" width="80.5" height="36"/>
					</g>
				</g>
				<g id="XMLID_16_" class="st2">
					<defs>
						<rect id="XMLID_17_" x="31.3" y="-5.2" width="41.1" height="79.9"/>
					</defs>
					<clipPath id="XMLID_80_">
						<use xlink:href="#XMLID_17_"  style="overflow:visible;"/>
					</clipPath>
					<g id="XMLID_18_" class="st8">
						<defs>
							<rect id="XMLID_19_" x="0" y="0" width="64" height="63"/>
						</defs>
						<clipPath id="XMLID_81_">
							<use xlink:href="#XMLID_19_"  style="overflow:visible;"/>
						</clipPath>
						<g id="XMLID_20_" class="st9">
							<g id="XMLID_21_">
								<defs>
									<rect id="XMLID_22_" x="31" y="8" width="33" height="55"/>
								</defs>
								<clipPath id="XMLID_82_">
									<use xlink:href="#XMLID_22_"  style="overflow:visible;"/>
								</clipPath>
								<g id="XMLID_28_" class="st10">
									<defs>
										<path id="XMLID_29_" d="M46.4,31.8c0.6-0.5,1.2-1.6,1.7-3.1c0.6-3.1,0.1-5.4-1.6-6.8c0-9-7.5-13.4-14.8-13.4
											c-7.3,0-14.8,4.4-14.8,13.4c-1.7,1.4-2.2,3.7-1.6,6.8c0.5,1.6,1.1,2.6,1.7,3.1c0.3,3.8,2.6,16.3,14.7,16.3
											C43.8,48.1,46,35.6,46.4,31.8z"/>
									</defs>
									<clipPath id="XMLID_83_">
										<use xlink:href="#XMLID_29_"  style="overflow:visible;"/>
									</clipPath>
									<g id="XMLID_30_" class="st11">
										<defs>
											<rect id="XMLID_31_" x="31" y="8" width="33" height="55"/>
										</defs>
										<clipPath id="XMLID_84_">
											<use xlink:href="#XMLID_31_"  style="overflow:visible;"/>
										</clipPath>
										<rect id="XMLID_32_" x="10" y="3.4" class="st12" width="43.3" height="49.6"/>
									</g>
								</g>
								<g id="XMLID_23_" class="st10">
									<defs>
										<path id="XMLID_24_" d="M64.2,58.7c-1-1.9-3-3.6-6-5.1c-2.5-1.2-11.2-5.5-13.9-6.8c-3,2.7-7.1,4.5-12.3,4.5h0h0
											c-5.2,0-9.3-1.7-12.3-4.5c-2.1,1.1-7.9,4.1-9.5,4.7C8.1,52.3,6,53.4,4,54.7c-2.1,1.3-3.5,2.6-4.2,4c-2,4-3,8.2-3,12.6
											c0,1,0.5,1.5,1.5,1.5h67.5c1,0,1.5-0.5,1.5-1.5C67.3,66.9,66.3,62.7,64.2,58.7"/>
									</defs>
									<clipPath id="XMLID_85_">
										<use xlink:href="#XMLID_24_"  style="overflow:visible;"/>
									</clipPath>
									<g id="XMLID_25_" class="st13">
										<defs>
											<rect id="XMLID_26_" x="31" y="8" width="33" height="55"/>
										</defs>
										<clipPath id="XMLID_86_">
											<use xlink:href="#XMLID_26_"  style="overflow:visible;"/>
										</clipPath>
										<rect id="XMLID_27_" x="-8.3" y="41.8" class="st14" width="80.5" height="36"/>
									</g>
								</g>
							</g>
						</g>
					</g>
				</g>
			</g>
		</g>
	</g>
</g>
<g id="XMLID_2_">
	<defs>
		<path id="XMLID_3_" d="M61.8,51.2h-1.3v-3.8c0-2.8-2.4-5.1-5.3-5.1c-2.9,0-5.3,2.3-5.3,5.1v3.8h-1.3c-0.7,0-1.3,0.6-1.3,1.3v9
			c0,0.7,0.6,1.3,1.3,1.3h13.3c0.7,0,1.3-0.6,1.3-1.3v-9C63.2,51.8,62.6,51.2,61.8,51.2z M52.5,51.2v-3.8c0-1.4,1.2-2.6,2.7-2.6
			c1.5,0,2.7,1.1,2.7,2.6v3.8H52.5z"/>
	</defs>
	<clipPath id="XMLID_87_">
		<use xlink:href="#XMLID_3_"  style="overflow:visible;"/>
	</clipPath>
	<g id="XMLID_6_" class="st15">
		<defs>
			<rect id="XMLID_7_" x="-355" y="-2544" width="1424" height="4477"/>
		</defs>
		<clipPath id="XMLID_88_">
			<use xlink:href="#XMLID_7_"  style="overflow:visible;"/>
		</clipPath>
		<rect id="XMLID_8_" x="42.2" y="37.3" class="st16" width="26" height="30.5"/>
	</g>
</g>
</svg>
