<?xml version="1.0" encoding="utf-8"?>
<!-- Generator: Adobe Illustrator 16.0.0, SVG Export Plug-In . SVG Version: 6.00 Build 0)  -->
<!DOCTYPE svg PUBLIC "-//W3C//DTD SVG 1.1//EN" "http://www.w3.org/Graphics/SVG/1.1/DTD/svg11.dtd">
<svg version="1.1" id="Layer_1" xmlns="http://www.w3.org/2000/svg" xmlns:xlink="http://www.w3.org/1999/xlink" x="0px" y="0px"
	 width="203.148px" height="28px" viewBox="12.014 4.25 203.148 28" enable-background="new 12.014 4.25 203.148 28"
	 xml:space="preserve">
<g id="OVsvDd_1_" display="none">
</g>
<g display="none">
	<g display="inline">
		<g display="none">
			<path display="inline" fill="#121212" d="M36.976,30.574L25.962,19.14l-2.182,2.185l11.011,11.433
				c0.604,0.604,1.582,0.604,2.185,0C37.579,32.156,37.579,31.176,36.976,30.574z"/>
			<g display="inline">
				<path fill="#121212" d="M29.991,15.165c0-5.498-4.458-9.955-9.955-9.955c-5.498,0-9.955,4.457-9.955,9.955
					c0,3.648,1.969,6.831,4.896,8.563c0.587-0.76,1.097-1.619,1.448-2.498c-2.037-1.214-3.408-3.434-3.408-5.981
					c0-3.847,3.12-6.965,6.966-6.965c3.847,0,6.966,3.118,6.966,6.965c0,2.911-1.788,5.405-4.325,6.446
					c-0.644,1.135-1.438,2.285-2.355,3.41C25.658,24.98,29.991,20.586,29.991,15.165z"/>
			</g>
		</g>
		<g display="none">
			<path display="inline" fill="#6DAD47" d="M6.367,25.555c-0.395-0.398-1.29,0.158-3.017,1.894
				c-1.866,1.846-3.122,3.024-2.254,3.894c0.232,0.23,0.808,0.756,1.06,0.926l5.442-5.443C7.241,26.467,6.709,25.877,6.367,25.555z"
				/>
		</g>
		<g display="none">
			<path display="inline" fill="#6DAD47" d="M15.925,15.997c-0.399-0.395,0.158-1.288,1.893-3.017
				c1.84-1.865,3.024-3.123,3.891-2.254c0.232,0.233,0.757,0.808,0.927,1.061l-5.442,5.442
				C16.836,16.871,16.248,16.341,15.925,15.997z"/>
		</g>
		<g display="none">
			<path display="inline" fill="#6DAD47" d="M23.369,12.515l-5.506,5.506c0.702,2.176-0.85,5.165-2.676,6.986
				c-1.821,1.824-4.468,3.034-6.643,2.334L3.04,32.848c3.381,1.482,9.676-1.771,14.413-6.507
				C22.186,21.604,24.853,15.899,23.369,12.515z"/>
		</g>
	</g>
</g>
<g display="none">
	<path display="inline" fill="#02458B" d="M53.421,31.07c-1.082,0-1.75-0.063-2.005-0.191c-0.254-0.127-0.542-0.551-0.86-1.273
		l-4.298-9.422h-1.687l0.127,0.795v8.627h0.032c0,0.723-0.08,1.146-0.239,1.273c-0.159,0.128-0.695,0.191-1.608,0.191h-0.191V8.085
		l3.629-0.319c2.208,0,3.629,0.425,4.266,1.274c0.255,0.339,0.446,0.636,0.574,0.891c0.127,0.254,0.223,0.647,0.286,1.178
		c0.084,0.701,0.127,1.555,0.127,2.562c0,1.008-0.016,1.773-0.048,2.292c-0.032,0.521-0.111,1.062-0.238,1.624
		s-0.308,1.003-0.542,1.321c-0.531,0.743-1.358,1.157-2.483,1.241l5.284,10.919h-0.126V31.07z M46.322,18.368
		c1.083,0,1.921-0.202,2.515-0.605c0.36-0.275,0.574-0.976,0.637-2.101c0.021-0.339,0.032-0.901,0.032-1.687
		c0-0.786-0.01-1.348-0.032-1.688c-0.021-0.339-0.08-0.731-0.175-1.178c-0.096-0.446-0.25-0.753-0.462-0.923
		c-0.594-0.403-1.433-0.605-2.515-0.605h-1.624v7.991l-0.127,0.796H46.322z"/>
	<path display="inline" fill="#02458B" d="M63.353,30.751c-1.634,0.36-2.775,0.541-3.422,0.541s-1.146-0.015-1.496-0.047
		c-0.351-0.032-0.668-0.117-0.955-0.255c-0.286-0.137-0.536-0.254-0.748-0.35c-0.213-0.096-0.403-0.287-0.573-0.574
		c-0.17-0.287-0.308-0.52-0.414-0.7s-0.19-0.494-0.255-0.939c-0.063-0.446-0.116-0.806-0.159-1.083
		c-0.042-0.275-0.075-0.727-0.096-1.353c-0.022-0.625-0.031-1.13-0.031-1.513v-3.597c0-1.401,0.031-2.309,0.094-2.722
		c0.064-0.414,0.128-0.854,0.191-1.322c0.064-0.466,0.149-0.8,0.255-1.002s0.244-0.451,0.414-0.748
		c0.17-0.297,0.36-0.504,0.573-0.621c0.211-0.117,0.461-0.244,0.748-0.382s0.604-0.228,0.955-0.271
		c0.35-0.042,0.749-0.063,1.194-0.063c0.446,0,0.849,0.032,1.209,0.096c0.361,0.063,0.663,0.19,0.908,0.382
		c0.244,0.191,0.457,0.371,0.637,0.541c0.18,0.17,0.329,0.445,0.445,0.828c0.117,0.381,0.207,0.706,0.271,0.971
		c0.063,0.266,0.111,0.68,0.144,1.241c0.031,0.563,0.047,1.014,0.047,1.353v1.655l0.127,1.72l-6.495,0.159l0.127,0.796
		c0,2.716,0.106,4.286,0.318,4.711c0.339,0.7,0.732,1.104,1.178,1.21c0.297,0.085,0.876,0.127,1.735,0.127
		c0.859,0,1.883-0.139,3.072-0.415v1.625H63.353z M57.241,18.463c0,0.382,0,0.956,0,1.719l-0.127,0.796h4.52l-0.159-0.829
		c0-1.697-0.117-2.907-0.35-3.629c-0.234-0.721-0.759-1.083-1.576-1.083c-0.817,0-1.396,0.218-1.735,0.653
		C57.474,16.527,57.283,17.317,57.241,18.463z"/>
	<path display="inline" fill="#02458B" d="M74.272,14.611c0,1.083-1.03,6.569-3.088,16.458h-2.77l-3.247-17.094
		c0.891,0,1.433,0.063,1.624,0.19c0.191,0.128,0.35,0.553,0.478,1.274l2.324,13.083h0.414l2.611-14.547
		c0.997,0,1.528,0.096,1.591,0.286C74.251,14.325,74.272,14.441,74.272,14.611z"/>
	<path display="inline" fill="#02458B" d="M84.364,30.751c-1.635,0.36-2.775,0.541-3.422,0.541c-0.648,0-1.146-0.015-1.496-0.047
		c-0.351-0.032-0.668-0.117-0.956-0.255c-0.286-0.137-0.536-0.254-0.748-0.35c-0.212-0.096-0.403-0.287-0.573-0.574
		s-0.308-0.52-0.415-0.7c-0.106-0.181-0.19-0.494-0.254-0.939c-0.063-0.446-0.117-0.806-0.159-1.083
		c-0.042-0.275-0.075-0.727-0.096-1.353c-0.021-0.625-0.031-1.13-0.031-1.513v-3.597c0-1.401,0.031-2.309,0.095-2.722
		c0.064-0.414,0.128-0.854,0.191-1.322c0.064-0.466,0.148-0.8,0.254-1.002s0.244-0.451,0.415-0.748
		c0.169-0.297,0.36-0.504,0.573-0.621c0.211-0.117,0.462-0.244,0.748-0.382c0.287-0.138,0.605-0.228,0.956-0.271
		c0.35-0.042,0.748-0.063,1.193-0.063c0.446,0,0.849,0.032,1.21,0.096c0.361,0.063,0.664,0.19,0.907,0.382
		C83,14.42,83.213,14.6,83.393,14.77c0.179,0.17,0.329,0.445,0.445,0.828c0.117,0.381,0.208,0.706,0.271,0.971
		c0.064,0.266,0.112,0.68,0.144,1.241c0.031,0.563,0.047,1.014,0.047,1.353v1.655l0.127,1.72l-6.494,0.159l0.127,0.796
		c0,2.716,0.106,4.286,0.318,4.711c0.339,0.7,0.732,1.104,1.178,1.21c0.297,0.085,0.875,0.127,1.735,0.127s1.883-0.139,3.072-0.415
		L84.364,30.751L84.364,30.751z M78.252,18.463c0,0.382,0,0.956,0,1.719l-0.127,0.796h4.521l-0.159-0.829
		c0-1.697-0.117-2.907-0.35-3.629c-0.234-0.721-0.759-1.083-1.576-1.083s-1.396,0.218-1.735,0.653
		C78.485,16.527,78.294,17.317,78.252,18.463z"/>
	<path display="inline" fill="#02458B" d="M87.452,29.605v-15.63c0.934,0,1.48,0.037,1.64,0.111
		c0.159,0.075,0.239,0.355,0.239,0.844v0.351l2.547-1.528c0.36,0,0.891,0.074,1.591,0.223c0,0.743-0.069,1.172-0.206,1.289
		c-0.139,0.116-0.6,0.175-1.385,0.175l-2.706,1.496l0.159,0.796V31.07c-0.934,0-1.48-0.063-1.639-0.191
		C87.532,30.751,87.452,30.328,87.452,29.605z"/>
	<path display="inline" fill="#02458B" d="M101.778,30.243c-0.254,0.317-0.595,0.557-1.019,0.716
		c-0.425,0.159-0.944,0.239-1.56,0.239c-0.616,0-1.878-0.159-3.788-0.478v-1.688c0.084,0,0.621,0.052,1.608,0.158
		s1.724,0.16,2.212,0.16c1.188,0,1.782-1.104,1.782-3.312c0-0.147,0-0.297,0-0.446c-0.021-0.679-0.679-1.512-1.974-2.498
		c-1.294-0.986-2.25-1.852-2.865-2.596c-0.616-0.742-0.923-1.496-0.923-2.26c0-0.764,0.011-1.294,0.032-1.592
		c0.021-0.297,0.095-0.669,0.223-1.114c0.127-0.446,0.318-0.764,0.573-0.955c0.657-0.53,1.655-0.796,2.992-0.796l3.024,0.446
		c0,0.934-0.383,1.4-1.146,1.4c-0.148,0-0.297-0.01-0.446-0.031l-1.305-0.191c-1.04,0-1.676,0.234-1.91,0.7
		c-0.191,0.403-0.287,0.993-0.287,1.767c0,0.775,0.828,1.82,2.483,3.135c0.764,0.573,1.342,1.03,1.735,1.369
		c0.393,0.34,0.775,0.785,1.146,1.337c0.371,0.553,0.557,1.087,0.557,1.607s-0.011,0.966-0.031,1.337
		c-0.021,0.372-0.069,0.812-0.144,1.321c-0.074,0.51-0.19,0.934-0.35,1.272C102.239,29.596,102.032,29.924,101.778,30.243z"/>
	<path display="inline" fill="#02458B" d="M113.843,30.751c-1.634,0.36-2.775,0.541-3.421,0.541c-0.648,0-1.146-0.015-1.497-0.047
		c-0.351-0.032-0.668-0.117-0.956-0.255c-0.286-0.137-0.536-0.254-0.748-0.35c-0.212-0.096-0.403-0.287-0.573-0.574
		c-0.171-0.287-0.309-0.52-0.415-0.7s-0.19-0.494-0.255-0.939c-0.063-0.446-0.116-0.806-0.159-1.083
		c-0.042-0.275-0.074-0.727-0.096-1.353c-0.021-0.625-0.031-1.13-0.031-1.513v-3.597c0-1.401,0.031-2.309,0.095-2.722
		c0.063-0.414,0.127-0.854,0.19-1.322c0.064-0.466,0.149-0.8,0.255-1.002s0.244-0.451,0.415-0.748
		c0.169-0.297,0.36-0.504,0.573-0.621c0.211-0.117,0.462-0.244,0.748-0.382c0.287-0.138,0.605-0.228,0.956-0.271
		c0.35-0.042,0.748-0.063,1.193-0.063c0.446,0,0.849,0.032,1.209,0.096c0.361,0.063,0.664,0.19,0.908,0.382
		c0.244,0.191,0.457,0.371,0.637,0.541c0.18,0.17,0.329,0.445,0.445,0.828c0.117,0.381,0.207,0.706,0.271,0.971
		c0.063,0.266,0.112,0.68,0.144,1.241c0.031,0.563,0.047,1.014,0.047,1.353v1.655l0.129,1.72l-6.494,0.159l0.127,0.796
		c0,2.716,0.105,4.286,0.318,4.711c0.339,0.7,0.732,1.104,1.178,1.21c0.297,0.085,0.875,0.127,1.735,0.127
		c0.859,0,1.883-0.139,3.071-0.415v1.625H113.843z M107.731,18.463c0,0.382,0,0.956,0,1.719l-0.127,0.796h4.521l-0.159-0.829
		c0-1.697-0.117-2.907-0.35-3.629c-0.234-0.721-0.759-1.083-1.576-1.083s-1.396,0.218-1.735,0.653
		C107.964,16.527,107.773,17.317,107.731,18.463z"/>
	<path display="inline" fill="#02458B" d="M117.631,31.07h-0.699V8.119l5.156-0.35c6.207,0,6.207,2.546,6.207,6.494
		c0,3.916-0.062,6.43-6.175,6.43h-2.196v8.435C119.923,31.07,119.923,31.07,117.631,31.07z M122.119,17.86
		c3.087,0,3.087-1.019,3.087-3.597c0-2.61,0-3.661-3.087-3.661h-2.451l0.255,0.796v5.73l-0.255,0.732H122.119z"/>
	<path display="inline" fill="#02458B" d="M134.312,29.16c0,1.91,0,1.91-2.834,1.91V8.151c2.801,0,2.801,0,2.801,1.942v4.52
		l2.482-0.859c4.616,0,4.616,2.546,4.616,8.85v8.467c-2.866,0-2.866,0-2.866-1.91v-6.59c0-3.882,0-6.047-1.558-6.111l-2.931,0.859
		l0.289,0.892V29.16L134.312,29.16z"/>
	<path display="inline" fill="#02458B" d="M148.988,13.754c4.933,0,4.933,2.387,4.933,8.689c0,6.303-0.03,8.85-4.933,8.85
		c-4.872,0-4.902-2.516-4.902-8.85C144.085,16.109,144.116,13.754,148.988,13.754z M146.917,22.443c0,4.394,0,6.144,2.069,6.144
		c2.068,0,2.068-1.75,2.068-6.144c0-4.328,0-5.984-2.068-5.984C146.917,16.459,146.917,18.115,146.917,22.443z"/>
	<path display="inline" fill="#02458B" d="M159.62,31.07c-2.832,0-2.832,0-2.832-1.91V13.977c2.291,0,2.771,0,2.832,0.668
		l2.354-0.891c4.521,0,4.68,0.955,4.68,8.85v8.467c-2.864,0-2.864,0-2.864-1.91v-6.59c0-5.125,0.317-6.047-1.529-6.111l-2.928,0.859
		l0.287,0.892V31.07L159.62,31.07z"/>
	<path display="inline" fill="#02458B" d="M171.973,22.953l0.256,0.732c0,3.852,0,4.901,2.1,4.901c1.561,0,2.834-0.095,4.393-0.317
		v2.481c-1.559,0.287-2.801,0.541-4.393,0.541c-4.838,0-4.934-2.354-4.934-8.021c0-6.972-0.351-9.519,4.934-9.519
		c4.139,0,4.457,2.928,4.49,6.875l0.094,2.165L171.973,22.953z M172.132,20.215h4.17l-0.317-0.701
		c-0.033-2.164-0.223-3.056-1.656-3.056c-1.75,0-1.939,0.573-1.939,3.056L172.132,20.215z"/>
	<path display="inline" fill="#121212" d="M189.991,31.07h-7.927V8.149h0.254c0.912,0,1.447,0.063,1.607,0.191
		c0.158,0.127,0.24,0.552,0.24,1.273v18.846l-0.129,0.796h4.107c0.912,0,1.446,0.063,1.606,0.19
		c0.158,0.128,0.237,0.553,0.237,1.273v0.352H189.991z"/>
	<path display="inline" fill="#121212" d="M198.777,30.927c-0.299,0.097-0.446,0.144-0.446,0.144s-0.187,0.037-0.558,0.111
		c-0.373,0.074-0.815,0.111-1.338,0.111c-0.52,0-0.985-0.031-1.399-0.095s-0.772-0.201-1.08-0.414
		c-0.312-0.212-0.563-0.409-0.767-0.589s-0.371-0.504-0.51-0.973c-0.139-0.466-0.242-0.858-0.318-1.177
		c-0.075-0.317-0.127-0.844-0.159-1.575c-0.029-0.732-0.054-1.332-0.062-1.799c-0.013-0.467-0.017-1.209-0.017-2.229
		s0.004-1.756,0.017-2.213c0.01-0.456,0.032-1.05,0.062-1.783c0.032-0.732,0.084-1.252,0.159-1.56
		c0.076-0.307,0.181-0.689,0.318-1.146c0.139-0.456,0.307-0.769,0.51-0.939c0.201-0.169,0.461-0.35,0.779-0.542
		c0.488-0.339,1.152-0.509,1.99-0.509s1.441,0.037,1.814,0.111c0.371,0.075,0.705,0.154,1.004,0.239
		c0.295,0.085,0.551,0.26,0.764,0.525c0.211,0.266,0.391,0.488,0.541,0.668c0.148,0.181,0.266,0.5,0.35,0.955
		c0.084,0.457,0.154,0.828,0.207,1.114c0.053,0.287,0.096,0.77,0.127,1.449c0.031,0.68,0.047,1.231,0.047,1.656v1.974v0.127v1.942
		c0,1.443-0.041,2.394-0.127,2.849c-0.084,0.457-0.17,0.918-0.254,1.386c-0.084,0.467-0.201,0.791-0.35,0.971
		c-0.15,0.181-0.33,0.403-0.541,0.668C199.329,30.65,199.073,30.832,198.777,30.927z M198.938,23.175v-1.082
		c0-2.78-0.117-4.531-0.353-5.253c-0.338-0.912-1.037-1.379-2.099-1.4c-0.87,0-1.457,0.223-1.754,0.668
		c-0.17,0.298-0.307,0.573-0.412,0.828c-0.104,0.254-0.182,0.7-0.225,1.337c-0.062,0.934-0.094,1.836-0.094,2.706
		c0,0.871,0,1.746,0,2.627s0.008,1.64,0.031,2.275c0.021,0.637,0.111,1.311,0.27,2.021c0.16,0.711,0.408,1.174,0.748,1.386
		c0.342,0.212,0.766,0.317,1.275,0.317c0.508,0,0.9-0.047,1.178-0.143c0.273-0.096,0.504-0.275,0.684-0.541
		c0.181-0.265,0.318-0.529,0.414-0.796c0.094-0.265,0.164-0.685,0.207-1.257C198.896,26.04,198.938,24.811,198.938,23.175z"/>
	<path display="inline" fill="#121212" d="M210.046,30.927c-0.297,0.097-0.444,0.144-0.444,0.144s-0.188,0.037-0.558,0.111
		c-0.373,0.074-0.815,0.111-1.338,0.111c-0.521,0-0.985-0.031-1.401-0.095c-0.412-0.063-0.773-0.201-1.08-0.414
		c-0.31-0.212-0.562-0.409-0.765-0.589c-0.203-0.18-0.371-0.504-0.512-0.973c-0.138-0.466-0.242-0.858-0.316-1.177
		c-0.075-0.317-0.127-0.844-0.159-1.575c-0.031-0.732-0.054-1.332-0.062-1.799c-0.012-0.467-0.016-1.209-0.016-2.229
		s0.004-1.756,0.016-2.213c0.01-0.456,0.031-1.05,0.062-1.783c0.032-0.732,0.084-1.252,0.159-1.56
		c0.074-0.307,0.181-0.689,0.316-1.146c0.141-0.456,0.309-0.769,0.512-0.939c0.201-0.169,0.461-0.35,0.778-0.542
		c0.488-0.339,1.15-0.509,1.988-0.509c0.84,0,1.443,0.037,1.816,0.111c0.369,0.075,0.705,0.154,1.002,0.239s0.553,0.26,0.766,0.525
		c0.211,0.266,0.392,0.488,0.541,0.668c0.146,0.181,0.265,0.5,0.349,0.955c0.084,0.457,0.153,0.828,0.207,1.114
		c0.053,0.287,0.098,0.77,0.129,1.449c0.03,0.68,0.047,1.231,0.047,1.656v1.974v0.127v1.942c0,1.443-0.041,2.394-0.127,2.849
		c-0.086,0.457-0.172,0.918-0.256,1.386c-0.084,0.467-0.201,0.791-0.349,0.971c-0.149,0.181-0.33,0.403-0.541,0.668
		C210.6,30.65,210.343,30.832,210.046,30.927z M210.206,23.175v-1.082c0-2.78-0.117-4.531-0.353-5.253
		c-0.338-0.912-1.039-1.379-2.1-1.4c-0.871,0-1.455,0.223-1.752,0.668c-0.17,0.298-0.307,0.573-0.414,0.828
		c-0.105,0.254-0.18,0.7-0.223,1.337c-0.064,0.934-0.094,1.836-0.094,2.706c0,0.871,0,1.746,0,2.627s0.008,1.64,0.028,2.275
		c0.022,0.637,0.111,1.311,0.271,2.021c0.16,0.711,0.408,1.174,0.748,1.386c0.341,0.212,0.767,0.317,1.275,0.317
		c0.508,0,0.9-0.047,1.178-0.143c0.273-0.096,0.502-0.275,0.685-0.541c0.178-0.265,0.317-0.529,0.414-0.796
		c0.094-0.265,0.164-0.685,0.205-1.257C210.163,26.04,210.206,24.811,210.206,23.175z"/>
	<path display="inline" fill="#121212" d="M215.458,29.605V7.767c0.935,0,1.479,0.064,1.642,0.191
		c0.157,0.127,0.237,0.552,0.237,1.273V31.07c-0.935,0-1.479-0.063-1.639-0.191C215.538,30.751,215.458,30.328,215.458,29.605z
		 M224.055,31.07h-2.068l-4.269-9.327l3.82-7.768h1.94l-3.85,7.768L224.055,31.07z"/>
	<path display="inline" fill="#121212" d="M226.124,22.443v-8.468c0.933,0,1.479,0.058,1.637,0.175
		c0.16,0.117,0.24,0.546,0.24,1.289v6.94c0,2.462,0.067,4.145,0.207,5.046c0.138,0.902,0.351,1.491,0.635,1.767
		c0.289,0.276,0.675,0.414,1.162,0.414l3.152-1.463l-0.158-0.797v-13.37c0.935,0,1.479,0.058,1.64,0.175
		c0.158,0.117,0.237,0.546,0.237,1.289v15.63c-0.935,0-1.479-0.053-1.64-0.159c-0.159-0.106-0.237-0.478-0.237-1.114l-2.865,1.496
		c-1.338,0-2.389-0.414-3.151-1.241c-0.486-0.552-0.765-1.952-0.828-4.202C226.132,25.148,226.124,24.014,226.124,22.443z"/>
	<path display="inline" fill="#121212" d="M238.062,35.973V13.975c0.912,0,1.446,0.026,1.606,0.079
		c0.158,0.053,0.235,0.239,0.235,0.557l2.55-0.859c1.483,0,2.578,0.446,3.276,1.337c0.574,0.722,0.914,2.133,1.021,4.234
		c0.043,0.807,0.063,1.846,0.063,3.12c0,1.273-0.016,2.275-0.047,3.008c-0.035,0.732-0.102,1.464-0.207,2.197
		c-0.108,0.731-0.256,1.295-0.447,1.687c-0.19,0.394-0.444,0.759-0.764,1.099c-0.596,0.573-1.602,0.858-3.024,0.858l-2.421-1.464
		v7.607c-0.911,0-1.446-0.062-1.606-0.189C238.141,37.119,238.062,36.693,238.062,35.973z M244.443,28.125
		c0.328-0.986,0.492-2.796,0.492-5.428c0-2.632-0.17-4.5-0.51-5.604c-0.338-1.104-1.049-1.656-2.133-1.656l-2.482,0.795l0.127,0.796
		v10.346l-0.158,0.796l2.482,1.433C243.389,29.605,244.113,29.111,244.443,28.125z"/>
</g>
<g id="bv_logo_color_gray">
	
		<linearGradient id="SVGID_1_" gradientUnits="userSpaceOnUse" x1="324.9375" y1="-374.6255" x2="324.9375" y2="-350.736" gradientTransform="matrix(1 0 0 -1 -298 -347)">
		<stop  offset="0" style="stop-color:#68A542"/>
		<stop  offset="1" style="stop-color:#74B64A"/>
	</linearGradient>
	<path fill="url(#SVGID_1_)" d="M26.938,4.25c-8.244,0-14.924,6.681-14.924,14.922c0,5.635,3.124,10.538,7.732,13.077l-0.667-9.071
		c0-1.399,1.175-2.533,2.624-2.533h10.468c1.45,0,2.624,1.134,2.624,2.533L34.13,32.25c4.607-2.539,7.731-7.441,7.731-13.077
		C41.861,10.932,35.18,4.25,26.938,4.25z M26.938,19.573c-3.489,0-6.318-2.829-6.318-6.318c0-3.489,2.829-6.319,6.318-6.319
		c3.49,0,6.319,2.83,6.319,6.319C33.256,16.742,30.427,19.573,26.938,19.573z"/>
	<path fill="#303030" d="M46.039,10.073c0-0.865,0.424-1.536,1.419-1.536h4.678c3.802,0,5.794,2.848,5.794,5.441
		c0,2.495-1.237,4.416-2.987,4.991v0.064c2.596,0.287,4.647,2.622,4.647,5.631c0,3.585-2.504,6.657-7.033,6.657h-5.1
		c-0.995,0-1.419-0.673-1.419-1.537V10.073z M48.694,18.169h3.018c2.264,0,3.562-1.6,3.562-3.68c0-2.048-1.117-3.52-3.47-3.52
		h-3.109V18.169z M48.694,28.889h3.743c2.594,0,4.495-1.696,4.495-4.225c0-2.335-1.6-4.19-4.376-4.19h-3.863L48.694,28.889
		L48.694,28.889z"/>
	<path fill="#303030" d="M63.095,23.896c0,2.911,1.75,5.185,4.738,5.185c3.531,0,4.436-2.305,5.432-2.305
		c0.483,0,0.966,0.446,0.966,1.248c0,1.376-3.29,3.486-6.428,3.486c-5.131,0-7.364-4.191-7.364-8.703
		c0-4.607,2.716-8.703,7.213-8.703c4.375,0,6.91,4.19,6.91,8.288c0,0.992-0.333,1.504-1.479,1.504H63.095z M71.906,21.783
		c0-2.431-1.327-5.247-4.253-5.247c-3.291-0.128-4.468,2.655-4.558,5.247H71.906z"/>
	<path fill="#303030" d="M77.948,23.896c0,2.911,1.75,5.185,4.738,5.185c3.531,0,4.436-2.305,5.432-2.305
		c0.482,0,0.965,0.446,0.965,1.248c0,1.376-3.29,3.486-6.428,3.486c-5.129,0-7.363-4.191-7.363-8.703
		c0-4.607,2.715-8.703,7.212-8.703c4.376,0,6.911,4.19,6.911,8.288c0,0.992-0.332,1.504-1.479,1.504H77.948z M86.76,21.783
		c0-2.431-1.328-5.247-4.256-5.247c-3.289-0.128-4.465,2.655-4.556,5.247H86.76z"/>
	<path fill="#303030" d="M90.69,15.609c0-0.929,0.514-1.504,1.328-1.504s1.328,0.575,1.328,1.504v0.672l0.059,0.064
		c1.176-1.6,2.839-2.24,4.437-2.24c2.474,0,5.582,1.664,5.582,6.464v9.44c0,0.927-0.512,1.503-1.328,1.503
		c-0.814,0-1.327-0.576-1.327-1.503v-9.281c0-2.976-1.961-4.191-3.711-4.191c-1.75,0-3.711,1.215-3.711,4.191v9.281
		c0,0.927-0.514,1.503-1.328,1.503c-0.814,0-1.328-0.576-1.328-1.503V15.609L90.69,15.609z"/>
	
		<linearGradient id="SVGID_2_" gradientUnits="userSpaceOnUse" x1="410.4307" y1="-377.9722" x2="410.4307" y2="-354.2521" gradientTransform="matrix(1 0 0 -1 -298 -347)">
		<stop  offset="0" style="stop-color:#68A542"/>
		<stop  offset="1" style="stop-color:#74B64A"/>
	</linearGradient>
	<path fill="url(#SVGID_2_)" d="M103.589,11.833c-0.151-0.416-0.211-0.736-0.211-1.184c0-1.345,1.116-2.304,2.324-2.304
		c1.025,0,1.659,0.705,2.051,1.568l4.678,13.312l4.677-13.312c0.394-0.862,1.026-1.568,2.052-1.568c1.208,0,2.323,0.96,2.323,2.304
		c0,0.448-0.06,0.768-0.208,1.184l-6.609,17.825c-0.395,1.025-0.906,1.855-2.234,1.855c-1.329,0-1.842-0.83-2.233-1.855
		L103.589,11.833z"/>
	
		<linearGradient id="SVGID_3_" gradientUnits="userSpaceOnUse" x1="424.9688" y1="-377.9712" x2="424.9688" y2="-354.2533" gradientTransform="matrix(1 0 0 -1 -298 -347)">
		<stop  offset="0" style="stop-color:#68A542"/>
		<stop  offset="1" style="stop-color:#74B64A"/>
	</linearGradient>
	<path fill="url(#SVGID_3_)" d="M123.604,24.343c0.303,2.273,2.083,3.329,4.104,3.329c2.235,0,3.773-1.855,4.919-1.855
		c0.937,0,1.782,0.991,1.782,1.983c0,1.984-3.862,3.903-7.093,3.903c-4.889,0-8.147-3.775-8.147-8.864
		c0-4.67,3.201-8.926,7.786-8.926c4.708,0,7.814,4.544,7.814,8.383c0,1.377-0.571,2.047-1.899,2.047H123.604z M130.423,21.272
		c-0.241-2.016-1.446-3.52-3.469-3.52c-1.932,0-3.229,1.568-3.44,3.52H130.423z"/>
	
		<linearGradient id="SVGID_4_" gradientUnits="userSpaceOnUse" x1="439.0293" y1="-377.9722" x2="439.0293" y2="-354.2534" gradientTransform="matrix(1 0 0 -1 -298 -347)">
		<stop  offset="0" style="stop-color:#68A542"/>
		<stop  offset="1" style="stop-color:#74B64A"/>
	</linearGradient>
	<path fill="url(#SVGID_4_)" d="M136.245,16.409c0-1.537,1.148-2.304,2.234-2.304c1.146,0,2.111,0.448,2.111,1.92h0.06
		c0.816-1.28,1.69-1.92,3.049-1.92c1.057,0,2.112,0.799,2.112,2.464c0,1.503-1.298,1.6-2.596,2.239
		c-1.297,0.641-2.625,1.248-2.625,3.074v7.071c0,1.536-0.905,2.56-2.172,2.56c-1.268,0-2.174-1.023-2.174-2.56V16.409z"/>
	
		<linearGradient id="SVGID_5_" gradientUnits="userSpaceOnUse" x1="446.4678" y1="-377.9722" x2="446.4678" y2="-354.2534" gradientTransform="matrix(1 0 0 -1 -298 -347)">
		<stop  offset="0" style="stop-color:#68A542"/>
		<stop  offset="1" style="stop-color:#74B64A"/>
	</linearGradient>
	<path fill="url(#SVGID_5_)" d="M150.91,9.72c0,1.44-1.085,2.656-2.445,2.656c-1.296,0-2.441-1.249-2.441-2.656
		c0-1.312,1.146-2.526,2.441-2.526C149.764,7.193,150.91,8.376,150.91,9.72z M146.295,16.664c0-1.537,0.905-2.559,2.17-2.559
		c1.269,0,2.174,1.024,2.174,2.559v12.289c0,1.536-0.905,2.56-2.174,2.56c-1.265,0-2.17-1.023-2.17-2.56V16.664z"/>
	
		<linearGradient id="SVGID_6_" gradientUnits="userSpaceOnUse" x1="454.5684" y1="-377.9712" x2="454.5684" y2="-354.2519" gradientTransform="matrix(1 0 0 -1 -298 -347)">
		<stop  offset="0" style="stop-color:#68A542"/>
		<stop  offset="1" style="stop-color:#74B64A"/>
	</linearGradient>
	<path fill="url(#SVGID_6_)" d="M154.048,18.328h-0.965c-1.177,0-1.902-0.768-1.902-2.015c0-1.152,0.814-2.016,1.902-2.016h0.965
		v-2.368c0-3.392,1.902-5.248,4.559-5.248c1.538,0,3.018,0.479,3.018,2.081c0,1.343-0.574,1.952-1.781,1.952
		c-0.727,0-1.449,0-1.449,1.696v1.889h1.357c1.299,0,2.203,0.543,2.203,2.016c0,1.44-0.936,2.015-2.203,2.015h-1.357v10.625
		c0,1.535-0.905,2.559-2.174,2.559c-1.266,0-2.172-1.023-2.172-2.559V18.328L154.048,18.328z"/>
	
		<linearGradient id="SVGID_7_" gradientUnits="userSpaceOnUse" x1="462.9346" y1="-377.9722" x2="462.9346" y2="-354.2534" gradientTransform="matrix(1 0 0 -1 -298 -347)">
		<stop  offset="0" style="stop-color:#68A542"/>
		<stop  offset="1" style="stop-color:#74B64A"/>
	</linearGradient>
	<path fill="url(#SVGID_7_)" d="M167.378,9.72c0,1.44-1.084,2.656-2.442,2.656c-1.297,0-2.446-1.249-2.446-2.656
		c0-1.312,1.149-2.526,2.446-2.526C166.23,7.193,167.378,8.376,167.378,9.72z M162.762,16.664c0-1.537,0.904-2.559,2.174-2.559
		c1.267,0,2.172,1.024,2.172,2.559v12.289c0,1.536-0.905,2.56-2.172,2.56c-1.27,0-2.174-1.023-2.174-2.56V16.664L162.762,16.664z"/>
	
		<linearGradient id="SVGID_8_" gradientUnits="userSpaceOnUse" x1="474.3867" y1="-377.9712" x2="474.3867" y2="-354.2533" gradientTransform="matrix(1 0 0 -1 -298 -347)">
		<stop  offset="0" style="stop-color:#68A542"/>
		<stop  offset="1" style="stop-color:#74B64A"/>
	</linearGradient>
	<path fill="url(#SVGID_8_)" d="M173.021,24.343c0.303,2.273,2.08,3.329,4.103,3.329c2.234,0,3.774-1.855,4.92-1.855
		c0.938,0,1.78,0.991,1.78,1.983c0,1.984-3.861,3.903-7.091,3.903c-4.89,0-8.148-3.775-8.148-8.864c0-4.67,3.2-8.926,7.788-8.926
		c4.706,0,7.813,4.544,7.813,8.383c0,1.377-0.572,2.047-1.9,2.047H173.021z M179.84,21.272c-0.24-2.016-1.447-3.52-3.467-3.52
		c-1.933,0-3.232,1.568-3.444,3.52H179.84z"/>
	<path fill="#303030" d="M206.854,31.096c0-0.406,0.331-0.736,0.737-0.736c0.403,0,0.736,0.33,0.736,0.736
		c0,0.404-0.33,0.735-0.736,0.735S206.854,31.5,206.854,31.096z"/>
	<path fill="#303030" d="M204.595,26.069c0,0.34-0.268,0.643-0.268,1.075c0,0.772,0.688,1.142,1.387,1.142
		c0.669,0,1.364-0.407,1.364-1.142c0-0.338-0.28-0.849-0.28-1.009c0-0.319,0.274-0.584,0.594-0.584c0.697,0,0.934,1.169,0.934,1.657
		c0,1.463-1.197,2.432-2.611,2.432c-1.379,0-2.633-0.997-2.633-2.432c0-0.536,0.2-1.657,0.859-1.657
		C204.225,25.552,204.595,25.75,204.595,26.069z"/>
	<path fill="#303030" d="M205.715,20.415c1.414,0,2.612,0.972,2.612,2.432c0,1.461-1.198,2.433-2.612,2.433
		c-1.377,0-2.631-1.001-2.631-2.433C203.084,21.414,204.338,20.415,205.715,20.415z M205.715,23.922
		c0.648,0,1.365-0.342,1.365-1.075c0-0.734-0.717-1.074-1.365-1.074c-0.652,0-1.385,0.328-1.385,1.074
		C204.327,23.592,205.062,23.922,205.715,23.922z"/>
	<path fill="#303030" d="M203.896,19.839c-0.453,0-0.754-0.281-0.754-0.678c0-0.349,0.188-0.576,0.509-0.623
		c-0.357-0.331-0.565-0.763-0.565-1.262c0-0.566,0.236-1.047,0.688-1.405c-0.433-0.377-0.688-0.972-0.688-1.434
		c0-1.102,0.64-1.856,1.829-1.856h2.601c0.452,0,0.753,0.283,0.753,0.68c0,0.396-0.301,0.678-0.753,0.678h-2.366
		c-0.547,0-0.933,0.301-0.933,0.792c0,0.5,0.386,0.801,0.933,0.801h2.366c0.452,0,0.753,0.283,0.753,0.679s-0.301,0.679-0.753,0.679
		h-2.366c-0.547,0-0.933,0.303-0.933,0.792c0,0.556,0.386,0.801,0.933,0.801h2.366c0.452,0,0.753,0.283,0.753,0.679
		c0,0.396-0.301,0.678-0.753,0.678L203.896,19.839L203.896,19.839z"/>
	
		<linearGradient id="SVGID_9_" gradientUnits="userSpaceOnUse" x1="326.9258" y1="-377.811" x2="326.9258" y2="-370.5882" gradientTransform="matrix(1 0 0 -1 -298 -347)">
		<stop  offset="0" style="stop-color:#68A542"/>
		<stop  offset="1" style="stop-color:#74B64A"/>
	</linearGradient>
	<polygon fill="url(#SVGID_9_)" points="30.655,28.174 33.3,26.262 29.934,26.262 28.927,23.589 27.918,26.262 24.551,26.262 
		27.197,28.174 25.901,31.608 28.927,29.424 31.95,31.608 	"/>
	
		<linearGradient id="SVGID_10_" gradientUnits="userSpaceOnUse" x1="490.832" y1="-377.9712" x2="490.832" y2="-354.2519" gradientTransform="matrix(1 0 0 -1 -298 -347)">
		<stop  offset="0" style="stop-color:#68A542"/>
		<stop  offset="1" style="stop-color:#74B64A"/>
	</linearGradient>
	<path fill="url(#SVGID_10_)" d="M198.398,6.681c-1.267,0-2.172,1.024-2.172,2.56v6.273c-1.149-1.057-2.625-1.601-4.136-1.601
		c-4.678,0-6.999,4.64-6.999,9.12c0,4.353,2.776,8.671,7.151,8.671c1.478,0,3.169-0.703,3.983-2.11
		c0.271,1.216,0.965,1.918,2.172,1.918c1.269,0,2.173-1.023,2.173-2.559V9.24C200.571,7.705,199.667,6.681,198.398,6.681z
		 M194.714,22.976l1.419,3.768l-3.315-2.398l-3.317,2.398l1.421-3.768l-2.899-2.096h3.692l1.104-2.931l1.108,2.931h3.688
		L194.714,22.976z"/>
	<g>
		<path fill="#303030" d="M212.347,7.199v0.46h-0.778v2.133h-0.543V7.659h-0.779v-0.46H212.347z"/>
		<path fill="#303030" d="M214.384,7.199h0.778v2.593h-0.504V8.039c0-0.051,0-0.121,0-0.213c0.002-0.089,0.003-0.161,0.003-0.209
			l-0.493,2.177h-0.525l-0.488-2.177c0,0.049,0.003,0.121,0.004,0.209c0,0.092,0.002,0.163,0.002,0.213v1.753h-0.507V7.199h0.789
			l0.472,2.04L214.384,7.199z"/>
	</g>
</g>
</svg>
