<?xml version="1.0" encoding="utf-8"?>
<!-- Generator: Adobe Illustrator 16.0.0, SVG Export Plug-In . SVG Version: 6.00 Build 0)  -->
<!DOCTYPE svg PUBLIC "-//W3C//DTD SVG 1.1//EN" "http://www.w3.org/Graphics/SVG/1.1/DTD/svg11.dtd">
<svg version="1.1" id="Layer_1" xmlns="http://www.w3.org/2000/svg" xmlns:xlink="http://www.w3.org/1999/xlink" x="0px" y="0px"
	 width="519.154px" height="61.913px" viewBox="0 0 519.154 61.913" enable-background="new 0 0 519.154 61.913"
	 xml:space="preserve">
<path fill="#2281B9" d="M41.667,57.223c0,0-6.962,3.904-14.793,3.904c-8.205,0-14.793-3.9-14.793-3.9V26.924
	c0-2.292,1.856-4.148,4.147-4.148h21.291c2.291,0,4.148,1.856,4.148,4.148V57.223z"/>
<g opacity="0.4">
	<g>
		<defs>
			<rect id="SVGID_1_" x="14.705" y="29.548" width="24.338" height="32.134"/>
		</defs>
		<clipPath id="SVGID_2_">
			<use xlink:href="#SVGID_1_"  overflow="visible"/>
		</clipPath>
		<path clip-path="url(#SVGID_2_)" fill="#FFFFFF" d="M39.043,59.206c0,0-5.798,2.477-12.169,2.477
			c-6.401,0-12.168-2.475-12.168-2.475v-29.66h24.337V59.206z"/>
	</g>
</g>
<g>
	<g>
		<defs>
			<rect id="SVGID_3_" x="15.834" y="30.1" width="22.08" height="31.029"/>
		</defs>
		<clipPath id="SVGID_4_">
			<use xlink:href="#SVGID_3_"  overflow="visible"/>
		</clipPath>
		<path clip-path="url(#SVGID_4_)" fill="#FFFFFF" d="M37.914,59.149c0,0-5.568,1.98-11.234,1.98c-5.49,0-10.842-1.979-10.842-1.979
			L15.834,30.1h22.08V59.149z"/>
	</g>
</g>
<path fill="#13416B" d="M29.617,27.133H24.13c-0.456,0-0.825-0.369-0.825-0.825c0-0.455,0.37-0.825,0.825-0.825h5.487
	c0.456,0,0.825,0.37,0.825,0.825C30.442,26.764,30.073,27.133,29.617,27.133"/>
<path fill="#67A53D" d="M26.873,35.958c-4.67,0-8.454,3.785-8.454,8.455c0,3.189,1.768,5.971,4.38,7.41l-0.378-5.141
	c0-0.791,0.667-1.438,1.486-1.438h5.931c0.82,0,1.486,0.646,1.486,1.438l-0.376,5.141c2.61-1.439,4.38-4.221,4.38-7.41
	C35.33,39.743,31.543,35.958,26.873,35.958 M26.874,44.409c-1.374,0-2.489-1.113-2.489-2.486c0-1.375,1.115-2.488,2.489-2.488
	c1.375,0,2.488,1.113,2.488,2.488C29.362,43.295,28.248,44.409,26.874,44.409"/>
<polygon fill="#67A53D" points="28.979,49.51 30.479,48.43 28.572,48.43 28.001,46.917 27.429,48.43 25.521,48.43 27.02,49.51 
	26.287,51.458 28.001,50.219 29.715,51.458 "/>
<path fill="#2281B9" d="M26.874,12.82c12.406,0,22.462,10.056,22.462,22.463c0,12.404-10.056,22.461-22.462,22.461
	S4.412,47.688,4.412,35.284C4.412,22.876,14.467,12.82,26.874,12.82 M26.874,8.408C12.056,8.408,0,20.464,0,35.284
	c0,14.818,12.056,26.873,26.874,26.873c14.818,0,26.874-12.055,26.874-26.873C53.748,20.464,41.692,8.408,26.874,8.408"/>
<path fill="#67A53D" d="M45.574,1.103c-8.034,0-14.546,5.118-14.546,11.43c0,2.987,1.46,5.711,3.852,7.748
	c-0.091,1.985-0.502,4.652-1.957,6.029c2.778,0,5.624-1.829,7.311-3.147c1.654,0.515,3.455,0.799,5.34,0.799
	c8.033,0,14.546-5.119,14.546-11.429C60.12,6.221,53.607,1.103,45.574,1.103"/>
<path fill="none" stroke="#FFFFFF" stroke-width="2.2058" stroke-miterlimit="10" d="M45.574,1.103
	c-8.034,0-14.546,5.118-14.546,11.43c0,2.987,1.46,5.711,3.852,7.748c-0.091,1.985-0.502,4.652-1.957,6.029
	c2.778,0,5.624-1.829,7.311-3.147c1.654,0.515,3.455,0.799,5.34,0.799c8.033,0,14.546-5.119,14.546-11.429
	C60.12,6.221,53.607,1.103,45.574,1.103z"/>
<path fill="#FFFFFF" d="M41.203,12.15c0,1.311-1.062,2.375-2.374,2.375c-1.311,0-2.374-1.064-2.374-2.375
	c0-1.312,1.063-2.374,2.374-2.374C40.141,9.776,41.203,10.839,41.203,12.15"/>
<path fill="#FFFFFF" d="M47.949,12.15c0,1.311-1.064,2.375-2.375,2.375c-1.312,0-2.374-1.064-2.374-2.375
	c0-1.312,1.062-2.374,2.374-2.374C46.885,9.776,47.949,10.839,47.949,12.15"/>
<path fill="#FFFFFF" d="M54.693,12.15c0,1.311-1.063,2.375-2.375,2.375c-1.312,0-2.374-1.064-2.374-2.375
	c0-1.312,1.062-2.374,2.374-2.374C53.63,9.776,54.693,10.839,54.693,12.15"/>
<path fill="#E6E6E6" d="M36.789,12.394c0-1.312,1.063-2.375,2.375-2.375c0.444,0,0.855,0.13,1.211,0.343
	c-0.416-0.36-0.952-0.586-1.546-0.586c-1.311,0-2.374,1.063-2.374,2.375c0,0.866,0.468,1.617,1.162,2.032
	C37.114,13.746,36.789,13.111,36.789,12.394"/>
<path fill="#E6E6E6" d="M43.533,12.394c0-1.312,1.063-2.375,2.375-2.375c0.444,0,0.855,0.13,1.212,0.343
	c-0.416-0.36-0.953-0.586-1.546-0.586c-1.312,0-2.374,1.063-2.374,2.375c0,0.866,0.468,1.617,1.162,2.032
	C43.859,13.746,43.533,13.111,43.533,12.394"/>
<path fill="#E6E6E6" d="M50.278,12.394c0-1.312,1.062-2.375,2.374-2.375c0.445,0,0.855,0.13,1.212,0.343
	c-0.416-0.36-0.953-0.586-1.546-0.586c-1.312,0-2.375,1.063-2.375,2.375c0,0.866,0.469,1.617,1.162,2.032
	C50.603,13.746,50.278,13.111,50.278,12.394"/>
<g>
	<path fill="#67A53D" d="M67.127,12.179c2.417-0.402,5.583-0.748,9.612-0.748c4.951,0,8.577,1.15,10.879,3.222
		c2.13,1.842,3.396,4.664,3.396,8.116c0,3.511-1.036,6.275-2.994,8.289c-2.647,2.822-6.964,4.261-11.857,4.261
		c-1.497,0-2.878-0.059-4.029-0.346v15.541h-5.008V12.179z M72.135,30.886c1.093,0.289,2.475,0.404,4.144,0.404
		c6.043,0,9.727-2.936,9.727-8.289c0-5.123-3.626-7.599-9.152-7.599c-2.187,0-3.856,0.173-4.719,0.404V30.886z"/>
	<path fill="#67A53D" d="M95.332,9.646h5.065v17.383h0.115c0.806-1.438,2.072-2.704,3.626-3.568c1.496-0.864,3.281-1.439,5.18-1.439
		c3.742,0,9.728,2.303,9.728,11.916v16.577h-5.065V34.513c0-4.489-1.669-8.289-6.447-8.289c-3.281,0-5.872,2.304-6.792,5.066
		c-0.288,0.69-0.345,1.438-0.345,2.417v16.808h-5.065V9.646z"/>
	<path fill="#67A53D" d="M150.242,36.355c0,10.304-7.137,14.793-13.872,14.793c-7.541,0-13.354-5.525-13.354-14.332
		c0-9.325,6.102-14.794,13.815-14.794C144.832,22.022,150.242,27.836,150.242,36.355z M128.138,36.643
		c0,6.102,3.511,10.706,8.462,10.706c4.836,0,8.462-4.547,8.462-10.821c0-4.721-2.361-10.707-8.345-10.707
		C130.729,25.821,128.138,31.348,128.138,36.643z"/>
	<path fill="#67A53D" d="M154.386,30.196c0-2.879-0.058-5.238-0.23-7.54h4.49l0.288,4.604h0.115c1.381-2.648,4.604-5.239,9.21-5.239
		c3.856,0,9.843,2.303,9.843,11.858v16.635h-5.065V34.457c0-4.492-1.669-8.232-6.447-8.232c-3.338,0-5.929,2.36-6.792,5.181
		c-0.23,0.634-0.345,1.496-0.345,2.36v16.75h-5.066V30.196z"/>
	<path fill="#67A53D" d="M186.907,37.505c0.114,6.852,4.489,9.672,9.554,9.672c3.627,0,5.814-0.634,7.714-1.439l0.862,3.626
		c-1.783,0.807-4.834,1.727-9.266,1.727c-8.577,0-13.7-5.641-13.7-14.045c0-8.404,4.949-15.023,13.067-15.023
		c9.094,0,11.512,8.002,11.512,13.125c0,1.035-0.115,1.842-0.173,2.358H186.907z M201.757,33.88
		c0.058-3.224-1.323-8.231-7.021-8.231c-5.123,0-7.368,4.721-7.771,8.231H201.757z"/>
	<path fill="#67A53D" d="M245.042,50.515c-1.095-1.094-2.131-2.188-3.626-3.801c-3.34,3.109-7.081,4.434-11.34,4.434
		c-7.541,0-11.916-5.064-11.916-10.879c0-5.295,3.167-8.921,7.599-11.338v-0.173c-2.015-2.534-3.224-5.354-3.224-8.116
		c0-4.721,3.396-9.556,9.843-9.556c4.835,0,8.576,3.223,8.576,8.231c0,4.087-2.36,7.309-8.52,10.361v0.172
		c3.282,3.798,6.966,8.06,9.442,10.822c1.783-2.706,2.992-6.446,3.74-11.341h4.604c-1.035,6.102-2.704,10.937-5.582,14.333
		c2.07,2.188,4.085,4.375,6.389,6.85H245.042z M238.94,43.838c-2.303-2.532-6.62-7.253-10.938-12.202
		c-2.071,1.323-5.008,3.798-5.008,7.885c0,4.431,3.28,7.828,7.944,7.828C234.277,47.349,237.099,45.853,238.94,43.838z
		 M227.141,20.18c0,2.763,1.266,4.893,2.936,6.965c3.914-2.245,6.446-4.317,6.446-7.598c0-2.36-1.324-5.008-4.489-5.008
		C228.81,14.54,227.141,17.188,227.141,20.18z"/>
</g>
<text transform="matrix(1 0 0 1 254.0957 50.5142)" font-family="'Ubuntu-BoldItalic'" font-size="57.5593"> </text>
<g>
	<path fill="#2281B9" d="M264.746,15.977h-11.801v-4.259h28.723v4.259H269.81v34.538h-5.063V15.977z"/>
	<path fill="#2281B9" d="M281.724,37.505c0.115,6.852,4.491,9.672,9.556,9.672c3.627,0,5.814-0.634,7.713-1.439l0.865,3.626
		c-1.785,0.807-4.835,1.727-9.271,1.727c-8.574,0-13.698-5.641-13.698-14.045c0-8.404,4.95-15.023,13.066-15.023
		c9.096,0,11.513,8.002,11.513,13.125c0,1.035-0.114,1.842-0.172,2.358H281.724z M296.575,33.88
		c0.057-3.224-1.324-8.231-7.021-8.231c-5.124,0-7.369,4.721-7.771,8.231H296.575z"/>
	<path fill="#2281B9" d="M307.854,22.656l3.974,5.985c1.035,1.555,1.898,2.995,2.818,4.548h0.175
		c0.921-1.67,1.841-3.109,2.762-4.605l3.914-5.928h5.469l-9.498,13.468l9.785,14.391h-5.756l-4.087-6.274
		c-1.093-1.611-2.016-3.165-2.992-4.834h-0.115c-0.922,1.669-1.899,3.166-2.937,4.834l-4.03,6.274h-5.582l9.9-14.218l-9.438-13.641
		H307.854z"/>
	<path fill="#2281B9" d="M335.484,14.654v8.002h7.252v3.856h-7.252v15.022c0,3.454,0.979,5.413,3.8,5.413
		c1.324,0,2.301-0.173,2.934-0.347l0.232,3.799c-0.98,0.403-2.532,0.69-4.491,0.69c-2.358,0-4.26-0.748-5.468-2.128
		c-1.438-1.499-1.957-3.974-1.957-7.255V26.513h-4.316v-3.856h4.316v-6.679L335.484,14.654z"/>
	<path fill="#2281B9" d="M356.32,11.718h5.008v34.595h16.577v4.202H356.32V11.718z"/>
	<path fill="#2281B9" d="M405.074,36.355c0,10.304-7.138,14.793-13.875,14.793c-7.54,0-13.353-5.525-13.353-14.332
		c0-9.325,6.101-14.794,13.814-14.794C399.662,22.022,405.074,27.836,405.074,36.355z M382.97,36.643
		c0,6.102,3.511,10.706,8.462,10.706c4.834,0,8.461-4.547,8.461-10.821c0-4.721-2.359-10.707-8.348-10.707
		C385.559,25.821,382.97,31.348,382.97,36.643z"/>
	<path fill="#2281B9" d="M434.428,36.355c0,10.304-7.139,14.793-13.874,14.793c-7.541,0-13.354-5.525-13.354-14.332
		c0-9.325,6.102-14.794,13.814-14.794C429.016,22.022,434.428,27.836,434.428,36.355z M412.323,36.643
		c0,6.102,3.511,10.706,8.462,10.706c4.835,0,8.462-4.547,8.462-10.821c0-4.721-2.36-10.707-8.348-10.707
		C414.914,25.821,412.323,31.348,412.323,36.643z"/>
	<path fill="#2281B9" d="M443.578,35.434h0.116c0.689-0.978,1.669-2.188,2.475-3.166l8.172-9.612h6.104L449.68,34.11l12.262,16.405
		h-6.159l-9.613-13.354l-2.591,2.878v10.476h-5.008V9.646h5.008V35.434z"/>
	<path fill="#2281B9" d="M486.632,42.918c0,2.876,0.058,5.409,0.231,7.597h-4.492l-0.285-4.548h-0.116
		c-1.324,2.247-4.26,5.181-9.21,5.181c-4.375,0-9.612-2.418-9.612-12.203V22.656h5.065v15.424c0,5.297,1.61,8.867,6.216,8.867
		c3.397,0,5.756-2.361,6.676-4.605c0.289-0.748,0.462-1.669,0.462-2.591V22.656h5.065V42.918z"/>
	<path fill="#2281B9" d="M492.791,31.75c0-3.569-0.116-6.447-0.23-9.094h4.547l0.23,4.778h0.114
		c2.073-3.397,5.354-5.412,9.902-5.412c6.733,0,11.8,5.699,11.8,14.16c0,10.018-6.102,14.966-12.664,14.966
		c-3.685,0-6.907-1.611-8.575-4.373h-0.116v15.138h-5.008V31.75z M497.799,39.175c0,0.747,0.116,1.44,0.229,2.073
		c0.922,3.511,3.973,5.929,7.599,5.929c5.354,0,8.461-4.375,8.461-10.766c0-5.583-2.934-10.36-8.288-10.36
		c-3.452,0-6.677,2.477-7.655,6.274c-0.174,0.634-0.346,1.382-0.346,2.072V39.175z"/>
</g>
</svg>
