<?xml version="1.0" standalone="no"?>
<!DOCTYPE svg PUBLIC "-//W3C//DTD SVG 1.1//EN" "http://www.w3.org/Graphics/SVG/1.1/DTD/svg11.dtd" >
<svg xmlns="http://www.w3.org/2000/svg">
<metadata></metadata>
<defs>
<font id="publica_sansbold" horiz-adv-x="1273" >
<font-face units-per-em="2048" ascent="1638" descent="-410" />
<missing-glyph horiz-adv-x="608" />
<glyph unicode="&#xfb01;" horiz-adv-x="1267" d="M987 1130q-86 0 -140 50t-54 127t54 125.5t140 48.5q85 0 139 -49t54 -125q0 -77 -54.5 -127t-138.5 -50zM1151 1018v-1018h-328v748h-307v-748h-328v748h-139v270h139v61q0 161 122 265t311 104q47 0 90 -6v-283q-57 17 -88 17q-46 0 -76.5 -27.5t-30.5 -69.5v-61h635z " />
<glyph unicode="&#xfb02;" horiz-adv-x="1269" d="M831 1427h328v-1427h-328v748h-315v-748h-328v748h-139v270h139v61q0 161 122 265t311 104q47 0 90 -6v-283q-57 17 -88 17q-46 0 -76.5 -27.5t-30.5 -69.5v-61h315v409z" />
<glyph horiz-adv-x="0" />
<glyph horiz-adv-x="682" />
<glyph unicode=" "  horiz-adv-x="608" />
<glyph unicode="&#x09;" horiz-adv-x="608" />
<glyph unicode="&#xa0;" horiz-adv-x="608" />
<glyph unicode="!" horiz-adv-x="735" d="M158 1427h417l-61 -919h-293zM367 395q97 0 159 -58t62 -149t-62 -148.5t-159 -57.5q-96 0 -158 58t-62 148t62 148.5t158 58.5z" />
<glyph unicode="&#x22;" horiz-adv-x="1019" d="M125 1427h326l-41 -571h-244zM569 1427h326l-41 -571h-244z" />
<glyph unicode="#" horiz-adv-x="1521" d="M1430 887h-238l-86 -346h324v-164h-363l-94 -377h-191l95 377h-400l-94 -377h-188l92 377h-197v164h238l86 346h-324v164h365l94 376h190l-94 -376h397l95 376h190l-94 -376h197v-164zM915 541l89 346h-400l-86 -346h397z" />
<glyph unicode="$" horiz-adv-x="1325" d="M1253 432q0 -184 -131 -301.5t-352 -142.5v-148h-223v146q-217 26 -348.5 155.5t-135.5 327.5h349q2 -91 72 -149t186 -58q100 0 164.5 43t64.5 113q0 41 -27.5 70t-73.5 46.5t-106 31t-126.5 27t-132.5 31t-126 47t-106 70t-73.5 105.5t-27.5 149q0 180 122 299t325 146 v147h223v-147q197 -31 319 -159.5t123 -315.5h-338q-1 91 -62 145.5t-159 54.5q-87 0 -142.5 -40t-55.5 -107q0 -42 27.5 -72t73.5 -48t106 -31t126 -27t132 -31t126 -47t106 -71t73.5 -107t27.5 -152z" />
<glyph unicode="%" horiz-adv-x="1783" d="M442 1446q151 0 250 -98t99 -250q0 -150 -99 -248t-250 -98t-249.5 97.5t-98.5 248.5q0 152 98.5 250t249.5 98zM1223 1427h190l-852 -1427h-190zM442 1260q-65 0 -107 -46t-42 -116t42 -116t107 -46q64 0 106 45.5t42 116.5t-42 116.5t-106 45.5zM1341 676 q151 0 250 -98.5t99 -249.5t-99 -249.5t-250 -98.5t-249.5 98.5t-98.5 249.5t98.5 249.5t249.5 98.5zM1341 489q-64 0 -105.5 -45t-41.5 -116t41.5 -116.5t105.5 -45.5q65 0 107.5 46t42.5 116t-42.5 115.5t-107.5 45.5z" />
<glyph unicode="&#x26;" horiz-adv-x="1529" d="M1442 0h-363l-104 111q-193 -131 -420 -131q-219 0 -342 112.5t-123 290.5q0 72 20.5 133.5t59 109.5t82 84.5t102.5 71.5q-133 156 -133 320q0 157 105.5 251.5t294.5 94.5q193 0 297 -94t104 -230q0 -217 -281 -376l283 -304q56 67 94 154h320q-110 -194 -242 -334z M618 1217q-47 0 -74.5 -33t-27.5 -86q0 -86 72 -183q133 97 133 195q0 45 -30 76t-73 31zM612 246q99 0 195 47l-295 317q-109 -92 -109 -200q0 -71 54.5 -117.5t154.5 -46.5z" />
<glyph unicode="'" horiz-adv-x="575" d="M125 1427h326l-41 -571h-244z" />
<glyph unicode="(" horiz-adv-x="681" d="M608 1563q-93 -212 -141.5 -467.5t-48.5 -520.5t48.5 -519t141.5 -466h-186q-152 191 -234 446t-82 539q0 286 82 541.5t234 446.5h186z" />
<glyph unicode=")" horiz-adv-x="665" d="M57 1563h187q152 -190 233.5 -446t81.5 -542q0 -285 -81.5 -540t-233.5 -445h-187q93 212 142 466.5t49 518.5q0 265 -49 520.5t-142 467.5z" />
<glyph unicode="*" horiz-adv-x="1103" d="M997 1061l-305 -55l217 -226l-209 -149l-147 276l-147 -276l-211 149l217 226l-306 55l78 242l283 -134l-43 308h256l-41 -308l281 134z" />
<glyph unicode="+" horiz-adv-x="1099" d="M1006 743v-190h-353v-340h-207v340h-352v190h352v340h207v-340h353z" />
<glyph unicode="," horiz-adv-x="638" d="M158 305h354l-203 -557h-248z" />
<glyph unicode="-" horiz-adv-x="1019" d="M94 676h832v-240h-832v240z" />
<glyph unicode="." horiz-adv-x="657" d="M330 395q95 0 157 -58t62 -149q0 -90 -61.5 -148t-157.5 -58q-97 0 -159 57.5t-62 148.5t62 149t159 58z" />
<glyph unicode="/" horiz-adv-x="819" d="M559 1427h240l-545 -1427h-234z" />
<glyph unicode="0" horiz-adv-x="1351" d="M678 1448q276 0 440 -199t164 -534q0 -337 -163.5 -536t-440.5 -199q-279 0 -443.5 199t-164.5 536q0 335 164.5 534t443.5 199zM678 1171q-131 0 -203 -119.5t-72 -336.5q0 -218 72 -337.5t203 -119.5q128 0 200 120t72 337q0 216 -72 336t-200 120z" />
<glyph unicode="1" horiz-adv-x="860" d="M446 1427h265v-1427h-328l2 948h-301v215q158 0 260 75t102 189z" />
<glyph unicode="2" horiz-adv-x="1222" d="M453 272h692v-272h-1065v27q0 61 9 117.5t22 100.5t36.5 87t44.5 73.5t54.5 63.5t56.5 53t61 46t58.5 38.5t58.5 34.5q156 91 239 175.5t83 180.5q0 78 -50.5 127.5t-129.5 49.5q-83 0 -140.5 -54.5t-60.5 -154.5h-316q5 146 74 256.5t186 168.5t265 58 q216 0 355.5 -121.5t139.5 -312.5q0 -55 -13 -106t-33 -92t-53.5 -81.5t-64 -69.5t-75.5 -62t-78 -54t-80 -49q-150 -84 -194 -118q-73 -56 -82 -110z" />
<glyph unicode="3" horiz-adv-x="1249" d="M879 741q133 -38 212.5 -133t79.5 -217q0 -173 -153.5 -292t-386.5 -119q-162 0 -288.5 59t-200 170.5t-76.5 259.5h327q4 -102 68 -159.5t160 -57.5q93 0 155 51.5t62 126.5q0 83 -73 134.5t-192 51.5h-71v220h71q107 0 173.5 52t66.5 134q0 74 -52.5 119t-135.5 45 q-90 0 -149.5 -57.5t-63.5 -163.5h-299q7 221 150 352t370 131q209 0 349 -109.5t140 -271.5q0 -110 -67 -199t-176 -127z" />
<glyph unicode="4" horiz-adv-x="1347" d="M1286 565v-270h-229v-295h-328v295h-649v240l584 892h393v-862h229zM731 1073l-340 -508h338z" />
<glyph unicode="5" horiz-adv-x="1241" d="M717 961q204 0 324 -133.5t120 -346.5q0 -218 -156.5 -359.5t-398.5 -141.5q-219 0 -371 128t-167 330h327q15 -78 74 -126t137 -48q94 0 157.5 66.5t63.5 171.5q0 103 -62 168t-159 65q-64 0 -115.5 -34.5t-80.5 -98.5h-308l119 825h256h613v-270h-646l-41 -323 q54 60 135 93.5t179 33.5z" />
<glyph unicode="6" horiz-adv-x="1257" d="M739 958q190 0 320.5 -129.5t130.5 -326.5q0 -230 -158 -376t-403 -146q-160 0 -288 65.5t-200.5 183t-72.5 263.5q0 157 94 299l430 636h387l-354 -483q52 14 114 14zM629 260q98 0 162.5 65.5t64.5 166.5t-64.5 167t-162.5 66t-163 -66t-65 -167t64.5 -166.5 t163.5 -65.5z" />
<glyph unicode="7" horiz-adv-x="1191" d="M80 1427h1032v-241l-541 -1186h-331l538 1155h-698v272z" />
<glyph unicode="8" horiz-adv-x="1320" d="M971 752q130 -47 201 -135t71 -211q0 -188 -159.5 -307t-421.5 -119t-423 119t-161 307q0 123 71 211t201 135q-101 46 -157 126.5t-56 184.5q0 171 144.5 278t380.5 107t379 -107t143 -278q0 -105 -55.5 -185t-157.5 -126zM662 1210q-102 0 -164 -51t-62 -137 q0 -83 62.5 -133.5t163.5 -50.5t163 50.5t62 133.5q0 86 -61.5 137t-163.5 51zM662 229q110 0 178.5 57.5t68.5 149.5t-68.5 148.5t-178.5 56.5q-112 0 -180 -56.5t-68 -148.5q0 -93 68 -150t180 -57z" />
<glyph unicode="9" horiz-adv-x="1257" d="M629 1448q160 0 288 -65.5t200.5 -183t72.5 -263.5q0 -157 -94 -299l-430 -637h-387l354 483q-52 -14 -115 -14q-190 0 -320 130t-130 327q0 230 158 376t403 146zM629 702q98 0 162.5 66.5t64.5 167.5t-64 166t-163 65t-163.5 -65t-64.5 -166t65 -167.5t163 -66.5z" />
<glyph unicode=":" horiz-adv-x="757" d="M379 983q97 0 159 -58t62 -149q0 -90 -62.5 -148.5t-158.5 -58.5q-95 0 -157 59t-62 148q0 91 62 149t157 58zM379 395q97 0 159 -58t62 -149t-62 -148.5t-159 -57.5q-96 0 -157.5 58t-61.5 148q0 91 62 149t157 58z" />
<glyph unicode=";" horiz-adv-x="751" d="M373 983q97 0 158 -58t61 -149q0 -90 -61.5 -148.5t-157.5 -58.5t-158.5 58.5t-62.5 148.5q0 91 62 149t159 58zM180 305h355l-201 -557h-250z" />
<glyph unicode="&#x3c;" horiz-adv-x="1030" d="M936 1100v-226l-576 -225l576 -227v-225l-842 352v194z" />
<glyph unicode="=" horiz-adv-x="1021" d="M94 922h834v-191h-834v191zM94 565h834v-190h-834v190z" />
<glyph unicode="&#x3e;" horiz-adv-x="1030" d="M94 1100l842 -357v-194l-842 -352v225l576 225l-576 227v226z" />
<glyph unicode="?" horiz-adv-x="1241" d="M631 1448q230 0 379 -115.5t149 -294.5q0 -146 -106.5 -251t-280.5 -136l-10 -143h-293l-18 303h61q154 0 233.5 53t79.5 137q0 73 -57 124t-147 51q-89 0 -148.5 -48.5t-64.5 -123.5h-326q0 193 155.5 318.5t393.5 125.5zM623 395q95 0 157 -58t62 -149 q0 -90 -61.5 -148t-157.5 -58q-97 0 -159.5 57.5t-62.5 148.5t62.5 149t159.5 58z" />
<glyph unicode="@" horiz-adv-x="2213" d="M1098 1454q293 0 528 -121.5t367.5 -338t132.5 -488.5q0 -239 -104.5 -382.5t-282.5 -143.5q-104 0 -172.5 54.5t-102.5 141.5q-68 -92 -172.5 -144t-224.5 -52q-137 0 -253.5 67.5t-186.5 190t-70 272.5q0 229 155 378.5t394 149.5q242 0 397.5 -149t155.5 -379v-145 q0 -78 25.5 -123t68.5 -45q65 0 103 83.5t38 225.5q0 212 -102.5 382t-285 265.5t-410.5 95.5q-222 0 -399.5 -95.5t-277.5 -265.5t-100 -382t100.5 -381t279 -263.5t401.5 -94.5q117 0 241 28.5t207 73.5v-236q-90 -34 -211 -54.5t-237 -20.5q-217 0 -405 71.5 t-321.5 196.5t-209.5 301.5t-76 380.5q0 203 76 379t209.5 300.5t321 195.5t403.5 71zM1114 264q96 0 159.5 69.5t63.5 176.5q0 105 -63.5 174.5t-159.5 69.5q-97 0 -159 -69t-62 -175q0 -107 62 -176.5t159 -69.5z" />
<glyph unicode="A" horiz-adv-x="1490" d="M1104 0l-74 223h-569l-74 -223h-375l523 1427h421l523 -1427h-375zM553 510h383l-191 582z" />
<glyph unicode="B" horiz-adv-x="1361" d="M1030 739q123 -34 196.5 -129.5t73.5 -230.5q0 -169 -112 -274t-287 -105h-774v1427h711q176 0 288.5 -101t112.5 -265q0 -111 -56 -195.5t-153 -126.5zM901 991q0 59 -39 97t-98 38h-289v-272h289q58 0 97.5 39t39.5 98zM807 301q60 0 99.5 39t39.5 100t-39.5 100.5 t-99.5 39.5h-332v-279h332z" />
<glyph unicode="C" horiz-adv-x="1626" d="M1554 592q-37 -271 -240.5 -441.5t-496.5 -170.5q-215 0 -386.5 94.5t-267 262.5t-95.5 378t95.5 377.5t267 261.5t386.5 94q293 0 496.5 -169.5t240.5 -440.5h-356q-31 130 -134 210t-247 80q-173 0 -284 -115.5t-111 -295.5q0 -182 111 -300t284 -118q143 0 245.5 81 t135.5 212h356z" />
<glyph unicode="D" horiz-adv-x="1460" d="M659 1427q212 0 380 -90.5t262 -253.5t94 -368q0 -206 -94 -369.5t-262 -254.5t-380 -91h-532v1427h532zM657 307q167 0 274 115t107 295q0 177 -107 290t-274 113h-182v-813h182z" />
<glyph unicode="E" horiz-adv-x="1241" d="M1147 1120h-672v-256h623v-293h-623v-264h672v-307h-1020v1427h1020v-307z" />
<glyph unicode="F" horiz-adv-x="1185" d="M1122 1120h-647v-286h600v-295h-600v-539h-348v1427h995v-307z" />
<glyph unicode="G" horiz-adv-x="1626" d="M1556 803q3 -35 3 -88q0 -159 -54.5 -295.5t-151.5 -233t-235.5 -151.5t-300.5 -55q-215 0 -386.5 94.5t-267 262.5t-95.5 378t95.5 377.5t267 261.5t386.5 94q266 0 467 -152t248 -387h-363q-42 108 -134.5 173t-215.5 65q-173 0 -285 -121t-112 -309q0 -189 112 -310.5 t285 -121.5q124 0 218.5 61.5t131.5 163.5h-350v293h737z" />
<glyph unicode="H" horiz-adv-x="1421" d="M946 1427h348v-1427h-348v559h-471v-559h-348v1427h348v-561h471v561z" />
<glyph unicode="I" horiz-adv-x="602" d="M475 1427v-1427h-348v1427h348z" />
<glyph unicode="J" horiz-adv-x="1263" d="M317 1427h840v-931q0 -225 -153 -370.5t-390 -145.5q-239 0 -392.5 145t-153.5 371v47h346v-60q0 -86 55 -139t143 -53t142.5 53t54.5 139v637h-492v307z" />
<glyph unicode="K" horiz-adv-x="1386" d="M1343 1427l-518 -694l510 -733h-401l-459 684v-684h-348v1427h348v-647l469 647h399z" />
<glyph unicode="L" horiz-adv-x="1122" d="M475 307h615v-307h-963v1427h348v-1120z" />
<glyph unicode="M" horiz-adv-x="1878" d="M1247 1427h504v-1427h-348v989l-318 -989h-292l-318 989v-989h-348v1427h504l309 -960z" />
<glyph unicode="N" horiz-adv-x="1497" d="M1022 1427h348v-1427h-440l-455 950v-950h-348v1427h442l453 -950v950z" />
<glyph unicode="O" horiz-adv-x="1634" d="M817 1448q215 0 386.5 -94t267.5 -261.5t96 -377.5t-96 -378t-267.5 -262.5t-386.5 -94.5t-386.5 94.5t-267 262.5t-95.5 378t95.5 377.5t267 261.5t386.5 94zM817 1128q-172 0 -283.5 -115.5t-111.5 -295.5q0 -182 111.5 -300t283.5 -118t283.5 118t111.5 300 q0 180 -111.5 295.5t-283.5 115.5z" />
<glyph unicode="P" horiz-adv-x="1320" d="M782 1427q220 0 361 -137t141 -352t-141 -352t-361 -137h-307v-449h-348v1427h655zM743 743q83 0 135 54t52 137t-52 134.5t-135 51.5h-268v-377h268z" />
<glyph unicode="Q" horiz-adv-x="1642" d="M1309 260l307 64v-324h-799q-161 0 -300.5 54.5t-238 149.5t-154.5 230t-56 291q0 155 56 289.5t154.5 229.5t238 149.5t300.5 54.5q209 0 379 -87.5t267.5 -244t97.5 -350.5q0 -157 -66.5 -288.5t-185.5 -217.5zM817 309q172 0 283.5 115t111.5 293q0 180 -111.5 295.5 t-283.5 115.5t-283.5 -115.5t-111.5 -295.5q0 -178 111.5 -293t283.5 -115z" />
<glyph unicode="R" horiz-adv-x="1404" d="M1313 299q9 -238 28 -299h-362q-6 28 -16 254q-3 105 -47.5 168t-118.5 63h-322v-485h-348v1427h694q226 0 361 -114t135 -307q0 -125 -59.5 -219.5t-167.5 -145.5q209 -74 223 -342zM782 766q82 0 130.5 48t48.5 130q0 81 -48.5 128.5t-130.5 47.5h-307v-354h307z" />
<glyph unicode="S" horiz-adv-x="1325" d="M662 1448q156 0 281 -60.5t196.5 -171t72.5 -251.5h-338q-1 91 -62 145.5t-159 54.5q-87 0 -142.5 -40t-55.5 -107q0 -42 27.5 -72t73.5 -48t106 -31t126 -27t132 -31t126 -47t106 -71t73.5 -107t27.5 -152q0 -209 -166.5 -330.5t-433.5 -121.5q-172 0 -304.5 59.5 t-207.5 170.5t-78 259h349q2 -91 72 -149t186 -58q100 0 164.5 43t64.5 113q0 41 -27.5 70t-73.5 46.5t-106 31t-126.5 27t-132.5 31t-126 47t-106 70t-73.5 105.5t-27.5 149q0 207 156.5 330t405.5 123z" />
<glyph unicode="T" horiz-adv-x="1187" d="M1163 1427v-307h-395v-1120h-348v1120h-395v307h1138z" />
<glyph unicode="U" horiz-adv-x="1374" d="M1268 1427v-913q0 -155 -73.5 -276.5t-205.5 -189.5t-299 -68q-169 0 -302.5 68t-207.5 189.5t-74 276.5v913h349v-895q0 -104 65 -168.5t168 -64.5t168.5 64.5t65.5 168.5v895h346z" />
<glyph unicode="V" horiz-adv-x="1474" d="M1094 1427h362l-516 -1427h-405l-517 1427h363l356 -1079z" />
<glyph unicode="W" horiz-adv-x="2115" d="M1731 1427h362l-422 -1427h-350l-266 934l-267 -934h-344l-421 1427h362l258 -950l262 950h301l262 -950z" />
<glyph unicode="X" horiz-adv-x="1542" d="M1507 0h-417l-318 494l-319 -494h-416l504 725l-488 702h416l303 -477l301 477h418l-487 -702z" />
<glyph unicode="Y" horiz-adv-x="1460" d="M1452 1427l-545 -864v-563h-348v553l-549 874h393l328 -573l328 573h393z" />
<glyph unicode="Z" horiz-adv-x="1361" d="M500 307h776v-307h-1198v289l768 831h-740v307h1162v-288z" />
<glyph unicode="[" horiz-adv-x="694" d="M655 1327h-235v-1501h235v-236h-524v1973h524v-236z" />
<glyph unicode="\" horiz-adv-x="819" d="M260 1427l539 -1427h-234l-545 1427h240z" />
<glyph unicode="]" horiz-adv-x="694" d="M39 1563h524v-1973h-524v236h235v1501h-235v236z" />
<glyph unicode="^" horiz-adv-x="733" d="M633 1032h-174l-92 230l-95 -230h-174l191 395h153z" />
<glyph unicode="_" horiz-adv-x="1198" d="M115 -174h966v-191h-966v191z" />
<glyph unicode="`" horiz-adv-x="598" d="M377 1427l221 -313h-248l-303 313h330z" />
<glyph unicode="a" d="M836 1018h327v-1018h-327v135q-127 -155 -326 -155q-195 0 -322 150t-127 380q0 229 127 378.5t322 149.5q199 0 326 -155v135zM616 264q95 0 157.5 69.5t62.5 176.5q0 106 -62.5 175t-157.5 69t-158 -69t-63 -175q0 -107 62.5 -176.5t158.5 -69.5z" />
<glyph unicode="b" d="M764 1038q195 0 321.5 -149.5t126.5 -378.5q0 -230 -126.5 -380t-321.5 -150q-199 0 -326 155v-135h-325v1427h325v-544q127 155 326 155zM659 264q95 0 157.5 69.5t62.5 176.5q0 106 -62.5 175t-157.5 69t-158 -69t-63 -175q0 -107 62.5 -176.5t158.5 -69.5z" />
<glyph unicode="c" horiz-adv-x="1214" d="M1155 434q-17 -198 -169 -326t-370 -128q-241 0 -398 150t-157 380q0 229 157 378.5t398 149.5q218 0 370 -128t169 -326h-328q-18 75 -74.5 122.5t-134.5 47.5q-97 0 -160 -69t-63 -175q0 -107 63 -176.5t160 -69.5q80 0 136.5 47.5t74.5 122.5h326z" />
<glyph unicode="d" d="M836 1427h327v-1427h-327v135q-127 -155 -326 -155q-195 0 -322 150t-127 380q0 229 127 378.5t322 149.5q199 0 326 -155v544zM616 264q95 0 157.5 69.5t62.5 176.5q0 106 -62.5 175t-157.5 69t-158 -69t-63 -175q0 -107 62.5 -176.5t158.5 -69.5z" />
<glyph unicode="e" horiz-adv-x="1230" d="M1169 504q0 -33 -2 -64h-759q15 -99 72 -156t141 -57q67 0 119 35t77 96h334q-44 -166 -194.5 -272t-340.5 -106q-241 0 -398 150t-157 380q0 229 157 378.5t398 149.5q242 0 397.5 -150.5t155.5 -383.5zM627 791q-73 0 -126.5 -42t-78.5 -116h409q-22 74 -76.5 116 t-127.5 42z" />
<glyph unicode="f" horiz-adv-x="751" d="M623 1176q-46 0 -76.5 -27.5t-30.5 -69.5v-61h195v-270h-195v-748h-328v748h-139v270h139v61q0 161 122 265t311 104q47 0 90 -6v-283q-57 17 -88 17z" />
<glyph unicode="g" d="M836 1018h327v-948q0 -217 -150.5 -358.5t-381.5 -141.5q-134 0 -247.5 51.5t-185.5 142.5t-87 205l303 -2q13 -60 70.5 -98.5t131.5 -38.5q95 0 157.5 62t62.5 157v148q-128 -144 -326 -144q-195 0 -322 139t-127 355q0 214 127 352.5t322 138.5q200 0 326 -145v125z M616 301q95 0 157.5 69t62.5 175q0 107 -62.5 176.5t-157.5 69.5q-96 0 -158.5 -69.5t-62.5 -176.5q0 -106 63 -175t158 -69z" />
<glyph unicode="h" horiz-adv-x="1206" d="M733 1038q164 0 267.5 -109.5t103.5 -281.5v-647h-328v600q0 79 -46 128.5t-120 49.5q-77 0 -124.5 -49.5t-47.5 -128.5v-600h-325v1427h325v-546q50 75 126 116t169 41z" />
<glyph unicode="i" horiz-adv-x="563" d="M475 1307q0 -77 -54 -127t-138 -50q-86 0 -140.5 50t-54.5 127t54.5 125.5t140.5 48.5q85 0 138.5 -48.5t53.5 -125.5zM119 1018h325v-1018h-325v1018z" />
<glyph unicode="j" horiz-adv-x="563" d="M475 1307q0 -77 -54 -127t-138 -50q-86 0 -140.5 50t-54.5 127t54.5 125.5t140.5 48.5q85 0 138.5 -48.5t53.5 -125.5zM444 1018v-1428h-325v1428h325z" />
<glyph unicode="k" horiz-adv-x="1175" d="M1147 1018l-385 -483l385 -535h-383l-326 477v-477h-325v1427h325v-839l326 430h383z" />
<glyph unicode="l" horiz-adv-x="550" d="M113 1427h325v-1427h-325v1427z" />
<glyph unicode="m" horiz-adv-x="1767" d="M1323 1038q152 0 248 -101.5t96 -262.5v-674h-328v627q0 69 -39 110t-104 41t-104 -41t-39 -110v-627h-328v627q0 69 -38.5 110t-104.5 41q-65 0 -104.5 -41t-39.5 -110v-627h-325v1018h325v-156q42 83 117 129.5t172 46.5t173.5 -49.5t115.5 -134.5q43 86 123.5 135 t183.5 49z" />
<glyph unicode="n" horiz-adv-x="1208" d="M741 1038q160 0 262.5 -109.5t102.5 -281.5v-647h-328v600q0 79 -46 128.5t-120 49.5q-77 0 -124.5 -49.5t-47.5 -128.5v-600h-327v1018h327v-135q52 73 129.5 114t171.5 41z" />
<glyph unicode="o" horiz-adv-x="1230" d="M616 1038q241 0 397 -149.5t156 -378.5q0 -231 -156 -380.5t-397 -149.5t-398 150t-157 380q0 229 157 378.5t398 149.5zM616 754q-97 0 -159 -69t-62 -175q0 -107 62 -176.5t159 -69.5q95 0 157.5 69.5t62.5 176.5q0 106 -62.5 175t-157.5 69z" />
<glyph unicode="p" d="M764 1038q195 0 321.5 -149.5t126.5 -378.5q0 -230 -126.5 -380t-321.5 -150q-199 0 -326 155v-545h-325v1428h325v-135q127 155 326 155zM659 264q95 0 157.5 69.5t62.5 176.5q0 106 -62.5 175t-157.5 69t-158 -69t-63 -175q0 -107 62.5 -176.5t158.5 -69.5z" />
<glyph unicode="q" d="M836 1018h327v-1428h-327v545q-127 -155 -326 -155q-195 0 -322 150t-127 380q0 229 127 378.5t322 149.5q199 0 326 -155v135zM616 264q95 0 157.5 69.5t62.5 176.5q0 106 -62.5 175t-157.5 69t-158 -69t-63 -175q0 -107 62.5 -176.5t158.5 -69.5z" />
<glyph unicode="r" horiz-adv-x="815" d="M438 799q54 121 146.5 187.5t210.5 66.5v-324q-161 0 -259 -68.5t-98 -183.5v-477h-325v1018h325v-219z" />
<glyph unicode="s" horiz-adv-x="1083" d="M532 1038q194 0 318.5 -95t124.5 -243h-295q-6 52 -45 83.5t-98 31.5q-54 0 -88.5 -24.5t-34.5 -61.5q0 -23 12.5 -39.5t50.5 -30.5t62 -20t91 -20q9 -2 13 -3q39 -9 66.5 -16.5t68.5 -21.5t70 -29t61.5 -39t52.5 -52t33 -66t13 -83q0 -144 -130 -236.5t-331 -92.5 q-206 0 -338.5 96.5t-132.5 247.5h313q8 -50 50.5 -81.5t107.5 -31.5q57 0 94 25t37 63q0 15 -6 27t-21 21.5t-29 16.5t-41.5 14.5t-46 12t-55.5 12.5t-57 13q-50 12 -91 26t-86.5 38.5t-76.5 54.5t-51.5 76t-20.5 102q0 143 122 234t314 91z" />
<glyph unicode="t" horiz-adv-x="817" d="M782 1018v-270h-225v-748h-328v748h-188v270h188v268h328v-268h225z" />
<glyph unicode="u" horiz-adv-x="1193" d="M1094 1018v-596q0 -194 -138.5 -318t-355.5 -124q-219 0 -358.5 124t-139.5 318v596h326v-596q0 -77 47.5 -125.5t122.5 -48.5t121.5 48.5t46.5 125.5v596h328z" />
<glyph unicode="v" horiz-adv-x="1175" d="M815 1018h346l-379 -1018h-389l-379 1018h346l228 -692z" />
<glyph unicode="w" horiz-adv-x="1753" d="M1401 1018h336l-287 -1018h-416l-157 555l-158 -555h-414l-289 1018h336l187 -752l192 752h291l192 -752z" />
<glyph unicode="x" horiz-adv-x="1251" d="M1225 0h-377l-221 334l-221 -334h-377l364 514l-356 504h377l213 -320l213 320h374l-354 -502z" />
<glyph unicode="y" horiz-adv-x="1208" d="M852 1018h342l-653 -1426h-342l260 512l-445 914h346l250 -582z" />
<glyph unicode="z" horiz-adv-x="1118" d="M502 272h536v-272h-962v242l530 506h-520v270h946v-242z" />
<glyph unicode="{" horiz-adv-x="681" d="M481 764q0 -133 -127 -186q127 -53 127 -187v-448q0 -69 32.5 -111.5t96.5 -42.5v-219q-115 0 -197.5 28.5t-129.5 80.5t-68.5 117t-21.5 147v448q0 44 -22.5 61t-80.5 17v219q58 0 80.5 16.5t22.5 59.5v442q0 81 21.5 146t68.5 116.5t129.5 80t197.5 28.5v-219 q-65 0 -97 -42t-32 -110v-442z" />
<glyph unicode="|" horiz-adv-x="548" d="M154 1638h241v-2048h-241v2048z" />
<glyph unicode="}" horiz-adv-x="681" d="M492 764q0 -43 21.5 -59.5t80.5 -16.5v-219q-59 0 -80.5 -16.5t-21.5 -61.5v-448q0 -82 -22 -147t-69.5 -117t-130.5 -80.5t-198 -28.5v219q64 0 96.5 42.5t32.5 111.5v448q0 136 129 187q-129 54 -129 186v442q0 68 -32 110t-97 42v219q115 0 198 -28.5t130.5 -80 t69.5 -116.5t22 -146v-442z" />
<glyph unicode="~" horiz-adv-x="1021" d="M94 758q117 37 232 37q81 0 185 -28t185 -28q96 0 232 37v-239q-136 -37 -232 -37q-81 0 -185 27.5t-185 27.5q-115 0 -232 -37v240z" />
<glyph unicode="&#xa1;" horiz-adv-x="735" d="M369 625q-97 0 -159.5 57.5t-62.5 148.5t62.5 149t159.5 58q95 0 157 -58t62 -149q0 -90 -61.5 -148t-157.5 -58zM575 -408h-417l63 920h293z" />
<glyph unicode="&#xa2;" horiz-adv-x="1214" d="M618 264q80 0 136.5 47.5t74.5 122.5h326q-13 -169 -130.5 -290t-293.5 -154v-150h-223v150q-200 34 -323.5 176t-123.5 344q0 201 124 343.5t323 174.5v150h223v-150q176 -33 293.5 -154t130.5 -290h-328q-18 75 -74.5 122.5t-134.5 47.5q-97 0 -160 -69t-63 -175 q0 -107 63 -176.5t160 -69.5z" />
<glyph unicode="&#xa3;" horiz-adv-x="1286" d="M485 307h707v-307h-1102v334q52 0 85.5 30.5t33.5 77.5v107h-119v239h121q10 143 69 266t154.5 209.5t227 135.5t282.5 49q96 0 182 -21v-344q-85 45 -182 45q-151 0 -258 -94.5t-127 -245.5h359v-239h-363v-62q0 -104 -70 -180z" />
<glyph unicode="&#xa4;" horiz-adv-x="989" d="M907 629q0 -138 -82 -244l103 -102l-86 -86l-107 104q-108 -68 -241 -68q-136 0 -240 68l-104 -104l-89 86l103 100q-82 102 -82 246q0 139 80 243l-101 101l89 86l104 -105q104 68 240 68q133 0 241 -68l107 107l86 -86l-103 -103q82 -106 82 -243zM494 440 q80 0 132 53.5t52 135.5q0 81 -52 133.5t-132 52.5t-133.5 -52.5t-53.5 -133.5t53.5 -135t133.5 -54z" />
<glyph unicode="&#xa5;" horiz-adv-x="1507" d="M1475 1427l-457 -720h229v-191h-987v191h229l-456 720h393l328 -573l327 573h394zM260 254v190h987v-190h-319v-254h-348v254h-320z" />
<glyph unicode="&#xa6;" horiz-adv-x="548" d="M154 879v759h241v-759h-241zM154 -410v760h241v-760h-241z" />
<glyph unicode="&#xa7;" horiz-adv-x="1376" d="M1290 432q0 -145 -90 -256q37 -67 37 -168q0 -192 -157 -315t-402 -123q-232 0 -386.5 124.5t-160.5 319.5h338q6 -69 63.5 -111t145.5 -42q90 0 147.5 41t57.5 108q0 46 -34.5 78.5t-90.5 48.5t-128 32.5t-146.5 30.5t-146.5 43t-128 68.5t-90.5 109.5t-34.5 163 q0 150 88 258q-35 68 -35 168q0 192 157 315t402 123q153 0 276 -56.5t194.5 -158t76.5 -229.5h-340q-4 69 -62 111t-147 42q-90 0 -146 -41t-56 -108q0 -42 27.5 -71.5t73.5 -47t106 -31t126 -27t132 -30.5t126 -46t106 -69.5t73.5 -105t27.5 -148.5zM391 584 q0 -45 34.5 -75.5t98 -48.5t131 -30t157 -30.5t153.5 -41.5q18 45 18 72q0 46 -34 77t-97.5 49t-130.5 30t-156.5 30.5t-152.5 40.5q-21 -44 -21 -73z" />
<glyph unicode="&#xa8;" horiz-adv-x="706" d="M299 1309q0 -59 -41.5 -96t-107.5 -37q-65 0 -107.5 37.5t-42.5 95.5q0 60 42.5 97.5t107.5 37.5q66 0 107.5 -37.5t41.5 -97.5zM707 1309q0 -59 -42 -96t-108 -37q-65 0 -107 37.5t-42 95.5q0 60 42 97.5t107 37.5q66 0 108 -37.5t42 -97.5z" />
<glyph unicode="&#xa9;" horiz-adv-x="1671" d="M836 1448q215 0 387 -94t268 -261.5t96 -377.5t-96 -378t-268 -262.5t-387 -94.5t-386.5 94.5t-267.5 262.5t-96 378t96 377.5t267.5 261.5t386.5 94zM836 1290q-167 0 -301 -73.5t-209.5 -204.5t-75.5 -295q0 -166 75.5 -298.5t209.5 -207t301 -74.5q255 0 420 164 t165 416q0 249 -165 411t-420 162zM1221 662q-11 -140 -118.5 -231t-262.5 -91q-170 0 -280.5 106t-110.5 269t110.5 267.5t280.5 104.5q155 0 262.5 -90.5t118.5 -230.5h-232q-12 53 -52 87t-95 34q-69 0 -113.5 -48.5t-44.5 -123.5q0 -76 44.5 -125t113.5 -49q56 0 96 34 t51 87h232z" />
<glyph unicode="&#xaa;" horiz-adv-x="925" d="M600 1434h213v-654h-213v86q-84 -100 -217 -100q-129 0 -214 96.5t-85 245.5t84.5 244.5t214.5 95.5q133 0 217 -100v86zM465 956q59 0 97 43t38 109q0 64 -38 105.5t-97 41.5q-62 0 -101.5 -41.5t-39.5 -105.5q0 -66 40 -109t101 -43z" />
<glyph unicode="&#xab;" horiz-adv-x="1193" d="M1075 913l-266 -391l266 -391h-276l-267 391l267 391h276zM631 913l-266 -391l266 -391h-277l-266 391l266 391h277z" />
<glyph unicode="&#xac;" horiz-adv-x="1118" d="M94 881h907v-521h-204v332h-703v189z" />
<glyph unicode="&#xad;" horiz-adv-x="1019" d="M94 676h832v-240h-832v240z" />
<glyph unicode="&#xae;" horiz-adv-x="1671" d="M836 1448q215 0 387 -94t268 -261.5t96 -377.5t-96 -378t-268 -262.5t-387 -94.5t-386.5 94.5t-267.5 262.5t-96 378t96 377.5t267.5 261.5t386.5 94zM836 137q255 0 420 164t165 416q0 249 -165 411t-420 162q-167 0 -301 -73.5t-209.5 -204.5t-75.5 -295 q0 -166 75.5 -298.5t209.5 -207t301 -74.5zM1161 842q0 -74 -39 -131t-104 -82l158 -269h-220l-139 250h-92v-250h-188v711h378q108 0 177 -64t69 -165zM725 899v-143h143q34 0 54 19.5t20 53.5q0 32 -20 51t-54 19h-143z" />
<glyph unicode="&#xaf;" horiz-adv-x="632" d="M0 1362h633v-205h-633v205z" />
<glyph unicode="&#xb0;" horiz-adv-x="720" d="M360 1436q115 0 189 -71.5t74 -182.5q0 -112 -73.5 -184t-189.5 -72q-114 0 -188 72t-74 184q0 110 74 182t188 72zM360 1321q-62 0 -102.5 -39.5t-40.5 -99.5q0 -61 40.5 -101.5t102.5 -40.5q63 0 104.5 40.5t41.5 101.5q0 60 -41.5 99.5t-104.5 39.5z" />
<glyph unicode="&#xb1;" horiz-adv-x="1064" d="M635 743h319v-190h-319v-178h-205v178h-319v190h319v340h205v-340zM111 115v192h843v-192h-843z" />
<glyph unicode="&#xb2;" horiz-adv-x="925" d="M401 1116h463v-231h-801v22q0 79 20 145.5t46.5 108.5t71 81t74 57t75.5 42q225 122 225 228q0 40 -29 66t-75 26q-48 0 -83.5 -31.5t-35.5 -89.5h-268q4 161 113.5 256.5t281.5 95.5q161 0 266 -86t105 -223q0 -224 -283 -373q-22 -12 -64.5 -33t-65.5 -34.5t-36 -26.5z " />
<glyph unicode="&#xb3;" horiz-adv-x="954" d="M694 1399q91 -28 146 -92.5t55 -147.5q0 -120 -114.5 -204.5t-288.5 -84.5q-183 0 -301 96t-121 255h278q3 -58 40.5 -88.5t94.5 -30.5q55 0 90 26.5t35 65.5q0 44 -45 71t-117 27h-57v187h55q69 0 110.5 29.5t41.5 76.5q0 39 -31 61.5t-78 22.5q-54 0 -90 -32.5 t-39 -96.5h-256q6 162 113.5 257t278.5 95q157 0 261.5 -77t104.5 -193q0 -73 -45.5 -133t-120.5 -90z" />
<glyph unicode="&#xb4;" horiz-adv-x="550" d="M223 1427h328l-303 -313h-248z" />
<glyph unicode="&#xb6;" horiz-adv-x="1366" d="M616 1427h605v-1632h-207v1442h-127v-1442h-207v645h-64q-231 0 -379.5 139.5t-148.5 358.5q0 215 148.5 352t379.5 137z" />
<glyph unicode="&#xb7;" horiz-adv-x="614" d="M307 864q95 0 157 -59t62 -150q0 -89 -62 -147.5t-157 -58.5q-97 0 -159 58.5t-62 147.5q0 91 62 150t159 59z" />
<glyph unicode="&#xb8;" horiz-adv-x="262" d="M66 -68q87 0 141.5 -47.5t54.5 -124.5t-54.5 -124.5t-141.5 -47.5q-30 0 -66 9v112q20 -4 37 -4q29 0 48 15t19 40t-19 40.5t-48 15.5q-17 0 -37 -4v114q24 6 66 6z" />
<glyph unicode="&#xb9;" horiz-adv-x="671" d="M330 1880h225v-995h-279v649h-217v160q118 0 194.5 51.5t76.5 134.5z" />
<glyph unicode="&#xba;" horiz-adv-x="882" d="M442 1448q155 0 256 -96.5t101 -245.5q0 -148 -101 -244t-256 -96q-156 0 -257 96t-101 244q0 149 100.5 245.5t257.5 96.5zM442 1249q-54 0 -89.5 -40.5t-35.5 -104.5q0 -61 35.5 -101t89.5 -40q53 0 88 40t35 101q0 64 -35 104.5t-88 40.5z" />
<glyph unicode="&#xbb;" horiz-adv-x="1193" d="M840 913l266 -391l-266 -391h-277l266 391l-266 391h277zM395 913l267 -391l-267 -391h-276l266 391l-266 391h276z" />
<glyph unicode="&#xbc;" horiz-adv-x="2138" d="M1331 1434h193l-871 -1434h-184zM555 434h-279v649h-217v160q118 0 194.5 52t76.5 135h225v-996zM2124 410v-205h-162v-205h-274l-5 205h-454v190l401 600h332v-585h162zM1688 756l-240 -346h235z" />
<glyph unicode="&#xbd;" horiz-adv-x="2164" d="M1331 1434h193l-871 -1434h-184zM555 434h-279v649h-217v160q118 0 194.5 52t76.5 135h225v-996zM1640 231h463v-231h-800v23q0 79 20 145.5t46.5 108.5t70.5 80.5t73.5 57t75.5 42.5q226 122 226 227q0 40 -29.5 66t-75.5 26q-48 0 -83.5 -31.5t-35.5 -89.5h-268 q4 161 113.5 257t281.5 96q161 0 266 -86.5t105 -223.5q0 -223 -283 -372q-20 -11 -64 -33t-66.5 -35.5t-35.5 -26.5z" />
<glyph unicode="&#xbe;" horiz-adv-x="2387" d="M895 709q0 -120 -114.5 -204.5t-288.5 -84.5q-183 0 -301 95.5t-121 254.5h278q3 -58 40.5 -88.5t94.5 -30.5q55 0 90 26.5t35 65.5q0 44 -45 71.5t-117 27.5h-57v186h55q69 0 110.5 29.5t41.5 77.5q0 39 -31 61.5t-78 22.5q-54 0 -90 -32.5t-39 -96.5h-256 q6 162 113.5 257t278.5 95q157 0 261.5 -77.5t104.5 -193.5q0 -73 -45.5 -133t-120.5 -90q91 -28 146 -92t55 -147zM1581 1434h193l-871 -1434h-184zM2372 410v-205h-162v-205h-275l-4 205h-454v190l401 600h332v-585h162zM1935 756l-239 -346h235z" />
<glyph unicode="&#xbf;" horiz-adv-x="1202" d="M600 623q-96 0 -157.5 58t-61.5 148q0 91 62 149t157 58q97 0 159 -58t62 -149t-62 -148.5t-159 -57.5zM813 14h328q0 -193 -155.5 -318.5t-393.5 -125.5q-230 0 -380.5 116t-150.5 294q0 146 107.5 251t282.5 136l10 143h293l16 -303h-59q-156 0 -236 -53.5t-80 -137.5 q0 -72 58.5 -123t148.5 -51q88 0 148 48.5t63 123.5z" />
<glyph unicode="&#xc0;" horiz-adv-x="1490" d="M899 1526h-248l-303 313h328zM1104 0l-74 223h-569l-74 -223h-375l523 1427h421l523 -1427h-375zM553 510h383l-191 582z" />
<glyph unicode="&#xc1;" horiz-adv-x="1490" d="M1143 1839l-303 -313h-248l223 313h328zM1104 0l-74 223h-569l-74 -223h-375l523 1427h421l523 -1427h-375zM553 510h383l-191 582z" />
<glyph unicode="&#xc2;" horiz-adv-x="1490" d="M745 1688l-149 -160h-250l225 313h316h31l225 -313h-248zM1104 0l-74 223h-569l-74 -223h-375l523 1427h421l523 -1427h-375zM553 510h383l-191 582z" />
<glyph unicode="&#xc3;" horiz-adv-x="1490" d="M625 1634q-28 0 -44 -25t-16 -69h-166q0 143 60.5 227t163.5 84q41 0 79 -16.5t61 -36.5t51.5 -36.5t53.5 -16.5q58 0 58 92h166q0 -141 -61 -226t-163 -85q-42 0 -80.5 17t-62 37t-51 37t-49.5 17zM1104 0l-74 223h-569l-74 -223h-375l523 1427h421l523 -1427h-375z M553 510h383l-191 582z" />
<glyph unicode="&#xc4;" horiz-adv-x="1490" d="M541 1587q-65 0 -107.5 37.5t-42.5 95.5q0 60 42.5 97.5t107.5 37.5q66 0 107.5 -37.5t41.5 -97.5q0 -59 -41.5 -96t-107.5 -37zM948 1587q-65 0 -107 37.5t-42 95.5q0 60 42 97.5t107 37.5q66 0 108 -37.5t42 -97.5q0 -59 -42 -96t-108 -37zM1104 0l-74 223h-569 l-74 -223h-375l523 1427h421l523 -1427h-375zM553 510h383l-191 582z" />
<glyph unicode="&#xc5;" horiz-adv-x="1490" d="M1104 0l-74 223h-569l-74 -223h-375l518 1415q-73 76 -73 191q0 123 83.5 201.5t213.5 78.5q129 0 213 -78.5t84 -201.5t-86 -203l514 -1403h-375zM754 1706q-44 0 -73.5 -28.5t-29.5 -71.5t29.5 -71t73.5 -28t73 28t29 71t-29 71.5t-73 28.5zM553 510h383l-191 582z" />
<glyph unicode="&#xc6;" horiz-adv-x="1943" d="M1851 1120h-782l92 -256h641v-293h-532l96 -264h485v-307h-665h-82l-74 223h-569l-74 -223h-375l523 1427h421h895v-307zM553 510h383l-191 582z" />
<glyph unicode="&#xc7;" horiz-adv-x="1626" d="M1554 592q-37 -271 -240.5 -441.5t-496.5 -170.5q-215 0 -386.5 94.5t-267 262.5t-95.5 378t95.5 377.5t267 261.5t386.5 94q293 0 496.5 -169.5t240.5 -440.5h-356q-31 130 -134 210t-247 80q-173 0 -284 -115.5t-111 -295.5q0 -182 111 -300t284 -118q143 0 245.5 81 t135.5 212h356zM784 -70q87 0 142 -47.5t55 -124.5t-55 -124.5t-142 -47.5q-33 0 -65 8v113q20 -4 37 -4q29 0 48 15t19 40t-19 40.5t-48 15.5q-17 0 -37 -4v114q24 6 65 6z" />
<glyph unicode="&#xc8;" horiz-adv-x="1241" d="M793 1526h-248l-303 313h327zM1147 1120h-672v-256h623v-293h-623v-264h672v-307h-1020v1427h1020v-307z" />
<glyph unicode="&#xc9;" horiz-adv-x="1241" d="M1036 1839l-303 -313h-248l224 313h327zM1147 1120h-672v-256h623v-293h-623v-264h672v-307h-1020v1427h1020v-307z" />
<glyph unicode="&#xca;" horiz-adv-x="1241" d="M641 1688l-149 -160h-250l225 313h315h31l225 -313h-247zM1147 1120h-672v-256h623v-293h-623v-264h672v-307h-1020v1427h1020v-307z" />
<glyph unicode="&#xcb;" horiz-adv-x="1241" d="M436 1587q-65 0 -107 37.5t-42 95.5q0 60 42 97.5t107 37.5q66 0 108 -37.5t42 -97.5q0 -59 -42 -96t-108 -37zM844 1587q-65 0 -107.5 37.5t-42.5 95.5q0 60 42.5 97.5t107.5 37.5q66 0 107.5 -37.5t41.5 -97.5q0 -59 -41.5 -96t-107.5 -37zM1147 1120h-672v-256h623 v-293h-623v-264h672v-307h-1020v1427h1020v-307z" />
<glyph unicode="&#xcc;" horiz-adv-x="602" d="M231 1839l224 -313h-248l-303 313h327zM475 1427v-1427h-348v1427h348z" />
<glyph unicode="&#xcd;" horiz-adv-x="602" d="M371 1839h327l-303 -313h-248zM475 1427v-1427h-348v1427h348z" />
<glyph unicode="&#xce;" horiz-adv-x="602" d="M301 1688l-149 -160h-250l225 313h315h31l225 -313h-247zM127 0v1427h348v-1427h-348z" />
<glyph unicode="&#xcf;" horiz-adv-x="602" d="M246 1720q0 -59 -42 -96t-108 -37q-65 0 -107 37.5t-42 95.5q0 60 42 97.5t107 37.5q66 0 108 -37.5t42 -97.5zM653 1720q0 -59 -41.5 -96t-107.5 -37q-65 0 -107.5 37.5t-42.5 95.5q0 60 42.5 97.5t107.5 37.5q66 0 107.5 -37.5t41.5 -97.5zM475 1427v-1427h-348v1427 h348z" />
<glyph unicode="&#xd0;" horiz-adv-x="1460" d="M659 1427q212 0 380 -90.5t262 -253.5t94 -368q0 -206 -94 -369.5t-262 -254.5t-380 -91h-532v612h-113v205h113v610h532zM657 307q167 0 274 115t107 295q0 177 -107 290t-274 113h-182v-303h174v-205h-174v-305h182z" />
<glyph unicode="&#xd1;" horiz-adv-x="1497" d="M627 1634q-28 0 -44 -25t-16 -69h-166q0 143 60.5 227t163.5 84q41 0 79 -16.5t61 -36.5t51.5 -36.5t53.5 -16.5q58 0 58 92h166q0 -141 -61 -226t-163 -85q-42 0 -80.5 17t-62 37t-51 37t-49.5 17zM1022 1427h348v-1427h-440l-455 950v-950h-348v1427h442l453 -950v950z " />
<glyph unicode="&#xd2;" horiz-adv-x="1634" d="M748 1839l223 -313h-248l-303 313h328zM817 1448q215 0 386.5 -94t267.5 -261.5t96 -377.5t-96 -378t-267.5 -262.5t-386.5 -94.5t-386.5 94.5t-267 262.5t-95.5 378t95.5 377.5t267 261.5t386.5 94zM817 1128q-172 0 -283.5 -115.5t-111.5 -295.5q0 -182 111.5 -300 t283.5 -118t283.5 118t111.5 300q0 180 -111.5 295.5t-283.5 115.5z" />
<glyph unicode="&#xd3;" horiz-adv-x="1634" d="M887 1839h327l-303 -313h-247zM817 1448q215 0 386.5 -94t267.5 -261.5t96 -377.5t-96 -378t-267.5 -262.5t-386.5 -94.5t-386.5 94.5t-267 262.5t-95.5 378t95.5 377.5t267 261.5t386.5 94zM817 1128q-172 0 -283.5 -115.5t-111.5 -295.5q0 -182 111.5 -300t283.5 -118 t283.5 118t111.5 300q0 180 -111.5 295.5t-283.5 115.5z" />
<glyph unicode="&#xd4;" horiz-adv-x="1634" d="M817 1688l-149 -160h-250l225 313h315h31l225 -313h-247zM817 1448q215 0 386.5 -94t267.5 -261.5t96 -377.5t-96 -378t-267.5 -262.5t-386.5 -94.5t-386.5 94.5t-267 262.5t-95.5 378t95.5 377.5t267 261.5t386.5 94zM817 299q172 0 283.5 118t111.5 300 q0 180 -111.5 295.5t-283.5 115.5t-283.5 -115.5t-111.5 -295.5q0 -182 111.5 -300t283.5 -118z" />
<glyph unicode="&#xd5;" horiz-adv-x="1634" d="M694 1851q41 0 79 -16.5t61.5 -36.5t52 -36.5t53.5 -16.5q57 0 57 92h166q0 -142 -60.5 -226.5t-162.5 -84.5q-42 0 -80.5 17t-62.5 37t-51.5 37t-49.5 17q-28 0 -43.5 -25t-15.5 -69h-166q0 143 60 227t163 84zM817 1448q215 0 386.5 -94t267.5 -261.5t96 -377.5 t-96 -378t-267.5 -262.5t-386.5 -94.5t-386.5 94.5t-267 262.5t-95.5 378t95.5 377.5t267 261.5t386.5 94zM817 1128q-172 0 -283.5 -115.5t-111.5 -295.5q0 -182 111.5 -300t283.5 -118t283.5 118t111.5 300q0 180 -111.5 295.5t-283.5 115.5z" />
<glyph unicode="&#xd6;" horiz-adv-x="1634" d="M762 1720q0 -59 -42 -96t-108 -37q-65 0 -107 37.5t-42 95.5q0 60 42 97.5t107 37.5q66 0 108 -37.5t42 -97.5zM1169 1720q0 -59 -41.5 -96t-107.5 -37q-65 0 -107.5 37.5t-42.5 95.5q0 60 42.5 97.5t107.5 37.5q66 0 107.5 -37.5t41.5 -97.5zM817 1448q215 0 386.5 -94 t267.5 -261.5t96 -377.5t-96 -378t-267.5 -262.5t-386.5 -94.5t-386.5 94.5t-267 262.5t-95.5 378t95.5 377.5t267 261.5t386.5 94zM817 1128q-172 0 -283.5 -115.5t-111.5 -295.5q0 -182 111.5 -300t283.5 -118t283.5 118t111.5 300q0 180 -111.5 295.5t-283.5 115.5z" />
<glyph unicode="&#xd7;" horiz-adv-x="1038" d="M928 922l-275 -275l275 -272l-135 -135l-275 274l-272 -274l-135 135l274 272l-274 275l135 135l274 -275l273 275z" />
<glyph unicode="&#xd8;" horiz-adv-x="1648" d="M1356 1241q101 -98 156 -233t55 -293q0 -210 -96 -378t-267.5 -262.5t-386.5 -94.5q-199 0 -373 88l-133 -170h-235l215 278q-107 99 -165 237.5t-58 301.5q0 210 95.5 377.5t267 261.5t386.5 94t383 -94l137 176h242zM422 717q0 -151 82 -264l491 637q-81 38 -178 38 q-172 0 -283.5 -115.5t-111.5 -295.5zM817 299q172 0 283.5 118t111.5 300q0 141 -71 248l-490 -631q75 -35 166 -35z" />
<glyph unicode="&#xd9;" horiz-adv-x="1374" d="M618 1839l224 -313h-248l-303 313h327zM1268 1427v-913q0 -155 -73.5 -276.5t-205.5 -189.5t-299 -68q-169 0 -302.5 68t-207.5 189.5t-74 276.5v913h349v-895q0 -104 65 -168.5t168 -64.5t168.5 64.5t65.5 168.5v895h346z" />
<glyph unicode="&#xda;" horiz-adv-x="1374" d="M756 1839h327l-303 -313h-248zM1268 1427v-913q0 -155 -73.5 -276.5t-205.5 -189.5t-299 -68q-169 0 -302.5 68t-207.5 189.5t-74 276.5v913h349v-895q0 -104 65 -168.5t168 -64.5t168.5 64.5t65.5 168.5v895h346z" />
<glyph unicode="&#xdb;" horiz-adv-x="1374" d="M688 1688l-149 -160h-250l225 313h315h31l225 -313h-247zM922 1427h346v-913q0 -155 -73.5 -276.5t-205.5 -189.5t-299 -68q-169 0 -302.5 68t-207.5 189.5t-74 276.5v913h349v-895q0 -104 65 -168.5t168 -64.5t168.5 64.5t65.5 168.5v895z" />
<glyph unicode="&#xdc;" horiz-adv-x="1374" d="M633 1720q0 -59 -42 -96t-108 -37q-65 0 -107 37.5t-42 95.5q0 60 42 97.5t107 37.5q66 0 108 -37.5t42 -97.5zM1040 1720q0 -59 -41.5 -96t-107.5 -37q-65 0 -107.5 37.5t-42.5 95.5q0 60 42.5 97.5t107.5 37.5q66 0 107.5 -37.5t41.5 -97.5zM1268 1427v-913 q0 -155 -73.5 -276.5t-205.5 -189.5t-299 -68q-169 0 -302.5 68t-207.5 189.5t-74 276.5v913h349v-895q0 -104 65 -168.5t168 -64.5t168.5 64.5t65.5 168.5v895h346z" />
<glyph unicode="&#xdd;" horiz-adv-x="1460" d="M1126 1839l-303 -313h-248l224 313h327zM1452 1427l-545 -864v-563h-348v553l-549 874h393l328 -573l328 573h393z" />
<glyph unicode="&#xde;" horiz-adv-x="1312" d="M778 1219q217 0 356.5 -136t139.5 -348t-139.5 -347.5t-356.5 -135.5h-303v-252h-348v1427h348v-208h303zM739 555q79 0 130 51t51 129q0 77 -51 126.5t-130 49.5h-264v-356h264z" />
<glyph unicode="&#xdf;" horiz-adv-x="1220" d="M938 772q104 -58 162.5 -152.5t58.5 -211.5q0 -186 -133 -305t-348 -119q-58 0 -133 16v289q54 -23 102 -23q79 0 128.5 49t49.5 125q0 85 -62 139t-159 54v244q55 1 91 42t36 103q0 61 -41 101t-104 40q-65 0 -106.5 -40.5t-41.5 -104.5v-1018h-325v1042 q0 175 133.5 290.5t339.5 115.5q207 0 343 -112.5t136 -284.5q0 -85 -33.5 -156.5t-93.5 -122.5z" />
<glyph unicode="&#xe0;" d="M799 1114h-248l-303 313h327zM836 1018h327v-1018h-327v135q-127 -155 -326 -155q-195 0 -322 150t-127 380q0 229 127 378.5t322 149.5q199 0 326 -155v135zM616 264q95 0 157.5 69.5t62.5 176.5q0 106 -62.5 175t-157.5 69t-158 -69t-63 -175q0 -107 62.5 -176.5 t158.5 -69.5z" />
<glyph unicode="&#xe1;" d="M1042 1427l-303 -313h-247l223 313h327zM836 1018h327v-1018h-327v135q-127 -155 -326 -155q-195 0 -322 150t-127 380q0 229 127 378.5t322 149.5q199 0 326 -155v135zM616 264q95 0 157.5 69.5t62.5 176.5q0 106 -62.5 175t-157.5 69t-158 -69t-63 -175 q0 -107 62.5 -176.5t158.5 -69.5z" />
<glyph unicode="&#xe2;" d="M647 1276l-149 -160h-250l225 314h315h31l225 -314h-247zM836 1018h327v-1018h-327v135q-127 -155 -326 -155q-195 0 -322 150t-127 380q0 229 127 378.5t322 149.5q199 0 326 -155v135zM616 264q95 0 157.5 69.5t62.5 176.5q0 106 -62.5 175t-157.5 69t-158 -69 t-63 -175q0 -107 62.5 -176.5t158.5 -69.5z" />
<glyph unicode="&#xe3;" d="M524 1223q-28 0 -43.5 -25.5t-15.5 -69.5h-166q0 143 60 227.5t163 84.5q41 0 79 -16.5t61.5 -37t52 -37t53.5 -16.5q57 0 57 92h166q0 -142 -60.5 -226.5t-162.5 -84.5q-42 0 -80.5 17t-62.5 37.5t-51.5 37.5t-49.5 17zM836 1018h327v-1018h-327v135 q-127 -155 -326 -155q-195 0 -322 150t-127 380q0 229 127 378.5t322 149.5q199 0 326 -155v135zM616 264q95 0 157.5 69.5t62.5 176.5q0 106 -62.5 175t-157.5 69t-158 -69t-63 -175q0 -107 62.5 -176.5t158.5 -69.5z" />
<glyph unicode="&#xe4;" d="M442 1176q-65 0 -107 37.5t-42 95.5q0 60 42 97.5t107 37.5q66 0 108 -37.5t42 -97.5q0 -59 -42 -96t-108 -37zM850 1176q-65 0 -107.5 37.5t-42.5 95.5q0 60 42.5 97.5t107.5 37.5q66 0 107.5 -37.5t41.5 -97.5q0 -59 -41.5 -96t-107.5 -37zM836 1018h327v-1018h-327 v135q-127 -155 -326 -155q-195 0 -322 150t-127 380q0 229 127 378.5t322 149.5q199 0 326 -155v135zM616 264q95 0 157.5 69.5t62.5 176.5q0 106 -62.5 175t-157.5 69t-158 -69t-63 -175q0 -107 62.5 -176.5t158.5 -69.5z" />
<glyph unicode="&#xe5;" d="M647 1096q-131 0 -214 77.5t-83 200.5t83.5 202t213.5 79q129 0 212 -79t83 -202t-83 -200.5t-212 -77.5zM647 1475q-44 0 -73 -29t-29 -72t29 -71.5t73 -28.5t72.5 28.5t28.5 71.5t-28.5 72t-72.5 29zM836 1018h327v-1018h-327v135q-127 -155 -326 -155q-195 0 -322 150 t-127 380q0 229 127 378.5t322 149.5q199 0 326 -155v135zM616 264q95 0 157.5 69.5t62.5 176.5q0 106 -62.5 175t-157.5 69t-158 -69t-63 -175q0 -107 62.5 -176.5t158.5 -69.5z" />
<glyph unicode="&#xe6;" horiz-adv-x="2164" d="M2103 504q0 -33 -2 -64h-760q15 -99 72 -156t141 -57q67 0 120.5 35.5t76.5 95.5h334q-44 -166 -193.5 -272t-339.5 -106q-247 0 -407 157v-137h-309v135q-127 -155 -326 -155q-195 0 -322 150t-127 380q0 229 127 378.5t322 149.5q199 0 326 -155v135h309v-137 q160 157 407 157q240 0 395.5 -150.5t155.5 -383.5zM1561 791q-73 0 -126.5 -42t-78.5 -116h411q-23 74 -77.5 116t-128.5 42zM616 264q95 0 157.5 69.5t62.5 176.5q0 106 -62.5 175t-157.5 69t-158 -69t-63 -175q0 -107 62.5 -176.5t158.5 -69.5z" />
<glyph unicode="&#xe7;" horiz-adv-x="1214" d="M1155 434q-17 -198 -169 -326t-370 -128q-241 0 -398 150t-157 380q0 229 157 378.5t398 149.5q218 0 370 -128t169 -326h-328q-18 75 -74.5 122.5t-134.5 47.5q-97 0 -160 -69t-63 -175q0 -107 63 -176.5t160 -69.5q80 0 136.5 47.5t74.5 122.5h326zM584 -74 q87 0 141.5 -47.5t54.5 -124.5t-54.5 -124.5t-141.5 -47.5q-34 0 -66 8v113q20 -4 37 -4q30 0 49 15.5t19 39.5q0 25 -19.5 40.5t-48.5 15.5q-12 0 -37 -5v115q24 6 66 6z" />
<glyph unicode="&#xe8;" horiz-adv-x="1230" d="M770 1114h-248l-303 313h328zM1169 504q0 -33 -2 -64h-759q15 -99 72 -156t141 -57q67 0 119 35t77 96h334q-44 -166 -194.5 -272t-340.5 -106q-241 0 -398 150t-157 380q0 229 157 378.5t398 149.5q242 0 397.5 -150.5t155.5 -383.5zM627 791q-73 0 -126.5 -42 t-78.5 -116h409q-22 74 -76.5 116t-127.5 42z" />
<glyph unicode="&#xe9;" horiz-adv-x="1230" d="M1014 1427l-303 -313h-248l223 313h328zM1169 504q0 -33 -2 -64h-759q15 -99 72 -156t141 -57q67 0 119 35t77 96h334q-44 -166 -194.5 -272t-340.5 -106q-241 0 -398 150t-157 380q0 229 157 378.5t398 149.5q242 0 397.5 -150.5t155.5 -383.5zM627 791 q-73 0 -126.5 -42t-78.5 -116h409q-22 74 -76.5 116t-127.5 42z" />
<glyph unicode="&#xea;" horiz-adv-x="1230" d="M618 1276l-149 -160h-250l225 314h316h31l225 -314h-248zM1169 504q0 -33 -2 -64h-759q15 -99 72 -156t141 -57q67 0 119 35t77 96h334q-44 -166 -194.5 -272t-340.5 -106q-241 0 -398 150t-157 380q0 229 157 378.5t398 149.5q242 0 397.5 -150.5t155.5 -383.5zM627 791 q-73 0 -126.5 -42t-78.5 -116h409q-22 74 -76.5 116t-127.5 42z" />
<glyph unicode="&#xeb;" horiz-adv-x="1230" d="M414 1176q-65 0 -107.5 37.5t-42.5 95.5q0 60 42.5 97.5t107.5 37.5q66 0 107.5 -37.5t41.5 -97.5q0 -59 -41.5 -96t-107.5 -37zM821 1176q-65 0 -107 37.5t-42 95.5q0 60 42 97.5t107 37.5q66 0 108 -37.5t42 -97.5q0 -59 -42 -96t-108 -37zM1169 504q0 -33 -2 -64h-759 q15 -99 72 -156t141 -57q67 0 119 35t77 96h334q-44 -166 -194.5 -272t-340.5 -106q-241 0 -398 150t-157 380q0 229 157 378.5t398 149.5q242 0 397.5 -150.5t155.5 -383.5zM627 791q-73 0 -126.5 -42t-78.5 -116h409q-22 74 -76.5 116t-127.5 42z" />
<glyph unicode="&#xec;" horiz-adv-x="571" d="M215 1427l223 -313h-248l-303 313h328zM123 1018h326v-1018h-326v1018z" />
<glyph unicode="&#xed;" horiz-adv-x="571" d="M354 1427h328l-303 -313h-248zM123 1018h326v-1018h-326v1018z" />
<glyph unicode="&#xee;" horiz-adv-x="571" d="M287 1274l-121 -160h-211l192 313h277l192 -313h-210zM123 0v1018h326v-1018h-326z" />
<glyph unicode="&#xef;" horiz-adv-x="604" d="M270 1315q0 -59 -41.5 -97t-107.5 -38q-65 0 -107.5 38.5t-42.5 96.5t42.5 96.5t107.5 38.5q66 0 107.5 -38t41.5 -97zM633 1315q0 -59 -42 -97t-108 -38q-65 0 -107 38.5t-42 96.5t42 96.5t107 38.5q66 0 108 -38t42 -97zM139 1018h326v-1018h-326v1018z" />
<glyph unicode="&#xf0;" horiz-adv-x="1220" d="M971 913q101 -118 144.5 -209t43.5 -206q0 -227 -151 -372.5t-394 -145.5q-244 0 -398.5 145.5t-154.5 372.5q0 139 67 249.5t179 170t246 59.5q39 0 80 -6l-113 127l-92 -70l-109 107l99 75l-195 217h320l59 -71l109 84l110 -107l-121 -94zM614 260q96 0 158 67t62 171 q0 103 -62.5 170t-157.5 67q-96 0 -157.5 -67t-61.5 -170q0 -104 61 -171t158 -67z" />
<glyph unicode="&#xf1;" horiz-adv-x="1208" d="M487 1223q-28 0 -43.5 -25.5t-15.5 -69.5h-166q0 143 60 227.5t163 84.5q41 0 79 -16.5t61.5 -37t52 -37t53.5 -16.5q57 0 57 92h166q0 -142 -60.5 -226.5t-162.5 -84.5q-42 0 -80.5 17t-62.5 37.5t-51.5 37.5t-49.5 17zM741 1038q160 0 262.5 -109.5t102.5 -281.5v-647 h-328v600q0 79 -46 128.5t-120 49.5q-77 0 -124.5 -49.5t-47.5 -128.5v-600h-327v1018h327v-135q52 73 129.5 114t171.5 41z" />
<glyph unicode="&#xf2;" horiz-adv-x="1230" d="M547 1427l223 -313h-248l-303 313h328zM616 1038q241 0 397 -149.5t156 -378.5q0 -231 -156 -380.5t-397 -149.5t-398 150t-157 380q0 229 157 378.5t398 149.5zM616 754q-97 0 -159 -69t-62 -175q0 -107 62 -176.5t159 -69.5q95 0 157.5 69.5t62.5 176.5 q0 106 -62.5 175t-157.5 69z" />
<glyph unicode="&#xf3;" horiz-adv-x="1230" d="M686 1427h328l-303 -313h-248zM616 1038q241 0 397 -149.5t156 -378.5q0 -231 -156 -380.5t-397 -149.5t-398 150t-157 380q0 229 157 378.5t398 149.5zM616 754q-97 0 -159 -69t-62 -175q0 -107 62 -176.5t159 -69.5q95 0 157.5 69.5t62.5 176.5q0 106 -62.5 175 t-157.5 69z" />
<glyph unicode="&#xf4;" horiz-adv-x="1230" d="M618 1276l-149 -160h-250l225 314h316h31l225 -314h-248zM616 1038q241 0 397 -149.5t156 -378.5q0 -231 -156 -380.5t-397 -149.5t-398 150t-157 380q0 229 157 378.5t398 149.5zM616 264q95 0 157.5 69.5t62.5 176.5q0 106 -62.5 175t-157.5 69q-97 0 -159 -69 t-62 -175q0 -107 62 -176.5t159 -69.5z" />
<glyph unicode="&#xf5;" horiz-adv-x="1230" d="M494 1440q41 0 79 -16.5t61 -37t51.5 -37t53.5 -16.5q58 0 58 92h166q0 -141 -61 -226t-163 -85q-42 0 -80.5 17t-62 37.5t-51 37.5t-49.5 17q-28 0 -44 -25.5t-16 -69.5h-166q0 143 60.5 227.5t163.5 84.5zM616 1038q241 0 397 -149.5t156 -378.5q0 -231 -156 -380.5 t-397 -149.5t-398 150t-157 380q0 229 157 378.5t398 149.5zM616 754q-97 0 -159 -69t-62 -175q0 -107 62 -176.5t159 -69.5q95 0 157.5 69.5t62.5 176.5q0 106 -62.5 175t-157.5 69z" />
<glyph unicode="&#xf6;" horiz-adv-x="1230" d="M563 1309q0 -59 -41.5 -96t-107.5 -37q-65 0 -107.5 37.5t-42.5 95.5q0 60 42.5 97.5t107.5 37.5q66 0 107.5 -37.5t41.5 -97.5zM971 1309q0 -59 -42 -96t-108 -37q-65 0 -107 37.5t-42 95.5q0 60 42 97.5t107 37.5q66 0 108 -37.5t42 -97.5zM616 1038q241 0 397 -149.5 t156 -378.5q0 -231 -156 -380.5t-397 -149.5t-398 150t-157 380q0 229 157 378.5t398 149.5zM616 754q-97 0 -159 -69t-62 -175q0 -107 62 -176.5t159 -69.5q95 0 157.5 69.5t62.5 176.5q0 106 -62.5 175t-157.5 69z" />
<glyph unicode="&#xf7;" horiz-adv-x="1116" d="M557 1106q60 0 96.5 -34.5t36.5 -90.5q0 -55 -37 -90t-96 -35q-58 0 -95.5 35.5t-37.5 89.5q0 55 37 90t96 35zM94 743h928v-190h-928v190zM557 440q59 0 96 -35t37 -90t-37 -90t-96 -35q-57 0 -95 35t-38 90t38 90t95 35z" />
<glyph unicode="&#xf8;" horiz-adv-x="1230" d="M991 909q84 -72 131 -175t47 -224q0 -231 -156 -380.5t-397 -149.5q-139 0 -251 53l-97 -135h-170l148 208q-88 72 -136.5 176t-48.5 228q0 229 157 378.5t398 149.5q139 0 254 -53l95 135h176zM395 510q0 -78 37 -141l264 370q-37 15 -80 15q-97 0 -159 -69t-62 -175z M616 264q95 0 157.5 69.5t62.5 176.5q0 71 -33 135l-264 -369q37 -12 77 -12z" />
<glyph unicode="&#xf9;" horiz-adv-x="1193" d="M528 1427l224 -313h-248l-303 313h327zM1094 1018v-596q0 -194 -138.5 -318t-355.5 -124q-219 0 -358.5 124t-139.5 318v596h326v-596q0 -77 47.5 -125.5t122.5 -48.5t121.5 48.5t46.5 125.5v596h328z" />
<glyph unicode="&#xfa;" horiz-adv-x="1193" d="M668 1427h327l-303 -313h-248zM1094 1018v-596q0 -194 -138.5 -318t-355.5 -124q-219 0 -358.5 124t-139.5 318v596h326v-596q0 -77 47.5 -125.5t122.5 -48.5t121.5 48.5t46.5 125.5v596h328z" />
<glyph unicode="&#xfb;" horiz-adv-x="1193" d="M600 1276l-149 -160h-250l225 314h315h31l225 -314h-247zM766 1018h328v-596q0 -194 -138.5 -318t-355.5 -124q-219 0 -358.5 124t-139.5 318v596h326v-596q0 -77 47.5 -125.5t122.5 -48.5t121.5 48.5t46.5 125.5v596z" />
<glyph unicode="&#xfc;" horiz-adv-x="1193" d="M545 1309q0 -59 -42 -96t-108 -37q-65 0 -107 37.5t-42 95.5q0 60 42 97.5t107 37.5q66 0 108 -37.5t42 -97.5zM952 1309q0 -59 -41.5 -96t-107.5 -37q-65 0 -107.5 37.5t-42.5 95.5q0 60 42.5 97.5t107.5 37.5q66 0 107.5 -37.5t41.5 -97.5zM1094 1018v-596 q0 -194 -138.5 -318t-355.5 -124q-219 0 -358.5 124t-139.5 318v596h326v-596q0 -77 47.5 -125.5t122.5 -48.5t121.5 48.5t46.5 125.5v596h328z" />
<glyph unicode="&#xfd;" horiz-adv-x="1208" d="M1001 1427l-303 -313h-247l223 313h327zM852 1018h342l-653 -1426h-342l260 512l-445 914h346l250 -582z" />
<glyph unicode="&#xfe;" horiz-adv-x="1275" d="M766 1038q195 0 321.5 -149.5t126.5 -378.5q0 -230 -126.5 -380t-321.5 -150q-199 0 -326 155v-545h-327v1837h327v-544q127 155 326 155zM662 264q95 0 156 69.5t61 176.5q0 106 -61 175t-156 69t-158.5 -69t-63.5 -175q0 -107 63 -176.5t159 -69.5z" />
<glyph unicode="&#xff;" horiz-adv-x="1208" d="M399 1176q-65 0 -107 37.5t-42 95.5q0 60 42 97.5t107 37.5q66 0 108 -37.5t42 -97.5q0 -59 -42 -96t-108 -37zM807 1176q-65 0 -107.5 37.5t-42.5 95.5q0 60 42.5 97.5t107.5 37.5q66 0 107.5 -37.5t41.5 -97.5q0 -59 -41.5 -96t-107.5 -37zM852 1018h342l-653 -1426 h-342l260 512l-445 914h346l250 -582z" />
<glyph unicode="&#x152;" horiz-adv-x="2080" d="M1989 1120h-672v-256h622v-293h-622v-264h672v-307h-985q-98 -20 -187 -20q-215 0 -386.5 94.5t-267 262.5t-95.5 378t95.5 377.5t267 261.5t386.5 94q99 0 187 -21h985v-307zM422 717q0 -182 111.5 -300t283.5 -118q84 0 152 35v760q-67 34 -152 34 q-172 0 -283.5 -115.5t-111.5 -295.5z" />
<glyph unicode="&#x153;" horiz-adv-x="2031" d="M1970 504q0 -33 -2 -64h-760q15 -99 72 -156t141 -57q67 0 119.5 35.5t77.5 95.5h334q-45 -168 -185.5 -273t-328.5 -105q-133 0 -240.5 48t-179.5 136q-71 -87 -179 -135.5t-237 -48.5q-235 0 -388 150t-153 380q0 229 153 378.5t388 149.5q129 0 237 -48.5t179 -135.5 q72 88 179.5 136t240.5 48q238 0 385 -149.5t147 -384.5zM1427 791q-81 0 -137 -49t-76 -136h426q-17 85 -74.5 135t-138.5 50zM616 264q95 0 157.5 69.5t62.5 176.5q0 106 -62.5 175t-157.5 69q-97 0 -159 -69t-62 -175q0 -107 62 -176.5t159 -69.5z" />
<glyph unicode="&#x178;" horiz-adv-x="1460" d="M526 1587q-65 0 -107 37.5t-42 95.5q0 60 42 97.5t107 37.5q66 0 108 -37.5t42 -97.5q0 -59 -42 -96t-108 -37zM934 1587q-65 0 -107.5 37.5t-42.5 95.5q0 60 42.5 97.5t107.5 37.5q66 0 107.5 -37.5t41.5 -97.5q0 -59 -41.5 -96t-107.5 -37zM1452 1427l-545 -864v-563 h-348v553l-549 874h393l328 -573l328 573h393z" />
<glyph unicode="&#x2c6;" horiz-adv-x="796" d="M797 1114h-250l-150 160l-149 -160h-248l225 313h316h30z" />
<glyph unicode="&#x2dc;" horiz-adv-x="692" d="M223 1440q41 0 79 -16.5t61.5 -37t52 -37t53.5 -16.5q57 0 57 92h166q0 -142 -60.5 -226.5t-162.5 -84.5q-42 0 -80.5 17t-62.5 37.5t-51.5 37.5t-49.5 17q-28 0 -43.5 -25.5t-15.5 -69.5h-166q0 143 60 227.5t163 84.5z" />
<glyph unicode="&#x2000;" horiz-adv-x="946" />
<glyph unicode="&#x2001;" horiz-adv-x="1892" />
<glyph unicode="&#x2002;" horiz-adv-x="946" />
<glyph unicode="&#x2003;" horiz-adv-x="1892" />
<glyph unicode="&#x2004;" horiz-adv-x="630" />
<glyph unicode="&#x2005;" horiz-adv-x="473" />
<glyph unicode="&#x2006;" horiz-adv-x="315" />
<glyph unicode="&#x2007;" horiz-adv-x="315" />
<glyph unicode="&#x2008;" horiz-adv-x="236" />
<glyph unicode="&#x2009;" horiz-adv-x="378" />
<glyph unicode="&#x200a;" horiz-adv-x="105" />
<glyph unicode="&#x2010;" horiz-adv-x="1019" d="M94 676h832v-240h-832v240z" />
<glyph unicode="&#x2011;" horiz-adv-x="1019" d="M94 676h832v-240h-832v240z" />
<glyph unicode="&#x2012;" horiz-adv-x="1019" d="M94 676h832v-240h-832v240z" />
<glyph unicode="&#x2013;" horiz-adv-x="1175" d="M94 670h987v-189h-987v189z" />
<glyph unicode="&#x2014;" horiz-adv-x="2170" d="M94 670h1983v-189h-1983v189z" />
<glyph unicode="&#x2018;" horiz-adv-x="602" d="M451 870h-353l201 557h248z" />
<glyph unicode="&#x2019;" horiz-adv-x="602" d="M150 1427h354l-201 -557h-250z" />
<glyph unicode="&#x201a;" horiz-adv-x="602" d="M150 305h354l-201 -557h-250z" />
<glyph unicode="&#x201c;" horiz-adv-x="1085" d="M451 870h-353l201 557h248zM936 870h-354l200 557h250z" />
<glyph unicode="&#x201d;" horiz-adv-x="1085" d="M150 1427h354l-201 -557h-250zM635 1427h352l-201 -557h-247z" />
<glyph unicode="&#x201e;" horiz-adv-x="1085" d="M150 305h354l-201 -557h-250zM635 305h352l-201 -557h-247z" />
<glyph unicode="&#x2022;" horiz-adv-x="786" d="M393 801q123 0 203 -77t80 -194t-80 -192.5t-203 -75.5q-122 0 -202 75.5t-80 192.5t80 194t202 77z" />
<glyph unicode="&#x2026;" horiz-adv-x="1781" d="M330 395q95 0 157 -58t62 -149q0 -90 -61.5 -148t-157.5 -58q-97 0 -159 57.5t-62 148.5t62 149t159 58zM891 395q95 0 157 -58t62 -149q0 -90 -61.5 -148t-157.5 -58q-97 0 -159 57.5t-62 148.5t62 149t159 58zM1452 395q97 0 158 -58t61 -149t-61 -148.5t-158 -57.5 t-159 57.5t-62 148.5t62 149t159 58z" />
<glyph unicode="&#x202f;" horiz-adv-x="378" />
<glyph unicode="&#x2039;" horiz-adv-x="749" d="M631 913l-266 -391l266 -391h-277l-266 391l266 391h277z" />
<glyph unicode="&#x203a;" horiz-adv-x="749" d="M395 913l267 -391l-267 -391h-276l266 391l-266 391h276z" />
<glyph unicode="&#x205f;" horiz-adv-x="473" />
<glyph unicode="&#x20ac;" horiz-adv-x="1267" d="M1040 940l-53 -188h-924v188h158q68 231 261.5 369.5t455.5 138.5q123 0 236 -35l-89 -311q-70 26 -147 26q-109 0 -196.5 -50t-137.5 -138h436zM602 489q52 -89 139.5 -139.5t196.5 -50.5q100 0 186 47v-346q-81 -20 -186 -20q-263 0 -457 139t-262 370h-156v191h902 l-56 -191h-307z" />
<glyph unicode="&#x2122;" horiz-adv-x="1779" d="M82 1253v174h620v-174h-210v-591h-199v591h-211zM1380 1427h297v-765h-198v503l-152 -503h-192l-152 495v-495h-199v765h299l148 -481z" />
<glyph unicode="&#x25fc;" horiz-adv-x="1013" d="M0 1014h1014v-1014h-1014v1014z" />
<glyph unicode="&#xfb03;" horiz-adv-x="1902" d="M1622 1130q-85 0 -140 50t-55 127q0 76 55 125t140 49t139 -49t54 -125q0 -77 -54.5 -127t-138.5 -50zM1786 1018v-1018h-328v748h-307v-748h-328v748h-139h-168v-748h-328v748h-139v270h139v61q0 161 122 265t311 104q47 0 90 -6v-283q-57 17 -88 17q-46 0 -76.5 -27.5 t-30.5 -69.5v-61h195h112v61q0 161 121.5 265t310.5 104q47 0 91 -6v-283q-57 17 -89 17q-46 0 -76 -27t-30 -70v-61h635z" />
<glyph unicode="&#xfb04;" horiz-adv-x="1904" d="M1466 1427h328v-1427h-328v748h-315v-748h-328v748h-139h-168v-748h-328v748h-139v270h139v61q0 161 122 265t311 104q47 0 90 -6v-283q-57 17 -88 17q-46 0 -76.5 -27.5t-30.5 -69.5v-61h195h112v61q0 161 121.5 265t310.5 104q47 0 91 -6v-283q-57 17 -89 17 q-46 0 -76 -27t-30 -70v-61h315v409z" />
</font>
</defs>
</svg>
