<?xml version="1.0" encoding="UTF-8"?>
<svg width="45px" height="50px" viewBox="0 0 45 50" version="1.1" xmlns="http://www.w3.org/2000/svg" xmlns:xlink="http://www.w3.org/1999/xlink">
    <!-- Generator: Sketch 40.3 (33839) - http://www.bohemiancoding.com/sketch -->
    <title>Pinterest</title>
    <desc>Created with Sketch.</desc>
    <defs>
        <path d="M42.4645317,38.9503147 L24.4868595,49.3237413 C23.1878209,50.0733916 21.587551,50.0733916 20.2885124,49.3237413 L2.31084022,38.9503147 C1.01215152,38.2006643 0.211666667,36.816049 0.211666667,35.3167483 L0.211666667,14.5702448 C0.211666667,13.0712937 1.01215152,11.6863287 2.31084022,10.937028 L20.2885124,0.563951049 C21.587551,-0.185699301 23.1878209,-0.185699301 24.4868595,0.563951049 L42.4645317,10.937028 C43.7635702,11.6863287 44.5637052,13.0712937 44.5637052,14.5702448 L44.5637052,35.3167483 C44.5637052,36.816049 43.7635702,38.2006643 42.4645317,38.9503147 L42.4645317,38.9503147 Z" id="path-1"></path>
        <filter x="-50%" y="-50%" width="200%" height="200%" filterUnits="objectBoundingBox" id="filter-2">
            <feGaussianBlur stdDeviation="1" in="SourceAlpha" result="shadowBlurInner1"></feGaussianBlur>
            <feOffset dx="0" dy="0" in="shadowBlurInner1" result="shadowOffsetInner1"></feOffset>
            <feComposite in="shadowOffsetInner1" in2="SourceAlpha" operator="arithmetic" k2="-1" k3="1" result="shadowInnerInner1"></feComposite>
            <feColorMatrix values="0 0 0 0 0   0 0 0 0 0   0 0 0 0 0  0 0 0 0.355242301 0" type="matrix" in="shadowInnerInner1"></feColorMatrix>
        </filter>
    </defs>
    <g id="Page-1" stroke="none" stroke-width="1" fill="none" fill-rule="evenodd">
        <g id="KTC-Landing-768" transform="translate(-677.000000, -4767.000000)">
            <g id="Footer" transform="translate(1.000000, 4718.000000)">
                <g id="SocialMediaIcons" transform="translate(496.000000, 49.000000)">
                    <g id="Pinterest" transform="translate(180.217631, 0.000000)">
                        <g id="Stroke-197">
                            <use fill="#FFFFFF" fill-rule="evenodd" xlink:href="#path-1"></use>
                            <use fill="black" fill-opacity="1" filter="url(#filter-2)" xlink:href="#path-1"></use>
                        </g>
                        <path d="M22.000577,11 C14.2691964,11 8,17.2677438 8,25.0011541 C8,30.7318715 11.4479234,35.6578188 16.3818814,37.8228505 C16.3422589,36.8465089 16.3753418,35.6708982 16.623463,34.6072322 C16.8938959,33.4716292 18.4249385,26.9799962 18.4249385,26.9799962 C18.4249385,26.9799962 17.9790897,26.0859781 17.9790897,24.7638007 C17.9790897,22.6895557 19.1819968,21.1400269 20.6780332,21.1400269 C21.9509528,21.1400269 22.5672167,22.0967494 22.5672167,23.242739 C22.5672167,24.5218311 21.7505324,26.4364301 21.330842,28.209848 C20.9800102,29.6966724 22.0748211,30.9065205 23.539698,30.9065205 C26.1920947,30.9065205 27.9785676,27.5000962 27.9785676,23.463166 C27.9785676,20.3960377 25.9124294,18.0994422 22.1536813,18.0994422 C17.9075384,18.0994422 15.262066,21.2654357 15.262066,24.801885 C15.262066,26.0232737 15.6209763,26.8826697 16.1837691,27.5477977 C16.4445849,27.8555491 16.4788218,27.9774957 16.3849589,28.3298711 C16.3187932,28.5849202 16.1645349,29.2077323 16.099908,29.4527794 C16.006045,29.8066936 15.7194554,29.9351798 15.4005523,29.8032314 C13.442895,29.005001 12.5323478,26.8626659 12.5323478,24.4541258 C12.5323478,20.4783612 15.8856389,15.707059 22.5372113,15.707059 C27.8827813,15.707059 31.4014865,19.5778034 31.4014865,23.728217 C31.4014865,29.2208117 28.3490184,33.3231391 23.8462912,33.3231391 C22.3367909,33.3231391 20.9142292,32.5064435 20.4264498,31.5801116 C20.4264498,31.5801116 19.6132276,34.8049625 19.4424279,35.4273899 C19.1458365,36.5060589 18.5641942,37.5858819 18.0329454,38.4252741 C19.2924011,38.7976534 20.6226387,39 22.000577,39 C29.7319576,39 36,32.7322562 36,25.0011541 C36,17.2677438 29.7319576,11 22.000577,11 L22.000577,11 Z" id="Stroke-168" fill="#CC2127"></path>
                    </g>
                </g>
            </g>
        </g>
    </g>
</svg>