<?xml version="1.0" encoding="utf-8"?>
<!-- Generator: Adobe Illustrator 17.1.0, SVG Export Plug-In . SVG Version: 6.00 Build 0)  -->
<!DOCTYPE svg PUBLIC "-//W3C//DTD SVG 1.1//EN" "http://www.w3.org/Graphics/SVG/1.1/DTD/svg11.dtd">
<svg version="1.1" id="Layer_1" xmlns="http://www.w3.org/2000/svg" xmlns:xlink="http://www.w3.org/1999/xlink" x="0px" y="0px"
	 viewBox="0 0 500 500" enable-background="new 0 0 500 500" xml:space="preserve">
<g>
	<g>
		<path fill="#ED1C24" d="M336,243.7v-27.5c0-8.2-7.6-14.2-15.8-14.2h-41.9c-8.2,0-14.3,6-14.3,14.2v2.4v25.1
			c-13,9.5-21.5,23.8-23.6,40.2c0,0-0.2,0-0.2,0.1c-0.3,2.4-0.6,4.9-0.6,7.3c0,32.9,26.7,59.5,59.6,59.5s60-26.7,60-59.5
			C359.3,271.9,350,254.6,336,243.7z M299.2,216.6c4.5,0,8.1,3.6,8.1,8.1s-3.6,8.1-8.1,8.1s-8.1-3.6-8.1-8.1
			S294.8,216.6,299.2,216.6z M322.4,314.5c-6.2,6.2-14.4,9.6-23.2,9.6c-8.8,0-17-3.4-23.2-9.6c-4.2-4.2-7.1-9.3-8.5-14.9
			c-0.3-1.3-0.6-2.6-0.8-3.9c0-0.1,0-0.3,0-0.4c-0.1-0.5-0.1-1-0.1-1.5c0-0.2,0-0.3,0-0.5c0-0.6-0.1-1.3-0.1-1.9
			c0-0.6,0-1.2,0.1-1.8c0-0.2,0-0.3,0-0.5c0-0.5,0.1-0.9,0.1-1.4c0-0.1,0-0.3,0.1-0.4c0.1-0.5,0.1-1,0.2-1.5c0-0.1,0-0.2,0.1-0.3
			c0.1-0.6,0.2-1.2,0.4-1.8c1.4-5.8,4.4-11.1,8.7-15.5c6.2-6.2,14.4-9.6,23.2-9.6s17,3.4,23.2,9.6s9.6,14.4,9.6,23.2
			C332.1,300.1,328.6,308.3,322.4,314.5z"/>
		<path fill="#ED1C24" d="M232.5,314.5c-3.5,3.8-7.9,6.7-12.9,8.5c-8.2,3-17.1,2.6-25.1-1.1c-7.9-3.7-14-10.3-16.9-18.5
			c-3-8.2-2.6-17.1,1.1-25.1c3.7-7.9,10.3-14,18.5-16.9c8.2-3,17.1-2.6,25.1,1.1c3.7,1.7,7,4.1,9.7,6.9c1.1-3.5,2.9-6.9,4.5-10.2
			c4-7.8,10.4-14.9,16.4-20.8v-22.2c0-0.9-0.3-1.8-0.2-2.7l-25.1-11.7c-7.4-3.5-16.3-0.3-19.8,7.2l-11.7,24.9
			c-17.7,3.7-33.5,15.4-41.7,33c-13.9,29.8-1.1,65.2,28.7,79.2c21.5,10.1,45.9,6.1,63.1-8c-5.1-5.7-9.2-12.2-12.2-19.3
			C233.5,317.4,233,316,232.5,314.5z M235.3,220.5c4.5,0,8.1,3.6,8.1,8.1c0,4.5-3.6,8.1-8.1,8.1c-4.5,0-8.1-3.6-8.1-8.1
			C227.2,224.2,230.8,220.5,235.3,220.5z"/>
		<path fill="#ED1C24" d="M247.9,205c11.2,0,20.4-9.2,20.4-20.4c0-0.3,0-0.5,0-0.8c1,0.1,2,0.2,3,0.2c3.1,0,6-0.7,8.6-1.9
			c2.7,8.1,10.3,14,19.4,14c11.2,0,20.4-9.2,20.4-20.4c0-11.2-9.2-20.4-20.4-20.4c-3.1,0-6,0.7-8.6,1.9c-2.7-8.1-10.3-14-19.4-14
			c-11.2,0-20.4,9.2-20.4,20.4c0,0.3,0,0.5,0,0.8c-1-0.1-2-0.2-3-0.2c-11.2,0-20.4,9.2-20.4,20.4S236.7,205,247.9,205z M299.2,166.5
			c5.1,0,9.3,4.2,9.3,9.3s-4.2,9.3-9.3,9.3s-9.3-4.2-9.3-9.3C290,170.7,294.1,166.5,299.2,166.5z M271.3,154.4
			c5.1,0,9.3,4.2,9.3,9.3s-4.2,9.3-9.3,9.3s-9.3-4.2-9.3-9.3S266.2,154.4,271.3,154.4z M247.9,175.4c5.1,0,9.3,4.2,9.3,9.3
			s-4.2,9.3-9.3,9.3s-9.3-4.2-9.3-9.3C238.7,179.5,242.8,175.4,247.9,175.4z"/>
	</g>
</g>
</svg>
