<?xml version="1.0" encoding="utf-8"?>
<!-- Generator: Adobe Illustrator 13.0.0, SVG Export Plug-In . SVG Version: 6.00 Build 14948)  -->
<!DOCTYPE svg PUBLIC "-//W3C//DTD SVG 1.1//EN" "http://www.w3.org/Graphics/SVG/1.1/DTD/svg11.dtd">
<svg version="1.1" id="Capa_1" xmlns="http://www.w3.org/2000/svg" xmlns:xlink="http://www.w3.org/1999/xlink" x="0px" y="0px"
	 width="612px" height="792px" viewBox="0 0 612 792" enable-background="new 0 0 612 792" xml:space="preserve">
<g>
	<g>
		<path fill="#0172B8" d="M478.399,456.053c8.996,4.498,13.495,12.148,13.495,22.945v87.039v15.52
			c0,6.746-2.024,12.596-6.073,17.544s-9.223,7.422-15.52,7.422H138.999c-5.848,0-10.796-2.474-14.845-7.422
			s-6.073-10.798-6.073-17.544v-15.52v-87.039c0-10.797,4.499-18.445,13.495-22.945l93.116-43.184L261.129,396
			c-17.094-10.346-30.139-25.191-39.136-44.534c-8.547-17.094-12.82-35.312-12.82-54.655c0-5.848,0.45-11.471,1.35-16.869
			c0.9-5.398,2.024-10.571,3.374-15.52c6.297-22.941,17.656-41.834,34.075-56.679c16.419-14.844,35.425-22.267,57.017-22.267
			c22.041,0,41.385,7.647,58.029,22.941s27.891,34.637,33.737,58.029c2.25,11.246,3.377,21.367,3.377,30.364
			c0,17.993-3.601,35.312-10.795,51.956c-8.996,20.242-22.042,35.537-39.136,45.883l38.46,18.219L478.399,456.053L478.399,456.053z
			 M118.082,427.712c-9.896,4.499-17.656,11.362-23.279,20.58c-5.623,9.223-8.435,19.455-8.435,30.706v87.039h-69.5
			c-4.948,0-8.997-1.909-12.146-5.731C1.574,556.479,0,551.644,0,545.798v-82.321c0-9.9,3.599-16.195,10.796-18.895L115.383,396
			c-12.596-7.647-22.717-18.556-30.364-32.726c-7.647-14.17-11.471-30.026-11.471-47.57c0-12.146,2.024-23.729,6.073-34.75
			c4.049-11.021,9.559-20.58,16.532-28.677c6.972-8.097,15.069-14.507,24.291-19.23s19.23-7.085,30.026-7.085
			c7.197,0,13.945,1.125,20.243,3.374c6.297,2.249,12.37,5.173,18.218,8.771c-7.647,18.893-11.471,38.461-11.471,58.704
			c0,15.744,2.249,30.926,6.747,45.546c4.499,14.62,10.796,27.777,18.893,39.473c-4.948,5.398-10.121,9.671-15.519,12.82
			L118.082,427.712z M601.205,444.582c7.194,3.599,10.795,9.897,10.795,18.895v82.319c0,5.847-1.576,10.682-4.722,14.507
			c-3.15,3.823-7.199,5.732-12.15,5.732h-71.522v-87.04c0-11.246-2.813-21.479-8.433-30.705
			c-5.625-9.219-13.159-16.082-22.604-20.58L425.769,396c-6.297-3.599-12.374-8.772-18.218-15.52
			c7.649-11.695,13.608-24.628,17.88-38.798c4.275-14.17,6.41-29.127,6.41-44.871c0-10.346-0.899-20.243-2.697-29.689
			c-1.801-9.447-4.499-18.668-8.098-27.665c5.847-4.048,12.146-7.31,18.893-9.784c6.748-2.474,13.721-3.711,20.921-3.711
			c10.797,0,20.918,2.362,30.36,7.085c9.446,4.723,17.66,11.133,24.633,19.23c6.968,8.097,12.479,17.656,16.526,28.677
			c4.054,11.021,6.077,22.604,6.077,34.75c0,17.094-3.826,32.726-11.471,46.895c-7.65,14.17-17.319,25.079-29.014,32.726
			L601.205,444.582L601.205,444.582z"/>
	</g>
</g>
</svg>
