<?xml version="1.0" encoding="utf-8"?>
<!-- Generator: Adobe Illustrator 13.0.0, SVG Export Plug-In . SVG Version: 6.00 Build 14948)  -->
<!DOCTYPE svg PUBLIC "-//W3C//DTD SVG 1.1//EN" "http://www.w3.org/Graphics/SVG/1.1/DTD/svg11.dtd">
<svg version="1.1" id="Capa_1" xmlns="http://www.w3.org/2000/svg" xmlns:xlink="http://www.w3.org/1999/xlink" x="0px" y="0px"
	 width="31.666px" height="31.666px" viewBox="0 0 31.666 31.666" enable-background="new 0 0 31.666 31.666" xml:space="preserve">
<g>
	<g>
		<path fill="#0172B8" d="M27.31,26.339v-1.265c0-1.239-1.004-2.243-2.244-2.243h-0.051v-7.389c-1.49-0.097-3.014-0.7-4.139-1.795
			c-1.98-1.928-1.992-3.884-1.841-4.885c0.085-0.552,0.253-1.049,0.474-1.492c0.139-0.28,0.123-0.612-0.041-0.878
			c-0.166-0.266-0.455-0.427-0.77-0.427h-5.737c-0.312,0-0.603,0.161-0.767,0.427s-0.18,0.598-0.042,0.878
			c0.22,0.443,0.389,0.94,0.473,1.492c0.153,1.001,0.087,2.957-1.893,4.885c-1.096,1.067-2.466,1.667-4.072,1.787v7.398H6.501
			c-1.116,0-2.021,0.903-2.021,2.021v1.485v0.048H3.803c-1.336,0-2.419,1.083-2.419,2.42v2.057h29.025v-2.49
			c0-1.096-0.891-1.982-1.982-1.982h-1.115L27.31,26.339L27.31,26.339z M19.51,16.216c0-0.883,0.724-1.598,1.605-1.598
			s1.606,0.715,1.606,1.598v6.615h-3.158h-0.056L19.51,16.216L19.51,16.216z M14.232,16.216c0-0.883,0.723-1.598,1.606-1.598
			c0.884,0,1.606,0.715,1.606,1.598v6.615h-0.012h-3.195h-0.006V16.216L14.232,16.216z M8.955,16.216
			c0-0.883,0.666-1.598,1.549-1.598c0.883,0,1.549,0.715,1.549,1.598v6.615H8.955V16.216z"/>
		<path fill="#0172B8" d="M30.037,3.274c-1.522-1.632-3.999-2.471-7.358-2.471h-3.271h-3.641h-3.508H8.987
			c-3.359,0-5.835,0.839-7.358,2.471C0.441,4.545-0.115,6.256,0.02,8.209c0.165,2.399,1.796,4.494,4.154,5.33
			c0.676,0.241,1.358,0.36,2.013,0.36c1.363-0.001,2.619-0.505,3.515-1.466c1.048-1.122,1.186-2.269,1.118-3.031
			c-0.183-2.02-1.973-3.405-2.176-3.556C7.938,5.321,6.948,5.468,6.419,6.169C5.89,6.87,6.03,7.869,6.728,8.404
			c0.345,0.265,0.873,0.858,0.909,1.29c0.006,0.068,0.02,0.247-0.273,0.56c-0.532,0.57-1.445,0.516-2.123,0.277
			c-0.879-0.313-1.94-1.164-2.034-2.536C3.135,6.933,3.39,6.08,3.964,5.462c0.882-0.945,2.619-1.447,5.022-1.447h3.271h3.508h3.64
			h3.271c2.401,0,4.139,0.502,5.021,1.447c0.572,0.618,0.83,1.469,0.757,2.531c-0.099,1.393-1.183,2.251-2.082,2.562
			c-0.666,0.23-1.556,0.275-2.058-0.281c-0.313-0.347-0.295-0.544-0.285-0.618c0.041-0.424,0.554-0.99,0.887-1.24
			c0.709-0.517,0.867-1.512,0.354-2.224c-0.518-0.715-1.516-0.875-2.229-0.36c-0.201,0.146-1.972,1.478-2.185,3.482
			c-0.082,0.771,0.039,1.936,1.09,3.1c0.885,0.982,2.146,1.5,3.521,1.5c0.638,0,1.296-0.11,1.954-0.338
			c2.4-0.829,4.061-2.933,4.227-5.362C31.78,6.261,31.224,4.545,30.037,3.274z"/>
	</g>
</g>
</svg>
