<?xml version="1.0" encoding="UTF-8"?>
<svg width="56px" height="57px" viewBox="0 0 56 57" version="1.1" xmlns="http://www.w3.org/2000/svg" xmlns:xlink="http://www.w3.org/1999/xlink">
    <!-- Generator: Sketch 41.1 (35376) - http://www.bohemiancoding.com/sketch -->
    <title>Houses</title>
    <desc>Created with Sketch.</desc>
    <defs>
        <path d="M18.1314338,29.8077947 L3.75684481,29.8077947 C1.68199671,29.8077947 0,28.1413271 0,26.092886 L0,3.71490871 C0,1.66322128 1.68168909,0 3.74942906,0 L24.4858651,0 C26.5566175,0 28.2352941,1.6509885 28.2352941,3.74099476 L28.235294,9.42795139" id="path-1"></path>
        <mask id="mask-2" maskContentUnits="userSpaceOnUse" maskUnits="objectBoundingBox" x="0" y="0" width="28.2352941" height="29.8077947" fill="white">
            <use xlink:href="#path-1"></use>
        </mask>
    </defs>
    <g id="LandingPage" stroke="none" stroke-width="1" fill="none" fill-rule="evenodd" stroke-linecap="round" stroke-linejoin="round">
        <g id="NW-Landing-1400" transform="translate(-208.000000, -671.000000)" stroke="#000000">
            <g id="Group" transform="translate(100.000000, 508.000000)">
                <g id="Section-1" transform="translate(0.000000, 163.000000)">
                    <g id="Houses" transform="translate(110.000000, 2.000000)">
                        <g id="hood" stroke-width="4.5">
                            <polygon id="Stroke-1" fill="#FFFFFF" points="4.42047824 40 4.42047824 14.1197183 19.44959 0.563380282 34.4787018 14.1197183 34.4787018 40"></polygon>
                            <polyline id="Stroke-1" points="0.423919244 17.2131343 19.44959 0.563380282 37.7708219 17.2131343"></polyline>
                        </g>
                        <g id="Deeds" transform="translate(20.000000, 20.000000)">
                            <use id="Rectangle-543" mask="url(#mask-2)" stroke-width="9" fill="#FFFFFF" xlink:href="#path-1"></use>
                            <path d="M8.47058824,9.25 L19.7647059,9.25" id="Line" stroke-width="4.5"></path>
                            <path d="M8.47058824,17.875 L17.3714284,17.875" id="Line-Copy" stroke-width="4.5"></path>
                            <g id="Group-5" transform="translate(17.855462, 11.177923)" stroke-width="4.5" fill="#FFFFFF">
                                <polyline id="Oval-181" points="11.4065699 12.3472855 11.4065699 21.3234964 6.81231856 18.6136969 1.8236822 21.3234964 1.8236822 12.3472855"></polyline>
                                <ellipse id="Oval-181" cx="6.61512605" cy="6.56305979" rx="6.5026738" ry="6.43577386"></ellipse>
                            </g>
                        </g>
                    </g>
                </g>
            </g>
        </g>
    </g>
</svg>