<?xml version="1.0" encoding="UTF-8"?>
<svg width="58px" height="42px" viewBox="0 0 58 42" version="1.1" xmlns="http://www.w3.org/2000/svg" xmlns:xlink="http://www.w3.org/1999/xlink">
    <!-- Generator: Sketch 41.1 (35376) - http://www.bohemiancoding.com/sketch -->
    <title>Neighbors</title>
    <desc>Created with Sketch.</desc>
    <defs></defs>
    <g id="LandingPage" stroke="none" stroke-width="1" fill="none" fill-rule="evenodd" stroke-linecap="round" stroke-linejoin="round">
        <g id="NW-Landing-1400" transform="translate(-827.000000, -679.000000)" stroke="#000000" stroke-width="4.5">
            <g id="Group" transform="translate(100.000000, 508.000000)">
                <g id="Section-1" transform="translate(0.000000, 163.000000)">
                    <g id="Neighbors" transform="translate(729.000000, 11.000000)">
                        <path d="M31.3463415,10.65 C31.3463415,14.5067899 29.0465585,17.6333333 26.2097561,17.6333333 C23.3729537,17.6333333 21.0731707,14.5067899 21.0731707,10.65 C21.0731707,6.79321013 23.3729537,3.66666667 26.2097561,3.66666667 C29.0465585,3.66666667 31.3463415,6.79321013 31.3463415,10.65 L31.3463415,10.65 Z" id="Stroke-1"></path>
                        <path d="M35.4352871,25.9095652 C35.0234994,24.0237681 33.3688876,22.6811594 31.4571596,22.6811594 L29.9164709,22.6811594 C28.8045006,23.484058 27.5378588,23.9371014 26.1822594,23.9371014 C24.82666,23.9371014 23.5600183,23.484058 22.448048,22.6811594 L21.3377994,22.6811594 C19.4260714,22.6811594 17.7714596,24.0237681 17.3596719,25.9095652 L15.0146341,36.6478261 L37.7803248,36.6478261 L35.4352871,25.9095652 L35.4352871,25.9095652 Z" id="Stroke-3"></path>
                        <path d="M47.3646001,5.58666667 C47.3646001,8.6721455 45.4887421,11.1733333 43.174983,11.1733333 C40.8612239,11.1733333 38.9853659,8.6721455 38.9853659,5.58666667 C38.9853659,2.50118784 40.8612239,0 43.174983,0 C45.4887421,0 47.3646001,2.50118784 47.3646001,5.58666667 L47.3646001,5.58666667 Z" id="Stroke-5"></path>
                        <path d="M38.1000719,30.5794274 L52.8010366,30.5794274 L50.69525,18.3072464 C50.3658199,16.7988406 49.04236,15.7246377 47.5128628,15.7246377 L46.2803693,15.7246377 C45.390793,16.3669565 44.37725,16.7295652 43.2928279,16.7295652 C42.2084058,16.7295652 41.1951497,16.3669565 40.3055735,15.7246377 L39.4171451,15.7246377 C37.8879349,15.7246377 36.564188,16.7988406 36.2347579,18.3072464 L34.8072599,23.1520325" id="Stroke-7"></path>
                        <path d="M6.45365854,5.58666667 C6.45365854,8.6721455 8.32951656,11.1733333 10.6432757,11.1733333 C12.9570347,11.1733333 14.8328928,8.6721455 14.8328928,5.58666667 C14.8328928,2.50118784 12.9570347,0 10.6432757,0 C8.32951656,0 6.45365854,2.50118784 6.45365854,5.58666667 L6.45365854,5.58666667 Z" id="Stroke-9"></path>
                        <path d="M15.5096948,30.651042 L0.808730044,30.651042 L3.19321815,18.3072464 C3.52264832,16.7988406 4.84610819,15.7246377 6.3756054,15.7246377 L7.60809892,15.7246377 C8.49767516,16.3669565 9.51121815,16.7295652 10.5956403,16.7295652 C11.6800624,16.7295652 12.6933184,16.3669565 13.5828947,15.7246377 L14.4713231,15.7246377 C16.0005333,15.7246377 17.3242801,16.7988406 17.6537103,18.3072464 L18.9046306,23.1878398" id="Stroke-11"></path>
                    </g>
                </g>
            </g>
        </g>
    </g>
</svg>