<?xml version="1.0" encoding="UTF-8"?>
<svg width="65px" height="62px" viewBox="0 0 65 62" version="1.1" xmlns="http://www.w3.org/2000/svg" xmlns:xlink="http://www.w3.org/1999/xlink">
    <!-- Generator: Sketch 41.1 (35376) - http://www.bohemiancoding.com/sketch -->
    <title>Owners</title>
    <desc>Created with Sketch.</desc>
    <defs></defs>
    <g id="LandingPage" stroke="none" stroke-width="1" fill="none" fill-rule="evenodd">
        <g id="NW-Landing-1400" transform="translate(-518.000000, -675.000000)">
            <g id="Group" transform="translate(100.000000, 508.000000)">
                <g id="Section-1" transform="translate(0.000000, 163.000000)">
                    <g id="Owners" transform="translate(447.000000, 39.500000) rotate(-15.000000) translate(-447.000000, -39.500000) translate(414.000000, 8.000000)">
                        <g transform="translate(20.000000, 23.500000) rotate(139.000000) translate(-20.000000, -23.500000) translate(1.000000, 15.000000)" stroke="#000000" stroke-linecap="round" stroke-linejoin="round">
                            <ellipse id="Oval-168" stroke-width="4.5" fill="#FFFFFF" cx="8.27039007" cy="8.5" rx="8.2535461" ry="8.46320346"></ellipse>
                            <path d="M15.6461637,4.75767722 L34.7365459,4.75767722 L37.6704236,8.52934021 L34.7365459,12.3010032 L32.1511372,10.7305809 L29.6981751,12.3010032 L26.5247124,10.7305809 L23.9146485,12.3010032 L20.8635411,10.7305809 L17.2826596,10.9187223" id="Path-1035" stroke-width="4.5" fill="#FFFFFF"></path>
                            <ellipse id="Oval-169" stroke-width="2.43" cx="6.79432624" cy="8.65367965" rx="1.65070922" ry="1.69264069"></ellipse>
                        </g>
                        <g id="Page-1" transform="translate(28.000000, 0.000000)">
                            <path d="M22.0797787,16.5942 C22.2342043,17.4618456 21.646417,18.2884215 20.7667574,18.440738 C19.8870979,18.5930544 19.0486723,18.0132949 18.8942468,17.1456494 C18.7402255,16.2780038 19.3280128,15.4514278 20.2076723,15.2991114 C21.0873319,15.1467949 21.9253532,15.7265544 22.0797787,16.5942 L22.0797787,16.5942 Z" id="Stroke-1" stroke="#343140" stroke-width="0.800000012"></path>
                            <polyline id="Stroke-3" stroke="#000000" stroke-width="4.5" stroke-linecap="round" stroke-linejoin="round" points="28.9583851 32.879062 30.4250234 41.1204987 21.1243213 42.7305873 19.657683 34.4891506"></polyline>
                            <polyline id="Stroke-5" stroke="#000000" stroke-width="4.5" stroke-linecap="round" stroke-linejoin="round" points="18.0050064 36.3599316 23.427283 28.7345392 31.1582617 34.0827608"></polyline>
                            <path d="M24.5717702,60.8670513 L11.0943021,41.2573044 C10.4466851,40.3146968 10.2384936,39.1440133 10.5218766,38.0403171 L16.4236,15.0756209 C17.2806213,11.7402095 21.7310681,10.9698551 23.6884723,13.8180133 L37.1655362,33.4277601 C37.8135574,34.3703677 38.0217489,35.5410513 37.7379617,36.6447475 L31.8366426,59.6094437 C30.9796213,62.9448551 26.5291745,63.7152095 24.5717702,60.8670513 L24.5717702,60.8670513 Z" id="Stroke-7" stroke="#000000" stroke-width="4.5"></path>
                            <path d="M0.390187234,8.09187152 C1.67005957,3.42947278 5.98993191,-3.98734178e-05 11.1215489,-3.98734178e-05 C17.2613787,-3.98734178e-05 22.2385702,4.90917532 22.2385702,10.96515 C22.2385702,13.1402449 21.5966128,15.1678082 20.4889532,16.8727956" id="Stroke-9" stroke="#000000" stroke-width="4.5" stroke-linecap="round" stroke-linejoin="round"></path>
                            <path d="M13.1649787,21.7454468 C12.5028085,21.866662 11.819617,21.9304595 11.1214681,21.9304595 C6.79997872,21.9304595 3.05455319,19.498181 1.21519149,15.9458582" id="Stroke-11" stroke="#000000" stroke-width="4.5" stroke-linecap="round" stroke-linejoin="round"></path>
                        </g>
                    </g>
                </g>
            </g>
        </g>
    </g>
</svg>