<?xml version="1.0" encoding="UTF-8"?>
<svg width="145px" height="41px" viewBox="0 0 145 41" version="1.1" xmlns="http://www.w3.org/2000/svg" xmlns:xlink="http://www.w3.org/1999/xlink">
    <!-- Generator: Sketch 40.3 (33839) - http://www.bohemiancoding.com/sketch -->
    <title>Logo-stacked</title>
    <desc>Created with Sketch.</desc>
    <defs></defs>
    <g id="TownPage" stroke="none" stroke-width="1" fill="none" fill-rule="evenodd">
        <g id="NeighborWho-TownPage" transform="translate(-1103.000000, -594.000000)">
            <g id="NW-Intro" transform="translate(1023.000000, 550.000000)">
                <g id="Logo-stacked" transform="translate(81.000000, 45.000000)">
                    <g id="Page-1" stroke-linecap="round" stroke-width="2.4" stroke="#FACB1B" stroke-linejoin="round">
                        <polyline id="Fill-1" points="29.7799628 18.5498724 29.7799628 4.40816327 34.004071 0.209912536 38.2281792 4.40816327 38.2281792 37.9941691 38.2281792 37.9941691"></polyline>
                        <polyline id="Fill-4" points="23.4438005 4.40816327 38.2281792 37.9941691 29.7799628 37.9941691 23.4438005 23.2379139"></polyline>
                        <polyline id="Fill-7" points="14.9955841 18.8441964 14.9955841 4.40816327 19.2196923 0.209912536 23.4438005 4.40816327 23.4438005 37.9941691 23.4438005 37.9941691"></polyline>
                        <polyline id="Stroke-11" points="8.65942181 4.40816327 23.4438005 37.9941691 14.9955841 37.9941691 8.65942181 23.4416607"></polyline>
                        <polygon id="Stroke-14" points="8.65942181 37.9941691 0.21120541 37.9941691 0.21120541 4.40816327 4.43531361 0.209912536 8.65942181 4.40816327"></polygon>
                    </g>
                    <g id="Page-1-Copy" transform="translate(47.651282, 1.243622)" fill="#FFFFFF">
                        <polygon id="Fill-1" points="12.7198662 1.09136223 12.7198662 16.6802624 10.0159042 16.6802624 3.93184894 8.2178757 3.93184894 16.6802624 0.326378492 16.6802624 0.326378492 1.09136223 3.03090391 1.09136223 9.11495921 9.55374895 9.11495921 1.09136223"></polygon>
                        <g id="Group-15" transform="translate(0.000000, 0.286553)">
                            <path d="M23.1105402,9.6681251 C22.7499368,8.37679952 21.7363032,7.90904898 20.7221062,7.90904898 C19.4374566,7.90904898 18.581587,8.53271636 18.2654956,9.6681251 L23.1105402,9.6681251 L23.1105402,9.6681251 Z M21.0376341,13.7214062 C21.9616803,13.7214062 22.7499368,13.3650248 23.200691,12.8750005 L25.904653,14.4118951 C24.8008686,15.925959 23.1330779,16.7055432 20.9925587,16.7055432 C17.1391734,16.7055432 14.7507394,14.1446091 14.7507394,10.8263645 C14.7507394,7.50811996 17.1842489,4.94662894 20.7446439,4.94662894 C24.0345864,4.94662894 26.4680958,7.46357229 26.4680958,10.8263645 C26.4680958,11.294115 26.4230204,11.7395917 26.333433,12.1622378 L18.3331087,12.1622378 C18.7613252,13.3204772 19.79806,13.7214062 21.0376341,13.7214062 L21.0376341,13.7214062 Z" id="Fill-2"></path>
                            <path d="M28.3852099,16.3935425 L31.7653032,16.3935425 L31.7653032,5.25829558 L28.3852099,5.25829558 L28.3852099,16.3935425 Z M28.0471442,2.27471539 C28.0471442,1.18329748 28.9711904,0.270070248 30.0755383,0.270070248 C31.1798862,0.270070248 32.1033689,1.18329748 32.1033689,2.27471539 C32.1033689,3.36557645 31.1798862,4.27936053 30.0755383,4.27936053 C28.9711904,4.27936053 28.0471442,3.36557645 28.0471442,2.27471539 L28.0471442,2.27471539 Z" id="Fill-4"></path>
                            <path d="M42.5152283,10.6034591 C42.5152283,9.0665645 41.3889062,8.0202511 39.7887286,8.0202511 C38.1885511,8.0202511 37.0622289,9.0665645 37.0622289,10.6034591 C37.0622289,12.1403537 38.1885511,13.187224 39.7887286,13.187224 C41.3889062,13.187224 42.5152283,12.1403537 42.5152283,10.6034591 L42.5152283,10.6034591 Z M45.8051708,5.25829558 L45.8051708,15.8366966 C45.8051708,19.578144 42.8538574,21.1595863 39.8563418,21.1595863 C37.5129832,21.1595863 35.5527657,20.2909068 34.5160309,18.4650091 L37.4002946,16.8167454 C37.8285111,17.5963296 38.4821048,18.219997 39.9690303,18.219997 C41.5461067,18.219997 42.5152283,17.4181389 42.5152283,15.8366966 L42.5152283,14.8126571 C41.7720473,15.7253274 40.6902371,16.2598995 39.2252858,16.2598995 C36.0254942,16.2598995 33.6821356,13.6772483 33.6821356,10.6034591 C33.6821356,7.53022674 36.0254942,4.94701873 39.2252858,4.94701873 C40.6902371,4.94701873 41.7720473,5.48159077 42.5152283,6.39426116 L42.5152283,5.25829558 L45.8051708,5.25829558 Z" id="Fill-6"></path>
                            <path d="M59.102139,9.55664455 L59.102139,16.3935982 L55.7220457,16.3935982 L55.7220457,10.0466689 C55.7220457,8.66569116 54.8430749,8.02030679 53.7612648,8.02030679 C52.5222541,8.02030679 51.665821,8.73306951 51.665821,10.3139549 L51.665821,16.3935982 L48.2857277,16.3935982 L48.2857277,0.804697971 L51.665821,0.804697971 L51.665821,6.3052215 C52.2743392,5.48164646 53.4012248,4.94707442 54.8881504,4.94707442 C57.1644593,4.94707442 59.102139,6.55079053 59.102139,9.55664455" id="Fill-7"></path>
                            <path d="M70.1684936,10.8264202 C70.1684936,9.15588258 69.0421714,8.10901234 67.4870693,8.10901234 C65.9319672,8.10901234 64.8050816,9.15588258 64.8050816,10.8264202 C64.8050816,12.496401 65.9319672,13.5432712 67.4870693,13.5432712 C69.0421714,13.5432712 70.1684936,12.496401 70.1684936,10.8264202 M73.5485869,10.8264202 C73.5485869,14.1446648 71.1150775,16.7055989 68.1626372,16.7055989 C66.6537374,16.7055989 65.5493896,16.1933007 64.8050816,15.346895 L64.8050816,16.3937652 L61.4249883,16.3937652 L61.4249883,0.804865024 L64.8050816,0.804865024 L64.8050816,6.30538855 C65.5493896,5.45898283 66.6537374,4.94668463 68.1626372,4.94668463 C71.1150775,4.94668463 73.5485869,7.50817564 73.5485869,10.8264202" id="Fill-8"></path>
                            <path d="M83.4655182,10.8264202 C83.4655182,9.24497792 82.3386326,8.19810768 80.8736813,8.19810768 C79.4092935,8.19810768 78.2829713,9.24497792 78.2829713,10.8264202 C78.2829713,12.4073056 79.4092935,13.4541759 80.8736813,13.4541759 C82.3386326,13.4541759 83.4655182,12.4073056 83.4655182,10.8264202 M74.902878,10.8264202 C74.902878,7.50817564 77.5612011,4.94668463 80.8736813,4.94668463 C84.1861615,4.94668463 86.8456115,7.50817564 86.8456115,10.8264202 C86.8456115,14.1446648 84.1861615,16.7055989 80.8736813,16.7055989 C77.5612011,16.7055989 74.902878,14.1446648 74.902878,10.8264202" id="Fill-9"></path>
                            <path d="M95.5228559,5.03605839 L95.5228559,8.82205348 C94.1260812,8.59875828 92.1427626,9.15560415 92.1427626,11.3607138 L92.1427626,16.3934868 L88.7626693,16.3934868 L88.7626693,5.25823989 L92.1427626,5.25823989 L92.1427626,7.2406112 C92.5935168,5.74826426 94.1029801,5.03605839 95.5228559,5.03605839" id="Fill-10"></path>
                            <polygon id="Fill-11" points="0.322855924 20.6938776 4.10862806 20.6938776 6.83512775 31.6063861 9.8771554 20.6938776 12.8064945 20.6938776 15.8485221 31.6063861 18.5755853 20.6938776 22.360794 20.6938776 18.0121425 36.2827778 13.9102789 36.2827778 11.3421067 27.0853545 8.77280752 36.2827778 4.67150742 36.2827778"></polygon>
                            <path d="M34.3392673,29.4458241 L34.3392673,36.2827778 L30.9591739,36.2827778 L30.9591739,29.9358485 C30.9591739,28.5548707 30.0802032,27.9094864 28.998393,27.9094864 C27.7593823,27.9094864 26.9029493,28.6222491 26.9029493,30.2031345 L26.9029493,36.2827778 L23.5228559,36.2827778 L23.5228559,20.6938776 L26.9029493,20.6938776 L26.9029493,26.1944011 C27.5114675,25.370826 28.6383531,24.836254 30.1252786,24.836254 C32.4015875,24.836254 34.3392673,26.4399701 34.3392673,29.4458241" id="Fill-12"></path>
                            <path d="M44.8854961,30.553205 C44.8854961,28.9717627 43.7586105,27.9248924 42.2936592,27.9248924 C40.8292714,27.9248924 39.7029493,28.9717627 39.7029493,30.553205 C39.7029493,32.1340904 40.8292714,33.1809606 42.2936592,33.1809606 C43.7586105,33.1809606 44.8854961,32.1340904 44.8854961,30.553205 M36.3228559,30.553205 C36.3228559,27.2349604 38.981179,24.6734694 42.2936592,24.6734694 C45.6061394,24.6734694 48.2655894,27.2349604 48.2655894,30.553205 C48.2655894,33.8714495 45.6061394,36.4323837 42.2936592,36.4323837 C38.981179,36.4323837 36.3228559,33.8714495 36.3228559,30.553205" id="Fill-13"></path>
                        </g>
                    </g>
                </g>
            </g>
        </g>
    </g>
</svg>