<?xml version="1.0" encoding="UTF-8"?>
<svg width="200px" height="200px" viewBox="0 0 200 200" version="1.1" xmlns="http://www.w3.org/2000/svg" xmlns:xlink="http://www.w3.org/1999/xlink">
    <!-- Generator: Sketch 45.2 (43514) - http://www.bohemiancoding.com/sketch -->
    <title>Folder</title>
    <desc>Created with Sketch.</desc>
    <defs>
        <path d="M166.423413,199.288942 L33.8309215,199.288942 C15.5237543,199.288942 0.682116041,184.447986 0.682116041,166.140819 L0.682116041,33.5483276 C0.682116041,15.2411604 15.5237543,0.400204778 33.8309215,0.400204778 L166.423413,0.400204778 C184.729898,0.400204778 199.571536,15.2411604 199.571536,33.5483276 L199.571536,166.140819 C199.571536,184.447986 184.729898,199.288942 166.423413,199.288942" id="path-1"></path>
    </defs>
    <g id="Page-1" stroke="none" stroke-width="1" fill="none" fill-rule="evenodd">
        <g id="Folder">
            <g id="Group-6" transform="translate(0.000000, 0.281911)">
                <g id="Fill-4">
                    <mask id="mask-2" fill="white">
                        <use xlink:href="#path-1"></use>
                    </mask>
                    <use id="Mask" fill="#F2DA3E" xlink:href="#path-1"></use>
                    <polygon fill-opacity="0.09" fill="#000000" mask="url(#mask-2)" points="205.415222 341.979386 25.3694881 161.933652 27.0759727 36.8469625 81.3701706 36.8469625 87.3715358 45.0380887 162.115563 40.9425256 162.115563 45.0380887 170.079386 45.0380887 170.079386 53.941843 179.031604 54.7978157 354.302594 230.069488"></polygon>
                </g>
            </g>
            <path d="M104.162048,127.575836 C104.79686,126.934198 105.158635,126.060478 105.158635,125.159454 C105.158635,124.25843 104.79686,123.377884 104.162048,122.743072 C103.52041,122.108259 102.646689,121.746485 101.745666,121.746485 C100.844642,121.746485 99.9640956,122.108259 99.3292833,122.743072 C98.694471,123.377884 98.3326962,124.25843 98.3326962,125.159454 C98.3326962,126.060478 98.694471,126.934198 99.3292833,127.575836 C99.9640956,128.210648 100.844642,128.572423 101.745666,128.572423 C102.646689,128.572423 103.527235,128.210648 104.162048,127.575836 L104.162048,127.575836 Z M104.476041,116.238635 L104.476041,103.538976 C104.476041,102.031126 103.253515,100.808601 101.745666,100.808601 C100.237816,100.808601 99.0152901,102.031126 99.0152901,103.538976 L99.0152901,116.238635 C99.0152901,117.746485 100.237816,118.96901 101.745666,118.96901 C103.253515,118.96901 104.476041,117.746485 104.476041,116.238635 L104.476041,116.238635 Z M77.7661433,132.558771 L125.72587,132.558771 L101.745666,90.308942 L77.7661433,132.558771 Z M130.414608,138.019522 L73.0767235,138.019522 C72.1047099,138.019522 71.2064164,137.502799 70.7176792,136.663208 C70.2282594,135.823618 70.222116,134.786758 70.7019795,133.941706 L99.3709215,83.4297611 C99.8562457,82.5751536 100.763413,82.0468259 101.745666,82.0468259 C102.727918,82.0468259 103.635768,82.5751536 104.119727,83.4297611 L132.788669,133.941706 C133.269215,134.786758 133.263754,135.823618 132.774334,136.663208 C132.284915,137.502799 131.386621,138.019522 130.414608,138.019522 L130.414608,138.019522 Z" id="Fill-7" fill="#FFFFFF"></path>
            <polygon id="Stroke-9" stroke="#FFFFFF" stroke-width="5.46075085" stroke-linecap="round" stroke-linejoin="round" points="27.0762457 160.850648 27.0762457 37.1291468 81.3704437 37.1291468 94.3322184 56.8643003 177.246894 56.8643003 177.246894 160.850648"></polygon>
            <polyline id="Stroke-11" stroke="#FFFFFF" stroke-width="4.09556314" stroke-linecap="round" stroke-linejoin="round" points="162.115836 45.3199317 170.079659 45.3199317 170.079659 57.2059386"></polyline>
            <polyline id="Stroke-13" stroke="#FFFFFF" stroke-width="4.09556314" stroke-linecap="round" stroke-linejoin="round" points="87.3718089 45.3199317 162.115836 41.2243686 162.115836 56.8646416"></polyline>
        </g>
    </g>
</svg>