<?xml version="1.0" encoding="UTF-8"?>
<svg width="121px" height="120px" viewBox="0 0 121 120" version="1.1" xmlns="http://www.w3.org/2000/svg" xmlns:xlink="http://www.w3.org/1999/xlink">
    <!-- Generator: Sketch 45.2 (43514) - http://www.bohemiancoding.com/sketch -->
    <title>icon-misc</title>
    <desc>Created with Sketch.</desc>
    <defs>
        <path d="M100.3492,120.0003 L20.3492,120.0003 C9.3032,120.0003 0.3492,111.0463 0.3492,100.0003 L0.3492,20.0003 C0.3492,8.9543 9.3032,0.0003 20.3492,0.0003 L100.3492,0.0003 C111.3952,0.0003 120.3492,8.9543 120.3492,20.0003 L120.3492,100.0003 C120.3492,111.0463 111.3952,120.0003 100.3492,120.0003" id="path-1"></path>
    </defs>
    <g id="Page-1" stroke="none" stroke-width="1" fill="none" fill-rule="evenodd">
        <g transform="translate(-914.000000, 0.000000)" id="icon-misc">
            <g transform="translate(914.000000, 0.000000)">
                <g id="Fill-3">
                    <mask id="mask-2" fill="white">
                        <use xlink:href="#path-1"></use>
                    </mask>
                    <use id="Mask" fill="#81B44C" xlink:href="#path-1"></use>
                    <path d="M78.938,164.4173 L14.85,100.3303 L50.229,64.9513 C50.229,64.9513 31.368,39.7233 52.868,24.9183 C74.368,10.1143 89.404,21.8513 89.404,21.8513 L153.491,85.9383 L78.938,164.4173 Z" fill-opacity="0.09" fill="#000000" mask="url(#mask-2)"></path>
                </g>
                <path d="M77.5611,53.7332 C78.2961,54.4682 78.7241,55.4932 78.7241,56.5372 C78.7241,57.5902 78.2961,58.6152 77.5611,59.3512 C76.8261,60.0962 75.7911,60.5142 74.7481,60.5142 C73.7041,60.5142 72.6791,60.0962 71.9341,59.3512 C71.1981,58.6152 70.7711,57.5902 70.7711,56.5372 C70.7711,55.4932 71.1981,54.4682 71.9341,53.7332 C72.6791,52.9872 73.7041,52.5592 74.7481,52.5592 C75.7911,52.5592 76.8261,52.9872 77.5611,53.7332 M84.8881,46.1022 C84.6551,47.8512 83.1611,49.1232 81.4431,49.1232 C81.2901,49.1232 81.1341,49.1122 80.9791,49.0912 C79.0741,48.8372 77.7361,47.0872 77.9901,45.1822 C78.6841,39.9742 72.8781,37.2522 72.6311,37.1392 C70.8911,36.3412 70.1121,34.2852 70.8971,32.5402 C71.6831,30.7952 73.7211,30.0092 75.4711,30.7842 C75.9131,30.9802 86.2741,35.7022 84.8881,46.1022 M69.3691,69.1262 C56.6821,69.1262 46.3611,58.6342 46.3611,45.7382 C46.3611,32.8432 56.6821,22.3512 69.3691,22.3512 C82.0541,22.3512 92.3741,32.8432 92.3741,45.7382 C92.3741,58.6342 82.0541,69.1262 69.3691,69.1262 M69.3691,14.3962 C52.2961,14.3962 38.4081,28.4562 38.4081,45.7382 C38.4081,53.0002 40.8671,59.6872 44.9761,65.0062 L15.6171,94.7802 C13.8821,96.5392 13.9021,99.3722 15.6621,101.1072 C16.5331,101.9672 17.6671,102.3962 18.8031,102.3962 C19.9571,102.3962 21.1131,101.9512 21.9891,101.0642 L51.3991,71.2372 C56.4701,74.9102 62.6711,77.0812 69.3691,77.0812 C86.4401,77.0812 100.3291,63.0202 100.3291,45.7382 C100.3291,28.4562 86.4401,14.3962 69.3691,14.3962" id="Fill-5" fill="#FFFFFF"></path>
            </g>
        </g>
    </g>
</svg>