<?xml version="1.0" encoding="UTF-8"?>
<svg width="64px" height="63px" viewBox="0 0 64 63" version="1.1" xmlns="http://www.w3.org/2000/svg" xmlns:xlink="http://www.w3.org/1999/xlink">
    <!-- Generator: Sketch 48.1 (47250) - http://www.bohemiancoding.com/sketch -->
    <title>icon-misc</title>
    <desc>Created with Sketch.</desc>
    <defs>
        <path d="M53.0772628,63.0001575 L10.7632132,63.0001575 C4.92070083,63.0001575 0.184700826,58.2993075 0.184700826,52.5001575 L0.184700826,10.5001575 C0.184700826,4.7010075 4.92070083,0.0001575 10.7632132,0.0001575 L53.0772628,0.0001575 C58.9197752,0.0001575 63.6557752,4.7010075 63.6557752,10.5001575 L63.6557752,52.5001575 C63.6557752,58.2993075 58.9197752,63.0001575 53.0772628,63.0001575" id="path-1"></path>
    </defs>
    <g id="TF-Modal-BV-LastStep-SampleReport" stroke="none" stroke-width="1" fill="none" fill-rule="evenodd" transform="translate(-190.000000, -289.000000)">
        <g id="Modal" transform="translate(149.000000, 204.000000)">
            <g id="icon-misc" transform="translate(41.000000, 85.000000)">
                <g id="Fill-3">
                    <mask id="mask-2" fill="white">
                        <use xlink:href="#path-1"></use>
                    </mask>
                    <use id="Mask" fill="#81B44C" xlink:href="#path-1"></use>
                    <path d="M41.7523306,86.3190825 L7.85454545,52.6734075 L26.567405,34.0994325 C26.567405,34.0994325 16.5913388,20.8547325 27.9632397,13.0821075 C39.3351405,5.3100075 47.2880661,11.4719325 47.2880661,11.4719325 L81.1853223,45.1176075 L41.7523306,86.3190825 Z" fill-opacity="0.09" fill="#000000" mask="url(#mask-2)"></path>
                </g>
                <path d="M41.0240529,28.20993 C41.4128132,28.595805 41.6391934,29.13393 41.6391934,29.68203 C41.6391934,30.234855 41.4128132,30.77298 41.0240529,31.15938 C40.6352926,31.550505 40.0878545,31.769955 39.5361851,31.769955 C38.9839868,31.769955 38.441838,31.550505 38.0477884,31.15938 C37.6584992,30.77298 37.4326479,30.234855 37.4326479,29.68203 C37.4326479,29.13393 37.6584992,28.595805 38.0477884,28.20993 C38.441838,27.81828 38.9839868,27.59358 39.5361851,27.59358 C40.0878545,27.59358 40.6352926,27.81828 41.0240529,28.20993 M44.8994909,24.203655 C44.7762512,25.12188 43.9860364,25.78968 43.0773421,25.78968 C42.9964165,25.78968 42.9139041,25.783905 42.8319207,25.77288 C41.8243174,25.63953 41.1166149,24.72078 41.250962,23.720655 C41.6180364,20.986455 38.5470942,19.557405 38.4164496,19.49808 C37.496119,19.07913 37.084086,17.99973 37.4992926,17.083605 C37.9150281,16.16748 38.9929785,15.75483 39.9185983,16.161705 C40.1523835,16.264605 45.6325818,18.743655 44.8994909,24.203655 M36.6910942,36.291255 C29.9806149,36.291255 24.5215736,30.782955 24.5215736,24.012555 C24.5215736,17.24268 29.9806149,11.73438 36.6910942,11.73438 C43.4005157,11.73438 48.8590281,17.24268 48.8590281,24.012555 C48.8590281,30.782955 43.4005157,36.291255 36.6910942,36.291255 M36.6910942,7.558005 C27.6607471,7.558005 20.3150281,14.939505 20.3150281,24.012555 C20.3150281,27.825105 21.6156562,31.33578 23.7890116,34.128255 L8.2602843,49.759605 C7.34259835,50.68308 7.35317686,52.170405 8.28408595,53.08128 C8.74478017,53.53278 9.34458182,53.758005 9.94544132,53.758005 C10.5558215,53.758005 11.1672595,53.52438 11.6305983,53.058705 L27.1863008,37.39953 C29.8684826,39.327855 33.1483504,40.46763 36.6910942,40.46763 C45.7203835,40.46763 53.0666314,33.085605 53.0666314,24.012555 C53.0666314,14.939505 45.7203835,7.558005 36.6910942,7.558005" id="Fill-5" fill="#FFFFFF"></path>
            </g>
        </g>
    </g>
</svg>