<?xml version="1.0" encoding="UTF-8"?>
<svg width="120px" height="121px" viewBox="0 0 120 121" version="1.1" xmlns="http://www.w3.org/2000/svg" xmlns:xlink="http://www.w3.org/1999/xlink">
    <!-- Generator: Sketch 45.2 (43514) - http://www.bohemiancoding.com/sketch -->
    <title>Icon1-search</title>
    <desc>Created with Sketch.</desc>
    <defs>
        <path d="M20.0003,120.3716 C8.9543,120.3716 0.0003,111.4166 0.0003,100.3716 L0.0003,20.3716 C0.0003,9.3256 8.9543,0.3716 20.0003,0.3716 L100.0003,0.3716 C111.0463,0.3716 120.0003,9.3256 120.0003,20.3716 L120.0003,100.3716 C120.0003,111.4166 111.0463,120.3716 100.0003,120.3716 L20.0003,120.3716 Z" id="path-1"></path>
    </defs>
    <g id="Page-1" stroke="none" stroke-width="1" fill="none" fill-rule="evenodd">
        <g id="Icon1-search">
            <g id="Fill-3">
                <mask id="mask-2" fill="white">
                    <use xlink:href="#path-1"></use>
                </mask>
                <use id="Mask" fill="#F2DA3E" xlink:href="#path-1"></use>
                <path d="M141.070313,194.322266 L25.7832031,91.6386719 L22.3779,77.6687 L20.7229,69.9737 C18.979899,67.9743062 18.979899,60.8310547 20.7229,48.5439453 L34.9277344,26.2128906 C55.132724,20.8515521 65.7648854,18.6155495 66.8242188,19.5048828 C73.9962187,18.9328828 96.3489,32.6207 96.3489,32.6207 L182.5169,118.7887 L141.070313,194.322266 Z" fill-opacity="0.09" fill="#000000" mask="url(#mask-2)"></path>
            </g>
            <path d="M73.6292,95.834 C77.1922,91.049 81.2292,84.206 83.6092,75.592 C88.6162,75.147 92.5782,74.631 95.3812,74.206 C91.4932,84.114 83.5652,92.002 73.6292,95.834 M24.6082,74.182 C27.4272,74.602 31.4132,75.116 36.3832,75.563 C38.7622,84.19 42.8032,91.043 46.3702,95.834 C36.4272,91.999 28.4932,84.101 24.6082,74.182 M46.6012,24.818 C43.0272,29.648 38.9142,36.562 36.4702,45.146 C31.4242,45.592 27.4362,46.112 24.6172,46.539 C28.5352,36.553 36.5562,28.617 46.6012,24.818 M95.3922,46.563 C92.5592,46.141 88.5442,45.623 83.5382,45.175 C81.0942,36.578 76.9762,29.654 73.3992,24.818 C83.4512,28.619 91.4772,36.566 95.3922,46.563 M84.9282,51.345 C90.7922,51.922 95.0472,52.567 97.2662,52.941 C97.7442,55.346 98.0002,57.829 98.0002,60.372 C98.0002,62.919 97.7432,65.407 97.2632,67.815 C95.0762,68.195 90.8682,68.848 84.9542,69.427 C85.4142,66.563 85.6812,63.545 85.6812,60.372 C85.6812,57.222 85.4052,54.211 84.9282,51.345 M63.0002,70.579 L63.0002,50.167 C69.0002,50.233 74.1002,50.483 78.7142,50.816 C79.3192,53.826 79.6812,57.014 79.6812,60.372 C79.6812,63.752 79.3312,66.945 78.7482,69.948 C74.1622,70.272 69.0002,70.515 63.0002,70.579 M57.0002,22.501 L57.0002,44.166 C52.0002,44.219 47.1242,44.404 42.9332,44.663 C46.7592,33.236 53.7132,25.298 56.3772,22.548 C56.5842,22.529 57.0002,22.517 57.0002,22.501 M63.6282,22.549 C66.2992,25.292 73.2662,33.22 77.0852,44.683 C72.8622,44.416 68.0002,44.222 63.0002,44.167 L63.0002,22.501 C63.0002,22.518 63.4202,22.529 63.6282,22.549 M40.3192,60.372 C40.3192,57.009 40.6852,53.812 41.2962,50.794 C45.8712,50.471 51.0002,50.23 57.0002,50.167 L57.0002,70.578 C51.0002,70.511 45.8712,70.26 41.2472,69.925 C40.6662,66.929 40.3192,63.744 40.3192,60.372 M22.0002,60.372 C22.0002,57.825 22.2562,55.337 22.7362,52.93 C24.9262,52.549 29.1452,51.895 35.0762,51.315 C34.5962,54.19 34.3192,57.211 34.3192,60.372 C34.3192,63.534 34.5842,66.542 35.0412,69.397 C29.1922,68.821 24.9492,68.177 22.7342,67.803 C22.2562,65.398 22.0002,62.915 22.0002,60.372 M56.3272,98.19 C53.6462,95.518 46.6222,87.712 42.8312,76.056 C47.0752,76.327 52.0002,76.522 57.0002,76.579 L57.0002,98.242 C57.0002,98.225 56.5502,98.212 56.3272,98.19 M63.6722,98.191 C63.4492,98.212 63.0002,98.225 63.0002,98.242 L63.0002,76.58 C68.0002,76.526 72.9472,76.337 77.1622,76.076 C73.3682,87.725 66.3492,95.523 63.6722,98.191 M60.0002,14.372 C34.6362,14.372 14.0002,35.007 14.0002,60.372 C14.0002,85.736 34.6362,106.372 60.0002,106.372 C85.3642,106.372 106.0002,85.736 106.0002,60.372 C106.0002,35.007 85.3642,14.372 60.0002,14.372" id="Fill-5" fill="#FFFFFF"></path>
            <path d="M85.7552,47.0401 C85.7552,49.9841 83.3692,52.3751 80.4212,52.3751 C77.4772,52.3751 75.0892,49.9841 75.0892,47.0401 C75.0892,44.0931 77.4772,41.7051 80.4212,41.7051 C83.3692,41.7051 85.7552,44.0931 85.7552,47.0401" id="Fill-7" fill="#FFFFFF"></path>
            <path d="M80.4212,44.7051 C79.1352,44.7051 78.0892,45.7521 78.0892,47.0401 C78.0892,48.3281 79.1352,49.3751 80.4212,49.3751 C81.7082,49.3751 82.7552,48.3281 82.7552,47.0401 C82.7552,45.7521 81.7082,44.7051 80.4212,44.7051 M80.4212,55.3751 C75.8262,55.3751 72.0892,51.6361 72.0892,47.0401 C72.0892,42.4441 75.8262,38.7051 80.4212,38.7051 C85.0172,38.7051 88.7552,42.4441 88.7552,47.0401 C88.7552,51.6361 85.0172,55.3751 80.4212,55.3751" id="Fill-9" fill="#FFFFFF"></path>
            <path d="M45.7552,47.0401 C45.7552,49.9841 43.3692,52.3751 40.4222,52.3751 C37.4782,52.3751 35.0902,49.9841 35.0902,47.0401 C35.0902,44.0931 37.4782,41.7051 40.4222,41.7051 C43.3692,41.7051 45.7552,44.0931 45.7552,47.0401" id="Fill-11" fill="#FFFFFF"></path>
            <path d="M40.4221,44.7051 C39.1361,44.7051 38.0901,45.7521 38.0901,47.0401 C38.0901,48.3281 39.1361,49.3751 40.4221,49.3751 C41.7081,49.3751 42.7551,48.3281 42.7551,47.0401 C42.7551,45.7521 41.7081,44.7051 40.4221,44.7051 M40.4221,55.3751 C35.8271,55.3751 32.0901,51.6361 32.0901,47.0401 C32.0901,42.4441 35.8271,38.7051 40.4221,38.7051 C45.0171,38.7051 48.7551,42.4441 48.7551,47.0401 C48.7551,51.6361 45.0171,55.3751 40.4221,55.3751" id="Fill-13" fill="#FFFFFF"></path>
            <path d="M65.3333,72.9869 C65.3333,75.9309 62.9463,78.3219 59.9993,78.3219 C57.0553,78.3219 54.6673,75.9309 54.6673,72.9869 C54.6673,70.0399 57.0553,67.6519 59.9993,67.6519 C62.9463,67.6519 65.3333,70.0399 65.3333,72.9869" id="Fill-15" fill="#FFFFFF"></path>
            <path d="M59.9993,70.6519 C58.7133,70.6519 57.6673,71.6989 57.6673,72.9869 C57.6673,74.2749 58.7133,75.3219 59.9993,75.3219 C61.2863,75.3219 62.3333,74.2749 62.3333,72.9869 C62.3333,71.6989 61.2863,70.6519 59.9993,70.6519 M59.9993,81.3219 C55.4043,81.3219 51.6673,77.5829 51.6673,72.9869 C51.6673,68.3909 55.4043,64.6519 59.9993,64.6519 C64.5953,64.6519 68.3333,68.3909 68.3333,72.9869 C68.3333,77.5829 64.5953,81.3219 59.9993,81.3219" id="Fill-17" fill="#FFFFFF"></path>
        </g>
    </g>
</svg>