<?xml version="1.0" encoding="UTF-8"?>
<svg width="50px" height="51px" viewBox="0 0 50 51" version="1.1" xmlns="http://www.w3.org/2000/svg" xmlns:xlink="http://www.w3.org/1999/xlink">
    <!-- Generator: Sketch 48.1 (47250) - http://www.bohemiancoding.com/sketch -->
    <title>Self-color</title>
    <desc>Created with Sketch.</desc>
    <defs>
        <path d="M41.6666667,50.5787653 L8.33333333,50.5787653 C3.73083333,50.5787653 0,46.8043438 0,42.1490132 L0,8.43000496 C0,3.77425289 3.73083333,0.000252892562 8.33333333,0.000252892562 L41.6666667,0.000252892562 C46.2691667,0.000252892562 50,3.77425289 50,8.43000496 L50,42.1490132 C50,46.8043438 46.2691667,50.5787653 41.6666667,50.5787653" id="path-1"></path>
    </defs>
    <g id="SampleReport-Flow-Mobile" stroke="none" stroke-width="1" fill="none" fill-rule="evenodd" transform="translate(-134.000000, -241.000000)">
        <g id="Modal" transform="translate(0.000000, 161.000000)">
            <g id="Self-color" transform="translate(134.000000, 80.000000)">
                <g id="Fill-3">
                    <mask id="mask-2" fill="white">
                        <use xlink:href="#path-1"></use>
                    </mask>
                    <use id="Mask" fill="#5691CD" xlink:href="#path-1"></use>
                    <path d="M52.0068333,88.3660983 L5.841,42.0176355 C5.841,42.0176355 12.0634983,34.2761945 19.7090658,32.0071265 C21.3124838,31.5312606 22.6340198,36.5080416 24.3566895,36.0553009 C25.5035333,35.7538949 26.5355257,35.3898953 27.4526667,34.9633022 L16.3871257,25.8194086 C17.1654482,16.6966046 18.0872952,11.8219723 19.1526667,11.1955116 C22.6405833,9.14455289 25.0601667,6.68137934 27.4526667,8.71421405 C33.1468333,12.0861149 34.3405833,12.2235198 34.3405833,12.2235198 L79.6030833,58.0101397 L52.0068333,88.3660983 Z" fill-opacity="0.09" fill="#000000" mask="url(#mask-2)"></path>
                </g>
                <path d="M10.0415,39.6200876 C11.8794167,37.6525835 16.2756667,35.4612694 19.9494167,34.166038 L23.9206667,37.582195 C24.5431667,38.1179058 25.4573333,38.1179058 26.0798333,37.582195 L30.0506667,34.166038 C33.7244167,35.4612694 38.1206667,37.6525835 39.9585833,39.6200876 L10.0415,39.6200876 Z M30.194,30.6596826 C29.6456667,30.4818149 29.0460833,30.6040463 28.60775,30.9812777 L24.9998333,34.0846909 L21.3923333,30.9812777 C20.954,30.6040463 20.3548333,30.4818149 19.8065,30.6596826 C17.4731667,31.4124595 5.83316667,35.4646413 5.83316667,41.306038 C5.83316667,42.2371041 6.57941667,42.9919884 7.49983333,42.9919884 L42.4998333,42.9919884 C43.42025,42.9919884 44.1665,42.2371041 44.1665,41.306038 C44.1665,35.4646413 32.5273333,31.4124595 30.194,30.6596826 Z M24.9998333,10.1159554 C29.3481667,10.1159554 32.8856667,13.716724 32.8856667,18.1431868 C32.8856667,22.5704926 29.3481667,26.1721041 24.9998333,26.1721041 C20.6519167,26.1721041 17.1144167,22.5704926 17.1144167,18.1431868 C17.1144167,13.716724 20.6519167,10.1159554 24.9998333,10.1159554 Z M24.9998333,29.544005 C31.1860833,29.544005 36.219,24.4296744 36.219,18.1431868 C36.219,11.8575421 31.1860833,6.74405455 24.9998333,6.74405455 C18.814,6.74405455 13.7810833,11.8575421 13.7810833,18.1431868 C13.7810833,24.4296744 18.814,29.544005 24.9998333,29.544005 Z" id="Fill-5" fill="#FFFFFF"></path>
            </g>
        </g>
    </g>
</svg>