<?xml version="1.0" encoding="UTF-8"?>
<svg width="60px" height="61px" viewBox="0 0 60 61" version="1.1" xmlns="http://www.w3.org/2000/svg" xmlns:xlink="http://www.w3.org/1999/xlink">
    <!-- Generator: Sketch 45.2 (43514) - http://www.bohemiancoding.com/sketch -->
    <title>Self-Color</title>
    <desc>Created with Sketch.</desc>
    <defs>
        <path d="M50,60.4961702 L10,60.4961702 C4.477,60.4961702 0,55.9816661 0,50.4135256 L0,10.0829471 C0,4.51430248 4.477,0.000302479339 10,0.000302479339 L50,0.000302479339 C55.523,0.000302479339 60,4.51430248 60,10.0829471 L60,50.4135256 C60,55.9816661 55.523,60.4961702 50,60.4961702" id="path-1"></path>
    </defs>
    <g id="Page-1" stroke="none" stroke-width="1" fill="none" fill-rule="evenodd">
        <g id="Self-Color">
            <g id="Fill-3">
                <mask id="mask-2" fill="white">
                    <use xlink:href="#path-1"></use>
                </mask>
                <use id="Mask" fill="#5774D2" xlink:href="#path-1"></use>
                <path d="M62.4082,105.692784 L7.0092,50.2563876 C7.0092,50.2563876 14.476198,40.9970169 23.6508789,38.2830336 C25.5749806,37.7138607 27.1608238,43.6664811 29.2280273,43.1249677 C30.60424,42.7644625 31.8426309,42.3290905 32.9432,41.8188517 L19.6645508,30.8820377 C20.5985379,19.9704487 21.7047543,14.1400061 22.9832,13.3907099 C27.1687,10.9376025 30.0722,7.99145372 32.9432,10.4228835 C39.7762,14.4559413 41.2087,14.6202884 41.2087,14.6202884 L95.5237,69.3846769 L62.4082,105.692784 Z" fill-opacity="0.09" fill="#000000" mask="url(#mask-2)"></path>
            </g>
            <path d="M12.0498,47.3887322 C14.2553,45.035443 19.5308,42.4144595 23.9393,40.8652612 L28.7048,44.9512529 C29.4518,45.592005 30.5488,45.592005 31.2958,44.9512529 L36.0608,40.8652612 C40.4693,42.4144595 45.7448,45.035443 47.9503,47.3887322 L12.0498,47.3887322 Z M36.2328,36.6713851 C35.5748,36.4586413 34.8553,36.6048397 34.3293,37.056038 L29.9998,40.7679636 L25.6708,37.056038 C25.1448,36.6048397 24.4258,36.4586413 23.7678,36.6713851 C20.9678,37.5717653 6.9998,42.4184926 6.9998,49.4052612 C6.9998,50.5188893 7.8953,51.4217901 8.9998,51.4217901 L50.9998,51.4217901 C52.1043,51.4217901 52.9998,50.5188893 52.9998,49.4052612 C52.9998,42.4184926 39.0328,37.5717653 36.2328,36.6713851 L36.2328,36.6713851 Z M29.9998,12.099476 C35.2178,12.099476 39.4628,16.4062777 39.4628,21.7006744 C39.4628,26.9960793 35.2178,31.3038893 29.9998,31.3038893 C24.7823,31.3038893 20.5373,26.9960793 20.5373,21.7006744 C20.5373,16.4062777 24.7823,12.099476 29.9998,12.099476 L29.9998,12.099476 Z M29.9998,35.3369471 C37.4233,35.3369471 43.4628,29.2198066 43.4628,21.7006744 C43.4628,14.1825504 37.4233,8.06641818 29.9998,8.06641818 C22.5768,8.06641818 16.5373,14.1825504 16.5373,21.7006744 C16.5373,29.2198066 22.5768,35.3369471 29.9998,35.3369471 L29.9998,35.3369471 Z" id="Fill-5" fill="#FFFFFF"></path>
        </g>
    </g>
</svg>