<?xml version="1.0" encoding="UTF-8"?>
<svg width="45px" height="46px" viewBox="0 0 45 46" version="1.1" xmlns="http://www.w3.org/2000/svg" xmlns:xlink="http://www.w3.org/1999/xlink">
    <!-- Generator: Sketch 46.2 (44496) - http://www.bohemiancoding.com/sketch -->
    <title>WBV-Thumbs</title>
    <desc>Created with Sketch.</desc>
    <defs></defs>
    <g id="Page-1" stroke="none" stroke-width="1" fill="none" fill-rule="evenodd">
        <g id="TF-Modal-BV-Step6" transform="translate(-901.000000, -561.000000)" fill="#5691CD">
            <path d="M907.463691,601.7765 L907.463691,581.8195 C907.463691,580.0245 906.016766,578.5685 904.232093,578.5685 C902.446431,578.5685 901,580.0245 901,581.8195 L901,601.7765 C901,603.572 902.446431,605.0275 904.232093,605.0275 C906.016766,605.0275 907.463691,603.572 907.463691,601.7765 L907.463691,601.7765 Z M915.286285,600.418 C919.060357,602.0205 930.609055,603.688 932.801201,602.806 C933.959829,601.7465 936.872965,595.0805 938.904397,589.418 C939.047804,589.0175 939.314837,588.6735 939.665937,588.4365 C941.309675,587.326 942.161215,586.055 942.002479,584.949 C941.874401,584.0575 941.077752,583.2975 939.871157,582.916 C937.374395,582.1255 931.249441,580.76 931.188122,580.7465 C930.491363,580.5915 929.931581,580.0735 929.718944,579.389 C929.506306,578.704 929.674438,577.9575 930.159549,577.4315 C934.626918,572.592 935.418128,567.6075 934.553237,565.613 C934.288181,565.001 934.012741,565.001 933.86439,565.001 C932.884278,565.001 932.425871,565.6905 931.413617,568.6905 C930.227791,572.199 926.134763,576.3865 921.226788,579.1105 C918.846235,580.4315 916.46321,582.157 915.286285,583.043 L915.286285,600.418 Z M930.303945,607 C924.165639,607 914.529196,604.945 912.143698,603.235 C911.619521,602.8595 911.308477,602.2525 911.308477,601.6055 L911.308477,582.0535 C911.308477,581.442 911.586884,580.8635 912.064082,580.484 C912.210456,580.368 915.681395,577.6175 919.305632,575.607 C923.806133,573.109 926.90817,569.589 927.646963,567.403 C928.559327,564.701 929.809438,561 933.86439,561 C935.789008,561 937.36945,562.0985 938.199726,564.0135 C939.883519,567.897 938.110715,573.291 935.153073,577.5555 C937.143955,578.027 939.615497,578.64 941.064895,579.0995 C943.765393,579.9535 945.587649,581.9265 945.939737,584.377 C946.300727,586.8945 945.028362,589.413 942.433193,591.367 C940.527861,596.611 937.195878,604.925 934.776259,606.2855 C933.883181,606.788 932.273068,607 930.303945,607 L930.303945,607 Z" id="WBV-Thumbs"></path>
        </g>
    </g>
</svg>