<?xml version="1.0" encoding="UTF-8"?>
<svg width="72px" height="78px" viewBox="0 0 72 78" version="1.1" xmlns="http://www.w3.org/2000/svg" xmlns:xlink="http://www.w3.org/1999/xlink">
    <!-- Generator: Sketch 42 (36781) - http://www.bohemiancoding.com/sketch -->
    <title>email Search</title>
    <desc>Created with Sketch.</desc>
    <defs>
        <path d="M30.947389,0.219649328 C30.4241605,-0.07319655 29.5759106,-0.0732363343 29.052611,0.219649328 L0.947389025,15.949867 C0.424160514,16.2427129 0,16.9728063 0,17.5794039 L0,48.4205961 C0,49.0277186 0.424089432,49.7572473 0.947389025,50.050133 L29.052611,65.7803507 C29.5758395,66.0731966 30.4240894,66.0732363 30.947389,65.7803507 L59.052611,50.050133 C59.5758395,49.7572871 60,49.0271937 60,48.4205961 L60,17.5794039 C60,16.9722814 59.5759106,16.2427527 59.052611,15.949867 L30.947389,0.219649328 Z" id="path-1"></path>
        <filter x="-50%" y="-50%" width="200%" height="200%" filterUnits="objectBoundingBox" id="filter-2">
            <feOffset dx="0" dy="0" in="SourceAlpha" result="shadowOffsetOuter1"></feOffset>
            <feGaussianBlur stdDeviation="3" in="shadowOffsetOuter1" result="shadowBlurOuter1"></feGaussianBlur>
            <feColorMatrix values="0 0 0 0 0   0 0 0 0 0   0 0 0 0 0  0 0 0 0.217391304 0" type="matrix" in="shadowBlurOuter1"></feColorMatrix>
        </filter>
    </defs>
    <g id="Search" stroke="none" stroke-width="1" fill="none" fill-rule="evenodd">
        <g id="KTC-FreeSearch-7A" transform="translate(-333.000000, -1361.000000)">
            <g id="SearchBox" transform="translate(279.000000, 362.000000)">
                <g id="EmailSearch" transform="translate(60.000000, 1001.000000)">
                    <g id="email-Search" transform="translate(0.000000, 4.000000)">
                        <g id="Page-1-Copy-2">
                            <use fill="black" fill-opacity="1" filter="url(#filter-2)" xlink:href="#path-1"></use>
                            <use fill="#FFFFFF" fill-rule="evenodd" xlink:href="#path-1"></use>
                        </g>
                        <g id="email" transform="translate(10.000000, 20.000000)" stroke-linejoin="round">
                            <polyline id="Stroke-3" stroke="#263348" stroke-width="2" stroke-linecap="round" points="0 1 19.667 14.25 38 1"></polyline>
                            <path d="M37,25.5 L1,25.5 C0.447,25.5 0,25.052 0,24.5 L0,1 C0,0.448 0.447,0 1,0 L37,0 C37.553,0 38,0.448 38,1 L38,24.5 C38,25.052 37.553,25.5 37,25.5 Z" id="Stroke-1" stroke="#19B2CC" stroke-width="3"></path>
                        </g>
                    </g>
                </g>
            </g>
        </g>
    </g>
</svg>