<?xml version="1.0" encoding="UTF-8"?>
<svg width="45px" height="50px" viewBox="0 0 45 50" version="1.1" xmlns="http://www.w3.org/2000/svg" xmlns:xlink="http://www.w3.org/1999/xlink">
    <!-- Generator: Sketch 40.3 (33839) - http://www.bohemiancoding.com/sketch -->
    <title>Facebook</title>
    <desc>Created with Sketch.</desc>
    <defs>
        <path d="M42.433114,38.9503147 L24.455092,49.3237413 C23.1560534,50.0733916 21.5557835,50.0733916 20.2567449,49.3237413 L2.27907273,38.9503147 C0.980384022,38.2006643 0.179899174,36.816049 0.179899174,35.3167483 L0.179899174,14.5702448 C0.179899174,13.0712937 0.980384022,11.6863287 2.27907273,10.937028 L20.2567449,0.563951049 C21.5557835,-0.185699301 23.1560534,-0.185699301 24.455092,0.563951049 L42.433114,10.937028 C43.7321526,11.6863287 44.5322876,13.0712937 44.5322876,14.5702448 L44.5322876,35.3167483 C44.5322876,36.816049 43.7321526,38.2006643 42.433114,38.9503147 L42.433114,38.9503147 Z" id="path-1"></path>
        <filter x="-50%" y="-50%" width="200%" height="200%" filterUnits="objectBoundingBox" id="filter-2">
            <feGaussianBlur stdDeviation="1" in="SourceAlpha" result="shadowBlurInner1"></feGaussianBlur>
            <feOffset dx="0" dy="0" in="shadowBlurInner1" result="shadowOffsetInner1"></feOffset>
            <feComposite in="shadowOffsetInner1" in2="SourceAlpha" operator="arithmetic" k2="-1" k3="1" result="shadowInnerInner1"></feComposite>
            <feColorMatrix values="0 0 0 0 0   0 0 0 0 0   0 0 0 0 0  0 0 0 0.355242301 0" type="matrix" in="shadowInnerInner1"></feColorMatrix>
        </filter>
    </defs>
    <g id="Page-1" stroke="none" stroke-width="1" fill="none" fill-rule="evenodd">
        <g id="KTC-Landing-768" transform="translate(-557.000000, -4767.000000)">
            <g id="Footer" transform="translate(1.000000, 4718.000000)">
                <g id="SocialMediaIcons" transform="translate(496.000000, 49.000000)">
                    <g id="Facebook" transform="translate(60.173554, 0.000000)">
                        <g id="Stroke-185">
                            <use fill="#FFFFFF" fill-rule="evenodd" xlink:href="#path-1"></use>
                            <use fill="white" fill-opacity="1" filter="url(#filter-2)" xlink:href="#path-1"></use>
                        </g>
                        <path d="M18.5022471,39 L23.5049192,39 L23.5049192,25.0070505 L27.2577432,25.0070505 L28,20.6350191 L23.5049192,20.6350191 L23.5049192,17.466391 C23.5049192,16.4451866 24.1538929,15.3724025 25.0805296,15.3724025 L27.634884,15.3724025 L27.634884,11 L24.504069,11 L24.504069,11.0200382 C19.6052472,11.2007528 18.5991741,14.0899597 18.5113567,17.1253711 L18.5022471,17.1253711 L18.5022471,20.6350191 L16,20.6350191 L16,25.0070505 L18.5022471,25.0070505 L18.5022471,39 L18.5022471,39 Z" id="Stroke-180" fill="#4460A0"></path>
                    </g>
                </g>
            </g>
        </g>
    </g>
</svg>
