<?xml version="1.0" encoding="UTF-8"?>
<svg width="29px" height="18px" viewBox="0 0 29 18" version="1.1" xmlns="http://www.w3.org/2000/svg" xmlns:xlink="http://www.w3.org/1999/xlink">
    <!-- Generator: Sketch 42 (36781) - http://www.bohemiancoding.com/sketch -->
    <title>Fill 28</title>
    <desc>Created with Sketch.</desc>
    <defs></defs>
    <g id="Page-1" stroke="none" stroke-width="1" fill="none" fill-rule="evenodd">
        <g id="KTC-Loading-Page-3" transform="translate(-703.000000, -407.000000)" fill="#19B2CC">
            <g id="Group-4" transform="translate(281.000000, 382.000000)">
                <g id="KTC-Logo" transform="translate(383.000000, 0.000000)">
                    <path d="M62.8381091,42.1133806 C63.0968471,42.2758924 63.5514353,42.2614469 63.8568898,42.0826839 L67.6840556,39.8526602 C67.991307,39.6757028 68.0272428,39.4048498 67.7685048,39.2423379 L53.8541519,30.6418498 L58.9678203,27.6642716 C59.2732749,27.4855085 59.3110075,27.2146555 59.0486759,27.0521436 L56.0983444,25.2302052 C55.8396064,25.0694991 55.3832214,25.0821389 55.0777668,25.2609019 L39.9811251,34.0509872 C39.6774674,34.2279445 39.6415316,34.5006033 39.9038631,34.6631152 L42.8523979,36.4850536 C43.1147294,36.6475654 43.5675209,36.6331199 43.8729754,36.4525512 L48.9255529,33.5128924 L62.8381091,42.1133806 Z" id="Fill-28"></path>
                </g>
            </g>
        </g>
    </g>
</svg>
