<?xml version="1.0" encoding="UTF-8"?>
<svg width="72px" height="78px" viewBox="0 0 72 78" version="1.1" xmlns="http://www.w3.org/2000/svg" xmlns:xlink="http://www.w3.org/1999/xlink">
    <!-- Generator: Sketch 40.3 (33839) - http://www.bohemiancoding.com/sketch -->
    <title>Insight-Icon</title>
    <desc>Created with Sketch.</desc>
    <defs>
        <path d="M30.947389,0.219649328 C30.4241605,-0.07319655 29.5759106,-0.0732363343 29.052611,0.219649328 L0.947389025,15.949867 C0.424160514,16.2427129 0,16.9728063 0,17.5794039 L0,48.4205961 C0,49.0277186 0.424089432,49.7572473 0.947389025,50.050133 L29.052611,65.7803507 C29.5758395,66.0731966 30.4240894,66.0732363 30.947389,65.7803507 L59.052611,50.050133 C59.5758395,49.7572871 60,49.0271937 60,48.4205961 L60,17.5794039 C60,16.9722814 59.5759106,16.2427527 59.052611,15.949867 L30.947389,0.219649328 Z" id="path-1"></path>
        <filter x="-50%" y="-50%" width="200%" height="200%" filterUnits="objectBoundingBox" id="filter-2">
            <feOffset dx="0" dy="0" in="SourceAlpha" result="shadowOffsetOuter1"></feOffset>
            <feGaussianBlur stdDeviation="3" in="shadowOffsetOuter1" result="shadowBlurOuter1"></feGaussianBlur>
            <feColorMatrix values="0 0 0 0 0   0 0 0 0 0   0 0 0 0 0  0 0 0 0.217391304 0" type="matrix" in="shadowBlurOuter1"></feColorMatrix>
        </filter>
    </defs>
    <g id="Page-1" stroke="none" stroke-width="1" fill="none" fill-rule="evenodd">
        <g id="KTC-Landing-768" transform="translate(-39.000000, -1752.000000)">
            <g id="Section2" transform="translate(0.000000, 980.000000)">
                <g id="Insight" transform="translate(45.000000, 778.000000)">
                    <g id="Insight-Icon">
                        <g id="Page-1-Copy-2">
                            <use fill="black" fill-opacity="1" filter="url(#filter-2)" xlink:href="#path-1"></use>
                            <use fill="#FFFFFF" fill-rule="evenodd" xlink:href="#path-1"></use>
                        </g>
                        <g id="Page-1" transform="translate(12.000000, 14.000000)">
                            <path d="M28.25,11.2921348 C28.25,12.1239445 27.914,12.7977528 27.5,12.7977528 C27.086,12.7977528 26.75,12.1239445 26.75,11.2921348 C26.75,10.4603252 27.086,9.78651685 27.5,9.78651685 C27.914,9.78651685 28.25,10.4603252 28.25,11.2921348" id="Fill-1" fill="#19B2CC"></path>
                            <g id="Group-3" transform="translate(9.000000, 4.000000)" stroke="#263348" stroke-width="1.5">
                                <path d="M13.05325,3.91686517 L7.471625,0.528137328 C7.081375,0.29167166 6.601,0.29167166 6.211625,0.528137328 L0.63,3.91686517 C0.23975,4.15333084 0,4.59129838 0,5.06422971 L0,11.8416854 C0,12.3155368 0.23975,12.7525843 0.63,12.9890499 L3.863125,14.9525431 L3.99,16.1449925 C4.06175,16.8157453 4.60075,17.3227203 5.243,17.3227203 L8.44025,17.3227203 C9.0825,17.3227203 9.6215,16.8157453 9.692375,16.1449925 L9.81925,14.9525431 L13.05325,12.9890499 C13.4435,12.7525843 13.68325,12.3155368 13.68325,11.8416854 L13.68325,5.06422971 C13.68325,4.59129838 13.4435,4.15333084 13.05325,3.91686517 L13.05325,3.91686517 Z" id="Stroke-3" stroke-linecap="round" stroke-dasharray="1.35000005364418,2.700000107288361"></path>
                                <path d="M5.67175,17.1571024 C5.67175,17.1571024 4.939375,5.66689513 3.78175,7.71687765 C2.2855,10.3667653 7.3255,8.21373159 7.3255,6.72316979 C7.3255,5.23260799 6.223,4.98418102 6.223,6.72316979 C6.223,8.46215855 11.4205,9.95272035 9.8455,7.71687765 C8.645,6.01285268 7.798,17.3227203 7.798,17.3227203" id="Stroke-5"></path>
                                <path d="M5.56644694,19.3220974 C5.06951202,19.3220974 4.45268202,18.9845764 4.18540301,18.5629934 L3.5,17.4818976 L10.5,17.4818976 L9.81459699,18.5629934 C9.54880241,18.982235 8.93545596,19.3220974 8.43355306,19.3220974 L5.56644694,19.3220974 Z" id="Stroke-7" stroke-linecap="round" stroke-linejoin="round"></path>
                                <path d="M8.1375,19.3220974 L7.84,20.9902385 C7.784,21.3030724 7.52325,21.5303371 7.2205,21.5303371 L7.2205,21.5303371 L7.2205,21.5303371 L6.166125,21.5303371 C5.863375,21.5303371 5.602625,21.3030724 5.546625,20.9902385 L5.25,19.3220974" id="z"></path>
                            </g>
                            <path d="M26.5061545,2.28024657 L34.288118,14.7376415 C35.0405324,15.943576 34.6906334,17.5279199 33.4988722,18.3083075 L30.9824936,19.9555014 C30.2313946,20.4465171 29.7841554,21.2871359 29.7973095,22.1840579 L28.595025,29.0661335 C28.4542762,29.8700898 27.9452127,30.5627493 27.2177911,30.9398493 L24.8119069,32.1863744 C23.9542598,32.631562 23.4109956,33.5088433 23.3965261,34.4699247 L23.3820566,35.420531 C23.36101,36.851678 22.18898,38 20.7512372,38 L12.9337576,38 C11.4775991,38 10.2976767,36.8215624 10.3029383,35.3720841 L10.3095154,33.6725152 C10.3108308,33.1736433 10.1700819,32.683937 9.90173837,32.2623182 L0.407111452,17.3341324 C-0.105898315,16.5262479 -0.136152737,15.503626 0.328186873,14.6656259 L7.55636295,1.66091213 C8.01938715,0.826840176 8.90071162,0.309637001 9.85832985,0.309637001 L23.1768526,0.309637001 C24.5659252,0.309637001 25.843188,1.06514645 26.5061545,2.28024657 L26.5061545,2.28024657 Z" stroke="#19B2CC" stroke-width="2.5"></path>
                        </g>
                    </g>
                </g>
            </g>
        </g>
    </g>
</svg>