<?xml version="1.0" encoding="UTF-8"?>
<svg width="72px" height="78px" viewBox="0 0 72 78" version="1.1" xmlns="http://www.w3.org/2000/svg" xmlns:xlink="http://www.w3.org/1999/xlink">
    <!-- Generator: Sketch 42 (36781) - http://www.bohemiancoding.com/sketch -->
    <title>PeopleSearch</title>
    <desc>Created with Sketch.</desc>
    <defs>
        <path d="M30.947389,0.219649328 C30.4241605,-0.07319655 29.5759106,-0.0732363343 29.052611,0.219649328 L0.947389025,15.949867 C0.424160514,16.2427129 0,16.9728063 0,17.5794039 L0,48.4205961 C0,49.0277186 0.424089432,49.7572473 0.947389025,50.050133 L29.052611,65.7803507 C29.5758395,66.0731966 30.4240894,66.0732363 30.947389,65.7803507 L59.052611,50.050133 C59.5758395,49.7572871 60,49.0271937 60,48.4205961 L60,17.5794039 C60,16.9722814 59.5759106,16.2427527 59.052611,15.949867 L30.947389,0.219649328 Z" id="path-1"></path>
        <filter x="-50%" y="-50%" width="200%" height="200%" filterUnits="objectBoundingBox" id="filter-2">
            <feOffset dx="0" dy="0" in="SourceAlpha" result="shadowOffsetOuter1"></feOffset>
            <feGaussianBlur stdDeviation="3" in="shadowOffsetOuter1" result="shadowBlurOuter1"></feGaussianBlur>
            <feColorMatrix values="0 0 0 0 0   0 0 0 0 0   0 0 0 0 0  0 0 0 0.217391304 0" type="matrix" in="shadowBlurOuter1"></feColorMatrix>
        </filter>
    </defs>
    <g id="Search" stroke="none" stroke-width="1" fill="none" fill-rule="evenodd">
        <g id="KTC-FreeSearch-7A" transform="translate(-333.000000, -412.000000)">
            <g id="SearchBox" transform="translate(279.000000, 362.000000)">
                <g id="People-Search" transform="translate(60.000000, 50.000000)">
                    <g id="PeopleSearch" transform="translate(0.000000, 6.000000)">
                        <g id="Page-1-Copy-2">
                            <use fill="black" fill-opacity="1" filter="url(#filter-2)" xlink:href="#path-1"></use>
                            <use fill="#FFFFFF" fill-rule="evenodd" xlink:href="#path-1"></use>
                        </g>
                        <g id="Page-1" transform="translate(15.000000, 15.750000)">
                            <path d="M27.8649519,25.3318898 L22.8619471,23.1830526" id="Stroke-5" stroke="#263348" stroke-width="2" stroke-linecap="round" stroke-linejoin="round"></path>
                            <path d="M25.7586058,1.91085349 L33.3209856,13.9905419 C34.0533173,15.1605837 33.7136538,16.6970023 32.5540385,17.453393 L30.1093269,19.0499791 C29.3791587,19.5270209 28.9443029,20.3414302 28.9572837,21.2106349 L27.7890144,27.8849233 C27.6527163,28.6638767 27.1572837,29.3353884 26.4509135,29.7006907 L24.1132933,30.910486 C23.2792788,31.3424023 22.7513942,32.1922674 22.7373317,33.1259372 L22.7221875,34.046714 C22.7027163,35.4337884 21.5636538,36.5479605 20.1671394,36.5479605 L12.5701442,36.5479605 C11.1541587,36.5479605 10.007524,35.4058535 10.011851,33.9994395 L10.0183413,32.3512814 C10.0205048,31.867793 9.883125,31.3929 9.62242788,30.9846209 L0.396346154,16.5089791 C-0.102331731,15.7246535 -0.132620192,14.7329651 0.319543269,13.9217791 L7.34430288,1.31025349 C7.79430288,0.501216279 8.65103365,0.000537209302 9.58024038,0.000537209302 L22.5242308,0.000537209302 C23.873149,0.000537209302 25.1138942,0.733290698 25.7586058,1.91085349 Z" id="Stroke-1" stroke="#19B2CC" stroke-width="3" stroke-linejoin="round"></path>
                            <path d="M22.2973197,12.945692 C21.6764111,12.945692 21.1723197,11.7791111 21.1723197,10.3375954 C21.1723197,8.89734092 21.6764111,7.73076 22.2973197,7.73076 C22.919498,7.73076 23.4223197,8.89734092 23.4223197,10.3375954 C23.4223197,11.7791111 22.919498,12.945692 22.2973197,12.945692 Z" id="Fill-3" fill="#263348"></path>
                        </g>
                    </g>
                </g>
            </g>
        </g>
    </g>
</svg>