<?xml version="1.0" encoding="UTF-8"?>
<svg width="72px" height="78px" viewBox="0 0 72 78" version="1.1" xmlns="http://www.w3.org/2000/svg" xmlns:xlink="http://www.w3.org/1999/xlink">
    <!-- Generator: Sketch 42 (36781) - http://www.bohemiancoding.com/sketch -->
    <title>Phone-Search</title>
    <desc>Created with Sketch.</desc>
    <defs>
        <path d="M30.947389,0.219649328 C30.4241605,-0.07319655 29.5759106,-0.0732363343 29.052611,0.219649328 L0.947389025,15.949867 C0.424160514,16.2427129 0,16.9728063 0,17.5794039 L0,48.4205961 C0,49.0277186 0.424089432,49.7572473 0.947389025,50.050133 L29.052611,65.7803507 C29.5758395,66.0731966 30.4240894,66.0732363 30.947389,65.7803507 L59.052611,50.050133 C59.5758395,49.7572871 60,49.0271937 60,48.4205961 L60,17.5794039 C60,16.9722814 59.5759106,16.2427527 59.052611,15.949867 L30.947389,0.219649328 Z" id="path-1"></path>
        <filter x="-50%" y="-50%" width="200%" height="200%" filterUnits="objectBoundingBox" id="filter-2">
            <feOffset dx="0" dy="0" in="SourceAlpha" result="shadowOffsetOuter1"></feOffset>
            <feGaussianBlur stdDeviation="3" in="shadowOffsetOuter1" result="shadowBlurOuter1"></feGaussianBlur>
            <feColorMatrix values="0 0 0 0 0   0 0 0 0 0   0 0 0 0 0  0 0 0 0.217391304 0" type="matrix" in="shadowBlurOuter1"></feColorMatrix>
        </filter>
    </defs>
    <g id="Search" stroke="none" stroke-width="1" fill="none" fill-rule="evenodd">
        <g id="KTC-FreeSearch-7A" transform="translate(-333.000000, -728.000000)">
            <g id="SearchBox" transform="translate(279.000000, 362.000000)">
                <g id="Phone-Search" transform="translate(60.000000, 368.000000)">
                    <g transform="translate(0.000000, 4.000000)">
                        <g id="Page-1-Copy-2">
                            <use fill="black" fill-opacity="1" filter="url(#filter-2)" xlink:href="#path-1"></use>
                            <use fill="#FFFFFF" fill-rule="evenodd" xlink:href="#path-1"></use>
                        </g>
                        <g id="Phone" transform="translate(13.000000, 15.000000)" stroke-linejoin="round">
                            <path d="M4.75245,1.5551875 L10.43595,13.9796875" id="Stroke-3" stroke="#263348" stroke-width="2"></path>
                            <path d="M23.089725,26.341975 L35.51535,32.025475" id="Stroke-5" stroke="#263348" stroke-width="2"></path>
                            <path d="M8.345025,27.5184 C-2.803725,16.368525 -0.67635,2.398275 2.7414,1.500525 L8.0829,0.094275 C9.461025,-0.2691 10.88865,0.44415 11.4309,1.761525 C13.0779,5.7564 15.317775,11.70315 7.84215,13.9464 C9.85365,18.9729 11.36115,20.481525 13.371525,22.4919 C15.3819,24.502275 21.9159,28.021275 21.9159,28.021275 C24.160275,20.544525 29.830275,22.7979 33.82515,24.4449 C35.140275,24.98715 35.855775,26.41815 35.493525,27.794025 L34.0884,33.135525 C33.11865,36.8199 19.2159,38.389275 8.345025,27.5184" id="Stroke-1" stroke="#19B2CC" stroke-width="3"></path>
                        </g>
                    </g>
                </g>
            </g>
        </g>
    </g>
</svg>