<?xml version="1.0" encoding="UTF-8"?>
<svg width="18px" height="18px" viewBox="0 0 18 18" version="1.1" xmlns="http://www.w3.org/2000/svg" xmlns:xlink="http://www.w3.org/1999/xlink">
    <!-- Generator: Sketch 48.2 (47327) - http://www.bohemiancoding.com/sketch -->
    <title>Combined Shape</title>
    <desc>Created with Sketch.</desc>
    <defs></defs>
    <g id="Footer-OPT1" stroke="none" stroke-width="1" fill="none" fill-rule="evenodd" transform="translate(-651.000000, -470.000000)">
        <g id="Footer-Tablet" transform="translate(48.000000, 49.000000)" fill="#81B44C">
            <g id="SocialMedia" transform="translate(1.000000, 421.000000)">
                <path d="M607.985589,16.4926787 L606.248785,17.6466209 C605.99003,17.818539 605.640901,17.748144 605.468983,17.4893894 C605.407694,17.3971426 605.375,17.2888556 605.375,17.1781043 L605.375,15.1199547 C603.316902,13.5647139 602,11.1736557 602,8.48985274 C602,3.80525939 606.033914,0 611,0 C615.974335,0 620,3.79747767 620,8.48985274 C620,13.1744461 615.966086,16.9797055 611,16.9797055 C609.942462,16.9797055 608.927803,16.8080662 607.985589,16.4926787 Z M609.809781,8.48982243 C610.329754,8.68981225 610.709735,9.23978427 610.709735,9.86975222 C610.709735,10.8197039 610.119765,11.9996438 608.179864,11.9996438 L605.679991,11.9996438 C605.579996,11.9996438 605.5,11.9196479 605.5,11.819653 L605.5,5.17999084 C605.5,5.07999593 605.579996,5 605.679991,5 L608.179864,5 C610.119765,5 610.709735,6.18993945 610.709735,7.13989112 C610.709735,7.6198667 610.339754,8.26983362 609.809781,8.48982243 Z M608.279859,10.5097197 C608.979823,10.5097197 609.089817,10.0297441 609.089817,9.86975222 C609.089817,9.6597629 608.989822,9.21978529 608.299858,9.19978631 L607.089919,9.19978631 L607.089919,10.5097197 L608.279859,10.5097197 Z M608.299858,7.86985398 C608.989822,7.84985499 609.089817,7.32988145 609.089817,7.13989112 C609.089817,6.97989926 608.979823,6.4799247 608.279859,6.4799247 L607.089919,6.4799247 L607.089919,7.86985398 L608.299858,7.86985398 Z M617.137268,5.15999186 L614.057425,11.9296474 C614.017427,12.0196428 613.917432,12.0796398 613.817437,12.0796398 C613.717442,12.0796398 613.617447,12.0196428 613.577449,11.9296474 L610.507606,5.15999186 C610.477607,5.08999542 610.537604,5 610.6176,5 L612.047527,5 C612.157522,5 612.257517,5.06999644 612.297515,5.16999135 L613.827437,8.96979801 L615.357359,5.16999135 C615.397357,5.06999644 615.497352,5 615.607346,5 L617.037273,5 C617.117269,5 617.177266,5.08999542 617.137268,5.15999186 Z" id="Combined-Shape"></path>
            </g>
        </g>
    </g>
</svg>