<?xml version="1.0" encoding="UTF-8"?>
<svg width="14px" height="14px" viewBox="0 0 14 14" version="1.1" xmlns="http://www.w3.org/2000/svg" xmlns:xlink="http://www.w3.org/1999/xlink">
    <!-- Generator: Sketch 48.2 (47327) - http://www.bohemiancoding.com/sketch -->
    <title>clock</title>
    <desc>Created with Sketch.</desc>
    <defs></defs>
    <g id="Desktop-HD" stroke="none" stroke-width="1" fill="none" fill-rule="evenodd" transform="translate(-932.000000, -156.000000)">
        <g id="Footer-Tablet" transform="translate(151.000000, 59.000000)" fill="#4A3B8F">
            <path d="M793.6,104 C793.6,100.9123 791.0877,98.4 788,98.4 C784.9123,98.4 782.4,100.9123 782.4,104 C782.4,107.0877 784.9123,109.6 788,109.6 C791.0877,109.6 793.6,107.0877 793.6,104 M795,104 C795,107.8661 791.8661,111 788,111 C784.1339,111 781,107.8661 781,104 C781,100.1339 784.1339,97 788,97 C791.8661,97 795,100.1339 795,104 M792.2,104.7 C792.2,105.0864 791.8864,105.4 791.5,105.4 L788.7,105.4 C787.9265,105.4 787.3,104.7735 787.3,104 L787.3,100.5 C787.3,100.1136 787.6136,99.8 788,99.8 C788.3864,99.8 788.7,100.1136 788.7,100.5 L788.7,103.3 C788.7,103.685 789.015,104 789.4,104 L791.5,104 C791.8864,104 792.2,104.3136 792.2,104.7" id="clock"></path>
        </g>
    </g>
</svg>