<?xml version="1.0" encoding="UTF-8"?>
<svg width="120px" height="120px" viewBox="0 0 120 120" version="1.1" xmlns="http://www.w3.org/2000/svg" xmlns:xlink="http://www.w3.org/1999/xlink">
    <!-- Generator: Sketch 45.2 (43514) - http://www.bohemiancoding.com/sketch -->
    <title>fingerprint</title>
    <desc>Created with Sketch.</desc>
    <defs>
        <path d="M99.9996,120.9422 L19.9996,120.9422 C8.9546,120.9422 -0.0004,111.9882 -0.0004,100.9422 L-0.0004,20.9422 C-0.0004,9.8962 8.9546,0.9422 19.9996,0.9422 L99.9996,0.9422 C111.0456,0.9422 119.9996,9.8962 119.9996,20.9422 L119.9996,100.9422 C119.9996,111.9882 111.0456,120.9422 99.9996,120.9422" id="path-1"></path>
    </defs>
    <g id="Page-1" stroke="none" stroke-width="1" fill="none" fill-rule="evenodd">
        <g id="fingerprint" transform="translate(0.000000, -1.000000)">
            <g id="Fill-4" transform="translate(0.000000, 0.058000)">
                <mask id="mask-2" fill="white">
                    <use xlink:href="#path-1"></use>
                </mask>
                <use id="Mask" fill="#F14F86" xlink:href="#path-1"></use>
                <path d="M147.4937,84.7395 L96.5417,178.9995 L19.7517,102.2095 L19.7517,81.0865 L19.7517,60.1975 L26.5307,34.2395 L50.0457,16.6175 C50.0457,16.6175 74.6707,11.8605 80.5307,17.7395 C86.3907,23.6185 92.5067,29.7525 92.5067,29.7525 L147.4937,84.7395 Z" fill-opacity="0.09" fill="#000000" mask="url(#mask-2)"></path>
            </g>
            <path d="M23.7779,104.6315 C21.5689,104.6315 19.7779,102.8405 19.7779,100.6315 L19.7779,81.1445 C19.7779,78.9355 21.5689,77.1445 23.7779,77.1445 C25.9869,77.1445 27.7779,78.9355 27.7779,81.1445 L27.7779,100.6315 C27.7779,102.8405 25.9869,104.6315 23.7779,104.6315" id="Fill-7" fill="#FFFFFF"></path>
            <path d="M23.7779,69.84 C21.5689,69.84 19.7779,68.049 19.7779,65.84 L19.7779,51.125 C19.7779,29.221 37.5969,11.401 59.5009,11.401 C66.6879,11.401 73.7299,13.341 79.8649,17.012 C81.7599,18.147 82.3779,20.603 81.2439,22.499 C80.1069,24.395 77.6519,25.01 75.7569,23.878 C70.8629,20.949 65.2419,19.401 59.5009,19.401 C42.0079,19.401 27.7779,33.632 27.7779,51.125 L27.7779,65.84 C27.7779,68.049 25.9869,69.84 23.7779,69.84" id="Fill-9" fill="#FFFFFF"></path>
            <path d="M95.2223,104.6315 C93.0133,104.6315 91.2223,102.8405 91.2223,100.6315 L91.2223,51.1245 C91.2223,45.5375 89.7513,40.0435 86.9673,35.2375 C85.8613,33.3255 86.5133,30.8785 88.4243,29.7715 C90.3373,28.6645 92.7843,29.3175 93.8913,31.2285 C97.3783,37.2515 99.2223,44.1315 99.2223,51.1245 L99.2223,100.6315 C99.2223,102.8405 97.4313,104.6315 95.2223,104.6315" id="Fill-11" fill="#FFFFFF"></path>
            <path d="M37.0348,82.8634 C34.8258,82.8634 33.0348,81.0724 33.0348,78.8634 L33.0348,64.9384 C33.0348,62.7294 34.8258,60.9384 37.0348,60.9384 C39.2438,60.9384 41.0348,62.7294 41.0348,64.9384 L41.0348,78.8634 C41.0348,81.0724 39.2438,82.8634 37.0348,82.8634" id="Fill-13" fill="#FFFFFF"></path>
            <path d="M81.9635,69.2975 C79.7545,69.2975 77.9635,67.5065 77.9635,65.2975 L77.9635,51.3715 C77.9635,41.1895 69.6815,32.9045 59.5005,32.9045 C49.3185,32.9045 41.0345,41.1895 41.0345,51.3715 C41.0345,53.5805 39.2435,55.3715 37.0345,55.3715 C34.8255,55.3715 33.0345,53.5805 33.0345,51.3715 C33.0345,36.7775 44.9065,24.9045 59.5005,24.9045 C74.0925,24.9045 85.9635,36.7775 85.9635,51.3715 L85.9635,65.2975 C85.9635,67.5065 84.1725,69.2975 81.9635,69.2975" id="Fill-15" fill="#FFFFFF"></path>
            <path d="M59.5006,102.6686 C51.5896,102.6686 44.1576,99.1736 39.1106,93.0796 C37.7016,91.3776 37.9386,88.8556 39.6416,87.4466 C41.3426,86.0386 43.8636,86.2746 45.2726,87.9766 C48.7946,92.2296 53.9796,94.6686 59.5006,94.6686 C62.3586,94.6686 65.0986,94.0356 67.6416,92.7876 C69.6216,91.8116 72.0206,92.6306 72.9946,94.6146 C73.9686,96.5976 73.1496,98.9946 71.1666,99.9676 C67.5176,101.7596 63.5926,102.6686 59.5006,102.6686" id="Fill-17" fill="#FFFFFF"></path>
            <path d="M81.9635,104.6315 C79.7545,104.6315 77.9635,102.8405 77.9635,100.6315 L77.9635,82.5875 C77.9635,80.3785 79.7545,78.5875 81.9635,78.5875 C84.1725,78.5875 85.9635,80.3785 85.9635,82.5875 L85.9635,100.6315 C85.9635,102.8405 84.1725,104.6315 81.9635,104.6315" id="Fill-19" fill="#FFFFFF"></path>
            <path d="M68.9566,64.255 C66.7476,64.255 64.9566,62.464 64.9566,60.255 L64.9566,54.111 C64.9566,51.105 62.5096,48.659 59.5006,48.659 C56.4926,48.659 54.0456,51.105 54.0456,54.111 C54.0456,56.32 52.2546,58.111 50.0456,58.111 C47.8366,58.111 46.0456,56.32 46.0456,54.111 C46.0456,46.693 52.0816,40.659 59.5006,40.659 C66.9206,40.659 72.9566,46.693 72.9566,54.111 L72.9566,60.255 C72.9566,62.464 71.1656,64.255 68.9566,64.255" id="Fill-21" fill="#FFFFFF"></path>
            <path d="M59.5006,88.0128 C52.0816,88.0128 46.0456,81.9768 46.0456,74.5578 L46.0456,68.4148 C46.0456,66.2058 47.8366,64.4148 50.0456,64.4148 C52.2546,64.4148 54.0456,66.2058 54.0456,68.4148 L54.0456,74.5578 C54.0456,77.5658 56.4926,80.0128 59.5006,80.0128 C62.5096,80.0128 64.9566,77.5658 64.9566,74.5578 C64.9566,72.3488 66.7476,70.5578 68.9566,70.5578 C71.1656,70.5578 72.9566,72.3488 72.9566,74.5578 C72.9566,81.9768 66.9206,88.0128 59.5006,88.0128" id="Fill-23" fill="#FFFFFF"></path>
        </g>
    </g>
</svg>