<?xml version="1.0" encoding="UTF-8"?>
<svg width="40px" height="40px" viewBox="0 0 40 40" version="1.1" xmlns="http://www.w3.org/2000/svg" xmlns:xlink="http://www.w3.org/1999/xlink">
    <!-- Generator: Sketch 50.2 (55047) - http://www.bohemiancoding.com/sketch -->
    <title>icn_time_color_small</title>
    <desc>Created with Sketch.</desc>
    <defs>
        <path d="M33.3333333,40 L6.66666667,40 C2.98466667,40 0,37.015 0,33.3333333 L0,6.66666667 C0,2.98466667 2.98466667,0 6.66666667,0 L33.3333333,0 C37.015,0 40,2.98466667 40,6.66666667 L40,33.3333333 C40,37.015 37.015,40 33.3333333,40" id="path-1"></path>
    </defs>
    <g id="Page-1" stroke="none" stroke-width="1" fill="none" fill-rule="evenodd">
        <g id="BV-Desktop_SAUC_P_Step-2" transform="translate(-365.000000, -477.000000)">
            <g id="modal" transform="translate(295.000000, 204.000000)">
                <g id="unlimited" transform="translate(70.000000, 269.000000)">
                    <g id="icn_time_color_small" transform="translate(0.000000, 4.000000)">
                        <g id="shadow">
                            <mask id="mask-2" fill="white">
                                <use xlink:href="#path-1"></use>
                            </mask>
                            <use id="Mask" fill="#81B44C" xlink:href="#path-1"></use>
                            <path d="M47.3370667,68.6667333 L10.1787333,31.5087333 L5.74973333,19.2967333 C5.74973333,19.2967333 5.80073333,12.2794 13.4294,7.75906667 C22.0730667,2.6374 31.4210667,9.5254 31.4210667,9.5254 L66.6234,46.2590667 L47.3370667,68.6667333 Z" fill-opacity="0.09" fill="#000000" mask="url(#mask-2)"></path>
                        </g>
                        <path d="M25.0893333,23.2033333 C25.61,23.724 25.61,24.5683333 25.0896667,25.089 C24.8293333,25.3493333 24.488,25.4796667 24.1466667,25.4796667 C23.8053333,25.4796667 23.4643333,25.3493333 23.2043333,25.0893333 L19.057,20.9426667 C18.8066667,20.6926667 18.666,20.3533333 18.666,20 L18.666,12.0533333 C18.666,11.317 19.263,10.72 19.9993333,10.72 C20.7356667,10.72 21.3326667,11.317 21.3326667,12.0533333 L21.3326667,19.4476667 L25.0893333,23.2033333 Z M20,32.6666667 C13.0156667,32.6666667 7.33333333,26.984 7.33333333,20 C7.33333333,13.0156667 13.0156667,7.33333333 20,7.33333333 C26.9846667,7.33333333 32.6666667,13.0156667 32.6666667,20 C32.6666667,26.984 26.9846667,32.6666667 20,32.6666667 Z M20,4.66666667 C11.5453333,4.66666667 4.66666667,11.545 4.66666667,20 C4.66666667,28.4546667 11.5453333,35.3333333 20,35.3333333 C28.455,35.3333333 35.3333333,28.4546667 35.3333333,20 C35.3333333,11.545 28.455,4.66666667 20,4.66666667 Z" id="Fill-6" fill="#FFFFFF"></path>
                    </g>
                </g>
            </g>
        </g>
    </g>
</svg>