<?xml version="1.0" encoding="UTF-8"?>
<svg width="80px" height="84px" viewBox="0 0 80 84" version="1.1" xmlns="http://www.w3.org/2000/svg" xmlns:xlink="http://www.w3.org/1999/xlink">
    <!-- Generator: Sketch 50.2 (55047) - http://www.bohemiancoding.com/sketch -->
    <title>icn_contact</title>
    <desc>Created with Sketch.</desc>
    <defs>
        <path d="M66.6669333,80.0002 L13.3336,80.0002 C5.9696,80.0002 0.000266666667,74.0302 0.000266666667,66.6668667 L0.000266666667,13.3335333 C0.000266666667,5.96953333 5.9696,0.0002 13.3336,0.0002 L66.6669333,0.0002 C74.0302667,0.0002 80.0002667,5.96953333 80.0002667,13.3335333 L80.0002667,66.6668667 C80.0002667,74.0302 74.0302667,80.0002 66.6669333,80.0002" id="path-1"></path>
        <filter x="-2.5%" y="-2.5%" width="105.0%" height="110.0%" filterUnits="objectBoundingBox" id="filter-3">
            <feOffset dx="0" dy="4" in="SourceAlpha" result="shadowOffsetOuter1"></feOffset>
            <feColorMatrix values="0 0 0 0 0.388235294   0 0 0 0 0.541176471   0 0 0 0 0.22745098  0 0 0 1 0" type="matrix" in="shadowOffsetOuter1"></feColorMatrix>
        </filter>
    </defs>
    <g id="Page-1" stroke="none" stroke-width="1" fill="none" fill-rule="evenodd">
        <g id="BV-Mobile_SAUC_1stS_Step-1" transform="translate(-195.000000, -246.000000)">
            <g id="categories" transform="translate(0.000000, 148.000000)">
                <g id="category_2" transform="translate(165.000000, 98.000000)">
                    <g id="icn_contact" transform="translate(30.000000, 0.000000)">
                        <g id="shadows">
                            <mask id="mask-2" fill="white">
                                <use xlink:href="#path-1"></use>
                            </mask>
                            <g id="Mask">
                                <use fill="black" fill-opacity="1" filter="url(#filter-3)" xlink:href="#path-1"></use>
                                <use fill="#81B44C" fill-rule="evenodd" xlink:href="#path-1"></use>
                            </g>
                            <path d="M80.9931333,141.3094 L7.1278,68.0000667 L18.9624667,58.7387333 L30.6498,57.4034 L38.7911333,49.9454 L40.0004667,35.4560667 C40.0004667,35.4560667 28.0984667,38.6740667 28.1124667,33.9447333 C28.1238,29.8254 32.8578,29.4487333 35.2911333,24.1120667 C37.2891333,19.7294 36.9324667,9.7774 37.9911333,10.6667333 C42.7724667,10.2854 45.9311333,10.2854 45.9311333,10.2854 L118.3518,82.7060667 L80.9931333,141.3094 Z M27.7513333,47.5426667 C27.7513333,50.6033333 25.27,53.0846667 22.2093333,53.0846667 C19.1486667,53.0846667 16.6666667,50.6033333 16.6666667,47.5426667 C16.6666667,44.4813333 19.1486667,42 22.2093333,42 C25.27,42 27.7513333,44.4813333 27.7513333,47.5426667 Z" fill-opacity="0.09" fill="#000000" mask="url(#mask-2)"></path>
                        </g>
                        <path d="M40.0002667,12.619 C41.7696,12.619 43.2089333,14.0583333 43.2089333,15.8276667 C43.2089333,17.5976667 41.7696,19.037 40.0002667,19.037 C38.2309333,19.037 36.7916,17.5976667 36.7916,15.8276667 C36.7916,14.0583333 38.2309333,12.619 40.0002667,12.619 M40.0002667,23.7036667 C44.3429333,23.7036667 47.8756,20.171 47.8756,15.8276667 C47.8756,11.485 44.3429333,7.95233333 40.0002667,7.95233333 C35.6576,7.95233333 32.1249333,11.485 32.1249333,15.8276667 C32.1249333,20.171 35.6576,23.7036667 40.0002667,23.7036667" id="Fill-32" fill="#FFFFFF"></path>
                        <path d="M22.0816667,44.3185333 C23.851,44.3185333 25.2903333,45.7578667 25.2903333,47.5272 C25.2903333,49.2972 23.851,50.7365333 22.0816667,50.7365333 C20.3123333,50.7365333 18.873,49.2972 18.873,47.5272 C18.873,45.7578667 20.3123333,44.3185333 22.0816667,44.3185333 M22.0816667,55.4032 C26.4243333,55.4032 29.957,51.8705333 29.957,47.5272 C29.957,43.1845333 26.4243333,39.6518667 22.0816667,39.6518667 C17.739,39.6518667 14.2063333,43.1845333 14.2063333,47.5272 C14.2063333,51.8705333 17.739,55.4032 22.0816667,55.4032" id="Fill-34" fill="#FFFFFF"></path>
                        <path d="M57.9143333,44.3185333 C59.6836667,44.3185333 61.123,45.7578667 61.123,47.5272 C61.123,49.2972 59.6836667,50.7365333 57.9143333,50.7365333 C56.145,50.7365333 54.7056667,49.2972 54.7056667,47.5272 C54.7056667,45.7578667 56.145,44.3185333 57.9143333,44.3185333 M50.039,47.5272 C50.039,51.8705333 53.5716667,55.4032 57.9143333,55.4032 C62.257,55.4032 65.7896667,51.8705333 65.7896667,47.5272 C65.7896667,43.1845333 62.257,39.6518667 57.9143333,39.6518667 C53.5716667,39.6518667 50.039,43.1845333 50.039,47.5272" id="Fill-36" fill="#FFFFFF"></path>
                        <path d="M48.8284,64.8221333 C49.8244,63.0028 51.7544,61.5548 53.0457333,60.8488 C53.2677333,60.7281333 53.5377333,60.7221333 53.7730667,60.8361333 C54.4410667,61.1614667 55.0464,61.4908 55.5730667,61.8154667 C57.0177333,62.7048 58.8124,62.7041333 60.2557333,61.8154667 C60.7830667,61.4901333 61.3890667,61.1608 62.0557333,60.8361333 C62.2890667,60.7228 62.5610667,60.7281333 62.7837333,60.8494667 C64.0737333,61.5554667 66.0037333,63.0028 66.9997333,64.8221333 L48.8284,64.8221333 Z M12.9964,64.8221333 C13.9924,63.0028 15.9224,61.5548 17.2137333,60.8488 C17.4357333,60.7268 17.7077333,60.7228 17.9404,60.8361333 C18.6070667,61.1608 19.2130667,61.4901333 19.7397333,61.8148 C21.1830667,62.7041333 22.9777333,62.7048 24.4250667,61.8148 C24.9497333,61.4908 25.5550667,61.1614667 26.2230667,60.8361333 C26.4564,60.7221333 26.7270667,60.7268 26.9510667,60.8494667 C28.2417333,61.5554667 30.1717333,63.0028 31.1677333,64.8221333 L12.9964,64.8221333 Z M35.1304,29.1501333 C35.3530667,29.0274667 35.6257333,29.0234667 35.8590667,29.1361333 C36.5257333,29.4614667 37.1317333,29.7908 37.6584,30.1154667 C39.1044,31.0054667 40.8977333,31.0048 42.3417333,30.1154667 C42.8690667,29.7908 43.4750667,29.4614667 44.1417333,29.1361333 C44.3750667,29.0228 44.6477333,29.0281333 44.8690667,29.1494667 C46.1597333,29.8554667 48.0904,31.3034667 49.0864,33.1228 L30.9144,33.1228 C31.9104,31.3034667 33.8404,29.8554667 35.1304,29.1501333 Z M65.0230667,56.7548 C63.4757333,55.9074667 61.6004,55.8654667 60.0110667,56.6414667 C59.2504,57.0121333 58.5457333,57.3934667 57.9144,57.7774667 C57.2850667,57.3941333 56.5804,57.0128 55.8170667,56.6414667 C54.3470667,55.9248 52.6404,55.9154667 51.1670667,56.5848 C51.0737333,56.3768 50.9497333,56.1794667 50.7817333,56.0068 L42.0004,47.0094667 L42.0004,37.7894667 L52.0657333,37.7894667 C53.3544,37.7894667 54.3990667,36.7448 54.3990667,35.4561333 C54.3990667,30.7274667 50.6330667,26.9828 47.1084,25.0554667 C45.5604,24.2088 43.6864,24.1661333 42.0970667,24.9414667 C41.3364,25.3121333 40.6317333,25.6941333 40.0004,26.0774667 C39.3697333,25.6941333 38.6644,25.3121333 37.9030667,24.9414667 C36.3144,24.1668 34.4410667,24.2088 32.8917333,25.0554667 C29.3670667,26.9834667 25.6010667,30.7281333 25.6010667,35.4561333 C25.6010667,36.7448 26.6464,37.7894667 27.9344,37.7894667 L38.0004,37.7894667 L38.0004,47.0094667 L29.2190667,56.0068 C29.0497333,56.1794667 28.9257333,56.3774667 28.8324,56.5861333 C27.3597333,55.9154667 25.6484,55.9234667 24.1784,56.6414667 C23.4157333,57.0128 22.7104,57.3948 22.0817333,57.7768 C21.4510667,57.3934667 20.7464,57.0121333 19.9844,56.6414667 C18.3944,55.8654667 16.5204,55.9081333 14.9744,56.7548 C11.4497333,58.6821333 7.68306667,62.4261333 7.68306667,67.1554667 C7.68306667,68.4441333 8.7284,69.4888 10.0164,69.4888 L34.1477333,69.4888 C35.4357333,69.4888 36.4810667,68.4441333 36.4810667,67.1554667 C36.4810667,63.7448 34.5184,60.8508 32.1037333,58.7768 L40.0004,50.6868 L47.8944,58.7748 C45.4784,60.8488 43.5150667,63.7434667 43.5150667,67.1554667 C43.5150667,68.4441333 44.5604,69.4888 45.8484,69.4888 L69.9797333,69.4888 C71.2677333,69.4888 72.3130667,68.4441333 72.3130667,67.1554667 C72.3130667,62.4261333 68.5464,58.6821333 65.0230667,56.7548 Z" id="Fill-38" fill="#FFFFFF"></path>
                    </g>
                </g>
            </g>
        </g>
    </g>
</svg>