<?xml version="1.0" encoding="UTF-8"?>
<svg width="70px" height="74px" viewBox="0 0 70 74" version="1.1" xmlns="http://www.w3.org/2000/svg" xmlns:xlink="http://www.w3.org/1999/xlink">
    <!-- Generator: Sketch 50.2 (55047) - http://www.bohemiancoding.com/sketch -->
    <title>icn_contact_hover</title>
    <desc>Created with Sketch.</desc>
    <defs>
        <path d="M58.3335667,72.000175 L11.6669,72.000175 C5.2234,72.000175 0.000233333333,66.627175 0.000233333333,60.000175 L0.000233333333,12.000175 C0.000233333333,5.372575 5.2234,0.000175 11.6669,0.000175 L58.3335667,0.000175 C64.7764833,0.000175 70.0002333,5.372575 70.0002333,12.000175 L70.0002333,60.000175 C70.0002333,66.627175 64.7764833,72.000175 58.3335667,72.000175" id="path-1"></path>
        <filter x="-1.4%" y="-1.4%" width="102.9%" height="105.6%" filterUnits="objectBoundingBox" id="filter-3">
            <feOffset dx="0" dy="2" in="SourceAlpha" result="shadowOffsetOuter1"></feOffset>
            <feColorMatrix values="0 0 0 0 0.31372549   0 0 0 0 0.431372549   0 0 0 0 0.196078431  0 0 0 1 0" type="matrix" in="shadowOffsetOuter1"></feColorMatrix>
        </filter>
    </defs>
    <g id="Page-1" stroke="none" stroke-width="1" fill="none" fill-rule="evenodd">
        <g id="BV-Desktop_SAUC_1stS_Step-1" transform="translate(-484.000000, -270.000000)">
            <g id="categories_hover" transform="translate(295.000000, 160.000000)">
                <g id="category_2" transform="translate(164.000000, 110.000000)">
                    <g id="icn_contact_hover" transform="translate(25.000000, 0.000000)">
                        <g id="shadows">
                            <mask id="mask-2" fill="white">
                                <use xlink:href="#path-1"></use>
                            </mask>
                            <g id="Mask">
                                <use fill="black" fill-opacity="1" filter="url(#filter-3)" xlink:href="#path-1"></use>
                                <use fill="#638A3A" fill-rule="evenodd" xlink:href="#path-1"></use>
                            </g>
                            <path d="M70.8689917,123.645725 L6.236825,59.5000583 L16.5921583,51.3963917 L26.818575,50.227975 L33.9422417,43.702225 L35.0004083,31.0240583 C35.0004083,31.0240583 24.5861583,33.8398083 24.5984083,29.7016417 C24.608325,26.097225 28.750575,25.7676417 30.8797417,21.0980583 C32.6279917,17.263225 32.3159083,8.555225 33.2422417,9.33339167 C37.4259083,8.999725 40.1897417,8.999725 40.1897417,8.999725 L103.557825,72.3678083 L70.8689917,123.645725 Z M24.2824167,41.5998333 C24.2824167,44.2779167 22.11125,46.4490833 19.4331667,46.4490833 C16.7550833,46.4490833 14.5833333,44.2779167 14.5833333,41.5998333 C14.5833333,38.9211667 16.7550833,36.75 19.4331667,36.75 C22.11125,36.75 24.2824167,38.9211667 24.2824167,41.5998333 Z" fill-opacity="0.09" fill="#000000" mask="url(#mask-2)"></path>
                        </g>
                        <path d="M35.0002333,11.041625 C36.5484,11.041625 37.8078167,12.3010417 37.8078167,13.8492083 C37.8078167,15.3979583 36.5484,16.657375 35.0002333,16.657375 C33.4520667,16.657375 32.19265,15.3979583 32.19265,13.8492083 C32.19265,12.3010417 33.4520667,11.041625 35.0002333,11.041625 M35.0002333,20.7407083 C38.8000667,20.7407083 41.89115,17.649625 41.89115,13.8492083 C41.89115,10.049375 38.8000667,6.95829167 35.0002333,6.95829167 C31.2004,6.95829167 28.1093167,10.049375 28.1093167,13.8492083 C28.1093167,17.649625 31.2004,20.7407083 35.0002333,20.7407083" id="Fill-32" fill="#FFFFFF"></path>
                        <path d="M19.3214583,38.7787167 C20.869625,38.7787167 22.1290417,40.0381333 22.1290417,41.5863 C22.1290417,43.13505 20.869625,44.3944667 19.3214583,44.3944667 C17.7732917,44.3944667 16.513875,43.13505 16.513875,41.5863 C16.513875,40.0381333 17.7732917,38.7787167 19.3214583,38.7787167 M19.3214583,48.4778 C23.1212917,48.4778 26.212375,45.3867167 26.212375,41.5863 C26.212375,37.7864667 23.1212917,34.6953833 19.3214583,34.6953833 C15.521625,34.6953833 12.4305417,37.7864667 12.4305417,41.5863 C12.4305417,45.3867167 15.521625,48.4778 19.3214583,48.4778" id="Fill-34" fill="#FFFFFF"></path>
                        <path d="M50.6750417,38.7787167 C52.2232083,38.7787167 53.482625,40.0381333 53.482625,41.5863 C53.482625,43.13505 52.2232083,44.3944667 50.6750417,44.3944667 C49.126875,44.3944667 47.8674583,43.13505 47.8674583,41.5863 C47.8674583,40.0381333 49.126875,38.7787167 50.6750417,38.7787167 M43.784125,41.5863 C43.784125,45.3867167 46.8752083,48.4778 50.6750417,48.4778 C54.474875,48.4778 57.5659583,45.3867167 57.5659583,41.5863 C57.5659583,37.7864667 54.474875,34.6953833 50.6750417,34.6953833 C46.8752083,34.6953833 43.784125,37.7864667 43.784125,41.5863" id="Fill-36" fill="#FFFFFF"></path>
                        <path d="M42.72485,56.7193667 C43.59635,55.12745 45.2851,53.86045 46.4150167,53.2427 C46.6092667,53.1371167 46.8455167,53.1318667 47.0514333,53.2316167 C47.6359333,53.5162833 48.1656,53.80445 48.6264333,54.0885333 C49.8905167,54.8667 51.46085,54.8661167 52.7237667,54.0885333 C53.1851833,53.8038667 53.7154333,53.5157 54.2987667,53.2316167 C54.5029333,53.13245 54.7409333,53.1371167 54.9357667,53.2432833 C56.0645167,53.8610333 57.7532667,55.12745 58.6247667,56.7193667 L42.72485,56.7193667 Z M11.37185,56.7193667 C12.24335,55.12745 13.9321,53.86045 15.0620167,53.2427 C15.2562667,53.13595 15.4942667,53.13245 15.69785,53.2316167 C16.2811833,53.5157 16.8114333,53.8038667 17.2722667,54.08795 C18.5351833,54.8661167 20.1055167,54.8667 21.3719333,54.08795 C21.8310167,53.80445 22.3606833,53.5162833 22.9451833,53.2316167 C23.14935,53.1318667 23.3861833,53.13595 23.5821833,53.2432833 C24.7115167,53.8610333 26.4002667,55.12745 27.2717667,56.7193667 L11.37185,56.7193667 Z M30.7391,25.5063667 C30.9339333,25.3990333 31.1725167,25.3955333 31.3766833,25.4941167 C31.9600167,25.7787833 32.4902667,26.06695 32.9511,26.3510333 C34.21635,27.1297833 35.7855167,27.1292 37.0490167,26.3510333 C37.5104333,26.06695 38.0406833,25.7787833 38.6240167,25.4941167 C38.8281833,25.39495 39.0667667,25.3996167 39.2604333,25.5057833 C40.3897667,26.1235333 42.0791,27.3905333 42.9506,28.98245 L27.0501,28.98245 C27.9216,27.3905333 29.61035,26.1235333 30.7391,25.5063667 Z M56.8951833,49.66045 C55.5412667,48.9190333 53.90035,48.8822833 52.5096833,49.5612833 C51.8441,49.8856167 51.2275167,50.2192833 50.6751,50.5552833 C50.1244333,50.2198667 49.50785,49.8862 48.8399333,49.5612833 C47.5536833,48.9342 46.06035,48.9260333 44.7711833,49.5117 C44.6895167,49.3297 44.5810167,49.1570333 44.4340167,49.00595 L36.75035,41.1332833 L36.75035,33.0657833 L45.5575167,33.0657833 C46.6851,33.0657833 47.5991833,32.1517 47.5991833,31.0241167 C47.5991833,26.8865333 44.3039333,23.60995 41.21985,21.9235333 C39.86535,21.1827 38.2256,21.1453667 36.8349333,21.8237833 C36.16935,22.1481167 35.5527667,22.4823667 35.00035,22.8177833 C34.4485167,22.4823667 33.83135,22.1481167 33.1651833,21.8237833 C31.7751,21.14595 30.1359333,21.1827 28.7802667,21.9235333 C25.6961833,23.6105333 22.4009333,26.8871167 22.4009333,31.0241167 C22.4009333,32.1517 23.3156,33.0657833 24.4426,33.0657833 L33.25035,33.0657833 L33.25035,41.1332833 L25.5666833,49.00595 C25.4185167,49.1570333 25.3100167,49.3302833 25.22835,49.5128667 C23.9397667,48.9260333 22.44235,48.9330333 21.1561,49.5612833 C20.4887667,49.8862 19.8716,50.22045 19.3215167,50.5547 C18.7696833,50.2192833 18.1531,49.8856167 17.48635,49.5612833 C16.0951,48.8822833 14.45535,48.9196167 13.1026,49.66045 C10.0185167,51.3468667 6.72268333,54.6228667 6.72268333,58.7610333 C6.72268333,59.8886167 7.63735,60.8027 8.76435,60.8027 L29.8792667,60.8027 C31.0062667,60.8027 31.9209333,59.8886167 31.9209333,58.7610333 C31.9209333,55.7767 30.2036,53.24445 28.0907667,51.4297 L35.00035,44.35095 L41.9076,51.42795 C39.7936,53.2427 38.0756833,55.7755333 38.0756833,58.7610333 C38.0756833,59.8886167 38.99035,60.8027 40.11735,60.8027 L61.2322667,60.8027 C62.3592667,60.8027 63.2739333,59.8886167 63.2739333,58.7610333 C63.2739333,54.6228667 59.9781,51.3468667 56.8951833,49.66045 Z" id="Fill-38" fill="#FFFFFF"></path>
                    </g>
                </g>
            </g>
        </g>
    </g>
</svg>