<?xml version="1.0" encoding="UTF-8"?>
<svg width="70px" height="74px" viewBox="0 0 70 74" version="1.1" xmlns="http://www.w3.org/2000/svg" xmlns:xlink="http://www.w3.org/1999/xlink">
    <!-- Generator: Sketch 50.2 (55047) - http://www.bohemiancoding.com/sketch -->
    <title>icn_family_hover</title>
    <desc>Created with Sketch.</desc>
    <defs>
        <path d="M58.3335667,72.000175 L11.6669,72.000175 C5.2234,72.000175 0.000233333333,66.627175 0.000233333333,60.000175 L0.000233333333,12.000175 C0.000233333333,5.372575 5.2234,0.000175 11.6669,0.000175 L58.3335667,0.000175 C64.7764833,0.000175 70.0002333,5.372575 70.0002333,12.000175 L70.0002333,60.000175 C70.0002333,66.627175 64.7764833,72.000175 58.3335667,72.000175" id="path-1"></path>
        <filter x="-1.4%" y="-1.4%" width="102.9%" height="105.6%" filterUnits="objectBoundingBox" id="filter-3">
            <feOffset dx="0" dy="2" in="SourceAlpha" result="shadowOffsetOuter1"></feOffset>
            <feColorMatrix values="0 0 0 0 0.31372549   0 0 0 0 0.431372549   0 0 0 0 0.196078431  0 0 0 1 0" type="matrix" in="shadowOffsetOuter1"></feColorMatrix>
        </filter>
    </defs>
    <g id="Page-1" stroke="none" stroke-width="1" fill="none" fill-rule="evenodd">
        <g id="BV-Desktop_SAUC_1stS_Step-1" transform="translate(-886.000000, -270.000000)">
            <g id="categories_hover" transform="translate(295.000000, 160.000000)">
                <g id="category_5" transform="translate(566.000000, 110.000000)">
                    <g id="icn_family_hover" transform="translate(25.000000, 0.000000)">
                        <g id="shadows">
                            <mask id="mask-2" fill="white">
                                <use xlink:href="#path-1"></use>
                            </mask>
                            <g id="Mask">
                                <use fill="black" fill-opacity="1" filter="url(#filter-3)" xlink:href="#path-1"></use>
                                <use fill="#638A3A" fill-rule="evenodd" xlink:href="#path-1"></use>
                            </g>
                            <polygon fill-opacity="0.09" fill="#000000" mask="url(#mask-2)" points="93.1233917 65.0571833 60.607225 105.545183 15.8130583 60.7510167 15.6806417 29.8302667 35.0000583 11.7142667 61.048225 32.9820167"></polygon>
                        </g>
                        <path d="M54.3932083,59.500175 L54.3932083,36.7000083 C54.3932083,35.411425 53.3484583,34.366675 52.059875,34.366675 C50.7712917,34.366675 49.7265417,35.411425 49.7265417,36.7000083 L49.7265417,57.1668417 L42.4360417,57.1668417 L42.4360417,44.6910917 C42.4360417,42.983675 41.0465417,41.5947583 39.339125,41.5947583 L30.6597083,41.5947583 C28.952875,41.5947583 27.563375,42.983675 27.563375,44.6910917 L27.563375,57.1668417 L20.2734583,57.1668417 L20.2734583,36.7000083 C20.2734583,35.411425 19.2287083,34.366675 17.940125,34.366675 C16.6515417,34.366675 15.6067917,35.411425 15.6067917,36.7000083 L15.6067917,59.500175 C15.6067917,60.7887583 16.6515417,61.8335083 17.940125,61.8335083 L29.8967083,61.8335083 C31.185875,61.8335083 32.2300417,60.7887583 32.2300417,59.500175 L32.2300417,46.261425 L37.769375,46.261425 L37.769375,59.500175 C37.769375,60.7887583 38.814125,61.8335083 40.1027083,61.8335083 L52.059875,61.8335083 C53.3484583,61.8335083 54.3932083,60.7887583 54.3932083,59.500175 M59.4997083,36.755425 C58.9122917,36.755425 58.3237083,36.534925 57.869875,36.0915917 L35.0002917,13.7610083 L12.130125,36.0915917 C11.207875,36.9922583 9.730875,36.974175 8.83079167,36.0525083 C7.930125,35.1302583 7.947625,33.652675 8.869875,32.7525917 L33.369875,8.830675 C34.2769583,7.94575833 35.7242083,7.94575833 36.6307083,8.830675 L61.130125,32.7525917 C62.052375,33.652675 62.069875,35.1302583 61.1692083,36.0525083 C60.7124583,36.5203417 60.106375,36.755425 59.4997083,36.755425" id="Fill-5" fill="#FFFFFF"></path>
                    </g>
                </g>
            </g>
        </g>
    </g>
</svg>