<?xml version="1.0" encoding="UTF-8"?>
<svg width="60px" height="60px" viewBox="0 0 60 60" version="1.1" xmlns="http://www.w3.org/2000/svg" xmlns:xlink="http://www.w3.org/1999/xlink">
    <!-- Generator: Sketch 50.2 (55047) - http://www.bohemiancoding.com/sketch -->
    <title>icn_phone_color</title>
    <desc>Created with Sketch.</desc>
    <defs>
        <path d="M50.0002521,60.00015 L10.0002521,60.00015 C4.47725207,60.00015 0.000252066116,55.52265 0.000252066116,50.00015 L0.000252066116,10.00015 C0.000252066116,4.47715 4.47725207,0.00015 10.0002521,0.00015 L50.0002521,0.00015 C55.5227521,0.00015 60.0002521,4.47715 60.0002521,10.00015 L60.0002521,50.00015 C60.0002521,55.52265 55.5227521,60.00015 50.0002521,60.00015" id="path-1"></path>
    </defs>
    <g id="Page-1" stroke="none" stroke-width="1" fill="none" fill-rule="evenodd">
        <g id="BV-Mobile_SAUC_DS_Step-6" transform="translate(-54.000000, -429.000000)">
            <g id="CIS" transform="translate(10.000000, 267.000000)">
                <g id="Phone" transform="translate(5.000000, 162.000000)">
                    <g id="icn_phone_color" transform="translate(39.000000, 0.000000)">
                        <g id="shadow">
                            <mask id="mask-2" fill="white">
                                <use xlink:href="#path-1"></use>
                            </mask>
                            <use id="Mask" fill="#81B44C" xlink:href="#path-1"></use>
                            <polygon fill-opacity="0.09" fill="#000000" mask="url(#mask-2)" points="78.6640876 66.09655 62.3740628 81.80105 20.6379636 40.31955 10.2246083 15.76605 19.9291537 9.82855 24.970476 19.07855 21.0634512 23.26605 27.8692364 32.57855 37.951881 39.70355 42.363038 36.01605 52.5243273 40.17105"></polygon>
                        </g>
                        <path d="M23.4901421,37.4916 C14.1546215,28.2346 11.617324,17.8561 12.4773736,16.0856 L17.7284149,11.5536 C17.7339603,11.5551 17.7390017,11.5566 17.744043,11.5586 L22.9547537,18.0821 L20.2944479,19.8366 C20.2425223,19.8711 20.191605,19.9081 20.1427041,19.9471 C19.4036463,20.5406 18.9670678,21.4156 18.914638,22.4106 C18.8617041,23.3806 18.7069355,26.3276 26.7281835,34.2821 C28.7114397,36.2486 34.7484231,42.2346 38.6972909,42.0291 C39.7010182,41.9771 40.5837537,41.5441 41.1826628,40.8111 C41.2224893,40.7626 41.2592909,40.7126 41.294076,40.6606 L43.0635802,38.0226 L49.6409934,43.1896 C49.6430099,43.1951 49.6450264,43.2006 49.647043,43.2066 L45.0765802,48.4121 C43.2909438,49.2646 32.8266711,46.7496 23.4901421,37.4916 M47.9057702,51.2736 C47.9385388,51.2411 47.9702992,51.2076 48.0005471,51.1726 L52.7187207,45.7991 C53.4270264,45.0601 53.7773983,44.0171 53.6801008,42.9231 C53.5938942,41.9486 53.1573157,41.0051 52.4817785,40.3356 C52.4268281,40.2816 52.3688529,40.2306 52.308357,40.1831 L45.5902909,34.9046 C44.0970512,33.5266 41.7508198,33.5581 40.2963983,34.9986 C40.2016215,35.0926 40.1164231,35.1956 40.0423157,35.3056 L38.2314727,38.0046 C37.2882413,37.7901 34.5502992,36.3821 29.5800595,31.4536 C24.6108281,26.5251 23.1891752,23.8096 22.9729025,22.8741 L25.6942083,21.0786 C25.8056215,21.0051 25.9094727,20.9211 26.0037455,20.8271 C27.4576628,19.3846 27.4894231,17.0576 26.0990264,15.5771 L20.7769025,8.9146 C20.7280017,8.8536 20.6765802,8.7956 20.6211256,8.7406 C19.0840264,7.2196 16.5820182,7.1216 15.1124727,8.5091 L9.69355537,13.1866 C9.65826612,13.2166 9.62398512,13.2481 9.59121653,13.2811 C8.65958017,14.2051 8.32433223,15.5906 8.32433223,17.1086 C8.32433223,19.8501 9.41930744,23.0206 10.0726628,24.6686 C11.3365223,27.8541 14.389043,34.1231 20.6382661,40.3196 C25.2697289,44.9121 30.8746711,48.6331 36.4211339,50.7966 C39.0032992,51.8036 45.2903322,53.8666 47.9057702,51.2736" id="Fill-80" fill="#FFFFFF"></path>
                    </g>
                </g>
            </g>
        </g>
    </g>
</svg>