<?xml version="1.0" encoding="UTF-8"?>
<svg width="80px" height="80px" viewBox="0 0 80 80" version="1.1" xmlns="http://www.w3.org/2000/svg" xmlns:xlink="http://www.w3.org/1999/xlink">
    <!-- Generator: Sketch 50.2 (55047) - http://www.bohemiancoding.com/sketch -->
    <title>icn_bell_color</title>
    <desc>Created with Sketch.</desc>
    <defs>
        <path d="M66.6670014,80.0002 L13.333668,80.0002 C5.96966804,80.0002 0.000334710744,74.0302 0.000334710744,66.6668667 L0.000334710744,13.3335333 C0.000334710744,5.96953333 5.96966804,0.0002 13.333668,0.0002 L66.6670014,0.0002 C74.0303347,0.0002 80.0003347,5.96953333 80.0003347,13.3335333 L80.0003347,66.6668667 C80.0003347,74.0302 74.0303347,80.0002 66.6670014,80.0002" id="path-1"></path>
    </defs>
    <g id="Page-1" stroke="none" stroke-width="1" fill="none" fill-rule="evenodd">
        <g id="BV-Mobile_SAUC_DS_Step-9" transform="translate(-120.000000, -278.000000)">
            <g id="PM" transform="translate(10.000000, 278.000000)">
                <g id="icn_bell_color" transform="translate(110.000000, 0.000000)">
                    <g id="shadow">
                        <mask id="mask-2" fill="white">
                            <use xlink:href="#path-1"></use>
                        </mask>
                        <use id="Mask" fill="#F2DA3E" xlink:href="#path-1"></use>
                        <path d="M77.5603785,120.755733 L14.5658083,62.0417333 L19.9499653,56.7350667 C19.9499653,56.7350667 23.7998083,37.9884 23.8138661,33.2590667 C23.8259157,29.1397333 37.6180066,18.7824 38.6810479,19.6717333 C43.4821388,19.2910667 57.2400893,25.0617333 57.2400893,25.0617333 L101.346263,68.9870667 L77.5603785,120.755733 Z" fill-opacity="0.09" fill="#000000" mask="url(#mask-2)"></path>
                    </g>
                    <path d="M49.9578545,33.0529333 C50.034838,34.3409333 49.0494496,35.4469333 47.7567967,35.5229333 C47.7099372,35.5256 47.6624083,35.5269333 47.6155488,35.5269333 C46.3838132,35.5269333 45.3508959,34.5702667 45.2779289,33.3296 C45.1005322,30.3542667 42.7414909,29.2522667 42.4730529,29.1362667 C41.2962099,28.6276 40.732557,27.2649333 41.2272595,26.0856 C41.721962,24.9056 43.0614744,24.3362667 44.2523752,24.8129333 C44.4699372,24.9002667 49.599714,27.0282667 49.9578545,33.0529333 Z M40.4038711,56.7082667 C40.2733339,56.7082667 40.1461438,56.7176 40.0202926,56.7349333 C39.8951107,56.7176 39.7672512,56.7082667 39.6373835,56.7082667 L23.8135983,56.7082667 C26.314557,52.0416 26.314557,44.7822667 26.314557,37.9882667 C26.314557,27.1349333 31.0460281,21.3749333 39.6373835,21.3749333 L40.4038711,21.3749333 C48.9952264,21.3749333 53.7266975,27.1349333 53.7266975,37.9882667 C53.7266975,44.7822667 53.7266975,52.0416 56.2269868,56.7082667 L40.4038711,56.7082667 Z M41.509086,64.6349333 C41.2393091,64.9169333 40.8122182,65.3236 39.9004661,65.3236 C39.0134826,65.3236 38.6178545,64.8949333 38.3715074,64.6296 C37.8473504,64.0629333 37.5467802,63.3749333 37.3887967,62.0416 L39.6373835,62.0416 C39.7672512,62.0416 39.8951107,62.0322667 40.0202926,62.0142667 C40.1461438,62.0322667 40.2733339,62.0416 40.4038711,62.0416 L42.5868545,62.0416 C42.3974083,63.3749333 42.0687223,64.0502667 41.509086,64.6349333 Z M65.4750446,57.0322667 C60.9691686,57.0322667 59.2273339,54.4009333 59.2273339,38.0949333 C59.2273339,25.3096 53.4080529,17.2749333 43.3667306,16.0836 L43.3667306,12.0069333 C43.3667306,10.5322667 42.1684661,9.33693333 40.6890446,9.33693333 C39.2089537,9.33693333 38.0113587,10.5322667 38.0113587,12.0069333 L38.0113587,16.0049333 C27.3006149,16.8716 21.0990942,24.9876 21.0990942,38.0949333 C21.0990942,54.4009333 19.143714,57.0322667 14.637838,57.0322667 C13.1584165,57.0322667 11.9233339,58.0622667 11.9233339,59.5369333 C11.9233339,61.0116 13.0867884,62.0416 14.5662099,62.0416 L31.9778628,62.0416 C32.1840446,64.0416 32.7871934,66.5002667 34.4152264,68.2722667 C35.8029372,69.7822667 37.7000777,70.6636 39.9004661,70.6636 C42.0847884,70.6636 43.9879537,69.7509333 45.4057884,68.2596 C47.0954083,66.4822667 47.7654992,64.0416 48.0232264,62.0416 L65.4750446,62.0416 C66.9544661,62.0416 68.1540694,61.0116 68.1540694,59.5369333 C68.1540694,58.0622667 66.9544661,57.0322667 65.4750446,57.0322667 Z" id="Fill-110" fill="#FFFFFF"></path>
                </g>
            </g>
        </g>
    </g>
</svg>