<?xml version="1.0" encoding="UTF-8"?>
<svg width="70px" height="74px" viewBox="0 0 70 74" version="1.1" xmlns="http://www.w3.org/2000/svg" xmlns:xlink="http://www.w3.org/1999/xlink">
    <!-- Generator: Sketch 50.2 (55047) - http://www.bohemiancoding.com/sketch -->
    <title>icn_records_hover</title>
    <desc>Created with Sketch.</desc>
    <defs>
        <path d="M58.3336262,72.000175 L11.6669595,72.000175 C5.22345954,72.000175 0.000292871901,66.627175 0.000292871901,60.000175 L0.000292871901,12.000175 C0.000292871901,5.372575 5.22345954,0.000175 11.6669595,0.000175 L58.3336262,0.000175 C64.7765429,0.000175 70.0002929,5.372575 70.0002929,12.000175 L70.0002929,60.000175 C70.0002929,66.627175 64.7765429,72.000175 58.3336262,72.000175" id="path-1"></path>
        <filter x="-1.4%" y="-1.4%" width="102.9%" height="105.6%" filterUnits="objectBoundingBox" id="filter-3">
            <feOffset dx="0" dy="2" in="SourceAlpha" result="shadowOffsetOuter1"></feOffset>
            <feColorMatrix values="0 0 0 0 0.31372549   0 0 0 0 0.431372549   0 0 0 0 0.196078431  0 0 0 1 0" type="matrix" in="shadowOffsetOuter1"></feColorMatrix>
        </filter>
    </defs>
    <g id="Page-1" stroke="none" stroke-width="1" fill="none" fill-rule="evenodd">
        <g id="BV-Desktop_SAUC_1stS_Step-1" transform="translate(-618.000000, -270.000000)">
            <g id="categories_hover" transform="translate(295.000000, 160.000000)">
                <g id="category_3" transform="translate(298.000000, 110.000000)">
                    <g id="icn_records_hover" transform="translate(25.000000, 0.000000)">
                        <g id="shadow">
                            <mask id="mask-2" fill="white">
                                <use xlink:href="#path-1"></use>
                            </mask>
                            <g id="Mask">
                                <use fill="black" fill-opacity="1" filter="url(#filter-3)" xlink:href="#path-1"></use>
                                <use fill="#638A3A" fill-rule="evenodd" xlink:href="#path-1"></use>
                            </g>
                            <path d="M86.3935206,48.8819333 L56.5487024,103.866933 L11.5694358,59.0727667 L11.5694358,46.7504333 L11.5694358,34.5651833 L15.5401931,19.4236 L29.3139586,9.1441 C29.3139586,9.1441 43.7378997,6.36918333 47.1703584,9.7986 C50.6034028,13.2280167 54.1852261,16.8061833 54.1852261,16.8061833 L86.3935206,48.8819333 Z" fill-opacity="0.09" fill="#000000" mask="url(#mask-2)"></path>
                        </g>
                        <path d="M11.5847238,46.75055 C11.5847238,45.4618856 12.6337095,44.4172167 13.927699,44.4172167 C15.2216884,44.4172167 16.2706742,45.4618856 16.2706742,46.75055 L16.2706742,58.11855 C16.2706742,59.4072144 15.2216884,60.4518833 13.927699,60.4518833 C12.6337095,60.4518833 11.5847238,59.4072144 11.5847238,58.11855 L11.5847238,46.75055 Z" id="Stroke-88" fill="#FFFFFF" fill-rule="nonzero"></path>
                        <path d="M46.7804416,9.34048197 C47.8907963,10.0022183 48.2522566,11.4350776 47.5877859,12.5408629 C46.9233151,13.6466481 45.4845349,14.006621 44.3741803,13.3448847 C41.5206692,11.6442823 38.2567803,10.7336833 34.8523419,10.7336833 C24.5906973,10.7336833 16.2707913,19.0195112 16.2707913,29.23935 L16.2707913,37.8236833 C16.2707913,39.1123477 15.2218056,40.1570167 13.9278161,40.1570167 C12.6338266,40.1570167 11.5848409,39.1123477 11.5848409,37.8236833 L11.5848409,29.23935 C11.5848409,16.4422026 22.002698,6.06701667 34.8523419,6.06701667 C39.1100006,6.06701667 43.2045491,7.20936301 46.7804416,9.34048197 Z" id="Stroke-90" fill="#FFFFFF" fill-rule="nonzero"></path>
                        <path d="M58.1187886,58.1184333 C58.1187886,59.4070977 57.0698029,60.4517667 55.7758134,60.4517667 C54.481824,60.4517667 53.4328382,59.4070977 53.4328382,58.1184333 L53.4328382,29.23935 C53.4328382,25.9360385 52.565896,22.7663695 50.9409084,19.9724262 C50.2923464,18.8573127 50.6742965,17.4297348 51.7940179,16.7838417 C52.9137393,16.1379487 54.3472163,16.518327 54.9957784,17.6334405 C57.0314072,21.1334252 58.1187886,25.1090525 58.1187886,29.23935 L58.1187886,58.1184333 Z" id="Stroke-92" fill="#FFFFFF" fill-rule="nonzero"></path>
                        <path d="M19.3498708,37.297575 C19.3498708,36.0089106 20.3988565,34.9642417 21.692846,34.9642417 C22.9868354,34.9642417 24.0358212,36.0089106 24.0358212,37.297575 L24.0358212,45.4204917 C24.0358212,46.7091561 22.9868354,47.753825 21.692846,47.753825 C20.3988565,47.753825 19.3498708,46.7091561 19.3498708,45.4204917 L19.3498708,37.297575 Z" id="Stroke-94" fill="#FFFFFF" fill-rule="nonzero"></path>
                        <path d="M50.3525287,37.5069333 C50.3525287,38.7955977 49.303543,39.8402667 48.0095535,39.8402667 C46.715564,39.8402667 45.6665783,38.7955977 45.6665783,37.5069333 L45.6665783,29.3834333 C45.6665783,23.4335983 40.8254086,18.6110167 34.8525762,18.6110167 C28.8782893,18.6110167 24.0356455,23.4338802 24.0356455,29.3834333 C24.0356455,30.6720977 22.9866597,31.7167667 21.6926702,31.7167667 C20.3986808,31.7167667 19.349695,30.6720977 19.349695,29.3834333 C19.349695,20.8565835 26.2902781,13.94435 34.8525762,13.94435 C43.4136779,13.94435 50.3525287,20.8565585 50.3525287,29.3834333 L50.3525287,37.5069333 Z" id="Stroke-96" fill="#FFFFFF" fill-rule="nonzero"></path>
                        <path d="M22.9089732,53.7127969 C22.0837377,52.7202064 22.2227308,51.2493203 23.2194229,50.4274809 C24.2161151,49.6056415 25.6930792,49.7440626 26.5183147,50.7366531 C28.5609437,53.1935207 31.5843924,54.639725 34.8528691,54.639725 C36.531521,54.639725 38.1496563,54.2615549 39.620593,53.5425816 C40.7822129,52.9747981 42.1860734,53.4523224 42.7562032,54.609162 C43.3263329,55.7660016 42.8468354,57.1640849 41.6852154,57.7318684 C39.5750894,58.7632684 37.2511435,59.3063917 34.8528691,59.3063917 C30.1742481,59.3063917 25.8330529,57.2298706 22.9089732,53.7127969 Z" id="Stroke-98" fill="#FFFFFF" fill-rule="nonzero"></path>
                        <path d="M50.3525287,58.1184333 C50.3525287,59.4070977 49.303543,60.4517667 48.0095535,60.4517667 C46.715564,60.4517667 45.6665783,59.4070977 45.6665783,58.1184333 L45.6665783,47.5927667 C45.6665783,46.3041023 46.715564,45.2594333 48.0095535,45.2594333 C49.303543,45.2594333 50.3525287,46.3041023 50.3525287,47.5927667 L50.3525287,58.1184333 Z" id="Stroke-100" fill="#FFFFFF" fill-rule="nonzero"></path>
                        <path d="M42.7338177,34.5651833 C42.7338177,35.8538477 41.6848319,36.8985167 40.3908425,36.8985167 C39.096853,36.8985167 38.0478673,35.8538477 38.0478673,34.5651833 L38.0478673,30.9817667 C38.0478673,29.2241084 36.6184143,27.80085 34.8520491,27.80085 C33.0872527,27.80085 31.6568166,29.2248792 31.6568166,30.9817667 C31.6568166,32.2704311 30.6078309,33.3151 29.3138414,33.3151 C28.0198519,33.3151 26.9708662,32.2704311 26.9708662,30.9817667 C26.9708662,26.6471687 30.4996569,23.1341833 34.8520491,23.1341833 C39.2061633,23.1341833 42.7338177,26.6465506 42.7338177,30.9817667 L42.7338177,34.5651833 Z" id="Stroke-102" fill="#FFFFFF" fill-rule="nonzero"></path>
                        <path d="M26.9708076,39.3255917 C26.9708076,38.0369273 28.0197934,36.9922583 29.3137829,36.9922583 C30.6077723,36.9922583 31.6567581,38.0369273 31.6567581,39.3255917 L31.6567581,42.9090083 C31.6567581,44.6665943 33.0867239,46.0910917 34.8525762,46.0910917 C36.6160125,46.0910917 38.0483944,44.6649169 38.0483944,42.9090083 C38.0483944,41.6203439 39.0973802,40.575675 40.3913696,40.575675 C41.6853591,40.575675 42.7343448,41.6203439 42.7343448,42.9090083 C42.7343448,47.2424746 39.2037617,50.7577583 34.8525762,50.7577583 C30.4984383,50.7577583 26.9708076,47.2436179 26.9708076,42.9090083 L26.9708076,39.3255917 Z" id="Stroke-104" fill="#FFFFFF" fill-rule="nonzero"></path>
                    </g>
                </g>
            </g>
        </g>
    </g>
</svg>