<?xml version="1.0" encoding="UTF-8"?>
<svg width="80px" height="84px" viewBox="0 0 80 84" version="1.1" xmlns="http://www.w3.org/2000/svg" xmlns:xlink="http://www.w3.org/1999/xlink">
    <!-- Generator: Sketch 50.2 (55047) - http://www.bohemiancoding.com/sketch -->
    <title>icn_records</title>
    <desc>Created with Sketch.</desc>
    <defs>
        <path d="M66.6670014,80.0002 L13.333668,80.0002 C5.96966804,80.0002 0.000334710744,74.0302 0.000334710744,66.6668667 L0.000334710744,13.3335333 C0.000334710744,5.96953333 5.96966804,0.0002 13.333668,0.0002 L66.6670014,0.0002 C74.0303347,0.0002 80.0003347,5.96953333 80.0003347,13.3335333 L80.0003347,66.6668667 C80.0003347,74.0302 74.0303347,80.0002 66.6670014,80.0002" id="path-1"></path>
        <filter x="-2.5%" y="-2.5%" width="105.0%" height="110.0%" filterUnits="objectBoundingBox" id="filter-3">
            <feOffset dx="0" dy="4" in="SourceAlpha" result="shadowOffsetOuter1"></feOffset>
            <feColorMatrix values="0 0 0 0 0.388235294   0 0 0 0 0.541176471   0 0 0 0 0.22745098  0 0 0 1 0" type="matrix" in="shadowOffsetOuter1"></feColorMatrix>
        </filter>
    </defs>
    <g id="Page-1" stroke="none" stroke-width="1" fill="none" fill-rule="evenodd">
        <g id="BV-Mobile_SAUC_1stS_Step-1" transform="translate(-45.000000, -393.000000)">
            <g id="categories" transform="translate(0.000000, 148.000000)">
                <g id="category_3" transform="translate(15.000000, 245.000000)">
                    <g id="icn_records" transform="translate(30.000000, 0.000000)">
                        <g id="shadow">
                            <mask id="mask-2" fill="white">
                                <use xlink:href="#path-1"></use>
                            </mask>
                            <g id="Mask">
                                <use fill="black" fill-opacity="1" filter="url(#filter-3)" xlink:href="#path-1"></use>
                                <use fill="#81B44C" fill-rule="evenodd" xlink:href="#path-1"></use>
                            </g>
                            <path d="M98.7354521,55.8650667 L64.6270884,118.705067 L13.2222124,67.5117333 L13.2222124,53.4290667 L13.2222124,39.5030667 L17.7602207,22.1984 L33.5016669,10.4504 C33.5016669,10.4504 49.9861711,7.27906667 53.908981,11.1984 C57.8324603,15.1177333 61.9259727,19.2070667 61.9259727,19.2070667 L98.7354521,55.8650667 Z" fill-opacity="0.09" fill="#000000" mask="url(#mask-2)"></path>
                        </g>
                        <path d="M13.2396843,53.4292 C13.2396843,51.9564407 14.4385251,50.7625333 15.9173702,50.7625333 C17.3962154,50.7625333 18.5950562,51.9564407 18.5950562,53.4292 L18.5950562,66.4212 C18.5950562,67.8939593 17.3962154,69.0878667 15.9173702,69.0878667 C14.4385251,69.0878667 13.2396843,67.8939593 13.2396843,66.4212 L13.2396843,53.4292 Z" id="Stroke-88" fill="#FFFFFF" fill-rule="nonzero"></path>
                        <path d="M53.4633619,10.6748365 C54.7323386,11.4311066 55.1454361,13.0686601 54.386041,14.3324147 C53.6266459,15.5961693 51.9823256,16.0075668 50.7133489,15.2512968 C47.4521934,13.3077512 43.7220346,12.2670667 39.8312479,12.2670667 C28.103654,12.2670667 18.5951901,21.7365842 18.5951901,33.4164 L18.5951901,43.2270667 C18.5951901,44.699826 17.3963492,45.8937333 15.9175041,45.8937333 C14.438659,45.8937333 13.2398182,44.699826 13.2398182,43.2270667 L13.2398182,33.4164 C13.2398182,18.7910886 25.1459406,6.93373333 39.8312479,6.93373333 C44.6971435,6.93373333 49.3766275,8.23927201 53.4633619,10.6748365 Z" id="Stroke-90" fill="#FFFFFF" fill-rule="nonzero"></path>
                        <path d="M66.4214727,66.4210667 C66.4214727,67.893826 65.2226319,69.0877333 63.7437868,69.0877333 C62.2649417,69.0877333 61.0661008,67.893826 61.0661008,66.4210667 L61.0661008,33.4164 C61.0661008,29.6411869 60.0753097,26.0187079 58.2181811,22.8256299 C57.4769673,21.5512145 57.9134817,19.9196969 59.1931633,19.1815334 C60.472845,18.4433699 62.1111044,18.878088 62.8523181,20.1525034 C65.1787511,24.152486 66.4214727,28.69606 66.4214727,33.4164 L66.4214727,66.4210667 Z" id="Stroke-92" fill="#FFFFFF" fill-rule="nonzero"></path>
                        <path d="M22.114138,42.6258 C22.114138,41.1530407 23.3129789,39.9591333 24.791824,39.9591333 C26.2706691,39.9591333 27.4695099,41.1530407 27.4695099,42.6258 L27.4695099,51.9091333 C27.4695099,53.3818927 26.2706691,54.5758 24.791824,54.5758 C23.3129789,54.5758 22.114138,53.3818927 22.114138,51.9091333 L22.114138,42.6258 Z" id="Stroke-94" fill="#FFFFFF" fill-rule="nonzero"></path>
                        <path d="M57.5457471,42.8650667 C57.5457471,44.337826 56.3469063,45.5317333 54.8680612,45.5317333 C53.389216,45.5317333 52.1903752,44.337826 52.1903752,42.8650667 L52.1903752,33.5810667 C52.1903752,26.7812552 46.6576098,21.2697333 39.8315157,21.2697333 C33.0037592,21.2697333 27.4693091,26.7815774 27.4693091,33.5810667 C27.4693091,35.053826 26.2704683,36.2477333 24.7916231,36.2477333 C23.312778,36.2477333 22.1139372,35.053826 22.1139372,33.5810667 C22.1139372,23.8360954 30.0460321,15.9364 39.8315157,15.9364 C49.6156319,15.9364 57.5457471,23.8360668 57.5457471,33.5810667 L57.5457471,42.8650667 Z" id="Stroke-96" fill="#FFFFFF" fill-rule="nonzero"></path>
                        <path d="M26.1816836,61.3860536 C25.2385574,60.2516644 25.3974066,58.5706518 26.5364834,57.6314067 C27.6755601,56.6921617 29.3635191,56.8503572 30.3066453,57.9847464 C32.6410785,60.7925951 36.0964485,62.4454 39.8318504,62.4454 C41.7503097,62.4454 43.5996072,62.0132055 45.2806777,61.1915219 C46.6082434,60.5426264 48.2126553,61.0883684 48.8642322,62.4104708 C49.515809,63.7325732 48.9678118,65.3303827 47.6402462,65.9792781 C45.2286736,67.158021 42.5727355,67.7787333 39.8318504,67.7787333 C34.484855,67.7787333 29.523489,65.4055663 26.1816836,61.3860536 Z" id="Stroke-98" fill="#FFFFFF" fill-rule="nonzero"></path>
                        <path d="M57.5457471,66.4210667 C57.5457471,67.893826 56.3469063,69.0877333 54.8680612,69.0877333 C53.389216,69.0877333 52.1903752,67.893826 52.1903752,66.4210667 L52.1903752,54.3917333 C52.1903752,52.918974 53.389216,51.7250667 54.8680612,51.7250667 C56.3469063,51.7250667 57.5457471,52.918974 57.5457471,54.3917333 L57.5457471,66.4210667 Z" id="Stroke-100" fill="#FFFFFF" fill-rule="nonzero"></path>
                        <path d="M48.8386488,39.5030667 C48.8386488,40.975826 47.6398079,42.1697333 46.1609628,42.1697333 C44.6821177,42.1697333 43.4832769,40.975826 43.4832769,39.5030667 L43.4832769,35.4077333 C43.4832769,33.3989811 41.8496163,31.7724 39.8309132,31.7724 C37.8140031,31.7724 36.179219,33.399862 36.179219,35.4077333 C36.179219,36.8804927 34.9803782,38.0744 33.5015331,38.0744 C32.0226879,38.0744 30.8238471,36.8804927 30.8238471,35.4077333 C30.8238471,30.453907 34.8567508,26.4390667 39.8309132,26.4390667 C44.8070438,26.4390667 48.8386488,30.4532007 48.8386488,35.4077333 L48.8386488,39.5030667 Z" id="Stroke-102" fill="#FFFFFF" fill-rule="nonzero"></path>
                        <path d="M30.8237802,44.9435333 C30.8237802,43.470774 32.022621,42.2768667 33.5014661,42.2768667 C34.9803112,42.2768667 36.1791521,43.470774 36.1791521,44.9435333 L36.1791521,49.0388667 C36.1791521,51.0475363 37.8133987,52.6755333 39.8315157,52.6755333 C41.8468714,52.6755333 43.4838793,51.0456193 43.4838793,49.0388667 C43.4838793,47.5661073 44.6827202,46.3722 46.1615653,46.3722 C47.6404104,46.3722 48.8392512,47.5661073 48.8392512,49.0388667 C48.8392512,53.9913996 44.804299,58.0088667 39.8315157,58.0088667 C34.8553581,58.0088667 30.8237802,53.9927061 30.8237802,49.0388667 L30.8237802,44.9435333 Z" id="Stroke-104" fill="#FFFFFF" fill-rule="nonzero"></path>
                    </g>
                </g>
            </g>
        </g>
    </g>
</svg>