<?xml version="1.0" encoding="UTF-8"?>
<svg width="60px" height="60px" viewBox="0 0 60 60" version="1.1" xmlns="http://www.w3.org/2000/svg" xmlns:xlink="http://www.w3.org/1999/xlink">
    <!-- Generator: Sketch 50.2 (55047) - http://www.bohemiancoding.com/sketch -->
    <title>icn_location_color</title>
    <desc>Created with Sketch.</desc>
    <defs>
        <path d="M50,60 L10,60 C4.477,60 0,55.5225 0,50 L0,10 C0,4.477 4.477,0 10,0 L50,0 C55.5225,0 60,4.477 60,10 L60,50 C60,55.5225 55.5225,60 50,60" id="path-1"></path>
    </defs>
    <g id="Page-1" stroke="none" stroke-width="1" fill="none" fill-rule="evenodd">
        <g id="BV-Mobile_SAUC_CI_Step-4" transform="translate(-49.000000, -550.000000)">
            <g id="CIS" transform="translate(10.000000, 267.000000)">
                <g id="Address" transform="translate(5.000000, 283.000000)">
                    <g id="icn_location_color" transform="translate(34.000000, 0.000000)">
                        <g id="shadow">
                            <mask id="mask-2" fill="white">
                                <use xlink:href="#path-1"></use>
                            </mask>
                            <use id="Mask" fill="#FF8848" xlink:href="#path-1"></use>
                            <polygon fill-opacity="0.09" fill="#000000" mask="url(#mask-2)" points="64.01145 85.5001 28.80245 52.5476 21.00395 38.9526 15.80595 27.8141 16.75945 16.7691 23.50945 10.0381 41.74245 11.4006 74.68645 44.3446"></polygon>
                        </g>
                        <path d="M30.0005,28.299 C27.541,28.299 25.54,26.242 25.54,23.713 C25.54,21.184 27.541,19.126 30.0005,19.126 C32.46,19.126 34.4615,21.184 34.4615,23.713 C34.4615,26.242 32.46,28.299 30.0005,28.299 M30.0005,15.626 C25.6115,15.626 22.04,19.254 22.04,23.713 C22.04,28.172 25.6115,31.799 30.0005,31.799 C34.39,31.799 37.9615,28.172 37.9615,23.713 C37.9615,19.254 34.39,15.626 30.0005,15.626 M29.998,48.0675 C28.647,46.5675 26.511,44.0675 24.3845,41.051 C19.8805,34.6635 17.5,28.937 17.5,24.4905 C17.5,11.973 27.0675,11 30,11 C41.5985,11 42.5,21.326 42.5,24.4905 C42.5,33.2945 33.5435,44.1255 29.998,48.0675 M41.224,10.969 C38.352,8.4095 34.3655,7 30,7 C25.634,7 21.6475,8.4095 18.7755,10.969 C15.324,14.0445 13.5,18.72 13.5,24.4905 C13.5,37.0595 27.9645,51.7875 28.58,52.4085 C28.9555,52.787 29.467,53 30,53 C30.533,53 31.0445,52.787 31.42,52.4085 C32.0355,51.7875 46.5,37.0595 46.5,24.4905 C46.5,18.72 44.676,14.0445 41.224,10.969" id="Fill-6" fill="#FFFFFF"></path>
                    </g>
                </g>
            </g>
        </g>
    </g>
</svg>