<?xml version="1.0" encoding="UTF-8"?>
<svg width="40px" height="40px" viewBox="0 0 40 40" version="1.1" xmlns="http://www.w3.org/2000/svg" xmlns:xlink="http://www.w3.org/1999/xlink">
    <!-- Generator: Sketch 50.2 (55047) - http://www.bohemiancoding.com/sketch -->
    <title>icn_folder_color_small</title>
    <desc>Created with Sketch.</desc>
    <defs>
        <path d="M33.3334667,40.0001 L6.6668,40.0001 C2.9848,40.0001 0.000133333333,37.0151 0.000133333333,33.3334333 L0.000133333333,6.66676667 C0.000133333333,2.98476667 2.9848,0.0001 6.6668,0.0001 L33.3334667,0.0001 C37.0151333,0.0001 40.0001333,2.98476667 40.0001333,6.66676667 L40.0001333,33.3334333 C40.0001333,37.0151 37.0151333,40.0001 33.3334667,40.0001" id="path-1"></path>
    </defs>
    <g id="Page-1" stroke="none" stroke-width="1" fill="none" fill-rule="evenodd">
        <g id="BV-Desktop_SAUC_FS_Step-2" transform="translate(-365.000000, -529.000000)">
            <g id="modal" transform="translate(295.000000, 204.000000)">
                <g id="one-place" transform="translate(70.000000, 321.000000)">
                    <g id="icn_folder_color_small" transform="translate(0.000000, 4.000000)">
                        <g id="shadow">
                            <mask id="mask-2" fill="white">
                                <use xlink:href="#path-1"></use>
                            </mask>
                            <use id="Mask" fill="#5691CD" xlink:href="#path-1"></use>
                            <polygon fill-opacity="0.09" fill="#000000" mask="url(#mask-2)" points="33.1153667 8.60116667 33.1153667 11.4735 35.2037 11.4735 54.5173667 31.6388333 26.3603667 54.0055 4.81136667 32.4558333 4.81136667 8.60116667"></polygon>
                        </g>
                        <path d="M7.1668,30.3383 L32.8334667,30.3383 L32.8334667,13.3853 L18.5228,13.3853 C18.0737689,13.3853 17.6548964,13.1592833 17.4083756,12.7839749 L15.3576886,9.66196667 L7.1668,9.66196667 L7.1668,30.3383 Z M19.2422448,10.7186333 L34.1668,10.7186333 C34.9031797,10.7186333 35.5001333,11.315587 35.5001333,12.0519667 L35.5001333,31.6716333 C35.5001333,32.408013 34.9031797,33.0049667 34.1668,33.0049667 L5.83346667,33.0049667 C5.097087,33.0049667 4.50013333,32.408013 4.50013333,31.6716333 L4.50013333,8.32863333 C4.50013333,7.59225367 5.097087,6.9953 5.83346667,6.9953 L16.0771333,6.9953 C16.5261644,6.9953 16.9450369,7.22131672 17.1915577,7.59662511 L19.2422448,10.7186333 Z" id="Stroke-44" fill="#FFFFFF" fill-rule="nonzero"></path>
                        <path d="M17.2094667,9.60116667 C16.6571819,9.60116667 16.2094667,9.15345142 16.2094667,8.60116667 C16.2094667,8.04888192 16.6571819,7.60116667 17.2094667,7.60116667 L33.1154667,7.60116667 C33.6677514,7.60116667 34.1154667,8.04888192 34.1154667,8.60116667 L34.1154667,12.0521667 C34.1154667,12.6044514 33.6677514,13.0521667 33.1154667,13.0521667 C32.5631819,13.0521667 32.1154667,12.6044514 32.1154667,12.0521667 L32.1154667,9.60116667 L17.2094667,9.60116667 Z" id="Stroke-46" fill="#FFFFFF" fill-rule="nonzero"></path>
                    </g>
                </g>
            </g>
        </g>
    </g>
</svg>