<?xml version="1.0" encoding="UTF-8"?>
<svg width="40px" height="40px" viewBox="0 0 40 40" version="1.1" xmlns="http://www.w3.org/2000/svg" xmlns:xlink="http://www.w3.org/1999/xlink">
    <!-- Generator: Sketch 50.2 (55047) - http://www.bohemiancoding.com/sketch -->
    <title>icn_fingerprint_color_small</title>
    <desc>Created with Sketch.</desc>
    <defs>
        <path d="M33.3333333,40 L6.66666667,40 C2.98466667,40 0,37.015 0,33.3333333 L0,6.66666667 C0,2.98466667 2.98466667,0 6.66666667,0 L33.3333333,0 C37.015,0 40,2.98466667 40,6.66666667 L40,33.3333333 C40,37.015 37.015,40 33.3333333,40" id="path-1"></path>
    </defs>
    <g id="Page-1" stroke="none" stroke-width="1" fill="none" fill-rule="evenodd">
        <g id="BV-Mobile_SAUC_DS_Step-2" transform="translate(-15.000000, -402.000000)">
            <g id="LS&amp;PM" transform="translate(10.000000, 267.000000)">
                <g id="criminal-records" transform="translate(5.000000, 135.000000)">
                    <g id="icn_fingerprint_color_small">
                        <g id="shadow">
                            <mask id="mask-2" fill="white">
                                <use xlink:href="#path-1"></use>
                            </mask>
                            <use id="Mask" fill="#F14F86" xlink:href="#path-1"></use>
                            <path d="M49.9772041,27.9325333 L32.7124769,59.3525333 L6.69272479,33.7558667 L6.69272479,26.7145333 L6.69272479,19.7515333 L8.98974132,11.0992 L16.9576339,5.2252 C16.9576339,5.2252 25.3016421,3.63953333 27.287262,5.5992 C29.2732207,7.55886667 31.3452455,9.60353333 31.3452455,9.60353333 L49.9772041,27.9325333 Z" fill-opacity="0.09" fill="#000000" mask="url(#mask-2)"></path>
                        </g>
                        <path d="M6.7015686,26.7146 C6.7015686,25.9782203 7.30838926,25.3812667 8.0569405,25.3812667 C8.80549173,25.3812667 9.4123124,25.9782203 9.4123124,26.7146 L9.4123124,33.2106 C9.4123124,33.9469797 8.80549173,34.5439333 8.0569405,34.5439333 C7.30838926,34.5439333 6.7015686,33.9469797 6.7015686,33.2106 L6.7015686,26.7146 Z" id="Stroke-88" fill="#FFFFFF" fill-rule="nonzero"></path>
                        <path d="M27.0617017,5.33741827 C27.7040232,5.71555329 27.913122,6.53433004 27.5287368,7.16620735 C27.1443516,7.79808465 26.3120414,8.00378341 25.6697198,7.6256484 C24.0190115,6.65387559 22.1309064,6.13353333 20.1614959,6.13353333 C14.2253064,6.13353333 9.41238017,10.8682921 9.41238017,16.7082 L9.41238017,21.6135333 C9.41238017,22.349913 8.8055595,22.9468667 8.05700826,22.9468667 C7.30845703,22.9468667 6.70163636,22.349913 6.70163636,21.6135333 L6.70163636,16.7082 C6.70163636,9.39554432 12.7281922,3.46686667 20.1614959,3.46686667 C22.62448,3.46686667 24.9931077,4.119636 27.0617017,5.33741827 Z" id="Stroke-90" fill="#FFFFFF" fill-rule="nonzero"></path>
                        <path d="M33.6207455,33.2105333 C33.6207455,33.946913 33.0139248,34.5438667 32.2653736,34.5438667 C31.5168223,34.5438667 30.9100017,33.946913 30.9100017,33.2105333 L30.9100017,16.7082 C30.9100017,14.8205935 30.4084901,13.009354 29.468462,11.412815 C29.0932797,10.7756072 29.3142315,9.95984845 29.9619716,9.5907667 C30.6097116,9.22168495 31.4389541,9.43904399 31.8141363,10.0762517 C32.9917135,12.076243 33.6207455,14.34803 33.6207455,16.7082 L33.6207455,33.2105333 Z" id="Stroke-92" fill="#FFFFFF" fill-rule="nonzero"></path>
                        <path d="M11.193576,21.3129 C11.193576,20.5765203 11.8003967,19.9795667 12.5489479,19.9795667 C13.2974992,19.9795667 13.9043198,20.5765203 13.9043198,21.3129 L13.9043198,25.9545667 C13.9043198,26.6909463 13.2974992,27.2879 12.5489479,27.2879 C11.8003967,27.2879 11.193576,26.6909463 11.193576,25.9545667 L11.193576,21.3129 Z" id="Stroke-94" fill="#FFFFFF" fill-rule="nonzero"></path>
                        <path d="M29.1280942,21.4325333 C29.1280942,22.168913 28.5212735,22.7658667 27.7727223,22.7658667 C27.0241711,22.7658667 26.4173504,22.168913 26.4173504,21.4325333 L26.4173504,16.7905333 C26.4173504,13.3906276 23.6168149,10.6348667 20.1616314,10.6348667 C16.7056065,10.6348667 13.9042182,13.3907887 13.9042182,16.7905333 C13.9042182,17.526913 13.2973975,18.1238667 12.5488463,18.1238667 C11.800295,18.1238667 11.1934744,17.526913 11.1934744,16.7905333 C11.1934744,11.9180477 15.2084854,7.9682 20.1616314,7.9682 C25.1140853,7.9682 29.1280942,11.9180334 29.1280942,16.7905333 L29.1280942,21.4325333 Z" id="Stroke-96" fill="#FFFFFF" fill-rule="nonzero"></path>
                        <path d="M13.2524571,30.6930268 C12.7750722,30.1258322 12.8554774,29.2853259 13.4320471,28.8157034 C14.0086168,28.3460808 14.8630158,28.4251786 15.3404007,28.9923732 C16.5220274,30.3962975 18.2710418,31.2227 20.1618008,31.2227 C21.1328728,31.2227 22.068937,31.0066028 22.9198492,30.5957609 C23.5918269,30.2713132 24.4039367,30.5441842 24.7337472,31.2052354 C25.0635577,31.8662866 24.7861764,32.6651913 24.1141987,32.9896391 C22.8935261,33.5790105 21.5491624,33.8893667 20.1618008,33.8893667 C17.455297,33.8893667 14.9439883,32.7027832 13.2524571,30.6930268 Z" id="Stroke-98" fill="#FFFFFF" fill-rule="nonzero"></path>
                        <path d="M29.1280942,33.2105333 C29.1280942,33.946913 28.5212735,34.5438667 27.7727223,34.5438667 C27.0241711,34.5438667 26.4173504,33.946913 26.4173504,33.2105333 L26.4173504,27.1958667 C26.4173504,26.459487 27.0241711,25.8625333 27.7727223,25.8625333 C28.5212735,25.8625333 29.1280942,26.459487 29.1280942,27.1958667 L29.1280942,33.2105333 Z" id="Stroke-100" fill="#FFFFFF" fill-rule="nonzero"></path>
                        <path d="M24.7207975,19.7515333 C24.7207975,20.487913 24.1139769,21.0848667 23.3654256,21.0848667 C22.6168744,21.0848667 22.0100537,20.487913 22.0100537,19.7515333 L22.0100537,17.7038667 C22.0100537,16.6994905 21.1831391,15.8862 20.1613264,15.8862 C19.1404213,15.8862 18.312938,16.699931 18.312938,17.7038667 C18.312938,18.4402463 17.7061173,19.0372 16.9575661,19.0372 C16.2090149,19.0372 15.6021942,18.4402463 15.6021942,17.7038667 C15.6021942,15.2269535 17.6435405,13.2195333 20.1613264,13.2195333 C22.6801086,13.2195333 24.7207975,15.2266003 24.7207975,17.7038667 L24.7207975,19.7515333 Z" id="Stroke-102" fill="#FFFFFF" fill-rule="nonzero"></path>
                        <path d="M15.6021603,22.4717667 C15.6021603,21.735387 16.208981,21.1384333 16.9575322,21.1384333 C17.7060835,21.1384333 18.3129041,21.735387 18.3129041,22.4717667 L18.3129041,24.5194333 C18.3129041,25.5237682 19.1401154,26.3377667 20.1616314,26.3377667 C21.1817497,26.3377667 22.0103587,25.5228096 22.0103587,24.5194333 C22.0103587,23.7830537 22.6171793,23.1861 23.3657306,23.1861 C24.1142818,23.1861 24.7211025,23.7830537 24.7211025,24.5194333 C24.7211025,26.9956998 22.6787193,29.0044333 20.1616314,29.0044333 C17.6428356,29.0044333 15.6021603,26.9963531 15.6021603,24.5194333 L15.6021603,22.4717667 Z" id="Stroke-104" fill="#FFFFFF" fill-rule="nonzero"></path>
                    </g>
                </g>
            </g>
        </g>
    </g>
</svg>