<?xml version="1.0" encoding="UTF-8"?>
<svg width="80px" height="84px" viewBox="0 0 80 84" version="1.1" xmlns="http://www.w3.org/2000/svg" xmlns:xlink="http://www.w3.org/1999/xlink">
    <!-- Generator: Sketch 50.2 (55047) - http://www.bohemiancoding.com/sketch -->
    <title>icn_dating</title>
    <desc>Created with Sketch.</desc>
    <defs>
        <path d="M66.6669333,80.0002 L13.3336,80.0002 C5.9696,80.0002 0.000266666667,74.0302 0.000266666667,66.6668667 L0.000266666667,13.3335333 C0.000266666667,5.96953333 5.9696,0.0002 13.3336,0.0002 L66.6669333,0.0002 C74.0302667,0.0002 80.0002667,5.96953333 80.0002667,13.3335333 L80.0002667,66.6668667 C80.0002667,74.0302 74.0302667,80.0002 66.6669333,80.0002" id="path-1"></path>
        <filter x="-2.5%" y="-2.5%" width="105.0%" height="110.0%" filterUnits="objectBoundingBox" id="filter-3">
            <feOffset dx="0" dy="4" in="SourceAlpha" result="shadowOffsetOuter1"></feOffset>
            <feColorMatrix values="0 0 0 0 0.388235294   0 0 0 0 0.541176471   0 0 0 0 0.22745098  0 0 0 1 0" type="matrix" in="shadowOffsetOuter1"></feColorMatrix>
        </filter>
    </defs>
    <g id="Page-1" stroke="none" stroke-width="1" fill="none" fill-rule="evenodd">
        <g id="BV-Mobile_SAUC_1stS_Step-1" transform="translate(-195.000000, -393.000000)">
            <g id="categories" transform="translate(0.000000, 148.000000)">
                <g id="category_4" transform="translate(165.000000, 245.000000)">
                    <g id="icn_dating" transform="translate(30.000000, 0.000000)">
                        <g id="shadow">
                            <mask id="mask-2" fill="white">
                                <use xlink:href="#path-1"></use>
                            </mask>
                            <g id="Mask">
                                <use fill="black" fill-opacity="1" filter="url(#filter-3)" xlink:href="#path-1"></use>
                                <use fill="#81B44C" fill-rule="evenodd" xlink:href="#path-1"></use>
                            </g>
                            <path d="M98.0126667,125.669467 L25.592,53.2488 L14.568,36.6461333 C14.568,36.6461333 16.866,21.8474667 23.2346667,18.6621333 C27.91,16.3241333 36.9013333,20.0001333 40.6666667,23.2788 C51.576,16.8334667 60.5346667,19.0194667 60.5346667,19.0194667 L132.955333,91.4401333 L98.0126667,125.669467 Z" fill-opacity="0.09" fill="#000000" mask="url(#mask-2)"></path>
                        </g>
                        <path d="M56.0452,35.4262667 C56.5452,35.9262667 56.8252,36.6129333 56.8252,37.3129333 C56.8252,38.0129333 56.5452,38.7069333 56.0452,39.2002667 C55.5525333,39.7002667 54.8652,39.9796 54.1585333,39.9796 C53.4585333,39.9796 52.7718667,39.7002667 52.2792,39.2002667 C51.7792,38.7069333 51.4925333,38.0202667 51.4925333,37.3129333 C51.4925333,36.6129333 51.7792,35.9262667 52.2792,35.4262667 C52.7718667,34.9336 53.4585333,34.6462667 54.1585333,34.6462667 C54.8652,34.6462667 55.5525333,34.9336 56.0452,35.4262667 M59.2645333,31.5529333 C59.3498667,32.8389333 58.3765333,33.9502667 57.0905333,34.0349333 C57.0378667,34.0376 56.9858667,34.0396 56.9345333,34.0396 C55.7158667,34.0396 54.6905333,33.0936 54.6092,31.8596 C54.3592,28.0782667 51.8872,27.4582667 51.3938667,27.3722667 C50.1172,27.1969333 49.2438667,26.0236 49.4192,24.7462667 C49.5938667,23.4696 50.7898667,22.5829333 52.0665333,22.7542667 C54.3758667,23.0709333 58.8532,25.3176 59.2645333,31.5529333 M59.9165333,39.2736 C51.2765333,48.9656 43.4058667,56.5242667 39.9998667,59.7069333 C36.5958667,56.5269333 28.7318667,48.9756 20.0838667,39.2736 C16.5925333,35.3582667 15.7252,30.5829333 17.7005333,26.1729333 C19.5338667,22.0816 23.4612,19.3336 27.4732,19.3336 C35.4292,19.3336 37.2298667,25.2842667 37.4138667,25.9809333 C37.7085333,27.1569333 38.7645333,28.0002667 39.9792,28.0002667 L40.0032,28.0002667 C41.2138667,28.0002667 42.2778667,27.1576 42.5858667,25.9842667 C42.7632,25.3049333 44.5565333,19.3402667 52.5272,19.3402667 C56.5385333,19.3402667 60.4658667,22.0849333 62.2992,26.1762667 C64.2758667,30.5862667 63.4072,35.3582667 59.9165333,39.2736 M67.1658667,23.9909333 C64.4458667,17.9222667 58.6992,14.0002667 52.5272,14.0002667 C46.3585333,14.0002667 42.3578667,16.7129333 40.0005333,19.6522667 C37.6425333,16.7129333 33.6418667,14.0002667 27.4732,14.0002667 C21.3005333,14.0002667 15.5545333,17.9222667 12.8345333,23.9909333 C10.0025333,30.3109333 11.2252,37.3509333 16.1032,42.8229333 C27.7892,55.9322667 38.1165333,65.2262667 38.2198667,65.3182667 C38.7258667,65.7729333 39.3632,66.0002667 40.0005333,66.0002667 C40.6372,66.0002667 41.2738667,65.7729333 41.7805333,65.3182667 C41.8832,65.2262667 52.2105333,55.9322667 63.8965333,42.8236 C68.7758667,37.3509333 69.9978667,30.3109333 67.1658667,23.9909333" id="Fill-17" fill="#FFFFFF"></path>
                    </g>
                </g>
            </g>
        </g>
    </g>
</svg>