<?xml version="1.0" encoding="UTF-8"?>
<svg width="40px" height="40px" viewBox="0 0 40 40" version="1.1" xmlns="http://www.w3.org/2000/svg" xmlns:xlink="http://www.w3.org/1999/xlink">
    <!-- Generator: Sketch 50.2 (55047) - http://www.bohemiancoding.com/sketch -->
    <title>icn_mglass_plus_color_small</title>
    <desc>Created with Sketch.</desc>
    <defs>
        <path d="M33.3334667,40.0001 L6.6668,40.0001 C2.9848,40.0001 0.000133333333,37.0151 0.000133333333,33.3334333 L0.000133333333,6.66676667 C0.000133333333,2.98476667 2.9848,0.0001 6.6668,0.0001 L33.3334667,0.0001 C37.0151333,0.0001 40.0001333,2.98476667 40.0001333,6.66676667 L40.0001333,33.3334333 C40.0001333,37.0151 37.0151333,40.0001 33.3334667,40.0001" id="path-1"></path>
    </defs>
    <g id="Page-1" stroke="none" stroke-width="1" fill="none" fill-rule="evenodd">
        <g id="BV-Desktop_SAUC_P_Step-2" transform="translate(-365.000000, -417.000000)">
            <g id="modal" transform="translate(295.000000, 204.000000)">
                <g id="searches" transform="translate(70.000000, 209.000000)">
                    <g id="icn_mglass_plus_color_small" transform="translate(0.000000, 4.000000)">
                        <g id="shadow">
                            <mask id="mask-2" fill="white">
                                <use xlink:href="#path-1"></use>
                            </mask>
                            <use id="Mask" fill="#F2DA3E" xlink:href="#path-1"></use>
                            <path d="M41.0441,69.6535667 L4.83376667,33.4432333 L16.6267667,21.6502333 C16.6267667,21.6502333 10.3397667,13.2409 17.5064333,8.30623333 C24.6731,3.37123333 29.6847667,7.28356667 29.6847667,7.28356667 L65.8954333,43.4939 L41.0441,69.6535667 Z" fill-opacity="0.09" fill="#000000" mask="url(#mask-2)"></path>
                        </g>
                        <path d="M23.0068,23.0419 C18.7778,23.0419 15.3374667,19.5445667 15.3374667,15.2459 C15.3374667,10.9475667 18.7778,7.45023333 23.0068,7.45023333 C27.2351333,7.45023333 30.6751333,10.9475667 30.6751333,15.2459 C30.6751333,19.5445667 27.2351333,23.0419 23.0068,23.0419 M23.0068,4.7989 C17.3158,4.7989 12.6861333,9.48523333 12.6861333,15.2459 C12.6861333,17.6665667 13.5058,19.8955667 14.8758,21.6685667 L5.08946667,31.5932333 C4.5108,32.1799 4.5178,33.1242333 5.10413333,33.7025667 C5.3948,33.9892333 5.7728,34.1322333 6.15113333,34.1322333 C6.53613333,34.1322333 6.92146667,33.9839 7.21313333,33.6879 L17.0168,23.7455667 C18.7071333,24.9699 20.7741333,25.6935667 23.0068,25.6935667 C28.6971333,25.6935667 33.3268,21.0069 33.3268,15.2459 C33.3268,9.48523333 28.6971333,4.7989 23.0068,4.7989" id="Fill-11" fill="#FFFFFF"></path>
                        <path d="M22,11.2590778 C22,10.7439696 22.4477153,10.3263919 23,10.3263919 C23.5522847,10.3263919 24,10.7439696 24,11.2590778 L24,18.7270393 C24,19.2421475 23.5522847,19.6597252 23,19.6597252 C22.4477153,19.6597252 22,19.2421475 22,18.7270393 L22,11.2590778 Z" id="Stroke-8" fill="#FFFFFF"></path>
                        <path d="M26.7339808,14 C27.249089,14 27.6666667,14.4477153 27.6666667,15 C27.6666667,15.5522847 27.249089,16 26.7339808,16 L19.2660192,16 C18.750911,16 18.3333333,15.5522847 18.3333333,15 C18.3333333,14.4477153 18.750911,14 19.2660192,14 L26.7339808,14 Z" id="Stroke-8" fill="#FFFFFF"></path>
                    </g>
                </g>
            </g>
        </g>
    </g>
</svg>