<?xml version="1.0" encoding="UTF-8"?>
<svg width="80px" height="80px" viewBox="0 0 80 80" version="1.1" xmlns="http://www.w3.org/2000/svg" xmlns:xlink="http://www.w3.org/1999/xlink">
    <!-- Generator: Sketch 50.2 (55047) - http://www.bohemiancoding.com/sketch -->
    <title>icn_folderplus_color</title>
    <desc>Created with Sketch.</desc>
    <defs>
        <path d="M66.6670014,80.0002 L13.333668,80.0002 C5.96966804,80.0002 0.000334710744,74.0302 0.000334710744,66.6668667 L0.000334710744,13.3335333 C0.000334710744,5.96953333 5.96966804,0.0002 13.333668,0.0002 L66.6670014,0.0002 C74.0303347,0.0002 80.0003347,5.96953333 80.0003347,13.3335333 L80.0003347,66.6668667 C80.0003347,74.0302 74.0303347,80.0002 66.6670014,80.0002" id="path-1"></path>
    </defs>
    <g id="Page-1" stroke="none" stroke-width="1" fill="none" fill-rule="evenodd">
        <g id="BV-Mobile_SAUC_DS_Step-7B" transform="translate(-120.000000, -275.000000)">
            <g id="OI" transform="translate(10.000000, 275.000000)">
                <g id="icn_folderplus_color" transform="translate(110.000000, 0.000000)">
                    <g id="shadow">
                        <mask id="mask-2" fill="white">
                            <use xlink:href="#path-1"></use>
                        </mask>
                        <use id="Mask" fill="#81B44C" xlink:href="#path-1"></use>
                        <polygon fill-opacity="0.09" fill="#000000" mask="url(#mask-2)" points="66.504481 17.2023333 66.504481 22.947 70.6984066 22.947 109.485357 63.2776667 52.9386545 108.011 9.66256364 64.9116667 9.66256364 17.2023333"></polygon>
                    </g>
                    <path d="M48.0404975,60.6766 C49.5193426,60.6766 50.7181835,61.8705073 50.7181835,63.3432667 C50.7181835,64.816026 49.5193426,66.0099333 48.0404975,66.0099333 L11.7150099,66.0099333 C10.2361648,66.0099333 9.03732397,64.816026 9.03732397,63.3432667 L9.03732397,16.6572667 C9.03732397,15.1845073 10.2361648,13.9906 11.7150099,13.9906 L32.2876711,13.9906 C33.1894442,13.9906 34.030651,14.4426334 34.52573,15.1932502 L38.6440519,21.4372667 L68.6158364,21.4372667 C70.0946815,21.4372667 71.2935223,22.631174 71.2935223,24.1039333 L71.2935223,48.7812667 C71.2935223,50.254026 70.0946815,51.4479333 68.6158364,51.4479333 C67.1369912,51.4479333 65.9381504,50.254026 65.9381504,48.7812667 L65.9381504,26.7706 L37.1992165,26.7706 C36.2974434,26.7706 35.4562366,26.3185666 34.9611576,25.5679498 L30.8428357,19.3239333 L14.3926959,19.3239333 L14.3926959,60.6766 L48.0404975,60.6766 Z" id="Stroke-52" fill="#FFFFFF" fill-rule="nonzero"></path>
                    <path d="M34.5611603,19.2023333 C33.4520265,19.2023333 32.5528959,18.3069028 32.5528959,17.2023333 C32.5528959,16.0977638 33.4520265,15.2023333 34.5611603,15.2023333 L66.5046149,15.2023333 C67.6137487,15.2023333 68.5128793,16.0977638 68.5128793,17.2023333 L68.5128793,24.1043333 C68.5128793,25.2089028 67.6137487,26.1043333 66.5046149,26.1043333 C65.395481,26.1043333 64.4963504,25.2089028 64.4963504,24.1043333 L64.4963504,19.2023333 L34.5611603,19.2023333 Z" id="Stroke-54" fill="#FFFFFF" fill-rule="nonzero"></path>
                    <path d="M69.2854587,57.3432667 C69.2854587,51.8202779 64.7897839,47.3432667 59.2441364,47.3432667 C53.6980724,47.3432667 49.202814,51.820026 49.202814,57.3432667 C49.202814,62.8660926 53.6983254,67.3432667 59.2441364,67.3432667 C64.7895309,67.3432667 69.2854587,62.8658407 69.2854587,57.3432667 Z M74.6408306,57.3432667 C74.6408306,65.8113593 67.7472211,72.6766 59.2441364,72.6766 C50.7405916,72.6766 43.8474421,65.8115679 43.8474421,57.3432667 C43.8474421,48.8745073 50.7403822,42.0099333 59.2441364,42.0099333 C67.7474306,42.0099333 74.6408306,48.8747159 74.6408306,57.3432667 Z" id="Stroke-56" fill="#FFFFFF" fill-rule="nonzero"></path>
                    <path d="M57.2358719,53.5258667 C57.2358719,52.4212972 58.1350025,51.5258667 59.2441364,51.5258667 C60.3532702,51.5258667 61.2524008,52.4212972 61.2524008,53.5258667 L61.2524008,61.1605333 C61.2524008,62.2651028 60.3532702,63.1605333 59.2441364,63.1605333 C58.1350025,63.1605333 57.2358719,62.2651028 57.2358719,61.1605333 L57.2358719,53.5258667 Z" id="Stroke-58" fill="#FFFFFF" fill-rule="nonzero"></path>
                    <path d="M63.076976,55.3432667 C64.1861099,55.3432667 65.0852405,56.2386972 65.0852405,57.3432667 C65.0852405,58.4478362 64.1861099,59.3432667 63.076976,59.3432667 L55.4107612,59.3432667 C54.3016273,59.3432667 53.4024967,58.4478362 53.4024967,57.3432667 C53.4024967,56.2386972 54.3016273,55.3432667 55.4107612,55.3432667 L63.076976,55.3432667 Z" id="Stroke-60" fill="#FFFFFF" fill-rule="nonzero"></path>
                </g>
            </g>
        </g>
    </g>
</svg>