<?xml version="1.0" encoding="UTF-8"?>
<svg width="80px" height="80px" viewBox="0 0 80 80" version="1.1" xmlns="http://www.w3.org/2000/svg" xmlns:xlink="http://www.w3.org/1999/xlink">
    <!-- Generator: Sketch 50.2 (55047) - http://www.bohemiancoding.com/sketch -->
    <title>icn_lightbulb_color</title>
    <desc>Created with Sketch.</desc>
    <defs>
        <path d="M66.6670014,80.0002 L13.333668,80.0002 C5.96966804,80.0002 0.000334710744,74.0302 0.000334710744,66.6668667 L0.000334710744,13.3335333 C0.000334710744,5.96953333 5.96966804,0.0002 13.333668,0.0002 L66.6670014,0.0002 C74.0303347,0.0002 80.0003347,5.96953333 80.0003347,13.3335333 L80.0003347,66.6668667 C80.0003347,74.0302 74.0303347,80.0002 66.6670014,80.0002" id="path-1"></path>
    </defs>
    <g id="Page-1" stroke="none" stroke-width="1" fill="none" fill-rule="evenodd">
        <g id="BV-Mobile_SAUC_DS_Step-3" transform="translate(-120.000000, -275.000000)">
            <g id="LS&amp;PM" transform="translate(10.000000, 275.000000)">
                <g id="icn_lightbulb_color" transform="translate(110.000000, 0.000000)">
                    <g id="shadow">
                        <mask id="mask-2" fill="white">
                            <use xlink:href="#path-1"></use>
                        </mask>
                        <use id="Mask" fill="#7664C5" xlink:href="#path-1"></use>
                        <polygon fill-opacity="0.09" fill="#000000" mask="url(#mask-2)" points="82.296 114.123533 35.1573471 70.1868667 28.3807934 61.2642 28.1210579 52.0088667 30.6387521 44.4308667 23.839438 37.1575333 23.7771818 23.7642 31.4755289 14.1228667 53.2317273 14.2535333 97.3385702 58.1782"></polygon>
                    </g>
                    <path d="M50.631093,29.0570652 C50.51444,30.2558478 49.5052244,31.1522826 48.3260286,31.1522826 C48.2507041,31.1522826 48.1740464,31.1489674 48.0973886,31.1416739 C46.8228707,31.0170217 45.8909794,29.8818913 46.0149649,28.6061957 C46.3849218,24.8109348 43.0533104,23.4636304 42.6726882,23.3224022 C41.4794941,22.8801522 40.8542337,21.5547283 41.2848501,20.3566087 C41.7161331,19.1584891 43.0206476,18.5285978 44.2211742,18.9469783 C46.6948856,19.81225 51.2176913,23.0379565 50.631093,29.0570652 M45.9643042,66.6350543 C46.0769577,68.0950761 44.9844185,69.3707717 43.5252554,69.4834891 L36.9193594,69.9920435 C36.8493676,69.9973478 36.7813755,70 36.7127168,70 C35.3415435,70 34.179679,68.9424457 34.0730248,67.5513804 C33.9603713,66.0906957 35.0529105,64.815663 36.5120736,64.7029457 L43.1179696,64.1943913 C44.5804656,64.0883043 45.8516506,65.1750326 45.9643042,66.6350543 M51.7649608,58.2594891 C51.8709484,59.720837 50.7737431,60.9912283 49.3139134,61.0973152 L31.1073708,62.420087 C31.0420451,62.4253913 30.977386,62.4280435 30.9127268,62.4280435 C29.5362208,62.4280435 28.3730231,61.3631957 28.2723682,59.9674891 C28.1663806,58.5068043 29.2629193,57.236413 30.7234156,57.1303261 L48.9292916,55.8068913 C50.3864549,55.6994783 51.6589731,56.7981413 51.7649608,58.2594891 M47.9760695,41.1410326 C47.1115037,41.6011848 46.671555,42.5015978 46.671555,43.4815761 L46.671555,47.5268043 L33.339777,48.5684457 L33.339777,43.4835652 C33.339777,42.5400543 32.9518223,41.6674891 32.1379172,41.192087 C27.5477861,38.5133913 25.3727065,34.5603261 25.3727065,29.1061304 C25.3727065,20.9440652 31.9406069,14.3043478 39.9783359,14.3043478 C48.0160648,14.3043478 54.6186278,20.9440652 54.6186278,29.1061304 C54.6186278,34.4031848 52.1755795,38.9019348 47.9760695,41.1410326 M40.0069992,9 C29.0456113,9 20,18.0193804 20,29.1061304 C20,35.8658587 22.6743547,41.3107717 28.0070658,44.94425 L28.0070658,51.4434022 C28.0070658,52.1833587 28.4456813,52.890163 28.9889513,53.392087 C29.4808939,53.8456087 30.1874781,54.0955761 30.8507341,54.0955761 C30.9220591,54.0955761 31.0247138,54.0922609 31.0953722,54.0869565 L49.434566,52.6176522 C50.8117386,52.5069239 52.0042662,51.3558804 52.0042662,49.9740978 L52.0042662,44.9880109 C56.6703885,41.6230652 60,35.8048587 60,29.1061304 C60,18.0193804 50.9670538,9 40.0069992,9" id="Fill-117" fill="#FFFFFF"></path>
                </g>
            </g>
        </g>
    </g>
</svg>