<?xml version="1.0" encoding="UTF-8"?>
<svg width="70px" height="74px" viewBox="0 0 70 74" version="1.1" xmlns="http://www.w3.org/2000/svg" xmlns:xlink="http://www.w3.org/1999/xlink">
    <!-- Generator: Sketch 50.2 (55047) - http://www.bohemiancoding.com/sketch -->
    <title>icn_dating_hover</title>
    <desc>Created with Sketch.</desc>
    <defs>
        <path d="M58.3335667,72.000175 L11.6669,72.000175 C5.2234,72.000175 0.000233333333,66.627175 0.000233333333,60.000175 L0.000233333333,12.000175 C0.000233333333,5.372575 5.2234,0.000175 11.6669,0.000175 L58.3335667,0.000175 C64.7764833,0.000175 70.0002333,5.372575 70.0002333,12.000175 L70.0002333,60.000175 C70.0002333,66.627175 64.7764833,72.000175 58.3335667,72.000175" id="path-1"></path>
        <filter x="-1.4%" y="-1.4%" width="102.9%" height="105.6%" filterUnits="objectBoundingBox" id="filter-3">
            <feOffset dx="0" dy="2" in="SourceAlpha" result="shadowOffsetOuter1"></feOffset>
            <feColorMatrix values="0 0 0 0 0.31372549   0 0 0 0 0.431372549   0 0 0 0 0.196078431  0 0 0 1 0" type="matrix" in="shadowOffsetOuter1"></feColorMatrix>
        </filter>
    </defs>
    <g id="Page-1" stroke="none" stroke-width="1" fill="none" fill-rule="evenodd">
        <g id="BV-Desktop_SAUC_1stS_Step-1" transform="translate(-752.000000, -270.000000)">
            <g id="categories_hover" transform="translate(295.000000, 160.000000)">
                <g id="category_4" transform="translate(432.000000, 110.000000)">
                    <g id="icn_dating_hover" transform="translate(25.000000, 0.000000)">
                        <g id="shadow">
                            <mask id="mask-2" fill="white">
                                <use xlink:href="#path-1"></use>
                            </mask>
                            <g id="Mask">
                                <use fill="black" fill-opacity="1" filter="url(#filter-3)" xlink:href="#path-1"></use>
                                <use fill="#638A3A" fill-rule="evenodd" xlink:href="#path-1"></use>
                            </g>
                            <path d="M85.7610833,109.960783 L22.393,46.5927 L12.747,32.0653667 C12.747,32.0653667 14.75775,19.1165333 20.3303333,16.3293667 C24.42125,14.2836167 32.2886667,17.5001167 35.5833333,20.36895 C45.129,14.7292833 52.9678333,16.6420333 52.9678333,16.6420333 L116.335917,80.0101167 L85.7610833,109.960783 Z" fill-opacity="0.09" fill="#000000" mask="url(#mask-2)"></path>
                        </g>
                        <path d="M49.03955,30.9979833 C49.47705,31.4354833 49.72205,32.0363167 49.72205,32.6488167 C49.72205,33.2613167 49.47705,33.8685667 49.03955,34.3002333 C48.6084667,34.7377333 48.00705,34.98215 47.3887167,34.98215 C46.7762167,34.98215 46.1753833,34.7377333 45.7443,34.3002333 C45.3068,33.8685667 45.0559667,33.2677333 45.0559667,32.6488167 C45.0559667,32.0363167 45.3068,31.4354833 45.7443,30.9979833 C46.1753833,30.5669 46.7762167,30.3154833 47.3887167,30.3154833 C48.00705,30.3154833 48.6084667,30.5669 49.03955,30.9979833 M51.8564667,27.6088167 C51.9311333,28.7340667 51.0794667,29.7064833 49.9542167,29.7805667 C49.9081333,29.7829 49.8626333,29.78465 49.8177167,29.78465 C48.7513833,29.78465 47.8542167,28.9569 47.78305,27.87715 C47.5643,24.5684833 45.4013,24.0259833 44.9696333,23.9507333 C43.85255,23.7973167 43.0883833,22.77065 43.2418,21.6529833 C43.3946333,20.5359 44.4411333,19.7600667 45.5582167,19.9099833 C47.5788833,20.1870667 51.49655,22.1529 51.8564667,27.6088167 M52.4269667,34.3644 C44.8669667,42.8449 37.9801333,49.4587333 34.9998833,52.2435667 C32.0213833,49.4610667 25.1403833,42.85365 17.5733833,34.3644 C14.5184667,30.9384833 13.75955,26.7600667 15.4879667,22.9013167 C17.0921333,19.3214 20.52855,16.9169 24.03905,16.9169 C31.00055,16.9169 32.5761333,22.1237333 32.7371333,22.7333167 C32.9949667,23.7623167 33.9189667,24.5002333 34.9818,24.5002333 L35.0028,24.5002333 C36.0621333,24.5002333 36.9931333,23.7629 37.2626333,22.7362333 C37.4178,22.1418167 38.9869667,16.9227333 45.9613,16.9227333 C49.4712167,16.9227333 52.9076333,19.3243167 54.5118,22.9042333 C56.2413833,26.7629833 55.4813,30.9384833 52.4269667,34.3644 M58.7701333,20.9920667 C56.3901333,15.6819833 51.3618,12.2502333 45.9613,12.2502333 C40.5637167,12.2502333 37.0631333,14.6238167 35.0004667,17.1957333 C32.9372167,14.6238167 29.4366333,12.2502333 24.03905,12.2502333 C18.6379667,12.2502333 13.6102167,15.6819833 11.2302167,20.9920667 C8.75221667,26.5220667 9.82205,32.6820667 14.0903,37.4700667 C24.31555,48.9407333 33.3519667,57.0729833 33.4423833,57.1534833 C33.8851333,57.5513167 34.4428,57.7502333 35.0004667,57.7502333 C35.55755,57.7502333 36.1146333,57.5513167 36.5579667,57.1534833 C36.6478,57.0729833 45.6842167,48.9407333 55.9094667,37.47065 C60.1788833,32.6820667 61.2481333,26.5220667 58.7701333,20.9920667" id="Fill-17" fill="#FFFFFF"></path>
                    </g>
                </g>
            </g>
        </g>
    </g>
</svg>