<?xml version="1.0" encoding="UTF-8"?>
<svg width="40px" height="40px" viewBox="0 0 40 40" version="1.1" xmlns="http://www.w3.org/2000/svg" xmlns:xlink="http://www.w3.org/1999/xlink">
    <!-- Generator: Sketch 50.2 (55047) - http://www.bohemiancoding.com/sketch -->
    <title>icn_mglass_color_small</title>
    <desc>Created with Sketch.</desc>
    <defs>
        <path d="M33.3334667,40.0001 L6.6668,40.0001 C2.9848,40.0001 0.000133333333,37.0151 0.000133333333,33.3334333 L0.000133333333,6.66676667 C0.000133333333,2.98476667 2.9848,0.0001 6.6668,0.0001 L33.3334667,0.0001 C37.0151333,0.0001 40.0001333,2.98476667 40.0001333,6.66676667 L40.0001333,33.3334333 C40.0001333,37.0151 37.0151333,40.0001 33.3334667,40.0001" id="path-1"></path>
    </defs>
    <g id="Page-1" stroke="none" stroke-width="1" fill="none" fill-rule="evenodd">
        <g id="BV-Mobile_SAUC_SM_Step-2" transform="translate(-15.000000, -566.000000)">
            <g id="LS&amp;PM" transform="translate(10.000000, 267.000000)">
                <g id="deep-search" transform="translate(5.000000, 299.000000)">
                    <g id="icn_mglass_color_small">
                        <g id="shadow">
                            <mask id="mask-2" fill="white">
                                <use xlink:href="#path-1"></use>
                            </mask>
                            <use id="Mask" fill="#5691CD" xlink:href="#path-1"></use>
                            <path d="M41.0441,69.6535667 L4.83376667,33.4432333 L16.6267667,21.6502333 C16.6267667,21.6502333 10.3397667,13.2409 17.5064333,8.30623333 C24.6731,3.37123333 29.6847667,7.28356667 29.6847667,7.28356667 L65.8954333,43.4939 L41.0441,69.6535667 Z" fill-opacity="0.09" fill="#000000" mask="url(#mask-2)"></path>
                        </g>
                        <path d="M26.3221473,17.963 C26.5703312,18.2052159 26.7146556,18.543 26.7146556,18.8870455 C26.7146556,19.2343864 26.5703312,19.5718409 26.3221473,19.8143864 C26.0743006,20.0602273 25.725292,20.1976477 25.3735857,20.1976477 C25.0215422,20.1976477 24.6762428,20.0602273 24.4246869,19.8143864 C24.1768401,19.5718409 24.0325158,19.2343864 24.0325158,18.8870455 C24.0325158,18.543 24.1768401,18.2052159 24.4246869,17.963 C24.6762428,17.7171591 25.0215422,17.5764432 25.3735857,17.5764432 C25.725292,17.5764432 26.0743006,17.7171591 26.3221473,17.963 M28.7928587,15.4482386 C28.7146268,16.0246136 28.2108404,16.4437955 27.6315198,16.4437955 C27.57959,16.4437955 27.527323,16.4405 27.4747188,16.4335795 C26.8326778,16.349875 26.3811584,15.7728409 26.4668089,15.1450568 C26.7008301,13.4287841 24.7433469,12.5317614 24.6597197,12.4945227 C24.0733178,12.2315455 23.8102968,11.554 24.075341,10.9789432 C24.3403853,10.4038864 25.0276119,10.1451932 25.6173859,10.4002614 C25.7667684,10.4648523 29.2605639,12.0209659 28.7928587,15.4482386 M23.5600896,23.0356932 C19.2819519,23.0356932 15.8016446,19.5781023 15.8016446,15.3282841 C15.8016446,11.0787955 19.2819519,7.62120455 23.5600896,7.62120455 C27.8375529,7.62120455 31.317523,11.0787955 31.317523,15.3282841 C31.317523,19.5781023 27.8375529,23.0356932 23.5600896,23.0356932 M23.5600896,5 C17.8029646,5 13.1195048,9.63307955 13.1195048,15.3282841 C13.1195048,17.7214432 13.9486954,19.9251136 15.3346137,21.6779659 L5.43457082,31.4898523 C4.8491805,32.0698523 4.85626183,33.0034545 5.4494079,33.5752159 C5.74345189,33.858625 6.12584396,34 6.50857323,34 C6.89804663,34 7.28785724,33.8533523 7.58291284,33.5607159 L17.5004905,23.7313636 C19.2104642,24.9417841 21.3014811,25.6572273 23.5600896,25.6572273 C29.3165402,25.6572273 34,21.0238182 34,15.3282841 C34,9.63307955 29.3165402,5 23.5600896,5" id="Fill-11" fill="#FFFFFF"></path>
                    </g>
                </g>
            </g>
        </g>
    </g>
</svg>