<?xml version="1.0" encoding="UTF-8"?>
<svg width="40px" height="40px" viewBox="0 0 40 40" version="1.1" xmlns="http://www.w3.org/2000/svg" xmlns:xlink="http://www.w3.org/1999/xlink">
    <!-- Generator: Sketch 50.2 (55047) - http://www.bohemiancoding.com/sketch -->
    <title>icn_globe_color_small</title>
    <desc>Created with Sketch.</desc>
    <defs>
        <path d="M33.3334667,40.0000667 L6.6668,40.0000667 C2.9848,40.0000667 0.000133333333,37.0150667 0.000133333333,33.3334 L0.000133333333,6.66673333 C0.000133333333,2.98473333 2.9848,6.66666667e-05 6.6668,6.66666667e-05 L33.3334667,6.66666667e-05 C37.0151333,6.66666667e-05 40.0001333,2.98473333 40.0001333,6.66673333 L40.0001333,33.3334 C40.0001333,37.0150667 37.0151333,40.0000667 33.3334667,40.0000667" id="path-1"></path>
    </defs>
    <g id="Page-1" stroke="none" stroke-width="1" fill="none" fill-rule="evenodd">
        <g id="BV-Mobile_SAUC_DS_Step-2" transform="translate(-15.000000, -462.000000)">
            <g id="LS&amp;PM" transform="translate(10.000000, 267.000000)">
                <g id="social-media" transform="translate(5.000000, 195.000000)">
                    <g id="icn_globe_color_small">
                        <g id="shadow">
                            <mask id="mask-2" fill="white">
                                <use xlink:href="#path-1"></use>
                            </mask>
                            <use id="Mask" fill="#F2DA3E" xlink:href="#path-1"></use>
                            <polygon fill-opacity="0.09" fill="#000000" mask="url(#mask-2)" points="45.3806667 67.1380667 8.448 30.4834 6.01233333 19.9947333 9.51266667 9.6024 20 5.98506667 32.1163333 10.7497333 60.839 39.4724"></polygon>
                        </g>
                        <path d="M24.5431,31.8208667 C25.7307667,30.2255333 27.0764333,27.9448667 27.8697667,25.0732 C29.5387667,24.9252 30.8594333,24.7528667 31.7937667,24.6115333 C30.4977667,27.9142 27.8551,30.5435333 24.5431,31.8208667 M8.20276667,24.6035333 C9.1421,24.7435333 10.4711,24.9148667 12.1274333,25.0638667 C12.9207667,27.9395333 14.2677667,30.2238667 15.4567667,31.8208667 C12.1424333,30.5425333 9.49776667,27.9098667 8.20276667,24.6035333 M15.5337667,8.14886667 C14.3424333,9.75886667 12.9714333,12.0635333 12.1567667,14.9248667 C10.4747667,15.0735333 9.1451,15.2468667 8.20576667,15.3892 C9.51176667,12.0605333 12.1854333,9.41486667 15.5337667,8.14886667 M31.7974333,15.3972 C30.8531,15.2565333 29.5147667,15.0838667 27.8457667,14.9342 C27.0314333,12.0688667 25.6587667,9.76053333 24.4664333,8.14886667 C27.8171,9.41586667 30.4924333,12.0645333 31.7974333,15.3972 M28.3094333,16.9912 C30.2641,17.1835333 31.6824333,17.3985333 32.4221,17.5232 C32.5814333,18.3245333 32.6667667,19.1525333 32.6667667,20.0002 C32.6667667,20.8492 32.5811,21.6785333 32.4211,22.4812 C31.6921,22.6078667 30.2894333,22.8255333 28.3181,23.0185333 C28.4711,22.0635333 28.5604333,21.0575333 28.5604333,20.0002 C28.5604333,18.9502 28.4684333,17.9465333 28.3094333,16.9912 M21.0001,23.4025333 L21.0001,16.5985333 C23.0001,16.6205333 24.6997667,16.7038667 26.2381,16.8148667 C26.4394333,17.8182 26.5604333,18.8808667 26.5604333,20.0002 C26.5604333,21.1268667 26.4437667,22.1912 26.2491,23.1922 C24.7207667,23.3002 23.0001,23.3812 21.0001,23.4025333 M19.0001,7.37653333 L19.0001,14.5982 C17.3334333,14.6158667 15.7081,14.6775333 14.3111,14.7638667 C15.5864333,10.9548667 17.9044333,8.30886667 18.7924333,7.3922 C18.8614333,7.38553333 19.0001,7.38186667 19.0001,7.37653333 M21.2094333,7.39253333 C22.0997667,8.30686667 24.4221,10.9492 25.6951,14.7705333 C24.2871,14.6812 22.6667667,14.6168667 21.0001,14.5982 L21.0001,7.37653333 C21.0001,7.3822 21.1397667,7.38586667 21.2094333,7.39253333 M13.4397667,20.0002 C13.4397667,18.8792 13.5617667,17.8135333 13.7654333,16.8075333 C15.2904333,16.6998667 17.0001,16.6195333 19.0001,16.5982 L19.0001,23.4022 C17.0001,23.3798667 15.2904333,23.2962 13.7491,23.1845333 C13.5554333,22.1858667 13.4397667,21.1242 13.4397667,20.0002 M7.33343333,20.0002 C7.33343333,19.1512 7.41876667,18.3218667 7.57876667,17.5195333 C8.30876667,17.3925333 9.7151,17.1745333 11.6921,16.9812 C11.5321,17.9395333 11.4397667,18.9465333 11.4397667,20.0002 C11.4397667,21.0542 11.5281,22.0565333 11.6804333,23.0085333 C9.73076667,22.8162 8.31643333,22.6015333 7.5781,22.4772 C7.41876667,21.6755333 7.33343333,20.8478667 7.33343333,20.0002 M18.7754333,32.6062 C17.8821,31.7155333 15.5407667,29.1135333 14.2771,25.2282 C15.6917667,25.3185333 17.3334333,25.3835333 19.0001,25.4022 L19.0001,32.6235333 C19.0001,32.6175333 18.8501,32.6135333 18.7754333,32.6062 M21.2241,32.6062 C21.1497667,32.6135333 21.0001,32.6175333 21.0001,32.6235333 L21.0001,25.4025333 C22.6667667,25.3848667 24.3157667,25.3218667 25.7207667,25.2348667 C24.4561,29.1178667 22.1164333,31.7172 21.2241,32.6062 M20.0001,4.66686667 C11.5454333,4.66686667 4.66676667,11.5452 4.66676667,20.0002 C4.66676667,28.4548667 11.5454333,35.3335333 20.0001,35.3335333 C28.4547667,35.3335333 35.3334333,28.4548667 35.3334333,20.0002 C35.3334333,11.5452 28.4547667,4.66686667 20.0001,4.66686667" id="Fill-6" fill="#FFFFFF"></path>
                        <path d="M28.5851,15.5560333 C28.5851,16.5373667 27.7894333,17.3343667 26.8071,17.3343667 C25.8257667,17.3343667 25.0297667,16.5373667 25.0297667,15.5560333 C25.0297667,14.5737 25.8257667,13.7777 26.8071,13.7777 C27.7894333,13.7777 28.5851,14.5737 28.5851,15.5560333" id="Fill-8" fill="#FFFFFF"></path>
                        <path d="M27.5851,15.5560333 C27.5851,15.1258632 27.237027,14.7777 26.8071,14.7777 C26.3779838,14.7777 26.0297667,15.1260525 26.0297667,15.5560333 C26.0297667,15.9854464 26.3784159,16.3343667 26.8071,16.3343667 C27.2365948,16.3343667 27.5851,15.9856358 27.5851,15.5560333 Z M29.5851,15.5560333 C29.5851,17.0899156 28.3414543,18.3343667 26.8071,18.3343667 C25.2734985,18.3343667 24.0297667,17.0896682 24.0297667,15.5560333 C24.0297667,14.0216569 25.2732403,12.7777 26.8071,12.7777 C28.3417125,12.7777 29.5851,14.0214096 29.5851,15.5560333 Z" id="Stroke-10" fill="#FFFFFF" fill-rule="nonzero"></path>
                        <path d="M15.2517667,15.5560333 C15.2517667,16.5373667 14.4564333,17.3343667 13.4737667,17.3343667 C12.4924333,17.3343667 11.6964333,16.5373667 11.6964333,15.5560333 C11.6964333,14.5737 12.4924333,13.7777 13.4737667,13.7777 C14.4564333,13.7777 15.2517667,14.5737 15.2517667,15.5560333" id="Fill-12" fill="#FFFFFF"></path>
                        <path d="M14.2517667,15.5560333 C14.2517667,15.125719 13.9038829,14.7777 13.4737667,14.7777 C13.0446505,14.7777 12.6964333,15.1260525 12.6964333,15.5560333 C12.6964333,15.9854464 13.0450826,16.3343667 13.4737667,16.3343667 C13.9034507,16.3343667 14.2517667,15.98578 14.2517667,15.5560333 Z M16.2517667,15.5560333 C16.2517667,17.0900018 15.0083682,18.3343667 13.4737667,18.3343667 C11.9401651,18.3343667 10.6964333,17.0896682 10.6964333,15.5560333 C10.6964333,14.0216569 11.939907,12.7777 13.4737667,12.7777 C15.0086263,12.7777 16.2517667,14.0213234 16.2517667,15.5560333 Z" id="Stroke-14" fill="#FFFFFF" fill-rule="nonzero"></path>
                        <path d="M21.7775,24.2051333 C21.7775,25.1864667 20.9821667,25.9834667 19.9998333,25.9834667 C19.0185,25.9834667 18.2225,25.1864667 18.2225,24.2051333 C18.2225,23.2228 19.0185,22.4268 19.9998333,22.4268 C20.9821667,22.4268 21.7775,23.2228 21.7775,24.2051333" id="Fill-16" fill="#FFFFFF"></path>
                        <path d="M20.7775,24.2051333 C20.7775,23.7748415 20.4296387,23.4268 19.9998333,23.4268 C19.5707171,23.4268 19.2225,23.7751525 19.2225,24.2051333 C19.2225,24.6345464 19.5711493,24.9834667 19.9998333,24.9834667 C20.4292066,24.9834667 20.7775,24.6348574 20.7775,24.2051333 Z M22.7775,24.2051333 C22.7775,25.7390213 21.5341822,26.9834667 19.9998333,26.9834667 C18.4662318,26.9834667 17.2225,25.7387682 17.2225,24.2051333 C17.2225,22.6707569 18.4659737,21.4268 19.9998333,21.4268 C21.5344402,21.4268 22.7775,22.6705039 22.7775,24.2051333 Z" id="Stroke-18" fill="#FFFFFF" fill-rule="nonzero"></path>
                    </g>
                </g>
            </g>
        </g>
    </g>
</svg>