<?xml version="1.0" encoding="UTF-8"?>
<svg width="121px" height="121px" viewBox="0 0 121 121" version="1.1" xmlns="http://www.w3.org/2000/svg" xmlns:xlink="http://www.w3.org/1999/xlink">
    <!-- Generator: Sketch 45.2 (43514) - http://www.bohemiancoding.com/sketch -->
    <title>icon-crim</title>
    <desc>Created with Sketch.</desc>
    <defs>
        <path d="M100.6773,120.6287 L20.6773,120.6287 C9.6313,120.6287 0.6773,111.6737 0.6773,100.6287 L0.6773,20.6287 C0.6773,9.5827 9.6313,0.6287 20.6773,0.6287 L100.6773,0.6287 C111.7223,0.6287 120.6773,9.5827 120.6773,20.6287 L120.6773,100.6287 C120.6773,111.6737 111.7223,120.6287 100.6773,120.6287" id="path-1"></path>
    </defs>
    <g id="Page-1" stroke="none" stroke-width="1" fill="none" fill-rule="evenodd">
        <g transform="translate(-765.000000, -2.000000)" id="icon-crim">
            <g transform="translate(765.000000, 2.000000)">
                <g id="Fill-30">
                    <mask id="mask-2" fill="white">
                        <use xlink:href="#path-1"></use>
                    </mask>
                    <use id="Mask" fill="#F14F86" xlink:href="#path-1"></use>
                    <path d="M92.3502,162.4905 L26.465332,102.742187 L21.2512,80.4955 C21.2512,80.4955 31.1602,57.3965 31.1802,50.3025 C31.1932,45.9715 46.7132,49.6095 55.3112,45.7565 C58.9822,44.1105 59.7022,31.7015 60.1772,32.1015 C64.4282,31.7625 76.7605703,28.4230547 87.4345703,31.0810547 C98.1085703,33.7390547 100.2592,43.7615 100.2592,43.7615 L142.1622,85.6645 L92.3502,162.4905 Z" fill-opacity="0.09" fill="#000000" mask="url(#mask-2)"></path>
                </g>
                <path d="M75.9468,96.0911 L75.9468,88.0911 C89.3478,88.0911 100.2518,77.5351 100.2518,64.5591 C100.2518,58.6071 97.9258,52.9151 93.7018,48.5311 L92.8868,47.6861 L90.4268,35.2811 L61.4678,35.2811 L59.2348,46.5341 L51.3868,44.9781 L53.6468,33.5881 C54.3718,29.9331 57.6018,27.2811 61.3278,27.2811 L90.5658,27.2811 C94.2908,27.2811 97.5208,29.9331 98.2468,33.5861 L100.2858,43.8671 C105.4318,49.6221 108.2518,56.9241 108.2518,64.5591 C108.2518,81.9461 93.7588,96.0911 75.9468,96.0911" id="Fill-42" fill="#FFFFFF"></path>
                <path d="M68.3912,52.826 C67.3312,52.826 66.3052,52.264 65.7592,51.27 C64.9612,49.818 65.4922,47.994 66.9442,47.196 C69.8332,45.608 73.1142,44.769 76.4292,44.769 C78.0862,44.769 79.4292,46.112 79.4292,47.769 C79.4292,49.426 78.0862,50.769 76.4292,50.769 C74.1202,50.769 71.8402,51.352 69.8322,52.455 C69.3742,52.706 68.8792,52.826 68.3912,52.826" id="Fill-44" fill="#FFFFFF"></path>
                <path d="M87.0513,80.3992 C86.1853,80.3992 85.3263,80.0262 84.7343,79.3062 C83.6803,78.0272 83.8633,76.1362 85.1423,75.0832 C86.5823,73.8972 87.7473,72.4602 88.6063,70.8112 C89.3683,69.3422 91.1803,68.7672 92.6523,69.5352 C94.1213,70.2992 94.6933,72.1112 93.9283,73.5812 C92.6963,75.9492 91.0233,78.0132 88.9563,79.7152 C88.3983,80.1752 87.7223,80.3992 87.0513,80.3992" id="Fill-46" fill="#FFFFFF"></path>
                <path d="M93.147,67.4871 C91.49,67.4871 90.147,66.1441 90.147,64.4871 C90.147,56.9231 83.994,50.7691 76.429,50.7691 C74.772,50.7691 73.429,49.4251 73.429,47.7691 C73.429,46.1121 74.772,44.7691 76.429,44.7691 C87.301,44.7691 96.147,53.6141 96.147,64.4871 C96.147,66.1441 94.804,67.4871 93.147,67.4871" id="Fill-48" fill="#FFFFFF"></path>
                <path d="M35.0767,51.2181 L32.6167,63.6221 L31.8027,64.4681 C27.5777,68.8521 25.2517,74.5441 25.2517,80.4961 C25.2517,93.4711 36.1547,104.0281 49.5567,104.0281 C62.9587,104.0281 73.8617,93.4711 73.8617,80.4961 C73.8617,74.5441 71.5357,68.8511 67.3117,64.4681 L66.4977,63.6231 L64.0367,51.2181 L35.0767,51.2181 Z M49.5567,112.0281 C31.7437,112.0281 17.2517,97.8831 17.2517,80.4961 C17.2517,72.8611 20.0717,65.5591 25.2187,59.8031 L27.2567,49.5241 C27.9827,45.8691 31.2137,43.2181 34.9367,43.2181 L64.1767,43.2181 C67.9017,43.2181 71.1327,45.8701 71.8567,49.5251 L73.8957,59.8031 C79.0417,65.5591 81.8617,72.8601 81.8617,80.4961 C81.8617,97.8831 67.3697,112.0281 49.5567,112.0281 L49.5567,112.0281 Z" id="Fill-50" fill="#FFFFFF"></path>
                <path d="M49.5572,100.3528 C38.6842,100.3528 29.8382,91.5078 29.8382,80.6348 C29.8382,69.7628 38.6842,60.9168 49.5572,60.9168 C51.2142,60.9168 52.5572,62.2598 52.5572,63.9168 C52.5572,65.5738 51.2142,66.9168 49.5572,66.9168 C41.9932,66.9168 35.8382,73.0708 35.8382,80.6348 C35.8382,88.1988 41.9932,94.3528 49.5572,94.3528 C51.2142,94.3528 52.5572,95.6958 52.5572,97.3528 C52.5572,99.0098 51.2142,100.3528 49.5572,100.3528" id="Fill-52" fill="#FFFFFF"></path>
                <path d="M60.1793,96.5471 C59.3133,96.5471 58.4543,96.1741 57.8623,95.4541 C56.8083,94.1751 56.9913,92.2841 58.2703,91.2311 C59.7103,90.0451 60.8753,88.6081 61.7343,86.9591 C62.4973,85.4891 64.3073,84.9151 65.7803,85.6831 C67.2493,86.4471 67.8213,88.2591 67.0563,89.7291 C65.8243,92.0971 64.1513,94.1611 62.0843,95.8631 C61.5263,96.3231 60.8503,96.5471 60.1793,96.5471" id="Fill-54" fill="#FFFFFF"></path>
                <path d="M66.275,83.635 C64.618,83.635 63.275,82.292 63.275,80.635 C63.275,73.071 57.122,66.917 49.557,66.917 C47.9,66.917 46.557,65.573 46.557,63.917 C46.557,62.26 47.9,60.917 49.557,60.917 C60.429,60.917 69.275,69.762 69.275,80.635 C69.275,82.292 67.932,83.635 66.275,83.635" id="Fill-56" fill="#FFFFFF"></path>
                <path d="M50.4009,53.0657 C48.8529,53.0897 47.6179,54.3647 47.6419,55.9117 L47.6419,56.7697 C47.6209,58.3167 48.8569,59.5897 50.4049,59.6117 C51.9519,59.6337 53.2239,58.3967 53.2469,56.8487 L53.2469,56.7697 L53.2469,55.9117 C53.2709,54.3647 52.0359,53.0897 50.4879,53.0657 C50.4589,53.0657 50.4289,53.0657 50.4009,53.0657" id="Fill-58" fill="#FFFFFF"></path>
                <path d="M76.3853,36.6624 C74.8373,36.6864 73.6033,37.9604 73.6263,39.5084 L73.6263,40.3664 C73.6053,41.9134 74.8413,43.1854 76.3893,43.2074 C77.9373,43.2294 79.2093,41.9934 79.2313,40.4454 L79.2313,40.3664 L79.2313,39.5084 C79.2553,37.9604 78.0203,36.6864 76.4733,36.6624 C76.4443,36.6614 76.4143,36.6614 76.3853,36.6624" id="Fill-60" fill="#FFFFFF"></path>
                <path d="M49.3033,41.3216 C48.3823,41.3216 47.6333,42.0716 47.6333,42.9926 C47.6333,43.9136 48.3823,44.6626 49.3033,44.6626 C50.2243,44.6626 50.9743,43.9136 50.9743,42.9926 C50.9743,42.0716 50.2243,41.3216 49.3033,41.3216 M49.3033,50.6626 C45.0743,50.6626 41.6333,47.2216 41.6333,42.9926 C41.6333,38.7626 45.0743,35.3216 49.3033,35.3216 C53.5323,35.3216 56.9743,38.7626 56.9743,42.9926 C56.9743,47.2216 53.5323,50.6626 49.3033,50.6626" id="Fill-62" fill="#FFFFFF"></path>
                <path d="M74.5611,25.7596 C73.6401,25.7596 72.8901,26.5096 72.8901,27.4306 C72.8901,28.3516 73.6401,29.1016 74.5611,29.1016 C75.4821,29.1016 76.2311,28.3516 76.2311,27.4306 C76.2311,26.5096 75.4821,25.7596 74.5611,25.7596 M74.5611,35.1016 C70.3321,35.1016 66.8901,31.6606 66.8901,27.4306 C66.8901,23.2006 70.3321,19.7596 74.5611,19.7596 C78.7901,19.7596 82.2311,23.2006 82.2311,27.4306 C82.2311,31.6606 78.7901,35.1016 74.5611,35.1016" id="Fill-64" fill="#FFFFFF"></path>
                <path d="M48.3697,39.8069 C46.7127,39.8069 45.3697,38.4639 45.3697,36.8069 L45.3697,22.7599 C45.3697,18.3489 48.9587,14.7599 53.3697,14.7599 L69.5607,14.7599 C73.9727,14.7599 77.5607,18.3489 77.5607,22.7599 C77.5607,24.4159 76.2187,25.7599 74.5607,25.7599 C72.9037,25.7599 71.5607,24.4159 71.5607,22.7599 C71.5607,21.6569 70.6637,20.7599 69.5607,20.7599 L53.3697,20.7599 C52.2667,20.7599 51.3697,21.6569 51.3697,22.7599 L51.3697,36.8069 C51.3697,38.4639 50.0267,39.8069 48.3697,39.8069" id="Fill-66" fill="#FFFFFF"></path>
            </g>
        </g>
    </g>
</svg>