<?xml version="1.0" encoding="UTF-8"?>
<svg width="121px" height="120px" viewBox="0 0 121 120" version="1.1" xmlns="http://www.w3.org/2000/svg" xmlns:xlink="http://www.w3.org/1999/xlink">
    <!-- Generator: Sketch 45.2 (43514) - http://www.bohemiancoding.com/sketch -->
    <title>icon3-time</title>
    <desc>Created with Sketch.</desc>
    <defs>
        <path d="M100.2864,119.9996 L20.2864,119.9996 C9.2404,119.9996 0.2864,111.0456 0.2864,99.9996 L0.2864,19.9996 C0.2864,8.9546 9.2404,-0.0004 20.2864,-0.0004 L100.2864,-0.0004 C111.3324,-0.0004 120.2864,8.9546 120.2864,19.9996 L120.2864,99.9996 C120.2864,111.0456 111.3324,119.9996 100.2864,119.9996" id="path-1"></path>
    </defs>
    <g id="Page-1" stroke="none" stroke-width="1" fill="none" fill-rule="evenodd">
        <g id="icon3-time">
            <g id="Fill-39">
                <mask id="mask-2" fill="white">
                    <use xlink:href="#path-1"></use>
                </mask>
                <use id="Mask" fill="#5691CD" xlink:href="#path-1"></use>
                <path d="M167.0315,241.0738 L27.9405,101.9838 L39.8025,95.0848 L38.8025,81.8658 C38.8025,81.8658 55.4695,69.4098 55.4695,59.0848 C55.4695,48.7598 41.1355,37.3978 41.1355,37.3978 L38.8025,20.9848 L97.0245,15.5668 L222.3205,140.8618 L167.0315,241.0738 Z" fill-opacity="0.09" fill="#000000" mask="url(#mask-2)"></path>
            </g>
            <path d="M72.1624,32.0992 L72.1624,30.0642 C72.1624,28.1312 73.7294,26.5642 75.6624,26.5642 C77.5964,26.5642 79.1624,28.1312 79.1624,30.0642 L79.1624,32.0992 C79.1624,34.0322 77.5964,35.5992 75.6624,35.5992 C73.7294,35.5992 72.1624,34.0322 72.1624,32.0992 L72.1624,32.0992 Z M43.1624,84.6082 C43.1624,82.4712 48.7864,77.7572 51.7524,75.2252 C56.5744,71.1082 60.1624,68.1342 60.1624,64.3472 L60.1624,53.8232 C60.1624,50.0362 56.5744,47.0612 51.7524,42.9452 C48.7864,40.4122 43.1624,35.6992 43.1624,33.5612 L43.1624,23.0852 L83.1624,23.0852 L83.1624,33.5612 C83.1624,35.7002 77.5384,40.4122 74.5724,42.9452 C69.7504,47.0612 66.1624,50.0362 66.1624,53.8232 L66.1624,64.3472 C66.1624,68.1342 69.7504,71.1082 74.5724,75.2252 C77.5384,77.7572 83.1624,82.4702 83.1624,84.6082 L83.1624,95.0852 L43.1624,95.0852 L43.1624,84.6082 Z M95.1644,95.0852 L91.1624,95.0852 L91.1624,84.6082 C91.1624,78.7822 85.3174,73.8812 79.7664,69.1412 C77.8374,67.4942 75.1624,65.0512 74.1624,63.9132 L74.1624,54.2572 C75.1624,53.1192 77.8374,50.6762 79.7664,49.0292 C85.3174,44.2892 91.1624,39.3882 91.1624,33.5612 L91.1624,23.0852 L95.1644,23.0852 C97.3734,23.0852 99.1644,21.2942 99.1644,19.0852 C99.1644,16.8762 97.3734,15.0852 95.1644,15.0852 L31.1644,15.0852 C28.9554,15.0852 27.1644,16.8762 27.1644,19.0852 C27.1644,21.2942 28.9554,23.0852 31.1644,23.0852 L35.1624,23.0852 L35.1624,33.5612 C35.1624,39.3882 41.0074,44.2892 46.5584,49.0292 C48.4874,50.6762 51.1624,53.1192 52.1624,54.2572 L52.1624,63.9132 C51.1624,65.0512 48.4874,67.4942 46.5584,69.1412 C41.0074,73.8812 35.1624,78.7822 35.1624,84.6082 L35.1624,95.0852 L31.1644,95.0852 C28.9554,95.0852 27.1644,96.8762 27.1644,99.0852 C27.1644,101.2942 28.9554,103.0852 31.1644,103.0852 L95.1644,103.0852 C97.3734,103.0852 99.1644,101.2942 99.1644,99.0852 C99.1644,96.8762 97.3734,95.0852 95.1644,95.0852 L95.1644,95.0852 Z" id="Fill-41" fill="#FFFFFF"></path>
        </g>
    </g>
</svg>