<?xml version="1.0" encoding="UTF-8"?>
<svg width="121px" height="121px" viewBox="0 0 121 121" version="1.1" xmlns="http://www.w3.org/2000/svg" xmlns:xlink="http://www.w3.org/1999/xlink">
    <!-- Generator: Sketch 45.2 (43514) - http://www.bohemiancoding.com/sketch -->
    <title>icon-address</title>
    <desc>Created with Sketch.</desc>
    <defs>
        <path d="M100.817,120.9197 L20.817,120.9197 C9.771,120.9197 0.817,111.9657 0.817,100.9197 L0.817,20.9197 C0.817,9.8737 9.771,0.9197 20.817,0.9197 L100.817,0.9197 C111.862,0.9197 120.817,9.8737 120.817,20.9197 L120.817,100.9197 C120.817,111.9657 111.862,120.9197 100.817,120.9197" id="path-1"></path>
    </defs>
    <g id="Page-1" stroke="none" stroke-width="1" fill="none" fill-rule="evenodd">
        <g transform="translate(-194.000000, -1.000000)" id="icon-address">
            <g transform="translate(194.000000, 1.000000)">
                <g id="Fill-20">
                    <mask id="mask-2" fill="white">
                        <use xlink:href="#path-1"></use>
                    </mask>
                    <use id="Mask" fill="#F2DA3E" xlink:href="#path-1"></use>
                    <polygon fill-opacity="0.09" fill="#000000" mask="url(#mask-2)" points="160.4566 112.4466 104.7146 181.8536 27.9246 105.0636 27.6976 52.0566 60.8166 21.0016 105.4706 57.4596"></polygon>
                </g>
                <path d="M94.0621,102.9197 L94.0621,63.8337 C94.0621,61.6247 92.2711,59.8337 90.0621,59.8337 C87.8531,59.8337 86.0621,61.6247 86.0621,63.8337 L86.0621,98.9197 L73.5641,98.9197 L73.5641,77.5327 C73.5641,74.6057 71.1821,72.2247 68.2551,72.2247 L53.3761,72.2247 C50.4501,72.2247 48.0691,74.6057 48.0691,77.5327 L48.0691,98.9197 L35.5721,98.9197 L35.5721,63.8337 C35.5721,61.6247 33.7811,59.8337 31.5721,59.8337 C29.3631,59.8337 27.5721,61.6247 27.5721,63.8337 L27.5721,102.9197 C27.5721,105.1287 29.3631,106.9197 31.5721,106.9197 L52.0691,106.9197 C54.2781,106.9197 56.0691,105.1287 56.0691,102.9197 L56.0691,80.2247 L65.5641,80.2247 L65.5641,102.9197 C65.5641,105.1287 67.3551,106.9197 69.5641,106.9197 L90.0621,106.9197 C92.2711,106.9197 94.0621,105.1287 94.0621,102.9197 M102.8161,63.9287 C101.8091,63.9287 100.8001,63.5507 100.0221,62.7907 L60.8171,24.5097 L21.6111,62.7907 C20.0311,64.3357 17.4981,64.3037 15.9551,62.7237 C14.4111,61.1427 14.4421,58.6097 16.0221,57.0667 L58.0231,16.0577 C59.5771,14.5407 62.0581,14.5407 63.6121,16.0577 L105.6111,57.0667 C107.1921,58.6097 107.2221,61.1427 105.6781,62.7237 C104.8951,63.5257 103.8561,63.9287 102.8161,63.9287" id="Fill-68" fill="#FFFFFF"></path>
            </g>
        </g>
    </g>
</svg>