<?xml version="1.0" encoding="UTF-8"?>
<svg width="120px" height="121px" viewBox="0 0 120 121" version="1.1" xmlns="http://www.w3.org/2000/svg" xmlns:xlink="http://www.w3.org/1999/xlink">
    <!-- Generator: Sketch 45.2 (43514) - http://www.bohemiancoding.com/sketch -->
    <title>icon-sol</title>
    <desc>Created with Sketch.</desc>
    <defs>
        <path d="M99.9996,120.3484 L19.9996,120.3484 C8.9546,120.3484 -0.0004,111.3944 -0.0004,100.3484 L-0.0004,20.3484 C-0.0004,9.3024 8.9546,0.3484 19.9996,0.3484 L99.9996,0.3484 C111.0456,0.3484 119.9996,9.3024 119.9996,20.3484 L119.9996,100.3484 C119.9996,111.3944 111.0456,120.3484 99.9996,120.3484" id="path-1"></path>
    </defs>
    <g id="Page-1" stroke="none" stroke-width="1" fill="none" fill-rule="evenodd">
        <g transform="translate(0.000000, -3.000000)" id="icon-sol">
            <g transform="translate(0.000000, 2.854000)">
                <g id="Fill-22">
                    <mask id="mask-2" fill="white">
                        <use xlink:href="#path-1"></use>
                    </mask>
                    <use id="Mask" fill="#FF8848" xlink:href="#path-1"></use>
                    <polygon fill-opacity="0.09" fill="#000000" mask="url(#mask-2)" points="152.0415 75.991 95.0405 148.657 18.2505 71.867 20.9395 50.703 36.7295 48.481 46.8695 53.472 69.5965 38.645 74.5305 19.505 97.0545 21.005"></polygon>
                </g>
                <path d="M33.0884,50.7029 C27.4924,50.7029 22.9404,55.2549 22.9404,60.8489 C22.9404,66.4439 27.4924,70.9949 33.0884,70.9949 C38.6824,70.9949 43.2334,66.4439 43.2334,60.8489 C43.2334,55.2549 38.6824,50.7029 33.0884,50.7029 M33.0884,78.9949 C23.0814,78.9949 14.9404,70.8549 14.9404,60.8489 C14.9404,50.8439 23.0814,42.7029 33.0884,42.7029 C43.0934,42.7029 51.2334,50.8439 51.2334,60.8489 C51.2334,70.8549 43.0934,78.9949 33.0884,78.9949" id="Fill-32" fill="#FFFFFF"></path>
                <path d="M82.9156,22.4051 C77.3206,22.4051 72.7696,26.9561 72.7696,32.5511 C72.7696,38.1491 77.3206,42.7031 82.9156,42.7031 C88.5096,42.7031 93.0606,38.1491 93.0606,32.5511 C93.0606,26.9561 88.5096,22.4051 82.9156,22.4051 M82.9156,50.7031 C72.9096,50.7031 64.7696,42.5601 64.7696,32.5511 C64.7696,22.5451 72.9096,14.4051 82.9156,14.4051 C92.9206,14.4051 101.0606,22.5451 101.0606,32.5511 C101.0606,42.5601 92.9206,50.7031 82.9156,50.7031" id="Fill-34" fill="#FFFFFF"></path>
                <path d="M82.9156,78.9954 C77.3206,78.9954 72.7696,83.5484 72.7696,89.1454 C72.7696,94.7404 77.3206,99.2914 82.9156,99.2914 C88.5096,99.2914 93.0606,94.7404 93.0606,89.1454 C93.0606,83.5484 88.5096,78.9954 82.9156,78.9954 M82.9156,107.2914 C72.9096,107.2914 64.7696,99.1514 64.7696,89.1454 C64.7696,79.1374 72.9096,70.9954 82.9156,70.9954 C92.9206,70.9954 101.0606,79.1374 101.0606,89.1454 C101.0606,99.1514 92.9206,107.2914 82.9156,107.2914" id="Fill-36" fill="#FFFFFF"></path>
                <path d="M45.3912,56.8645 C44.3462,56.8645 43.3322,56.3185 42.7802,55.3455 C41.9612,53.9055 42.4662,52.0735 43.9072,51.2555 L69.1332,36.9285 C70.5752,36.1095 72.4052,36.6145 73.2232,38.0555 C74.0412,39.4955 73.5372,41.3275 72.0962,42.1455 L46.8702,56.4725 C46.4022,56.7385 45.8932,56.8645 45.3912,56.8645" id="Fill-38" fill="#FFFFFF"></path>
                <path d="M70.6119,85.159 C70.1099,85.159 69.6009,85.033 69.1329,84.767 L43.9039,70.443 C42.4639,69.624 41.9589,67.793 42.7769,66.352 C43.5939,64.913 45.4259,64.407 46.8669,65.225 L72.0959,79.55 C73.5369,80.368 74.0419,82.199 73.2229,83.64 C72.6719,84.613 71.6569,85.159 70.6119,85.159" id="Fill-40" fill="#FFFFFF"></path>
            </g>
        </g>
    </g>
</svg>