<?xml version="1.0" encoding="UTF-8"?>
<svg width="120px" height="120px" viewBox="0 0 120 120" version="1.1" xmlns="http://www.w3.org/2000/svg" xmlns:xlink="http://www.w3.org/1999/xlink">
    <!-- Generator: Sketch 45.2 (43514) - http://www.bohemiancoding.com/sketch -->
    <title>icon2-report</title>
    <desc>Created with Sketch.</desc>
    <defs>
        <path d="M100.0002,120.0002 L20.0002,120.0002 C8.9542,120.0002 0.0002,111.0462 0.0002,100.0002 L0.0002,20.0002 C0.0002,8.9542 8.9542,0.0002 20.0002,0.0002 L100.0002,0.0002 C111.0462,0.0002 120.0002,8.9542 120.0002,20.0002 L120.0002,100.0002 C120.0002,111.0462 111.0462,120.0002 100.0002,120.0002" id="path-1"></path>
    </defs>
    <g id="Page-1" stroke="none" stroke-width="1" fill="none" fill-rule="evenodd">
        <g id="icon2-report">
            <g id="Fill-3">
                <mask id="mask-2" fill="white">
                    <use xlink:href="#path-1"></use>
                </mask>
                <use id="Mask" fill="#7664C5" xlink:href="#path-1"></use>
                <polygon fill-opacity="0.109999999" fill="#000000" mask="url(#mask-2)" points="98.1194 176.8298 16.3094 95.0208 15.2724 25.7548 20.2724 20.7548 104.6894 21.6888 173.3694 90.3688"></polygon>
            </g>
            <path d="M74.4338,63.4504 C74.3328,63.4504 74.2368,63.4984 74.1768,63.5814 L70.6498,68.4644 C70.5698,68.5754 70.5598,68.7234 70.6258,68.8024 C73.3888,72.0514 73.9658,76.1074 72.2498,80.2214 C72.2238,80.2824 71.0438,83.0344 70.3498,85.8054 C70.0198,87.1234 69.6228,89.5854 70.6818,91.2594 C71.8338,93.0814 78.1978,96.5194 81.6168,98.3664 C83.2458,99.2464 84.6558,100.0084 85.7338,100.6604 C86.9968,99.8474 88.7348,98.8694 90.7388,97.7424 C94.3538,95.7084 99.3048,92.9224 101.0978,91.1294 C101.8188,90.4084 101.8818,88.5524 101.2728,86.0354 C100.5878,83.1864 99.3438,80.2844 99.3308,80.2554 C99.3278,80.2444 99.3218,80.2314 99.3168,80.2204 C97.6028,76.1064 98.1798,72.0504 100.9438,68.8014 C101.0088,68.7234 100.9988,68.5754 100.9188,68.4644 L97.3928,63.5814 C97.3218,63.4814 97.1978,63.4334 97.0758,63.4564 L93.2008,64.2354 C88.2788,65.2234 83.2878,65.2224 78.3688,64.2354 L74.4958,63.4564 C74.4748,63.4524 74.4548,63.4504 74.4338,63.4504 M85.7508,106.6904 C84.6888,106.6904 83.6218,106.3984 82.6588,105.8124 C81.7058,105.2344 80.2778,104.4624 78.7648,103.6444 C72.4398,100.2274 67.4548,97.3824 65.6118,94.4664 C63.9158,91.7864 63.5418,88.2864 64.5298,84.3464 C65.3458,81.0894 66.6718,78.0064 66.7278,77.8764 C67.5498,75.9034 67.3348,74.1944 66.0548,72.6884 C64.1898,70.4934 64.0798,67.3124 65.7868,64.9504 L69.3138,60.0674 C70.7608,58.0654 73.2628,57.0904 75.6788,57.5744 L79.5498,58.3524 C83.6868,59.1844 87.8818,59.1844 92.0188,58.3524 L95.8928,57.5744 C98.3108,57.0874 100.8118,58.0654 102.2578,60.0694 L105.7838,64.9504 C107.4888,67.3114 107.3788,70.4934 105.5148,72.6864 C104.2368,74.1904 104.0188,75.8954 104.8498,77.8984 C104.9868,78.2174 106.3238,81.3744 107.1058,84.6294 C108.2658,89.4244 107.6728,93.0404 105.3398,95.3724 C102.9648,97.7474 98.0328,100.5224 93.6808,102.9714 C91.7988,104.0304 90.0218,105.0304 88.9098,105.7514 C87.9448,106.3774 86.8508,106.6904 85.7508,106.6904" id="Fill-6" fill="#FFFFFF"></path>
            <path d="M85.841,75.6936 C82.326,75.6936 79.467,78.5526 79.467,82.0676 C79.467,85.5826 82.326,88.4416 85.841,88.4416 C89.356,88.4416 92.215,85.5826 92.215,82.0676 C92.215,78.5526 89.356,75.6936 85.841,75.6936 M85.841,93.6936 C79.431,93.6936 74.215,88.4786 74.215,82.0676 C74.215,75.6566 79.431,70.4416 85.841,70.4416 C92.251,70.4416 97.467,75.6566 97.467,82.0676 C97.467,88.4786 92.251,93.6936 85.841,93.6936" id="Fill-8" fill="#FFFFFF"></path>
            <path d="M89.5969,39.5476 L62.9649,39.5476 C61.3079,39.5476 59.9649,38.2046 59.9649,36.5476 C59.9649,34.8906 61.3079,33.5476 62.9649,33.5476 L89.5969,33.5476 C91.2539,33.5476 92.5969,34.8906 92.5969,36.5476 C92.5969,38.2046 91.2539,39.5476 89.5969,39.5476" id="Fill-10" fill="#FFFFFF"></path>
            <path d="M82.841,51.4988 L62.965,51.4988 C61.308,51.4988 59.965,50.1558 59.965,48.4988 C59.965,46.8418 61.308,45.4988 62.965,45.4988 L82.841,45.4988 C84.498,45.4988 85.841,46.8418 85.841,48.4988 C85.841,50.1558 84.498,51.4988 82.841,51.4988" id="Fill-12" fill="#FFFFFF"></path>
            <path d="M49.0383,81.4548 L27.1623,81.4548 C25.5053,81.4548 24.1623,80.1118 24.1623,78.4548 C24.1623,76.7978 25.5053,75.4548 27.1623,75.4548 L49.0383,75.4548 C50.6953,75.4548 52.0383,76.7978 52.0383,78.4548 C52.0383,80.1118 50.6953,81.4548 49.0383,81.4548" id="Fill-14" fill="#FFFFFF"></path>
            <path d="M41.7307,38.4128 C39.6957,38.4128 38.0397,40.0688 38.0397,42.1048 C38.0397,44.1418 39.6957,45.7978 41.7307,45.7978 C43.7667,45.7978 45.4227,44.1418 45.4227,42.1048 C45.4227,40.0688 43.7667,38.4128 41.7307,38.4128 M41.7307,51.7978 C36.3867,51.7978 32.0397,47.4498 32.0397,42.1048 C32.0397,36.7608 36.3867,32.4128 41.7307,32.4128 C47.0757,32.4128 51.4227,36.7608 51.4227,42.1048 C51.4227,47.4498 47.0757,51.7978 41.7307,51.7978" id="Fill-16" fill="#FFFFFF"></path>
            <path d="M31.0735,62.8049 L52.3885,62.8049 C51.1725,60.7729 48.9965,59.1569 47.5225,58.3509 C47.3035,58.2299 47.0395,58.2269 46.8115,58.3389 C46.0115,58.7289 45.2855,59.1239 44.6535,59.5129 C42.8525,60.6229 40.6105,60.6229 38.8075,59.5119 C38.1775,59.1239 37.4505,58.7289 36.6505,58.3379 C36.4235,58.2289 36.1595,58.2319 35.9405,58.3499 C34.4665,59.1569 32.2915,60.7729 31.0735,62.8049 M56.3005,68.8049 L27.1625,68.8049 C25.5055,68.8049 24.1625,67.4619 24.1625,65.8049 C24.1625,60.0159 28.7595,55.4389 33.0605,53.0859 C34.9815,52.0359 37.3065,51.9839 39.2795,52.9449 C40.1665,53.3779 40.9895,53.8219 41.7315,54.2679 C42.4725,53.8219 43.2965,53.3779 44.1825,52.9459 C46.1575,51.9819 48.4825,52.0359 50.4025,53.0869 C54.7035,55.4389 59.3005,60.0159 59.3005,65.8049 C59.3005,67.4619 57.9575,68.8049 56.3005,68.8049" id="Fill-18" fill="#FFFFFF"></path>
            <path d="M70.7424,96.6589 L21.3094,96.6589 C16.3464,96.6589 12.3094,92.6209 12.3094,87.6589 L12.3094,27.3159 C12.3094,22.3529 16.3464,18.3159 21.3094,18.3159 L97.3094,18.3159 C102.2724,18.3159 106.3094,22.3529 106.3094,27.3159 L106.3094,67.3139 C106.3094,69.5229 104.5184,66.5619 102.3094,66.5619 C100.1004,66.5619 98.3094,64.7709 98.3094,62.5619 L98.3094,27.3159 C98.3094,26.7639 97.8614,26.3159 97.3094,26.3159 L21.3094,26.3159 C20.7584,26.3159 20.3094,26.7639 20.3094,27.3159 L20.3094,87.6589 C20.3094,88.2099 20.7584,88.6589 21.3094,88.6589 L65.1504,88.6589 C67.3594,88.6589 69.1504,90.4499 69.1504,92.6589 C69.1504,94.8679 72.9514,96.6589 70.7424,96.6589" id="Fill-20" fill="#FFFFFF"></path>
        </g>
    </g>
</svg>