<?xml version="1.0" encoding="UTF-8"?>
<svg width="105px" height="107px" viewBox="0 0 105 107" version="1.1" xmlns="http://www.w3.org/2000/svg" xmlns:xlink="http://www.w3.org/1999/xlink">
    <!-- Generator: Sketch 46.2 (44496) - http://www.bohemiancoding.com/sketch -->
    <title>Misc-Bg</title>
    <desc>Created with Sketch.</desc>
    <defs></defs>
    <g id="Page-1" stroke="none" stroke-width="1" fill="none" fill-rule="evenodd">
        <g id="TF-Modal-BV-Step1D" transform="translate(-959.000000, -456.000000)" fill="#81B44C">
            <g id="Cards" transform="translate(435.000000, 363.000000)">
                <g id="Fill-4-+-Fill-7-Mask">
                    <g id="Misc-Bg" transform="translate(523.000000, 93.000000)">
                        <g id="Fill-3" transform="translate(1.000000, 3.000000)" fill-opacity="0.124462183">
                            <path d="M109.1322,191.9609 L0.5012,83.3299 L35.8802,47.9509 C35.8802,47.9509 17.0192,22.7229 38.5192,7.9189 C60.0192,-6.8861 75.0542,4.8509 75.0542,4.8509 L183.6862,113.4819 L109.1322,191.9609 Z"></path>
                        </g>
                        <path d="M64.2113,39.7329 C64.9473,40.4679 65.3753,41.4929 65.3753,42.5369 C65.3753,43.5909 64.9473,44.6149 64.2113,45.3509 C63.4763,46.0969 62.4413,46.5139 61.3983,46.5139 C60.3543,46.5139 59.3303,46.0969 58.5843,45.3509 C57.8493,44.6149 57.4213,43.5909 57.4213,42.5369 C57.4213,41.4929 57.8493,40.4679 58.5843,39.7329 C59.3303,38.9869 60.3543,38.5599 61.3983,38.5599 C62.4413,38.5599 63.4763,38.9869 64.2113,39.7329 M71.5383,32.1019 C71.3063,33.8509 69.8123,35.1229 68.0943,35.1229 C67.9403,35.1229 67.7853,35.1129 67.6303,35.0919 C65.7253,34.8379 64.3863,33.0869 64.6403,31.1819 C65.3343,25.9739 59.5293,23.2519 59.2813,23.1389 C57.5423,22.3409 56.7623,20.2849 57.5483,18.5399 C58.3343,16.7949 60.3723,16.0099 62.1213,16.7839 C62.5643,16.9799 72.9253,21.7019 71.5383,32.1019 M56.0203,55.1259 C43.3333,55.1259 33.0123,44.6339 33.0123,31.7379 C33.0123,18.8429 43.3333,8.3509 56.0203,8.3509 C68.7053,8.3509 79.0253,18.8429 79.0253,31.7379 C79.0253,44.6339 68.7053,55.1259 56.0203,55.1259 M56.0203,0.3969 C38.9473,0.3969 25.0593,14.4559 25.0593,31.7379 C25.0593,38.9999 27.5173,45.6869 31.6273,51.0059 L2.2683,80.7799 C0.5333,82.5399 0.5533,85.3729 2.3123,87.1079 C3.1843,87.9679 4.3183,88.3969 5.4533,88.3969 C6.6083,88.3969 7.7643,87.9519 8.6393,87.0639 L38.0503,57.2369 C43.1213,60.9099 49.3223,63.0809 56.0203,63.0809 C73.0913,63.0809 86.9803,49.0209 86.9803,31.7379 C86.9803,14.4559 73.0913,0.3969 56.0203,0.3969" id="Fill-6"></path>
                    </g>
                </g>
            </g>
        </g>
    </g>
</svg>