<?xml version="1.0" encoding="UTF-8"?>
<svg width="60px" height="60px" viewBox="0 0 60 60" version="1.1" xmlns="http://www.w3.org/2000/svg" xmlns:xlink="http://www.w3.org/1999/xlink">
    <!-- Generator: Sketch 45.2 (43514) - http://www.bohemiancoding.com/sketch -->
    <title>Misc-Grey</title>
    <desc>Created with Sketch.</desc>
    <defs>
        <path d="M50.00015,60.00025 L10.00015,60.00025 C4.47715,60.00025 0.00015,55.52275 0.00015,50.00025 L0.00015,10.00025 C0.00015,4.47725 4.47715,0.00025 10.00015,0.00025 L50.00015,0.00025 C55.52265,0.00025 60.00015,4.47725 60.00015,10.00025 L60.00015,50.00025 C60.00015,55.52275 55.52265,60.00025 50.00015,60.00025" id="path-1"></path>
    </defs>
    <g id="Page-1" stroke="none" stroke-width="1" fill="none" fill-rule="evenodd">
        <g id="Misc-Grey">
            <g id="Fill-3">
                <mask id="mask-2" fill="white">
                    <use xlink:href="#path-1"></use>
                </mask>
                <use id="Mask" fill="#B7B2B9" xlink:href="#path-1"></use>
                <path d="M61.5661,104.48045 L7.2506,50.16495 L24.9401,32.47545 C24.9401,32.47545 15.5096,19.86145 26.2596,12.45945 C37.0096,5.05695 44.5271,10.92545 44.5271,10.92545 L98.8431,65.24095 L61.5661,104.48045 Z" fill-opacity="0.088060462" fill="#000000" mask="url(#mask-2)"></path>
            </g>
            <path d="M38.60565,26.86645 C38.97365,27.23395 39.18765,27.74645 39.18765,28.26845 C39.18765,28.79545 38.97365,29.30745 38.60565,29.67545 C38.23815,30.04845 37.72065,30.25695 37.19915,30.25695 C36.67715,30.25695 36.16515,30.04845 35.79215,29.67545 C35.42465,29.30745 35.21065,28.79545 35.21065,28.26845 C35.21065,27.74645 35.42465,27.23395 35.79215,26.86645 C36.16515,26.49345 36.67715,26.27995 37.19915,26.27995 C37.72065,26.27995 38.23815,26.49345 38.60565,26.86645 M42.26915,23.05095 C42.15315,23.92545 41.40615,24.56145 40.54715,24.56145 C40.47015,24.56145 40.39265,24.55645 40.31515,24.54595 C39.36265,24.41895 38.69315,23.54345 38.82015,22.59095 C39.16715,19.98695 36.26465,18.62595 36.14065,18.56945 C35.27115,18.17045 34.88115,17.14245 35.27415,16.26995 C35.66715,15.39745 36.68615,15.00495 37.56065,15.39195 C37.78215,15.48995 42.96265,17.85095 42.26915,23.05095 M34.51015,34.56295 C28.16665,34.56295 23.00615,29.31695 23.00615,22.86895 C23.00615,16.42145 28.16665,11.17545 34.51015,11.17545 C40.85265,11.17545 46.01265,16.42145 46.01265,22.86895 C46.01265,29.31695 40.85265,34.56295 34.51015,34.56295 M34.51015,7.19845 C25.97365,7.19845 19.02965,14.22795 19.02965,22.86895 C19.02965,26.49995 20.25865,29.84345 22.31365,32.50295 L7.63415,47.38995 C6.76665,48.26995 6.77665,49.68645 7.65615,50.55395 C8.09215,50.98395 8.65915,51.19845 9.22665,51.19845 C9.80415,51.19845 10.38215,50.97595 10.81965,50.53195 L25.52515,35.61845 C28.06065,37.45495 31.16115,38.54045 34.51015,38.54045 C43.04565,38.54045 49.99015,31.51045 49.99015,22.86895 C49.99015,14.22795 43.04565,7.19845 34.51015,7.19845" id="Fill-6" fill="#FFFFFF"></path>
        </g>
    </g>
</svg>