<?xml version="1.0" encoding="UTF-8"?>
<svg width="36px" height="36px" viewBox="0 0 36 36" version="1.1" xmlns="http://www.w3.org/2000/svg" xmlns:xlink="http://www.w3.org/1999/xlink">
    <!-- Generator: Sketch 43.2 (39069) - http://www.bohemiancoding.com/sketch -->
    <title>QuoteIcon</title>
    <desc>Created with Sketch.</desc>
    <defs></defs>
    <g id="Page-1" stroke="none" stroke-width="1" fill="none" fill-rule="evenodd">
        <g id="Testimonials-Desktop-4" transform="translate(-276.000000, -571.000000)">
            <g id="QuoteIcon" transform="translate(276.000000, 571.000000)">
                <path d="M36,2.25 C36,1.0074375 34.9925625,0 33.75,0 L2.25,0 C1.0074375,0 0,1.0074375 0,2.25 L0,24.75 C0,25.9925625 1.0074375,27 2.25,27 L9,27 L9,36 L18,27 L33.75,27 C34.9925625,27 36,25.9925625 36,24.75 L36,2.25 Z" id="Fill-2854" fill="#353167"></path>
                <path d="M2.25,0 C1.0074375,0 0,1.0074375 0,2.25 L0,24.75 C0,25.2376875 0.1591875,25.686 0.4224375,26.053875 L26.4763125,0 L2.25,0 Z" id="Fill-2855" fill="#4A3B8F"></path>
                <path d="M15.10515,7.90081875 C12.7314,8.62306875 11.492775,10.2233812 11.5957125,12.4936312 C13.092525,12.9065062 14.5375875,14.1451312 14.5375875,16.0030687 L14.5375875,16.4159437 C14.5375875,18.3768187 13.144275,19.8736312 11.02815,19.8736312 C8.7573375,19.8736312 7.312275,18.1191937 7.312275,15.3320062 L7.312275,14.8161937 C7.312275,11.3067562 8.241525,8.88125625 9.893025,7.28150625 C11.2345875,5.88819375 13.2472125,5.06244375 14.744025,5.06244375 C15.8274,5.06244375 16.343775,5.68175625 16.343775,6.50750625 C16.343775,7.22975625 15.8274,7.69438125 15.10515,7.90081875" id="Fill-2856" fill="#FFFFFF"></path>
                <path d="M28.0114313,7.90081875 C25.6376813,8.62306875 24.3990563,10.2233812 24.5019938,12.4936312 C25.9988063,12.9065062 27.4438688,14.1451312 27.4438688,16.0030687 L27.4438688,16.4159437 C27.4438688,18.3768187 26.0499938,19.8736312 23.9344313,19.8736312 C21.6636188,19.8736312 20.2185563,18.1191937 20.2185563,15.3320062 L20.2185563,14.8161937 C20.2185563,11.3067562 21.1478063,8.88125625 22.7993063,7.28150625 C24.1408688,5.88819375 26.1534938,5.06244375 27.6503063,5.06244375 C28.7336813,5.06244375 29.2500563,5.68175625 29.2500563,6.50750625 C29.2500563,7.22975625 28.7336813,7.69438125 28.0114313,7.90081875" id="Fill-2857" fill="#FFFFFF"></path>
            </g>
        </g>
    </g>
</svg>