<?xml version="1.0" encoding="UTF-8"?>
<svg width="60px" height="60px" viewBox="0 0 60 60" version="1.1" xmlns="http://www.w3.org/2000/svg" xmlns:xlink="http://www.w3.org/1999/xlink">
    <!-- Generator: Sketch 45.2 (43514) - http://www.bohemiancoding.com/sketch -->
    <title>Relatives-Color</title>
    <desc>Created with Sketch.</desc>
    <defs>
        <path d="M50.00005,60.0001 L10.00005,60.0001 C4.47705,60.0001 5e-05,55.5226 5e-05,50.0001 L5e-05,10.0001 C5e-05,4.4771 4.47705,0.0001 10.00005,0.0001 L50.00005,0.0001 C55.52305,0.0001 60.00005,4.4771 60.00005,10.0001 L60.00005,50.0001 C60.00005,55.5226 55.52305,60.0001 50.00005,60.0001" id="path-1"></path>
    </defs>
    <g id="Page-1" stroke="none" stroke-width="1" fill="none" fill-rule="evenodd">
        <g id="Relatives-Color">
            <g id="Fill-3">
                <mask id="mask-2" fill="white">
                    <use xlink:href="#path-1"></use>
                </mask>
                <use id="Mask" fill="#F2DA3E" xlink:href="#path-1"></use>
                <path d="M60.7447,105.98205 L5.3457,51.00005 L14.2217,44.05405 L22.9872,43.05255 L29.0932,37.45905 L30.0002,26.59205 C30.0002,26.59205 21.0737,29.00555 21.0842,25.45855 C21.0927,22.36905 24.6437,22.08655 26.4682,18.08405 C27.9667,14.79705 27.6997,7.33305 28.4937,8.00005 C32.0797,7.71405 34.4482,7.71405 34.4482,7.71405 L88.7637,62.02955 L60.7447,105.98205 Z" fill-opacity="0.09" fill="#000000" mask="url(#mask-2)"></path>
                <circle id="Oval" fill-opacity="0.09" fill="#000000" mask="url(#mask-2)" cx="17.25" cy="35.75" r="3.75"></circle>
            </g>
            <path d="M30.00005,9.4642 C31.32705,9.4642 32.40655,10.5437 32.40655,11.8707 C32.40655,13.1982 31.32705,14.2777 30.00005,14.2777 C28.67305,14.2777 27.59355,13.1982 27.59355,11.8707 C27.59355,10.5437 28.67305,9.4642 30.00005,9.4642 M30.00005,17.7777 C33.25705,17.7777 35.90655,15.1282 35.90655,11.8707 C35.90655,8.6137 33.25705,5.9642 30.00005,5.9642 C26.74305,5.9642 24.09355,8.6137 24.09355,11.8707 C24.09355,15.1282 26.74305,17.7777 30.00005,17.7777" id="Fill-6" fill="#FFFFFF"></path>
            <path d="M16.5611,33.23885 C17.8881,33.23885 18.9676,34.31835 18.9676,35.64535 C18.9676,36.97285 17.8881,38.05235 16.5611,38.05235 C15.2341,38.05235 14.1546,36.97285 14.1546,35.64535 C14.1546,34.31835 15.2341,33.23885 16.5611,33.23885 M16.5611,41.55235 C19.8181,41.55235 22.4676,38.90285 22.4676,35.64535 C22.4676,32.38835 19.8181,29.73885 16.5611,29.73885 C13.3041,29.73885 10.6546,32.38835 10.6546,35.64535 C10.6546,38.90285 13.3041,41.55235 16.5611,41.55235" id="Fill-8" fill="#FFFFFF"></path>
            <path d="M43.4356,33.23885 C44.7626,33.23885 45.8421,34.31835 45.8421,35.64535 C45.8421,36.97285 44.7626,38.05235 43.4356,38.05235 C42.1086,38.05235 41.0291,36.97285 41.0291,35.64535 C41.0291,34.31835 42.1086,33.23885 43.4356,33.23885 M37.5291,35.64535 C37.5291,38.90285 40.1786,41.55235 43.4356,41.55235 C46.6926,41.55235 49.3421,38.90285 49.3421,35.64535 C49.3421,32.38835 46.6926,29.73885 43.4356,29.73885 C40.1786,29.73885 37.5291,32.38835 37.5291,35.64535" id="Fill-10" fill="#FFFFFF"></path>
            <path d="M36.62115,48.61655 C37.36815,47.25205 38.81565,46.16605 39.78415,45.63655 C39.95065,45.54605 40.15315,45.54155 40.32965,45.62705 C40.83065,45.87105 41.28465,46.11805 41.67965,46.36155 C42.76315,47.02855 44.10915,47.02805 45.19165,46.36155 C45.58715,46.11755 46.04165,45.87055 46.54165,45.62705 C46.71665,45.54205 46.92065,45.54605 47.08765,45.63705 C48.05515,46.16655 49.50265,47.25205 50.24965,48.61655 L36.62115,48.61655 Z M9.74715,48.61655 C10.49415,47.25205 11.94165,46.16605 12.91015,45.63655 C13.07665,45.54505 13.28065,45.54205 13.45515,45.62705 C13.95515,45.87055 14.40965,46.11755 14.80465,46.36105 C15.88715,47.02805 17.23315,47.02855 18.31865,46.36105 C18.71215,46.11805 19.16615,45.87105 19.66715,45.62705 C19.84215,45.54155 20.04515,45.54505 20.21315,45.63705 C21.18115,46.16655 22.62865,47.25205 23.37565,48.61655 L9.74715,48.61655 Z M26.34765,21.86255 C26.51465,21.77055 26.71915,21.76755 26.89415,21.85205 C27.39415,22.09605 27.84865,22.34305 28.24365,22.58655 C29.32815,23.25405 30.67315,23.25355 31.75615,22.58655 C32.15165,22.34305 32.60615,22.09605 33.10615,21.85205 C33.28115,21.76705 33.48565,21.77105 33.65165,21.86205 C34.61965,22.39155 36.06765,23.47755 36.81465,24.84205 L23.18565,24.84205 C23.93265,23.47755 25.38015,22.39155 26.34765,21.86255 L26.34765,21.86255 Z M48.76715,42.56605 C47.60665,41.93055 46.20015,41.89905 45.00815,42.48105 C44.43765,42.75905 43.90915,43.04505 43.43565,43.33305 C42.96365,43.04555 42.43515,42.75955 41.86265,42.48105 C40.76015,41.94355 39.48015,41.93655 38.37565,42.43855 C38.30515,42.28255 38.21265,42.13455 38.08615,42.00505 L31.50015,35.25705 L31.50015,28.34205 L39.04915,28.34205 C40.01565,28.34205 40.79915,27.55855 40.79915,26.59205 C40.79915,23.04555 37.97465,20.23705 35.33115,18.79155 C34.17015,18.15655 32.76465,18.12455 31.57265,18.70605 C31.00215,18.98405 30.47365,19.27055 30.00015,19.55805 C29.52715,19.27055 28.99815,18.98405 28.42715,18.70605 C27.23565,18.12505 25.83065,18.15655 24.66865,18.79155 C22.02515,20.23755 19.20065,23.04605 19.20065,26.59205 C19.20065,27.55855 19.98465,28.34205 20.95065,28.34205 L28.50015,28.34205 L28.50015,35.25705 L21.91415,42.00505 C21.78765,42.13455 21.69415,42.28305 21.62415,42.43955 C20.51965,41.93655 19.23665,41.94255 18.13365,42.48105 C17.56165,42.75955 17.03265,43.04605 16.56115,43.33255 C16.08815,43.04505 15.55965,42.75905 14.98815,42.48105 C13.79565,41.89905 12.39015,41.93105 11.23065,42.56605 C8.58715,44.01155 5.76215,46.81955 5.76215,50.36655 C5.76215,51.33305 6.54615,52.11655 7.51215,52.11655 L25.61065,52.11655 C26.57665,52.11655 27.36065,51.33305 27.36065,50.36655 C27.36065,47.80855 25.88915,45.63805 24.07765,44.08255 L30.00015,38.01505 L35.92065,44.08105 C34.10915,45.63655 32.63615,47.80755 32.63615,50.36655 C32.63615,51.33305 33.42015,52.11655 34.38615,52.11655 L52.48465,52.11655 C53.45065,52.11655 54.23465,51.33305 54.23465,50.36655 C54.23465,46.81955 51.40965,44.01155 48.76715,42.56605 L48.76715,42.56605 Z" id="Fill-12" fill="#FFFFFF"></path>
        </g>
    </g>
</svg>