<?xml version="1.0" encoding="UTF-8"?>
<svg width="110px" height="108px" viewBox="0 0 110 108" version="1.1" xmlns="http://www.w3.org/2000/svg" xmlns:xlink="http://www.w3.org/1999/xlink">
    <!-- Generator: Sketch 46.2 (44496) - http://www.bohemiancoding.com/sketch -->
    <title>Relatives-Bg</title>
    <desc>Created with Sketch.</desc>
    <defs></defs>
    <g id="Page-1" stroke="none" stroke-width="1" fill="none" fill-rule="evenodd">
        <g id="TF-Modal-BV-Step1B" transform="translate(-954.000000, -455.000000)">
            <g id="Cards" transform="translate(435.000000, 363.000000)">
                <g id="Fill-4-+-Fill-7-Mask">
                    <g id="Relatives-Bg" transform="translate(519.000000, 92.000000)">
                        <g id="Fill-3" transform="translate(0.000000, 2.656794)">
                            <path d="M98.221245,175.411791 L0.0219209428,77.6457843 L15.7553674,65.2947843 L31.2929435,63.5139714 L42.1163351,53.5679134 L43.7240678,34.2448041 C43.7240678,34.2448041 27.9011059,38.5363588 27.9197181,32.229276 C27.934785,26.7356949 34.2292271,26.2333687 37.4633048,19.1163406 C40.1195204,13.2715757 39.6462407,-0.000503807947 41.0536716,1.18551937 C47.4101541,0.676969702 51.6085169,0.676969702 51.6085169,0.676969702 L147.887247,97.2578422 L98.221245,175.411791 Z" fill-opacity="0.107478487" fill="#F2DA3E"></path>
                            <ellipse id="Oval" fill="#FEFBEB" cx="21.1232804" cy="50.5289735" rx="6.64718615" ry="6.66804636"></ellipse>
                        </g>
                        <g id="Group" fill="#F2DA3E">
                            <path d="M43.723802,6.44578529 C46.0760196,6.44578529 47.9895229,8.36529357 47.9895229,10.7248929 C47.9895229,13.0853813 46.0760196,15.0048896 43.723802,15.0048896 C41.3715843,15.0048896 39.458081,13.0853813 39.458081,10.7248929 C39.458081,8.36529357 41.3715843,6.44578529 43.723802,6.44578529 M43.723802,21.2283995 C49.4971047,21.2283995 54.1935633,16.5172025 54.1935633,10.7248929 C54.1935633,4.93347238 49.4971047,0.22227536 43.723802,0.22227536 C37.9504992,0.22227536 33.2540406,4.93347238 33.2540406,10.7248929 C33.2540406,16.5172025 37.9504992,21.2283995 43.723802,21.2283995" id="Fill-6"></path>
                            <path d="M19.902148,48.7205769 C22.2543656,48.7205769 24.1678689,50.6400851 24.1678689,52.9996845 C24.1678689,55.3601729 22.2543656,57.2796812 19.902148,57.2796812 C17.5499304,57.2796812 15.6364271,55.3601729 15.6364271,52.9996845 C15.6364271,50.6400851 17.5499304,48.7205769 19.902148,48.7205769 M19.902148,63.5031911 C25.6754508,63.5031911 30.3719093,58.7919941 30.3719093,52.9996845 C30.3719093,47.2082639 25.6754508,42.4970669 19.902148,42.4970669 C14.1288453,42.4970669 9.43238669,47.2082639 9.43238669,52.9996845 C9.43238669,58.7919941 14.1288453,63.5031911 19.902148,63.5031911" id="Fill-8"></path>
                            <path d="M67.5394291,48.7205769 C69.8916467,48.7205769 71.80515,50.6400851 71.80515,52.9996845 C71.80515,55.3601729 69.8916467,57.2796812 67.5394291,57.2796812 C65.1872115,57.2796812 63.2737082,55.3601729 63.2737082,52.9996845 C63.2737082,50.6400851 65.1872115,48.7205769 67.5394291,48.7205769 M57.0696678,52.9996845 C57.0696678,58.7919941 61.7661264,63.5031911 67.5394291,63.5031911 C73.3127319,63.5031911 78.0091904,58.7919941 78.0091904,52.9996845 C78.0091904,47.2082639 73.3127319,42.4970669 67.5394291,42.4970669 C61.7661264,42.4970669 57.0696678,47.2082639 57.0696678,52.9996845" id="Fill-10"></path>
                            <path d="M55.4602511,76.0643679 C56.7843706,73.6380881 59.3501844,71.7070219 61.066931,70.7654937 C61.3620661,70.6045716 61.7210141,70.5965699 62.033875,70.7486014 C62.9219391,71.1824689 63.7266918,71.6216709 64.426862,72.0546494 C66.3474557,73.2406725 68.7333524,73.2397835 70.6521734,72.0546494 C71.35323,71.6207818 72.158869,71.1815798 73.0451605,70.7486014 C73.3553625,70.597459 73.7169694,70.6045716 74.0129908,70.7663828 C75.7279648,71.707911 78.2937786,73.6380881 79.6178981,76.0643679 L55.4602511,76.0643679 Z M7.82385627,76.0643679 C9.14797575,73.6380881 11.7137896,71.7070219 13.4305362,70.7654937 C13.7256713,70.6027934 14.0872782,70.597459 14.3965939,70.7486014 C15.2828854,71.1815798 16.0885244,71.6207818 16.7886947,72.0537603 C18.7075157,73.2397835 21.0934124,73.2406725 23.0175512,72.0537603 C23.7150626,71.6216709 24.5198153,71.1824689 25.4078794,70.7486014 C25.7180814,70.5965699 26.0779157,70.6027934 26.3757097,70.7663828 C28.09157,71.707911 30.6573838,73.6380881 31.9815033,76.0643679 L7.82385627,76.0643679 Z M37.2496199,28.491858 C37.5456413,28.3282686 37.9081345,28.3229341 38.2183365,28.4731874 C39.104628,28.907055 39.9102669,29.346257 40.6104372,29.7792355 C42.5328035,30.9661477 44.9169276,30.9652586 46.8366349,29.7792355 C47.5376915,29.346257 48.3433304,28.907055 49.2296219,28.4731874 C49.5398239,28.3220451 49.9023172,28.3291576 50.1965659,28.4909689 C51.9124263,29.432497 54.4791264,31.3635633 55.8032459,33.7898431 L31.6447125,33.7898431 C32.968832,31.3635633 35.5346459,29.432497 37.2496199,28.491858 L37.2496199,28.491858 Z M76.9900439,65.3056974 C74.9329613,64.1756858 72.4398234,64.1196742 70.3269045,65.154555 C69.3156459,65.6488795 68.3788358,66.1574292 67.5395177,66.6695351 C66.7028586,66.1583182 65.7660485,65.6497686 64.7512447,65.154555 C62.796972,64.1988017 60.5280658,64.1863547 58.5702479,65.0789838 C58.4452808,64.8015931 58.2813169,64.5384275 58.0570851,64.3081576 L46.3828537,52.3092305 L46.3828537,40.013353 L59.7640825,40.013353 C61.477284,40.013353 62.8661027,38.6201759 62.8661027,36.901598 C62.8661027,30.5954043 57.8594421,25.6014821 53.173619,23.0311725 C51.1156502,21.90205 48.6242848,21.8451494 46.5113659,22.8791411 C45.5001073,23.3734656 44.5632972,23.8829043 43.7239792,24.3941212 C42.8855475,23.8829043 41.9478511,23.3734656 40.9357062,22.8791411 C38.8236736,21.8460384 36.3331945,21.90205 34.2734531,23.0311725 C29.58763,25.6023712 24.5809694,30.5962934 24.5809694,36.901598 C24.5809694,38.6201759 25.9706744,40.013353 27.6829896,40.013353 L41.0651048,40.013353 L41.0651048,52.3092305 L29.3908733,64.3081576 C29.1666415,64.5384275 29.000905,64.8024821 28.8768242,65.0807619 C26.9190063,64.1863547 24.6447824,64.1970235 22.6896234,65.154555 C21.6757059,65.6497686 20.7380095,66.1592073 19.9022366,66.6686461 C19.0638049,66.1574292 18.1269948,65.6488795 17.1139636,65.154555 C15.0001584,64.1196742 12.5087931,64.1765749 10.4534831,65.3056974 C5.76766002,67.876007 0.760113122,72.8690401 0.760113122,79.1761229 C0.760113122,80.8947007 2.14981817,82.2878778 3.86213332,82.2878778 L35.9432263,82.2878778 C37.6555414,82.2878778 39.0452465,80.8947007 39.0452465,79.1761229 C39.0452465,74.6276262 36.4368906,70.768161 33.2258566,68.0022553 L43.7239792,57.2133563 L54.2185567,67.9995881 C51.0075226,70.7654937 48.3965079,74.625848 48.3965079,79.1761229 C48.3965079,80.8947007 49.786213,82.2878778 51.4985281,82.2878778 L83.5796211,82.2878778 C85.2919362,82.2878778 86.6816413,80.8947007 86.6816413,79.1761229 C86.6816413,72.8690401 81.6740944,67.876007 76.9900439,65.3056974 L76.9900439,65.3056974 Z" id="Fill-12"></path>
                        </g>
                    </g>
                </g>
            </g>
        </g>
    </g>
</svg>