<?xml version="1.0" encoding="UTF-8"?>
<svg width="44px" height="55px" viewBox="0 0 44 55" version="1.1" xmlns="http://www.w3.org/2000/svg" xmlns:xlink="http://www.w3.org/1999/xlink">
    <!-- Generator: Sketch 46.2 (44496) - http://www.bohemiancoding.com/sketch -->
    <title>WBV-Reports</title>
    <desc>Created with Sketch.</desc>
    <defs></defs>
    <g id="Page-1" stroke="none" stroke-width="1" fill="none" fill-rule="evenodd">
        <g id="TF-Modal-BV-Step6" transform="translate(-902.000000, -358.000000)">
            <g id="WBV-Reports" transform="translate(902.000000, 360.000000)">
                <path d="M12.6506024,25.2380952 L21.253012,25.2380952 L21.253012,21.7047619 L12.6506024,21.7047619 L12.6506024,25.2380952 Z M24.7951807,19.9380952 C24.7951807,18.9623905 24.002241,18.1714286 23.0240964,18.1714286 L10.8795181,18.1714286 C9.90137349,18.1714286 9.10843373,18.9623905 9.10843373,19.9380952 L9.10843373,27.0047619 C9.10843373,27.9804667 9.90137349,28.7714286 10.8795181,28.7714286 L23.0240964,28.7714286 C24.002241,28.7714286 24.7951807,27.9804667 24.7951807,27.0047619 L24.7951807,19.9380952 Z M9.12007229,34.5761905 C9.12007229,33.6004857 9.91301205,32.8095238 10.8911566,32.8095238 L22.9365542,32.8095238 C23.9141928,32.8095238 24.7076386,33.6004857 24.7076386,34.5761905 C24.7076386,35.5518952 23.9141928,36.3428571 22.9365542,36.3428571 L10.8911566,36.3428571 C9.91301205,36.3428571 9.12007229,35.5518952 9.12007229,34.5761905 L9.12007229,34.5761905 Z M9.12007229,41.6428571 C9.12007229,40.6671524 9.91301205,39.8761905 10.8911566,39.8761905 L22.9365542,39.8761905 C23.9141928,39.8761905 24.7076386,40.6671524 24.7076386,41.6428571 C24.7076386,42.6185619 23.9141928,43.4095238 22.9365542,43.4095238 L10.8911566,43.4095238 C9.91301205,43.4095238 9.12007229,42.6185619 9.12007229,41.6428571 L9.12007229,41.6428571 Z M4.04819277,48.9619048 L30.3614458,48.9619048 L30.3614458,12.6190476 L4.04819277,12.6190476 L4.04819277,48.9619048 Z M34.4096386,10.6 C34.4096386,9.48498095 33.5033494,8.58095238 32.3855422,8.58095238 L2.02409639,8.58095238 C0.906289157,8.58095238 0,9.48498095 0,10.6 L0,50.9809524 C0,52.0959714 0.906289157,53 2.02409639,53 L32.3855422,53 C33.5033494,53 34.4096386,52.0959714 34.4096386,50.9809524 L34.4096386,10.6 Z" id="Fill-1" fill="#7664C5"></path>
                <polyline id="Stroke-8" stroke="#7664C5" stroke-width="3" stroke-linecap="round" stroke-linejoin="round" points="11.6385542 5.55339048 11.6385542 0 41.9564819 0 41.9564819 40.3809524 37.6552771 40.3809524"></polyline>
            </g>
        </g>
    </g>
</svg>