<?xml version="1.0" encoding="UTF-8"?>
<svg width="120px" height="120px" viewBox="0 0 120 120" version="1.1" xmlns="http://www.w3.org/2000/svg" xmlns:xlink="http://www.w3.org/1999/xlink">
    <!-- Generator: Sketch 45.2 (43514) - http://www.bohemiancoding.com/sketch -->
    <title>report-ready</title>
    <desc>Created with Sketch.</desc>
    <defs>
        <path d="M99.9999,120.984 L19.9999,120.984 C8.9539,120.984 -0.0001,112.029 -0.0001,100.984 L-0.0001,20.984 C-0.0001,9.938 8.9539,0.984 19.9999,0.984 L99.9999,0.984 C111.0459,0.984 119.9999,9.938 119.9999,20.984 L119.9999,100.984 C119.9999,112.029 111.0459,120.984 99.9999,120.984" id="path-1"></path>
    </defs>
    <g id="Page-1" stroke="none" stroke-width="1" fill="none" fill-rule="evenodd">
        <g id="report-ready" transform="translate(0.000000, -1.000000)">
            <g id="Fill-4" transform="translate(0.000000, 0.016000)">
                <mask id="mask-2" fill="white">
                    <use xlink:href="#path-1"></use>
                </mask>
                <use id="Mask" fill="#81B44C" xlink:href="#path-1"></use>
                <polygon fill-opacity="0.09" fill="#000000" mask="url(#mask-2)" points="79.082 163.0001 14.434 98.3521 17.5 25.9691 48.232 25.9691 91.436 28.6051 105.611 35.4041 163.553 95.9001"></polygon>
            </g>
            <polygon id="Stroke-7" stroke="#FFFFFF" stroke-width="8" stroke-linecap="round" stroke-linejoin="round" points="17.4999 96.0147 17.4999 25.9857 48.2319 25.9857 55.5679 37.1557 102.4999 37.1557 102.4999 96.0147"></polygon>
            <polyline id="Stroke-9" stroke="#FFFFFF" stroke-width="6" stroke-linecap="round" stroke-linejoin="round" points="91.4355 28.6216 95.9435 28.6216 98.4435 37.3496"></polyline>
            <polyline id="Stroke-11" stroke="#FFFFFF" stroke-width="6" stroke-linecap="round" stroke-linejoin="round" points="51.6288 30.6216 88.4358 26.8036 88.4358 37.1556"></polyline>
            <path d="M75.9169,67 C75.9169,75.787 68.7909,82.917 59.9999,82.917 C51.2089,82.917 44.0829,75.787 44.0829,67 C44.0829,58.208 51.2089,51.083 59.9999,51.083 C68.7909,51.083 75.9169,58.208 75.9169,67 Z" id="Stroke-13" stroke="#FFFFFF" stroke-width="6"></path>
            <polyline id="Stroke-15" stroke="#FFFFFF" stroke-width="6" stroke-linecap="round" stroke-linejoin="round" points="53.8447 68.2778 58.2057 73.3768 65.6737 62.1788"></polyline>
        </g>
    </g>
</svg>