<?xml version="1.0" encoding="UTF-8"?>
<svg width="80px" height="79px" viewBox="0 0 80 79" version="1.1" xmlns="http://www.w3.org/2000/svg" xmlns:xlink="http://www.w3.org/1999/xlink">
    <!-- Generator: Sketch 47.1 (45422) - http://www.bohemiancoding.com/sketch -->
    <title>search-icon</title>
    <desc>Created with Sketch.</desc>
    <defs>
        <path d="M66.3465785,79.0001975 L13.4540165,79.0001975 C6.15087603,79.0001975 0.230876033,73.1054808 0.230876033,65.8335308 L0.230876033,13.1668642 C0.230876033,5.89491417 6.15087603,0.0001975 13.4540165,0.0001975 L66.3465785,0.0001975 C73.649719,0.0001975 79.569719,5.89491417 79.569719,13.1668642 L79.569719,65.8335308 C79.569719,73.1054808 73.649719,79.0001975 66.3465785,79.0001975" id="path-1"></path>
    </defs>
    <g id="Page-1" stroke="none" stroke-width="1" fill="none" fill-rule="evenodd">
        <g id="TF-Modal-BV-SearchStep-2" transform="translate(-680.000000, -314.000000)">
            <g id="search-icon" transform="translate(680.000000, 314.000000)">
                <g id="Fill-3">
                    <mask id="mask-2" fill="white">
                        <use xlink:href="#path-1"></use>
                    </mask>
                    <use id="Mask" fill="#81B44C" xlink:href="#path-1"></use>
                    <path d="M52.1904132,108.241389 L9.81818182,66.0507808 L33.2092562,42.7596058 C33.2092562,42.7596058 20.7391736,26.1511725 34.9540496,16.4045475 C49.1689256,6.65858083 59.1100826,14.3854392 59.1100826,14.3854392 L101.481653,56.5760475 L52.1904132,108.241389 Z" fill-opacity="0.09" fill="#000000" mask="url(#mask-2)"></path>
                </g>
                <path d="M51.2800661,35.3743567 C51.7660165,35.8582317 52.0489917,36.5330233 52.0489917,37.2203233 C52.0489917,37.9135483 51.7660165,38.58834 51.2800661,39.0728733 C50.7941157,39.5633317 50.1098182,39.838515 49.4202314,39.838515 C48.7299835,39.838515 48.0522975,39.5633317 47.5597355,39.0728733 C47.073124,38.58834 46.7908099,37.9135483 46.7908099,37.2203233 C46.7908099,36.5330233 47.073124,35.8582317 47.5597355,35.3743567 C48.0522975,34.88324 48.7299835,34.6014733 49.4202314,34.6014733 C50.1098182,34.6014733 50.7941157,34.88324 51.2800661,35.3743567 M56.1243636,30.350615 C55.970314,31.50204 54.9825455,32.33944 53.8466777,32.33944 C53.7455207,32.33944 53.6423802,32.3321983 53.5399008,32.3183733 C52.2803967,32.1511567 51.3957686,30.9990733 51.5637025,29.7449483 C52.0225455,26.3163483 48.1838678,24.524365 48.020562,24.4499733 C46.8701488,23.9246233 46.3551074,22.57109 46.8741157,21.4222983 C47.3937851,20.2735067 48.7412231,19.7560567 49.8982479,20.266265 C50.1904793,20.3952983 57.0407273,23.5039483 56.1243636,30.350615 M45.8638678,45.5080817 C37.4757686,45.5080817 30.6519669,38.6008483 30.6519669,30.1109817 C30.6519669,21.6217733 37.4757686,14.71454 45.8638678,14.71454 C54.2506446,14.71454 61.0737851,21.6217733 61.0737851,30.1109817 C61.0737851,38.6008483 54.2506446,45.5080817 45.8638678,45.5080817 M45.8638678,9.47749833 C34.5759339,9.47749833 25.3937851,18.733665 25.3937851,30.1109817 C25.3937851,34.8917983 27.0195702,39.2940733 29.7362645,42.7957483 L10.3253554,62.396965 C9.17824793,63.5549733 9.19147107,65.4200317 10.3551074,66.56224 C10.9309752,67.1284067 11.6807273,67.4108317 12.4318017,67.4108317 C13.1947769,67.4108317 13.9590744,67.1178733 14.5382479,66.5339317 L33.982876,46.8978233 C37.3356033,49.3158817 41.435438,50.7451233 45.8638678,50.7451233 C57.1504793,50.7451233 66.3332893,41.4882983 66.3332893,30.1109817 C66.3332893,18.733665 57.1504793,9.47749833 45.8638678,9.47749833" id="Fill-5" fill="#FFFFFF"></path>
            </g>
        </g>
    </g>
</svg>