<?xml version="1.0" encoding="UTF-8"?>
<svg width="106px" height="106px" viewBox="0 0 106 106" version="1.1" xmlns="http://www.w3.org/2000/svg" xmlns:xlink="http://www.w3.org/1999/xlink">
    <!-- Generator: Sketch 46.2 (44496) - http://www.bohemiancoding.com/sketch -->
    <title>Self-Color Copy</title>
    <desc>Created with Sketch.</desc>
    <defs></defs>
    <g id="Page-1" stroke="none" stroke-width="1" fill="none" fill-rule="evenodd">
        <g id="TF-Modal-BV-Step1A" transform="translate(-958.000000, -457.000000)" fill="#5691CD">
            <g id="Cards" transform="translate(435.000000, 363.000000)">
                <g id="Fill-4-+-Fill-7-Mask">
                    <g id="Self-Color-Copy" transform="translate(523.000000, 94.000000)">
                        <g id="Fill-3" transform="translate(0.000000, 3.000000)" fill-opacity="0.09">
                            <path d="M110.8164,192.385569 L0.0184,81.5127752 C0.0184,81.5127752 14.952396,62.9940339 33.3017578,57.5660673 C37.1499612,56.4277214 40.3216475,68.3329623 44.4560547,67.2499354 C47.20848,66.528925 49.6852618,65.658181 51.8864,64.6377034 L25.3291016,42.7640754 C27.1970757,20.9408973 29.4095085,9.28001215 31.9664,7.78141983 C40.3374,2.87520496 46.1444,-3.01709256 51.8864,1.84576694 C65.5524,9.91188264 68.4174,10.2405769 68.4174,10.2405769 L177.0474,119.769354 L110.8164,192.385569 Z"></path>
                        </g>
                        <path d="M10.0996,78.7774645 C14.5106,74.070886 25.0616,68.828919 33.8786,65.7305223 L43.4096,73.9025058 C44.9036,75.1840099 47.0976,75.1840099 48.5916,73.9025058 L58.1216,65.7305223 C66.9386,68.828919 77.4896,74.070886 81.9006,78.7774645 L10.0996,78.7774645 Z M58.4656,57.3427702 C57.1496,56.9172826 55.7106,57.2096793 54.6586,58.112076 L45.9996,65.5359273 L37.3416,58.112076 C36.2896,57.2096793 34.8516,56.9172826 33.5356,57.3427702 C27.9356,59.1435306 -0.0004,68.8369851 -0.0004,82.8105223 C-0.0004,85.0377785 1.7906,86.8435802 3.9996,86.8435802 L87.9996,86.8435802 C90.2086,86.8435802 91.9996,85.0377785 91.9996,82.8105223 C91.9996,68.8369851 64.0656,59.1435306 58.4656,57.3427702 L58.4656,57.3427702 Z M45.9996,8.19895207 C56.4356,8.19895207 64.9256,16.8125554 64.9256,27.4013488 C64.9256,37.9921587 56.4356,46.6077785 45.9996,46.6077785 C35.5646,46.6077785 27.0746,37.9921587 27.0746,27.4013488 C27.0746,16.8125554 35.5646,8.19895207 45.9996,8.19895207 L45.9996,8.19895207 Z M45.9996,54.6738942 C60.8466,54.6738942 72.9256,42.4396132 72.9256,27.4013488 C72.9256,12.3651008 60.8466,0.132836364 45.9996,0.132836364 C31.1536,0.132836364 19.0746,12.3651008 19.0746,27.4013488 C19.0746,42.4396132 31.1536,54.6738942 45.9996,54.6738942 L45.9996,54.6738942 Z" id="Fill-5"></path>
                    </g>
                </g>
            </g>
        </g>
    </g>
</svg>