<?xml version="1.0" encoding="UTF-8"?>
<svg width="60px" height="61px" viewBox="0 0 60 61" version="1.1" xmlns="http://www.w3.org/2000/svg" xmlns:xlink="http://www.w3.org/1999/xlink">
    <!-- Generator: Sketch 45.2 (43514) - http://www.bohemiancoding.com/sketch -->
    <title>Significant-Color</title>
    <desc>Created with Sketch.</desc>
    <defs>
        <path d="M49.99985,60.2481 L9.99985,60.2481 C4.47735,60.2481 -0.00015,55.7706 -0.00015,50.2481 L-0.00015,10.2481 C-0.00015,4.7251 4.47735,0.2481 9.99985,0.2481 L49.99985,0.2481 C55.52285,0.2481 59.99985,4.7251 59.99985,10.2481 L59.99985,50.2481 C59.99985,55.7706 55.52285,60.2481 49.99985,60.2481" id="path-1"></path>
    </defs>
    <g id="Page-1" stroke="none" stroke-width="1" fill="none" fill-rule="evenodd">
        <g id="Significant-Color">
            <g id="Group-3" transform="translate(0.000000, 0.252000)"></g>
            <g id="Group-6" transform="translate(0.000000, 0.252000)">
                <g id="Fill-4">
                    <mask id="mask-2" fill="white">
                        <use xlink:href="#path-1"></use>
                    </mask>
                    <use id="Mask" fill="#605AAD" xlink:href="#path-1"></use>
                    <path d="M74.7841797,93.6105488 L19.1936,40.18455 L10.9261,27.73255 C10.9261,27.73255 12.6496,16.63355 17.4261,14.24455 C20.9326,12.49105 27.6761,15.24805 30.4996,17.70705 C38.6821,12.87305 45.4011,14.51255 45.4011,14.51255 L99.7166,68.82805 L74.7841797,93.6105488 Z" fill-opacity="0.11" fill="#000000" mask="url(#mask-2)"></path>
                </g>
            </g>
            <path d="M42.034,27.0699 C42.409,27.4449 42.619,27.9599 42.619,28.4849 C42.619,29.0099 42.409,29.5299 42.034,29.8999 C41.664,30.2749 41.149,30.4849 40.619,30.4849 C40.094,30.4849 39.579,30.2749 39.2095,29.8999 C38.8345,29.5299 38.619,29.0149 38.619,28.4849 C38.619,27.9599 38.8345,27.4449 39.2095,27.0699 C39.579,26.6999 40.094,26.4849 40.619,26.4849 C41.149,26.4849 41.664,26.6999 42.034,27.0699 M44.4485,24.1644 C44.5125,25.1289 43.7825,25.9624 42.8175,26.0259 C42.7785,26.0284 42.7395,26.0299 42.701,26.0299 C41.787,26.0299 41.018,25.3204 40.957,24.3949 C40.7695,21.5589 38.9155,21.0934 38.545,21.0289 C37.588,20.8979 36.933,20.0174 37.0645,19.0599 C37.1955,18.1019 38.0925,17.4374 39.0495,17.5659 C40.782,17.8034 44.14,19.4879 44.4485,24.1644 M44.937,29.9554 C38.457,37.2244 32.5545,42.8934 30,45.2804 C27.447,42.8954 21.549,37.2319 15.063,29.9554 C12.4445,27.0189 11.7935,23.4374 13.2755,20.1294 C14.6505,17.0614 17.596,14.9999 20.605,14.9999 C26.572,14.9999 27.9225,19.4629 28.0605,19.9859 C28.2815,20.8679 29.0735,21.4999 29.984,21.4999 L30.0025,21.4999 C30.9105,21.4999 31.7085,20.8684 31.9395,19.9884 C32.0725,19.4789 33.4175,15.0054 39.3955,15.0054 C42.404,15.0054 45.3495,17.0639 46.7245,20.1319 C48.2065,23.4399 47.555,27.0189 44.937,29.9554 M50.374,18.4934 C48.3345,13.9414 44.0245,10.9999 39.3955,10.9999 C34.769,10.9999 31.7685,13.0349 30,15.2394 C28.232,13.0349 25.2315,10.9999 20.605,10.9999 C15.9755,10.9999 11.666,13.9414 9.626,18.4934 C7.502,23.2334 8.4185,28.5129 12.0775,32.6174 C20.8415,42.4494 28.5875,49.4199 28.665,49.4889 C29.0445,49.8299 29.5225,49.9999 30,49.9999 C30.478,49.9999 30.9555,49.8299 31.3355,49.4889 C31.4125,49.4199 39.158,42.4494 47.9225,32.6174 C51.5815,28.5129 52.4985,23.2334 50.374,18.4934" id="Fill-7" fill="#FFFFFF"></path>
        </g>
    </g>
</svg>