<?xml version="1.0" encoding="UTF-8"?>
<svg width="101px" height="98px" viewBox="0 0 101 98" version="1.1" xmlns="http://www.w3.org/2000/svg" xmlns:xlink="http://www.w3.org/1999/xlink">
    <!-- Generator: Sketch 46.2 (44496) - http://www.bohemiancoding.com/sketch -->
    <title>Significant-BG</title>
    <desc>Created with Sketch.</desc>
    <defs></defs>
    <g id="Page-1" stroke="none" stroke-width="1" fill="none" fill-rule="evenodd">
        <g id="TF-Modal-BV-Step1C" transform="translate(-963.000000, -465.000000)" fill="#7664C5">
            <g id="Cards" transform="translate(435.000000, 363.000000)">
                <g id="Fill-4-+-Fill-7-Mask">
                    <g id="Significant-BG" transform="translate(528.000000, 102.000000)">
                        <path d="M130.523255,160.9087 L22.121625,56.6842105 L6,32.3926039 C6,32.3926039 9.360825,10.7404564 18.675,6.07994816 C25.512675,2.65918587 38.6625,8.0375957 44.168325,12.8346613 C60.1242,3.40439898 73.22625,6.60276783 73.22625,6.60276783 L179.141475,112.562514 L130.523255,160.9087 Z" id="Fill-4" fill-opacity="0.112064085"></path>
                        <path d="M65.9663,31.8084934 C66.69755,32.5400508 67.10705,33.544723 67.10705,34.5689033 C67.10705,35.5930836 66.69755,36.6075098 65.9663,37.3293131 C65.2448,38.0608705 64.24055,38.4705426 63.20705,38.4705426 C62.1833,38.4705426 61.17905,38.0608705 60.458525,37.3293131 C59.727275,36.6075098 59.30705,35.6028377 59.30705,34.5689033 C59.30705,33.544723 59.727275,32.5400508 60.458525,31.8084934 C61.17905,31.0866902 62.1833,30.6672639 63.20705,30.6672639 C64.24055,30.6672639 65.2448,31.0866902 65.9663,31.8084934 M70.674575,26.1403869 C70.799375,28.0219525 69.375875,29.6479607 67.494125,29.7718377 C67.418075,29.7767148 67.342025,29.779641 67.26695,29.779641 C65.48465,29.779641 63.9851,28.3955344 63.86615,26.5900508 C63.500525,21.0575262 59.885225,20.1494197 59.16275,20.0235918 C57.2966,19.7680344 56.01935,18.0503377 56.275775,16.1824279 C56.531225,14.3135426 58.280375,13.017223 60.146525,13.2679033 C63.5249,13.731223 70.073,17.0173787 70.674575,26.1403869 M71.62715,37.4375836 C58.99115,51.6180918 47.481275,62.6772885 42.5,67.3338951 C37.52165,62.6811902 26.02055,51.632723 13.37285,37.4375836 C8.266775,31.7090016 6.997325,24.722141 9.887225,18.2688295 C12.568475,12.2837148 18.3122,8.2621 24.17975,8.2621 C35.8154,8.2621 38.448875,16.9686082 38.717975,17.9888869 C39.148925,19.7095098 40.693325,20.9424279 42.4688,20.9424279 L42.504875,20.9424279 C44.275475,20.9424279 45.831575,19.7104852 46.282025,17.9937639 C46.541375,16.9998213 49.164125,8.27282951 60.821225,8.27282951 C66.6878,8.27282951 72.431525,12.2885918 75.112775,18.2737066 C78.002675,24.727018 76.73225,31.7090016 71.62715,37.4375836 M82.2293,15.0772885 C78.252275,6.19715738 69.847775,0.458821311 60.821225,0.458821311 C51.79955,0.458821311 45.948575,4.42873934 42.5,8.72932131 C39.0524,4.42873934 33.201425,0.458821311 24.17975,0.458821311 C15.152225,0.458821311 6.7487,6.19715738 2.7707,15.0772885 C-1.3711,24.3241738 0.416075,34.6235262 7.551125,42.6306656 C24.640925,61.8111246 39.745625,75.4093131 39.89675,75.5439197 C40.636775,76.2091492 41.568875,76.5407885 42.5,76.5407885 C43.4321,76.5407885 44.363225,76.2091492 45.104225,75.5439197 C45.254375,75.4093131 60.3581,61.8111246 77.448875,42.6306656 C84.583925,34.6235262 86.372075,24.3241738 82.2293,15.0772885" id="Fill-7"></path>
                    </g>
                </g>
            </g>
        </g>
    </g>
</svg>