<?xml version="1.0" encoding="UTF-8"?>
<svg width="14px" height="10px" viewBox="0 0 14 10" version="1.1" xmlns="http://www.w3.org/2000/svg" xmlns:xlink="http://www.w3.org/1999/xlink">
    <!-- Generator: Sketch 49 (51002) - http://www.bohemiancoding.com/sketch -->
    <title>US@1x</title>
    <desc>Created with Sketch.</desc>
    <defs>
        <rect id="path-1" x="0" y="0" width="14" height="10" rx="1"></rect>
        <linearGradient x1="50%" y1="0%" x2="50%" y2="100%" id="linearGradient-3">
            <stop stop-color="#FFFFFF" offset="0%"></stop>
            <stop stop-color="#F0F0F0" offset="100%"></stop>
        </linearGradient>
        <path d="M1,1.33333333 C0.815905083,1.33333333 0.666666667,1.18409492 0.666666667,1 C0.666666667,0.815905083 0.815905083,0.666666667 1,0.666666667 C1.18409492,0.666666667 1.33333333,0.815905083 1.33333333,1 C1.33333333,1.18409492 1.18409492,1.33333333 1,1.33333333 Z M2.33333333,1.33333333 C2.14923842,1.33333333 2,1.18409492 2,1 C2,0.815905083 2.14923842,0.666666667 2.33333333,0.666666667 C2.51742825,0.666666667 2.66666667,0.815905083 2.66666667,1 C2.66666667,1.18409492 2.51742825,1.33333333 2.33333333,1.33333333 Z M3.66666667,1.33333333 C3.48257175,1.33333333 3.33333333,1.18409492 3.33333333,1 C3.33333333,0.815905083 3.48257175,0.666666667 3.66666667,0.666666667 C3.85076158,0.666666667 4,0.815905083 4,1 C4,1.18409492 3.85076158,1.33333333 3.66666667,1.33333333 Z M5,1.33333333 C4.81590508,1.33333333 4.66666667,1.18409492 4.66666667,1 C4.66666667,0.815905083 4.81590508,0.666666667 5,0.666666667 C5.18409492,0.666666667 5.33333333,0.815905083 5.33333333,1 C5.33333333,1.18409492 5.18409492,1.33333333 5,1.33333333 Z M1.66666667,2 C1.48257175,2 1.33333333,1.85076158 1.33333333,1.66666667 C1.33333333,1.48257175 1.48257175,1.33333333 1.66666667,1.33333333 C1.85076158,1.33333333 2,1.48257175 2,1.66666667 C2,1.85076158 1.85076158,2 1.66666667,2 Z M3,2 C2.81590508,2 2.66666667,1.85076158 2.66666667,1.66666667 C2.66666667,1.48257175 2.81590508,1.33333333 3,1.33333333 C3.18409492,1.33333333 3.33333333,1.48257175 3.33333333,1.66666667 C3.33333333,1.85076158 3.18409492,2 3,2 Z M4.33333333,2 C4.14923842,2 4,1.85076158 4,1.66666667 C4,1.48257175 4.14923842,1.33333333 4.33333333,1.33333333 C4.51742825,1.33333333 4.66666667,1.48257175 4.66666667,1.66666667 C4.66666667,1.85076158 4.51742825,2 4.33333333,2 Z M5,2.66666667 C4.81590508,2.66666667 4.66666667,2.51742825 4.66666667,2.33333333 C4.66666667,2.14923842 4.81590508,2 5,2 C5.18409492,2 5.33333333,2.14923842 5.33333333,2.33333333 C5.33333333,2.51742825 5.18409492,2.66666667 5,2.66666667 Z M3.66666667,2.66666667 C3.48257175,2.66666667 3.33333333,2.51742825 3.33333333,2.33333333 C3.33333333,2.14923842 3.48257175,2 3.66666667,2 C3.85076158,2 4,2.14923842 4,2.33333333 C4,2.51742825 3.85076158,2.66666667 3.66666667,2.66666667 Z M2.33333333,2.66666667 C2.14923842,2.66666667 2,2.51742825 2,2.33333333 C2,2.14923842 2.14923842,2 2.33333333,2 C2.51742825,2 2.66666667,2.14923842 2.66666667,2.33333333 C2.66666667,2.51742825 2.51742825,2.66666667 2.33333333,2.66666667 Z M1,2.66666667 C0.815905083,2.66666667 0.666666667,2.51742825 0.666666667,2.33333333 C0.666666667,2.14923842 0.815905083,2 1,2 C1.18409492,2 1.33333333,2.14923842 1.33333333,2.33333333 C1.33333333,2.51742825 1.18409492,2.66666667 1,2.66666667 Z M1.66666667,3.33333333 C1.48257175,3.33333333 1.33333333,3.18409492 1.33333333,3 C1.33333333,2.81590508 1.48257175,2.66666667 1.66666667,2.66666667 C1.85076158,2.66666667 2,2.81590508 2,3 C2,3.18409492 1.85076158,3.33333333 1.66666667,3.33333333 Z M3,3.33333333 C2.81590508,3.33333333 2.66666667,3.18409492 2.66666667,3 C2.66666667,2.81590508 2.81590508,2.66666667 3,2.66666667 C3.18409492,2.66666667 3.33333333,2.81590508 3.33333333,3 C3.33333333,3.18409492 3.18409492,3.33333333 3,3.33333333 Z M4.33333333,3.33333333 C4.14923842,3.33333333 4,3.18409492 4,3 C4,2.81590508 4.14923842,2.66666667 4.33333333,2.66666667 C4.51742825,2.66666667 4.66666667,2.81590508 4.66666667,3 C4.66666667,3.18409492 4.51742825,3.33333333 4.33333333,3.33333333 Z M5,4 C4.81590508,4 4.66666667,3.85076158 4.66666667,3.66666667 C4.66666667,3.48257175 4.81590508,3.33333333 5,3.33333333 C5.18409492,3.33333333 5.33333333,3.48257175 5.33333333,3.66666667 C5.33333333,3.85076158 5.18409492,4 5,4 Z M3.66666667,4 C3.48257175,4 3.33333333,3.85076158 3.33333333,3.66666667 C3.33333333,3.48257175 3.48257175,3.33333333 3.66666667,3.33333333 C3.85076158,3.33333333 4,3.48257175 4,3.66666667 C4,3.85076158 3.85076158,4 3.66666667,4 Z M2.33333333,4 C2.14923842,4 2,3.85076158 2,3.66666667 C2,3.48257175 2.14923842,3.33333333 2.33333333,3.33333333 C2.51742825,3.33333333 2.66666667,3.48257175 2.66666667,3.66666667 C2.66666667,3.85076158 2.51742825,4 2.33333333,4 Z M1,4 C0.815905083,4 0.666666667,3.85076158 0.666666667,3.66666667 C0.666666667,3.48257175 0.815905083,3.33333333 1,3.33333333 C1.18409492,3.33333333 1.33333333,3.48257175 1.33333333,3.66666667 C1.33333333,3.85076158 1.18409492,4 1,4 Z" id="path-4"></path>
        <filter x="-10.7%" y="-15.0%" width="121.4%" height="160.0%" filterUnits="objectBoundingBox" id="filter-5">
            <feOffset dx="0" dy="1" in="SourceAlpha" result="shadowOffsetOuter1"></feOffset>
            <feColorMatrix values="0 0 0 0 0   0 0 0 0 0   0 0 0 0 0  0 0 0 0.06 0" type="matrix" in="shadowOffsetOuter1"></feColorMatrix>
        </filter>
    </defs>
    <g id="Page-1" stroke="none" stroke-width="1" fill="none" fill-rule="evenodd">
        <g id="ORG-ResultsProperty-1400-V4-1-Copy-2" transform="translate(-939.000000, -1595.000000)">
            <g id="Footer-Desktop" transform="translate(0.000000, 1380.000000)">
                <g id="US" transform="translate(939.000000, 215.000000)">
                    <mask id="mask-2" fill="white">
                        <use xlink:href="#path-1"></use>
                    </mask>
                    <use id="Mask" fill="#FFFFFF" xlink:href="#path-1"></use>
                    <path d="M0,0 L14,0 L14,0.666666667 L0,0.666666667 L0,0 Z M0,1.33333333 L14,1.33333333 L14,2 L0,2 L0,1.33333333 Z M0,2.66666667 L14,2.66666667 L14,3.33333333 L0,3.33333333 L0,2.66666667 Z M0,4 L14,4 L14,4.66666667 L0,4.66666667 L0,4 Z M0,5.33333333 L14,5.33333333 L14,6 L0,6 L0,5.33333333 Z M0,6.66666667 L14,6.66666667 L14,7.33333333 L0,7.33333333 L0,6.66666667 Z M0,8 L14,8 L14,8.66666667 L0,8.66666667 L0,8 Z M0,9.33333333 L14,9.33333333 L14,10 L0,10 L0,9.33333333 Z" id="Rectangle-511" fill="#D02F44" mask="url(#mask-2)"></path>
                    <rect id="Rectangle-511" fill="#46467F" mask="url(#mask-2)" x="0" y="0" width="6" height="4.66666667"></rect>
                    <g id="Oval-43" mask="url(#mask-2)">
                        <use fill="black" fill-opacity="1" filter="url(#filter-5)" xlink:href="#path-4"></use>
                        <use fill="url(#linearGradient-3)" fill-rule="evenodd" xlink:href="#path-4"></use>
                    </g>
                </g>
            </g>
        </g>
    </g>
</svg>