<?xml version="1.0" encoding="utf-8"?>
<!-- Generator: Adobe Illustrator 17.1.0, SVG Export Plug-In . SVG Version: 6.00 Build 0)  -->
<!DOCTYPE svg PUBLIC "-//W3C//DTD SVG 1.1//EN" "http://www.w3.org/Graphics/SVG/1.1/DTD/svg11.dtd">
<svg version="1.1" id="Capa_1" xmlns="http://www.w3.org/2000/svg" xmlns:xlink="http://www.w3.org/1999/xlink" x="0px" y="0px"
	 viewBox="0 0 612 612" enable-background="new 0 0 612 612" xml:space="preserve">
<g>
	<g id="group-add">
		<path fill="#0072BC" d="M204,267.8h-76.5v-76.5h-51v76.5H0v51h76.5v76.5h51v-76.5H204V267.8z M459,293.3
			c43.4,0,76.5-33.1,76.5-76.5s-33.1-76.5-76.5-76.5c-7.6,0-15.3,2.6-23,2.6c15.3,22.9,23,45.9,23,73.9s-7.6,51-23,74
			C443.7,290.7,451.4,293.3,459,293.3z M331.5,293.3c43.4,0,76.5-33.1,76.5-76.5s-33.1-76.5-76.5-76.5S255,173.4,255,216.8
			S288.1,293.3,331.5,293.3z M499.8,349.4c20.4,17.9,35.7,43.4,35.7,71.4v51H612v-51C612,382.5,550.8,357,499.8,349.4z M331.5,344.3
			c-51,0-153,25.5-153,76.5v51h306v-51C484.5,369.8,382.5,344.3,331.5,344.3z"/>
	</g>
</g>
</svg>
