<?xml version="1.0" encoding="utf-8"?>
<!-- Generator: Adobe Illustrator 17.1.0, SVG Export Plug-In . SVG Version: 6.00 Build 0)  -->
<!DOCTYPE svg PUBLIC "-//W3C//DTD SVG 1.1//EN" "http://www.w3.org/Graphics/SVG/1.1/DTD/svg11.dtd">
<svg version="1.1" id="Capa_1" xmlns="http://www.w3.org/2000/svg" xmlns:xlink="http://www.w3.org/1999/xlink" x="0px" y="0px"
	 viewBox="0 0 612 792" enable-background="new 0 0 612 792" xml:space="preserve">
<g>
	<g>
		<path fill="#0072BC" d="M476,498c-23.4,0-44.8,7.9-62,21.2L236.5,412.7c0.9-5.4,1.5-11,1.5-16.7c0-5.7-0.6-11.2-1.5-16.7
			L414,272.8c17.2,13.2,38.7,21.2,62,21.2c56.3,0,102-45.7,102-102S532.3,90,476,90s-102,45.7-102,102c0,5.7,0.6,11.2,1.5,16.7
			L198,315.2c-17.2-13.2-38.7-21.2-62-21.2c-56.3,0-102,45.7-102,102s45.7,102,102,102c23.4,0,44.8-7.9,62-21.2l177.5,106.5
			c-0.9,5.5-1.5,11-1.5,16.7c0,56.3,45.7,102,102,102c56.3,0,102-45.7,102-102C578,543.7,532.3,498,476,498z"/>
	</g>
</g>
</svg>
