<?xml version="1.0" encoding="utf-8"?>
<!-- Generator: Adobe Illustrator 17.1.0, SVG Export Plug-In . SVG Version: 6.00 Build 0)  -->
<!DOCTYPE svg PUBLIC "-//W3C//DTD SVG 1.1//EN" "http://www.w3.org/Graphics/SVG/1.1/DTD/svg11.dtd">
<svg version="1.1" id="Capa_1" xmlns="http://www.w3.org/2000/svg" xmlns:xlink="http://www.w3.org/1999/xlink" x="0px" y="0px"
	 viewBox="0 0 612 792" enable-background="new 0 0 612 792" xml:space="preserve">
<g>
	<path fill="#0072BC" d="M338.3,234.9c19-13.1,31.8-37.5,31.8-65.3c0-37.7-7.6-76.2-64.2-76.2s-64.2,38.5-64.2,76.2
		c0,27.8,12.8,52.2,31.8,65.3c-42.1,12.6-72.6,49.2-72.6,92.3c0,22.2,11.3,38,33.6,46.9c16.3,6.5,39,9.5,71.4,9.5
		c32.4,0,55-3,71.4-9.5c22.3-8.9,33.6-24.7,33.6-46.9C411,284.1,380.4,247.6,338.3,234.9z"/>
	<path fill="#0072BC" d="M137.3,519.9c19-13.1,31.8-37.5,31.8-65.3c0-37.7-7.6-76.2-64.2-76.2s-64.2,38.5-64.2,76.2
		c0,27.8,12.8,52.2,31.8,65.3C30.5,532.5,0,569.1,0,612.2c0,22.2,11.3,38,33.6,46.9c16.3,6.5,39,9.5,71.4,9.5s55-3,71.4-9.5
		c22.3-8.9,33.6-24.7,33.6-46.9C209.9,569.1,179.4,532.5,137.3,519.9z"/>
	<path fill="#0072BC" d="M539.4,519.9c19-13.1,31.8-37.5,31.8-65.3c0-37.7-7.6-76.2-64.2-76.2s-64.2,38.5-64.2,76.2
		c0,27.8,12.8,52.2,31.8,65.3c-42.1,12.6-72.6,49.2-72.6,92.3c0,22.2,11.3,38,33.6,46.9c16.3,6.5,39,9.5,71.4,9.5s55-3,71.4-9.5
		c22.3-8.9,33.6-24.7,33.6-46.9C612,569.1,581.5,532.5,539.4,519.9z"/>
	<path fill="#0072BC" d="M376.9,663.3c-0.7-1.8-2.2-3.3-4-4.1c-1.8-0.8-3.9-0.8-5.7-0.1c-16.1,6.4-36.1,9.6-61.2,9.6
		s-45.1-3.1-61.2-9.6c-1.8-0.7-3.9-0.7-5.7,0.1c-1.8,0.8-3.3,2.3-4,4.1l-5.6,13.9c-1.5,3.8,0.3,8.2,4.2,9.7
		c19.7,7.9,43.4,11.7,72.3,11.7c28.9,0,52.6-3.8,72.3-11.7c3.8-1.5,5.7-5.9,4.2-9.7L376.9,663.3z"/>
	<path fill="#0072BC" d="M84.9,340.3l13.8,5.9c1,0.4,2,0.6,3,0.6c2.9,0,5.7-1.7,6.9-4.5c6.8-16,18.8-32.3,36.5-50
		c17.7-17.7,34.1-29.6,50-36.5c1.8-0.8,3.3-2.3,4-4.1c0.7-1.8,0.7-3.9-0.1-5.7l-5.9-13.8c-1.6-3.8-6-5.6-9.8-3.9
		c-19.5,8.4-39,22.4-59.4,42.8c-20.5,20.5-34.5,39.9-42.8,59.4C79.4,334.3,81.1,338.7,84.9,340.3z"/>
	<path fill="#0072BC" d="M416.9,255.8c16,6.8,32.3,18.8,50,36.5c17.7,17.7,29.6,34.1,36.5,50c1.2,2.8,4,4.5,6.9,4.5c1,0,2-0.2,3-0.6
		l13.8-5.9c3.8-1.6,5.6-6,3.9-9.8c-8.4-19.5-22.4-39-42.8-59.4c-20.5-20.5-39.9-34.5-59.4-42.8c-3.8-1.6-8.2,0.1-9.8,3.9l-5.9,13.8
		c-0.8,1.8-0.8,3.9-0.1,5.7C413.7,253.5,415.1,255,416.9,255.8z"/>
</g>
</svg>
