<?xml version="1.0" encoding="UTF-8"?>
<svg width="25px" height="22px" viewBox="0 0 25 22" version="1.1" xmlns="http://www.w3.org/2000/svg" xmlns:xlink="http://www.w3.org/1999/xlink">
    <!-- Generator: Sketch 44.1 (41455) - http://www.bohemiancoding.com/sketch -->
    <title>Bed</title>
    <desc>Created with Sketch.</desc>
    <defs></defs>
    <g id="Page-1" stroke="none" stroke-width="1" fill="none" fill-rule="evenodd">
        <g id="04-BV-PF-Step4" transform="translate(-540.000000, -567.000000)">
            <g id="Group-6" transform="translate(228.000000, 256.000000)">
                <g id="Bed" transform="translate(312.000000, 311.000000)">
                    <path d="M12.5005859,0 C6.25058594,0 1.56269531,2.75 1.56269531,2.75 L1.56269531,7.85714286 L12.5005859,7.85714286 L23.4376953,7.85714286 L23.4376953,2.75 C23.4376953,2.75 18.7505859,0 12.5005859,0" id="Fill-6508" fill="#C4B694"></path>
                    <path d="M12.5,0 C6.25,0 1.5625,2.75 1.5625,2.75 L1.5625,7.85714286 L12.5,7.85714286 L12.5,0 Z" id="Fill-6509" fill="#DCD0B3"></path>
                    <polygon id="Fill-6510" fill="#56CDB9" points="25 12.9642857 0 13.3571429 1.5625 7.85714286 23.4375 7.85714286"></polygon>
                    <path d="M12.5005859,9.03571429 C5.35761719,9.03571429 0.0001953125,11.3516071 0.0001953125,11.3516071 L0.0001953125,14.9285714 L25.0001953,14.9285714 L25.0001953,11.3516071 C25.0001953,11.3516071 19.6435547,9.03571429 12.5005859,9.03571429" id="Fill-6511" fill="#C4B694"></path>
                    <path d="M2.92226563,4.23146429 C2.91054688,4.17057143 2.92265625,4.10732143 2.95625,4.05546429 C2.98945312,4.004 3.04101563,3.96864286 3.09960938,3.95685714 C5.909375,3.39546429 8.33671875,3.39546429 11.1464844,3.95685714 C11.2050781,3.96864286 11.2566406,4.004 11.2898438,4.05546429 C11.3230469,4.10732143 11.3355469,4.17057143 11.3238281,4.23146429 C11.0871094,5.47917857 11.0871094,6.72689286 11.3238281,7.97460714 C11.3355469,8.03589286 11.3230469,8.09875 11.2898438,8.15060714 C11.2566406,8.20207143 11.2050781,8.23782143 11.1464844,8.24921429 C8.33671875,8.81060714 5.909375,8.81060714 3.09960938,8.24921429 C3.04101563,8.23782143 2.98945312,8.20207143 2.95625,8.15060714 C2.92265625,8.09875 2.91054688,8.03589286 2.92226563,7.97460714 C3.15859375,6.72689286 3.15859375,5.47917857 2.92226563,4.23146429" id="Fill-6512" fill="#FFFFFF"></path>
                    <path d="M13.6760547,4.23146429 C13.6647266,4.17057143 13.6768359,4.10732143 13.7100391,4.05546429 C13.7432422,4.004 13.7948047,3.96864286 13.8533984,3.95685714 C16.6635547,3.39546429 19.0905078,3.39546429 21.9006641,3.95685714 C21.9588672,3.96864286 22.0104297,4.004 22.0436328,4.05546429 C22.0772266,4.10732143 22.0893359,4.17057143 22.0776172,4.23146429 C21.8412891,5.47917857 21.8412891,6.72689286 22.0776172,7.97460714 C22.0893359,8.03589286 22.0772266,8.09875 22.0436328,8.15060714 C22.0104297,8.20207143 21.9588672,8.23782143 21.9006641,8.24921429 C19.0905078,8.81060714 16.6631641,8.81060714 13.8533984,8.24921429 C13.7948047,8.23782143 13.7432422,8.20207143 13.7100391,8.15060714 C13.6768359,8.09875 13.6647266,8.03589286 13.6760547,7.97460714 C13.9127734,6.72689286 13.9127734,5.47917857 13.6760547,4.23146429" id="Fill-6513" fill="#FFFFFF"></path>
                    <path d="M0,16.5 L0,19.75875 L0,21.2142857 C0,21.6464286 0.351171875,22 0.78125,22 C1.2109375,22 1.69257812,21.6719643 1.85234375,21.2704643 L3.125,18.0714286 L21.875,18.0714286 L23.1472656,21.2704643 C23.3070313,21.6719643 23.7890625,22 24.21875,22 C24.6484375,22 25,21.6464286 25,21.2142857 L25,16.5 L0,16.5 Z" id="Fill-6514" fill="#C4B694"></path>
                    <polygon id="Fill-6515" fill="#DCD0B3" points="25 16.5 0 16.5 0 14.9285714 25 14.9285714"></polygon>
                    <path d="M12.5,9.03571429 C5.35742188,9.03571429 0,11.3516071 0,11.3516071 L0,14.9285714 L12.5,14.9285714 L12.5,9.03571429 Z" id="Fill-6516" fill="#DCD0B3"></path>
                    <polygon id="Fill-6517" fill="#E8E0CA" points="12.5 14.9285714 0 14.9285714 0 16.5 12.5 16.5"></polygon>
                    <path d="M12.5,16.5 L0,16.5 L0,19.75875 L0,21.2142857 C0,21.6464286 0.351171875,22 0.78125,22 C1.2109375,22 1.69257812,21.6719643 1.85234375,21.2704643 L3.125,18.0714286 L12.5,18.0714286 L12.5,16.5 Z" id="Fill-6518" fill="#DCD0B3"></path>
                </g>
            </g>
        </g>
    </g>
</svg>