<?xml version="1.0" encoding="UTF-8"?>
<svg width="25px" height="27px" viewBox="0 0 25 27" version="1.1" xmlns="http://www.w3.org/2000/svg" xmlns:xlink="http://www.w3.org/1999/xlink">
    <!-- Generator: Sketch 44.1 (41455) - http://www.bohemiancoding.com/sketch -->
    <title>buildings</title>
    <desc>Created with Sketch.</desc>
    <defs></defs>
    <g id="Page-1" stroke="none" stroke-width="1" fill="none" fill-rule="evenodd">
        <g id="04-BV-PF-Step4" transform="translate(-268.000000, -562.000000)">
            <g id="Group-6" transform="translate(228.000000, 256.000000)">
                <g id="buildings" transform="translate(40.000000, 306.000000)">
                    <polygon id="Fill-7534" fill="#DCD0B3" points="15 6.75 6.66666667 6.75 6.66666667 3.375 15 3.375"></polygon>
                    <polygon id="Fill-7535" fill="#C4B694" points="16.6666667 27 5 27 5 6.75 16.6666667 6.75"></polygon>
                    <polygon id="Fill-7536" fill="#E8E0CA" points="8.33333333 11.8125 0 11.8125 0 27 8.33333333 27"></polygon>
                    <polygon id="Fill-7537" fill="#C4B694" points="5.83333333 24.46875 2.5 24.46875 2.5 27 5.83333333 27"></polygon>
                    <polygon id="Fill-7538" fill="#E56C2B" points="7.5 3.375 10.8333333 0 14.1666667 3.375"></polygon>
                    <polygon id="Fill-7539" fill="#97EEE0" points="7.5 10.125 6.66666667 10.125 6.66666667 8.4375 7.5 8.4375"></polygon>
                    <polygon id="Fill-7540" fill="#97EEE0" points="10 10.125 9.16666667 10.125 9.16666667 8.4375 10 8.4375"></polygon>
                    <polygon id="Fill-7541" fill="#97EEE0" points="10 13.5 9.16666667 13.5 9.16666667 11.8125 10 11.8125"></polygon>
                    <polygon id="Fill-7542" fill="#97EEE0" points="12.5 10.125 11.6666667 10.125 11.6666667 8.4375 12.5 8.4375"></polygon>
                    <polygon id="Fill-7543" fill="#97EEE0" points="12.5 13.5 11.6666667 13.5 11.6666667 11.8125 12.5 11.8125"></polygon>
                    <polygon id="Fill-7544" fill="#97EEE0" points="15 10.125 14.1666667 10.125 14.1666667 8.4375 15 8.4375"></polygon>
                    <polygon id="Fill-7545" fill="#97EEE0" points="15 13.5 14.1666667 13.5 14.1666667 11.8125 15 11.8125"></polygon>
                    <polygon id="Fill-7546" fill="#97EEE0" points="8.75 5.90625 7.91666667 5.90625 7.91666667 4.21875 8.75 4.21875"></polygon>
                    <polygon id="Fill-7547" fill="#97EEE0" points="10.4166667 5.90625 9.58333333 5.90625 9.58333333 4.21875 10.4166667 4.21875"></polygon>
                    <polygon id="Fill-7548" fill="#97EEE0" points="12.0833333 5.90625 11.25 5.90625 11.25 4.21875 12.0833333 4.21875"></polygon>
                    <polygon id="Fill-7549" fill="#97EEE0" points="13.75 5.90625 12.9166667 5.90625 12.9166667 4.21875 13.75 4.21875"></polygon>
                    <path d="M24.1658333,17.296875 C24.0275,17.296875 23.8875,17.2618594 23.7579167,17.1884531 L17.5,13.6244531 L11.2416667,17.1884531 C11.1125,17.2622813 10.9720833,17.2935 10.8333333,17.2930781 L10.8333333,27 L24.1666667,27 L24.1666667,17.296875 L24.1658333,17.296875 Z" id="Fill-7550" fill="#E8E0CA"></path>
                    <path d="M24.1658333,17.2969594 C24.0275,17.2969594 23.8875,17.2619438 23.7579167,17.1885375 L17.5,13.6241156 L11.2416667,17.1885375 C10.8404167,17.4171938 10.3325,17.2729125 10.1070833,16.8666469 C9.88125,16.4608031 10.02375,15.9461156 10.4245833,15.7178813 L17.5,11.6881313 L24.575,15.7178813 C24.97625,15.9461156 25.11875,16.4608031 24.8929167,16.8666469 C24.74,17.1421313 24.4570833,17.2969594 24.1658333,17.2969594" id="Fill-7551" fill="#E56C2B"></path>
                    <path d="M19.1666667,25.3125 C19.1666667,24.3805781 18.4204167,23.625 17.5,23.625 C16.5795833,23.625 15.8333333,24.3805781 15.8333333,25.3125 L15.8333333,27 L19.1666667,27 L19.1666667,25.3125 Z" id="Fill-7552" fill="#C4B694"></path>
                    <polygon id="Fill-7553" fill="#E7FFFB" points="6.66666667 22.78125 5 22.78125 5 21.09375 6.66666667 21.09375"></polygon>
                    <polygon id="Fill-7554" fill="#E7FFFB" points="3.33333333 22.78125 1.66666667 22.78125 1.66666667 21.09375 3.33333333 21.09375"></polygon>
                    <polygon id="Fill-7555" fill="#E7FFFB" points="6.66666667 19.40625 5 19.40625 5 17.71875 6.66666667 17.71875"></polygon>
                    <polygon id="Fill-7556" fill="#E7FFFB" points="3.33333333 19.40625 1.66666667 19.40625 1.66666667 17.71875 3.33333333 17.71875"></polygon>
                    <polygon id="Fill-7557" fill="#E7FFFB" points="6.66666667 16.03125 5 16.03125 5 14.34375 6.66666667 14.34375"></polygon>
                    <polygon id="Fill-7558" fill="#E7FFFB" points="3.33333333 16.03125 1.66666667 16.03125 1.66666667 14.34375 3.33333333 14.34375"></polygon>
                    <polygon id="Fill-7559" fill="#E7FFFB" points="15 18.984375 13.3333333 18.984375 13.3333333 17.296875 15 17.296875"></polygon>
                    <polygon id="Fill-7560" fill="#E7FFFB" points="15 22.359375 13.3333333 22.359375 13.3333333 20.671875 15 20.671875"></polygon>
                    <polygon id="Fill-7561" fill="#E7FFFB" points="18.3333333 18.984375 16.6666667 18.984375 16.6666667 17.296875 18.3333333 17.296875"></polygon>
                    <polygon id="Fill-7562" fill="#E7FFFB" points="18.3333333 22.359375 16.6666667 22.359375 16.6666667 20.671875 18.3333333 20.671875"></polygon>
                    <polygon id="Fill-7563" fill="#E7FFFB" points="21.6666667 18.984375 20 18.984375 20 17.296875 21.6666667 17.296875"></polygon>
                    <polygon id="Fill-7564" fill="#E7FFFB" points="21.6666667 22.359375 20 22.359375 20 20.671875 21.6666667 20.671875"></polygon>
                    <polygon id="Fill-7565" fill="#FF8848" points="10.8333333 0 7.5 3.375 10.8333333 3.375"></polygon>
                </g>
            </g>
        </g>
    </g>
</svg>