<?xml version="1.0" encoding="UTF-8"?>
<svg width="25px" height="25px" viewBox="0 0 25 25" version="1.1" xmlns="http://www.w3.org/2000/svg" xmlns:xlink="http://www.w3.org/1999/xlink">
    <!-- Generator: Sketch 44.1 (41455) - http://www.bohemiancoding.com/sketch -->
    <title>Built</title>
    <desc>Created with Sketch.</desc>
    <defs></defs>
    <g id="Page-1" stroke="none" stroke-width="1" fill="none" fill-rule="evenodd">
        <g id="04-BV-PF-Step4" transform="translate(-268.000000, -476.000000)">
            <g id="Group-6" transform="translate(228.000000, 256.000000)">
                <g id="Built" transform="translate(40.000000, 220.000000)">
                    <path d="M0,24.21875 C0,24.6503906 0.35,25 0.78125,25 L7.03125,25 C7.4625,25 7.8125,24.6503906 7.8125,24.21875 L7.8125,21.09375 C7.8125,20.6621094 7.4625,20.3125 7.03125,20.3125 L0.78125,20.3125 C0.35,20.3125 0,20.6621094 0,21.09375 L0,24.21875 Z" id="Fill-6635" fill="#E56C2B"></path>
                    <path d="M4.6875,15.625 L4.6875,18.75 C4.6875,19.1796875 4.3359375,19.53125 3.90625,19.53125 L0,19.53125 L0,14.84375 L3.90625,14.84375 C4.3359375,14.84375 4.6875,15.1953125 4.6875,15.625" id="Fill-6636" fill="#E56C2B"></path>
                    <path d="M5.46875,18.75 C5.46875,19.1816406 5.81875,19.53125 6.25,19.53125 L12.5,19.53125 C12.93125,19.53125 13.28125,19.1816406 13.28125,18.75 L13.28125,15.625 C13.28125,15.1933594 12.93125,14.84375 12.5,14.84375 L6.25,14.84375 C5.81875,14.84375 5.46875,15.1933594 5.46875,15.625 L5.46875,18.75 Z" id="Fill-6637" fill="#E56C2B"></path>
                    <path d="M4.6875,4.6875 L4.6875,7.8125 C4.6875,8.2421875 4.3359375,8.59375 3.90625,8.59375 L0,8.59375 L0,3.90625 L3.90625,3.90625 C4.3359375,3.90625 4.6875,4.2578125 4.6875,4.6875" id="Fill-6638" fill="#E56C2B"></path>
                    <path d="M5.46875,7.8125 C5.46875,8.24414063 5.81875,8.59375 6.25,8.59375 L12.5,8.59375 C12.93125,8.59375 13.28125,8.24414063 13.28125,7.8125 L13.28125,4.6875 C13.28125,4.25585937 12.93125,3.90625 12.5,3.90625 L6.25,3.90625 C5.81875,3.90625 5.46875,4.25585937 5.46875,4.6875 L5.46875,7.8125 Z" id="Fill-6639" fill="#E56C2B"></path>
                    <path d="M14.0625,18.75 C14.0625,19.1816406 14.4125,19.53125 14.84375,19.53125 L21.09375,19.53125 C21.525,19.53125 21.875,19.1816406 21.875,18.75 L21.875,15.625 C21.875,15.1933594 21.525,14.84375 21.09375,14.84375 L14.84375,14.84375 C14.4125,14.84375 14.0625,15.1933594 14.0625,15.625 L14.0625,18.75 Z" id="Fill-6640" fill="#E56C2B"></path>
                    <path d="M8.59375,24.21875 C8.59375,24.6503906 8.94375,25 9.375,25 L15.625,25 C16.05625,25 16.40625,24.6503906 16.40625,24.21875 L16.40625,21.09375 C16.40625,20.6621094 16.05625,20.3125 15.625,20.3125 L9.375,20.3125 C8.94375,20.3125 8.59375,20.6621094 8.59375,21.09375 L8.59375,24.21875 Z" id="Fill-6641" fill="#E56C2B"></path>
                    <path d="M0,13.28125 C0,13.7128906 0.35,14.0625 0.78125,14.0625 L7.03125,14.0625 C7.4625,14.0625 7.8125,13.7128906 7.8125,13.28125 L7.8125,10.15625 C7.8125,9.72460937 7.4625,9.375 7.03125,9.375 L0.78125,9.375 C0.35,9.375 0,9.72460937 0,10.15625 L0,13.28125 Z" id="Fill-6642" fill="#E56C2B"></path>
                    <path d="M7.8125,0 L7.8125,2.34375 C7.8125,2.7734375 7.4609375,3.125 7.03125,3.125 L0.78125,3.125 C0.3515625,3.125 0,2.7734375 0,2.34375 L0,0 L7.8125,0 Z" id="Fill-6643" fill="#E56C2B"></path>
                    <path d="M17.1875,24.21875 C17.1875,24.6503906 17.5375,25 17.96875,25 L24.21875,25 C24.65,25 25,24.6503906 25,24.21875 L25,21.09375 C25,20.6621094 24.65,20.3125 24.21875,20.3125 L17.96875,20.3125 C17.5375,20.3125 17.1875,20.6621094 17.1875,21.09375 L17.1875,24.21875 Z" id="Fill-6644" fill="#E56C2B"></path>
                    <path d="M8.98324219,13.9534766 C9.92308594,12.3347266 10.9308984,10.8077734 12.0090234,9.37496094 L9.37503906,9.37496094 C8.94339844,9.37496094 8.59378906,9.72496094 8.59378906,10.1562109 L8.59378906,13.2812109 C8.59378906,13.5691016 8.75121094,13.8179297 8.98324219,13.9534766" id="Fill-6645" fill="#E56C2B"></path>
                    <path d="M8.29800781,15.1685156 C8.15230469,15.4360938 8.17574219,15.7642188 8.35777344,16.0083594 C8.53980469,16.2528906 8.84722656,16.3692969 9.14527344,16.3064063 C12.1980078,15.661875 15.0628516,14.7657813 17.7394141,13.6169531 C17.9593359,13.5228125 18.1237891,13.3329688 18.1858984,13.1017188 C18.2480078,12.8708594 18.2015234,12.6235938 18.0585547,12.4317969 L14.5601172,7.73648438 C14.4171484,7.54429688 14.1941016,7.42867188 13.9546484,7.42203125 C13.7155859,7.41578125 13.4862891,7.51929688 13.3331641,7.70289063 C11.4667578,9.93921875 9.78863281,12.4278906 8.29800781,15.1685156" id="Fill-6646" fill="#5F5F5F"></path>
                    <path d="M14.5599219,7.73640625 C14.4169531,7.54460937 14.1939063,7.42859375 13.9548438,7.42234375 C13.7153906,7.41570313 13.4864844,7.51921875 13.3329688,7.7028125 C11.4669531,9.93953125 9.7884375,12.4278125 8.29820313,15.1684375 C8.1525,15.4360156 8.1759375,15.7641406 8.35796875,16.0082812 C8.3665625,16.0203906 8.3790625,16.0282031 8.38882813,16.0395313 L16.2657813,10.0258594 L14.5599219,7.73640625 Z" id="Fill-6647" fill="#9A949C"></path>
                    <path d="M18.8485156,5.06917969 C18.4250781,5.37582031 17.7852344,5.86605469 17.2871875,6.36449219 C16.3914844,7.26019531 16.3914844,8.17621094 16.3914844,8.98441406 C16.3914844,9.85316406 15.5215625,10.1641016 15.4864063,10.1762109 C15.2817188,10.2445703 15.1711719,10.4656641 15.2395313,10.6703516 C15.3082813,10.8762109 15.5305469,10.9855859 15.7336719,10.9176172 C15.7926563,10.8976953 17.1727344,10.4211328 17.1727344,8.98441406 C17.1727344,8.23285156 17.1727344,7.58363281 17.8395313,6.91683594 C18.3078906,6.44847656 18.9317188,5.97347656 19.3332813,5.68324219 L18.8485156,5.06917969 Z" id="Fill-6648" fill="#E8E0CA"></path>
                    <path d="M20.1030859,6.02832031 C19.9339453,6.16191406 19.6882422,6.13300781 19.5542578,5.96347656 L18.5862891,4.73691406 C18.4526953,4.56777344 18.4819922,4.32207031 18.6511328,4.18847656 L23.2507422,0.558789063 C23.5894141,0.291210938 24.0808203,0.349414063 24.3480078,0.688085937 L24.8319922,1.30136719 C25.0991797,1.64003906 25.0413672,2.13105469 24.7026953,2.39863281 L20.1030859,6.02832031 Z" id="Fill-6649" fill="#C4B694"></path>
                    <path d="M24.3480859,0.68796875 C24.0808984,0.349296875 23.5894922,0.291484375 23.2508203,0.558671875 L18.6512109,4.18835937 C18.4816797,4.32195312 18.4527734,4.56765625 18.5863672,4.7371875 L19.0676172,5.34695312 L24.6570703,1.07976562 L24.3480859,0.68796875 Z" id="Fill-6650" fill="#DCD0B3"></path>
                </g>
            </g>
        </g>
    </g>
</svg>