<?xml version="1.0" encoding="UTF-8"?>
<svg width="160px" height="24px" viewBox="0 0 160 24" version="1.1" xmlns="http://www.w3.org/2000/svg" xmlns:xlink="http://www.w3.org/1999/xlink">
    <!-- Generator: Sketch 44.1 (41455) - http://www.bohemiancoding.com/sketch -->
    <title>bv_logo-D</title>
    <desc>Created with Sketch.</desc>
    <defs>
        <linearGradient x1="50.0000882%" y1="79.1060433%" x2="50.0000894%" y2="19.4728559%" id="linearGradient-1">
            <stop stop-color="#80B44B" offset="0%"></stop>
            <stop stop-color="#69A543" offset="100%"></stop>
        </linearGradient>
    </defs>
    <g id="Page-1" stroke="none" stroke-width="1" fill="none" fill-rule="evenodd">
        <g id="04-BV-PF-Step4" transform="translate(-130.000000, -13.000000)">
            <g id="Header" transform="translate(-9.000000, 0.000000)">
                <g id="bv_logo-D" transform="translate(139.000000, 13.000000)">
                    <path d="M0,3.21982301 C0,2.4 0.4,1.76070796 1.34179894,1.76070796 L5.76507937,1.76070796 C9.36296296,1.76070796 11.2465608,4.46442478 11.2465608,6.92389381 C11.2465608,9.29415929 10.0761905,11.1164602 8.42116402,11.6623009 L8.42116402,11.7238938 C10.8761905,11.9978761 12.8169312,14.2152212 12.8169312,17.0697345 C12.8169312,20.4679646 10.4486772,23.3883186 6.16507937,23.3883186 L1.34179894,23.3883186 C0.4,23.3883186 0,22.7511504 0,21.9292035 L0,3.21982301 Z M2.51216931,10.9040708 L5.36719577,10.9040708 C7.50899471,10.9040708 8.73650794,9.38548673 8.73650794,7.41026549 C8.73650794,5.43504425 7.67830688,4.07150442 5.44338624,4.07150442 L2.51216931,4.07150442 L2.51216931,10.9040708 Z M2.51216931,21.079646 L6.05079365,21.079646 C8.50582011,21.079646 10.3047619,19.4697345 10.3047619,17.0697345 C10.3047619,14.8523894 8.79153439,13.0895575 6.16507937,13.0895575 L2.51216931,13.0895575 L2.51216931,21.079646 Z" id="Shape" fill="#FFFFFF"></path>
                    <path d="M16.1312169,16.3433628 C16.1312169,19.1044248 17.7862434,21.2644248 20.6137566,21.2644248 C23.9534392,21.2644248 24.810582,19.0768142 25.752381,19.0768142 C26.2095238,19.0768142 26.6666667,19.5015929 26.6666667,20.2619469 C26.6666667,21.5681416 23.5555556,23.5730973 20.5862434,23.5730973 C15.7333333,23.5730973 13.621164,19.5929204 13.621164,15.3111504 C13.621164,10.9380531 16.1904762,7.04920354 20.4444444,7.04920354 C24.584127,7.04920354 26.9820106,11.0293805 26.9820106,14.9076106 C26.9820106,15.8484956 26.6666667,16.3348673 25.5830688,16.3348673 L16.1312169,16.3433628 Z M24.4656085,14.3384071 C24.4656085,12.0297345 23.210582,9.35575221 20.4444444,9.35575221 C17.3333333,9.23469027 16.2116402,11.8768142 16.1333333,14.3384071 L24.4656085,14.3384071 Z" id="Shape" fill="#FFFFFF"></path>
                    <path d="M30.1820106,16.3433628 C30.1820106,19.1044248 31.837037,21.2644248 34.6645503,21.2644248 C38.0042328,21.2644248 38.8613757,19.0768142 39.8031746,19.0768142 C40.2603175,19.0768142 40.7174603,19.5015929 40.7174603,20.2619469 C40.7174603,21.5681416 37.6063492,23.5730973 34.637037,23.5730973 C29.7820106,23.5646018 27.6656085,19.5929204 27.6656085,15.3090265 C27.6656085,10.9359292 30.2349206,7.04707965 34.4867725,7.04707965 C38.626455,7.04707965 41.0243386,11.0272566 41.0243386,14.9054867 C41.0243386,15.8463717 40.7111111,16.3327434 39.6253968,16.3327434 L30.1820106,16.3433628 Z M38.5164021,14.3384071 C38.5164021,12.0297345 37.2613757,9.35575221 34.4952381,9.35575221 C31.384127,9.23469027 30.2624339,11.8768142 30.184127,14.3384071 L38.5164021,14.3384071 Z" id="Shape" fill="#FFFFFF"></path>
                    <path d="M42.2349206,8.48495575 C42.2349206,7.60353982 42.7195767,7.05769912 43.4920635,7.05769912 C44.2645503,7.05769912 44.7470899,7.60353982 44.7470899,8.48495575 L44.7470899,9.12212389 L44.8042328,9.18371681 C45.772986,7.82970845 47.3402229,7.03657459 49.0010582,7.05982301 C51.3417989,7.05982301 54.2920635,8.64 54.2920635,13.1957522 L54.2920635,22.1564602 C54.2920635,23.0378761 53.8074074,23.5837168 53.0349206,23.5837168 C52.2624339,23.5837168 51.7798942,23.0378761 51.7798942,22.1564602 L51.7798942,13.3359292 C51.7798942,10.5111504 49.9238095,9.35575221 48.2687831,9.35575221 C46.6137566,9.35575221 44.757672,10.5090265 44.757672,13.3359292 L44.757672,22.1458407 C44.757672,23.0272566 44.2730159,23.5730973 43.5026455,23.5730973 C42.7322751,23.5730973 42.2455026,23.0272566 42.2455026,22.1458407 L42.2349206,8.48495575 Z" id="Shape" fill="#FFFFFF"></path>
                    <path d="M54.4359788,4.89132743 C54.2985683,4.53305834 54.2310301,4.15163129 54.237037,3.76778761 C54.2428684,2.55539768 55.2257401,1.57664865 56.4338624,1.58017699 C57.405291,1.58017699 58.0042328,2.24920354 58.3746032,3.06690265 L62.7978836,15.7061947 L67.221164,3.07115044 C67.5936508,2.25132743 68.1925926,1.58442478 69.1619048,1.58442478 C70.3700271,1.58089644 71.3528988,2.55964547 71.3587302,3.7720354 C71.3644747,4.1558579 71.2969454,4.53723532 71.1597884,4.89557522 L64.9142857,21.8102655 C64.5417989,22.7830088 64.0677249,23.5709735 62.7978836,23.5709735 C61.5280423,23.5709735 61.0560847,22.780885 60.6814815,21.8102655 L54.4359788,4.89132743 Z" id="Shape" fill="url(#linearGradient-1)"></path>
                    <path d="M73.3671958,16.7681416 C73.6529101,18.9260177 75.3354497,19.9284956 77.2486772,19.9284956 C79.3650794,19.9284956 80.8169312,18.1656637 81.9047619,18.1656637 C82.789418,18.1656637 83.5978836,19.1065487 83.5978836,20.0495575 C83.5978836,21.9334513 79.9449735,23.7557522 76.8888889,23.7557522 C72.2645503,23.7557522 69.1830688,20.1727434 69.1830688,15.3430088 C69.1830688,10.9083186 72.2095238,6.86867257 76.5460317,6.86867257 C80.9904762,6.86867257 83.9407407,11.1823009 83.9407407,14.8269027 C83.9407407,16.1330973 83.3989418,16.7702655 82.1417989,16.7702655 L73.3671958,16.7681416 Z M79.8179894,13.8520354 C79.589418,11.940531 78.4486772,10.5111504 76.5354497,10.5111504 C74.7089947,10.5111504 73.4814815,11.9978761 73.2825397,13.8520354 L79.8179894,13.8520354 Z" id="Shape" fill="url(#linearGradient-1)"></path>
                    <path d="M85.3248677,9.23469027 C85.2959666,8.6572207 85.5074823,8.09366634 85.9088229,7.67882222 C86.3101636,7.2639781 86.8652345,7.03515324 87.4412698,7.04707965 C88.5248677,7.04707965 89.4391534,7.47185841 89.4391534,8.86938053 L89.4962963,8.86938053 C90.2666667,7.65451327 91.0941799,7.04707965 92.378836,7.04707965 C93.3777778,7.04707965 94.3767196,7.80743363 94.3767196,9.38336283 C94.3767196,10.8106195 93.1492063,10.9019469 91.9216931,11.5072566 C90.6941799,12.1125664 89.4391534,12.6923894 89.4391534,14.4233628 L89.4391534,21.1369912 C89.4391534,22.5939823 88.5925926,23.5667257 87.384127,23.5667257 C86.1756614,23.5667257 85.3291005,22.5939823 85.3291005,21.1369912 L85.3248677,9.23469027 Z" id="Shape" fill="url(#linearGradient-1)"></path>
                    <path d="M99.2,2.88637168 C99.2,4.25415929 98.173545,5.40743363 96.8888889,5.40743363 C95.6613757,5.40743363 94.5756614,4.22230088 94.5756614,2.88637168 C94.5756614,1.63964602 95.6592593,0.486371681 96.8888889,0.486371681 C98.1185185,0.486371681 99.2,1.6099115 99.2,2.88637168 Z M94.8338624,9.47044248 C94.8338624,8.01345133 95.6804233,7.04070796 96.8888889,7.04070796 C98.0973545,7.04070796 98.9439153,8.01345133 98.9439153,9.47044248 L98.9439153,21.1348673 C98.9439153,22.5918584 98.0973545,23.5646018 96.8888889,23.5646018 C95.6804233,23.5646018 94.8338624,22.5918584 94.8338624,21.1348673 L94.8338624,9.47044248 Z" id="Shape" fill="url(#linearGradient-1)"></path>
                    <path d="M102.162963,11.0569912 L101.248677,11.0569912 C100.13545,11.0569912 99.4497354,10.3284956 99.4497354,9.14548673 C99.4497354,8.05168142 100.220106,7.2339823 101.248677,7.2339823 L102.162963,7.2339823 L102.162963,4.98265487 C102.162963,1.76283186 103.961905,0 106.474074,0 C107.930159,0 109.329101,0.456637168 109.329101,1.97522124 C109.329101,3.24955752 108.787302,3.82725664 107.635979,3.82725664 C106.950265,3.82725664 106.266667,3.82725664 106.266667,5.43716814 L106.266667,7.22973451 L107.551323,7.22973451 C108.778836,7.22973451 109.635979,7.74584071 109.635979,9.14123894 C109.635979,10.5366372 108.751323,11.0527434 107.551323,11.0527434 L106.266667,11.0527434 L106.266667,21.1369912 C106.266667,22.5939823 105.420106,23.5667257 104.21164,23.5667257 C103.003175,23.5667257 102.162963,22.600354 102.162963,21.1412389 L102.162963,11.0569912 Z" id="Shape" fill="url(#linearGradient-1)"></path>
                    <path d="M114.774603,2.88637168 C114.774603,4.25415929 113.746032,5.40743363 112.463492,5.40743363 C111.235979,5.40743363 110.150265,4.22230088 110.150265,2.88637168 C110.150265,1.63964602 111.235979,0.486371681 112.463492,0.486371681 C113.691005,0.486371681 114.774603,1.6099115 114.774603,2.88637168 Z M110.416931,9.47681416 C110.416931,8.01982301 111.263492,7.04707965 112.471958,7.04707965 C113.680423,7.04707965 114.526984,8.01982301 114.526984,9.47681416 L114.526984,21.1412389 C114.526984,22.5982301 113.680423,23.5709735 112.471958,23.5709735 C111.263492,23.5709735 110.416931,22.600354 110.416931,21.1412389 L110.416931,9.47681416 Z" id="Shape" fill="url(#linearGradient-1)"></path>
                    <path d="M120.112169,16.7681416 C120.397884,18.9260177 122.08254,19.9284956 123.993651,19.9284956 C126.110053,19.9284956 127.561905,18.1656637 128.649735,18.1656637 C129.534392,18.1656637 130.342857,19.1065487 130.342857,20.0495575 C130.342857,21.9334513 126.689947,23.7557522 123.633862,23.7557522 C118.998942,23.7536283 115.919577,20.1663717 115.919577,15.340885 C115.919577,10.9061947 118.946032,6.86654867 123.284656,6.86654867 C127.729101,6.86654867 130.677249,11.180177 130.677249,14.8247788 C130.677249,16.1309735 130.13545,16.7681416 128.878307,16.7681416 L120.112169,16.7681416 Z M126.562963,13.8520354 C126.334392,11.940531 125.193651,10.5111504 123.280423,10.5111504 C121.453968,10.5111504 120.226455,11.9978761 120.025397,13.8520354 L126.562963,13.8520354 Z" id="Shape" fill="url(#linearGradient-1)"></path>
                    <path d="M152.110053,23.1738053 C152.110053,22.7878902 152.421795,22.4750442 152.806349,22.4750442 C153.190903,22.4750442 153.502646,22.7878902 153.502646,23.1738053 C153.502646,23.5597204 153.190903,23.8725664 152.806349,23.8725664 C152.421795,23.8725664 152.110053,23.5597204 152.110053,23.1738053 Z" id="Shape" fill="#FFFFFF"></path>
                    <path d="M149.974603,18.4056637 C149.974603,18.7263717 149.724868,19.0130973 149.724868,19.4251327 C149.724868,20.1578761 150.374603,20.5083186 151.034921,20.5083186 C151.695238,20.5083186 152.328042,20.1238938 152.328042,19.4251327 C152.328042,19.1044248 152.061376,18.620177 152.061376,18.4672566 C152.067126,18.1602195 152.316216,17.9140206 152.622222,17.9129204 C153.28254,17.9129204 153.504762,19.0215929 153.504762,19.4867257 C153.504762,20.8736283 152.372487,21.7953982 151.034921,21.7953982 C149.733333,21.7953982 148.546032,20.8481416 148.546032,19.4867257 C148.546032,18.9769912 148.732275,17.9129204 149.356614,17.9129204 C149.627513,17.9150442 149.974603,18.1019469 149.974603,18.4056637 Z" id="Shape" fill="#FFFFFF"></path>
                    <path d="M151.034921,13.0385841 C152.372487,13.0385841 153.504762,13.960354 153.504762,15.3472566 C153.504762,16.7341593 152.372487,17.6559292 151.034921,17.6559292 C149.733333,17.6559292 148.546032,16.7086726 148.546032,15.3472566 C148.546032,13.9858407 149.733333,13.0385841 151.034921,13.0385841 Z M151.034921,16.3667257 C151.648677,16.3667257 152.328042,16.0438938 152.328042,15.3472566 C152.328042,14.6506195 151.650794,14.3277876 151.034921,14.3277876 C150.419048,14.3277876 149.724868,14.6421239 149.724868,15.3472566 C149.724868,16.0523894 150.416931,16.3667257 151.034921,16.3667257 Z" id="Shape" fill="#FFFFFF"></path>
                    <path d="M149.314286,12.4906195 C149.133664,12.5090967 148.953608,12.4506381 148.817999,12.3294904 C148.682389,12.2083428 148.603682,12.0356328 148.601058,11.8534513 C148.573893,11.5580734 148.787657,11.2953565 149.081481,11.2630088 C148.740608,10.9588624 148.54572,10.5228702 148.546032,10.0651327 C148.538825,9.54211597 148.780071,9.04687457 149.195767,8.73132743 C148.805041,8.38406931 148.570725,7.89309766 148.546032,7.3699115 C148.546032,6.32283186 149.153439,5.60707965 150.275132,5.60707965 L152.744974,5.60707965 C153.099721,5.60707965 153.387302,5.89567769 153.387302,6.25168142 C153.387302,6.60768514 153.099721,6.89628319 152.744974,6.89628319 L150.501587,6.89628319 C149.985185,6.89628319 149.619048,7.18300885 149.619048,7.64814159 C149.619048,8.11327434 149.985185,8.40849558 150.501587,8.40849558 L152.744974,8.40849558 C153.099721,8.40849558 153.387302,8.69709362 153.387302,9.05309735 C153.387302,9.40910107 153.099721,9.69769912 152.744974,9.69769912 L150.501587,9.69769912 C149.985185,9.69769912 149.619048,9.98442478 149.619048,10.4495575 C149.619048,10.9784071 149.985185,11.2099115 150.501587,11.2099115 L152.744974,11.2099115 C153.099137,11.2099115 153.386243,11.4980341 153.386243,11.8534513 C153.386243,12.2088686 153.099137,12.4969912 152.744974,12.4969912 L149.314286,12.4906195 Z" id="Shape" fill="#FFFFFF"></path>
                    <path d="M144.116402,0 C142.918519,0 142.061376,0.972743363 142.061376,2.42973451 L142.061376,8.37663717 C140.991419,7.3949053 139.591532,6.8548145 138.141799,6.86442478 C133.716402,6.86442478 131.519577,11.2693805 131.519577,15.5214159 C131.519577,19.6523894 134.146032,23.7536283 138.292063,23.7536283 C139.691005,23.7536283 141.288889,23.0846018 142.059259,21.7486726 C142.315344,22.9040708 142.971429,23.5709735 144.114286,23.5709735 C145.312169,23.5709735 146.169312,22.5982301 146.169312,21.1412389 L146.169312,2.42973451 C146.171429,0.972743363 145.314286,0 144.116402,0 Z M140.630688,15.4683186 L141.974603,19.0449558 L138.838095,16.7681416 L135.701587,19.0428319 L137.045503,15.4683186 L134.29418,13.4782301 L137.786243,13.4782301 L138.831746,10.6959292 L139.877249,13.4782301 L143.369312,13.4782301 L140.630688,15.4683186 Z" id="Shape" fill="url(#linearGradient-1)"></path>
                    <polygon id="Shape" fill="#FFFFFF" points="157.307937 0.492743363 157.307937 0.928141593 156.575661 0.928141593 156.575661 2.96283186 156.059259 2.96283186 156.059259 0.930265487 155.322751 0.930265487 155.322751 0.492743363"></polygon>
                    <polygon id="Shape" fill="#FFFFFF" points="159.235979 0.492743363 159.974603 0.492743363 159.974603 2.96283186 159.496296 2.96283186 159.496296 1.28920354 159.496296 1.08743363 159.496296 0.887787611 159.032804 2.96283186 158.53545 2.96283186 158.074074 0.896283186 158.074074 1.0959292 158.074074 1.29769912 158.074074 2.96283186 157.595767 2.96283186 157.595767 0.492743363 158.340741 0.492743363 158.787302 2.42761062"></polygon>
                </g>
            </g>
        </g>
    </g>
</svg>