<?xml version="1.0" encoding="UTF-8"?>
<svg width="25px" height="23px" viewBox="0 0 25 23" version="1.1" xmlns="http://www.w3.org/2000/svg" xmlns:xlink="http://www.w3.org/1999/xlink">
    <!-- Generator: Sketch 44.1 (41455) - http://www.bohemiancoding.com/sketch -->
    <title>county</title>
    <desc>Created with Sketch.</desc>
    <defs></defs>
    <g id="Page-1" stroke="none" stroke-width="1" fill="none" fill-rule="evenodd">
        <g id="04-BV-PF-Step4" transform="translate(-268.000000, -386.000000)">
            <g id="Group-6" transform="translate(228.000000, 256.000000)">
                <g id="county" transform="translate(40.000000, 130.000000)">
                    <path d="M14.84375,9.2 L17.1875,9.2 L17.1875,19.9333333 L14.84375,19.9333333 L14.84375,9.2 Z M7.8125,9.2 L10.15625,9.2 L10.15625,19.9333333 L7.8125,19.9333333 L7.8125,9.2 Z M25,9.2 L25,7.66666667 L12.5,0 L0,7.66666667 L0,9.2 L3.125,9.2 L3.125,19.9333333 L1.5625,19.9333333 L1.5625,21.4666667 L23.4375,21.4666667 L23.4375,19.9333333 L21.875,19.9333333 L21.875,9.2 L25,9.2 Z" id="Fill-3762" fill="#DDD0B3"></path>
                    <polygon id="Fill-3763" fill="#E9E0CA" points="4.6875 19.9333333 6.25 19.9333333 6.25 9.2 4.6875 9.2"></polygon>
                    <polygon id="Fill-3764" fill="#C4B694" points="4.6875 13.261225 4.6875 9.20019167 6.25 9.20019167 6.25 14.7945583"></polygon>
                    <polygon id="Fill-3765" fill="#E9E0CA" points="11.71875 19.9333333 13.28125 19.9333333 13.28125 9.2 11.71875 9.2"></polygon>
                    <polygon id="Fill-3766" fill="#C4B694" points="11.71875 13.261225 11.71875 9.20019167 13.28125 9.20019167 13.28125 14.7945583"></polygon>
                    <polygon id="Fill-3767" fill="#E8E0CA" points="18.75 19.9333333 20.3125 19.9333333 20.3125 9.2 18.75 9.2"></polygon>
                    <polygon id="Fill-3768" fill="#C4B694" points="18.75 13.261225 18.75 9.20019167 20.3125 9.20019167 20.3125 14.7945583"></polygon>
                    <polygon id="Fill-3769" fill="#C4B694" points="25 23 0 23 0 21.4666667 25 21.4666667"></polygon>
                    <polygon id="Fill-3770" fill="#C4B694" points="12.5 2.3 5.078125 6.9 12.5 6.9"></polygon>
                    <polygon id="Fill-3771" fill="#E8E0CA" points="12.5 2.3 19.921875 6.9 12.5 6.9"></polygon>
                </g>
            </g>
        </g>
    </g>
</svg>