<?xml version="1.0" encoding="UTF-8"?>
<svg width="25px" height="25px" viewBox="0 0 25 25" version="1.1" xmlns="http://www.w3.org/2000/svg" xmlns:xlink="http://www.w3.org/1999/xlink">
    <!-- Generator: Sketch 44.1 (41455) - http://www.bohemiancoding.com/sketch -->
    <title>house</title>
    <desc>Created with Sketch.</desc>
    <defs></defs>
    <g id="Page-1" stroke="none" stroke-width="1" fill="none" fill-rule="evenodd">
        <g id="04-BV-PF-Step4" transform="translate(-268.000000, -430.000000)">
            <g id="Group-6" transform="translate(228.000000, 256.000000)">
                <g id="house" transform="translate(40.000000, 174.000000)">
                    <polygon id="Fill-2263" fill="#E8E0CA" points="23.4375 23.4375 1.5625 23.4375 1.5625 9.375 23.4375 9.375"></polygon>
                    <path d="M21.875,2.34375 C21.875,1.91210937 21.525,1.5625 21.09375,1.5625 L19.53125,1.5625 C19.1,1.5625 18.75,1.91210937 18.75,2.34375 L18.75,7.03125 C18.75,7.46289063 19.1,7.8125 19.53125,7.8125 L21.09375,7.8125 C21.525,7.8125 21.875,7.46289063 21.875,7.03125 L21.875,2.34375 Z" id="Fill-2264" fill="#E8E0CA"></path>
                    <path d="M12.9796875,0.164570312 C12.6976563,-0.0549609375 12.3027344,-0.0549609375 12.0203125,0.164570312 L0.3015625,7.97707031 C0.03828125,8.18214844 -0.066015625,8.53175781 0.0421875,8.84738281 C0.15078125,9.16300781 0.447265625,9.37511719 0.78125,9.37511719 L24.21875,9.37511719 C24.5523438,9.37511719 24.8492188,9.16300781 24.9578125,8.84738281 C25.0660156,8.53175781 24.9617188,8.18214844 24.6984375,7.97707031 L12.9796875,0.164570312 Z" id="Fill-2265" fill="#E56B2A"></path>
                    <polygon id="Fill-2266" fill="#E7FFFB" points="21.875 18.4082031 13.671875 18.4082031 13.671875 12.5 21.875 12.5"></polygon>
                    <path d="M10.15625,15.625 C10.15625,13.8992187 8.75703125,12.5 7.03125,12.5 C5.30546875,12.5 3.90625,13.8992187 3.90625,15.625 L3.90625,21.875 L10.15625,21.875 L10.15625,15.625 Z" id="Fill-2267" fill="#C4B694"></path>
                    <path d="M9.375,17.96875 C9.375,18.4003906 9.025,18.75 8.59375,18.75 C8.1625,18.75 7.8125,18.4003906 7.8125,17.96875 C7.8125,17.5371094 8.1625,17.1875 8.59375,17.1875 C9.025,17.1875 9.375,17.5371094 9.375,17.96875" id="Fill-2268" fill="#FACB1B"></path>
                    <polygon id="Fill-2269" fill="#20BDA3" points="25 25 0 25 0 23.4375 25 23.4375"></polygon>
                    <path d="M0,23.4375 L1.21914063,22.2183594 C1.4390625,21.9984375 1.73710938,21.875 2.04804688,21.875 L22.9519531,21.875 C23.2628906,21.875 23.5609375,21.9984375 23.7808594,22.2183594 L25,23.4375 L0,23.4375 Z" id="Fill-2270" fill="#56CDB9"></path>
                </g>
            </g>
        </g>
    </g>
</svg>