<?xml version="1.0" encoding="UTF-8"?>
<svg width="25px" height="19px" viewBox="0 0 25 19" version="1.1" xmlns="http://www.w3.org/2000/svg" xmlns:xlink="http://www.w3.org/1999/xlink">
    <!-- Generator: Sketch 44.1 (41455) - http://www.bohemiancoding.com/sketch -->
    <title>LotSize</title>
    <desc>Created with Sketch.</desc>
    <defs></defs>
    <g id="Page-1" stroke="none" stroke-width="1" fill="none" fill-rule="evenodd">
        <g id="04-BV-PF-Step4" transform="translate(-268.000000, -522.000000)">
            <g id="Group-6" transform="translate(228.000000, 256.000000)">
                <g id="LotSize" transform="translate(40.000000, 266.000000)">
                    <polygon id="Fill-1" fill="#20BDA3" points="0 18.75 25 18.75 25 0 0 0"></polygon>
                    <polygon id="Fill-2" fill="#E8E0CA" points="6.167 17 23.167 17 23.167 5 6.167 5"></polygon>
                    <g id="Group-17" transform="translate(1.000000, 0.750000)">
                        <path d="M18.3476,6.1496 L18.3476,6.6696 L19.1276,6.6696 L19.1276,10.0496 L17.5676,10.0496 L17.5676,10.5696 L19.1276,10.5696 L19.1276,13.1476 C19.0966,13.3076 18.7536,14.7296 16.5276,14.7296 C14.2946,14.7296 13.9596,13.3196 13.9266,13.1476 L13.9266,10.5696 L15.4876,10.5696 L15.4876,10.0496 L13.4076,10.0496 L13.4076,12.6496 L9.7666,12.6496 L9.7666,13.6896 L7.6866,13.6896 L7.6866,10.0496 L9.2466,10.0496 L9.2466,9.5296 L7.6866,9.5296 L7.6866,6.4096 L10.8066,6.4096 L10.8066,10.0496 L11.3266,10.0496 L11.3266,7.1896 L14.4476,7.1896 L14.4476,6.6696 L11.3266,6.6696 L11.3266,5.8886 L7.1666,5.8886 L7.1666,14.2106 L10.2866,14.2106 L10.2866,13.1706 L13.4076,13.1706 C13.4456,13.7206 14.1516,15.2506 16.5276,15.2506 C19.3216,15.2506 19.6426,13.2266 19.6456,13.2066 L19.6476,6.1496 L18.3476,6.1496 Z" id="Fill-3" fill="#C4B694"></path>
                        <path d="M20.9726,2.2776 L2.8086,2.2776 C2.6466,2.2776 2.5156,2.1456 2.5156,1.9846 C2.5156,1.8226 2.6466,1.6916 2.8086,1.6916 L20.9726,1.6916 C21.1346,1.6916 21.2656,1.8226 21.2656,1.9846 C21.2656,2.1456 21.1346,2.2776 20.9726,2.2776" id="Fill-5" fill="#00554A"></path>
                        <polygon id="Fill-7" fill="#00554A" points="3.6709 3.4221 3.9109 3.1641 2.6419 1.9851 3.9109 0.8041 3.6709 0.5471 2.1249 1.9851"></polygon>
                        <polygon id="Fill-9" fill="#00554A" points="20.1103 3.4221 19.8703 3.1641 21.1393 1.9851 19.8703 0.8041 20.1103 0.5471 21.6563 1.9851"></polygon>
                        <path d="M1.7344,15.9494 C1.5734,15.9494 1.4414,15.8174 1.4414,15.6564 L1.4414,3.4494 C1.4414,3.2874 1.5734,3.1564 1.7344,3.1564 C1.8964,3.1564 2.0274,3.2874 2.0274,3.4494 L2.0274,15.6564 C2.0274,15.8174 1.8964,15.9494 1.7344,15.9494" id="Fill-11" fill="#00554A"></path>
                        <polygon id="Fill-13" fill="#00554A" points="3.1719 14.8908 2.9149 14.6518 1.7349 15.9208 0.5549 14.6518 0.2969 14.8908 1.7349 16.4378"></polygon>
                        <polygon id="Fill-15" fill="#00554A" points="3.1719 4.3117 2.9149 4.5517 1.7349 3.2817 0.5549 4.5517 0.2969 4.3117 1.7349 2.7657"></polygon>
                    </g>
                </g>
            </g>
        </g>
    </g>
</svg>