<?xml version="1.0" encoding="UTF-8"?>
<svg width="25px" height="24px" viewBox="0 0 25 24" version="1.1" xmlns="http://www.w3.org/2000/svg" xmlns:xlink="http://www.w3.org/1999/xlink">
    <!-- Generator: Sketch 44.1 (41455) - http://www.bohemiancoding.com/sketch -->
    <title>MoneyBag-Taxes</title>
    <desc>Created with Sketch.</desc>
    <defs></defs>
    <g id="Page-1" stroke="none" stroke-width="1" fill="none" fill-rule="evenodd">
        <g id="04-BV-PF-Step4" transform="translate(-540.000000, -431.000000)">
            <g id="Group-6" transform="translate(228.000000, 256.000000)">
                <g id="MoneyBag-Taxes" transform="translate(312.000000, 175.000000)">
                    <path d="M3.64589844,6.68852459 C1.17207031,8.26229508 0.0001953125,11.0163934 0.0001953125,12.9836066 L0.0001953125,20.852459 C0.0001953125,21.7215738 0.699414063,22.4262295 1.56230469,22.4262295 L4.68769531,22.4262295 L4.68769531,6.68852459 L3.64589844,6.68852459 Z" id="Fill-4408" fill="#DCD0B3"></path>
                    <path d="M5.72910156,6.68852459 C8.20292969,8.26229508 9.37480469,11.0163934 9.37480469,12.9836066 L9.37480469,20.852459 C9.37480469,21.7215738 8.67558594,22.4262295 7.81269531,22.4262295 L4.68730469,22.4262295 L4.68730469,6.68852459 L5.72910156,6.68852459 Z" id="Fill-4409" fill="#C4B694"></path>
                    <path d="M7.03125,3.93442623 C6.25,3.40996721 5.46875,3.14754098 4.6875,3.14754098 L4.6875,5.50819672 L5.859375,5.50819672 L7.03125,3.93442623 Z" id="Fill-4410" fill="#C4B694"></path>
                    <path d="M2.34375,3.93442623 L3.515625,5.50819672 L4.6875,5.50819672 L4.6875,3.14754098 C3.90625,3.14754098 3.125,3.40996721 2.34375,3.93442623" id="Fill-4411" fill="#DCD0B3"></path>
                    <path d="M19.2708984,6.68852459 C16.7970703,8.26229508 15.6251953,11.0163934 15.6251953,12.9836066 L15.6251953,20.852459 C15.6251953,21.7215738 16.3244141,22.4262295 17.1873047,22.4262295 L20.3126953,22.4262295 L20.3126953,6.68852459 L19.2708984,6.68852459 Z" id="Fill-4412" fill="#C4B694"></path>
                    <path d="M21.3541016,6.68852459 C23.8279297,8.26229508 24.9998047,11.0163934 24.9998047,12.9836066 L24.9998047,20.852459 C24.9998047,21.7215738 24.3005859,22.4262295 23.4376953,22.4262295 L20.3123047,22.4262295 L20.3123047,6.68852459 L21.3541016,6.68852459 Z" id="Fill-4413" fill="#DCD0B3"></path>
                    <path d="M22.65625,3.93442623 C21.875,3.40996721 21.09375,3.14754098 20.3125,3.14754098 L20.3125,5.50819672 L21.484375,5.50819672 L22.65625,3.93442623 Z" id="Fill-4414" fill="#DCD0B3"></path>
                    <path d="M17.96875,3.93442623 L19.140625,5.50819672 L20.3125,5.50819672 L20.3125,3.14754098 C19.53125,3.14754098 18.75,3.40996721 17.96875,3.93442623" id="Fill-4415" fill="#C4B694"></path>
                    <path d="M20.3125,12.9834098 C20.3125,9.94131148 16.015625,5.11455738 14.453125,5.11455738 L10.546875,5.11455738 C8.984375,5.11455738 4.6875,9.94131148 4.6875,12.9834098 L4.6875,22.4260328 C4.6875,23.2951475 5.38710938,23.9998033 6.25,23.9998033 L18.75,23.9998033 C19.6128906,23.9998033 20.3125,23.2951475 20.3125,22.4260328 L20.3125,12.9834098 Z" id="Fill-4416" fill="#DCD0B3"></path>
                    <path d="M10.546875,5.1147541 C8.984375,5.1147541 4.6875,9.9415082 4.6875,12.9836066 L4.6875,22.4262295 C4.6875,23.2953443 5.38710938,24 6.25,24 L12.5,24 L12.5,5.1147541 L10.546875,5.1147541 Z" id="Fill-4417" fill="#E8E0CA"></path>
                    <path d="M10.9375,3.54098361 L9.375,1.18032787 C11.4582031,-0.393442623 13.5417969,-0.393442623 15.625,1.18032787 L14.0625,3.54098361 L10.9375,3.54098361 Z" id="Fill-4418" fill="#DCD0B3"></path>
                    <path d="M17.1875,15.3442623 C17.1875,17.9516066 15.0886719,20.0655738 12.5,20.0655738 C9.91132812,20.0655738 7.8125,17.9516066 7.8125,15.3442623 C7.8125,12.736918 9.91132812,10.6229508 12.5,10.6229508 C15.0886719,10.6229508 17.1875,12.736918 17.1875,15.3442623" id="Fill-4419" fill="#20BDA3"></path>
                    <path d="M9.375,1.18032787 L10.9375,3.54098361 L12.5,3.54098361 L12.5,0 C11.4582031,0 10.4167969,0.393442623 9.375,1.18032787" id="Fill-4420" fill="#E8E0CA"></path>
                    <path d="M5.859375,5.50819672 L3.515625,5.50819672 C3.3,5.50819672 3.125,5.68445902 3.125,5.90163934 L3.125,5.96380328 L1.93984375,6.75108197 C1.88203125,6.78963934 1.84179688,6.84944262 1.828125,6.91790164 C1.81445313,6.98636066 1.828125,7.05757377 1.86679688,7.11540984 L2.04726563,7.38845902 C2.09296875,7.45770492 2.16875,7.50059016 2.25117188,7.50491803 C2.33359375,7.50885246 2.41289063,7.47344262 2.46523438,7.40931148 L2.9171875,6.85416393 L2.64882813,7.93652459 C2.62929688,8.01481967 2.64648438,8.09783607 2.69609375,8.16157377 C2.7453125,8.22491803 2.82109375,8.26229508 2.9015625,8.26229508 L3.34921875,8.26229508 C3.49296875,8.26229508 3.609375,8.14504918 3.609375,7.99986885 L3.609375,6.68852459 L5.859375,6.68852459 C6.075,6.68852459 6.25,6.5122623 6.25,6.29508197 L6.25,5.90163934 C6.25,5.68445902 6.075,5.50819672 5.859375,5.50819672" id="Fill-4421" fill="#00554A"></path>
                    <path d="M23.1719922,6.91790164 C23.1579297,6.84944262 23.1176953,6.78963934 23.0598828,6.75108197 L21.8751172,5.96380328 L21.8751172,5.90163934 C21.8751172,5.68445902 21.7001172,5.50819672 21.4844922,5.50819672 L19.1407422,5.50819672 C18.9247266,5.50819672 18.7501172,5.68445902 18.7501172,5.90163934 L18.7501172,6.29508197 C18.7501172,6.5122623 18.9247266,6.68852459 19.1407422,6.68852459 L21.3903516,6.68852459 L21.3903516,7.99986885 C21.3903516,8.14504918 21.5071484,8.26229508 21.6508984,8.26229508 L22.0985547,8.26229508 C22.1790234,8.26229508 22.2544141,8.22491803 22.3040234,8.16157377 C22.3532422,8.09783607 22.3708203,8.01481967 22.3512891,7.93652459 L22.0825391,6.85416393 L22.5348828,7.40931148 C22.5868359,7.47344262 22.6665234,7.50885246 22.7489453,7.50491803 C22.8313672,7.50059016 22.9067578,7.45770492 22.9524609,7.38845902 L23.1333203,7.11540984 C23.1719922,7.05757377 23.1856641,6.98636066 23.1719922,6.91790164" id="Fill-4422" fill="#00554A"></path>
                    <path d="M16.93,6.24570492 C16.9092969,6.14301639 16.84875,6.05291803 16.7620312,5.99547541 L14.8436719,4.72111475 L14.8436719,3.93422951 C14.8436719,3.71704918 14.6686719,3.54078689 14.4530469,3.54078689 L10.5467969,3.54078689 C10.3311719,3.54078689 10.1561719,3.71704918 10.1561719,3.93422951 L10.1561719,4.72111475 C10.1561719,4.93868852 10.3311719,5.11455738 10.5467969,5.11455738 L13.6717969,5.11455738 L13.6717969,7.86865574 C13.6717969,8.08622951 13.8467969,8.26209836 14.0624219,8.26209836 L14.7339062,8.26209836 C14.8546094,8.26209836 14.9678906,8.20662295 15.0421094,8.11101639 C15.1159375,8.01540984 15.1421094,7.89108197 15.1132031,7.77344262 L14.4530469,5.11455738 L15.9741406,6.98262295 C16.0526562,7.07901639 16.1717969,7.13213115 16.2952344,7.12622951 C16.4190625,7.11993443 16.5323437,7.05501639 16.6010938,6.95154098 L16.8721875,6.54196721 C16.93,6.45501639 16.9507031,6.34839344 16.93,6.24570492" id="Fill-4423" fill="#00554A"></path>
                    <path d="M12.5,10.6229508 C9.91132812,10.6229508 7.8125,12.736918 7.8125,15.3442623 C7.8125,17.9516066 9.91132812,20.0655738 12.5,20.0655738 L12.5,10.6229508 Z" id="Fill-4424" fill="#56CDB9"></path>
                    <path d="M12.6903516,15.6864 L12.6903516,16.8710557 C13.1040234,16.8254164 13.3301953,16.6172852 13.3301953,16.3048918 C13.3301953,16.0184656 13.1880078,15.8425967 12.6903516,15.6864 M12.1798047,14.7818754 L12.1798047,13.6298754 C11.7665234,13.6692197 11.5594922,13.8903344 11.5594922,14.1767607 C11.5594922,14.4498098 11.6825391,14.6193836 12.1798047,14.7818754 M12.4383984,12.562859 C12.5934766,12.562859 12.7161328,12.6864 12.7161328,12.8425967 L12.7161328,12.9858098 C13.0973828,13.0310557 13.4208203,13.1549902 13.7176953,13.3434492 C13.8212109,13.4020721 13.9114453,13.4996459 13.9114453,13.6558426 C13.9114453,13.8576787 13.7501172,14.0142689 13.5497266,14.0142689 C13.4852734,14.0142689 13.4208203,13.9945967 13.3559766,13.9556459 C13.1298047,13.8187279 12.9098828,13.7211541 12.6903516,13.6692197 L12.6903516,14.9184 C13.6723828,15.1658754 14.0923047,15.562859 14.0923047,16.2592525 C14.0923047,16.9749246 13.5368359,17.4502033 12.7161328,17.5281049 L12.7161328,17.9184 C12.7161328,18.0749902 12.5934766,18.1985311 12.4383984,18.1985311 C12.2833203,18.1985311 12.1540234,18.0749902 12.1540234,17.9184 L12.1540234,17.5151213 C11.6696484,17.4631869 11.2239453,17.287318 10.8298047,17.0075803 C10.7196484,16.9359738 10.6551953,16.8317115 10.6551953,16.6951869 C10.6551953,16.4933508 10.8102734,16.3371541 11.0106641,16.3371541 C11.0880078,16.3371541 11.1657422,16.3631213 11.2239453,16.4087607 C11.5274609,16.6298754 11.8247266,16.779777 12.1798047,16.8446951 L12.1798047,15.562859 C11.2368359,15.3153836 10.7973828,14.9573508 10.7973828,14.2224 C10.7973828,13.5260066 11.3466016,13.0444328 12.1540234,12.9791213 L12.1540234,12.8425967 C12.1540234,12.6864 12.2833203,12.562859 12.4383984,12.562859" id="Fill-4425" fill="#FFFFFF"></path>
                </g>
            </g>
        </g>
    </g>
</svg>