<?xml version="1.0" encoding="UTF-8"?>
<svg width="29px" height="29px" viewBox="0 0 29 29" version="1.1" xmlns="http://www.w3.org/2000/svg" xmlns:xlink="http://www.w3.org/1999/xlink">
    <!-- Generator: Sketch 44.1 (41455) - http://www.bohemiancoding.com/sketch -->
    <title>QuoteIcon</title>
    <desc>Created with Sketch.</desc>
    <defs></defs>
    <g id="Page-1" stroke="none" stroke-width="1" fill="none" fill-rule="evenodd">
        <g id="04-BV-PF-Step4-V3-Case2" transform="translate(-263.000000, -602.000000)">
            <g id="Group-8" transform="translate(263.000000, 598.000000)">
                <g id="QuoteIcon" transform="translate(0.000000, 4.000000)">
                    <path d="M29,1.8125 C29,0.811546875 28.1884531,0 27.1875,0 L1.8125,0 C0.811546875,0 0,0.811546875 0,1.8125 L0,19.9375 C0,20.9384531 0.811546875,21.75 1.8125,21.75 L7.25,21.75 L7.25,29 L14.5,21.75 L27.1875,21.75 C28.1884531,21.75 29,20.9384531 29,19.9375 L29,1.8125 Z" id="Fill-2854" fill="#353167"></path>
                    <path d="M1.8125,0 C0.811546875,0 0,0.811546875 0,1.8125 L0,19.9375 C0,20.3303594 0.128234375,20.6915 0.340296875,20.9878437 L21.3281406,0 L1.8125,0 Z" id="Fill-2855" fill="#4A3B8F"></path>
                    <path d="M12.1680375,6.36454844 C10.25585,6.94636094 9.25806875,8.23550156 9.34099063,10.0643141 C10.5467563,10.3969078 11.7108344,11.3946891 11.7108344,12.8913609 L11.7108344,13.2239547 C11.7108344,14.8035484 10.5884438,16.0093141 8.8837875,16.0093141 C7.05452188,16.0093141 5.89044375,14.5960172 5.89044375,12.3507828 L5.89044375,11.9352672 C5.89044375,9.10822031 6.63900625,7.15434531 7.96938125,5.86565781 C9.05008438,4.74326719 10.6713656,4.07807969 11.8771313,4.07807969 C12.74985,4.07807969 13.1658188,4.57697031 13.1658188,5.24215781 C13.1658188,5.82397031 12.74985,6.19825156 12.1680375,6.36454844" id="Fill-2856" fill="#FFFFFF"></path>
                    <path d="M22.5647641,6.36454844 C20.6525766,6.94636094 19.6547953,8.23550156 19.7377172,10.0643141 C20.9434828,10.3969078 22.1075609,11.3946891 22.1075609,12.8913609 L22.1075609,13.2239547 C22.1075609,14.8035484 20.9847172,16.0093141 19.2805141,16.0093141 C17.4512484,16.0093141 16.2871703,14.5960172 16.2871703,12.3507828 L16.2871703,11.9352672 C16.2871703,9.10822031 17.0357328,7.15434531 18.3661078,5.86565781 C19.4468109,4.74326719 21.0680922,4.07807969 22.2738578,4.07807969 C23.1465766,4.07807969 23.5625453,4.57697031 23.5625453,5.24215781 C23.5625453,5.82397031 23.1465766,6.19825156 22.5647641,6.36454844" id="Fill-2857" fill="#FFFFFF"></path>
                </g>
            </g>
        </g>
    </g>
</svg>