<?xml version="1.0" encoding="UTF-8"?>
<svg width="25px" height="25px" viewBox="0 0 25 25" version="1.1" xmlns="http://www.w3.org/2000/svg" xmlns:xlink="http://www.w3.org/1999/xlink">
    <!-- Generator: Sketch 44.1 (41455) - http://www.bohemiancoding.com/sketch -->
    <title>Rooms</title>
    <desc>Created with Sketch.</desc>
    <defs></defs>
    <g id="Page-1" stroke="none" stroke-width="1" fill="none" fill-rule="evenodd">
        <g id="04-BV-PF-Step4" transform="translate(-540.000000, -521.000000)">
            <g id="Group-6" transform="translate(228.000000, 256.000000)">
                <g id="Rooms" transform="translate(312.000000, 265.000000)">
                    <polygon id="Fill-3727" fill="#56CDB9" points="25 25 25 3.125 17.96875 0 6.25 3.125 0 0 0 21.875 6.25 25 17.96875 21.875"></polygon>
                    <polygon id="Fill-3728" fill="#20BDA3" points="17.96875 21.875 25 25 25 3.125 17.96875 0"></polygon>
                    <polygon id="Fill-3729" fill="#20BDA3" points="6.25 3.125 0 0 0 21.875 6.25 25"></polygon>
                    <path d="M18.2691406,18.4194531 C18.1101563,18.3534375 17.9335938,18.3417187 17.7675781,18.3858594 L16.40625,18.74875 L16.40625,14.2503125 L17.9945313,12.9796094 L21.875,15.4491406 L21.875,19.9217969 L18.2691406,18.4194531 Z M6.33476563,21.4342969 L3.125,19.8296094 L3.125,15.0077344 L6.1734375,15.6175 C6.221875,15.6272656 6.27148438,15.6276562 6.31992188,15.6186719 L10.15625,14.9210156 L10.15625,20.4151562 L6.33476563,21.4342969 Z M5.90039063,6.558125 C6.07109375,6.64367187 6.26757813,6.66320312 6.45117188,6.614375 L10.546875,5.5221875 L10.546875,7.65070312 L9.21328125,8.98429687 L6.31328125,8.98429687 L3.125,7.92140625 L3.125,5.17023437 L5.90039063,6.558125 Z M17.9132813,3.55773437 L21.875,5.20851562 L21.875,11.4046094 L19.3476563,9.82492187 C19.2269531,9.74953125 19.0753906,9.745625 18.9511719,9.81476562 C18.8269531,9.88351562 18.75,10.0139844 18.75,10.1561719 L18.75,12.5339062 L18.1785156,12.1702344 C18.0378906,12.0807812 17.8554688,12.0909375 17.7246094,12.1948437 L15.7714844,13.7573437 C15.6789063,13.8315625 15.625,13.9436719 15.625,14.0624219 L15.625,18.9569531 L10.9375,20.2069531 L10.9375,14.4530469 C10.9375,14.3374219 10.8859375,14.2276562 10.7972656,14.1534375 C10.7082031,14.0788281 10.5902344,14.0479687 10.4769531,14.0686719 L6.25351563,14.8366406 L3.125,14.21125 L3.125,8.74523437 L6.1265625,9.745625 C6.16640625,9.75890625 6.20820313,9.76554687 6.25,9.76554687 L9.375,9.76554687 C9.47851563,9.76554687 9.57773438,9.72453125 9.65117188,9.65109375 L11.2136719,8.08859375 C11.2867188,8.01554687 11.328125,7.9159375 11.328125,7.81242187 L11.328125,5.31359375 L15.625,4.16789062 L15.625,5.20421875 L13.9171875,5.88703125 C13.7171875,5.9675 13.6195313,6.19484375 13.6996094,6.39523437 C13.7789063,6.5925 14.003125,6.69367187 14.2078125,6.6128125 L15.625,6.045625 L15.625,7.15734375 L13.9171875,7.84015625 C13.7171875,7.920625 13.6195313,8.14796875 13.6996094,8.34835937 C13.7789063,8.545625 14.003125,8.64679687 14.2078125,8.5659375 L15.625,7.99875 L15.625,9.11046875 L13.9171875,9.79328125 C13.7171875,9.87375 13.6195313,10.1010937 13.6996094,10.3014844 C13.7789063,10.49875 14.003125,10.5999219 14.2078125,10.5190625 L15.625,9.951875 L15.625,11.3280469 L16.40625,10.9374219 L16.40625,9.383125 L16.40625,9.38195312 L16.40625,7.43 L16.40625,7.42882812 L16.40625,5.476875 L16.40625,5.47570312 L16.40625,3.95929687 L17.9132813,3.55773437 Z M21.875,14.5225781 L19.53125,13.0311719 L19.53125,10.8608594 L21.875,12.3257031 L21.875,14.5225781 Z M22.9566406,3.96632812 L18.2691406,2.01320312 C18.1101563,1.94679687 17.9335938,1.93507812 17.7675781,1.97960937 L6.33476563,5.02804687 L2.69296875,3.20734375 C2.45117188,3.08664062 2.16328125,3.09914062 1.93320313,3.24171875 C1.70273438,3.38390625 1.5625,3.63546875 1.5625,3.90617187 L1.5625,20.3124219 C1.5625,20.6085156 1.7296875,20.8788281 1.99414063,21.01125 L5.90039063,22.964375 C6.065625,23.0467969 6.2609375,23.0710156 6.45117188,23.020625 L17.9132813,19.9639844 L22.3558594,21.8147656 C22.596875,21.9151562 22.8722656,21.8885937 23.0894531,21.7436719 C23.3070313,21.59875 23.4375,21.355 23.4375,21.0936719 L23.4375,4.68742187 C23.4375,4.3721875 23.2480469,4.0878125 22.9566406,3.96632812 L22.9566406,3.96632812 Z" id="Fill-3730" fill="#FFFFFF"></path>
                </g>
            </g>
        </g>
    </g>
</svg>