<?xml version="1.0" encoding="UTF-8"?>
<svg width="25px" height="25px" viewBox="0 0 25 25" version="1.1" xmlns="http://www.w3.org/2000/svg" xmlns:xlink="http://www.w3.org/1999/xlink">
    <!-- Generator: Sketch 44.1 (41455) - http://www.bohemiancoding.com/sketch -->
    <title>Sale</title>
    <desc>Created with Sketch.</desc>
    <defs></defs>
    <g id="Page-1" stroke="none" stroke-width="1" fill="none" fill-rule="evenodd">
        <g id="04-BV-PF-Step4" transform="translate(-540.000000, -386.000000)">
            <g id="Group-6" transform="translate(228.000000, 256.000000)">
                <g id="Sale" transform="translate(311.000000, 130.000000)">
                    <path d="M25.9538281,3.33148438 C25.8858594,3.20453125 25.7534375,3.12523438 25.6092969,3.12523438 L1.33898438,3.12523438 C1.19523438,3.12523438 1.0628125,3.20453125 0.99484375,3.33148438 C0.926875,3.4584375 0.934296875,3.61273438 1.014375,3.73226563 L2.05578125,5.29476563 C2.1284375,5.40375 2.2503125,5.46898438 2.38078125,5.46898438 L5.29679688,5.46898438 L5.29679688,7.81273438 L6.07804688,7.81273438 L6.07804688,5.46898438 L13.8905469,5.46898438 L13.8905469,7.81273438 L14.6717969,7.81273438 L14.6717969,5.46898438 L24.5678906,5.46898438 C24.6983594,5.46898438 24.8202344,5.40375 24.8928906,5.29476563 L25.9342969,3.73226563 C26.014375,3.61273438 26.0217969,3.4584375 25.9538281,3.33148438" id="Fill-1394" fill="#DCD0B3"></path>
                    <path d="M25.609375,3.12507813 L1.3390625,3.12507813 C1.1953125,3.12507813 1.06289063,3.204375 0.994921875,3.33132813 C0.9265625,3.45867188 0.934375,3.61257813 1.01445313,3.7325 L1.390625,4.29695313 L25.5578125,4.29695313 L25.934375,3.7325 C26.0144531,3.61257813 26.021875,3.45867188 25.9539062,3.33132813 C25.8859375,3.204375 25.7535156,3.12507813 25.609375,3.12507813" id="Fill-1395" fill="#E8E0CA"></path>
                    <path d="M23.6047656,2.34382813 L21.6516406,7.81250002e-05 L19.6985156,2.34382813 L19.6985156,24.6094531 C19.6985156,24.8250781 19.8735156,25.0000781 20.0891406,25.0000781 L23.2141406,25.0000781 C23.4301562,25.0000781 23.6047656,24.8250781 23.6047656,24.6094531 L23.6047656,2.34382813 Z" id="Fill-1396" fill="#DCD0B3"></path>
                    <path d="M21.6516406,7.81250002e-05 L19.6985156,2.34382813 L19.6985156,24.6094531 C19.6985156,24.8250781 19.8735156,25.0000781 20.0891406,25.0000781 L21.6516406,25.0000781 L21.6516406,7.81250002e-05 Z" id="Fill-1397" fill="#E8E0CA"></path>
                    <path d="M17.796875,17.9688281 C17.796875,18.4004688 17.446875,18.7500781 17.015625,18.7500781 L2.953125,18.7500781 C2.521875,18.7500781 2.171875,18.4004688 2.171875,17.9688281 L2.171875,8.59382813 C2.171875,8.1621875 2.521875,7.81257813 2.953125,7.81257813 L17.015625,7.81257813 C17.446875,7.81257813 17.796875,8.1621875 17.796875,8.59382813 L17.796875,17.9688281 Z" id="Fill-1398" fill="#FF8848"></path>
                    <polygon id="Fill-1399" fill="#E56C2B" points="16.625 17.578125 3.34375 17.578125 3.34375 8.984375 16.625 8.984375"></polygon>
                    <path d="M9.68949219,12.7780078 C9.15160156,12.7780078 8.76957031,12.3440234 8.76957031,11.8233203 L8.76957031,11.8147266 C8.76957031,11.2940234 9.14261719,10.8686328 9.68089844,10.8686328 C10.2187891,10.8686328 10.6008203,11.3026172 10.6008203,11.8233203 L10.6008203,11.8319141 C10.6008203,12.3526172 10.2273828,12.7780078 9.68949219,12.7780078 M11.2226953,12.2877734 C11.2683984,12.1397266 11.2996484,11.9858203 11.2996484,11.8233203 L11.2996484,11.8147266 C11.2996484,10.9510547 10.6266016,10.2526172 9.68949219,10.2526172 C8.75238281,10.2526172 8.07074219,10.9596484 8.07074219,11.8233203 L8.07074219,11.8319141 C8.07074219,12.6955859 8.74378906,13.3940234 9.68089844,13.3940234 C9.86761719,13.3940234 10.0398828,13.3592578 10.2027734,13.3073047 C10.7043359,13.1483203 11.0746484,12.7690234 11.2226953,12.2877734" id="Fill-1400" fill="#FFFFFF"></path>
                    <path d="M13.7519531,11.3503516 C13.7519531,11.6062109 13.5652344,11.7800391 13.2398438,11.7800391 L12.5628906,11.7800391 L12.5628906,10.9476172 L12.5628906,10.9077734 L12.6027344,10.9077734 L13.2265625,10.9077734 C13.5523437,10.9077734 13.7519531,11.0554297 13.7519531,11.3417578 L13.7519531,11.3503516 Z M14.4285156,11.3155859 L14.4285156,11.3069922 C14.4285156,11.0206641 14.3375,10.7816016 14.1683594,10.6124609 C13.96875,10.4132422 13.6695312,10.3046484 13.2832031,10.3046484 L13.2058594,10.3046484 L12.2289062,10.3046484 C12.0421875,10.3046484 11.8945312,10.4523047 11.8945312,10.6386328 L11.8945312,11.6159766 L11.8945312,13.0339453 C11.8945312,13.2206641 12.0421875,13.3683203 12.2289062,13.3683203 C12.4152344,13.3683203 12.5628906,13.2206641 12.5628906,13.0339453 L12.5628906,12.3698828 L13.0964844,12.3698828 L13.7472656,13.1944922 C13.8253906,13.2944922 13.9253906,13.3683203 14.0773437,13.3683203 C14.2378906,13.3683203 14.3941406,13.2464453 14.3941406,13.0597266 C14.3941406,12.9558203 14.3507813,12.8862891 14.2855469,12.8038672 L13.8210937,12.2398047 C14.1902344,12.0878516 14.4285156,11.7929297 14.4285156,11.3155859 L14.4285156,11.3155859 Z" id="Fill-1401" fill="#FFFFFF"></path>
                    <path d="M8.31886719,15.34625 L8.43058594,15.0798438 L8.65832031,14.5380469 L8.75089844,14.7591406 L8.99777344,15.34625 L8.31886719,15.34625 Z M9.12277344,14.3876563 L8.99425781,14.0974219 C8.93488281,13.9642188 8.82980469,13.88375 8.68292969,13.88375 L8.65128906,13.88375 C8.50441406,13.88375 8.39582031,13.9642188 8.33605469,14.0974219 L7.48253906,16.0251563 C7.48214844,16.0263281 7.48214844,16.0278906 7.48214844,16.0278906 C7.46496094,16.0661719 7.45128906,16.1036719 7.45128906,16.1403906 C7.45128906,16.280625 7.55949219,16.3923438 7.69972656,16.3923438 C7.81183594,16.3923438 7.90246094,16.3294531 7.94777344,16.2247656 L8.11964844,15.8220313 L9.19699219,15.8220313 L9.36144531,16.2071875 C9.41027344,16.3189063 9.49425781,16.3923438 9.62042969,16.3923438 C9.76378906,16.3923438 9.87550781,16.2771094 9.87550781,16.13375 C9.87550781,16.0985938 9.86535156,16.0634375 9.84816406,16.0251563 L9.12277344,14.3876563 Z" id="Fill-1402" fill="#FFFFFF"></path>
                    <path d="M11.8367969,15.8816406 L10.8395312,15.8816406 L10.8395312,14.1707031 C10.8395312,14.0203125 10.7203906,13.9011719 10.57,13.9011719 C10.4196094,13.9011719 10.3004687,14.0203125 10.3004687,14.1707031 L10.3004687,16.1019531 C10.3004687,16.2523437 10.4196094,16.3714844 10.57,16.3714844 L11.8367969,16.3714844 C11.973125,16.3714844 12.0817187,16.2628906 12.0817187,16.1265625 C12.0817187,15.9902344 11.973125,15.8816406 11.8367969,15.8816406" id="Fill-1403" fill="#FFFFFF"></path>
                    <path d="M14.1120703,15.8921094 L13.0030859,15.8921094 L13.0030859,15.3776563 L13.9374609,15.3776563 C14.0702734,15.3776563 14.1784766,15.2729688 14.1784766,15.1397656 C14.1784766,15.0069531 14.0702734,14.8983594 13.9374609,14.8983594 L13.0030859,14.8983594 L13.0030859,14.4014844 L14.0944922,14.4014844 C14.2276953,14.4014844 14.3358984,14.2967969 14.3358984,14.1635938 C14.3358984,14.0307813 14.2276953,13.9221875 14.0944922,13.9221875 L12.7370703,13.9221875 C12.5866797,13.9221875 12.4679297,14.0413281 12.4679297,14.1917188 L12.4679297,16.1022656 C12.4679297,16.2522656 12.5866797,16.3714063 12.7370703,16.3714063 L14.1120703,16.3714063 C14.2452734,16.3714063 14.3534766,16.2663281 14.3534766,16.1335156 C14.3534766,16.0007031 14.2452734,15.8921094 14.1120703,15.8921094" id="Fill-1404" fill="#FFFFFF"></path>
                    <path d="M6.38960937,14.9054687 C5.9665625,14.796875 5.86148437,14.7445312 5.86148437,14.5835937 L5.86148437,14.5765625 C5.86148437,14.4578125 5.9696875,14.3632812 6.17632812,14.3632812 C6.34390625,14.3632812 6.51226562,14.4226562 6.69078125,14.5277344 C6.73257812,14.5519531 6.77476562,14.5660156 6.82710937,14.5660156 C6.96734375,14.5660156 7.0790625,14.4578125 7.0790625,14.3175781 C7.0790625,14.2128906 7.01929687,14.1394531 6.95992187,14.1042969 C6.73960937,13.9640625 6.480625,13.8875 6.18335937,13.8875 C5.68296875,13.8875 5.3259375,14.18125 5.3259375,14.6253906 L5.3259375,14.6324219 C5.3259375,15.11875 5.6446875,15.2554687 6.13765625,15.38125 C6.54703125,15.4863281 6.63101562,15.55625 6.63101562,15.6925781 L6.63101562,15.6996094 C6.63101562,15.8429687 6.49820312,15.9308594 6.27789062,15.9308594 C6.03960937,15.9308594 5.836875,15.8464844 5.65132812,15.7101562 C5.6165625,15.6855469 5.56773437,15.6613281 5.49742187,15.6613281 C5.35757812,15.6613281 5.24546875,15.7695312 5.24546875,15.9097656 C5.24546875,15.99375 5.28765625,16.0703125 5.34703125,16.1125 C5.62007812,16.3085937 5.94546875,16.40625 6.26734375,16.40625 C6.79585937,16.40625 7.1665625,16.1335937 7.1665625,15.6472656 L7.1665625,15.6402344 C7.1665625,15.2132812 6.88648437,15.0351562 6.38960937,14.9054687" id="Fill-1405" fill="#FFFFFF"></path>
                    <path d="M7.198125,11.5586328 L6.02625,11.5586328 L6.02625,10.9121484 L7.3934375,10.9121484 C7.56257813,10.9121484 7.69734375,10.7777734 7.69734375,10.6082422 C7.69734375,10.4391016 7.56257813,10.3047266 7.3934375,10.3047266 L5.69226563,10.3047266 C5.50554688,10.3047266 5.35828125,10.4523828 5.35828125,10.6387109 L5.35828125,13.0340234 C5.35828125,13.2203516 5.50554688,13.3680078 5.69226563,13.3680078 C5.87898438,13.3680078 6.02625,13.2203516 6.02625,13.0340234 L6.02625,12.1660547 L7.198125,12.1660547 C7.36726563,12.1660547 7.50203125,12.0312891 7.50203125,11.8621484 C7.50203125,11.6930078 7.36726563,11.5586328 7.198125,11.5586328" id="Fill-1406" fill="#FFFFFF"></path>
                </g>
            </g>
        </g>
    </g>
</svg>