<?xml version="1.0" encoding="UTF-8"?>
<svg width="30px" height="33px" viewBox="0 0 30 33" version="1.1" xmlns="http://www.w3.org/2000/svg" xmlns:xlink="http://www.w3.org/1999/xlink">
    <!-- Generator: Sketch 44.1 (41455) - http://www.bohemiancoding.com/sketch -->
    <title>Satisfaction</title>
    <desc>Created with Sketch.</desc>
    <defs></defs>
    <g id="Page-1" stroke="none" stroke-width="1" fill="none" fill-rule="evenodd">
        <g id="04-BV-PF-Step4-V3-Case2" transform="translate(-263.000000, -495.000000)">
            <g id="Satisfaction" transform="translate(263.000000, 495.000000)">
                <path d="M29.8465424,27.06066 L25.5011186,20.5946908 C25.3267119,20.67186 25.1853559,20.7667985 25.1014576,20.8916908 C24.6270508,21.5989062 25.683661,23.5687523 25.0831525,24.1683369 C24.4826441,24.7679215 22.5097627,23.7129369 21.8014576,24.1866138 C21.0982373,24.6562292 21.3229831,26.8809369 20.5323051,27.2083985 C19.994339,27.4312754 19.1517966,26.6737985 18.403322,26.2402292 L22.3363729,32.0923985 C22.5301017,32.3807677 22.8723051,32.5325677 23.2160339,32.4833215 C23.5602712,32.4335677 23.8455254,32.1913985 23.9502712,31.8603831 L24.9072203,28.8264138 C25.0338305,28.4238138 25.4238305,28.1623523 25.8453559,28.1978908 L29.0202712,28.4639215 C29.3665424,28.49286 29.6985763,28.3207523 29.8750169,28.0217215 C30.0514576,27.7226908 30.0402712,27.3490292 29.8465424,27.06066" id="Fill-2917" fill="#353167"></path>
                <path d="M9.78737288,27.2083985 C8.99618644,26.8809369 9.22144068,24.6562292 8.51822034,24.1861062 C7.80940678,23.7124292 5.8370339,24.7674138 5.23601695,24.1678292 C4.63550847,23.5677369 5.69262712,21.5983985 5.21822034,20.8906754 C5.13737288,20.77086 5.00313559,20.6794754 4.83838983,20.6038292 L0.499067797,27.06066 C0.305338983,27.3490292 0.294152542,27.7226908 0.47059322,28.0217215 C0.646525424,28.3207523 0.979067797,28.49286 1.32533898,28.4639215 L4.50025424,28.1978908 C4.92177966,28.1623523 5.31177966,28.4238138 5.43838983,28.8264138 L6.39533898,31.8603831 C6.50008475,32.1913985 6.78483051,32.4335677 7.1290678,32.4833215 C7.47330508,32.5325677 7.81550847,32.3807677 8.00872881,32.0923985 L11.9575424,26.2178908 C11.1988983,26.6468908 10.335,27.4353369 9.78737288,27.2083985" id="Fill-2918" fill="#4A3B8F"></path>
                <path d="M29.1939661,14.2598077 C29.1939661,15.1264385 27.0497288,15.7717154 26.8875254,16.5906231 C26.7202373,17.4344077 28.4510847,18.8478231 28.1287119,19.6240846 C27.8002373,20.4140538 25.5726102,20.1891462 25.1017627,20.8912846 C24.6273559,21.5990077 25.6839661,23.5683462 25.0834576,24.1684385 C24.4824407,24.7680231 22.5100678,23.7130385 21.8012542,24.1867154 C21.0980339,24.6563308 21.3232881,26.8810385 20.5321017,27.2085 C19.7546441,27.5303769 18.3390508,25.8021923 17.4939661,25.9692231 C16.6743051,26.1311769 16.0280339,28.2721154 15.1600678,28.2721154 C14.2921017,28.2721154 13.6458305,26.1311769 12.825661,25.9692231 C11.9805763,25.8021923 10.5649831,27.5303769 9.78752542,27.2085 C8.99633898,26.8805308 9.22108475,24.6563308 8.51837288,24.1862077 C7.80955932,23.7125308 5.83718644,24.7675154 5.23616949,24.1679308 C4.63566102,23.5678385 5.69227119,21.5985 5.21786441,20.8907769 C4.74752542,20.1886385 2.51938983,20.4135462 2.19142373,19.6235769 C1.86905085,18.8473154 3.59989831,17.4339 3.43261017,16.5901154 C3.27040678,15.7712077 1.12616949,15.1264385 1.12616949,14.2598077 C1.12616949,13.3931769 3.27040678,12.7479 3.43311864,11.9289923 C3.59989831,11.0852077 1.86905085,9.67179231 2.19142373,8.89553077 C2.51989831,8.10556154 4.74752542,8.32996154 5.21837288,7.62833077 C5.69277966,6.92060769 4.63616949,4.95126923 5.23718644,4.35117692 C5.83769492,3.75159231 7.8100678,4.80657692 8.51888136,4.3329 C9.22210169,3.86328462 8.99684746,1.63857692 9.7880339,1.31111538 C10.5654915,0.989238462 11.9810847,2.71742308 12.8261695,2.55039231 C13.646339,2.38843846 14.2921017,0.2475 15.1600678,0.2475 C16.0280339,0.2475 16.6743051,2.38843846 17.4944746,2.55039231 C18.3395593,2.71742308 19.7551525,0.989238462 20.5326102,1.31111538 C21.3237966,1.63908462 21.0985424,3.86328462 21.8017627,4.33340769 C22.5105763,4.80708462 24.4829492,3.7521 25.0839661,4.35168462 C25.6844746,4.95177692 24.6278644,6.92111538 25.1022712,7.62883846 C25.5726102,8.33097692 27.8007458,8.10606923 28.1287119,8.89603846 C28.4510847,9.6723 26.7202373,11.0857154 26.8875254,11.9295 C27.0497288,12.7484077 29.1939661,13.3931769 29.1939661,14.2598077" id="Fill-2919" fill="#20BDA3"></path>
                <path d="M25.0838136,4.35193846 C24.4833051,3.75235385 22.5104237,4.80733846 21.8016102,4.33366154 C21.0988983,3.86353846 21.3236441,1.63883077 20.5324576,1.31136923 C19.755,0.989492308 18.3394068,2.71767692 17.494322,2.55064615 C16.6741525,2.38869231 16.0278814,0.247753846 15.1599153,0.247753846 C14.2924576,0.247753846 13.6461864,2.38869231 12.8260169,2.55064615 C11.9809322,2.71767692 10.565339,0.988984615 9.78788136,1.31086154 C8.99669492,1.63883077 9.22194915,3.86303077 8.51872881,4.33315385 C7.81042373,4.80683077 5.83754237,3.75133846 5.2370339,4.35143077 C4.63601695,4.95101538 5.69262712,6.92086154 5.21872881,7.62807692 C4.74737288,8.33021538 2.51974576,8.10581538 2.19177966,8.89527692 C1.86889831,9.67204615 3.60025424,11.0854615 3.4329661,11.9292462 C3.27076271,12.7481538 1.12601695,13.3934308 1.12601695,14.2595538 C1.12601695,15.1261846 3.27076271,15.7714615 3.43245763,16.5903692 C3.60025424,17.4341538 1.86889831,18.8475692 2.19127119,19.6238308 C2.51974576,20.4132923 4.74737288,20.1888923 5.21822034,20.8910308 C5.69262712,21.5982462 4.63550847,23.5680923 5.23601695,24.1676769 C5.25432203,24.1859538 5.27771186,24.1981385 5.29805085,24.2133692 L25.1285593,4.41336923 C25.1138136,4.39306154 25.1021186,4.36970769 25.0838136,4.35193846" id="Fill-2920" fill="#56CDB9"></path>
                <path d="M24.643678,14.2598077 C24.643678,19.4895462 20.3979153,23.7287769 15.1601186,23.7287769 C9.92232203,23.7287769 5.67655932,19.4895462 5.67655932,14.2598077 C5.67655932,9.03006923 9.92232203,4.79083846 15.1601186,4.79083846 C20.3979153,4.79083846 24.643678,9.03006923 24.643678,14.2598077" id="Fill-2921" fill="#DCD0B3"></path>
                <path d="M15.1601186,4.79083846 C9.92232203,4.79083846 5.67655932,9.03006923 5.67655932,14.2598077 C5.67655932,16.8627462 6.72910169,19.2189462 8.43147458,20.9303769 L21.8409661,7.54151538 C20.1268983,5.84176154 17.7665593,4.79083846 15.1601186,4.79083846" id="Fill-2922" fill="#E8E0CA"></path>
                <path d="M21.3464746,14.2598077 C21.3464746,17.6709923 18.5768136,20.4369 15.1598644,20.4369 C11.7434237,20.4369 8.97376271,17.6709923 8.97376271,14.2598077 C8.97376271,10.8486231 11.7434237,8.08271538 15.1598644,8.08271538 C18.5768136,8.08271538 21.3464746,10.8486231 21.3464746,14.2598077" id="Fill-2923" fill="#FFFFFF"></path>
            </g>
        </g>
    </g>
</svg>