<?xml version="1.0" encoding="UTF-8"?>
<svg width="25px" height="24px" viewBox="0 0 25 24" version="1.1" xmlns="http://www.w3.org/2000/svg" xmlns:xlink="http://www.w3.org/1999/xlink">
    <!-- Generator: Sketch 44.1 (41455) - http://www.bohemiancoding.com/sketch -->
    <title>Shower</title>
    <desc>Created with Sketch.</desc>
    <defs></defs>
    <g id="Page-1" stroke="none" stroke-width="1" fill="none" fill-rule="evenodd">
        <g id="04-BV-PF-Step4" transform="translate(-542.000000, -609.000000)">
            <g id="Group-6" transform="translate(228.000000, 256.000000)">
                <g id="Shower" transform="translate(314.000000, 353.000000)">
                    <path d="M4.296875,24 C3.9734375,24 3.7109375,23.7424 3.7109375,23.425 C3.7109375,23.1076 3.9734375,22.85 4.296875,22.85 C5.5046875,22.85 6.0546875,21.55855 6.0546875,20.3583333 C6.0546875,20.0409333 6.3171875,19.7833333 6.640625,19.7833333 C6.9640625,19.7833333 8.203125,20.0409333 8.203125,20.3583333 C8.203125,22.16805 6.2203125,24 4.296875,24" id="Fill-2085" fill="#E8E0CA"></path>
                    <path d="M21.484375,24 C21.8078125,24 22.0703125,23.7424 22.0703125,23.425 C22.0703125,23.1076 21.8078125,22.85 21.484375,22.85 C20.2765625,22.85 19.7265625,21.55855 19.7265625,20.3583333 C19.7265625,20.0409333 19.4640625,19.7833333 19.140625,19.7833333 C18.8171875,19.7833333 17.578125,20.0409333 17.578125,20.3583333 C17.578125,22.16805 19.5609375,24 21.484375,24" id="Fill-2086" fill="#E8E0CA"></path>
                    <path d="M0.78125,14.496515 C0.78125,14.496515 1.50657264e-13,22.1631817 12.5,22.1631817 C25,22.1631817 24.21875,14.496515 24.21875,14.496515 L0.78125,14.496515 Z" id="Fill-2087" fill="#DCD0B3"></path>
                    <path d="M0.78125,14.4964 C0.78125,14.4964 0.36484375,18.64675 5.125,20.8394167 L11.5886719,14.4964 L0.78125,14.4964 Z" id="Fill-2088" fill="#E8E0CA"></path>
                    <path d="M25,13.7298483 C25,14.1530483 24.65,14.496515 24.21875,14.496515 L0.78125,14.496515 C0.35,14.496515 0,14.1530483 0,13.7298483 C0,13.306265 0.35,12.9631817 0.78125,12.9631817 L24.21875,12.9631817 C24.65,12.9631817 25,13.306265 25,13.7298483" id="Fill-2089" fill="#C4B694"></path>
                    <path d="M15.625,12.9631817 C15.625,12.5395983 15.275,12.196515 14.84375,12.196515 L8.59375,12.196515 C8.1625,12.196515 7.8125,12.5395983 7.8125,12.9631817 L7.8125,17.5631817 L15.625,17.5631817 L15.625,12.9631817 Z" id="Fill-2090" fill="#E56C2B"></path>
                    <polygon id="Fill-2091" fill="#20BDA3" points="15.625 17.5630667 7.8125 17.5630667 7.8125 18.3297333 15.625 18.3297333"></polygon>
                    <path d="M21.2972656,0.944301667 C19.959375,0.507301667 18.4410156,1.137885 17.1824219,2.63441833 C16.2152344,2.09736833 15.0226562,2.09890167 14.0625,2.654735 L18.3371094,6.84955167 C18.9191406,5.88125167 18.9050781,4.67221833 18.3109375,3.70966833 C19.1496094,2.67121833 20.0933594,2.16636833 20.803125,2.39866833 C21.4644531,2.61525167 21.875,3.43175167 21.875,4.53000167 L21.875,12.963335 L23.4375,12.963335 L23.4375,4.53000167 C23.4375,2.74980167 22.6171875,1.375935 21.2972656,0.944301667" id="Fill-2092" fill="#DCD0B3"></path>
                    <path d="M13.9480469,7.70066667 C13.7164063,7.92261667 13.3453125,7.91801667 13.1195313,7.6907 C12.8933594,7.46338333 12.8980469,7.09921667 13.1296875,6.87765 C13.3613281,6.6557 14.5175781,6.3521 14.5175781,6.3521 C14.5175781,6.3521 14.1796875,7.47871667 13.9480469,7.70066667" id="Fill-2093" fill="#56CDB9"></path>
                    <path d="M16.4043359,8.07257667 C16.3062891,8.37502667 15.9769922,8.54254333 15.6683984,8.44632667 C15.3601953,8.35011 15.1894922,8.02696 15.2875391,7.72412667 C15.3855859,7.42167667 16.2601953,6.61974333 16.2601953,6.61974333 C16.2601953,6.61974333 16.5023828,7.76974333 16.4043359,8.07257667" id="Fill-2094" fill="#56CDB9"></path>
                    <path d="M12.7544531,4.40143167 C12.4439063,4.48998167 12.2653906,4.80929833 12.355625,5.11404833 C12.4458594,5.41918167 12.77125,5.594365 13.0817969,5.505815 C13.3927344,5.41688167 14.2310156,4.57853167 14.2310156,4.57853167 C14.2310156,4.57853167 13.065,4.31288167 12.7544531,4.40143167" id="Fill-2095" fill="#56CDB9"></path>
                    <polygon id="Fill-2096" fill="#56CDB9" points="7.8125 17.5631817 7.8125 18.3298483 7.821875 18.3298483 8.603125 17.5631817"></polygon>
                    <path d="M7.8125,12.9631817 L7.8125,17.5631817 L8.603125,17.5631817 L14.071875,12.196515 L8.59375,12.196515 C8.1625,12.196515 7.8125,12.5399817 7.8125,12.9631817" id="Fill-2097" fill="#FF8848"></path>
                </g>
            </g>
        </g>
    </g>
</svg>