<?xml version="1.0" encoding="UTF-8"?>
<svg width="25px" height="25px" viewBox="0 0 25 25" version="1.1" xmlns="http://www.w3.org/2000/svg" xmlns:xlink="http://www.w3.org/1999/xlink">
    <!-- Generator: Sketch 44.1 (41455) - http://www.bohemiancoding.com/sketch -->
    <title>Stories</title>
    <desc>Created with Sketch.</desc>
    <defs></defs>
    <g id="Page-1" stroke="none" stroke-width="1" fill="none" fill-rule="evenodd">
        <g id="04-BV-PF-Step4" transform="translate(-541.000000, -476.000000)">
            <g id="Group-6" transform="translate(228.000000, 256.000000)">
                <g id="Stories" transform="translate(313.000000, 220.000000)">
                    <polygon id="Fill-5891" fill="#E8E0CA" points="14.0625 23.4375 1.5625 23.4375 1.5625 1.5625 14.0625 1.5625"></polygon>
                    <polygon id="Fill-5892" fill="#E56C2B" points="23.4375 18.75 14.0625 18.75 14.0625 1.5625 23.4375 1.5625"></polygon>
                    <polygon id="Fill-5893" fill="#C4B694" points="0 0 25 0 23.4375 1.5625 1.5625 1.5625"></polygon>
                    <polygon id="Fill-5894" fill="#C4B694" points="0 25 14.0625 25 14.0625 23.4375 1.5625 23.4375"></polygon>
                    <polygon id="Fill-5895" fill="#C4B694" points="23.4375 18.75 14.0625 18.75 14.0625 25 23.4375 25"></polygon>
                    <path d="M21.875,18.75 L15.625,18.75 L15.625,13.671875 C15.625,11.9460937 17.0242188,10.546875 18.75,10.546875 C20.4757812,10.546875 21.875,11.9460937 21.875,13.671875 L21.875,18.75 Z" id="Fill-5896" fill="#FFFFFF"></path>
                    <path d="M16.796875,13.671875 C16.796875,12.5933594 17.6714844,11.71875 18.75,11.71875 C19.8285156,11.71875 20.703125,12.5933594 20.703125,13.671875 L16.796875,13.671875 Z" id="Fill-5897" fill="#56CDB9"></path>
                    <polygon id="Fill-5898" fill="#C4B694" points="20.703125 18.75 16.796875 18.75 16.796875 14.453125 20.703125 14.453125"></polygon>
                    <polygon id="Fill-5899" fill="#DCD0B3" points="23.4375 24.21875 14.0625 24.21875 14.0625 23.4375 23.4375 23.4375"></polygon>
                    <polygon id="Fill-5900" fill="#DCD0B3" points="23.4375 22.65625 14.0625 22.65625 14.0625 21.875 23.4375 21.875"></polygon>
                    <polygon id="Fill-5901" fill="#DCD0B3" points="23.4375 21.09375 14.0625 21.09375 14.0625 20.3125 23.4375 20.3125"></polygon>
                    <polygon id="Fill-5902" fill="#DCD0B3" points="23.4375 19.53125 14.0625 19.53125 14.0625 18.75 23.4375 18.75"></polygon>
                    <path d="M18.75,7.8125 C17.6730469,7.8125 16.796875,6.93632813 16.796875,5.859375 C16.796875,4.78242187 17.6730469,3.90625 18.75,3.90625 C19.8269531,3.90625 20.703125,4.78242187 20.703125,5.859375 C20.703125,6.93632813 19.8269531,7.8125 18.75,7.8125" id="Fill-5903" fill="#56CDB9"></path>
                    <path d="M18.75,3.125 C17.2398438,3.125 16.015625,4.34921875 16.015625,5.859375 C16.015625,7.36953125 17.2398438,8.59375 18.75,8.59375 C20.2601562,8.59375 21.484375,7.36953125 21.484375,5.859375 C21.484375,4.34921875 20.2601562,3.125 18.75,3.125 M18.75,3.90625 C19.8269531,3.90625 20.703125,4.78242187 20.703125,5.859375 C20.703125,6.93632813 19.8269531,7.8125 18.75,7.8125 C17.6730469,7.8125 16.796875,6.93632813 16.796875,5.859375 C16.796875,4.78242187 17.6730469,3.90625 18.75,3.90625" id="Fill-5904" fill="#FFFFFF"></path>
                    <path d="M7.03125,21.484375 L3.125,21.484375 L3.125,15.625 C3.125,14.5464844 3.99960937,13.671875 5.078125,13.671875 C6.15664063,13.671875 7.03125,14.5464844 7.03125,15.625 L7.03125,21.484375 Z" id="Fill-5905" fill="#20BDA3"></path>
                    <polygon id="Fill-5906" fill="#20BDA3" points="7.03125 21.484375 3.125 21.484375 3.125 18.75 7.03125 18.75"></polygon>
                    <path d="M12.5,21.484375 L8.59375,21.484375 L8.59375,15.625 C8.59375,14.5464844 9.46835937,13.671875 10.546875,13.671875 C11.6253906,13.671875 12.5,14.5464844 12.5,15.625 L12.5,21.484375 Z" id="Fill-5907" fill="#20BDA3"></path>
                    <polygon id="Fill-5908" fill="#20BDA3" points="12.5 21.484375 8.59375 21.484375 8.59375 18.75 12.5 18.75"></polygon>
                    <path d="M12.5,10.9375 L8.59375,10.9375 L8.59375,5.078125 C8.59375,3.99960937 9.46835937,3.125 10.546875,3.125 C11.6253906,3.125 12.5,3.99960937 12.5,5.078125 L12.5,10.9375 Z" id="Fill-5909" fill="#20BDA3"></path>
                    <polygon id="Fill-5910" fill="#20BDA3" points="12.5 10.9375 8.59375 10.9375 8.59375 8.203125 12.5 8.203125"></polygon>
                    <path d="M12.5,5.60550781 L12.5,5.07816406 C12.5,3.99964844 11.6257812,3.12503906 10.546875,3.12503906 C9.46796875,3.12503906 8.59375,3.99964844 8.59375,5.07816406 L8.59375,9.51175781 L12.5,5.60550781 Z" id="Fill-5911" fill="#56CDB9"></path>
                    <polygon id="Fill-5912" fill="#56CDB9" points="9.90238281 8.203125 8.59378906 8.203125 8.59378906 9.51171875"></polygon>
                    <path d="M7.03125,16.1523828 L7.03125,15.6250391 C7.03125,14.5465234 6.15703125,13.6719141 5.078125,13.6719141 C3.99921875,13.6719141 3.125,14.5465234 3.125,15.6250391 L3.125,20.0586328 L7.03125,16.1523828 Z" id="Fill-5913" fill="#56CDB9"></path>
                    <polygon id="Fill-5914" fill="#56CDB9" points="4.43363281 18.75 3.12503906 18.75 3.12503906 20.0585937"></polygon>
                    <path d="M12.5,16.1523828 L12.5,15.6250391 C12.5,14.5465234 11.6257812,13.6719141 10.546875,13.6719141 C9.46796875,13.6719141 8.59375,14.5465234 8.59375,15.6250391 L8.59375,20.0586328 L12.5,16.1523828 Z" id="Fill-5915" fill="#56CDB9"></path>
                    <polygon id="Fill-5916" fill="#56CDB9" points="9.90238281 18.75 8.59378906 18.75 8.59378906 20.0585937"></polygon>
                    <polygon id="Fill-5917" fill="#FFFFFF" points="12.5 8.203125 8.59375 8.203125 8.59375 7.421875 12.5 7.421875"></polygon>
                    <polygon id="Fill-5918" fill="#FFFFFF" points="7.03125 18.75 3.125 18.75 3.125 17.96875 7.03125 17.96875"></polygon>
                    <polygon id="Fill-5919" fill="#FFFFFF" points="12.5 18.75 8.59375 18.75 8.59375 17.96875 12.5 17.96875"></polygon>
                    <polygon id="Fill-5920" fill="#C4B694" points="0 10.9375 14.0625 10.9375 14.0625 12.5 1.5625 12.5"></polygon>
                    <path d="M7.03125,10.9375 L3.125,10.9375 L3.125,5.078125 C3.125,3.99960937 3.99960937,3.125 5.078125,3.125 C6.15664063,3.125 7.03125,3.99960937 7.03125,5.078125 L7.03125,10.9375 Z" id="Fill-5921" fill="#20BDA3"></path>
                    <polygon id="Fill-5922" fill="#20BDA3" points="7.03125 10.9375 3.125 10.9375 3.125 8.203125 7.03125 8.203125"></polygon>
                    <path d="M7.03125,5.60550781 L7.03125,5.07816406 C7.03125,3.99964844 6.15703125,3.12503906 5.078125,3.12503906 C3.99921875,3.12503906 3.125,3.99964844 3.125,5.07816406 L3.125,9.51175781 L7.03125,5.60550781 Z" id="Fill-5923" fill="#56CDB9"></path>
                    <polygon id="Fill-5924" fill="#FFFFFF" points="7.03125 8.203125 3.125 8.203125 3.125 7.421875 7.03125 7.421875"></polygon>
                    <path d="M23.4375,25 L25,25 L25,16.40625 C25,15.9746094 24.65,15.625 24.21875,15.625 C23.7875,15.625 23.4375,15.9746094 23.4375,16.40625 L23.4375,25 Z" id="Fill-5925" fill="#C4B694"></path>
                </g>
            </g>
        </g>
    </g>
</svg>