<svg id="Layer_1" data-name="Layer 1" xmlns="http://www.w3.org/2000/svg" viewBox="0 0 110.08 110.08"><defs><style>.cls-1{fill:#ebebeb;}.cls-2{fill:#bcbcbc;}</style></defs><title>avatar</title><path class="cls-1" d="M55,110.08a55,55,0,1,1,55-55A55.11,55.11,0,0,1,55,110.08Z" transform="translate(0)"/><path class="cls-2" d="M66.14,63.94a20.57,20.57,0,1,0-28.4-6.3,21,21,0,0,0,6.3,6.3,26.32,26.32,0,0,0-24,26.2v7.3c9,7.9,21.7,12.6,35,12.6s26-4.7,35-12.6v-7.3A26.31,26.31,0,0,0,66.14,63.94Z" transform="translate(0)"/></svg>