<?xml version="1.0" encoding="UTF-8"?>
<svg width="15px" height="11px" viewBox="0 0 15 11" version="1.1" xmlns="http://www.w3.org/2000/svg" xmlns:xlink="http://www.w3.org/1999/xlink">
    <!-- Generator: Sketch 44.1 (41455) - http://www.bohemiancoding.com/sketch -->
    <title>checkmark-2</title>
    <desc>Created with Sketch.</desc>
    <defs></defs>
    <g id="Page-1" stroke="none" stroke-width="1" fill="none" fill-rule="evenodd">
        <g id="checkmark-2" transform="translate(-1.000000, -1.000000)" fill-rule="nonzero" fill="#5CB85C">
            <path d="M1.17,7.05 C1.0645818,6.95030647 1.00035768,6.8147222 0.99,6.67 C0.997877485,6.52175463 1.06229965,6.38217328 1.17,6.28 L1.99,5.51 C2.21528328,5.29024091 2.57471672,5.29024091 2.8,5.51 L2.84,5.56 L5.99,8.81 C6.102,8.91666667 6.278,8.91666667 6.39,8.81 L14.11,1.16 L14.19,1.16 C14.4152833,0.940240911 14.7747167,0.940240911 15,1.16 L15.81,1.93 C15.921495,2.02686373 15.9855228,2.16730532 15.9855228,2.315 C15.9855228,2.46269468 15.921495,2.60313627 15.81,2.7 L15.81,2.7 L6.59,11.84 C6.36471672,12.0597591 6.00528328,12.0597591 5.78,11.84 L1.29,7.21 L1.17,7.05 Z" id="Shape"></path>
        </g>
    </g>
</svg>