<svg id="Layer_1" data-name="Layer 1" xmlns="http://www.w3.org/2000/svg" viewBox="0 0 18 18"><defs><style>.cls-1{fill:#5cb85c;}</style></defs><title>Untitled-2</title><path class="cls-1" d="M9,0a9,9,0,1,0,9,9A9,9,0,0,0,9,0Zm5.19,6.18h0L7.65,13a0.37,0.37,0,0,1-.29.12A0.32,0.32,0,0,1,7.08,13L3.89,9.53,3.8,9.45a0.39,0.39,0,0,1,0-.57L4.38,8.3a0.39,0.39,0,0,1,.57,0l0,0,2.25,2.41a0.2,0.2,0,0,0,.29,0L13,5.07h0a0.4,0.4,0,0,1,.57,0l0.57,0.57A0.35,0.35,0,0,1,14.19,6.18Z" transform="translate(0 0)"/></svg>