<?xml version="1.0" encoding="UTF-8"?>
<svg width="18px" height="18px" viewBox="0 0 18 18" version="1.1" xmlns="http://www.w3.org/2000/svg" xmlns:xlink="http://www.w3.org/1999/xlink">
    <!-- Generator: Sketch 44.1 (41455) - http://www.bohemiancoding.com/sketch -->
    <title>checkmark</title>
    <desc>Created with Sketch.</desc>
    <defs></defs>
    <g id="Page-1" stroke="none" stroke-width="1" fill="none" fill-rule="evenodd">
        <g id="checkmark" fill-rule="nonzero" fill="#5CB85C">
            <path d="M9,0 C4.02943725,-3.04359188e-16 6.08718376e-16,4.02943725 0,9 C-6.08718376e-16,13.9705627 4.02943725,18 9,18 C13.9705627,18 18,13.9705627 18,9 C18,6.61305159 17.0517884,4.32386638 15.363961,2.63603897 C13.6761336,0.948211563 11.3869484,1.46158436e-16 9,0 Z M14.19,6.18 L14.19,6.18 L7.65,13 C7.57592669,13.0810475 7.46968339,13.1250102 7.36,13.12 C7.2523924,13.1298403 7.14708638,13.0847092 7.08,13 L3.89,9.53 L3.8,9.45 C3.72104478,9.37624652 3.67622359,9.27304398 3.67622359,9.165 C3.67622359,9.05695602 3.72104478,8.95375348 3.8,8.88 L4.38,8.3 C4.45375348,8.22104478 4.55695602,8.17622359 4.665,8.17622359 C4.77304398,8.17622359 4.87624652,8.22104478 4.95,8.3 L4.95,8.3 L7.2,10.71 C7.23775879,10.7497462 7.29017771,10.7722502 7.345,10.7722502 C7.39982229,10.7722502 7.45224121,10.7497462 7.49,10.71 L13,5.07 L13,5.07 C13.075183,4.99365686 13.1778517,4.95066884 13.285,4.95066884 C13.3921483,4.95066884 13.494817,4.99365686 13.57,5.07 L14.14,5.64 C14.2272256,5.69867842 14.2834565,5.79345616 14.2931489,5.89813436 C14.3028413,6.00281257 14.2649687,6.10630358 14.19,6.18 L14.19,6.18 Z" id="Shape"></path>
        </g>
    </g>
</svg>