<svg id="Layer_1" data-name="Layer 1" xmlns="http://www.w3.org/2000/svg" viewBox="0 0 100 100"><defs><style>.cls-1,.cls-2{fill:#5cb85c;fill-rule:evenodd;}.cls-1{opacity:0.1;}.cls-3{fill:#fff;}</style></defs><title>Untitled-1</title><path class="cls-1" d="M50,0A50,50,0,1,1,0,50,50,50,0,0,1,50,0Z" transform="translate(0)"/><path class="cls-2" d="M50,15A35,35,0,1,1,15,50,35,35,0,0,1,50,15Z" transform="translate(0)"/><path class="cls-3" d="M41,56.4a5.64,5.64,0,0,0,2.3-.48,5.71,5.71,0,0,0,1.86-1.31,6.34,6.34,0,0,0,1.25-1.94A6.22,6.22,0,0,0,45.13,46a5.89,5.89,0,0,0-1.86-1.29,5.82,5.82,0,0,0-4.61,0A6.15,6.15,0,0,0,36.77,46a5.91,5.91,0,0,0-1.27,1.92,6.22,6.22,0,0,0,1.27,6.69,6,6,0,0,0,1.89,1.31A5.63,5.63,0,0,0,41,56.4Zm26.8-8.95a2.09,2.09,0,0,1,1.58.7,2.51,2.51,0,0,1,0,3.39,2.09,2.09,0,0,1-1.58.7H67.45v7.46a2.21,2.21,0,0,1-.68,1.63,2.33,2.33,0,0,1-3.29,0,2.21,2.21,0,0,1-.68-1.63V52.24H60.61v4.65a2.21,2.21,0,0,1-.68,1.63,2.33,2.33,0,0,1-3.29,0A2.21,2.21,0,0,1,56,56.89V52.24H51.75a11.64,11.64,0,0,1-1.32,3.71,11,11,0,0,1-5.64,4.92,10.3,10.3,0,0,1-3.84.72,10.47,10.47,0,0,1-4.28-.88,11,11,0,0,1-3.49-2.42,11.54,11.54,0,0,1,0-16,11,11,0,0,1,3.49-2.42,10.74,10.74,0,0,1,7.89-.25,10.64,10.64,0,0,1,3.12,1.76,11.53,11.53,0,0,1,2.39,2.69,11.76,11.76,0,0,1,1.49,3.37H67.76Z" transform="translate(0)"/></svg>