<svg id="Layer_1" data-name="Layer 1" xmlns="http://www.w3.org/2000/svg" viewBox="0 0 16 20"><defs><style>.cls-1{fill:#d7d7d7;}</style></defs><title>Untitled-1</title><path class="cls-1" d="M8,5.5A2.12,2.12,0,0,0,5.84,7.57,2.12,2.12,0,0,0,8,9.65a2.12,2.12,0,0,0,2.16-2.07A2.12,2.12,0,0,0,8,5.5ZM8,0A7.85,7.85,0,0,0,0,7.68a7.45,7.45,0,0,0,1.72,4.75L8,20l6.28-7.57A7.44,7.44,0,0,0,16,7.68,7.85,7.85,0,0,0,8,0ZM8,11A3.53,3.53,0,0,1,4.4,7.57,3.53,3.53,0,0,1,8,4.12a3.53,3.53,0,0,1,3.6,3.45A3.53,3.53,0,0,1,8,11Z" transform="translate(0 0)"/></svg>