<?xml version="1.0" encoding="UTF-8"?>
<svg width="16px" height="20px" viewBox="0 0 16 20" version="1.1" xmlns="http://www.w3.org/2000/svg" xmlns:xlink="http://www.w3.org/1999/xlink">
    <!-- Generator: Sketch 44.1 (41455) - http://www.bohemiancoding.com/sketch -->
    <title>location</title>
    <desc>Created with Sketch.</desc>
    <defs></defs>
    <g id="Page-1" stroke="none" stroke-width="1" fill="none" fill-rule="evenodd">
        <g id="location" transform="translate(0.000000, -1.000000)" fill-rule="nonzero" fill="#D7D7D7">
            <path d="M8,6.5 C6.83289628,6.47765546 5.8673172,7.40300208 5.84,8.57 C5.85050915,9.13229152 6.08400877,9.66736631 6.48910945,10.0574633 C6.89421014,10.4475602 7.43771225,10.6607093 8,10.65 C9.16710372,10.6723445 10.1326828,9.74699792 10.16,8.58 C10.1494908,8.01770848 9.91599123,7.48263369 9.51089055,7.09253674 C9.10578986,6.70243978 8.56228775,6.48929067 8,6.5 Z M8,1 C3.67190479,0.916284321 0.0929374275,4.35209299 0,8.68 C0.00262526748,10.4153313 0.610954163,12.0953094 1.72,13.43 L8,21 L14.28,13.43 C15.3897863,12.0957338 15.9982153,10.4154794 16,8.68 C15.9070626,4.35209299 12.3280952,0.916284321 8,1 Z M8,12 C6.06171416,12.039211 4.45452361,10.5079155 4.4,8.57 C4.44371595,6.62420523 6.05410672,5.08091408 8,5.12 C9.94589328,5.08091408 11.556284,6.62420523 11.6,8.57 C11.5454764,10.5079155 9.93828584,12.039211 8,12 L8,12 Z" id="Shape"></path>
        </g>
    </g>
</svg>