<?xml version="1.0" encoding="utf-8"?>
<!-- Generator: Adobe Illustrator 19.2.0, SVG Export Plug-In . SVG Version: 6.00 Build 0)  -->
<svg version="1.1" xmlns="http://www.w3.org/2000/svg" xmlns:xlink="http://www.w3.org/1999/xlink" x="0px" y="0px"
	 viewBox="0 0 299.5 130.8" style="enable-background:new 0 0 299.5 130.8;" xml:space="preserve">
<style type="text/css">
	.st0{fill:#FFFFFF;}
	.st1{fill:#CFCFCF;}
	.st2{fill:#1D1D1B;}
	.st3{fill:#B1B1B1;}
	.st4{fill:#FCC200;}
</style>
<g id="Layer_2">
</g>
<g id="Layer_1">
	<path class="st0" d="M246.5,24.5H56c-27.3,0-49.6,22.3-49.6,49.6c0,27.3,22.3,49.6,49.6,49.6h190.5c27.4,0,49.6-22.3,49.6-49.6
		C296.1,46.8,273.9,24.5,246.5,24.5z M10.3,74.1c0-18.2,10.7-33.9,26.1-41.3c-14.3,8.3-24,23.7-24,41.4v0c0,17,9,32,22.4,40.4
		C20.3,107,10.3,91.7,10.3,74.1z"/>
	<path class="st1" d="M246.5,123.7H56c-27.3,0-49.6-22.3-49.6-49.6c0-27.4,22.3-49.6,49.6-49.6h190.5c27.4,0,49.6,22.3,49.6,49.6
		C296.1,101.5,273.9,123.7,246.5,123.7 M56,28.4c-25.2,0-45.7,20.5-45.7,45.7c0,25.2,20.5,45.7,45.7,45.7h190.5
		c25.2,0,45.7-20.5,45.7-45.7c0-25.2-20.5-45.7-45.7-45.7H56z"/>
	<path class="st2" d="M223.7,46.4c-7.4,0-13.4,6-13.4,13.4c0,7.4,6,13.4,13.4,13.4c7.4,0,13.4-6,13.4-13.4
		C237.1,52.4,231.1,46.4,223.7,46.4 M223.7,66.6c-3.8,0-6.9-3.1-6.9-6.9c0-3.8,3.1-6.9,6.9-6.9c3.8,0,6.9,3.1,6.9,6.9
		C230.5,63.6,227.5,66.6,223.7,66.6"/>
	<path class="st2" d="M162.2,46.4c-7.4,0-13.4,6-13.4,13.4c0,7.4,6,13.4,13.4,13.4c7.4,0,13.4-6,13.4-13.4
		C175.6,52.4,169.6,46.4,162.2,46.4 M162.2,66.6c-3.8,0-6.9-3.1-6.9-6.9c0-3.8,3.1-6.9,6.9-6.9c3.8,0,6.9,3.1,6.9,6.9
		C169.1,63.6,166,66.6,162.2,66.6"/>
	<path class="st2" d="M209.4,67c-0.8,0.2-2.1,0.5-2.6,0.5c-2.3,0-2.8-0.8-2.8-3V52.1h5.5V47H204v-7.3h-6.2l-1.3,7.3h-4.3v0h-0.3
		c-3.5,0-6.2,2.2-7.9,5.5l-2.1-5.5h-4.4v25.7h7.6V61.5c0-5.6,3.3-9.2,7.3-9.3h4.1v12.8c0,6,3.1,8.3,8.1,8.3c2.6,0,4.6-0.5,5.8-0.9
		L209.4,67z"/>
	<polyline class="st2" points="246.2,55.1 246.2,72.7 238.9,72.7 238.9,47 243.3,47 244.8,50.9 	"/>
	<path class="st2" d="M244.8,50.9c2.2-2.6,5.3-4.5,8.9-4.5c6.1,0,8.6,4.9,8.6,9.4v16.9h-7.6V56c0-2.2-1.8-3.4-3.8-3.4
		c-2.1,0-3.5,1.2-4.7,2.5"/>
	<polygon class="st2" points="119.4,37.7 127.8,37.7 139.4,59.7 139.4,37.7 146.3,37.7 146.3,72.7 138.7,72.7 126.4,48.5 
		126.4,72.7 119.4,72.7 	"/>
	<path class="st3" d="M117.3,103.7l1.7-2.7c1.4,1,3.5,2,6.1,2c2.5,0,4.1-1.1,4.1-3.1c0-2.3-2-2.9-5.2-4c-2.9-1-5.8-2.5-5.8-6.6
		c0-3.9,3-5.9,7.1-5.9c2.7,0,4.7,0.5,6.3,1.5l-1.4,2.9c-1.4-0.7-3-1.2-4.9-1.2c-2.3,0-3.6,0.9-3.6,2.7c0,2.1,1.6,2.7,4.6,3.6
		c3.1,1,6.5,2.4,6.5,7c0,3.8-2.8,6.4-7.7,6.4C121.6,106.2,118.9,104.9,117.3,103.7"/>
	<polygon class="st3" points="139.5,83.7 152.8,83.7 152.8,86.7 143.3,86.7 143.3,92.8 150.8,92.8 150.8,95.8 143.3,95.8 
		143.3,102.8 153.4,102.8 153.4,105.9 139.5,105.9 	"/>
	<path class="st3" d="M158.7,94.8c0-6.5,3.1-11.5,9.3-11.5c2.8,0,5,0.9,6.5,2.7l-2.2,2.5c-1.3-1.3-2.5-1.9-4.3-1.9
		c-3.6,0-5.3,3-5.3,8.5c0,5.2,1.8,7.8,5.4,7.8c2,0,3.4-1,4.6-2.3l2.2,2.5c-1.6,1.9-3.6,3.2-6.9,3.2
		C161.7,106.2,158.7,101.3,158.7,94.8"/>
	<path class="st3" d="M181.1,97.4V83.7h3.8V98c0,3.1,0.8,5.1,4,5.1c3.2,0,4-2,4-5.1V83.7h3.8v13.7c0,5.5-2.1,8.8-7.9,8.8
		C183.2,106.2,181.1,102.9,181.1,97.4"/>
	<path class="st3" d="M219.9,105.9h-4.1l-4.3-9.4H208v9.4h-3.8V83.7h7.3c4.5,0,8,1.6,8,6.5c0,3.3-2,5-4.2,5.8L219.9,105.9z
		 M211.4,93.6c2.8,0,4.3-0.9,4.3-3.5c0-2.5-1.5-3.3-4-3.3H208v6.8H211.4z"/>
	<polygon class="st3" points="226.4,83.7 239.6,83.7 239.6,86.7 230.1,86.7 230.1,92.8 237.6,92.8 237.6,95.8 230.1,95.8 
		230.1,102.8 240.2,102.8 240.2,105.9 226.4,105.9 	"/>
	<path class="st3" d="M246.5,83.7h5.6c7.2,0,10.7,3.9,10.7,11c0,7.3-3.5,11.2-10.5,11.2h-5.7V83.7z M251.9,102.8c5.2,0,7-2.4,7-8.1
		c0-5-1.4-8-6.5-8h-2v16.1H251.9z"/>
	<path class="st4" d="M55.8,127.6c-29.5,0-53.5-24-53.5-53.5c0-29.5,24-53.5,53.5-53.5c29.5,0,53.5,24,53.5,53.5
		C109.3,103.6,85.3,127.6,55.8,127.6 M55.8,37.5c-9.8,0-19,3.8-25.9,10.7C23,55.2,19.2,64.4,19.2,74.1c0,9.8,3.8,19,10.7,25.9
		c6.9,6.9,16.1,10.7,25.9,10.7c9.8,0,19-3.8,25.9-10.7c6.9-6.9,10.7-16.1,10.7-25.9c0-9.8-3.8-19-10.7-25.9
		C74.7,41.3,65.5,37.5,55.8,37.5"/>
	<rect x="114.1" y="12.4" class="st4" width="4.2" height="4.2"/>
	<rect x="114.1" y="4" class="st4" width="4.2" height="4.2"/>
	<rect x="102.3" y="16.5" class="st4" width="3.9" height="4.1"/>
	<rect x="94.6" y="24.5" class="st2" width="3.9" height="3.9"/>
	<rect x="106.2" y="20.6" class="st2" width="4.4" height="3.9"/>
	<rect x="90.7" y="20.8" class="st2" width="3.9" height="3.7"/>
	<rect x="102.3" y="24.5" class="st2" width="3.9" height="3.9"/>
	<rect x="109.9" y="8.2" class="st2" width="4.1" height="4.1"/>
	<rect x="102.3" y="12.4" class="st2" width="7.6" height="4.1"/>
	<rect x="98.5" y="16.5" class="st2" width="3.8" height="8"/>
	<path class="st2" d="M98.5,28.4v3.9h-3.9v-3.9h-6.5v2.8h-3.5v3.5h3.9v3.9h-3.9v-3.9h-4.1v6.1h-3.9v3.9h-2.6v3.9h-2.9
		c-3.2,4.8-11.3,19.7-13.7,25.7c-8.8-12.2-15.6-17.1-21-18.8c-2.9-0.9-6.4,2.3-1.6,7.2C45.9,75,49.3,85,52.7,93
		c1.8,4.2,9.7,4.9,11.3,0.6c3.4-9.1,8.3-19.3,14.2-27.7v-4.4h3.1v-3.9h3.3V53h3.9v-4.4h-4v-4h4v4h3.9l0-3.9h3.1v-4.8H99v-3.3h3.4
		v-8.3H98.5z"/>
</g>
</svg>
