<?xml version="1.0" encoding="UTF-8"?>
<svg width="295px" height="124px" viewBox="0 0 295 124" version="1.1" xmlns="http://www.w3.org/2000/svg" xmlns:xlink="http://www.w3.org/1999/xlink">
    <!-- Generator: Sketch 44.1 (41455) - http://www.bohemiancoding.com/sketch -->
    <title>norton</title>
    <desc>Created with Sketch.</desc>
    <defs></defs>
    <g id="Page-1" stroke="none" stroke-width="1" fill="none" fill-rule="evenodd">
        <g id="norton" fill-rule="nonzero">
            <path d="M244.5,20.5 L54,20.5 C26.7,20.5 4.4,42.8 4.4,70.1 C4.4,97.4 26.7,119.7 54,119.7 L244.5,119.7 C271.9,119.7 294.1,97.4 294.1,70.1 C294.1,42.8 271.9,20.5 244.5,20.5 Z M8.3,70.1 C8.3,51.9 19,36.2 34.4,28.8 C20.1,37.1 10.4,52.5 10.4,70.2 L10.4,70.2 C10.4,87.2 19.4,102.2 32.8,110.6 C18.3,103 8.3,87.7 8.3,70.1 Z" id="Shape" fill="#FFFFFF"></path>
            <path d="M244.5,119.7 L54,119.7 C26.7,119.7 4.4,97.4 4.4,70.1 C4.4,42.7 26.7,20.5 54,20.5 L244.5,20.5 C271.9,20.5 294.1,42.8 294.1,70.1 C294.1,97.5 271.9,119.7 244.5,119.7 L244.5,119.7 Z M54,24.4 C28.8,24.4 8.3,44.9 8.3,70.1 C8.3,95.3 28.8,115.8 54,115.8 L244.5,115.8 C269.7,115.8 290.2,95.3 290.2,70.1 C290.2,44.9 269.7,24.4 244.5,24.4 L54,24.4 Z" id="Shape" fill="#CFCFCF"></path>
            <path d="M221.7,42.4 C214.3,42.4 208.3,48.4 208.3,55.8 C208.3,63.2 214.3,69.2 221.7,69.2 C229.1,69.2 235.1,63.2 235.1,55.8 C235.1,48.4 229.1,42.4 221.7,42.4 M221.7,62.6 C217.9,62.6 214.8,59.5 214.8,55.7 C214.8,51.9 217.9,48.8 221.7,48.8 C225.5,48.8 228.6,51.9 228.6,55.7 C228.5,59.6 225.5,62.6 221.7,62.6" id="Shape" fill="#1D1D1B"></path>
            <path d="M160.2,42.4 C152.8,42.4 146.8,48.4 146.8,55.8 C146.8,63.2 152.8,69.2 160.2,69.2 C167.6,69.2 173.6,63.2 173.6,55.8 C173.6,48.4 167.6,42.4 160.2,42.4 M160.2,62.6 C156.4,62.6 153.3,59.5 153.3,55.7 C153.3,51.9 156.4,48.8 160.2,48.8 C164,48.8 167.1,51.9 167.1,55.7 C167.1,59.6 164,62.6 160.2,62.6" id="Shape" fill="#1D1D1B"></path>
            <path d="M207.4,63 C206.6,63.2 205.3,63.5 204.8,63.5 C202.5,63.5 202,62.7 202,60.5 L202,48.1 L207.5,48.1 L207.5,43 L202,43 L202,35.7 L195.8,35.7 L194.5,43 L190.2,43 L190.2,43 L189.9,43 C186.4,43 183.7,45.2 182,48.5 L179.9,43 L175.5,43 L175.5,68.7 L183.1,68.7 L183.1,57.5 C183.1,51.9 186.4,48.3 190.4,48.2 L194.5,48.2 L194.5,61 C194.5,67 197.6,69.3 202.6,69.3 C205.2,69.3 207.2,68.8 208.4,68.4 L207.4,63 Z" id="Shape" fill="#1D1D1B"></path>
            <polyline id="Shape" fill="#1D1D1B" points="244.2 51.1 244.2 68.7 236.9 68.7 236.9 43 241.3 43 242.8 46.9"></polyline>
            <path d="M242.8,46.9 C245,44.3 248.1,42.4 251.7,42.4 C257.8,42.4 260.3,47.3 260.3,51.8 L260.3,68.7 L252.7,68.7 L252.7,52 C252.7,49.8 250.9,48.6 248.9,48.6 C246.8,48.6 245.4,49.8 244.2,51.1" id="Shape" fill="#1D1D1B"></path>
            <polygon id="Shape" fill="#1D1D1B" points="117.4 33.7 125.8 33.7 137.4 55.7 137.4 33.7 144.3 33.7 144.3 68.7 136.7 68.7 124.4 44.5 124.4 68.7 117.4 68.7"></polygon>
            <path d="M115.3,99.7 L117,97 C118.4,98 120.5,99 123.1,99 C125.6,99 127.2,97.9 127.2,95.9 C127.2,93.6 125.2,93 122,91.9 C119.1,90.9 116.2,89.4 116.2,85.3 C116.2,81.4 119.2,79.4 123.3,79.4 C126,79.4 128,79.9 129.6,80.9 L128.2,83.8 C126.8,83.1 125.2,82.6 123.3,82.6 C121,82.6 119.7,83.5 119.7,85.3 C119.7,87.4 121.3,88 124.3,88.9 C127.4,89.9 130.8,91.3 130.8,95.9 C130.8,99.7 128,102.3 123.1,102.3 C119.6,102.2 116.9,100.9 115.3,99.7" id="Shape" fill="#B1B1B1"></path>
            <polygon id="Shape" fill="#B1B1B1" points="137.5 79.7 150.8 79.7 150.8 82.7 141.3 82.7 141.3 88.8 148.8 88.8 148.8 91.8 141.3 91.8 141.3 98.8 151.4 98.8 151.4 101.9 137.5 101.9"></polygon>
            <path d="M156.7,90.8 C156.7,84.3 159.8,79.3 166,79.3 C168.8,79.3 171,80.2 172.5,82 L170.3,84.5 C169,83.2 167.8,82.6 166,82.6 C162.4,82.6 160.7,85.6 160.7,91.1 C160.7,96.3 162.5,98.9 166.1,98.9 C168.1,98.9 169.5,97.9 170.7,96.6 L172.9,99.1 C171.3,101 169.3,102.3 166,102.3 C159.7,102.2 156.7,97.3 156.7,90.8" id="Shape" fill="#B1B1B1"></path>
            <path d="M179.1,93.4 L179.1,79.7 L182.9,79.7 L182.9,94 C182.9,97.1 183.7,99.1 186.9,99.1 C190.1,99.1 190.9,97.1 190.9,94 L190.9,79.7 L194.7,79.7 L194.7,93.4 C194.7,98.9 192.6,102.2 186.8,102.2 C181.2,102.2 179.1,98.9 179.1,93.4" id="Shape" fill="#B1B1B1"></path>
            <path d="M217.9,101.9 L213.8,101.9 L209.5,92.5 L206,92.5 L206,101.9 L202.2,101.9 L202.2,79.7 L209.5,79.7 C214,79.7 217.5,81.3 217.5,86.2 C217.5,89.5 215.5,91.2 213.3,92 L217.9,101.9 Z M209.4,89.6 C212.2,89.6 213.7,88.7 213.7,86.1 C213.7,83.6 212.2,82.8 209.7,82.8 L206,82.8 L206,89.6 L209.4,89.6 Z" id="Shape" fill="#B1B1B1"></path>
            <polygon id="Shape" fill="#B1B1B1" points="224.4 79.7 237.6 79.7 237.6 82.7 228.1 82.7 228.1 88.8 235.6 88.8 235.6 91.8 228.1 91.8 228.1 98.8 238.2 98.8 238.2 101.9 224.4 101.9"></polygon>
            <path d="M244.5,79.7 L250.1,79.7 C257.3,79.7 260.8,83.6 260.8,90.7 C260.8,98 257.3,101.9 250.3,101.9 L244.6,101.9 L244.6,79.7 L244.5,79.7 Z M249.9,98.8 C255.1,98.8 256.9,96.4 256.9,90.7 C256.9,85.7 255.5,82.7 250.4,82.7 L248.4,82.7 L248.4,98.8 L249.9,98.8 L249.9,98.8 Z" id="Shape" fill="#B1B1B1"></path>
            <path d="M53.8,123.6 C24.3,123.6 0.3,99.6 0.3,70.1 C0.3,40.6 24.3,16.6 53.8,16.6 C83.3,16.6 107.3,40.6 107.3,70.1 C107.3,99.6 83.3,123.6 53.8,123.6 M53.8,33.5 C44,33.5 34.8,37.3 27.9,44.2 C21,51.2 17.2,60.4 17.2,70.1 C17.2,79.9 21,89.1 27.9,96 C34.8,102.9 44,106.7 53.8,106.7 C63.6,106.7 72.8,102.9 79.7,96 C86.6,89.1 90.4,79.9 90.4,70.1 C90.4,60.3 86.6,51.1 79.7,44.2 C72.7,37.3 63.5,33.5 53.8,33.5" id="Shape" fill="#FCC200"></path>
            <rect id="Rectangle-path" fill="#FCC200" x="112.1" y="8.4" width="4.2" height="4.2"></rect>
            <rect id="Rectangle-path" fill="#FCC200" x="112.1" y="0" width="4.2" height="4.2"></rect>
            <rect id="Rectangle-path" fill="#FCC200" x="100.3" y="12.5" width="3.9" height="4.1"></rect>
            <rect id="Rectangle-path" fill="#1D1D1B" x="92.6" y="20.5" width="3.9" height="3.9"></rect>
            <rect id="Rectangle-path" fill="#1D1D1B" x="104.2" y="16.6" width="4.4" height="3.9"></rect>
            <rect id="Rectangle-path" fill="#1D1D1B" x="88.7" y="16.8" width="3.9" height="3.7"></rect>
            <rect id="Rectangle-path" fill="#1D1D1B" x="100.3" y="20.5" width="3.9" height="3.9"></rect>
            <rect id="Rectangle-path" fill="#1D1D1B" x="107.9" y="4.2" width="4.1" height="4.1"></rect>
            <rect id="Rectangle-path" fill="#1D1D1B" x="100.3" y="8.4" width="7.6" height="4.1"></rect>
            <rect id="Rectangle-path" fill="#1D1D1B" x="96.5" y="12.5" width="3.8" height="8"></rect>
            <path d="M96.5,24.4 L96.5,28.3 L92.6,28.3 L92.6,24.4 L86.1,24.4 L86.1,27.2 L82.6,27.2 L82.6,30.7 L86.5,30.7 L86.5,34.6 L82.6,34.6 L82.6,30.7 L78.5,30.7 L78.5,36.8 L74.6,36.8 L74.6,40.7 L72,40.7 L72,44.6 L69.1,44.6 C65.9,49.4 57.8,64.3 55.4,70.3 C46.6,58.1 39.8,53.2 34.4,51.5 C31.5,50.6 28,53.8 32.8,58.7 C43.9,71 47.3,81 50.7,89 C52.5,93.2 60.4,93.9 62,89.6 C65.4,80.5 70.3,70.3 76.2,61.9 L76.2,57.5 L79.3,57.5 L79.3,53.6 L82.6,53.6 L82.6,49 L86.5,49 L86.5,44.6 L82.5,44.6 L82.5,40.6 L86.5,40.6 L86.5,44.6 L90.4,44.6 L90.4,40.7 L93.5,40.7 L93.5,35.9 L97,35.9 L97,32.6 L100.4,32.6 L100.4,24.3 L96.5,24.3 L96.5,24.4 Z" id="Shape" fill="#1D1D1B"></path>
        </g>
    </g>
</svg>