<?xml version="1.0" encoding="UTF-8"?>
<svg width="434px" height="505px" viewBox="0 0 434 505" version="1.1" xmlns="http://www.w3.org/2000/svg" xmlns:xlink="http://www.w3.org/1999/xlink">
    <!-- Generator: Sketch 44.1 (41455) - http://www.bohemiancoding.com/sketch -->
    <title>padlock</title>
    <desc>Created with Sketch.</desc>
    <defs></defs>
    <g id="Page-1" stroke="none" stroke-width="1" fill="none" fill-rule="evenodd">
        <g id="padlock" fill-rule="nonzero">
            <path d="M31.954,196.923 L402.169,196.923 C419.498,196.923 433.677,211.101 433.677,228.431 L433.677,472.616 C433.677,489.945 419.499,504.124 402.169,504.124 L31.954,504.124 C14.625,504.124 0.446,489.946 0.446,472.616 L0.446,228.431 C0.446,211.102 14.625,196.923 31.954,196.923 Z" id="Shape" fill="#ECC45C"></path>
            <path d="M31.954,181.169 L402.169,181.169 C419.498,181.169 433.677,195.347 433.677,212.677 L433.677,228.431 C433.677,245.76 419.499,259.939 402.169,259.939 L31.954,259.939 C14.625,259.939 0.446,245.761 0.446,228.431 L0.446,212.677 C0.446,195.348 14.625,181.169 31.954,181.169 Z" id="Shape" fill="#F8D578"></path>
            <path d="M79.215,204.8 C59.523,204.8 43.769,211.889 43.769,220.554 C43.769,229.219 59.523,236.308 79.215,236.308 C98.907,236.308 114.661,229.219 114.661,220.554 C114.662,211.889 98.908,204.8 79.215,204.8 Z M354.908,204.8 C335.216,204.8 319.462,211.889 319.462,220.554 C319.462,229.219 335.216,236.308 354.908,236.308 C374.6,236.308 390.354,229.219 390.354,220.554 C390.354,211.889 374.6,204.8 354.908,204.8 Z M217.062,322.954 C249.751,322.954 276.139,349.342 276.139,382.031 C276.139,414.72 249.751,441.108 217.062,441.108 C184.373,441.108 157.985,414.72 157.985,382.031 C157.985,349.342 184.372,322.954 217.062,322.954 Z" id="Shape" fill="#D4B053"></path>
            <path d="M217.062,338.708 C241.087,338.708 260.385,358.006 260.385,382.031 C260.385,406.056 241.087,425.354 217.062,425.354 C193.037,425.354 173.739,406.056 173.739,382.031 C173.738,358.006 193.037,338.708 217.062,338.708 Z" id="Shape" fill="#E4E7E7"></path>
            <path d="M217.062,362.338 C221.394,362.338 224.939,365.883 224.939,370.215 L224.939,393.846 C224.939,398.178 221.394,401.723 217.062,401.723 C212.73,401.723 209.185,398.178 209.185,393.846 L209.185,370.215 C209.185,365.883 212.729,362.338 217.062,362.338 Z" id="Shape" fill="#324D5B"></path>
            <path d="M217.062,0 C125.689,0 51.646,74.043 51.646,165.415 L51.646,212.677 C51.646,221.342 63.855,228.431 79.215,228.431 C94.575,228.431 106.784,221.342 106.784,212.677 L106.784,165.415 C106.784,104.369 156.015,55.138 217.061,55.138 C278.107,55.138 327.338,104.369 327.338,165.415 L327.338,212.677 C327.338,221.342 339.547,228.431 354.907,228.431 C370.267,228.431 382.476,221.342 382.476,212.677 L382.476,165.415 C382.477,74.043 308.434,0 217.062,0 Z" id="Shape" fill="#E4E7E7"></path>
            <path d="M217.062,31.508 C143.019,31.508 83.154,91.373 83.154,165.416 L83.154,228.431 C96.545,227.249 106.785,220.948 106.785,212.677 L106.785,165.415 C106.785,104.369 156.016,55.138 217.062,55.138 C278.108,55.138 327.339,104.369 327.339,165.415 L327.339,212.677 C327.339,220.554 337.579,227.249 350.97,228.431 L350.97,165.416 C350.969,91.372 291.105,31.508 217.062,31.508 Z" id="Shape" fill="#CDCFCF"></path>
        </g>
    </g>
</svg>