<?xml version="1.0" encoding="UTF-8"?>
<svg width="63px" height="17px" viewBox="0 0 63 17" version="1.1" xmlns="http://www.w3.org/2000/svg" xmlns:xlink="http://www.w3.org/1999/xlink">
    <!-- Generator: Sketch 44.1 (41455) - http://www.bohemiancoding.com/sketch -->
    <title>Paypal</title>
    <desc>Created with Sketch.</desc>
    <defs></defs>
    <g id="Page-1" stroke="none" stroke-width="1" fill="none" fill-rule="evenodd">
        <g id="Paypal" fill-rule="nonzero">
            <path d="M48.7,4.2 L45.3,4.2 C45.1,4.2 44.9,4.4 44.8,4.6 L43.4,13.4 C43.4,13.6 43.5,13.7 43.7,13.7 L45.5,13.7 C45.7,13.7 45.8,13.6 45.8,13.4 L46.2,10.9 C46.2,10.7 46.4,10.5 46.7,10.5 L47.8,10.5 C50.1,10.5 51.4,9.4 51.7,7.2 C51.9,6.3 51.7,5.5 51.3,5 C50.7,4.5 49.8,4.2 48.7,4.2 M49.1,7.5 C48.9,8.7 48,8.7 47.1,8.7 L46.5,8.7 L46.9,6.4 C46.9,6.3 47,6.2 47.2,6.2 L47.4,6.2 C48,6.2 48.6,6.2 48.9,6.6 C49.1,6.7 49.1,7 49.1,7.5" id="Shape" fill="#139AD6"></path>
            <path d="M24.2,4.2 L20.8,4.2 C20.6,4.2 20.4,4.4 20.3,4.6 L18.9,13.4 C18.9,13.6 19,13.7 19.2,13.7 L20.8,13.7 C21,13.7 21.2,13.5 21.3,13.3 L21.7,10.9 C21.7,10.7 21.9,10.5 22.2,10.5 L23.3,10.5 C25.6,10.5 26.9,9.4 27.2,7.2 C27.4,6.3 27.2,5.5 26.8,5 C26.2,4.5 25.4,4.2 24.2,4.2 M24.6,7.5 C24.4,8.7 23.5,8.7 22.6,8.7 L22.1,8.7 L22.5,6.4 C22.5,6.3 22.6,6.2 22.8,6.2 L23,6.2 C23.6,6.2 24.2,6.2 24.5,6.6 C24.6,6.7 24.7,7 24.6,7.5" id="Shape" fill="#263B80"></path>
            <path d="M34.5,7.4 L32.9,7.4 C32.8,7.4 32.6,7.5 32.6,7.6 L32.5,8.1 L32.4,7.9 C32,7.4 31.3,7.2 30.5,7.2 C28.7,7.2 27.1,8.6 26.8,10.5 C26.6,11.5 26.9,12.4 27.4,13 C27.9,13.6 28.6,13.8 29.5,13.8 C31,13.8 31.8,12.9 31.8,12.9 L31.7,13.4 C31.7,13.6 31.8,13.7 32,13.7 L33.5,13.7 C33.7,13.7 33.9,13.5 34,13.3 L34.9,7.7 C34.8,7.6 34.6,7.4 34.5,7.4 M32.2,10.6 C32,11.5 31.3,12.2 30.3,12.2 C29.8,12.2 29.4,12 29.2,11.8 C29,11.5 28.9,11.1 28.9,10.6 C29,9.7 29.8,9 30.7,9 C31.2,9 31.5,9.2 31.8,9.4 C32.1,9.7 32.2,10.2 32.2,10.6" id="Shape" fill="#263B80"></path>
            <path d="M58.9,7.4 L57.3,7.4 C57.2,7.4 57,7.5 57,7.6 L56.9,8.1 L56.8,7.9 C56.4,7.4 55.7,7.2 54.9,7.2 C53.1,7.2 51.5,8.6 51.2,10.5 C51,11.5 51.3,12.4 51.8,13 C52.3,13.6 53,13.8 53.9,13.8 C55.4,13.8 56.2,12.9 56.2,12.9 L56.1,13.4 C56.1,13.6 56.2,13.7 56.4,13.7 L57.9,13.7 C58.1,13.7 58.3,13.5 58.4,13.3 L59.3,7.7 C59.2,7.6 59.1,7.4 58.9,7.4 M56.6,10.6 C56.4,11.5 55.7,12.2 54.7,12.2 C54.2,12.2 53.8,12 53.6,11.8 C53.4,11.5 53.3,11.1 53.3,10.6 C53.4,9.7 54.2,9 55.1,9 C55.6,9 55.9,9.2 56.2,9.4 C56.6,9.7 56.7,10.2 56.6,10.6" id="Shape" fill="#139AD6"></path>
            <g id="Group">
                <path d="M43.2,7.4 L41.5,7.4 C41.3,7.4 41.2,7.5 41.1,7.6 L38.9,11 L37.9,7.8 C37.8,7.6 37.7,7.5 37.4,7.5 L35.8,7.5 C35.6,7.5 35.5,7.7 35.5,7.9 L37.3,13.2 L35.6,15.6 C35.5,15.8 35.6,16.1 35.8,16.1 L37.4,16.1 C37.6,16.1 37.7,16 37.8,15.9 L43.3,8 C43.6,7.7 43.4,7.4 43.2,7.4" id="Shape" fill="#263B80"></path>
                <path d="M60.8,4.5 L59.4,13.5 C59.4,13.7 59.5,13.8 59.7,13.8 L61.1,13.8 C61.3,13.8 61.5,13.6 61.6,13.4 L63,4.6 C63,4.4 62.9,4.3 62.7,4.3 L61.1,4.3 C61,4.2 60.9,4.3 60.8,4.5" id="Shape" fill="#139AD6"></path>
                <path d="M11.5,1.2 C10.8,0.4 9.5,0 7.7,0 L2.7,0 C2.4,0 2.1,0.3 2,0.6 L0,13.7 C0,14 0.2,14.2 0.4,14.2 L3.5,14.2 L4.3,9.3 L4.3,9.5 C4.4,9.2 4.7,8.9 5,8.9 L6.5,8.9 C9.4,8.9 11.6,7.7 12.3,4.4 C12.3,4.3 12.3,4.2 12.3,4.1 C12.2,4.1 12.2,4.1 12.3,4.1 C12.4,2.8 12.2,2 11.5,1.2" id="Shape" fill="#263B80"></path>
            </g>
            <path d="M12.2,4.1 L12.2,4.1 C12.2,4.2 12.2,4.3 12.2,4.4 C11.5,7.8 9.3,8.9 6.4,8.9 L4.9,8.9 C4.6,8.9 4.3,9.2 4.2,9.5 L3.2,15.6 C3.2,15.8 3.3,16 3.6,16 L6.2,16 C6.5,16 6.8,15.8 6.8,15.5 L6.8,15.4 L7.3,12.3 L7.3,12.1 C7.3,11.8 7.6,11.6 7.9,11.6 L8.3,11.6 C10.8,11.6 12.8,10.6 13.3,7.6 C13.5,6.4 13.4,5.3 12.8,4.6 C12.7,4.4 12.5,4.2 12.2,4.1" id="Shape" fill="#139AD6"></path>
            <path d="M11.5,3.8 C11.4,3.8 11.3,3.7 11.2,3.7 C11.1,3.7 11,3.7 10.9,3.6 C10.5,3.5 10.1,3.5 9.6,3.5 L5.7,3.5 C5.6,3.5 5.5,3.5 5.4,3.6 C5.2,3.7 5.1,3.9 5.1,4.1 L4.3,9.3 L4.3,9.5 C4.4,9.2 4.7,8.9 5,8.9 L6.5,8.9 C9.4,8.9 11.6,7.7 12.3,4.4 C12.3,4.3 12.3,4.2 12.4,4.1 C12.2,4 12.1,3.9 11.9,3.9 C11.6,3.8 11.6,3.8 11.5,3.8" id="Shape" fill="#232C65"></path>
        </g>
    </g>
</svg>