<?xml version="1.0" encoding="utf-8"?>
<!-- Generator: Adobe Illustrator 19.2.1, SVG Export Plug-In . SVG Version: 6.00 Build 0)  -->
<svg version="1.1" id="Layer_1" xmlns="http://www.w3.org/2000/svg" xmlns:xlink="http://www.w3.org/1999/xlink" x="0px" y="0px"
	 viewBox="0 0 63 16.1" style="enable-background:new 0 0 63 16.1;" xml:space="preserve">
<style type="text/css">
	.st0{fill:#139AD6;}
	.st1{fill:#263B80;}
	.st2{fill:#232C65;}
</style>
<g>
	<g>
		<path class="st0" d="M48.7,4.2h-3.4c-0.2,0-0.4,0.2-0.5,0.4l-1.4,8.8c0,0.2,0.1,0.3,0.3,0.3h1.8c0.2,0,0.3-0.1,0.3-0.3l0.4-2.5
			c0-0.2,0.2-0.4,0.5-0.4h1.1c2.3,0,3.6-1.1,3.9-3.3c0.2-0.9,0-1.7-0.4-2.2C50.7,4.5,49.8,4.2,48.7,4.2 M49.1,7.5
			c-0.2,1.2-1.1,1.2-2,1.2h-0.6l0.4-2.3c0-0.1,0.1-0.2,0.3-0.2h0.2c0.6,0,1.2,0,1.5,0.4C49.1,6.7,49.1,7,49.1,7.5"/>
	</g>
	<g>
		<path class="st1" d="M24.2,4.2h-3.4c-0.2,0-0.4,0.2-0.5,0.4l-1.4,8.8c0,0.2,0.1,0.3,0.3,0.3h1.6c0.2,0,0.4-0.2,0.5-0.4l0.4-2.4
			c0-0.2,0.2-0.4,0.5-0.4h1.1c2.3,0,3.6-1.1,3.9-3.3c0.2-0.9,0-1.7-0.4-2.2C26.2,4.5,25.4,4.2,24.2,4.2 M24.6,7.5
			c-0.2,1.2-1.1,1.2-2,1.2h-0.5l0.4-2.3c0-0.1,0.1-0.2,0.3-0.2H23c0.6,0,1.2,0,1.5,0.4C24.6,6.7,24.7,7,24.6,7.5"/>
	</g>
	<g>
		<path class="st1" d="M34.5,7.4h-1.6c-0.1,0-0.3,0.1-0.3,0.2l-0.1,0.5l-0.1-0.2c-0.4-0.5-1.1-0.7-1.9-0.7c-1.8,0-3.4,1.4-3.7,3.3
			c-0.2,1,0.1,1.9,0.6,2.5s1.2,0.8,2.1,0.8c1.5,0,2.3-0.9,2.3-0.9l-0.1,0.5c0,0.2,0.1,0.3,0.3,0.3h1.5c0.2,0,0.4-0.2,0.5-0.4
			l0.9-5.6C34.8,7.6,34.6,7.4,34.5,7.4 M32.2,10.6c-0.2,0.9-0.9,1.6-1.9,1.6c-0.5,0-0.9-0.2-1.1-0.4c-0.2-0.3-0.3-0.7-0.3-1.2
			C29,9.7,29.8,9,30.7,9c0.5,0,0.8,0.2,1.1,0.4C32.1,9.7,32.2,10.2,32.2,10.6"/>
	</g>
	<g>
		<path class="st0" d="M58.9,7.4h-1.6c-0.1,0-0.3,0.1-0.3,0.2l-0.1,0.5l-0.1-0.2c-0.4-0.5-1.1-0.7-1.9-0.7c-1.8,0-3.4,1.4-3.7,3.3
			c-0.2,1,0.1,1.9,0.6,2.5s1.2,0.8,2.1,0.8c1.5,0,2.3-0.9,2.3-0.9l-0.1,0.5c0,0.2,0.1,0.3,0.3,0.3h1.5c0.2,0,0.4-0.2,0.5-0.4
			l0.9-5.6C59.2,7.6,59.1,7.4,58.9,7.4 M56.6,10.6c-0.2,0.9-0.9,1.6-1.9,1.6c-0.5,0-0.9-0.2-1.1-0.4c-0.2-0.3-0.3-0.7-0.3-1.2
			C53.4,9.7,54.2,9,55.1,9c0.5,0,0.8,0.2,1.1,0.4C56.6,9.7,56.7,10.2,56.6,10.6"/>
	</g>
	<g>
		<g>
			<path class="st1" d="M43.2,7.4h-1.7c-0.2,0-0.3,0.1-0.4,0.2L38.9,11l-1-3.2c-0.1-0.2-0.2-0.3-0.5-0.3h-1.6
				c-0.2,0-0.3,0.2-0.3,0.4l1.8,5.3l-1.7,2.4c-0.1,0.2,0,0.5,0.2,0.5h1.6c0.2,0,0.3-0.1,0.4-0.2L43.3,8C43.6,7.7,43.4,7.4,43.2,7.4"
				/>
		</g>
		<g>
			<path class="st0" d="M60.8,4.5l-1.4,9c0,0.2,0.1,0.3,0.3,0.3h1.4c0.2,0,0.4-0.2,0.5-0.4L63,4.6c0-0.2-0.1-0.3-0.3-0.3h-1.6
				C61,4.2,60.9,4.3,60.8,4.5"/>
		</g>
		<g>
			<path class="st1" d="M11.5,1.2C10.8,0.4,9.5,0,7.7,0h-5C2.4,0,2.1,0.3,2,0.6L0,13.7c0,0.3,0.2,0.5,0.4,0.5h3.1l0.8-4.9v0.2
				C4.4,9.2,4.7,8.9,5,8.9h1.5c2.9,0,5.1-1.2,5.8-4.5c0-0.1,0-0.2,0-0.3c-0.1,0-0.1,0,0,0C12.4,2.8,12.2,2,11.5,1.2"/>
		</g>
	</g>
	<g>
		<path class="st0" d="M12.2,4.1L12.2,4.1c0,0.1,0,0.2,0,0.3c-0.7,3.4-2.9,4.5-5.8,4.5H4.9c-0.3,0-0.6,0.3-0.7,0.6l-1,6.1
			c0,0.2,0.1,0.4,0.4,0.4h2.6c0.3,0,0.6-0.2,0.6-0.5v-0.1l0.5-3.1v-0.2c0-0.3,0.3-0.5,0.6-0.5h0.4c2.5,0,4.5-1,5-4
			c0.2-1.2,0.1-2.3-0.5-3C12.7,4.4,12.5,4.2,12.2,4.1"/>
	</g>
	<g>
		<path class="st2" d="M11.5,3.8c-0.1,0-0.2-0.1-0.3-0.1s-0.2,0-0.3-0.1c-0.4-0.1-0.8-0.1-1.3-0.1H5.7c-0.1,0-0.2,0-0.3,0.1
			C5.2,3.7,5.1,3.9,5.1,4.1L4.3,9.3v0.2C4.4,9.2,4.7,8.9,5,8.9h1.5c2.9,0,5.1-1.2,5.8-4.5c0-0.1,0-0.2,0.1-0.3
			c-0.2-0.1-0.3-0.2-0.5-0.2C11.6,3.8,11.6,3.8,11.5,3.8"/>
	</g>
</g>
</svg>
