<?xml version="1.0" encoding="UTF-8"?>
<svg width="100px" height="15px" viewBox="0 0 100 15" version="1.1" xmlns="http://www.w3.org/2000/svg" xmlns:xlink="http://www.w3.org/1999/xlink">
    <!-- Generator: Sketch 44.1 (41455) - http://www.bohemiancoding.com/sketch -->
    <title>stars</title>
    <desc>Created with Sketch.</desc>
    <defs></defs>
    <g id="Page-1" stroke="none" stroke-width="1" fill="none" fill-rule="evenodd">
        <g id="stars" transform="translate(0.000000, -1.000000)" fill-rule="nonzero" fill="#F5C419">
            <path d="M8.4,1.2 L10.4,5.9 L15.6,6.3 C16,6.3 16.1,6.8 15.8,7 L11.8,10.4 L13,15.4 C13.1,15.7 12.7,16 12.4,15.8 L8,13.3 L3.5,16 C3.2,16.2 2.8,15.9 2.9,15.6 L4.1,10.6 L0.1,7.2 C-0.1,6.9 1.11022302e-16,6.5 0.4,6.4 L5.6,6 L7.6,1.3 C7.8,0.9 8.2,0.9 8.4,1.2 L8.4,1.2 Z" id="Shape"></path>
            <path d="M29.4,1.2 L31.4,5.9 L36.6,6.3 C37,6.3 37.1,6.8 36.8,7 L32.8,10.4 L34,15.4 C34.1,15.7 33.7,16 33.4,15.8 L29,13.3 L24.5,16 C24.2,16.2 23.8,15.9 23.9,15.6 L25.1,10.6 L21.1,7.2 C20.8,7 21,6.5 21.3,6.5 L26.6,6 L28.6,1.3 C28.8,0.9 29.2,0.9 29.4,1.2 L29.4,1.2 Z" id="Shape"></path>
            <path d="M50.4,1.2 L52.4,5.9 L57.6,6.3 C58,6.3 58.1,6.8 57.8,7 L53.8,10.4 L55,15.4 C55.1,15.7 54.7,16 54.4,15.8 L50,13.3 L45.5,16 C45.2,16.2 44.8,15.9 44.9,15.6 L46.1,10.6 L42.1,7.2 C41.8,7 42,6.5 42.3,6.5 L47.6,6 L49.6,1.3 C49.8,0.9 50.2,0.9 50.4,1.2 L50.4,1.2 Z" id="Shape"></path>
            <path d="M71.4,1.2 L73.4,5.9 L78.6,6.3 C79,6.3 79.1,6.8 78.8,7 L74.8,10.4 L76,15.4 C76.1,15.7 75.7,16 75.4,15.8 L71,13.3 L66.5,16 C66.2,16.2 65.8,15.9 65.9,15.6 L67.1,10.6 L63.1,7.2 C62.8,7 63,6.5 63.3,6.5 L68.6,6 L70.6,1.3 C70.8,0.9 71.2,0.9 71.4,1.2 L71.4,1.2 Z" id="Shape"></path>
            <path d="M92.4,1.2 L94.4,5.9 L99.6,6.3 C100,6.3 100.1,6.8 99.8,7 L95.8,10.4 L97,15.4 C97.1,15.7 96.7,16 96.4,15.8 L92,13.3 L87.5,16 C87.2,16.2 86.8,15.9 86.9,15.6 L88.1,10.6 L84.1,7.2 C83.8,7 84,6.5 84.3,6.5 L89.6,6 L91.6,1.3 C91.8,0.9 92.2,0.9 92.4,1.2 L92.4,1.2 Z" id="Shape"></path>
        </g>
    </g>
</svg>