<?xml version="1.0" encoding="utf-8"?>
<!-- Generator: Adobe Illustrator 19.2.1, SVG Export Plug-In . SVG Version: 6.00 Build 0)  -->
<svg version="1.1" id="Layer_1" xmlns="http://www.w3.org/2000/svg" xmlns:xlink="http://www.w3.org/1999/xlink" x="0px" y="0px"
	 viewBox="0 0 100 15" style="enable-background:new 0 0 100 15;" xml:space="preserve">
<style type="text/css">
	.st0{fill:#F5C419;}
</style>
<g>
	<path class="st0" d="M8.4,0.2l2,4.7l5.2,0.4c0.4,0,0.5,0.5,0.2,0.7l-4,3.4l1.2,5c0.1,0.3-0.3,0.6-0.6,0.4L8,12.3L3.5,15
		c-0.3,0.2-0.7-0.1-0.6-0.4l1.2-5l-4-3.4C-0.1,5.9,0,5.5,0.4,5.4L5.6,5l2-4.7C7.8-0.1,8.2-0.1,8.4,0.2L8.4,0.2z"/>
</g>
<g>
	<path class="st0" d="M29.4,0.2l2,4.7l5.2,0.4c0.4,0,0.5,0.5,0.2,0.7l-4,3.4l1.2,5c0.1,0.3-0.3,0.6-0.6,0.4L29,12.3L24.5,15
		c-0.3,0.2-0.7-0.1-0.6-0.4l1.2-5l-4-3.4C20.8,6,21,5.5,21.3,5.5L26.6,5l2-4.7C28.8-0.1,29.2-0.1,29.4,0.2L29.4,0.2z"/>
</g>
<g>
	<path class="st0" d="M50.4,0.2l2,4.7l5.2,0.4c0.4,0,0.5,0.5,0.2,0.7l-4,3.4l1.2,5c0.1,0.3-0.3,0.6-0.6,0.4L50,12.3L45.5,15
		c-0.3,0.2-0.7-0.1-0.6-0.4l1.2-5l-4-3.4C41.8,6,42,5.5,42.3,5.5L47.6,5l2-4.7C49.8-0.1,50.2-0.1,50.4,0.2L50.4,0.2z"/>
</g>
<g>
	<path class="st0" d="M71.4,0.2l2,4.7l5.2,0.4c0.4,0,0.5,0.5,0.2,0.7l-4,3.4l1.2,5c0.1,0.3-0.3,0.6-0.6,0.4L71,12.3L66.5,15
		c-0.3,0.2-0.7-0.1-0.6-0.4l1.2-5l-4-3.4C62.8,6,63,5.5,63.3,5.5L68.6,5l2-4.7C70.8-0.1,71.2-0.1,71.4,0.2L71.4,0.2z"/>
</g>
<g>
	<path class="st0" d="M92.4,0.2l2,4.7l5.2,0.4c0.4,0,0.5,0.5,0.2,0.7l-4,3.4l1.2,5c0.1,0.3-0.3,0.6-0.6,0.4L92,12.3L87.5,15
		c-0.3,0.2-0.7-0.1-0.6-0.4l1.2-5l-4-3.4C83.8,6,84,5.5,84.3,5.5L89.6,5l2-4.7C91.8-0.1,92.2-0.1,92.4,0.2L92.4,0.2z"/>
</g>
</svg>
