<svg id="Layer_1" data-name="Layer 1" xmlns="http://www.w3.org/2000/svg" viewBox="0 0 74 74"><defs><style>.cls-1{fill:#fff;opacity:0.3;}.cls-2{fill:#f4f8f8;}.cls-3{fill:#fc6e51;}.cls-4{fill:#484b4d;}</style></defs><title>Vector Smart Object</title><g id="telephone-24-7-customer-support"><polygon class="cls-1" points="74 37 70.04 41.35 72.75 46.58 67.79 49.75 69.05 55.5 63.44 57.28 63.16 63.16 57.28 63.44 55.5 69.05 49.75 67.79 46.58 72.75 41.35 70.04 37 74 32.65 70.04 27.42 72.75 24.25 67.79 18.49 69.05 16.72 63.44 10.84 63.16 10.56 57.28 4.95 55.5 6.21 49.75 1.25 46.58 3.96 41.35 0 37 3.96 32.65 1.25 27.42 6.21 24.25 4.95 18.5 10.56 16.72 10.84 10.84 16.72 10.56 18.5 4.95 24.25 6.21 27.42 1.25 32.65 3.96 37 0 41.35 3.96 46.58 1.25 49.75 6.21 55.5 4.95 57.28 10.56 63.16 10.84 63.44 16.72 69.05 18.5 67.79 24.25 72.75 27.42 70.04 32.65 74 37"/><g id="_25" data-name="25"><path class="cls-2" d="M58.2,37A21.2,21.2,0,1,1,37,15.8,21.2,21.2,0,0,1,58.2,37Z"/><g id="_12" data-name="12"><path class="cls-3" d="M34.49,33.73c3.61-.86,6.22-3.44,6.22-6.35,0-3.62-4-6.56-9-6.56s-9,2.94-9,6.56c0,3.38,3.51,6.16,8,6.52h0s2.23,2.53,4.69,3A6,6,0,0,1,34.49,33.73Z"/><path class="cls-2" d="M39,24.76l-2,4.46h-1.3l1.07-2.36c0.08-.17.17-0.34,0.26-0.52s0.2-.34.31-0.51H35.86V24.76H39ZM27.45,27.21a2,2,0,0,0,.27-1,1.41,1.41,0,0,0-.4-1,1.36,1.36,0,0,0-1-.4,1.41,1.41,0,0,0-1.48,1.48v0.16H26s0-.07,0-0.09a0.61,0.61,0,0,1,0-.07c0-.36.1-0.54,0.29-0.54a0.25,0.25,0,0,1,.21.11,0.49,0.49,0,0,1,.08.29,1.39,1.39,0,0,1-.16.64,4.32,4.32,0,0,1-.22.38l-0.35.49-1.22,1.61h3.06V28.15a4.8,4.8,0,0,0-.56,0,3.65,3.65,0,0,0-.54.1,6.5,6.5,0,0,0,.53-0.56A3.59,3.59,0,0,0,27.45,27.21ZM31,27.38h0.38v0.94H31v0.91h-1.2V28.32H28.14V27.38l1.35-2.62H31v2.62ZM29.83,26l-0.18.38c-0.09.19-.18,0.36-0.27,0.52s-0.18.31-.27,0.44H29.8V26.54s0-.1,0-0.19S29.82,26.16,29.83,26Zm1.7,4.23,0.63,0.35,3.19-6-0.63-.33Z"/><path class="cls-4" d="M35.84,40.11L31.9,44.4l-0.75-.69a1,1,0,0,1-.06-1.4l2.6-2.83a1,1,0,0,1,1.4-.06Z"/><path class="cls-4" d="M42.36,31.51a1,1,0,0,1-.06-1.4l2.6-2.83a1,1,0,0,1,1.4-.06L47,27.91l-3.94,4.28Z"/><path class="cls-4" d="M32.19,44.66l3.94-4.28s1.27,1.11,4.71-2.57L41,37.59h0l0.2-.21c3.37-3.74,2.16-4.91,2.16-4.91l3.94-4.28c3.09,2.22,1.59,5.45.56,7a39.88,39.88,0,0,1-4,5,39.87,39.87,0,0,1-4.63,4.44C37.76,45.78,34.66,47.55,32.19,44.66Z"/><path class="cls-3" d="M39.81,49.84a0.52,0.52,0,0,1-.39.62,8.91,8.91,0,0,1-1.89.23H37.47A3.65,3.65,0,0,1,34.14,49a3.81,3.81,0,0,1-.53-1.89v0a0.52,0.52,0,0,1,1,0h0A2.83,2.83,0,0,0,35,48.51a2.62,2.62,0,0,0,2.49,1.14,8,8,0,0,0,1.67-.2A0.51,0.51,0,0,1,39.81,49.84Z"/><path class="cls-3" d="M43.57,48l-1.88,2.6a0.67,0.67,0,1,1-1.09-.79l1.88-2.6A0.67,0.67,0,0,1,43.57,48Z"/><path class="cls-3" d="M46.48,48l-1.88,2.6a0.67,0.67,0,0,1-1.09-.79l1.88-2.6A0.67,0.67,0,1,1,46.48,48Z"/><path class="cls-3" d="M49.4,48l-1.88,2.6a0.67,0.67,0,0,1-1.09-.79l1.88-2.6A0.67,0.67,0,0,1,49.4,48Z"/><path class="cls-3" d="M52.31,48l-1.88,2.6a0.67,0.67,0,0,1-1.09-.79l1.88-2.6A0.67,0.67,0,1,1,52.31,48Z"/></g></g></g></svg>