<?xml version="1.0" standalone="no"?>
<!DOCTYPE svg PUBLIC "-//W3C//DTD SVG 20010904//EN"
 "http://www.w3.org/TR/2001/REC-SVG-20010904/DTD/svg10.dtd">
<svg version="1.0" xmlns="http://www.w3.org/2000/svg"
 width="267.000000pt" height="267.000000pt" viewBox="0 0 267.000000 267.000000"
 preserveAspectRatio="xMidYMid meet">
<metadata>
Created by potrace 1.11, written by Peter Selinger 2001-2013
</metadata>
<g transform="translate(0.000000,267.000000) scale(0.100000,-0.100000)"
fill="#000000" stroke="none">
<path d="M1218 2553 c-62 -30 -140 -68 -173 -83 -33 -15 -157 -75 -275 -132
-118 -58 -280 -136 -359 -174 -79 -38 -204 -98 -278 -134 l-133 -65 192 -98
c248 -126 645 -329 916 -468 l212 -109 93 44 c89 42 252 121 542 261 321 155
535 259 618 298 48 23 87 44 87 47 0 4 -1266 643 -1312 662 -11 5 -56 -12
-130 -49z"/>
<path d="M345 1518 c-94 -54 -219 -123 -283 -155 -28 -15 -52 -30 -52 -34 0
-4 28 -21 63 -37 34 -17 166 -81 292 -142 127 -62 280 -136 340 -165 61 -29
226 -109 369 -179 l258 -126 242 119 c980 483 1068 529 1044 542 -53 28 -161
87 -276 151 l-123 68 -142 -73 c-78 -41 -223 -116 -322 -167 -99 -52 -237
-123 -307 -159 l-127 -66 -93 48 c-51 26 -165 84 -253 130 -422 219 -553 287
-557 286 -1 0 -34 -18 -73 -41z"/>
<path d="M208 833 l-208 -116 133 -65 c139 -68 348 -169 582 -282 77 -37 247
-120 379 -184 l238 -116 242 119 c1070 527 1067 526 1038 543 -15 9 -110 62
-211 117 l-184 101 -176 -91 c-97 -51 -230 -120 -296 -154 -428 -224 -411
-215 -426 -215 -6 0 -81 37 -168 81 -160 84 -271 142 -562 293 -92 47 -168 86
-170 85 -2 0 -97 -53 -211 -116z"/>
</g>
</svg>
