<?xml version="1.0" encoding="UTF-8"?>
<svg width="363px" height="50px" viewBox="0 0 363 50" version="1.1" xmlns="http://www.w3.org/2000/svg" xmlns:xlink="http://www.w3.org/1999/xlink">
    <!-- Generator: Sketch 42 (36781) - http://www.bohemiancoding.com/sketch -->
    <title>BV logo - grey and green</title>
    <desc>Created with Sketch.</desc>
    <defs>
        <linearGradient x1="49.9997751%" y1="83.5178257%" x2="49.9997751%" y2="-1.83557154%" id="linearGradient-1">
            <stop stop-color="#69A543" offset="0%"></stop>
            <stop stop-color="#75B649" offset="100%"></stop>
        </linearGradient>
        <linearGradient x1="49.8762963%" y1="97.6184363%" x2="49.8762963%" y2="-4.71003861%" id="linearGradient-2">
            <stop stop-color="#69A543" offset="0%"></stop>
            <stop stop-color="#75B649" offset="100%"></stop>
        </linearGradient>
        <linearGradient x1="50.0365854%" y1="95.8906918%" x2="50.0365854%" y2="-37.4581132%" id="linearGradient-3">
            <stop stop-color="#69A543" offset="0%"></stop>
            <stop stop-color="#75B649" offset="100%"></stop>
        </linearGradient>
        <linearGradient x1="50.1526932%" y1="97.0821107%" x2="50.1526932%" y2="-39.3574003%" id="linearGradient-4">
            <stop stop-color="#69A543" offset="0%"></stop>
            <stop stop-color="#75B649" offset="100%"></stop>
        </linearGradient>
        <linearGradient x1="49.8091743%" y1="97.8202578%" x2="49.8091743%" y2="0.203499079%" id="linearGradient-5">
            <stop stop-color="#69A543" offset="0%"></stop>
            <stop stop-color="#75B649" offset="100%"></stop>
        </linearGradient>
        <linearGradient x1="50.0403326%" y1="97.9555455%" x2="50.0403326%" y2="2.36221821%" id="linearGradient-6">
            <stop stop-color="#69A543" offset="0%"></stop>
            <stop stop-color="#75B649" offset="100%"></stop>
        </linearGradient>
        <linearGradient x1="49.8211009%" y1="97.8202578%" x2="49.8211009%" y2="0.203499079%" id="linearGradient-7">
            <stop stop-color="#69A543" offset="0%"></stop>
            <stop stop-color="#75B649" offset="100%"></stop>
        </linearGradient>
        <linearGradient x1="49.9852224%" y1="95.8906918%" x2="49.9852224%" y2="-37.4581132%" id="linearGradient-8">
            <stop stop-color="#69A543" offset="0%"></stop>
            <stop stop-color="#75B649" offset="100%"></stop>
        </linearGradient>
        <linearGradient x1="50.0943734%" y1="90.0077994%" x2="50.0943734%" y2="0.0908077994%" id="linearGradient-9">
            <stop stop-color="#69A543" offset="0%"></stop>
            <stop stop-color="#75B649" offset="100%"></stop>
        </linearGradient>
        <linearGradient x1="50.0546243%" y1="97.077907%" x2="50.0546243%" y2="2.25375671%" id="linearGradient-10">
            <stop stop-color="#69A543" offset="0%"></stop>
            <stop stop-color="#75B649" offset="100%"></stop>
        </linearGradient>
    </defs>
    <g id="PopUp" stroke="none" stroke-width="1" fill="none" fill-rule="evenodd">
        <g id="KTC-PopUp2-2" transform="translate(-540.000000, -216.000000)" fill-rule="nonzero">
            <g id="BV-logo---grey-and-green" transform="translate(540.000000, 216.000000)">
                <g id="Layer_1">
                    <g id="bv_logo_color_gray">
                        <path d="M26.6653084,0 C11.9534141,0 0,11.8650794 0,26.468254 C0,36.468254 5.5969163,45.1587302 13.8323789,49.6428571 L12.6330396,33.5714286 C12.6330396,31.0714286 14.7518722,29.0873016 17.3104626,29.0873016 L36.0201542,29.0873016 C38.6187225,29.0873016 40.6975771,31.1111111 40.6975771,33.5714286 L39.4982379,49.6428571 C47.7337004,45.1190476 53.3306167,36.4285714 53.3306167,26.468254 C53.3306167,11.8650794 41.3772026,0 26.6653084,0 Z M26.6653084,27.1825397 C20.4287445,27.1825397 15.3915198,22.1825397 15.3915198,15.9920635 C15.3915198,9.76190476 20.4287445,4.76190476 26.6653084,4.76190476 C32.9018722,4.76190476 37.9390969,9.76190476 37.9390969,15.952381 C37.9390969,22.1428571 32.9018722,27.1825397 26.6653084,27.1825397 Z" id="Shape" fill="url(#linearGradient-1)"></path>
                        <path d="M60.8064978,10.3174603 C60.8064978,8.76984127 61.5660793,7.57936508 63.3251101,7.57936508 L71.6805066,7.57936508 C78.4767621,7.57936508 82.0348018,12.6190476 82.0348018,17.2222222 C82.0348018,21.6666667 79.8360132,25.0396825 76.6777533,26.0714286 L76.6777533,26.1904762 C81.3151982,26.7063492 84.9931718,30.8333333 84.9931718,36.1904762 C84.9931718,42.5396825 80.5156388,47.9761905 72.4400881,47.9761905 L63.3251101,47.9761905 C61.5261013,47.9761905 60.8064978,46.7857143 60.8064978,45.2380952 L60.8064978,10.3174603 Z M65.5238987,24.6825397 L70.9209251,24.6825397 C74.9587004,24.6825397 77.2774229,21.8650794 77.2774229,18.1746032 C77.2774229,14.5238095 75.2785242,11.9444444 71.080837,11.9444444 L65.5238987,11.9444444 L65.5238987,24.6825397 Z M65.5238987,43.6904762 L72.2002203,43.6904762 C76.8376652,43.6904762 80.235793,40.6746032 80.235793,36.1904762 C80.235793,32.0634921 77.3973568,28.7698413 72.4001101,28.7698413 L65.4839207,28.7698413 L65.4839207,43.6904762 L65.5238987,43.6904762 Z" id="Shape" fill="#303030"></path>
                        <path d="M91.2697137,34.8412698 C91.2697137,40 94.3879956,44.047619 99.7450441,44.047619 C106.061564,44.047619 107.660683,39.9603175 109.459692,39.9603175 C110.339207,39.9603175 111.178744,40.7539683 111.178744,42.1825397 C111.178744,44.6031746 105.301982,48.3730159 99.7050661,48.3730159 C90.5501101,48.3730159 86.5523128,40.952381 86.5523128,32.9365079 C86.5523128,24.7619048 91.3896476,17.5 99.4252203,17.5 C107.260903,17.5 111.778414,24.9206349 111.778414,32.1825397 C111.778414,33.9285714 111.178744,34.8412698 109.139868,34.8412698 L91.2697137,34.8412698 Z M107.021035,31.1111111 C107.021035,26.7857143 104.662335,21.7857143 99.4252203,21.7857143 C93.5484581,21.547619 91.4296256,26.5079365 91.2697137,31.1111111 L107.021035,31.1111111 Z" id="Shape" fill="#303030"></path>
                        <path d="M117.815088,34.8412698 C117.815088,40 120.93337,44.047619 126.290419,44.047619 C132.606938,44.047619 134.206057,39.9603175 136.005066,39.9603175 C136.884581,39.9603175 137.724119,40.7539683 137.724119,42.1825397 C137.724119,44.6031746 131.847357,48.3730159 126.250441,48.3730159 C117.095485,48.3730159 113.097687,40.952381 113.097687,32.9365079 C113.057709,24.7619048 117.935022,17.4603175 125.930617,17.4603175 C133.7663,17.4603175 138.283811,24.8809524 138.283811,32.1428571 C138.283811,33.8888889 137.684141,34.8015873 135.645264,34.8015873 L117.815088,34.8015873 L117.815088,34.8412698 Z M133.56641,31.1111111 C133.56641,26.7857143 131.207709,21.7857143 125.970595,21.7857143 C120.093833,21.547619 117.975,26.5079365 117.815088,31.1111111 L133.56641,31.1111111 Z" id="Shape" fill="#303030"></path>
                        <path d="M140.562555,20.1587302 C140.562555,18.531746 141.482048,17.5 142.921256,17.5 C144.360463,17.5 145.279956,18.531746 145.279956,20.1587302 L145.279956,21.3492063 L145.39989,21.468254 C147.518722,18.6111111 150.477093,17.5 153.315529,17.5 C157.753084,17.5 163.310022,20.4365079 163.310022,28.968254 L163.310022,45.7142857 C163.310022,47.3412698 162.390529,48.3730159 160.951322,48.3730159 C159.512115,48.3730159 158.592621,47.3412698 158.592621,45.7142857 L158.592621,29.2063492 C158.592621,23.9285714 155.074559,21.7857143 151.956278,21.7857143 C148.837996,21.7857143 145.319934,23.9285714 145.319934,29.2063492 L145.319934,45.6746032 C145.319934,47.3015873 144.400441,48.3333333 142.961233,48.3333333 C141.522026,48.3333333 140.602533,47.3015873 140.602533,45.6746032 L140.602533,20.1587302 L140.562555,20.1587302 Z" id="Shape" fill="#303030"></path>
                        <path d="M163.629846,13.452381 C163.35,12.6984127 163.270044,12.1428571 163.270044,11.3492063 C163.270044,8.96825397 165.268943,7.26190476 167.427753,7.26190476 C169.26674,7.26190476 170.386123,8.49206349 171.105727,10.0396825 L179.461123,33.6507937 L187.81652,10.0396825 C188.536123,8.49206349 189.655507,7.26190476 191.494493,7.26190476 C193.653304,7.26190476 195.652203,8.96825397 195.652203,11.3492063 C195.652203,12.1428571 195.532269,12.6984127 195.292401,13.452381 L183.498899,45.0793651 C182.779295,46.9047619 181.89978,48.3730159 179.501101,48.3730159 C177.142401,48.3730159 176.222907,46.9047619 175.503304,45.0793651 L163.629846,13.452381 Z" id="Shape" fill="url(#linearGradient-2)"></path>
                        <path d="M199.370154,35.6349206 C199.889868,39.6825397 203.088106,41.547619 206.686123,41.547619 C210.683921,41.547619 213.442401,38.2539683 215.481278,38.2539683 C217.160352,38.2539683 218.679515,40 218.679515,41.7857143 C218.679515,45.3174603 211.763326,48.6904762 206.006498,48.6904762 C197.2913,48.6904762 191.454515,41.984127 191.454515,32.9761905 C191.454515,24.6825397 197.171366,17.1428571 205.36685,17.1428571 C213.762225,17.1428571 219.319163,25.1984127 219.319163,32.0238095 C219.319163,34.4444444 218.279736,35.6746032 215.921035,35.6746032 L199.370154,35.6746032 L199.370154,35.6349206 Z M211.563436,30.1984127 C211.123678,26.6269841 208.964868,23.968254 205.36685,23.968254 C201.928744,23.968254 199.610022,26.7460317 199.210242,30.1984127 L211.563436,30.1984127 Z" id="Shape" fill="url(#linearGradient-3)"></path>
                        <path d="M221.957709,21.547619 C221.957709,18.8095238 223.996586,17.4603175 225.955507,17.4603175 C227.994383,17.4603175 229.713436,18.2539683 229.713436,20.8730159 L229.83337,20.8730159 C231.272577,18.6111111 232.871696,17.4603175 235.270374,17.4603175 C237.149339,17.4603175 239.028304,18.8888889 239.028304,21.8253968 C239.028304,24.484127 236.709581,24.6428571 234.390859,25.7936508 C232.072137,26.9444444 229.713436,28.015873 229.713436,31.2301587 L229.713436,43.7698413 C229.713436,46.5079365 228.114317,48.2936508 225.835573,48.2936508 C223.556828,48.2936508 221.957709,46.468254 221.957709,43.7698413 L221.957709,21.547619 L221.957709,21.547619 Z" id="Shape" fill="url(#linearGradient-4)"></path>
                        <path d="M248.18326,9.72222222 C248.18326,12.2619048 246.224339,14.4444444 243.825661,14.4444444 C241.506938,14.4444444 239.468062,12.2222222 239.468062,9.72222222 C239.468062,7.38095238 241.506938,5.23809524 243.825661,5.23809524 C246.144383,5.23809524 248.18326,7.3015873 248.18326,9.72222222 Z M239.907819,22.0238095 C239.907819,19.2857143 241.506938,17.5 243.785683,17.5 C246.064427,17.5 247.663546,19.3253968 247.663546,22.0238095 L247.663546,43.8095238 C247.663546,46.547619 246.064427,48.3333333 243.785683,48.3333333 C241.506938,48.3333333 239.907819,46.5079365 239.907819,43.8095238 L239.907819,22.0238095 Z" id="Shape" fill="url(#linearGradient-5)"></path>
                        <path d="M253.780176,24.9603175 L252.061123,24.9603175 C249.942291,24.9603175 248.662996,23.6111111 248.662996,21.3888889 C248.662996,19.3650794 250.102203,17.8174603 252.061123,17.8174603 L253.780176,17.8174603 L253.780176,13.6111111 C253.780176,7.57936508 257.178304,4.28571429 261.935683,4.28571429 C264.694163,4.28571429 267.332709,5.11904762 267.332709,7.97619048 C267.332709,10.3571429 266.293282,11.4285714 264.134471,11.4285714 C262.855176,11.4285714 261.535903,11.4285714 261.535903,14.4444444 L261.535903,17.7777778 L263.974559,17.7777778 C266.293282,17.7777778 267.892401,18.7301587 267.892401,21.3492063 C267.892401,23.8888889 266.213326,24.9206349 263.974559,24.9206349 L261.535903,24.9206349 L261.535903,43.7698413 C261.535903,46.5079365 259.936784,48.2936508 257.65804,48.2936508 C255.379295,48.2936508 253.780176,46.468254 253.780176,43.7698413 L253.780176,24.9603175 L253.780176,24.9603175 Z" id="Shape" fill="url(#linearGradient-6)"></path>
                        <path d="M277.607048,9.72222222 C277.607048,12.2619048 275.648128,14.4444444 273.249449,14.4444444 C270.930727,14.4444444 268.89185,12.2222222 268.89185,9.72222222 C268.89185,7.38095238 270.930727,5.23809524 273.249449,5.23809524 C275.568172,5.23809524 277.607048,7.3015873 277.607048,9.72222222 Z M269.371586,22.0238095 C269.371586,19.2857143 270.970705,17.5 273.249449,17.5 C275.528194,17.5 277.127313,19.3253968 277.127313,22.0238095 L277.127313,43.8095238 C277.127313,46.547619 275.528194,48.3333333 273.249449,48.3333333 C270.970705,48.3333333 269.371586,46.5079365 269.371586,43.8095238 L269.371586,22.0238095 Z" id="Shape" fill="url(#linearGradient-7)"></path>
                        <path d="M287.681498,35.6349206 C288.201211,39.6825397 291.399449,41.547619 294.997467,41.547619 C298.995264,41.547619 301.753744,38.2539683 303.792621,38.2539683 C305.471696,38.2539683 306.990859,40 306.990859,41.7857143 C306.990859,45.3174603 300.07467,48.6904762 294.317841,48.6904762 C285.602643,48.6904762 279.765859,41.984127 279.765859,32.9761905 C279.765859,24.6825397 285.482709,17.1428571 293.678194,17.1428571 C302.073568,17.1428571 307.630507,25.1984127 307.630507,32.0238095 C307.630507,34.4444444 306.591079,35.6746032 304.232379,35.6746032 L287.681498,35.6746032 L287.681498,35.6349206 Z M299.87478,30.1984127 C299.435022,26.6269841 297.276211,23.968254 293.678194,23.968254 C290.240088,23.968254 287.921366,26.7460317 287.521586,30.1984127 L299.87478,30.1984127 Z" id="Shape" fill="url(#linearGradient-8)"></path>
                        <path d="M348.128194,47.6190476 C348.128194,46.9047619 348.727863,46.3095238 349.447467,46.3095238 C350.16707,46.3095238 350.76674,46.9047619 350.76674,47.6190476 C350.76674,48.3333333 350.16707,48.9285714 349.447467,48.9285714 C348.727863,48.9285714 348.128194,48.3333333 348.128194,47.6190476 Z" id="Shape" fill="#303030"></path>
                        <path d="M344.090419,38.6904762 C344.090419,39.2857143 343.610683,39.8412698 343.610683,40.5952381 C343.610683,41.984127 344.85,42.6190476 346.089317,42.6190476 C347.288656,42.6190476 348.527974,41.9047619 348.527974,40.5952381 C348.527974,40 348.00826,39.0873016 348.00826,38.8095238 C348.00826,38.2539683 348.487996,37.7777778 349.087665,37.7777778 C350.326982,37.7777778 350.76674,39.8412698 350.76674,40.7142857 C350.76674,43.2936508 348.60793,45.0396825 346.089317,45.0396825 C343.610683,45.0396825 341.371916,43.2539683 341.371916,40.7142857 C341.371916,39.7619048 341.731718,37.7777778 342.891079,37.7777778 C343.450771,37.7777778 344.090419,38.1349206 344.090419,38.6904762 Z" id="Shape" fill="#303030"></path>
                        <path d="M346.089317,28.6507937 C348.60793,28.6507937 350.76674,30.3571429 350.76674,32.9761905 C350.76674,35.5555556 348.60793,37.3015873 346.089317,37.3015873 C343.610683,37.3015873 341.371916,35.515873 341.371916,32.9761905 C341.411894,30.4365079 343.650661,28.6507937 346.089317,28.6507937 Z M346.089317,34.8809524 C347.248678,34.8809524 348.527974,34.2857143 348.527974,32.9761905 C348.527974,31.6666667 347.248678,31.0714286 346.089317,31.0714286 C344.929956,31.0714286 343.610683,31.6666667 343.610683,32.9761905 C343.610683,34.2857143 344.929956,34.8809524 346.089317,34.8809524 Z" id="Shape" fill="#303030"></path>
                        <path d="M342.851101,27.6587302 C342.051542,27.6587302 341.49185,27.1428571 341.49185,26.468254 C341.49185,25.8333333 341.811674,25.4365079 342.411344,25.3571429 C341.771696,24.7619048 341.411894,24.0079365 341.411894,23.1349206 C341.411894,22.1428571 341.851652,21.2698413 342.651211,20.6349206 C341.89163,19.9603175 341.411894,18.9285714 341.411894,18.0952381 C341.411894,16.1507937 342.571256,14.8015873 344.690088,14.8015873 L349.327533,14.8015873 C350.127093,14.8015873 350.686784,15.3174603 350.686784,15.9920635 C350.686784,16.7063492 350.16707,17.1825397 349.327533,17.1825397 L345.089868,17.1825397 C344.130396,17.1825397 343.410793,17.6984127 343.410793,18.5714286 C343.410793,19.4444444 344.090419,20 345.089868,20 L349.327533,20 C350.127093,20 350.686784,20.515873 350.686784,21.1904762 C350.686784,21.9047619 350.16707,22.3809524 349.327533,22.3809524 L345.089868,22.3809524 C344.130396,22.3809524 343.410793,22.8968254 343.410793,23.7698413 C343.410793,24.7619048 344.090419,25.1984127 345.089868,25.1984127 L349.327533,25.1984127 C350.127093,25.1984127 350.686784,25.7142857 350.686784,26.3888889 C350.686784,27.1031746 350.16707,27.5793651 349.327533,27.5793651 L342.851101,27.5793651 L342.851101,27.6587302 Z" id="Shape" fill="#303030"></path>
                        <polygon id="Shape" fill="url(#linearGradient-9)" points="33.301652 42.4206349 38.0190529 39.047619 32.0223568 39.047619 30.223348 34.2857143 28.4243392 39.047619 22.3876652 39.047619 27.1450441 42.4206349 24.8263216 48.531746 30.223348 44.6428571 35.6203744 48.531746"></polygon>
                        <path d="M333.01652,4.32539683 C330.737775,4.32539683 329.138656,6.15079365 329.138656,8.84920635 L329.138656,19.9603175 C327.09978,18.0952381 324.461233,17.1031746 321.742731,17.1031746 C313.387335,17.1031746 309.229626,25.3174603 309.229626,33.2936508 C309.229626,41.031746 314.186894,48.6904762 322.022577,48.6904762 C324.661123,48.6904762 327.699449,47.4603175 329.138656,44.9603175 C329.618392,47.1031746 330.857709,48.3730159 333.01652,48.3730159 C335.295264,48.3730159 336.894383,46.547619 336.894383,43.8492063 L336.894383,8.84920635 C336.894383,6.11111111 335.295264,4.32539683 333.01652,4.32539683 Z M326.460132,33.2142857 L328.978744,39.8809524 L323.062004,35.6349206 L317.145264,39.8809524 L319.663877,33.2142857 L314.46674,29.484127 L321.063106,29.484127 L323.022026,24.2857143 L324.980947,29.484127 L331.577313,29.484127 L326.460132,33.2142857 Z" id="Shape" fill="url(#linearGradient-10)"></path>
                        <g id="Group" transform="translate(354.204846, 5.158730)" fill="#303030">
                            <polygon id="Shape" points="3.75792952 0.0793650794 3.75792952 0.912698413 2.35870044 0.912698413 2.35870044 4.68253968 1.39922907 4.68253968 1.39922907 0.912698413 0 0.912698413 0 0.0793650794 3.75792952 0.0793650794"></polygon>
                            <path d="M7.39592511,0.0793650794 L8.79515419,0.0793650794 L8.79515419,4.68253968 L7.87566079,4.68253968 L7.87566079,1.58730159 L7.87566079,1.23015873 L7.87566079,0.873015873 L6.99614537,4.72222222 L6.03667401,4.72222222 L5.19713656,0.793650794 L5.19713656,1.15079365 L5.19713656,1.50793651 L5.19713656,4.6031746 L4.27764317,4.6031746 L4.27764317,0.0793650794 L5.67687225,0.0793650794 L6.51640969,3.69047619 L7.39592511,0.0793650794 Z" id="Shape"></path>
                        </g>
                    </g>
                </g>
            </g>
        </g>
    </g>
</svg>