<?xml version="1.0" encoding="UTF-8"?>
<svg width="20px" height="26px" viewBox="0 0 20 26" version="1.1" xmlns="http://www.w3.org/2000/svg" xmlns:xlink="http://www.w3.org/1999/xlink">
    <!-- Generator: Sketch 42 (36781) - http://www.bohemiancoding.com/sketch -->
    <title>Fill 26</title>
    <desc>Created with Sketch.</desc>
    <defs></defs>
    <g id="Page-1" stroke="none" stroke-width="1" fill="none" fill-rule="evenodd">
        <g id="KTC-Loading-Page-3" transform="translate(-735.000000, -446.000000)" fill="#FFFFFF">
            <g id="Group-4" transform="translate(281.000000, 382.000000)">
                <g id="KTC-Logo" transform="translate(383.000000, 0.000000)">
                    <path d="M90.3615401,65.9049346 C90.5753583,65.5708825 90.6077005,65.1880768 90.3920856,65.0977924 C88.1676578,63.9945175 85.6126203,63.9620152 82.1034866,65.9627166 C73.9101176,70.6250009 71.4,78.5284938 71.4071872,82.9596502 C71.4143743,87.5117877 73.9514439,92.4467308 82.143016,87.7790294 C85.4077861,85.9209773 87.9915722,83.111328 90.2357647,79.74011 C90.4513797,79.4024464 90.4783316,79.0232521 90.2627166,78.9022711 L88.1353155,77.6238445 C87.9520428,77.4848066 87.6124492,77.6798209 87.364492,77.9994275 C85.9198717,80.010963 83.8912941,82.1362569 82.1645775,83.1185507 C77.146139,85.9769536 76.4274225,81.679418 76.4256257,80.0994417 C76.4202353,78.5230768 77.1191872,73.3858967 82.1106738,70.543745 C83.7421604,69.6156218 85.8066738,69.5307545 87.1039572,70.1013517 C87.321369,70.1898303 87.6591658,69.9966218 87.8693904,69.689655 L90.3615401,65.9049346 Z" id="Fill-26"></path>
                </g>
            </g>
        </g>
    </g>
</svg>