<?xml version="1.0" encoding="UTF-8"?>
<svg width="19px" height="33px" viewBox="0 0 19 33" version="1.1" xmlns="http://www.w3.org/2000/svg" xmlns:xlink="http://www.w3.org/1999/xlink">
    <!-- Generator: Sketch 42 (36781) - http://www.bohemiancoding.com/sketch -->
    <title>Fill 30</title>
    <desc>Created with Sketch.</desc>
    <defs></defs>
    <g id="Page-1" stroke="none" stroke-width="1" fill="none" fill-rule="evenodd">
        <g id="KTC-Loading-Page-3" transform="translate(-684.000000, -442.000000)" fill="#19B2CC">
            <g id="Group-4" transform="translate(281.000000, 382.000000)">
                <g id="KTC-Logo" transform="translate(383.000000, 0.000000)">
                    <path d="M24.714507,83.958737 C25.0217583,84.1356943 25.2661219,84.0363815 25.2643251,83.7330261 L25.2499508,75.5370118 L32.6958545,88.1912678 C32.9456086,88.5776848 33.2816086,88.9243768 33.6194053,89.119391 L38.6558118,92.0409929 C38.8714267,92.1655853 38.9612663,91.9777938 38.8372877,91.7538886 L29.1148492,75.5677085 L38.1239615,70.9090355 C38.2802824,70.8476422 38.154507,70.5334526 37.938892,70.4070545 L32.9024856,67.4872583 C32.5664856,67.2922441 32.2250952,67.2471019 31.9843251,67.3807227 L25.2427636,71.1094668 L25.2283893,63.5833626 C25.2283893,63.2782014 24.9804321,62.89359 24.6731807,62.7166327 L20.8334374,60.4902204 C20.5261861,60.3150687 20.2818225,60.4125758 20.2818225,60.7159313 L20.3213519,80.8655948 C20.3213519,81.1689502 20.5675123,81.5553673 20.8765604,81.7323246 L24.714507,83.958737 Z" id="Fill-30"></path>
                </g>
            </g>
        </g>
    </g>
</svg>