<?xml version="1.0" encoding="UTF-8"?>
<svg width="19px" height="30px" viewBox="0 0 19 30" version="1.1" xmlns="http://www.w3.org/2000/svg" xmlns:xlink="http://www.w3.org/1999/xlink">
    <!-- Generator: Sketch 42 (36781) - http://www.bohemiancoding.com/sketch -->
    <title>Lock</title>
    <desc>Created with Sketch.</desc>
    <defs></defs>
    <g id="LeadModal" stroke="none" stroke-width="1" fill="none" fill-rule="evenodd">
        <g id="KTC-LeadModal" transform="translate(-1027.000000, -159.000000)">
            <g id="Lock" transform="translate(1028.000000, 160.000000)">
                <path d="M3.33851667,11.7894737 L3.33851667,5.92421053 C3.33851667,3.05936842 5.57118333,0.736842105 8.32518333,0.736842105 C11.0791833,0.736842105 13.31185,3.05936842 13.31185,5.92421053 L13.31185,11.7894737" id="Stroke-3" stroke="#FFC300" stroke-width="3"></path>
                <path d="M1.41680833,13.2373684 L7.69264167,9.46768421 C8.13039167,9.20536842 8.67155833,9.20536842 9.10930833,9.46768421 L15.3851417,13.2373684 C15.8228917,13.5011579 16.093475,13.9874737 16.093475,14.5135789 L16.093475,22.0514737 C16.093475,22.5775789 15.8228917,23.0653684 15.3851417,23.3276842 L9.10930833,27.0973684 C8.67155833,27.3596842 8.13039167,27.3596842 7.69264167,27.0973684 L1.41680833,23.3276842 C0.977641667,23.0653684 0.708475,22.5775789 0.708475,22.0514737 L0.708475,14.5135789 C0.708475,13.9874737 0.977641667,13.5011579 1.41680833,13.2373684 Z" id="Stroke-1" stroke="#FBBD1A" stroke-width="3"></path>
                <path d="M10.1008333,17.3741474 C10.1008333,16.3970947 9.34008333,15.6057263 8.40083333,15.6057263 C7.46158333,15.6057263 6.70083333,16.3970947 6.70083333,17.3741474 C6.70083333,18.1360421 7.16975,18.7712 7.82,19.0202526 L6.70083333,20.9596211 L10.1008333,20.9596211 L8.98166667,19.0202526 C9.63191667,18.7712 10.1008333,18.1360421 10.1008333,17.3741474" id="Fill-5" fill="#263348"></path>
            </g>
        </g>
    </g>
</svg>