<svg xmlns="http://www.w3.org/2000/svg" width="16" height="17" viewBox="0 0 16 17"><metadata><?xpacket begin="﻿" id="W5M0MpCehiHzreSzNTczkc9d"?><x:xmpmeta xmlns:x="adobe:ns:meta/" x:xmptk="Adobe XMP Core 5.6-c138 79.159824, 2016/09/14-01:09:01"><rdf:RDF xmlns:rdf="http://www.w3.org/1999/02/22-rdf-syntax-ns#"><rdf:Description/></rdf:RDF></x:xmpmeta><?xpacket end="w"?></metadata><defs><style>.cls-1{fill:#d7d7d7;fill-rule:evenodd}</style></defs><path id="_-e-Forma_1" data-name="-e-Forma 1" class="cls-1" d="M364.779,577.379a0.379,0.379,0,0,0-.372-0.386h-1.295a0.379,0.379,0,0,0-.371.386v1.346a0.379,0.379,0,0,0,.371.386h1.295a0.379,0.379,0,0,0,.372-0.386v-1.346h0Zm3.239,0a0.379,0.379,0,0,0-.372-0.386h-1.3a0.379,0.379,0,0,0-.37.386v1.346a0.379,0.379,0,0,0,.37.386h1.3a0.379,0.379,0,0,0,.372-0.386v-1.346Zm3.24,0a0.38,0.38,0,0,0-.372-0.386h-1.3a0.38,0.38,0,0,0-.372.386v1.346a0.38,0.38,0,0,0,.372.386h1.3a0.38,0.38,0,0,0,.372-0.386v-1.346Zm-6.479,3.365a0.379,0.379,0,0,0-.372-0.386h-1.295a0.379,0.379,0,0,0-.371.386v1.346a0.379,0.379,0,0,0,.371.386h1.295a0.379,0.379,0,0,0,.372-0.386v-1.346h0Zm3.239,0a0.379,0.379,0,0,0-.372-0.386h-1.3a0.379,0.379,0,0,0-.37.386v1.346a0.379,0.379,0,0,0,.37.386h1.3a0.379,0.379,0,0,0,.372-0.386v-1.346Zm3.24,0a0.38,0.38,0,0,0-.372-0.386h-1.3a0.38,0.38,0,0,0-.372.386v1.346a0.38,0.38,0,0,0,.372.386h1.3a0.38,0.38,0,0,0,.372-0.386v-1.346h0Zm2.316-10.852v2.057a1.648,1.648,0,0,1-1.62,1.679h-1.022a1.657,1.657,0,0,1-1.63-1.679v-2.064H364.7v2.064a1.657,1.657,0,0,1-1.63,1.679h-1.022a1.649,1.649,0,0,1-1.62-1.679v-2.057A1.506,1.506,0,0,0,359,571.415v12.052A1.506,1.506,0,0,0,360.466,585h13.067A1.506,1.506,0,0,0,375,583.467V571.415A1.505,1.505,0,0,0,373.574,569.892ZM373.1,582.716a0.647,0.647,0,0,1-.634.659H361.5a0.647,0.647,0,0,1-.634-0.659v-6.225a0.648,0.648,0,0,1,.634-0.659h10.962a0.648,0.648,0,0,1,.634.659v6.225h0Zm-11.06-10.191h1.01a0.567,0.567,0,0,0,.557-0.577v-3.371A0.567,0.567,0,0,0,363.05,568h-1.01a0.566,0.566,0,0,0-.556.577v3.371A0.566,0.566,0,0,0,362.04,572.525Zm8.879,0h1.011a0.567,0.567,0,0,0,.556-0.577v-3.371A0.567,0.567,0,0,0,371.93,568h-1.011a0.567,0.567,0,0,0-.556.577v3.371A0.567,0.567,0,0,0,370.919,572.525Z" transform="translate(-359 -568)"/></svg>