<?xml version="1.0" encoding="UTF-8"?>
<svg width="16px" height="17px" viewBox="0 0 16 17" version="1.1" xmlns="http://www.w3.org/2000/svg" xmlns:xlink="http://www.w3.org/1999/xlink">
    <!-- Generator: Sketch 44.1 (41455) - http://www.bohemiancoding.com/sketch -->
    <title>age-icon</title>
    <desc>Created with Sketch.</desc>
    <defs></defs>
    <g id="Page-1" stroke="none" stroke-width="1" fill="none" fill-rule="evenodd">
        <g id="age-icon" fill="#D7D7D7">
            <path d="M5.779,9.379 C5.78087376,9.27847801 5.74272968,9.18133052 5.6729625,9.10893769 C5.60319532,9.03654486 5.50752262,8.99483947 5.407,8.993 L4.112,8.993 C3.9030621,8.99737477 3.73709435,9.17005281 3.741,9.379 L3.741,10.725 C3.73709435,10.9339472 3.9030621,11.1066252 4.112,11.111 L5.407,11.111 C5.50752262,11.1091605 5.60319532,11.0674551 5.6729625,10.9950623 C5.74272968,10.9226695 5.78087376,10.825522 5.779,10.725 L5.779,9.379 L5.779,9.379 L5.779,9.379 Z M9.018,9.379 C9.01987376,9.27847801 8.98172968,9.18133052 8.9119625,9.10893769 C8.84219532,9.03654486 8.74652262,8.99483947 8.646,8.993 L7.346,8.993 C7.13745576,8.99791695 6.97208923,9.17043446 6.976,9.379 L6.976,10.725 C6.97208923,10.9335655 7.13745576,11.106083 7.346,11.111 L8.646,11.111 C8.74652262,11.1091605 8.84219532,11.0674551 8.9119625,10.9950623 C8.98172968,10.9226695 9.01987376,10.825522 9.018,10.725 L9.018,9.379 Z M12.258,9.379 C12.261348,9.16988789 12.0950931,8.99737612 11.886,8.993 L10.586,8.993 C10.3769069,8.99737612 10.210652,9.16988789 10.214,9.379 L10.214,10.725 C10.210652,10.9341121 10.3769069,11.1066239 10.586,11.111 L11.886,11.111 C12.0950931,11.1066239 12.261348,10.9341121 12.258,10.725 L12.258,9.379 L12.258,9.379 Z M5.779,12.744 C5.78087376,12.643478 5.74272968,12.5463305 5.6729625,12.4739377 C5.60319532,12.4015449 5.50752262,12.3598395 5.407,12.358 L4.112,12.358 C3.9030621,12.3623748 3.73709435,12.5350528 3.741,12.744 L3.741,14.09 C3.73709435,14.2989472 3.9030621,14.4716252 4.112,14.476 L5.407,14.476 C5.50752262,14.4741605 5.60319532,14.4324551 5.6729625,14.3600623 C5.74272968,14.2876695 5.78087376,14.190522 5.779,14.09 L5.779,12.744 L5.779,12.744 L5.779,12.744 Z M9.018,12.744 C9.01987376,12.643478 8.98172968,12.5463305 8.9119625,12.4739377 C8.84219532,12.4015449 8.74652262,12.3598395 8.646,12.358 L7.346,12.358 C7.13745576,12.362917 6.97208923,12.5354345 6.976,12.744 L6.976,14.09 C6.97208923,14.2985655 7.13745576,14.471083 7.346,14.476 L8.646,14.476 C8.74652262,14.4741605 8.84219532,14.4324551 8.9119625,14.3600623 C8.98172968,14.2876695 9.01987376,14.190522 9.018,14.09 L9.018,12.744 L9.018,12.744 Z M12.258,12.744 C12.261348,12.5348879 12.0950931,12.3623761 11.886,12.358 L10.586,12.358 C10.3769069,12.3623761 10.210652,12.5348879 10.214,12.744 L10.214,14.09 C10.210652,14.2991121 10.3769069,14.4716239 10.586,14.476 L11.886,14.476 C12.0950931,14.4716239 12.261348,14.2991121 12.258,14.09 L12.258,12.744 L12.258,12.744 L12.258,12.744 Z M14.574,1.892 L14.574,3.949 C14.5822951,4.38660971 14.4161678,4.80954415 14.112259,5.12452119 C13.8083502,5.43949823 13.3916265,5.62064216 12.954,5.628 L11.932,5.628 C11.0187933,5.6131999 10.2897538,4.86224457 10.302,3.949 L10.302,1.885 L5.7,1.885 L5.7,3.949 C5.71224617,4.86224457 4.98320675,5.6131999 4.07,5.628 L3.048,5.628 C2.61045967,5.6203777 2.19389196,5.43915114 1.89003987,5.12423283 C1.58618777,4.80931451 1.4199723,4.38653308 1.428,3.949 L1.428,1.892 C0.620250892,1.93382719 -0.0102124654,2.60623314 -1.76779164e-16,3.415 L-1.76779164e-16,15.467 C-0.0151142427,16.2938318 0.63931815,16.9781735 1.466,17 L14.533,17 C15.3600757,16.9787125 16.0151069,16.2942117 16,15.467 L16,3.415 C16.010778,2.60676748 15.3811938,1.93435741 14.574,1.892 L14.574,1.892 Z M14.1,14.716 C14.1066927,15.0729695 13.8229614,15.367889 13.466,15.375 L2.5,15.375 C2.14303862,15.367889 1.85930725,15.0729695 1.866,14.716 L1.866,8.491 C1.85986098,8.13424788 2.14327721,7.83965593 2.5,7.832 L13.462,7.832 C13.8187228,7.83965593 14.102139,8.13424788 14.096,8.491 L14.096,14.716 L14.096,14.716 L14.1,14.716 Z M3.04,4.525 L4.05,4.525 C4.20038533,4.5223711 4.34356415,4.4600975 4.4480269,4.35188385 C4.55248964,4.2436702 4.60967568,4.09838451 4.607,3.948 L4.607,0.577 C4.60967568,0.426615494 4.55248964,0.2813298 4.4480269,0.173116149 C4.34356415,0.064902499 4.20038533,0.00262890252 4.05,1.13686838e-13 L3.04,1.13686838e-13 C2.88970333,0.00262698498 2.74662492,0.0649330999 2.64232091,0.173176647 C2.5380169,0.281420194 2.48105564,0.426709208 2.484,0.577 L2.484,3.948 C2.48105564,4.09829079 2.5380169,4.24357981 2.64232091,4.35182335 C2.74662492,4.4600669 2.88970333,4.52237302 3.04,4.525 Z M11.919,4.525 L12.93,4.525 C13.2427732,4.51898065 13.4915752,4.2607814 13.486,3.948 L13.486,0.577 C13.4915752,0.264218602 13.2427732,0.00601934912 12.93,0 L11.919,0 C11.6062268,0.00601934912 11.3574248,0.264218602 11.363,0.577 L11.363,3.948 C11.3574248,4.2607814 11.6062268,4.51898065 11.919,4.525 L11.919,4.525 Z" id="_-e-Forma_1"></path>
        </g>
    </g>
</svg>