<svg xmlns="http://www.w3.org/2000/svg" width="22" height="18" viewBox="0 0 22 18">
  <metadata><?xpacket begin="﻿" id="W5M0MpCehiHzreSzNTczkc9d"?>
<x:xmpmeta xmlns:x="adobe:ns:meta/" x:xmptk="Adobe XMP Core 5.6-c138 79.159824, 2016/09/14-01:09:01        ">
   <rdf:RDF xmlns:rdf="http://www.w3.org/1999/02/22-rdf-syntax-ns#">
      <rdf:Description rdf:about=""/>
   </rdf:RDF>
</x:xmpmeta>
                                                                                                    
                                                                                                    
                                                                                                    
                                                                                                    
                                                                                                    
                                                                                                    
                                                                                                    
                                                                                                    
                                                                                                    
                                                                                                    
                                                                                                    
                                                                                                    
                                                                                                    
                                                                                                    
                                                                                                    
                                                                                                    
                                                                                                    
                                                                                                    
                                                                                                    
                                                                                                    
                           
<?xpacket end="w"?></metadata>
<defs>
    <style>
      .cls-1 {
        fill: #904ee1;
        fill-rule: evenodd;
      }
    </style>
  </defs>
  <path id="_-e-Forma_1" data-name="-e-Forma 1" class="cls-1" d="M777.748,1681.38a0.7,0.7,0,0,1-.232.52,0.779,0.779,0,0,1-.553.23h-3.929a0.777,0.777,0,0,1-.553-0.23,0.7,0.7,0,0,1-.232-0.52v-1.88H764v5.63a1.772,1.772,0,0,0,.577,1.32,1.926,1.926,0,0,0,1.388.55h18.071a1.928,1.928,0,0,0,1.388-.55,1.768,1.768,0,0,0,.577-1.32v-5.63h-8.251v1.88h0Zm-4.321-1.88h3.143v1.5h-3.143v-1.5Zm12-6.95a1.928,1.928,0,0,0-1.388-.55h-4.321v-1.88a1.053,1.053,0,0,0-.344-0.79,1.159,1.159,0,0,0-.834-0.33h-7.072a1.162,1.162,0,0,0-.835.33,1.049,1.049,0,0,0-.344.79V1672h-4.321a1.926,1.926,0,0,0-1.388.55,1.772,1.772,0,0,0-.577,1.32v4.5h22v-4.5A1.768,1.768,0,0,0,785.422,1672.55Zm-7.281-.55h-6.286v-1.5h6.286v1.5Z" transform="translate(-764 -1669)"/>
</svg>
