<svg xmlns="http://www.w3.org/2000/svg" width="22" height="18" viewBox="0 0 22 18">
  <metadata><?xpacket begin="﻿" id="W5M0MpCehiHzreSzNTczkc9d"?>
<x:xmpmeta xmlns:x="adobe:ns:meta/" x:xmptk="Adobe XMP Core 5.6-c138 79.159824, 2016/09/14-01:09:01        ">
   <rdf:RDF xmlns:rdf="http://www.w3.org/1999/02/22-rdf-syntax-ns#">
      <rdf:Description rdf:about=""/>
   </rdf:RDF>
</x:xmpmeta>
                                                                                                    
                                                                                                    
                                                                                                    
                                                                                                    
                                                                                                    
                                                                                                    
                                                                                                    
                                                                                                    
                                                                                                    
                                                                                                    
                                                                                                    
                                                                                                    
                                                                                                    
                                                                                                    
                                                                                                    
                                                                                                    
                                                                                                    
                                                                                                    
                                                                                                    
                                                                                                    
                           
<?xpacket end="w"?></metadata>
<defs>
    <style>
      .cls-1 {
        fill: #d7d7d7;
        fill-rule: evenodd;
      }
    </style>
  </defs>
  <path id="_-e-Forma_1" data-name="-e-Forma 1" class="cls-1" d="M372.8,666.717a1.919,1.919,0,0,0,.712-2.669,2.038,2.038,0,0,0-2.745-.7,1.919,1.919,0,0,0-.963,1.759l-1.181.673-3.625-6a7.746,7.746,0,0,0-2.887,10.77c0.064,0.109.154,0.194,0.224,0.3L356,676.991,366.729,677v-2.935a8.253,8.253,0,0,0,6.467-.713l-3.625-6,1.181-.673A2.045,2.045,0,0,0,372.8,666.717Zm-7.736,8.669-5.051-.006,3.373-3.272a7.921,7.921,0,0,0,1.679,1.245v2.033h0Zm8.831-6.858-0.421-.7a3.2,3.2,0,0,0,1.188-4.441,3.4,3.4,0,0,0-4.569-1.159l-0.421-.7a4.241,4.241,0,0,1,5.7,1.448A3.99,3.99,0,0,1,373.9,668.528Zm1.034,1.713-0.421-.7a5.154,5.154,0,0,0,1.915-7.157,5.479,5.479,0,0,0-7.366-1.867l-0.419-.7a6.32,6.32,0,0,1,8.5,2.154A5.951,5.951,0,0,1,374.93,670.241Z" transform="translate(-356 -659)"/>
</svg>
