<?xml version="1.0" encoding="UTF-8"?>
<svg width="22px" height="18px" viewBox="0 0 22 18" version="1.1" xmlns="http://www.w3.org/2000/svg" xmlns:xlink="http://www.w3.org/1999/xlink">
    <!-- Generator: Sketch 44.1 (41455) - http://www.bohemiancoding.com/sketch -->
    <title>carrier-icon</title>
    <desc>Created with Sketch.</desc>
    <defs></defs>
    <g id="Page-1" stroke="none" stroke-width="1" fill="none" fill-rule="evenodd">
        <g id="carrier-icon" transform="translate(0.000000, -1.000000)" fill="#D7D7D7">
            <path d="M16.8,8.717 C17.2554924,8.46419664 17.5886332,8.03707409 17.722908,7.53373212 C17.8571829,7.03039015 17.7810517,6.4940875 17.512,6.048 C16.9352475,5.11292485 15.7211066,4.80330787 14.767,5.348 C14.1408053,5.70663245 13.76874,6.38624086 13.804,7.107 L12.623,7.78 L8.998,1.78 C7.15814726,2.79820983 5.81132199,4.52067573 5.26686585,6.55177811 C4.72240972,8.58288049 5.02711632,10.7480551 6.111,12.55 C6.175,12.659 6.265,12.744 6.335,12.85 L0,18.991 L10.729,19 L10.729,16.065 C12.8913542,16.7229099 15.2289131,16.4651892 17.196,15.352 L13.571,9.352 L14.752,8.679 C15.3786667,9.05728656 16.1597315,9.07177898 16.8,8.717 Z M9.064,17.386 L4.013,17.38 L7.386,14.108 C7.88821296,14.5953459 8.45279406,15.01399 9.065,15.353 L9.065,17.386 L9.065,17.386 L9.064,17.386 Z M17.895,10.528 L17.474,9.828 C18.2309799,9.40651664 18.7846988,8.69609711 19.0085972,7.85911662 C19.2324956,7.02213614 19.1074351,6.13013819 18.662,5.387 C17.6974186,3.83630333 15.6801074,3.32458003 14.093,4.228 L13.672,3.528 C15.6524666,2.40098383 18.1695429,3.04040953 19.372,4.976 C19.9329352,5.90269169 20.0929813,7.01762449 19.8153739,8.06468703 C19.5377665,9.11174957 18.8463682,10.0009392 17.9,10.528 L17.895,10.528 Z M18.929,12.241 L18.508,11.541 C19.7286513,10.8624388 20.6216761,9.71756708 20.9826604,8.36844694 C21.3436448,7.01932681 21.1416815,5.58146891 20.423,4.384 C18.8682213,1.88348657 15.6151235,1.05895038 13.057,2.517 L12.638,1.817 C15.5896519,0.133025826 19.3445449,1.0845599 21.138,3.971 C21.9701164,5.35378672 22.2049414,7.01523601 21.7886428,8.57447053 C21.3723441,10.133705 20.3406247,11.4570008 18.93,12.241 L18.929,12.241 Z" id="_-e-Forma_1"></path>
        </g>
    </g>
</svg>