<?xml version="1.0" encoding="UTF-8"?>
<svg width="25px" height="22px" viewBox="0 0 25 22" version="1.1" xmlns="http://www.w3.org/2000/svg" xmlns:xlink="http://www.w3.org/1999/xlink">
    <!-- Generator: Sketch 44.1 (41455) - http://www.bohemiancoding.com/sketch -->
    <title>criminal-icon</title>
    <desc>Created with Sketch.</desc>
    <defs></defs>
    <g id="Page-1" stroke="none" stroke-width="1" fill="none" fill-rule="evenodd">
        <g id="criminal-icon" transform="translate(-1.000000, -1.000000)" fill="#E7114C">
            <path d="M11.155,12.34 L11.155,10.27 C11.1331732,9.42767659 10.434404,8.7615434 9.592,8.78 L8.592,8.78 C8.52431884,8.66331847 8.44198338,8.55577827 8.347,8.46 C7.71612707,7.91177513 6.77787293,7.91177513 6.147,8.46 C6.05080901,8.55496537 5.96804366,8.66262762 5.901,8.78 L4.901,8.78 C4.05842389,8.76153744 3.35936725,9.42751851 3.337,10.27 L3.337,12.34 C1.87136284,13.4469606 1.0048452,15.1733417 0.993,17.01 C1.15097384,20.3468725 3.90239024,22.9711132 7.243,22.9711132 C10.5836098,22.9711132 13.3350262,20.3468725 13.493,17.01 C13.4838088,15.1740932 12.6193494,13.4473929 11.155,12.34 L11.155,12.34 Z M7.249,20.01 C5.60984621,19.9427376 4.32871048,18.5712823 4.37309944,16.9313497 C4.4174884,15.2914171 5.77093777,13.9912736 7.41133005,14.0127804 C9.05172233,14.0342872 10.3706205,15.3694673 10.372,17.01 C10.3337395,18.6989355 8.93810951,20.0395983 7.249,20.01 L7.249,20.01 Z M24.169,5.29 C22.8014667,4.00061131 20.9373925,3.37559817 19.069,3.58 L17.54,2.11 C16.9178248,1.53014331 15.9531752,1.53014331 15.331,2.11 L14.58,2.83 C14.0744221,2.73945714 13.5553334,2.88703035 13.173,3.23 C12.8869579,3.50493846 12.7233731,3.88327325 12.719,4.28 C12.718885,4.38426999 12.7302875,4.48823367 12.753,4.59 L12.016,5.29 C11.7240903,5.56528306 11.5586244,5.94876189 11.5586244,6.35 C11.5586244,6.75123811 11.7240903,7.13471694 12.016,7.41 L13.544,8.87 C13.3383624,10.6902232 14.000186,12.5012572 15.331,13.76 C17.8157848,16.0932484 21.6862152,16.0932484 24.171,13.76 C25.3367682,12.6597614 25.9973243,11.1275472 25.9969458,9.52456861 C25.9965672,7.92159004 25.3352876,6.38968796 24.169,5.29 Z M21.958,11.64 C20.7168892,12.8098568 18.7791108,12.8098568 17.538,11.64 C16.9557914,11.0906029 16.6258054,10.3255024 16.6258054,9.525 C16.6258054,8.72449764 16.9557914,7.95939714 17.538,7.41 L17.538,7.41 C18.7773821,6.23676657 20.7176179,6.23676657 21.957,7.41 C22.5414907,7.95806456 22.8731798,8.72353191 22.8733692,9.52478348 C22.8735587,10.3260351 22.5422315,11.0916591 21.958,11.64 L21.958,11.64 Z M10.527,3.99 C10.6229838,3.99494819 10.7191502,3.98482541 10.812,3.96 C11.2095885,3.90034015 11.5665859,3.68357221 11.8029089,3.35832254 C12.0392319,3.03307288 12.1350973,2.62656912 12.069,2.23 C11.8996758,1.39664472 11.0894592,0.856202557 10.255,1.02 C9.85371507,1.07733207 9.49271764,1.29463489 9.25422928,1.6224151 C9.01574093,1.9501953 8.92006757,2.36054427 8.989,2.76 C9.14398773,3.4835428 9.78708534,3.99785363 10.527,3.99 L10.527,3.99 Z M7.107,6.7 C7.22232674,6.72727484 7.34049397,6.74070293 7.459,6.74 C8.17417118,6.75308347 8.80457178,6.27293594 8.982,5.58 C9.07090185,5.18777749 8.99736395,4.77627232 8.77811888,4.43911711 C8.55887381,4.10196189 8.21256844,3.86783178 7.818,3.79 C6.99272835,3.59178983 6.1603098,4.08928651 5.944,4.91 C5.85478685,5.3021018 5.92806899,5.71361814 6.14715506,6.05081853 C6.36624112,6.38801892 6.71247662,6.62219182 7.107,6.7 L7.107,6.7 Z" id="criminal"></path>
        </g>
    </g>
</svg>