<?xml version="1.0" encoding="UTF-8"?>
<svg width="24px" height="23px" viewBox="0 0 24 23" version="1.1" xmlns="http://www.w3.org/2000/svg" xmlns:xlink="http://www.w3.org/1999/xlink">
    <!-- Generator: Sketch 44.1 (41455) - http://www.bohemiancoding.com/sketch -->
    <title>home-icon</title>
    <desc>Created with Sketch.</desc>
    <defs></defs>
    <g id="Page-1" stroke="none" stroke-width="1" fill="none" fill-rule="evenodd">
        <g id="home-icon" transform="translate(-1.000000, 0.000000)" fill="#F5C419">
            <path d="M14.165,4.67 C13.8572522,4.32022508 13.4138876,4.11977168 12.948,4.11977168 C12.4821124,4.11977168 12.0387478,4.32022508 11.731,4.67 L4.902,12.59 C4.47787848,13.0788933 4.29448591,13.7317708 4.402,14.37 L5.641,21.68 C5.77279847,22.4474592 6.44133171,23.0063343 7.22,23 L13.175,23 C13.1739003,22.9800151 13.1739003,22.9599849 13.175,22.94 L13.175,17.63 C13.1739347,17.4632825 13.2394175,17.3030274 13.3569309,17.1847631 C13.4744444,17.0664988 13.6342791,16.9999966 13.801,17 L16.671,17 C16.8385247,16.9994688 16.9993846,17.0655771 17.1181241,17.1837539 C17.2368636,17.3019306 17.3037353,17.4624746 17.304,17.63 L17.304,23 L18.671,23 C19.4495911,23.0066782 20.1180321,22.4475259 20.249,21.68 L21.489,14.37 C21.5965141,13.7317708 21.4131215,13.0788933 20.989,12.59 L14.165,4.67 Z M11.325,19.51 C11.3252669,19.6773415 11.2588404,19.8378913 11.1404181,19.9561259 C11.0219959,20.0743605 10.8613409,20.1405323 10.694,20.14 L8.5,20.14 C8.33265914,20.1405323 8.17200414,20.0743605 8.05358189,19.9561259 C7.93515963,19.8378913 7.86873311,19.6773415 7.869,19.51 L7.869,17.35 C7.86873311,17.1826585 7.93515963,17.0221087 8.05358189,16.9038741 C8.17200414,16.7856395 8.33265914,16.7194677 8.5,16.72 L10.692,16.72 C10.8593409,16.7194677 11.0199959,16.7856395 11.1384181,16.9038741 C11.2568404,17.0221087 11.3232669,17.1826585 11.323,17.35 L11.323,19.51 L11.325,19.51 Z M24.658,10.75 L16.175,1.42 C15.3538391,0.504283925 14.1779055,-0.0131705899 12.948,4.4408921e-16 C11.7214494,0.00320270199 10.552816,0.522192103 9.728,1.43 L1.335,10.75 C1.10090064,11.0102305 0.980682642,11.353325 1.00116014,11.7027576 C1.02163764,12.0521901 1.18110728,12.3788943 1.444,12.61 C1.99479611,13.0896828 2.82807206,13.0407973 3.319,12.5 L11.712,3.19 C12.0272012,2.83540374 12.4805918,2.63478845 12.955,2.64 L12.955,2.64 C13.4265419,2.63579406 13.8776727,2.83209596 14.196,3.18 L22.68,12.51 C23.1740954,13.0479345 24.0075179,13.09236 24.556,12.61 C24.8179008,12.3779181 24.9760612,12.0506989 24.9952224,11.7012896 C25.0143835,11.3518803 24.8929525,11.0093287 24.658,10.75 Z" id="_-e-Forma_1"></path>
        </g>
    </g>
</svg>