<svg xmlns="http://www.w3.org/2000/svg" width="24" height="23" viewBox="0 0 24 23"><metadata><?xpacket begin="﻿" id="W5M0MpCehiHzreSzNTczkc9d"?><x:xmpmeta xmlns:x="adobe:ns:meta/" x:xmptk="Adobe XMP Core 5.6-c138 79.159824, 2016/09/14-01:09:01"><rdf:RDF xmlns:rdf="http://www.w3.org/1999/02/22-rdf-syntax-ns#"><rdf:Description/></rdf:RDF></x:xmpmeta><?xpacket end="w"?></metadata><defs><style>.cls-1{fill:#f5c419;fill-rule:evenodd}</style></defs><path id="_-e-Forma_1" data-name="-e-Forma 1" class="cls-1" d="M805.165,1044.67a1.621,1.621,0,0,0-2.434,0l-6.829,7.92a2.167,2.167,0,0,0-.5,1.78l1.239,7.31a1.589,1.589,0,0,0,1.579,1.32h5.955a0.546,0.546,0,0,1,0-.06v-5.31a0.626,0.626,0,0,1,.626-0.63h2.87a0.631,0.631,0,0,1,.633.63V1063h1.367a1.587,1.587,0,0,0,1.578-1.32l1.24-7.31a2.167,2.167,0,0,0-.5-1.78Zm-2.84,14.84a0.629,0.629,0,0,1-.631.63H799.5a0.629,0.629,0,0,1-.631-0.63v-2.16a0.629,0.629,0,0,1,.631-0.63h2.192a0.629,0.629,0,0,1,.631.63v2.16Zm13.333-8.76-8.483-9.33a4.273,4.273,0,0,0-3.227-1.42,4.366,4.366,0,0,0-3.22,1.43l-8.393,9.32a1.31,1.31,0,0,0,.109,1.86,1.342,1.342,0,0,0,1.875-.11l8.393-9.31a1.639,1.639,0,0,1,1.243-.55h0a1.662,1.662,0,0,1,1.241.54l8.484,9.33a1.343,1.343,0,0,0,1.876.1A1.31,1.31,0,0,0,815.658,1050.75Z" transform="translate(-792 -1040)"/></svg>