<svg xmlns="http://www.w3.org/2000/svg" width="26" height="12" viewBox="0 0 26 12">
  <metadata><?xpacket begin="﻿" id="W5M0MpCehiHzreSzNTczkc9d"?>
<x:xmpmeta xmlns:x="adobe:ns:meta/" x:xmptk="Adobe XMP Core 5.6-c138 79.159824, 2016/09/14-01:09:01        ">
   <rdf:RDF xmlns:rdf="http://www.w3.org/1999/02/22-rdf-syntax-ns#">
      <rdf:Description rdf:about=""/>
   </rdf:RDF>
</x:xmpmeta>
                                                                                                    
                                                                                                    
                                                                                                    
                                                                                                    
                                                                                                    
                                                                                                    
                                                                                                    
                                                                                                    
                                                                                                    
                                                                                                    
                                                                                                    
                                                                                                    
                                                                                                    
                                                                                                    
                                                                                                    
                                                                                                    
                                                                                                    
                                                                                                    
                                                                                                    
                                                                                                    
                           
<?xpacket end="w"?></metadata>
<defs>
    <style>
      .cls-1 {
        fill: #007ee3;
        fill-rule: evenodd;
      }
    </style>
  </defs>
  <path id="Forma_1_copy_4" data-name="Forma 1 copy 4" class="cls-1" d="M816.936,1052.49l-1.953-3.07a0.7,0.7,0,0,0-.536-0.3h-12.12a5.829,5.829,0,0,0-5.522-4.12,6,6,0,0,0,0,12,5.842,5.842,0,0,0,5.518-4.12h4.368a1.032,1.032,0,0,1,.6.24l2.37,2.29a0.384,0.384,0,0,0,.511,0l1.642-1.58a0.362,0.362,0,0,1,.51,0l1.643,1.58a0.363,0.363,0,0,0,.5-0.01l2.4-2.37A0.452,0.452,0,0,0,816.936,1052.49Zm-20.123.36A1.851,1.851,0,1,1,798.6,1051,1.82,1.82,0,0,1,796.813,1052.85Z" transform="translate(-791 -1045)"/>
</svg>
