<svg xmlns="http://www.w3.org/2000/svg" width="18" height="22" viewBox="0 0 18 22"><metadata><?xpacket begin="﻿" id="W5M0MpCehiHzreSzNTczkc9d"?><x:xmpmeta xmlns:x="adobe:ns:meta/" x:xmptk="Adobe XMP Core 5.6-c138 79.159824, 2016/09/14-01:09:01"><rdf:RDF xmlns:rdf="http://www.w3.org/1999/02/22-rdf-syntax-ns#"><rdf:Description/></rdf:RDF></x:xmpmeta><?xpacket end="w"?></metadata><defs><style>.cls-1{fill:#d7d7d7;fill-rule:evenodd}</style></defs><path id="_-e-Forma_1" data-name="-e-Forma 1" class="cls-1" d="M377,707.532h-0.822a4.8,4.8,0,0,0-4.865-4.728v-0.8A5.615,5.615,0,0,1,377,707.532Zm-5.687-4.147v0.8a3.4,3.4,0,0,1,3.445,3.349h0.822A4.212,4.212,0,0,0,371.317,703.385Zm0,1.424v0.8a1.956,1.956,0,0,1,1.981,1.925h0.821A2.767,2.767,0,0,0,371.317,704.809Zm1.014,3.475v14.2a1.534,1.534,0,0,1-1.551,1.507H360.543a1.534,1.534,0,0,1-1.55-1.507v-14.2a1.534,1.534,0,0,1,1.537-1.506v-3.9a0.9,0.9,0,0,1,1.8,0v3.9h8.447A1.535,1.535,0,0,1,372.331,708.284Zm-9.023,13.433a0.55,0.55,0,0,0-.558-0.543h-1.67a0.542,0.542,0,1,0,0,1.084h1.67A0.549,0.549,0,0,0,363.308,721.717Zm0-2.067a0.55,0.55,0,0,0-.558-0.542h-1.67a0.542,0.542,0,1,0,0,1.084h1.67A0.55,0.55,0,0,0,363.308,719.65Zm0-2.066a0.55,0.55,0,0,0-.558-0.542h-1.67a0.542,0.542,0,1,0,0,1.084h1.67A0.55,0.55,0,0,0,363.308,717.584Zm0-2.066a0.55,0.55,0,0,0-.558-0.542h-1.67a0.542,0.542,0,1,0,0,1.084h1.67A0.549,0.549,0,0,0,363.308,715.518Zm3.746,6.2a0.55,0.55,0,0,0-.557-0.543h-1.671a0.542,0.542,0,1,0,0,1.084H366.5A0.549,0.549,0,0,0,367.054,721.717Zm0-2.067a0.55,0.55,0,0,0-.557-0.542h-1.671a0.542,0.542,0,1,0,0,1.084H366.5A0.55,0.55,0,0,0,367.054,719.65Zm0-2.066a0.55,0.55,0,0,0-.557-0.542h-1.671a0.542,0.542,0,1,0,0,1.084H366.5A0.55,0.55,0,0,0,367.054,717.584Zm0-2.066a0.55,0.55,0,0,0-.557-0.542h-1.671a0.542,0.542,0,1,0,0,1.084H366.5A0.549,0.549,0,0,0,367.054,715.518Zm3.747,6.2a0.551,0.551,0,0,0-.558-0.543h-1.671a0.542,0.542,0,1,0,0,1.084h1.671A0.55,0.55,0,0,0,370.8,721.717Zm0-2.067a0.551,0.551,0,0,0-.558-0.542h-1.671a0.542,0.542,0,1,0,0,1.084h1.671A0.551,0.551,0,0,0,370.8,719.65Zm0-2.066a0.551,0.551,0,0,0-.558-0.542h-1.671a0.542,0.542,0,1,0,0,1.084h1.671A0.551,0.551,0,0,0,370.8,717.584Zm0-2.066a0.551,0.551,0,0,0-.558-0.542h-1.671a0.542,0.542,0,1,0,0,1.084h1.671A0.55,0.55,0,0,0,370.8,715.518Zm0.034-6.645H360.49v4.852h10.345v-4.852Z" transform="translate(-359 -702)"/></svg>