<?xml version="1.0" encoding="UTF-8"?>
<svg width="19px" height="22px" viewBox="0 0 19 22" version="1.1" xmlns="http://www.w3.org/2000/svg" xmlns:xlink="http://www.w3.org/1999/xlink">
    <!-- Generator: Sketch 44.1 (41455) - http://www.bohemiancoding.com/sketch -->
    <title>line-type-icon</title>
    <desc>Created with Sketch.</desc>
    <defs></defs>
    <g id="Page-1" stroke="none" stroke-width="1" fill="none" fill-rule="evenodd">
        <g id="line-type-icon" transform="translate(0.000000, -1.000000)" fill="#D7D7D7">
            <path d="M19,6.532 L18.178,6.532 C18.1385176,3.88367811 15.9613693,1.76783903 13.313,1.804 L13.313,1.004 C16.4084066,0.963937303 18.9522943,3.43670173 19,6.532 L19,6.532 Z M13.313,2.385 L13.313,3.185 C15.1885239,3.15996615 16.7300317,4.65851752 16.758,6.534 L17.58,6.534 C17.5454449,4.2124143 15.6386695,2.35662937 13.317,2.385 L13.313,2.385 Z M13.313,3.809 L13.313,4.609 C14.390995,4.59508681 15.2770036,5.45604919 15.294,6.534 L16.115,6.534 C16.0919639,5.01010407 14.8409724,3.79175102 13.317,3.809 L13.313,3.809 Z M14.327,7.284 L14.327,21.484 C14.312208,22.3273019 13.6193783,23.0004767 12.776,22.991 L2.543,22.991 C1.70000984,22.9999229 1.00779112,22.3269076 0.993,21.484 L0.993,7.284 C1.00828601,6.44658122 1.69244361,5.77622251 2.53,5.778 L2.53,1.878 C2.53,1.38094373 2.93294373,0.978 3.43,0.978 C3.92705627,0.978 4.33,1.38094373 4.33,1.878 L4.33,5.778 L12.777,5.778 C13.6209406,5.76740362 14.3151211,6.44014223 14.331,7.284 L14.327,7.284 Z M5.304,20.717 C5.30215667,20.5709515 5.24229594,20.4316341 5.13761845,20.3297705 C5.03294096,20.227907 4.89204452,20.1718639 4.746,20.174 L3.076,20.174 C2.88236199,20.1739999 2.70343305,20.2773045 2.60661402,20.4449999 C2.50979498,20.6126953 2.50979498,20.8193047 2.60661402,20.9870001 C2.70343305,21.1546955 2.88236199,21.2580001 3.076,21.258 L4.746,21.258 C4.89246572,21.2614842 5.03424827,21.2062816 5.13979771,21.1046762 C5.24534715,21.0030708 5.30590654,20.8634922 5.308,20.717 L5.304,20.717 Z M5.304,18.65 C5.30189363,18.504126 5.24191736,18.3650651 5.13726867,18.2634171 C5.03261998,18.1617691 4.89187358,18.1058628 4.746,18.108 L3.076,18.108 C2.88236199,18.1079999 2.70343305,18.2113045 2.60661402,18.3789999 C2.50979498,18.5466953 2.50979498,18.7533047 2.60661402,18.9210001 C2.70343305,19.0886955 2.88236199,19.1920001 3.076,19.192 L4.746,19.192 C4.8925598,19.1952134 5.03433803,19.1397851 5.13985691,19.0380214 C5.2453758,18.9362576 5.30590293,18.79658 5.308,18.65 L5.304,18.65 Z M5.304,16.584 C5.30189363,16.438126 5.24191736,16.2990651 5.13726867,16.1974171 C5.03261998,16.0957691 4.89187358,16.0398628 4.746,16.042 L3.076,16.042 C2.88236199,16.0419999 2.70343305,16.1453045 2.60661402,16.3129999 C2.50979498,16.4806953 2.50979498,16.6873047 2.60661402,16.8550001 C2.70343305,17.0226955 2.88236199,17.1260001 3.076,17.126 L4.746,17.126 C4.8925598,17.1292134 5.03433803,17.0737851 5.13985691,16.9720214 C5.2453758,16.8702576 5.30590293,16.73058 5.308,16.584 L5.304,16.584 Z M5.304,14.518 C5.30189363,14.372126 5.24191736,14.2330651 5.13726867,14.1314171 C5.03261998,14.0297691 4.89187358,13.9738628 4.746,13.976 L3.076,13.976 C2.88236199,13.9759999 2.70343305,14.0793045 2.60661402,14.2469999 C2.50979498,14.4146953 2.50979498,14.6213047 2.60661402,14.7890001 C2.70343305,14.9566955 2.88236199,15.0600001 3.076,15.06 L4.746,15.06 C4.89263675,15.0634847 5.03457041,15.0081458 5.14014913,14.9063244 C5.24572785,14.8045029 5.30617119,14.6646667 5.308,14.518 L5.304,14.518 Z M9.05,20.718 C9.04815525,20.5721272 8.98843222,20.4329631 8.88397186,20.3311283 C8.77951151,20.2292935 8.63887254,20.1731316 8.493,20.175 L6.822,20.175 C6.62836199,20.1749999 6.44943305,20.2783045 6.35261402,20.4459999 C6.25579498,20.6136953 6.25579498,20.8203047 6.35261402,20.9880001 C6.44943305,21.1556955 6.62836199,21.2590001 6.822,21.259 L8.5,21.259 C8.8024371,21.261779 9.05015639,21.0194254 9.054,20.717 L9.05,20.718 Z M9.05,18.651 C9.0456118,18.3476255 8.79638128,18.1051067 8.493,18.109 L6.822,18.109 C6.52266167,18.109 6.28,18.3516617 6.28,18.651 C6.28,18.9503383 6.52266167,19.193 6.822,19.193 L8.5,19.193 C8.80260056,19.1952252 9.0501568,18.9525843 9.054,18.65 L9.05,18.651 Z M9.05,16.585 C9.0456118,16.2816255 8.79638128,16.0391067 8.493,16.043 L6.822,16.043 C6.52266167,16.043 6.28,16.2856617 6.28,16.585 C6.28,16.8843383 6.52266167,17.127 6.822,17.127 L8.5,17.127 C8.80260056,17.1292252 9.0501568,16.8865843 9.054,16.584 L9.05,16.585 Z M9.05,14.519 C9.0456118,14.2156255 8.79638128,13.9731067 8.493,13.977 L6.822,13.977 C6.52266167,13.977 6.28,14.2196617 6.28,14.519 C6.28,14.8183383 6.52266167,15.061 6.822,15.061 L8.5,15.061 C8.80282284,15.063776 9.05070305,14.8208176 9.054,14.518 L9.05,14.519 Z M12.797,20.719 C12.7926117,20.4150732 12.5429335,20.1721068 12.239,20.176 L10.568,20.176 C10.2686617,20.176 10.026,20.4186617 10.026,20.718 C10.026,21.0173383 10.2686617,21.26 10.568,21.26 L12.239,21.26 C12.3855595,21.2629433 12.52723,21.2072585 12.6325601,21.105308 C12.7378902,21.0033574 12.7981639,20.8635775 12.8,20.717 L12.797,20.719 Z M12.797,18.652 C12.7920664,18.3484659 12.5425492,18.1061032 12.239,18.11 L10.568,18.11 C10.2686617,18.11 10.026,18.3526617 10.026,18.652 C10.026,18.9513383 10.2686617,19.194 10.568,19.194 L12.239,19.194 C12.3856532,19.1966736 12.5273198,19.1407636 12.6326197,19.0386547 C12.7379196,18.9365457 12.798161,18.796666 12.8,18.65 L12.797,18.652 Z M12.797,16.586 C12.7920664,16.2824659 12.5425492,16.0401032 12.239,16.044 L10.568,16.044 C10.374362,16.0439999 10.195433,16.1473045 10.098614,16.3149999 C10.001795,16.4826953 10.001795,16.6893047 10.098614,16.8570001 C10.195433,17.0246955 10.374362,17.1280001 10.568,17.128 L12.239,17.128 C12.3856532,17.1306736 12.5273198,17.0747636 12.6326197,16.9726547 C12.7379196,16.8705457 12.798161,16.730666 12.8,16.584 L12.797,16.586 Z M12.797,14.52 C12.7920664,14.2164659 12.5425492,13.9741032 12.239,13.978 L10.568,13.978 C10.374362,13.9779999 10.195433,14.0813045 10.098614,14.2489999 C10.001795,14.4166953 10.001795,14.6233047 10.098614,14.7910001 C10.195433,14.9586955 10.374362,15.0620001 10.568,15.062 L12.239,15.062 C12.3857308,15.0649436 12.5275524,15.0091224 12.6329117,14.9069559 C12.738271,14.8047893 12.7984285,14.6647519 12.8,14.518 L12.797,14.52 Z M12.831,7.875 L2.49,7.875 L2.49,12.727 L12.835,12.727 L12.835,7.875 L12.831,7.875 Z" id="_-e-Forma_1"></path>
        </g>
    </g>
</svg>