<?xml version="1.0" encoding="UTF-8"?>
<svg width="16px" height="20px" viewBox="0 0 16 20" version="1.1" xmlns="http://www.w3.org/2000/svg" xmlns:xlink="http://www.w3.org/1999/xlink">
    <!-- Generator: Sketch 44.1 (41455) - http://www.bohemiancoding.com/sketch -->
    <title>location-icon</title>
    <desc>Created with Sketch.</desc>
    <defs></defs>
    <g id="Page-1" stroke="none" stroke-width="1" fill="none" fill-rule="evenodd">
        <g id="location-icon" transform="translate(0.000000, -1.000000)" fill="#D7D7D7">
            <path d="M8,6.5 C6.865851,6.54649835 5.97955295,7.49568129 6.01078603,8.63035329 C6.04201911,9.7650253 6.97919012,10.6640153 8.11417967,10.6480531 C9.24916922,10.632091 10.1606883,9.70710158 10.16,8.572 C10.1337664,7.40421462 9.16786647,6.47766613 8,6.5 Z M8,1 C3.67424735,0.917368638 0.0967398761,4.34953987 0,8.675 C0.00260122837,10.4117639 0.612067927,12.0930148 1.723,13.428 L8,21 L14.276,13.428 C15.3877373,12.0934081 15.9976231,10.4119772 16,8.675 C15.9038043,4.34930064 12.3259691,0.916815052 8,1 L8,1 Z M8,12.027 C6.11108806,11.9487975 4.63533796,10.3677455 4.6873065,8.47792987 C4.73927504,6.58811421 6.29968469,5.09055439 8.19003973,5.11627894 C10.0803948,5.1420035 11.5994756,6.68147 11.6,8.572 C11.5573628,10.5190448 9.94715249,12.0643995 8,12.027 L8,12.027 Z" id="_-e-Shape_1"></path>
        </g>
    </g>
</svg>