<svg xmlns="http://www.w3.org/2000/svg" width="16" height="20" viewBox="0 0 16 20"><metadata><?xpacket begin="﻿" id="W5M0MpCehiHzreSzNTczkc9d"?><x:xmpmeta xmlns:x="adobe:ns:meta/" x:xmptk="Adobe XMP Core 5.6-c138 79.159824, 2016/09/14-01:09:01"><rdf:RDF xmlns:rdf="http://www.w3.org/1999/02/22-rdf-syntax-ns#"><rdf:Description/></rdf:RDF></x:xmpmeta><?xpacket end="w"?></metadata><defs><style>.cls-1{fill:#d7d7d7;fill-rule:evenodd}</style></defs><path id="_-e-Shape_1" data-name="-e-Shape 1" class="cls-1" d="M367,618.5a2.075,2.075,0,1,0,2.16,2.072A2.12,2.12,0,0,0,367,618.5Zm0-5.5a7.852,7.852,0,0,0-8,7.675,7.448,7.448,0,0,0,1.723,4.753L367,633l6.276-7.572A7.442,7.442,0,0,0,375,620.675,7.851,7.851,0,0,0,367,613Zm0,11.027a3.457,3.457,0,1,1,3.6-3.455A3.533,3.533,0,0,1,367,624.027Z" transform="translate(-359 -613)"/></svg>