<svg xmlns="http://www.w3.org/2000/svg" width="20" height="21" viewBox="0 0 20 21"><metadata><?xpacket begin="﻿" id="W5M0MpCehiHzreSzNTczkc9d"?><x:xmpmeta xmlns:x="adobe:ns:meta/" x:xmptk="Adobe XMP Core 5.6-c138 79.159824, 2016/09/14-01:09:01"><rdf:RDF xmlns:rdf="http://www.w3.org/1999/02/22-rdf-syntax-ns#"><rdf:Description/></rdf:RDF></x:xmpmeta><?xpacket end="w"?></metadata><defs><style>.cls-1{fill:#007ee3;fill-rule:evenodd}</style></defs><path id="_-e-Shape_1" data-name="-e-Shape 1" class="cls-1" d="M868.237,1049.65a9.509,9.509,0,0,0-6.862-2.65,10.028,10.028,0,0,0-7.343,3.01,10.154,10.154,0,0,0-3.033,7.5,10.466,10.466,0,0,0,2.886,7.39,10.125,10.125,0,0,0,7.787,3.1,14.153,14.153,0,0,0,5.791-1.26,1.312,1.312,0,0,0,.667-1.66h0a1.218,1.218,0,0,0-1.63-.7,11.749,11.749,0,0,1-4.832,1.11,7.271,7.271,0,0,1-5.816-2.38,8.288,8.288,0,0,1-2.059-5.59,8.119,8.119,0,0,1,2.207-5.81,7.164,7.164,0,0,1,5.412-2.33,7.051,7.051,0,0,1,5,1.91,6.35,6.35,0,0,1,2.037,4.82,5.588,5.588,0,0,1-.934,3.31,2.524,2.524,0,0,1-1.938,1.32,0.51,0.51,0,0,1-.543-0.61,11.375,11.375,0,0,1,.069-1.16l0.766-6.52h-2.635l-0.168.64a3.343,3.343,0,0,0-2.206-.86,4.161,4.161,0,0,0-3.257,1.58,6.856,6.856,0,0,0-.151,7.97,3.618,3.618,0,0,0,2.893,1.49,3.259,3.259,0,0,0,2.585-1.32,2.651,2.651,0,0,0,2.382,1.26,5,5,0,0,0,4-2.1,7.823,7.823,0,0,0,1.687-5.06A8.525,8.525,0,0,0,868.237,1049.65Zm-6.067,9.85a2.014,2.014,0,0,1-1.667.99,1.2,1.2,0,0,1-1.062-.72,3.6,3.6,0,0,1-.408-1.79,3.653,3.653,0,0,1,.568-2.14,1.676,1.676,0,0,1,1.408-.81,1.716,1.716,0,0,1,1.3.61,2.259,2.259,0,0,1,.568,1.62A3.791,3.791,0,0,1,862.17,1059.5Z" transform="translate(-851 -1047)"/></svg>