<?xml version="1.0" encoding="UTF-8"?>
<svg width="20px" height="21px" viewBox="0 0 20 21" version="1.1" xmlns="http://www.w3.org/2000/svg" xmlns:xlink="http://www.w3.org/1999/xlink">
    <!-- Generator: Sketch 44.1 (41455) - http://www.bohemiancoding.com/sketch -->
    <title>mail-icon</title>
    <desc>Created with Sketch.</desc>
    <defs></defs>
    <g id="Page-1" stroke="none" stroke-width="1" fill="none" fill-rule="evenodd">
        <g id="mail-icon" transform="translate(-1.000000, -1.000000)" fill="#007EE3">
            <path d="M18.237,3.65 C16.39778,1.88189962 13.9252127,0.927031763 11.375,1 C8.61756713,0.950922639 5.96163197,2.03962819 4.032,4.01 C2.02573058,5.98192626 0.927432636,8.69779654 0.999,11.51 C0.953903007,14.2566197 1.99045861,16.9108629 3.885,18.9 C5.91105155,21.009591 8.75041205,22.1399387 11.672,22 C13.6696234,21.9933938 15.6432201,21.5639806 17.463,20.74 C18.086602,20.447532 18.3778718,19.7226324 18.13,19.08 L18.13,19.08 C18.0150136,18.7644442 17.774832,18.5103723 17.4662323,18.3778448 C17.1576326,18.2453173 16.8080054,18.2460972 16.5,18.38 C14.9866245,19.089492 13.3392859,19.4679162 11.668,19.49 C9.46889943,19.61865 7.33004324,18.743396 5.852,17.11 C4.49659142,15.566244 3.76281936,13.5741188 3.793,11.52 C3.72895449,9.36726798 4.52285731,7.27729272 6,5.71 C7.386324,4.19306577 9.35731663,3.34450464 11.412,3.38 C13.2649244,3.33475248 15.061152,4.02091143 16.412,5.29 C17.7522016,6.52922027 18.4943198,8.28523883 18.449,10.11 C18.4933869,11.2840871 18.1665695,12.4422945 17.515,13.42 C17.124991,14.1515799 16.4005826,14.644985 15.577,14.74 C15.4168568,14.7536366 15.2596551,14.6909854 15.1527913,14.5709358 C15.0459274,14.4508862 15.0019062,14.2874858 15.034,14.13 C15.0372215,13.7424103 15.0602515,13.3552385 15.103,12.97 L15.869,6.45 L13.234,6.45 L13.066,7.09 C12.4602071,6.54380992 11.6756259,6.23794418 10.86,6.23 C9.59011403,6.2320752 8.39068878,6.81392718 7.603,7.81 C5.85470872,10.1614396 5.79403238,13.3640253 7.452,15.78 C8.12595334,16.7067903 9.19911902,17.2595095 10.345,17.27 C11.3658548,17.2591752 12.3226476,16.7706002 12.93,15.95 C13.4354113,16.7723207 14.3478265,17.2549584 15.312,17.21 C16.9035924,17.1866117 18.3889486,16.4067997 19.312,15.11 C20.4497189,13.6730327 21.0467775,11.8822108 20.999,10.05 C21.0324215,7.62054693 20.027622,5.2922643 18.237,3.65 L18.237,3.65 Z M12.17,13.5 C11.8201827,14.0933464 11.1913984,14.4667695 10.503,14.49 C10.0396415,14.475288 9.62620332,14.194991 9.441,13.77 C9.15258621,13.2186217 9.01201509,12.6019004 9.033,11.98 C8.99639203,11.2250837 9.19484332,10.4773975 9.601,9.84 C9.89939137,9.34540683 10.4314424,9.03932636 11.009,9.03 C11.5106679,9.03352717 11.9856684,9.25641203 12.309,9.64 C12.7041329,10.0842178 12.9082194,10.6662957 12.877,11.26 C12.8844302,12.0626873 12.6368765,12.8470158 12.17,13.5 L12.17,13.5 Z" id="_-e-Shape_1"></path>
        </g>
    </g>
</svg>