<?xml version="1.0" encoding="UTF-8"?>
<svg width="20px" height="20px" viewBox="0 0 20 20" version="1.1" xmlns="http://www.w3.org/2000/svg" xmlns:xlink="http://www.w3.org/1999/xlink">
    <!-- Generator: Sketch 44.1 (41455) - http://www.bohemiancoding.com/sketch -->
    <title>phone-icon</title>
    <desc>Created with Sketch.</desc>
    <defs></defs>
    <g id="Page-1" stroke="none" stroke-width="1" fill="none" fill-rule="evenodd">
        <g id="phone-icon" fill="#F5C419">
            <path d="M1.921,6.24 L4.633,6.24 C5.2167275,6.22580041 5.67995314,5.74383154 5.671,5.16 C5.66563061,4.95654481 5.74208984,4.75943693 5.88325315,4.61282258 C6.02441645,4.46620823 6.21848741,4.38233934 6.422,4.38 L13.577,4.38 C13.7803381,4.38260486 13.974151,4.46659016 14.115098,4.61317502 C14.256045,4.75975988 14.3323681,4.95671607 14.327,5.16 C14.3174987,5.74404726 14.7810352,6.22633964 15.365,6.24 L18.076,6.24 C18.6603583,6.22688039 19.1244949,5.74442842 19.115,5.16 L19.115,3.06 C19.131075,2.26447478 18.8304553,1.49514936 18.2792796,0.921281583 C17.728104,0.347413809 16.9715264,0.0160165868 16.176,4.54747351e-13 L3.821,4.54747351e-13 C2.16478913,0.0338972069 0.849522,1.4037806 0.883,3.06 L0.883,5.16 C0.873498651,5.74404726 1.33703522,6.22633964 1.921,6.24 Z M19.921,17.2 L18.602,12.38 C18.0352492,10.2340258 16.2150245,8.65208365 14.011,8.39 L14.011,7.11 C14.0304795,6.59214272 13.765314,6.10506435 13.3198018,5.84034853 C12.8742896,5.5756327 12.3197104,5.5756327 11.8741982,5.84034853 C11.428686,6.10506435 11.1635205,6.59214272 11.183,7.11 L11.183,8.35 L8.818,8.35 L8.818,7.11 C8.84198688,6.58946981 8.57794434,6.09787868 8.13072582,5.8304415 C7.6835073,5.56300431 7.1254927,5.56300431 6.67827418,5.8304415 C6.23105566,6.09787868 5.96701312,6.58946981 5.991,7.11 L5.991,8.39 C3.78495965,8.64752523 1.96251793,10.2313942 1.4,12.38 L0.081,17.2 C-0.100017534,17.8626197 0.0270719112,18.5715291 0.427,19.13 C0.816962246,19.6741204 1.44457289,19.9977845 2.114,20 L17.888,20 C18.5570338,19.9972999 19.1841337,19.6737074 19.574,19.13 C19.973584,18.5713669 20.1003038,17.8624706 19.919,17.2 L19.921,17.2 Z M9.469,17.23 C9.47114309,17.3288369 9.43385626,17.4244619 9.36537295,17.4957595 C9.29688964,17.5670572 9.20284306,17.608163 9.104,17.61 L7.231,17.61 C7.13215694,17.608163 7.03811036,17.5670572 6.96962705,17.4957595 C6.90114374,17.4244619 6.86385691,17.3288369 6.866,17.23 L6.866,15.28 C6.86385691,15.1811631 6.90114374,15.0855381 6.96962705,15.0142405 C7.03811036,14.9429428 7.13215694,14.901837 7.231,14.9 L9.1,14.9 C9.19884306,14.901837 9.29288964,14.9429428 9.36137295,15.0142405 C9.42985626,15.0855381 9.46714309,15.1811631 9.465,15.28 L9.465,17.23 L9.469,17.23 Z M9.469,13.42 C9.47114309,13.5188369 9.43385626,13.6144619 9.36537295,13.6857595 C9.29688964,13.7570572 9.20284306,13.798163 9.104,13.8 L7.23,13.8 C7.13115694,13.798163 7.03711036,13.7570572 6.96862705,13.6857595 C6.90014374,13.6144619 6.86285691,13.5188369 6.865,13.42 L6.865,11.47 C6.86285691,11.3711631 6.90014374,11.2755381 6.96862705,11.2042405 C7.03711036,11.1329428 7.13115694,11.091837 7.23,11.09 L9.1,11.09 C9.19884306,11.091837 9.29288964,11.1329428 9.36137295,11.2042405 C9.42985626,11.2755381 9.46714309,11.3711631 9.465,11.47 L9.465,13.42 L9.469,13.42 Z M13.136,17.23 C13.1399115,17.4352523 12.9772307,17.6050839 12.772,17.61 L10.9,17.61 C10.6943756,17.6056259 10.5310937,17.4356338 10.535,17.23 L10.535,15.28 C10.5310937,15.0743662 10.6943756,14.9043741 10.9,14.9 L12.774,14.9 C12.9792307,14.9049161 13.1419115,15.0747477 13.138,15.28 L13.138,17.23 L13.136,17.23 Z M13.136,13.42 C13.1399115,13.6252523 12.9772307,13.7950839 12.772,13.8 L10.9,13.8 C10.8011569,13.798163 10.7071104,13.7570572 10.6386271,13.6857595 C10.5701437,13.6144619 10.5328569,13.5188369 10.535,13.42 L10.535,11.47 C10.5328569,11.3711631 10.5701437,11.2755381 10.6386271,11.2042405 C10.7071104,11.1329428 10.8011569,11.091837 10.9,11.09 L12.773,11.09 C12.9782307,11.0949161 13.1409115,11.2647477 13.137,11.47 L13.137,13.42 L13.136,13.42 Z" id="_-e-Forma_1"></path>
        </g>
    </g>
</svg>