<svg xmlns="http://www.w3.org/2000/svg" width="24" height="19" viewBox="0 0 24 19"><metadata><?xpacket begin="﻿" id="W5M0MpCehiHzreSzNTczkc9d"?><x:xmpmeta xmlns:x="adobe:ns:meta/" x:xmptk="Adobe XMP Core 5.6-c138 79.159824, 2016/09/14-01:09:01"><rdf:RDF xmlns:rdf="http://www.w3.org/1999/02/22-rdf-syntax-ns#"><rdf:Description/></rdf:RDF></x:xmpmeta><?xpacket end="w"?></metadata><defs><style>.cls-1{fill:#88d042;fill-rule:evenodd}</style></defs><path id="_-e-Shape_1" data-name="-e-Shape 1" class="cls-1" d="M373.2,1262H354a0.774,0.774,0,0,0-.8.75v0.74h-0.8a0.774,0.774,0,0,0-.8.75v0.74h-0.8a0.781,0.781,0,0,0-.8.75v14.52a0.777,0.777,0,0,0,.8.75h19.194a0.774,0.774,0,0,0,.8-0.75v-0.74h0.8a0.775,0.775,0,0,0,.8-0.75v-0.75h0.8a0.774,0.774,0,0,0,.8-0.74v-14.52A0.773,0.773,0,0,0,373.2,1262Zm-3.2,12.04-2.093-2.23a0.423,0.423,0,0,0-.6,0l-2.53,2.7-6.9-5.71a0.409,0.409,0,0,0-.53,0l-6.532,5.4v-8.1a0.382,0.382,0,0,1,.4-0.37H369.6a0.38,0.38,0,0,1,.4.37v7.94Zm1.2,4.72h-0.4v-13.04a0.769,0.769,0,0,0-.8-0.74H352.406v-0.38a0.387,0.387,0,0,1,.4-0.37H371.2a0.389,0.389,0,0,1,.4.37l0,13.79A0.386,0.386,0,0,1,371.2,1278.76Zm1.6-1.5h-0.4v-13.03a0.769,0.769,0,0,0-.8-0.74H354v-0.37a0.382,0.382,0,0,1,.4-0.37h18.39a0.38,0.38,0,0,1,.4.37v13.77H373.2A0.382,0.382,0,0,1,372.8,1277.26Zm-8.4-9.3a1.489,1.489,0,1,0,1.6,1.48A1.54,1.54,0,0,0,364.4,1267.96Z" transform="translate(-350 -1262)"/></svg>