<?xml version="1.0" encoding="UTF-8"?>
<svg width="24px" height="19px" viewBox="0 0 24 19" version="1.1" xmlns="http://www.w3.org/2000/svg" xmlns:xlink="http://www.w3.org/1999/xlink">
    <!-- Generator: Sketch 44.1 (41455) - http://www.bohemiancoding.com/sketch -->
    <title>photo-icon</title>
    <desc>Created with Sketch.</desc>
    <defs></defs>
    <g id="Page-1" stroke="none" stroke-width="1" fill="none" fill-rule="evenodd">
        <g id="photo-icon" fill="#88D042">
            <path d="M23.2,-3.85542293e-16 L4,-3.85542293e-16 C3.79435509,-0.00700725285 3.59438386,0.0681586184 3.44427118,0.20888926 C3.2941585,0.349619901 3.20626094,0.544331014 3.2,0.75 L3.2,1.49 L2.4,1.49 C2.19435509,1.48299275 1.99438386,1.55815862 1.84427118,1.69888926 C1.6941585,1.8396199 1.60626094,2.03433101 1.6,2.24 L1.6,2.98 L0.8,2.98 C0.373149675,2.96928124 0.0168136238,3.30334628 -1.13686838e-13,3.73 L-1.13686838e-13,18.25 C0.0146733838,18.6776281 0.372315209,19.0129174 0.8,19 L19.994,19 C20.1996449,19.0070073 20.3996161,18.9318414 20.5497288,18.7911107 C20.6998415,18.6503801 20.7877391,18.455669 20.794,18.25 L20.794,17.51 L21.594,17.51 C21.7995721,17.5167384 21.9993913,17.4414821 22.1494444,17.3008073 C22.2994974,17.1601326 22.3874755,16.965579 22.394,16.76 L22.394,16.01 L23.194,16.01 C23.6185554,16.0246691 23.9755925,15.6944098 23.994,15.27 L23.994,0.75 C23.9814758,0.323803792 23.6262178,-0.0117673984 23.2,-3.85542293e-16 Z M20,12.04 L17.907,9.81 C17.8276006,9.73012388 17.7196253,9.68520966 17.607,9.68520966 C17.4943747,9.68520966 17.3863994,9.73012388 17.307,9.81 L14.777,12.51 L7.877,6.8 C7.72422973,6.67005083 7.49977027,6.67005083 7.347,6.8 L0.815,12.2 L0.815,4.1 C0.818102569,3.99758803 0.862215728,3.90071532 0.937430786,3.83114139 C1.01264585,3.76156746 1.11265709,3.72512511 1.215,3.73 L19.6,3.73 C19.7024865,3.72456654 19.802813,3.76081895 19.8781539,3.8305093 C19.9534948,3.90019965 19.9974431,3.99740145 20,4.1 L20,12.04 L20,12.04 Z M21.2,16.76 L20.8,16.76 L20.8,3.72 C20.7924599,3.51563799 20.7038303,3.32269597 20.5537062,3.18383117 C20.4035821,3.04496636 20.2043292,2.97161708 20,2.98 L2.406,2.98 L2.406,2.6 C2.41520375,2.38779512 2.59372229,2.22266547 2.806,2.23 L21.2,2.23 C21.41187,2.22375771 21.589739,2.38828653 21.6,2.6 L21.6,16.39 C21.5913327,16.602453 21.4124833,16.7678887 21.2,16.76 L21.2,16.76 Z M22.8,15.26 L22.4,15.26 L22.4,2.23 C22.3924599,2.02563799 22.3038303,1.83269597 22.1537062,1.69383117 C22.0035821,1.55496636 21.8043292,1.48161708 21.6,1.49 L4,1.49 L4,1.12 C4.00310257,1.01758803 4.04721573,0.92071532 4.12243079,0.851141391 C4.19764585,0.781567461 4.29765709,0.745125106 4.4,0.75 L22.79,0.75 C22.8924865,0.744566545 22.992813,0.780818945 23.0681539,0.850509297 C23.1434948,0.920199649 23.1874431,1.01740145 23.19,1.12 L23.19,14.89 L23.2,14.89 C23.1968974,14.992412 23.1527843,15.0892847 23.0775692,15.1588586 C23.0023542,15.2284325 22.9023429,15.2648749 22.8,15.26 L22.8,15.26 Z M14.4,5.96 C13.593696,6.02027932 12.9828466,6.71300684 13.0239314,7.52051648 C13.0650163,8.32802613 13.7430192,8.95517881 14.5512776,8.93331166 C15.3595359,8.91144452 16.0026371,8.24854984 16,7.44 C15.9843934,7.03145955 15.8069752,6.64589187 15.5068471,6.36827341 C15.206719,6.09065495 14.8085163,5.94377324 14.4,5.96 L14.4,5.96 Z" id="_-e-Shape_1"></path>
        </g>
    </g>
</svg>