<svg xmlns="http://www.w3.org/2000/svg" width="29" height="24" viewBox="0 0 29 24"><metadata><?xpacket begin="﻿" id="W5M0MpCehiHzreSzNTczkc9d"?><x:xmpmeta xmlns:x="adobe:ns:meta/" x:xmptk="Adobe XMP Core 5.6-c138 79.159824, 2016/09/14-01:09:01"><rdf:RDF xmlns:rdf="http://www.w3.org/1999/02/22-rdf-syntax-ns#"><rdf:Description/></rdf:RDF></x:xmpmeta><?xpacket end="w"?></metadata><defs><style>.cls-1{fill:#a1a1a1;fill-rule:evenodd}</style></defs><path id="_-e-Forma_1" data-name="-e-Forma 1" class="cls-1" d="M815.3,1046.9a1.65,1.65,0,1,0,1.642,1.65A1.649,1.649,0,0,0,815.3,1046.9Zm-23.6,0a1.65,1.65,0,1,0,1.643,1.65A1.649,1.649,0,0,0,791.7,1046.9Zm18.716-2.99a2.45,2.45,0,1,0,2.443,2.45A2.442,2.442,0,0,0,810.416,1043.91ZM818,1058.82h-2.784v-5.15a4.779,4.779,0,0,0-.674-2.41,2.427,2.427,0,0,1,.761-0.13,2.711,2.711,0,0,1,2.7,2.71v4.98Zm-21.414-14.91a2.45,2.45,0,1,0,2.439,2.45A2.445,2.445,0,0,0,796.583,1043.91Zm-4.883,7.22a2.419,2.419,0,0,1,.759.13,4.719,4.719,0,0,0-.674,2.41v5.15H789v-4.98A2.711,2.711,0,0,1,791.7,1051.13Zm11.795-12.12a3.625,3.625,0,1,0,3.614,3.62A3.618,3.618,0,0,0,803.5,1039.01Zm10.824,21.72h-4.265v-7.82a6.531,6.531,0,0,0-.74-2.98,3.97,3.97,0,0,1,1.1-.17,3.911,3.911,0,0,1,3.906,3.91v7.06Zm-17.382-7.82v7.82h-4.259v-7.06a3.867,3.867,0,0,1,5-3.74A6.546,6.546,0,0,0,796.937,1052.91Zm0.894,10.08H809.16v-10.08a5.665,5.665,0,1,0-11.329,0v10.08Z" transform="translate(-789 -1039)"/></svg>