<?xml version="1.0" encoding="UTF-8"?>
<svg width="29px" height="24px" viewBox="0 0 29 24" version="1.1" xmlns="http://www.w3.org/2000/svg" xmlns:xlink="http://www.w3.org/1999/xlink">
    <!-- Generator: Sketch 44.1 (41455) - http://www.bohemiancoding.com/sketch -->
    <title>relatives-icon</title>
    <desc>Created with Sketch.</desc>
    <defs></defs>
    <g id="Page-1" stroke="none" stroke-width="1" fill="none" fill-rule="evenodd">
        <g id="relatives-icon" fill="#A1A1A1">
            <path d="M26.3,7.9 C25.6319188,7.89676078 25.027818,8.29671012 24.7699068,8.91300936 C24.5119956,9.52930859 24.6511811,10.2403112 25.122442,10.7138681 C25.5937028,11.187425 26.3040205,11.3300644 26.921566,11.0751516 C27.5391115,10.8202388 27.9419921,10.218089 27.942,9.55 C27.9425591,8.64161897 27.208373,7.9038559 26.3,7.9 L26.3,7.9 Z M2.7,7.9 C2.03200759,7.89716607 1.42821269,8.2973739 1.17061701,8.91370689 C0.913021329,9.53003987 1.05245525,10.2408794 1.52379632,10.7142286 C1.99513739,11.1875778 2.70537766,11.3300325 3.32280022,11.0750595 C3.94022279,10.8200864 4.34299399,10.2179984 4.343,9.55 C4.34355712,8.64123025 3.6087639,7.90330645 2.7,7.9 L2.7,7.9 Z M21.416,4.91 C20.4244354,4.90716695 19.5289304,5.50229071 19.1475104,6.41756507 C18.7660904,7.33283942 18.9739706,8.38777417 19.6741117,9.08992143 C20.3742529,9.79206869 21.4285885,10.0029665 22.3449504,9.62416684 C23.2613124,9.2453672 23.858996,8.35156864 23.859,7.36 C23.8611269,6.71078301 23.6046474,6.08744159 23.1462364,5.62771712 C22.6878254,5.16799264 22.0652204,4.90973066 21.416,4.91 Z M29,19.82 L26.216,19.82 L26.216,14.67 C26.2093836,13.8210605 25.9767407,12.9892068 25.542,12.26 C25.7871056,12.1763404 26.0440219,12.1324519 26.303,12.13 C27.7955563,12.1360561 29.0024617,13.3474315 29.003,14.84 L29.003,19.82 L29,19.82 Z M7.586,4.91 C6.59407864,4.90554643 5.69734928,5.49963781 5.3146675,6.4147785 C4.93198573,7.32991919 5.13887344,8.38550698 5.83869494,9.08848471 C6.53851644,9.79146244 7.59316258,10.0030981 8.51001602,9.62453819 C9.42686947,9.2459783 10.02499,8.35193136 10.025,7.36 C10.0263273,6.71119931 9.76972763,6.08847362 9.31170615,5.62895166 C8.85368467,5.16942971 8.23180156,4.91079472 7.583,4.91 L7.586,4.91 Z M2.703,12.13 C2.96131849,12.1325276 3.21756453,12.1764169 3.462,12.26 C3.02454304,12.9880391 2.79168846,13.8206497 2.788,14.67 L2.788,19.82 L0,19.82 L0,14.84 C0.000538273927,13.3474315 1.20744371,12.1360561 2.7,12.13 L2.703,12.13 Z M14.498,0.01 C13.0303768,0.00554788898 11.7048813,0.886463865 11.1406258,2.24128982 C10.5763702,3.59611578 10.8847062,5.15748703 11.9216162,6.19611851 C12.9585262,7.23474999 14.5193838,7.54567561 15.8751439,6.98366828 C17.230904,6.42166095 18.1140176,5.09762857 18.112,3.63 C18.1131065,1.63339384 16.4966037,0.0133108153 14.5,0.01 L14.498,0.01 Z M25.322,21.73 L21.057,21.73 L21.057,13.91 C21.050661,12.8719737 20.7969841,11.8504097 20.317,10.93 C20.6738642,10.8219588 21.0441695,10.7647298 21.417,10.76 C23.5746424,10.7627584 25.3224501,12.5123559 25.323,14.67 L25.323,21.73 L25.322,21.73 Z M7.94,13.91 L7.94,21.73 L3.681,21.73 L3.681,14.67 C3.66734993,13.4360995 4.24340033,12.2697738 5.23152891,11.5306536 C6.21965749,10.7915335 7.50120032,10.5683794 8.681,10.93 C8.200169,11.8502695 7.94514945,12.8717187 7.937,13.91 L7.94,13.91 Z M8.834,23.99 L20.16,23.99 L20.16,13.91 C20.1871277,11.8683332 19.1134525,9.97003891 17.3496998,8.94129408 C15.5859471,7.91254926 13.4050529,7.91254926 11.6413002,8.94129408 C9.87754754,9.97003891 8.80387226,11.8683332 8.831,13.91 L8.831,23.99 L8.834,23.99 Z" id="_-e-Forma_1"></path>
        </g>
    </g>
</svg>