<svg xmlns="http://www.w3.org/2000/svg" width="20" height="21" viewBox="0 0 20 21"><metadata><?xpacket begin="﻿" id="W5M0MpCehiHzreSzNTczkc9d"?><x:xmpmeta xmlns:x="adobe:ns:meta/" x:xmptk="Adobe XMP Core 5.6-c138 79.159824, 2016/09/14-01:09:01"><rdf:RDF xmlns:rdf="http://www.w3.org/1999/02/22-rdf-syntax-ns#"><rdf:Description/></rdf:RDF></x:xmpmeta><?xpacket end="w"?></metadata><defs><style>.cls-1{fill:#8d4ddd;fill-rule:evenodd}</style></defs><path id="_-e-Forma_1" data-name="-e-Forma 1" class="cls-1" d="M747.362,1056.88a3.66,3.66,0,0,0-2.571,1.04,4.016,4.016,0,0,0-.5.61l-6.285-3.73a3.455,3.455,0,0,0,0-2.63l6.284-3.71a3.536,3.536,0,1,0-.57-1.9,3.478,3.478,0,0,0,.243,1.27l-6.294,3.71a3.659,3.659,0,0,0-3.04-1.62,3.561,3.561,0,1,0,0,7.12,3.65,3.65,0,0,0,3.04-1.61l6.293,3.74a3.5,3.5,0,0,0,.823,3.79,3.7,3.7,0,0,0,5.143,0,3.514,3.514,0,0,0,0-5.04A3.662,3.662,0,0,0,747.362,1056.88Z" transform="translate(-731 -1043)"/></svg>