<?xml version="1.0" encoding="UTF-8"?>
<svg width="20px" height="21px" viewBox="0 0 20 21" version="1.1" xmlns="http://www.w3.org/2000/svg" xmlns:xlink="http://www.w3.org/1999/xlink">
    <!-- Generator: Sketch 44.1 (41455) - http://www.bohemiancoding.com/sketch -->
    <title>social-icon</title>
    <desc>Created with Sketch.</desc>
    <defs></defs>
    <g id="Page-1" stroke="none" stroke-width="1" fill="none" fill-rule="evenodd">
        <g id="social-icon" transform="translate(-1.000000, -1.000000)" fill="#8D4DDD">
            <path d="M17.362,14.88 C16.4017532,14.8759738 15.4783874,15.2494862 14.791,15.92 C14.6047216,16.1064346 14.4372475,16.3107531 14.291,16.53 L8.006,12.8 C8.35271362,11.9576138 8.35271362,11.0123862 8.006,10.17 L14.29,6.46 C15.2479244,7.93569587 17.1450371,8.48267602 18.7415629,7.74348548 C20.3380888,7.00429494 21.1483277,5.20381257 20.6427834,3.51866497 C20.1372391,1.83351737 18.4697099,0.776365435 16.7299367,1.03806463 C14.9901634,1.29976382 13.7074254,2.80069919 13.72,4.56 C13.7209034,4.99480106 13.8033276,5.42557758 13.963,5.83 L7.669,9.54 C6.9891229,8.52694727 5.8490444,7.91940544 4.629,7.92 C3.33701805,7.88937494 2.12985295,8.56112943 1.47485926,9.67519339 C0.819865558,10.7892573 0.819865558,12.1707427 1.47485926,13.2848066 C2.12985295,14.3988706 3.33701805,15.0706251 4.629,15.04 C5.84755386,15.0444355 6.9879488,14.4404763 7.669,13.43 L13.962,17.17 C13.4473248,18.483735 13.7718139,19.9780407 14.785,20.96 C16.2191075,22.3462186 18.4938925,22.3462186 19.928,20.96 C20.6088238,20.2983474 20.9929602,19.389371 20.9929602,18.44 C20.9929602,17.490629 20.6088238,16.5816526 19.928,15.92 C19.2417297,15.2508839 18.3204764,14.8774998 17.362,14.88 L17.362,14.88 Z" id="_-e-Forma_1"></path>
        </g>
    </g>
</svg>