<?xml version="1.0" encoding="utf-8"?>
<!-- Generator: Adobe Illustrator 18.1.1, SVG Export Plug-In . SVG Version: 6.00 Build 0)  -->
<svg version="1.1" id="Layer_1" xmlns="http://www.w3.org/2000/svg" xmlns:xlink="http://www.w3.org/1999/xlink" x="0px" y="0px"
	 viewBox="0 0 907.9 125.1" enable-background="new 0 0 907.9 125.1" xml:space="preserve">
<g id="bv_logo_color_gray">
	<linearGradient id="SVGID_1_" gradientUnits="userSpaceOnUse" x1="66.6997" y1="104.4808" x2="66.6997" y2="-2.2963">
		<stop  offset="0" style="stop-color:#69A543"/>
		<stop  offset="1" style="stop-color:#75B649"/>
	</linearGradient>
	<path fill="url(#SVGID_1_)" d="M66.7,0C29.9,0,0,29.9,0,66.7c0,25.2,14,47.1,34.6,58.4l-3-40.5c0-6.3,5.3-11.3,11.7-11.3h46.8
		c6.5,0,11.7,5.1,11.7,11.3l-3,40.5c20.6-11.4,34.6-33.3,34.6-58.4C133.4,29.9,103.5,0,66.7,0z M66.7,68.5
		c-15.6,0-28.2-12.6-28.2-28.2C38.5,24.6,51.1,12,66.7,12c15.6,0,28.2,12.6,28.2,28.2C94.9,55.8,82.3,68.5,66.7,68.5z"/>
	<path fill="#303030" d="M152.1,26c0-3.9,1.9-6.9,6.3-6.9h20.9c17,0,25.9,12.7,25.9,24.3c0,11.2-5.5,19.7-13.4,22.3v0.3
		c11.6,1.3,20.8,11.7,20.8,25.2c0,16-11.2,29.7-31.4,29.7h-22.8c-4.5,0-6.3-3-6.3-6.9V26z M163.9,62.2h13.5
		c10.1,0,15.9-7.1,15.9-16.4c0-9.2-5-15.7-15.5-15.7h-13.9V62.2z M163.9,110.1h16.7c11.6,0,20.1-7.6,20.1-18.9
		c0-10.4-7.1-18.7-19.6-18.7h-17.3V110.1z"/>
	<path fill="#303030" d="M228.3,87.8c0,13,7.8,23.2,21.2,23.2c15.8,0,19.8-10.3,24.3-10.3c2.2,0,4.3,2,4.3,5.6
		c0,6.1-14.7,15.6-28.7,15.6c-22.9,0-32.9-18.7-32.9-38.9c0-20.6,12.1-38.9,32.2-38.9c19.6,0,30.9,18.7,30.9,37
		c0,4.4-1.5,6.7-6.6,6.7H228.3z M267.7,78.4c0-10.9-5.9-23.5-19-23.5c-14.7-0.6-20,11.9-20.4,23.5H267.7z"/>
	<path fill="#303030" d="M294.7,87.8c0,13,7.8,23.2,21.2,23.2c15.8,0,19.8-10.3,24.3-10.3c2.2,0,4.3,2,4.3,5.6
		c0,6.1-14.7,15.6-28.7,15.6c-22.9,0-32.9-18.7-32.9-38.9C282.8,62.4,295,44,315,44c19.6,0,30.9,18.7,30.9,37c0,4.4-1.5,6.7-6.6,6.7
		H294.7z M334.1,78.4c0-10.9-5.9-23.5-19-23.5c-14.7-0.6-20,11.9-20.4,23.5H334.1z"/>
	<path fill="#303030" d="M351.6,50.8c0-4.1,2.3-6.7,5.9-6.7c3.6,0,5.9,2.6,5.9,6.7v3l0.3,0.3c5.3-7.2,12.7-10,19.8-10
		c11.1,0,25,7.4,25,28.9v42.2c0,4.1-2.3,6.7-5.9,6.7c-3.6,0-5.9-2.6-5.9-6.7V73.6c0-13.3-8.8-18.7-16.6-18.7
		c-7.8,0-16.6,5.4-16.6,18.7v41.5c0,4.1-2.3,6.7-5.9,6.7c-3.6,0-5.9-2.6-5.9-6.7V50.8z"/>
	<linearGradient id="SVGID_2_" gradientUnits="userSpaceOnUse" x1="448.7998" y1="119.4327" x2="448.7998" y2="13.4204">
		<stop  offset="0" style="stop-color:#69A543"/>
		<stop  offset="1" style="stop-color:#75B649"/>
	</linearGradient>
	<path fill="url(#SVGID_2_)" d="M409.3,33.9c-0.7-1.9-0.9-3.3-0.9-5.3c0-6,5-10.3,10.4-10.3c4.6,0,7.4,3.1,9.2,7l20.9,59.5
		l20.9-59.5c1.8-3.9,4.6-7,9.2-7c5.4,0,10.4,4.3,10.4,10.3c0,2-0.3,3.4-0.9,5.3l-29.5,79.7c-1.8,4.6-4,8.3-10,8.3
		c-5.9,0-8.2-3.7-10-8.3L409.3,33.9z"/>
	<linearGradient id="SVGID_3_" gradientUnits="userSpaceOnUse" x1="513.7755" y1="119.4331" x2="513.7755" y2="13.4208">
		<stop  offset="0" style="stop-color:#69A543"/>
		<stop  offset="1" style="stop-color:#75B649"/>
	</linearGradient>
	<path fill="url(#SVGID_3_)" d="M498.7,89.8c1.3,10.2,9.3,14.9,18.3,14.9c10,0,16.9-8.3,22-8.3c4.2,0,8,4.4,8,8.9
		c0,8.9-17.3,17.4-31.7,17.4c-21.8,0-36.4-16.9-36.4-39.6c0-20.9,14.3-39.9,34.8-39.9c21,0,34.9,20.3,34.9,37.5
		c0,6.1-2.6,9.2-8.5,9.2H498.7z M529.2,76.1c-1.1-9-6.5-15.7-15.5-15.7c-8.6,0-14.4,7-15.4,15.7H529.2z"/>
	<linearGradient id="SVGID_4_" gradientUnits="userSpaceOnUse" x1="576.6152" y1="119.4328" x2="576.6152" y2="13.4193">
		<stop  offset="0" style="stop-color:#69A543"/>
		<stop  offset="1" style="stop-color:#75B649"/>
	</linearGradient>
	<path fill="url(#SVGID_4_)" d="M555.2,54.3c0-6.9,5.1-10.3,10-10.3c5.1,0,9.4,2,9.4,8.6h0.3c3.6-5.7,7.6-8.6,13.6-8.6
		c4.7,0,9.4,3.6,9.4,11c0,6.7-5.8,7.1-11.6,10c-5.8,2.9-11.7,5.6-11.7,13.7v31.6c0,6.9-4,11.4-9.7,11.4c-5.7,0-9.7-4.6-9.7-11.4
		V54.3z"/>
	<linearGradient id="SVGID_5_" gradientUnits="userSpaceOnUse" x1="609.8584" y1="119.4328" x2="609.8584" y2="13.421">
		<stop  offset="0" style="stop-color:#69A543"/>
		<stop  offset="1" style="stop-color:#75B649"/>
	</linearGradient>
	<path fill="url(#SVGID_5_)" d="M620.8,24.5c0,6.4-4.9,11.9-10.9,11.9c-5.8,0-10.9-5.6-10.9-11.9c0-5.9,5.1-11.3,10.9-11.3
		C615.7,13.2,620.8,18.4,620.8,24.5z M600.1,55.5c0-6.9,4-11.4,9.7-11.4c5.7,0,9.7,4.6,9.7,11.4v54.9c0,6.9-4,11.4-9.7,11.4
		c-5.7,0-9.7-4.6-9.7-11.4V55.5z"/>
	<linearGradient id="SVGID_6_" gradientUnits="userSpaceOnUse" x1="646.0694" y1="119.4327" x2="646.0694" y2="13.4197">
		<stop  offset="0" style="stop-color:#69A543"/>
		<stop  offset="1" style="stop-color:#75B649"/>
	</linearGradient>
	<path fill="url(#SVGID_6_)" d="M634.8,62.9h-4.3c-5.3,0-8.5-3.4-8.5-9c0-5.1,3.6-9,8.5-9h4.3V34.3c0-15.2,8.5-23.5,20.4-23.5
		c6.9,0,13.5,2.1,13.5,9.3c0,6-2.6,8.7-8,8.7c-3.2,0-6.5,0-6.5,7.6v8.4h6.1c5.8,0,9.8,2.4,9.8,9c0,6.4-4.2,9-9.8,9h-6.1v47.5
		c0,6.9-4,11.4-9.7,11.4c-5.7,0-9.7-4.6-9.7-11.4V62.9z"/>
	<linearGradient id="SVGID_7_" gradientUnits="userSpaceOnUse" x1="683.461" y1="119.4328" x2="683.461" y2="13.421">
		<stop  offset="0" style="stop-color:#69A543"/>
		<stop  offset="1" style="stop-color:#75B649"/>
	</linearGradient>
	<path fill="url(#SVGID_7_)" d="M694.4,24.5c0,6.4-4.9,11.9-10.9,11.9c-5.8,0-10.9-5.6-10.9-11.9c0-5.9,5.1-11.3,10.9-11.3
		C689.3,13.2,694.4,18.4,694.4,24.5z M673.8,55.5c0-6.9,4-11.4,9.7-11.4c5.7,0,9.7,4.6,9.7,11.4v54.9c0,6.9-4,11.4-9.7,11.4
		c-5.7,0-9.7-4.6-9.7-11.4V55.5z"/>
	<linearGradient id="SVGID_8_" gradientUnits="userSpaceOnUse" x1="734.6397" y1="119.4331" x2="734.6397" y2="13.4208">
		<stop  offset="0" style="stop-color:#69A543"/>
		<stop  offset="1" style="stop-color:#75B649"/>
	</linearGradient>
	<path fill="url(#SVGID_8_)" d="M719.6,89.8c1.3,10.2,9.3,14.9,18.3,14.9c10,0,16.9-8.3,22-8.3c4.2,0,8,4.4,8,8.9
		c0,8.9-17.3,17.4-31.7,17.4c-21.8,0-36.4-16.9-36.4-39.6c0-20.9,14.3-39.9,34.8-39.9c21,0,34.9,20.3,34.9,37.5
		c0,6.1-2.6,9.2-8.5,9.2H719.6z M750.1,76.1c-1.1-9-6.5-15.7-15.5-15.7c-8.6,0-14.4,7-15.4,15.7H750.1z"/>
	<path fill="#303030" d="M870.8,120c0-1.8,1.5-3.3,3.3-3.3c1.8,0,3.3,1.5,3.3,3.3c0,1.8-1.5,3.3-3.3,3.3
		C872.3,123.3,870.8,121.8,870.8,120z"/>
	<path fill="#303030" d="M860.7,97.5c0,1.5-1.2,2.9-1.2,4.8c0,3.5,3.1,5.1,6.2,5.1c3,0,6.1-1.8,6.1-5.1c0-1.5-1.3-3.8-1.3-4.5
		c0-1.4,1.2-2.6,2.7-2.6c3.1,0,4.2,5.2,4.2,7.4c0,6.5-5.4,10.9-11.7,10.9c-6.2,0-11.8-4.5-11.8-10.9c0-2.4,0.9-7.4,3.8-7.4
		C859.1,95.2,860.7,96.1,860.7,97.5z"/>
	<path fill="#303030" d="M865.7,72.2c6.3,0,11.7,4.3,11.7,10.9c0,6.5-5.4,10.9-11.7,10.9c-6.2,0-11.8-4.5-11.8-10.9
		C854,76.7,859.6,72.2,865.7,72.2z M865.7,87.9c2.9,0,6.1-1.5,6.1-4.8c0-3.3-3.2-4.8-6.1-4.8c-2.9,0-6.2,1.5-6.2,4.8
		C859.5,86.4,862.8,87.9,865.7,87.9z"/>
	<path fill="#303030" d="M857.6,69.7c-2,0-3.4-1.3-3.4-3c0-1.6,0.8-2.6,2.3-2.8c-1.6-1.5-2.5-3.4-2.5-5.6c0-2.5,1.1-4.7,3.1-6.3
		c-1.9-1.7-3.1-4.3-3.1-6.4c0-4.9,2.9-8.3,8.2-8.3h11.6c2,0,3.4,1.3,3.4,3c0,1.8-1.3,3-3.4,3h-10.6c-2.4,0-4.2,1.3-4.2,3.5
		c0,2.2,1.7,3.6,4.2,3.6h10.6c2,0,3.4,1.3,3.4,3c0,1.8-1.3,3-3.4,3h-10.6c-2.4,0-4.2,1.3-4.2,3.5c0,2.5,1.7,3.6,4.2,3.6h10.6
		c2,0,3.4,1.3,3.4,3c0,1.8-1.3,3-3.4,3H857.6z"/>
	<linearGradient id="SVGID_9_" gradientUnits="userSpaceOnUse" x1="75.5869" y1="118.7128" x2="75.5869" y2="86.4326">
		<stop  offset="0" style="stop-color:#69A543"/>
		<stop  offset="1" style="stop-color:#75B649"/>
	</linearGradient>
	<polygon fill="url(#SVGID_9_)" points="83.3,106.9 95.1,98.4 80.1,98.4 75.6,86.4 71.1,98.4 56,98.4 67.9,106.9 62.1,122.3 
		75.6,112.5 89.1,122.3 	"/>
	<linearGradient id="SVGID_10_" gradientUnits="userSpaceOnUse" x1="808.1378" y1="119.4331" x2="808.1378" y2="13.4197">
		<stop  offset="0" style="stop-color:#69A543"/>
		<stop  offset="1" style="stop-color:#75B649"/>
	</linearGradient>
	<path fill="url(#SVGID_10_)" d="M833,10.9c-5.7,0-9.7,4.6-9.7,11.4v28c-5.1-4.7-11.7-7.2-18.5-7.2c-20.9,0-31.3,20.7-31.3,40.8
		c0,19.5,12.4,38.8,32,38.8c6.6,0,14.2-3.1,17.8-9.4c1.2,5.4,4.3,8.6,9.7,8.6c5.7,0,9.7-4.6,9.7-11.4V22.3
		C842.7,15.4,838.7,10.9,833,10.9z M816.6,83.7l6.3,16.8l-14.8-10.7l-14.8,10.7l6.3-16.8l-13-9.4h16.5l4.9-13.1l4.9,13.1h16.5
		L816.6,83.7z"/>
	<g>
		<path fill="#303030" d="M895.4,13.2v2.1h-3.5v9.5h-2.4v-9.5H886v-2.1H895.4z"/>
		<path fill="#303030" d="M904.5,13.2h3.5v11.6h-2.3v-7.8c0-0.2,0-0.5,0-0.9c0-0.4,0-0.7,0-0.9l-2.2,9.7h-2.4L899,15
			c0,0.2,0,0.5,0,0.9c0,0.4,0,0.7,0,0.9v7.8h-2.3V13.2h3.5l2.1,9.1L904.5,13.2z"/>
	</g>
</g>
<g>
</g>
<g>
</g>
<g>
</g>
<g>
</g>
<g>
</g>
<g>
</g>
</svg>
