<?xml version="1.0" encoding="UTF-8" standalone="no"?>
<svg width="23px" height="23px" viewBox="0 0 23 23" version="1.1" xmlns="http://www.w3.org/2000/svg" xmlns:xlink="http://www.w3.org/1999/xlink">
    <!-- Generator: Sketch 43.1 (39012) - http://www.bohemiancoding.com/sketch -->
    <title>checkmark</title>
    <desc>Created with Sketch.</desc>
    <defs></defs>
    <g id="Page-1" stroke="none" stroke-width="1" fill="none" fill-rule="evenodd">
        <g id="checkmark" fill-rule="nonzero" fill="#73AC47">
            <path d="M10.25,12.95 L7.4,10.09 L5.87,11.62 L10.37,16.1 L17.59,9.1 L15.82,7.28 L10.25,12.95 Z M11.5,0 C5.15,0 0,5.15 0,11.5 C0,17.85 5.15,23 11.5,23 C17.85,23 23,17.85 23,11.5 C23,5.15 17.85,0 11.5,0 Z M11.5,20.92 C6.3,20.92 2.08,16.7 2.08,11.5 C2.08,6.3 6.3,2.08 11.5,2.08 C16.7,2.09 20.91,6.3 20.92,11.5 C20.92,16.7 16.7,20.92 11.5,20.92 Z" id="Shape"></path>
        </g>
    </g>
</svg>