<?xml version="1.0" encoding="UTF-8"?>
<svg width="172px" height="149px" viewBox="0 0 172 149" version="1.1" xmlns="http://www.w3.org/2000/svg" xmlns:xlink="http://www.w3.org/1999/xlink">
    <!-- Generator: Sketch 40.3 (33839) - http://www.bohemiancoding.com/sketch -->
    <title>API</title>
    <desc>Created with Sketch.</desc>
    <defs></defs>
    <g id="Page-1" stroke="none" stroke-width="1" fill="none" fill-rule="evenodd">
        <g id="KTC-LandngPage-1440" transform="translate(-284.000000, -2949.000000)">
            <g id="API-Section" transform="translate(115.000000, 2815.000000)">
                <g id="API" transform="translate(172.000000, 137.000000)">
                    <path d="M106,106 L84,92" id="Stroke-11" stroke="#FFFFFF" stroke-width="3" stroke-linecap="round" stroke-linejoin="round" stroke-dasharray="3,10"></path>
                    <path d="M58,106 L82.0076,91.801539" id="Stroke-13" stroke="#FFFFFF" stroke-width="3" stroke-linecap="round" stroke-linejoin="round" stroke-dasharray="3,10"></path>
                    <path d="M83,67.9667036 L83,83" id="Stroke-15" stroke="#FFFFFF" stroke-width="3" stroke-linecap="round" stroke-linejoin="round" stroke-dasharray="3,10"></path>
                    <path d="M81,0.203389831 L81,19.2121356" id="Stroke-17" stroke="#19B2CC" stroke-width="6" stroke-linecap="round" stroke-linejoin="round"></path>
                    <path d="M0.2,140.408139 L16.6136,130.903766" id="Stroke-19" stroke="#19B2CC" stroke-width="6" stroke-linecap="round" stroke-linejoin="round"></path>
                    <path d="M165.4148,138.80378 L149.0012,129.299407" id="Stroke-21" stroke="#19B2CC" stroke-width="6" stroke-linecap="round" stroke-linejoin="round"></path>
                    <path d="M75,91 C75,86.5811581 78.5808,83 83,83 C87.4176,83 91.0008,86.5811581 91,91 C91.0008,95.4188419 87.4176,99 83,99 C78.5808,99 75,95.4188419 75,91" id="Fill-9" fill="#FFFFFF"></path>
                    <path d="M146.49608,132.105231 L129.98648,141.664959 C128.50088,142.52418 126.66968,142.52418 125.18648,141.664959 L108.67448,132.105231 C107.19128,131.24601 106.27448,129.655129 106.27448,127.936688 L106.27448,108.817231 C106.27448,107.09879 107.19128,105.510315 108.67448,104.648688 L125.18648,95.0913661 C126.66968,94.229739 128.50088,94.229739 129.98648,95.0913661 L146.49608,104.648688 C147.98168,105.510315 148.89608,107.09879 148.89608,108.817231 L148.89608,127.936688 C148.89608,129.655129 147.98168,131.24601 146.49608,132.105231" id="Fill-1" stroke="#19B2CC" stroke-width="6"></path>
                    <path d="M56.19608,132.105231 L39.68648,141.664959 C38.20088,142.52418 36.36968,142.52418 34.88648,141.664959 L18.37448,132.105231 C16.89128,131.24601 15.97448,129.655129 15.97448,127.936688 L15.97448,108.817231 C15.97448,107.09879 16.89128,105.510315 18.37448,104.648688 L34.88648,95.0913661 C36.36968,94.229739 38.20088,94.229739 39.68648,95.0913661 L56.19608,104.648688 C57.68168,105.510315 58.59608,107.09879 58.59608,108.817231 L58.59608,127.936688 C58.59608,129.655129 57.68168,131.24601 56.19608,132.105231" id="Fill-4" stroke="#19B2CC" stroke-width="6"></path>
                    <path d="M101.09624,57.1942136 L84.58664,66.7539424 C83.10104,67.6131627 81.26984,67.6131627 79.78664,66.7539424 L63.27464,57.1942136 C61.79144,56.3349932 60.87464,54.7441119 60.87464,53.0256712 L60.87464,33.9062136 C60.87464,32.1877729 61.79144,30.5992983 63.27464,29.7376712 L79.78664,20.1803492 C81.26984,19.318722 83.10104,19.318722 84.58664,20.1803492 L101.09624,29.7376712 C102.58184,30.5992983 103.49624,32.1877729 103.49624,33.9062136 L103.49624,53.0256712 C103.49624,54.7441119 102.58184,56.3349932 101.09624,57.1942136" id="Fill-7" stroke="#19B2CC" stroke-width="6"></path>
                </g>
            </g>
        </g>
    </g>
</svg>