<?xml version="1.0" encoding="UTF-8"?>
<svg width="45px" height="50px" viewBox="0 0 45 50" version="1.1" xmlns="http://www.w3.org/2000/svg" xmlns:xlink="http://www.w3.org/1999/xlink">
    <!-- Generator: Sketch 40.3 (33839) - http://www.bohemiancoding.com/sketch -->
    <title>Twitter</title>
    <desc>Created with Sketch.</desc>
    <defs>
        <path d="M42.6628448,39.0389643 L24.5105322,49.4364578 C23.1989,50.1878474 21.5831159,50.1878474 20.2714836,49.4364578 L2.1195243,39.0389643 C0.808245266,38.2875747 0,36.899747 0,35.3969678 L0,14.6023313 C0,13.0999026 0.808245266,11.7117243 2.1195243,10.9606852 L20.2714836,0.563542185 C21.5831159,-0.187847395 23.1989,-0.187847395 24.5105322,0.563542185 L42.6628448,10.9606852 C43.9744771,11.7117243 44.7823691,13.0999026 44.7823691,14.6023313 L44.7823691,35.3969678 C44.7823691,36.899747 43.9744771,38.2875747 42.6628448,39.0389643 L42.6628448,39.0389643 Z" id="path-1"></path>
        <filter x="-50%" y="-50%" width="200%" height="200%" filterUnits="objectBoundingBox" id="filter-2">
            <feGaussianBlur stdDeviation="1" in="SourceAlpha" result="shadowBlurInner1"></feGaussianBlur>
            <feOffset dx="0" dy="0" in="shadowBlurInner1" result="shadowOffsetInner1"></feOffset>
            <feComposite in="shadowOffsetInner1" in2="SourceAlpha" operator="arithmetic" k2="-1" k3="1" result="shadowInnerInner1"></feComposite>
            <feColorMatrix values="0 0 0 0 0   0 0 0 0 0   0 0 0 0 0  0 0 0 0.355242301 0" type="matrix" in="shadowInnerInner1"></feColorMatrix>
        </filter>
    </defs>
    <g id="Page-1" stroke="none" stroke-width="1" fill="none" fill-rule="evenodd">
        <g id="KTC-Landing-768" transform="translate(-497.000000, -4767.000000)">
            <g id="Footer" transform="translate(1.000000, 4718.000000)">
                <g id="SocialMediaIcons" transform="translate(496.000000, 49.000000)">
                    <g id="Twitter">
                        <g id="Stroke-183">
                            <use fill="#FFFFFF" fill-rule="evenodd" xlink:href="#path-1"></use>
                            <use fill="black" fill-opacity="1" filter="url(#filter-2)" xlink:href="#path-1"></use>
                        </g>
                        <path d="M36.2276746,13.4252546 C35.1165011,14.089613 33.8887971,14.5731161 32.5772075,14.8325866 C31.5321507,13.704277 30.0379138,13 28.3845836,13 C25.2142889,13 22.6423501,15.5995927 22.6423501,18.80611 C22.6423501,19.2615071 22.6919376,19.7034623 22.7902862,20.1287169 C18.016662,19.885947 13.7839549,17.5767821 10.9487891,14.0598778 C10.4545669,14.9201629 10.1719181,15.9189409 10.1719181,16.9820774 C10.1719181,18.9955193 11.1859827,20.7731161 12.7273277,21.814664 C11.7872312,21.7861507 10.8996148,21.5221996 10.1239835,21.0904277 L10.1239835,21.1617108 C10.1239835,23.9759674 12.104178,26.3234216 14.7339689,26.8549898 C14.2521436,26.991446 13.7446981,27.0590631 13.219897,27.0590631 C12.85047,27.0590631 12.4893077,27.0244399 12.1393025,26.9564155 C12.8707183,29.2619145 14.9897578,30.9413442 17.504671,30.986558 C15.5397659,32.5446029 13.0608037,33.4737271 10.3706814,33.4737271 C9.90703818,33.4737271 9.44835372,33.4468432 9,33.3934827 C11.5425995,35.0382892 14.562892,36 17.8050886,36 C28.3730132,36 34.1503712,27.1539715 34.1503712,19.4806517 C34.1503712,19.2281059 34.144586,18.9755601 34.1354949,18.7279022 C35.2574123,17.909165 36.2322201,16.8875764 37,15.7226069 C35.9710592,16.1845214 34.8627784,16.496945 33.7016042,16.6366599 C34.8879854,15.9189409 35.7987426,14.7808554 36.2276746,13.4252546 L36.2276746,13.4252546 Z" id="Stroke-181" fill="#00AAEC"></path>
                    </g>
                </g>
            </g>
        </g>
    </g>
</svg>