<?xml version="1.0" encoding="utf-8"?>
<!-- Generator: Adobe Illustrator 19.2.1, SVG Export Plug-In . SVG Version: 6.00 Build 0)  -->
<svg version="1.1" id="Layer_1" xmlns="http://www.w3.org/2000/svg" xmlns:xlink="http://www.w3.org/1999/xlink" x="0px" y="0px"
	 viewBox="0 0 86 86" style="enable-background:new 0 0 86 86;" xml:space="preserve">
<style type="text/css">
	.st0{opacity:0.1;fill:#7E6F9C;}
	.st1{fill:#796998;}
	.st2{fill:#F5C210;}
</style>
<circle class="st0" cx="43" cy="43" r="42.5"/>
<g>
	<polygon class="st1" points="22,30.4 22,54 35.6,42.2 	"/>
	<polygon class="st1" points="59.3,28.5 24.2,28.5 41.8,43.6 	"/>
	<path class="st1" d="M50.7,44.6c1.6-0.7,3.5-1.1,5.4-1.1c1.9,0,3.8,0.4,5.4,1.2V30.4L47.9,42.2L50.7,44.6z"/>
	<path class="st1" d="M48,46.2l-2.4-2l-3.9,3.4l-3.9-3.4L24.2,55.9h18.9C43.1,52,45,48.5,48,46.2z"/>
	<path class="st2" d="M56.1,46.4c-5.5,0-9.9,4.3-9.9,9.6s4.5,9.6,9.9,9.6s9.9-4.3,9.9-9.6S61.5,46.4,56.1,46.4z M54.8,61.2l-5.9-5.7
		l2.1-2l3.8,3.6l5.6-5.4l2.1,2L54.8,61.2z"/>
</g>
</svg>
