<?xml version="1.0" encoding="utf-8"?>
<!-- Generator: Adobe Illustrator 19.2.1, SVG Export Plug-In . SVG Version: 6.00 Build 0)  -->
<svg version="1.1" id="Layer_1" xmlns="http://www.w3.org/2000/svg" xmlns:xlink="http://www.w3.org/1999/xlink" x="0px" y="0px"
	 viewBox="0 0 86 86" style="enable-background:new 0 0 86 86;" xml:space="preserve">
<style type="text/css">
	.st0{opacity:0.1;fill:#7E6F9C;}
	.st1{fill:#F5C210;}
	.st2{fill:#796998;}
</style>
<circle class="st0" cx="43" cy="43" r="42.5"/>
<g>
	<g>
		<path class="st1" d="M43.2,31.9c7.1,0.1,11.5-0.4,12.1,7.6H64c0-12.3-10.6-14-21-14c-10.4,0-21,1.7-21,14h8.6
			C31.3,31.4,36.2,31.8,43.2,31.9z"/>
		<path class="st1" d="M26.3,43.4c2.1,0,3.9,0.1,4.2-2c0.1-0.3,0.1-0.6,0.1-1h-0.1H22C22,43.6,23.9,43.4,26.3,43.4z"/>
		<path class="st1" d="M55.4,40.5L55.4,40.5c-0.1,0.4,0,0.7,0,1c0.4,1.9,2.2,1.8,4.3,1.8c2.4,0,4.3,0.2,4.3-2.8
			C64,40.5,55.4,40.5,55.4,40.5z"/>
		<path class="st2" d="M51.2,38.3v-1.2c0-0.6-0.6-0.6-1.4-0.6h-1.3c-0.8,0-1.4,0-1.4,0.6v1.1V39h-9v-0.8v-1.1c0-0.6-0.6-0.6-1.4-0.6
			h-1.3c-0.8,0-1.4,0-1.4,0.6v1.2v1.1c-2,2.2-8.7,11.3-9,12.4l0,7.4c0,0.7,0.5,1.2,1.2,1.2h32.7c0.7,0,1.2-0.6,1.2-1.2v-7.4
			c-0.2-1.1-6.9-10.2-9-12.4V38.3z M37.7,52.9c-0.7,0-1.2-0.5-1.2-1.2s0.5-1.2,1.2-1.2s1.2,0.5,1.2,1.2S38.3,52.9,37.7,52.9z
			 M37.7,48.7c-0.7,0-1.2-0.5-1.2-1.2s0.5-1.2,1.2-1.2s1.2,0.5,1.2,1.2S38.3,48.7,37.7,48.7z M37.7,44.6c-0.7,0-1.2-0.5-1.2-1.2
			c0-0.7,0.5-1.2,1.2-1.2s1.2,0.5,1.2,1.2C38.9,44,38.3,44.6,37.7,44.6z M42.6,52.9c-0.7,0-1.2-0.5-1.2-1.2s0.5-1.2,1.2-1.2
			c0.7,0,1.2,0.5,1.2,1.2S43.2,52.9,42.6,52.9z M42.6,48.7c-0.7,0-1.2-0.5-1.2-1.2s0.5-1.2,1.2-1.2c0.7,0,1.2,0.5,1.2,1.2
			S43.2,48.7,42.6,48.7z M42.6,44.6c-0.7,0-1.2-0.5-1.2-1.2c0-0.7,0.5-1.2,1.2-1.2c0.7,0,1.2,0.5,1.2,1.2
			C43.8,44,43.2,44.6,42.6,44.6z M47.5,52.9c-0.7,0-1.2-0.5-1.2-1.2s0.5-1.2,1.2-1.2c0.7,0,1.2,0.5,1.2,1.2S48.1,52.9,47.5,52.9z
			 M47.5,48.7c-0.7,0-1.2-0.5-1.2-1.2s0.5-1.2,1.2-1.2c0.7,0,1.2,0.5,1.2,1.2S48.1,48.7,47.5,48.7z M47.5,44.6
			c-0.7,0-1.2-0.5-1.2-1.2c0-0.7,0.5-1.2,1.2-1.2c0.7,0,1.2,0.5,1.2,1.2C48.7,44,48.1,44.6,47.5,44.6z"/>
	</g>
</g>
</svg>
