<?xml version="1.0" encoding="utf-8"?>
<!-- Generator: Adobe Illustrator 19.2.1, SVG Export Plug-In . SVG Version: 6.00 Build 0)  -->
<svg version="1.1" id="Layer_1" xmlns="http://www.w3.org/2000/svg" xmlns:xlink="http://www.w3.org/1999/xlink" x="0px" y="0px"
	 viewBox="0 0 86 86" style="enable-background:new 0 0 86 86;" xml:space="preserve">
<style type="text/css">
	.st0{opacity:0.1;fill:#7E6F9C;}
	.st1{fill:#796998;}
	.st2{fill:#F5C210;}
</style>
<circle class="st0" cx="43" cy="43" r="42.5"/>
<path class="st1" d="M37.1,46.2c0.3-0.7,0.4-1.5,0.4-2.3s-0.2-1.6-0.4-2.3l10.4-6.4c1.1,1.7,2.9,2.8,5.1,2.8c3.3,0,6-2.7,6-6.1
	s-2.7-6.1-6-6.1s-6,2.7-6,6.1c0,0.8,0.1,1.5,0.4,2.2l-10.4,6.4c-1.1-1.7-2.9-2.8-5-2.8c-3.3,0-6,2.7-6,6.1s2.7,6.1,6,6.1
	c2.1,0,3.9-1.1,5-2.8"/>
<path class="st2" d="M36.5,47.3l10.4,6.4c-0.3,0.7-0.4,1.4-0.4,2.2c0,1.6,0.6,3.2,1.8,4.3c1.1,1.2,2.6,1.8,4.2,1.8s3.1-0.6,4.2-1.8
	c1.1-1.2,1.8-2.7,1.8-4.3c0-1.6-0.6-3.2-1.8-4.3c-1.1-1.2-2.6-1.8-4.2-1.8s-3.1,0.6-4.2,1.8c-0.3,0.3-0.6,0.7-0.8,1l-10.4-6.4
	L36.5,47.3z"/>
</svg>
