<?xml version="1.0" encoding="utf-8"?>
<!-- Generator: Adobe Illustrator 19.2.1, SVG Export Plug-In . SVG Version: 6.00 Build 0)  -->
<svg version="1.1" id="Layer_1" xmlns="http://www.w3.org/2000/svg" xmlns:xlink="http://www.w3.org/1999/xlink" x="0px" y="0px"
	 viewBox="0 0 44 44" style="enable-background:new 0 0 44 44;" xml:space="preserve">
<style type="text/css">
	.st0{fill:#720E9E;}
	.st1{fill:#FFFFFF;}
</style>
<g>
	<path class="st0" d="M22,0.5c11.9,0,21.5,9.6,21.5,21.5c0,11.9-9.6,21.5-21.5,21.5S0.5,33.9,0.5,22C0.5,10.1,10.1,0.5,22,0.5z"/>
	<path class="st1" d="M31.8,17.5L31.8,17.5l0.7-0.8l0,0l0.1-0.1h-10l0.4,1.4h2.7l-4.6,4.2c-0.9-1.4-3.1-4.5-4.7-6.9h2.8v-1l0-0.3
		l0,0v-0.1H8.6v1.4h3.4c1.3,1.1,7,8,7.2,8.6c0.1,0.6,0.2,4.3,0,4.5c-0.3,0.4-3.4,0.2-3.9,0.2l0,1.3c1,0,4,0,5,0c2,0,5.4-0.1,5.9,0
		l0.1-1.3l-4-0.1c-0.1-0.6-0.2-4.2-0.1-4.6c0.4-1.1,6.5-5.9,7.1-6.1l0.6-0.1h1.8C31.6,17.9,31.8,17.5,31.8,17.5z M30.4,26.9l1.7,0.1
		l2-7.4c-0.3,0-3.4-0.3-3.8-0.4L30.4,26.9z M30.1,28.1l0,1.8l0.9,0.1l0.9,0.1l0.3-1.8l-1,0C31.2,28.2,30.1,28.1,30.1,28.1z"/>
</g>
</svg>
