<?xml version="1.0" encoding="utf-8"?>
<!-- Generator: Adobe Illustrator 16.0.0, SVG Export Plug-In . SVG Version: 6.00 Build 0)  -->
<!DOCTYPE svg PUBLIC "-//W3C//DTD SVG 1.1//EN" "http://www.w3.org/Graphics/SVG/1.1/DTD/svg11.dtd">
<svg version="1.1" id="Layer_1" xmlns="http://www.w3.org/2000/svg" xmlns:xlink="http://www.w3.org/1999/xlink" x="0px" y="0px"
	 width="207px" height="29px" viewBox="0 0 207 29" enable-background="new 0 0 207 29" xml:space="preserve">
<g id="OVsvDd_1_" display="none">
</g>
<g display="none">
	<g display="inline">
		<g display="none">
			<path display="inline" fill="#121212" d="M36.976,30.574L25.962,19.141l-2.182,2.185l11.011,11.433
				c0.604,0.604,1.582,0.604,2.185,0C37.579,32.156,37.579,31.176,36.976,30.574z"/>
			<g display="inline">
				<path fill="#121212" d="M29.991,15.165c0-5.498-4.458-9.955-9.955-9.955c-5.498,0-9.955,4.457-9.955,9.955
					c0,3.647,1.969,6.831,4.896,8.563c0.587-0.761,1.097-1.619,1.448-2.498c-2.037-1.215-3.408-3.435-3.408-5.981
					c0-3.847,3.12-6.965,6.966-6.965c3.847,0,6.966,3.118,6.966,6.965c0,2.911-1.788,5.405-4.325,6.446
					c-0.644,1.135-1.438,2.285-2.355,3.41C25.658,24.98,29.991,20.586,29.991,15.165z"/>
			</g>
		</g>
		<g display="none">
			<path display="inline" fill="#6DAD47" d="M6.367,25.555c-0.395-0.397-1.29,0.158-3.017,1.895
				c-1.866,1.846-3.122,3.023-2.254,3.894c0.232,0.23,0.808,0.757,1.06,0.927l5.442-5.443C7.241,26.467,6.709,25.877,6.367,25.555z"
				/>
		</g>
		<g display="none">
			<path display="inline" fill="#6DAD47" d="M15.925,15.997c-0.399-0.396,0.158-1.288,1.893-3.017
				c1.84-1.865,3.024-3.123,3.891-2.254c0.232,0.233,0.757,0.808,0.927,1.061l-5.442,5.441
				C16.836,16.871,16.248,16.341,15.925,15.997z"/>
		</g>
		<g display="none">
			<path display="inline" fill="#6DAD47" d="M23.369,12.515l-5.506,5.506c0.702,2.176-0.85,5.164-2.676,6.985
				c-1.821,1.824-4.468,3.034-6.643,2.334L3.04,32.848c3.381,1.482,9.676-1.771,14.413-6.507
				C22.186,21.604,24.853,15.898,23.369,12.515z"/>
		</g>
	</g>
</g>
<g display="none">
	<path display="inline" fill="#02458B" d="M53.421,31.07c-1.082,0-1.75-0.063-2.005-0.191c-0.254-0.127-0.542-0.551-0.86-1.273
		l-4.298-9.422h-1.687l0.127,0.795v8.627h0.032c0,0.724-0.08,1.146-0.239,1.273c-0.159,0.128-0.695,0.191-1.608,0.191h-0.191V8.085
		l3.629-0.319c2.208,0,3.629,0.425,4.266,1.274c0.255,0.339,0.446,0.636,0.574,0.891c0.127,0.254,0.223,0.647,0.286,1.178
		c0.084,0.701,0.127,1.555,0.127,2.562c0,1.008-0.016,1.772-0.048,2.292c-0.032,0.521-0.111,1.062-0.238,1.624
		s-0.308,1.003-0.542,1.321c-0.531,0.742-1.358,1.156-2.483,1.24l5.284,10.92h-0.126V31.07z M46.322,18.368
		c1.083,0,1.921-0.202,2.515-0.604c0.36-0.275,0.574-0.977,0.637-2.102c0.021-0.339,0.032-0.901,0.032-1.687
		c0-0.786-0.01-1.348-0.032-1.688c-0.021-0.339-0.08-0.731-0.175-1.178c-0.096-0.446-0.25-0.753-0.462-0.923
		c-0.594-0.403-1.433-0.605-2.515-0.605h-1.624v7.991l-0.127,0.796H46.322z"/>
	<path display="inline" fill="#02458B" d="M63.353,30.751c-1.634,0.36-2.775,0.541-3.422,0.541s-1.146-0.015-1.496-0.047
		c-0.351-0.032-0.668-0.117-0.955-0.255c-0.286-0.137-0.536-0.254-0.748-0.35c-0.213-0.097-0.403-0.287-0.573-0.574
		c-0.17-0.286-0.308-0.521-0.414-0.7c-0.106-0.181-0.19-0.494-0.255-0.939c-0.063-0.446-0.116-0.806-0.159-1.083
		c-0.042-0.275-0.075-0.727-0.096-1.353c-0.022-0.625-0.031-1.13-0.031-1.513v-3.598c0-1.4,0.031-2.309,0.094-2.722
		c0.064-0.414,0.128-0.854,0.191-1.322c0.064-0.466,0.149-0.8,0.255-1.002s0.244-0.451,0.414-0.748
		c0.17-0.297,0.36-0.504,0.573-0.621c0.211-0.117,0.461-0.244,0.748-0.382s0.604-0.228,0.955-0.271
		c0.35-0.042,0.749-0.063,1.194-0.063c0.446,0,0.849,0.032,1.209,0.096c0.361,0.063,0.663,0.19,0.908,0.382
		c0.244,0.191,0.457,0.371,0.637,0.541c0.18,0.17,0.329,0.445,0.445,0.829c0.117,0.381,0.207,0.705,0.271,0.971
		c0.063,0.266,0.111,0.68,0.144,1.24c0.031,0.563,0.047,1.015,0.047,1.354v1.654l0.127,1.721l-6.495,0.158l0.127,0.797
		c0,2.716,0.106,4.287,0.318,4.711c0.339,0.699,0.732,1.104,1.178,1.21c0.297,0.085,0.876,0.127,1.735,0.127
		c0.859,0,1.883-0.14,3.072-0.415v1.625L63.353,30.751L63.353,30.751z M57.241,18.463c0,0.382,0,0.956,0,1.719l-0.127,0.797h4.52
		l-0.159-0.83c0-1.696-0.117-2.906-0.35-3.629c-0.234-0.721-0.759-1.082-1.576-1.082c-0.817,0-1.396,0.218-1.735,0.652
		C57.474,16.527,57.283,17.316,57.241,18.463z"/>
	<path display="inline" fill="#02458B" d="M74.272,14.611c0,1.083-1.03,6.569-3.088,16.458h-2.77l-3.247-17.093
		c0.891,0,1.433,0.063,1.624,0.19c0.191,0.128,0.35,0.553,0.478,1.274l2.324,13.082h0.414l2.611-14.546
		c0.997,0,1.528,0.096,1.591,0.286C74.251,14.325,74.272,14.441,74.272,14.611z"/>
	<path display="inline" fill="#02458B" d="M84.364,30.751c-1.635,0.36-2.775,0.541-3.422,0.541c-0.648,0-1.146-0.015-1.496-0.047
		c-0.351-0.032-0.668-0.117-0.956-0.255c-0.286-0.137-0.536-0.254-0.748-0.35c-0.212-0.097-0.403-0.287-0.573-0.574
		c-0.17-0.286-0.308-0.521-0.415-0.7c-0.106-0.181-0.19-0.494-0.254-0.939c-0.063-0.446-0.117-0.806-0.159-1.083
		c-0.042-0.275-0.075-0.727-0.096-1.353c-0.021-0.625-0.031-1.13-0.031-1.513v-3.598c0-1.4,0.031-2.309,0.095-2.722
		c0.064-0.414,0.128-0.854,0.191-1.322c0.064-0.466,0.148-0.8,0.254-1.002s0.244-0.451,0.415-0.748
		c0.169-0.297,0.36-0.504,0.573-0.621c0.211-0.117,0.462-0.244,0.748-0.382c0.287-0.138,0.605-0.228,0.956-0.271
		c0.35-0.042,0.748-0.063,1.193-0.063c0.446,0,0.849,0.032,1.21,0.096c0.361,0.063,0.664,0.19,0.907,0.382
		C83,14.42,83.213,14.6,83.393,14.77c0.179,0.17,0.329,0.445,0.445,0.828c0.117,0.381,0.208,0.707,0.271,0.971
		c0.064,0.267,0.112,0.681,0.144,1.242c0.031,0.562,0.047,1.014,0.047,1.353v1.655l0.127,1.72l-6.494,0.159l0.127,0.796
		c0,2.716,0.106,4.287,0.318,4.711c0.339,0.7,0.732,1.104,1.178,1.21c0.297,0.085,0.875,0.127,1.735,0.127s1.883-0.139,3.072-0.415
		L84.364,30.751L84.364,30.751z M78.252,18.463c0,0.382,0,0.956,0,1.719l-0.127,0.797h4.521l-0.159-0.83
		c0-1.696-0.117-2.906-0.35-3.629c-0.234-0.721-0.759-1.082-1.576-1.082s-1.396,0.218-1.735,0.652
		C78.485,16.527,78.294,17.316,78.252,18.463z"/>
	<path display="inline" fill="#02458B" d="M87.452,29.605v-15.63c0.934,0,1.48,0.037,1.64,0.111
		c0.159,0.075,0.239,0.355,0.239,0.844v0.351l2.547-1.528c0.36,0,0.891,0.074,1.591,0.223c0,0.743-0.069,1.172-0.206,1.29
		c-0.139,0.115-0.6,0.174-1.385,0.174l-2.706,1.496l0.159,0.797V31.07c-0.934,0-1.48-0.063-1.639-0.191
		C87.532,30.751,87.452,30.328,87.452,29.605z"/>
	<path display="inline" fill="#02458B" d="M101.778,30.243c-0.254,0.317-0.595,0.557-1.019,0.716
		c-0.425,0.159-0.944,0.239-1.56,0.239c-0.616,0-1.878-0.159-3.788-0.479v-1.687c0.084,0,0.621,0.052,1.608,0.157
		c0.987,0.106,1.724,0.16,2.212,0.16c1.188,0,1.782-1.104,1.782-3.312c0-0.147,0-0.297,0-0.446
		c-0.021-0.679-0.679-1.512-1.974-2.499c-1.294-0.985-2.25-1.851-2.865-2.595c-0.616-0.742-0.923-1.496-0.923-2.26
		s0.011-1.295,0.032-1.592s0.095-0.67,0.223-1.114c0.127-0.446,0.318-0.764,0.573-0.955c0.657-0.53,1.655-0.796,2.992-0.796
		l3.024,0.446c0,0.934-0.383,1.4-1.146,1.4c-0.148,0-0.297-0.01-0.446-0.031l-1.305-0.19c-1.04,0-1.676,0.233-1.91,0.7
		c-0.191,0.402-0.287,0.992-0.287,1.767s0.828,1.819,2.483,3.135c0.764,0.573,1.342,1.03,1.735,1.369
		c0.393,0.34,0.775,0.785,1.146,1.337c0.371,0.553,0.557,1.087,0.557,1.607c0,0.52-0.011,0.966-0.031,1.337
		c-0.021,0.372-0.069,0.812-0.144,1.321c-0.074,0.51-0.19,0.934-0.35,1.271C102.239,29.595,102.032,29.924,101.778,30.243z"/>
	<path display="inline" fill="#02458B" d="M113.843,30.751c-1.634,0.36-2.774,0.541-3.421,0.541c-0.648,0-1.146-0.015-1.497-0.047
		s-0.668-0.117-0.956-0.255c-0.285-0.137-0.535-0.254-0.748-0.35c-0.212-0.097-0.402-0.287-0.572-0.574
		c-0.172-0.286-0.31-0.521-0.416-0.7c-0.105-0.181-0.189-0.494-0.254-0.939c-0.063-0.446-0.117-0.806-0.16-1.083
		c-0.041-0.275-0.073-0.727-0.096-1.353c-0.021-0.625-0.031-1.13-0.031-1.513v-3.598c0-1.4,0.031-2.309,0.096-2.722
		c0.062-0.414,0.127-0.854,0.189-1.322c0.064-0.466,0.149-0.8,0.256-1.002c0.105-0.202,0.244-0.451,0.414-0.748
		s0.36-0.504,0.574-0.621c0.211-0.117,0.461-0.244,0.747-0.382c0.287-0.138,0.605-0.228,0.956-0.271
		c0.35-0.042,0.748-0.063,1.193-0.063s0.849,0.032,1.209,0.096c0.361,0.063,0.664,0.19,0.908,0.382
		c0.244,0.191,0.457,0.371,0.637,0.541s0.329,0.445,0.445,0.829c0.117,0.381,0.207,0.705,0.271,0.971s0.112,0.68,0.144,1.24
		c0.031,0.563,0.047,1.015,0.047,1.354v1.654l0.13,1.721l-6.494,0.158l0.127,0.797c0,2.716,0.104,4.287,0.317,4.711
		c0.34,0.699,0.732,1.104,1.179,1.21c0.297,0.085,0.875,0.127,1.735,0.127c0.858,0,1.883-0.14,3.07-0.415L113.843,30.751
		L113.843,30.751L113.843,30.751z M107.73,18.463c0,0.382,0,0.956,0,1.719l-0.127,0.797h4.521l-0.159-0.83
		c0-1.696-0.116-2.906-0.35-3.629c-0.234-0.721-0.759-1.082-1.576-1.082s-1.396,0.218-1.735,0.652
		C107.964,16.527,107.773,17.316,107.73,18.463z"/>
	<path display="inline" fill="#02458B" d="M117.631,31.07h-0.699V8.119l5.156-0.35c6.207,0,6.207,2.546,6.207,6.494
		c0,3.917-0.062,6.43-6.175,6.43h-2.196v8.435C119.923,31.07,119.923,31.07,117.631,31.07z M122.119,17.859
		c3.087,0,3.087-1.019,3.087-3.596c0-2.61,0-3.661-3.087-3.661h-2.451l0.255,0.796v5.73l-0.255,0.731H122.119z"/>
	<path display="inline" fill="#02458B" d="M134.312,29.16c0,1.91,0,1.91-2.834,1.91V8.151c2.801,0,2.801,0,2.801,1.942v4.52
		l2.481-0.859c4.616,0,4.616,2.546,4.616,8.85v8.467c-2.866,0-2.866,0-2.866-1.909V22.57c0-3.881,0-6.047-1.558-6.11l-2.932,0.858
		l0.289,0.893V29.16H134.312z"/>
	<path display="inline" fill="#02458B" d="M148.988,13.754c4.933,0,4.933,2.387,4.933,8.689s-0.03,8.85-4.933,8.85
		c-4.872,0-4.902-2.516-4.902-8.85C144.085,16.109,144.116,13.754,148.988,13.754z M146.917,22.443c0,4.394,0,6.144,2.069,6.144
		c2.068,0,2.068-1.75,2.068-6.144c0-4.328,0-5.984-2.068-5.984C146.917,16.459,146.917,18.115,146.917,22.443z"/>
	<path display="inline" fill="#02458B" d="M159.62,31.07c-2.832,0-2.832,0-2.832-1.91V13.977c2.291,0,2.771,0,2.832,0.668
		l2.354-0.891c4.521,0,4.68,0.955,4.68,8.85v8.467c-2.864,0-2.864,0-2.864-1.909V22.57c0-5.125,0.317-6.047-1.529-6.11l-2.928,0.858
		l0.287,0.893V31.07L159.62,31.07z"/>
	<path display="inline" fill="#02458B" d="M171.973,22.953l0.256,0.732c0,3.852,0,4.9,2.101,4.9c1.562,0,2.834-0.095,4.394-0.316
		v2.48c-1.56,0.287-2.802,0.541-4.394,0.541c-4.838,0-4.935-2.354-4.935-8.021c0-6.972-0.351-9.519,4.935-9.519
		c4.139,0,4.457,2.929,4.489,6.875l0.095,2.165L171.973,22.953z M172.132,20.215h4.17l-0.317-0.701
		c-0.032-2.164-0.223-3.056-1.655-3.056c-1.75,0-1.938,0.573-1.938,3.056L172.132,20.215z"/>
	<path display="inline" fill="#121212" d="M189.991,31.07h-7.927V8.149h0.254c0.912,0,1.447,0.063,1.606,0.191
		c0.158,0.127,0.24,0.552,0.24,1.273v18.846l-0.129,0.796h4.106c0.912,0,1.446,0.063,1.606,0.19
		c0.158,0.128,0.237,0.553,0.237,1.272v0.353H189.991z"/>
	<path display="inline" fill="#121212" d="M198.777,30.927c-0.299,0.097-0.446,0.144-0.446,0.144s-0.187,0.037-0.558,0.111
		c-0.373,0.074-0.815,0.111-1.338,0.111c-0.521,0-0.985-0.031-1.399-0.095c-0.414-0.064-0.772-0.201-1.08-0.414
		c-0.312-0.212-0.563-0.409-0.767-0.589c-0.205-0.18-0.371-0.504-0.51-0.973c-0.14-0.467-0.242-0.858-0.318-1.178
		c-0.075-0.316-0.127-0.844-0.159-1.576c-0.029-0.73-0.054-1.33-0.062-1.798c-0.014-0.467-0.018-1.209-0.018-2.229
		c0-1.02,0.004-1.756,0.018-2.213c0.01-0.455,0.031-1.049,0.062-1.783c0.032-0.731,0.084-1.252,0.159-1.56
		c0.076-0.307,0.181-0.688,0.318-1.146c0.139-0.456,0.307-0.769,0.51-0.939c0.201-0.169,0.461-0.35,0.778-0.542
		c0.488-0.339,1.152-0.509,1.99-0.509s1.44,0.037,1.813,0.111c0.371,0.075,0.705,0.154,1.004,0.239
		c0.295,0.085,0.552,0.26,0.765,0.525c0.211,0.266,0.392,0.488,0.541,0.668c0.147,0.182,0.267,0.5,0.351,0.955
		c0.084,0.457,0.153,0.828,0.207,1.113c0.053,0.287,0.096,0.771,0.127,1.449c0.03,0.681,0.047,1.231,0.047,1.656v1.975v0.127v1.941
		c0,1.443-0.041,2.395-0.127,2.85c-0.084,0.457-0.17,0.918-0.254,1.386c-0.084,0.467-0.201,0.791-0.351,0.971
		c-0.149,0.181-0.33,0.403-0.541,0.668C199.329,30.65,199.073,30.832,198.777,30.927z M198.938,23.175v-1.082
		c0-2.78-0.117-4.53-0.353-5.253c-0.338-0.912-1.037-1.379-2.099-1.4c-0.87,0-1.457,0.224-1.754,0.668
		c-0.17,0.299-0.308,0.574-0.412,0.828s-0.182,0.7-0.225,1.338c-0.062,0.934-0.095,1.836-0.095,2.705c0,0.871,0,1.746,0,2.627
		s0.008,1.641,0.031,2.275c0.021,0.637,0.11,1.311,0.271,2.021c0.159,0.712,0.407,1.174,0.747,1.386
		c0.343,0.212,0.767,0.317,1.275,0.317c0.508,0,0.899-0.047,1.178-0.144c0.272-0.096,0.504-0.274,0.685-0.541
		c0.181-0.265,0.317-0.528,0.414-0.796c0.094-0.266,0.164-0.686,0.207-1.257C198.896,26.04,198.938,24.811,198.938,23.175z"/>
	<path display="inline" fill="#121212" d="M210.046,30.927c-0.297,0.097-0.444,0.144-0.444,0.144s-0.188,0.037-0.558,0.111
		c-0.373,0.074-0.815,0.111-1.338,0.111c-0.521,0-0.985-0.031-1.401-0.095c-0.412-0.063-0.772-0.201-1.08-0.414
		c-0.31-0.212-0.562-0.409-0.765-0.589s-0.371-0.504-0.512-0.973c-0.138-0.467-0.242-0.858-0.316-1.178
		c-0.075-0.316-0.127-0.844-0.159-1.576c-0.031-0.73-0.054-1.33-0.062-1.798c-0.013-0.467-0.017-1.209-0.017-2.229
		c0-1.02,0.004-1.756,0.017-2.213c0.01-0.455,0.03-1.049,0.062-1.783c0.032-0.731,0.084-1.252,0.159-1.56
		c0.074-0.307,0.181-0.688,0.316-1.146c0.141-0.456,0.309-0.769,0.512-0.939c0.201-0.169,0.461-0.35,0.778-0.542
		c0.488-0.339,1.15-0.509,1.988-0.509c0.84,0,1.442,0.037,1.815,0.111c0.369,0.075,0.705,0.154,1.002,0.239s0.554,0.26,0.767,0.525
		c0.211,0.266,0.392,0.488,0.541,0.668c0.146,0.182,0.265,0.5,0.349,0.955c0.084,0.457,0.153,0.828,0.207,1.113
		c0.053,0.287,0.098,0.771,0.129,1.449c0.03,0.681,0.047,1.231,0.047,1.656v1.975v0.127v1.941c0,1.443-0.041,2.395-0.127,2.85
		c-0.086,0.457-0.172,0.918-0.256,1.386c-0.084,0.467-0.201,0.791-0.349,0.971c-0.149,0.181-0.33,0.403-0.541,0.668
		C210.6,30.65,210.343,30.832,210.046,30.927z M210.206,23.175v-1.082c0-2.78-0.117-4.53-0.353-5.253
		c-0.338-0.912-1.039-1.379-2.101-1.4c-0.871,0-1.455,0.224-1.752,0.668c-0.17,0.299-0.308,0.574-0.414,0.828
		c-0.104,0.254-0.18,0.7-0.224,1.338c-0.063,0.934-0.094,1.836-0.094,2.705c0,0.871,0,1.746,0,2.627s0.008,1.641,0.028,2.275
		c0.022,0.637,0.111,1.311,0.271,2.021c0.16,0.712,0.408,1.174,0.748,1.386c0.342,0.212,0.768,0.317,1.275,0.317
		s0.9-0.047,1.178-0.144c0.273-0.096,0.502-0.274,0.686-0.541c0.178-0.265,0.316-0.528,0.414-0.796
		c0.094-0.266,0.164-0.686,0.205-1.257C210.163,26.04,210.206,24.811,210.206,23.175z"/>
	<path display="inline" fill="#121212" d="M215.458,29.605V7.767c0.935,0,1.479,0.064,1.642,0.191
		c0.157,0.127,0.237,0.552,0.237,1.273V31.07c-0.935,0-1.479-0.063-1.64-0.191C215.538,30.751,215.458,30.328,215.458,29.605z
		 M224.055,31.07h-2.068l-4.269-9.327l3.82-7.768h1.94l-3.851,7.768L224.055,31.07z"/>
	<path display="inline" fill="#121212" d="M226.124,22.443v-8.468c0.933,0,1.479,0.058,1.637,0.175c0.16,0.117,0.24,0.546,0.24,1.29
		v6.939c0,2.462,0.067,4.145,0.207,5.046c0.138,0.902,0.351,1.491,0.635,1.767c0.289,0.276,0.675,0.414,1.162,0.414l3.152-1.463
		l-0.158-0.797v-13.37c0.935,0,1.479,0.058,1.64,0.175c0.158,0.117,0.237,0.546,0.237,1.289V31.07c-0.935,0-1.479-0.053-1.64-0.159
		c-0.159-0.106-0.237-0.478-0.237-1.114l-2.865,1.496c-1.338,0-2.389-0.414-3.151-1.241c-0.485-0.552-0.765-1.952-0.828-4.202
		C226.132,25.148,226.124,24.014,226.124,22.443z"/>
	<path display="inline" fill="#121212" d="M238.062,35.973V13.975c0.912,0,1.445,0.026,1.605,0.079
		c0.158,0.053,0.234,0.239,0.234,0.557l2.551-0.859c1.482,0,2.578,0.446,3.275,1.337c0.574,0.722,0.914,2.134,1.021,4.234
		c0.043,0.807,0.062,1.846,0.062,3.12c0,1.272-0.016,2.274-0.047,3.008c-0.035,0.732-0.102,1.464-0.207,2.197
		c-0.107,0.73-0.256,1.295-0.447,1.687c-0.189,0.394-0.443,0.759-0.764,1.099c-0.596,0.573-1.602,0.858-3.023,0.858l-2.422-1.464
		v7.607c-0.91,0-1.445-0.062-1.605-0.189C238.141,37.119,238.062,36.693,238.062,35.973z M244.443,28.125
		c0.328-0.986,0.492-2.796,0.492-5.428c0-2.633-0.17-4.5-0.511-5.604c-0.338-1.104-1.049-1.655-2.133-1.655l-2.481,0.795
		l0.127,0.795v10.347l-0.158,0.796l2.482,1.434C243.389,29.605,244.113,29.111,244.443,28.125z"/>
</g>
<g id="bv_logo_color_gray">
	
		<linearGradient id="SVGID_1_" gradientUnits="userSpaceOnUse" x1="15.5737" y1="594.876" x2="15.5737" y2="570.9862" gradientTransform="matrix(1 0 0 1 0 -571)">
		<stop  offset="0" style="stop-color:#68A542"/>
		<stop  offset="1" style="stop-color:#74B64A"/>
	</linearGradient>
	<path fill="url(#SVGID_1_)" d="M15.574,0.5C7.33,0.5,0.649,7.181,0.649,15.423c0,5.634,3.125,10.538,7.733,13.077l-0.667-9.072
		c0-1.397,1.175-2.531,2.624-2.531h10.468c1.45,0,2.624,1.134,2.624,2.531L22.767,28.5c4.608-2.539,7.732-7.441,7.732-13.077
		C30.498,7.182,23.816,0.5,15.574,0.5z M15.574,15.823c-3.489,0-6.318-2.83-6.318-6.318c0-3.489,2.829-6.319,6.318-6.319
		c3.49,0,6.319,2.83,6.319,6.319C21.893,12.993,19.063,15.823,15.574,15.823z"/>
	<path fill="#303030" d="M34.675,6.322c0-0.865,0.423-1.536,1.419-1.536h4.677c3.802,0,5.794,2.848,5.794,5.441
		c0,2.496-1.237,4.416-2.987,4.991v0.064c2.596,0.288,4.647,2.622,4.647,5.631c0,3.585-2.504,6.655-7.032,6.655h-5.1
		c-0.996,0-1.419-0.672-1.419-1.535L34.675,6.322L34.675,6.322z M37.331,14.419h3.017c2.264,0,3.562-1.601,3.562-3.68
		c0-2.048-1.117-3.521-3.47-3.521h-3.109V14.419z M37.331,25.139h3.743c2.594,0,4.495-1.695,4.495-4.225
		c0-2.336-1.6-4.189-4.376-4.189h-3.862V25.139L37.331,25.139z"/>
	<path fill="#303030" d="M51.73,20.146c0,2.912,1.749,5.185,4.737,5.185c3.531,0,4.436-2.306,5.432-2.306
		c0.483,0,0.966,0.447,0.966,1.248c0,1.377-3.289,3.486-6.427,3.486c-5.13,0-7.364-4.191-7.364-8.703
		c0-4.606,2.716-8.703,7.213-8.703c4.375,0,6.909,4.191,6.909,8.289c0,0.991-0.332,1.504-1.479,1.504H51.73z M60.542,18.033
		c0-2.432-1.327-5.247-4.254-5.247c-3.291-0.128-4.467,2.655-4.557,5.247H60.542z"/>
	<path fill="#303030" d="M66.583,20.146c0,2.912,1.75,5.185,4.738,5.185c3.531,0,4.436-2.306,5.432-2.306
		c0.482,0,0.965,0.447,0.965,1.248c0,1.377-3.29,3.486-6.428,3.486c-5.129,0-7.362-4.191-7.362-8.703
		c0-4.606,2.714-8.703,7.212-8.703c4.375,0,6.911,4.191,6.911,8.289c0,0.991-0.333,1.504-1.479,1.504H66.583z M75.396,18.033
		c0-2.432-1.329-5.247-4.255-5.247c-3.29-0.128-4.466,2.655-4.557,5.247H75.396z"/>
	<path fill="#303030" d="M79.327,11.858c0-0.928,0.513-1.504,1.328-1.504c0.815,0,1.328,0.576,1.328,1.504v0.673l0.059,0.063
		c1.176-1.601,2.838-2.241,4.437-2.241c2.474,0,5.582,1.664,5.582,6.464v9.44c0,0.927-0.511,1.503-1.327,1.503
		c-0.814,0-1.328-0.576-1.328-1.503v-9.28c0-2.977-1.96-4.191-3.71-4.191s-3.711,1.215-3.711,4.191v9.28
		c0,0.927-0.514,1.503-1.328,1.503c-0.814,0-1.328-0.576-1.328-1.503V11.858H79.327z"/>
	
		<linearGradient id="SVGID_2_" gradientUnits="userSpaceOnUse" x1="101.0669" y1="598.2207" x2="101.0669" y2="574.5021" gradientTransform="matrix(1 0 0 1 0 -571)">
		<stop  offset="0" style="stop-color:#68A542"/>
		<stop  offset="1" style="stop-color:#74B64A"/>
	</linearGradient>
	<path fill="url(#SVGID_2_)" d="M92.225,8.083c-0.151-0.416-0.211-0.736-0.211-1.185c0-1.344,1.116-2.304,2.323-2.304
		c1.025,0,1.66,0.705,2.053,1.568l4.678,13.312l4.675-13.312c0.395-0.863,1.025-1.568,2.053-1.568c1.207,0,2.324,0.96,2.324,2.304
		c0,0.448-0.062,0.769-0.209,1.185l-6.61,17.824c-0.396,1.024-0.905,1.854-2.233,1.854c-1.33,0-1.842-0.83-2.234-1.854L92.225,8.083
		z"/>
	
		<linearGradient id="SVGID_3_" gradientUnits="userSpaceOnUse" x1="115.6025" y1="598.2207" x2="115.6025" y2="574.504" gradientTransform="matrix(1 0 0 1 0 -571)">
		<stop  offset="0" style="stop-color:#68A542"/>
		<stop  offset="1" style="stop-color:#74B64A"/>
	</linearGradient>
	<path fill="url(#SVGID_3_)" d="M112.238,20.593c0.303,2.273,2.082,3.33,4.104,3.33c2.236,0,3.773-1.856,4.92-1.856
		c0.936,0,1.781,0.992,1.781,1.983c0,1.984-3.863,3.904-7.092,3.904c-4.889,0-8.148-3.776-8.148-8.864
		c0-4.671,3.201-8.927,7.785-8.927c4.709,0,7.814,4.544,7.814,8.384c0,1.376-0.57,2.046-1.898,2.046H112.238L112.238,20.593z
		 M119.059,17.521c-0.24-2.016-1.447-3.52-3.471-3.52c-1.93,0-3.229,1.568-3.439,3.52H119.059z"/>
	
		<linearGradient id="SVGID_4_" gradientUnits="userSpaceOnUse" x1="129.6621" y1="598.2217" x2="129.6621" y2="574.503" gradientTransform="matrix(1 0 0 1 0 -571)">
		<stop  offset="0" style="stop-color:#68A542"/>
		<stop  offset="1" style="stop-color:#74B64A"/>
	</linearGradient>
	<path fill="url(#SVGID_4_)" d="M124.879,12.659c0-1.537,1.148-2.304,2.236-2.304c1.145,0,2.109,0.448,2.109,1.92h0.061
		c0.814-1.28,1.689-1.92,3.049-1.92c1.057,0,2.111,0.8,2.111,2.463c0,1.505-1.297,1.601-2.596,2.24
		c-1.297,0.641-2.625,1.248-2.625,3.072v7.071c0,1.536-0.904,2.562-2.172,2.562s-2.174-1.024-2.174-2.562V12.659L124.879,12.659z"/>
	
		<linearGradient id="SVGID_5_" gradientUnits="userSpaceOnUse" x1="137.1016" y1="598.2217" x2="137.1016" y2="574.5025" gradientTransform="matrix(1 0 0 1 0 -571)">
		<stop  offset="0" style="stop-color:#68A542"/>
		<stop  offset="1" style="stop-color:#74B64A"/>
	</linearGradient>
	<path fill="url(#SVGID_5_)" d="M139.545,5.97c0,1.44-1.084,2.656-2.443,2.656c-1.297,0-2.443-1.249-2.443-2.656
		c0-1.312,1.146-2.527,2.443-2.527S139.545,4.626,139.545,5.97z M134.93,12.914c0-1.536,0.904-2.56,2.172-2.56
		s2.172,1.024,2.172,2.56v12.288c0,1.536-0.904,2.562-2.172,2.562s-2.172-1.024-2.172-2.562V12.914z"/>
	
		<linearGradient id="SVGID_6_" gradientUnits="userSpaceOnUse" x1="145.2021" y1="598.2207" x2="145.2021" y2="574.5019" gradientTransform="matrix(1 0 0 1 0 -571)">
		<stop  offset="0" style="stop-color:#68A542"/>
		<stop  offset="1" style="stop-color:#74B64A"/>
	</linearGradient>
	<path fill="url(#SVGID_6_)" d="M142.684,14.578h-0.967c-1.176,0-1.902-0.768-1.902-2.016c0-1.151,0.816-2.016,1.902-2.016h0.967
		V8.179c0-3.392,1.902-5.248,4.559-5.248c1.537,0,3.018,0.479,3.018,2.081c0,1.343-0.574,1.951-1.781,1.951
		c-0.727,0-1.449,0-1.449,1.696v1.889h1.357c1.299,0,2.203,0.543,2.203,2.017c0,1.439-0.936,2.015-2.203,2.015h-1.357v10.624
		c0,1.535-0.904,2.561-2.174,2.561c-1.266,0-2.172-1.024-2.172-2.561V14.578L142.684,14.578z"/>
	
		<linearGradient id="SVGID_7_" gradientUnits="userSpaceOnUse" x1="153.5693" y1="598.2217" x2="153.5693" y2="574.5025" gradientTransform="matrix(1 0 0 1 0 -571)">
		<stop  offset="0" style="stop-color:#68A542"/>
		<stop  offset="1" style="stop-color:#74B64A"/>
	</linearGradient>
	<path fill="url(#SVGID_7_)" d="M156.014,5.97c0,1.44-1.084,2.656-2.443,2.656c-1.297,0-2.445-1.249-2.445-2.656
		c0-1.312,1.148-2.527,2.445-2.527C154.865,3.443,156.014,4.626,156.014,5.97z M151.395,12.914c0-1.536,0.906-2.56,2.176-2.56
		c1.266,0,2.172,1.024,2.172,2.56v12.288c0,1.536-0.906,2.562-2.172,2.562c-1.27,0-2.176-1.024-2.176-2.562V12.914L151.395,12.914z"
		/>
	
		<linearGradient id="SVGID_8_" gradientUnits="userSpaceOnUse" x1="165.0195" y1="598.2207" x2="165.0195" y2="574.504" gradientTransform="matrix(1 0 0 1 0 -571)">
		<stop  offset="0" style="stop-color:#68A542"/>
		<stop  offset="1" style="stop-color:#74B64A"/>
	</linearGradient>
	<path fill="url(#SVGID_8_)" d="M161.654,20.593c0.305,2.273,2.082,3.33,4.105,3.33c2.234,0,3.773-1.856,4.918-1.856
		c0.939,0,1.781,0.992,1.781,1.983c0,1.984-3.861,3.904-7.092,3.904c-4.889,0-8.148-3.776-8.148-8.864
		c0-4.671,3.201-8.927,7.789-8.927c4.705,0,7.812,4.544,7.812,8.384c0,1.376-0.572,2.046-1.9,2.046H161.654L161.654,20.593z
		 M168.475,17.521c-0.24-2.016-1.447-3.52-3.467-3.52c-1.934,0-3.232,1.568-3.443,3.52H168.475z"/>
	<path fill="#303030" d="M195.488,27.345c0-0.405,0.33-0.735,0.736-0.735c0.404,0,0.736,0.33,0.736,0.735s-0.33,0.735-0.736,0.735
		S195.488,27.75,195.488,27.345z"/>
	<path fill="#303030" d="M193.229,22.32c0,0.338-0.266,0.642-0.266,1.074c0,0.771,0.688,1.142,1.387,1.142
		c0.668,0,1.363-0.406,1.363-1.142c0-0.338-0.281-0.85-0.281-1.01c0-0.318,0.275-0.584,0.594-0.584c0.699,0,0.936,1.17,0.936,1.657
		c0,1.463-1.197,2.433-2.611,2.433c-1.379,0-2.633-0.998-2.633-2.433c0-0.536,0.199-1.657,0.859-1.657
		C192.857,21.802,193.229,22,193.229,22.32z"/>
	<path fill="#303030" d="M194.35,16.665c1.414,0,2.611,0.971,2.611,2.433c0,1.461-1.197,2.433-2.611,2.433
		c-1.377,0-2.631-1.001-2.631-2.433C191.719,17.665,192.973,16.665,194.35,16.665z M194.35,20.171c0.648,0,1.365-0.341,1.365-1.073
		c0-0.736-0.717-1.074-1.365-1.074c-0.652,0-1.387,0.328-1.387,1.074C192.963,19.842,193.695,20.171,194.35,20.171z"/>
	<path fill="#303030" d="M192.529,16.089c-0.453,0-0.754-0.28-0.754-0.678c0-0.349,0.188-0.575,0.51-0.623
		c-0.357-0.33-0.566-0.763-0.566-1.263c0-0.565,0.236-1.046,0.689-1.404c-0.434-0.377-0.689-0.971-0.689-1.434
		c0-1.103,0.641-1.856,1.828-1.856h2.604c0.451,0,0.752,0.282,0.752,0.679c0,0.396-0.301,0.678-0.752,0.678h-2.365
		c-0.549,0-0.936,0.301-0.936,0.792c0,0.5,0.387,0.801,0.936,0.801h2.365c0.451,0,0.752,0.283,0.752,0.679
		c0,0.396-0.301,0.679-0.752,0.679h-2.365c-0.549,0-0.936,0.303-0.936,0.793c0,0.555,0.387,0.801,0.936,0.801h2.365
		c0.451,0,0.752,0.283,0.752,0.679c0,0.397-0.301,0.678-0.752,0.678H192.529L192.529,16.089z"/>
	
		<linearGradient id="SVGID_9_" gradientUnits="userSpaceOnUse" x1="17.562" y1="598.0586" x2="17.562" y2="590.8365" gradientTransform="matrix(1 0 0 1 0 -571)">
		<stop  offset="0" style="stop-color:#68A542"/>
		<stop  offset="1" style="stop-color:#74B64A"/>
	</linearGradient>
	<polygon fill="url(#SVGID_9_)" points="19.292,24.424 21.937,22.511 18.57,22.511 17.562,19.839 16.555,22.511 13.188,22.511 
		15.833,24.424 14.537,27.857 17.562,25.674 20.586,27.857 	"/>
	
		<linearGradient id="SVGID_10_" gradientUnits="userSpaceOnUse" x1="181.4648" y1="598.2217" x2="181.4648" y2="574.5028" gradientTransform="matrix(1 0 0 1 0 -571)">
		<stop  offset="0" style="stop-color:#68A542"/>
		<stop  offset="1" style="stop-color:#74B64A"/>
	</linearGradient>
	<path fill="url(#SVGID_10_)" d="M187.031,2.931c-1.266,0-2.172,1.024-2.172,2.56v6.273c-1.148-1.057-2.625-1.601-4.135-1.601
		c-4.678,0-7,4.64-7,9.12c0,4.353,2.777,8.672,7.152,8.672c1.477,0,3.168-0.704,3.982-2.111c0.271,1.217,0.965,1.918,2.17,1.918
		c1.27,0,2.176-1.022,2.176-2.559V5.49C189.205,3.955,188.301,2.931,187.031,2.931z M183.348,19.227l1.42,3.768l-3.314-2.398
		l-3.316,2.398l1.42-3.768l-2.898-2.097h3.689l1.105-2.931l1.107,2.931h3.688L183.348,19.227z"/>
	<g>
		<path fill="#303030" d="M200.98,3.45v0.46h-0.777v2.133h-0.545V3.91h-0.777V3.45H200.98z"/>
		<path fill="#303030" d="M203.018,3.45h0.777v2.593h-0.502V4.289c0-0.051,0-0.121,0-0.212c0-0.09,0.002-0.161,0.002-0.209
			l-0.494,2.177h-0.523l-0.488-2.177c0,0.049,0.002,0.121,0.004,0.209c0,0.092,0.002,0.162,0.002,0.212v1.754h-0.506V3.45h0.787
			l0.473,2.039L203.018,3.45z"/>
	</g>
</g>
</svg>
