<?xml version="1.0" encoding="UTF-8"?>
<svg width="45px" height="41px" viewBox="0 0 45 41" version="1.1" xmlns="http://www.w3.org/2000/svg" xmlns:xlink="http://www.w3.org/1999/xlink">
    <!-- Generator: Sketch 46.2 (44496) - http://www.bohemiancoding.com/sketch -->
    <title>TrackRecord</title>
    <desc>Created with Sketch.</desc>
    <defs></defs>
    <g id="Page-1" stroke="none" stroke-width="1" fill="none" fill-rule="evenodd">
        <g id="TF-Modal-BV-Step6" transform="translate(-901.000000, -765.000000)">
            <g id="TrackRecord" transform="translate(901.000000, 765.000000)">
                <path d="M19.4132446,7.40953976 L25.5880272,7.40953976 C26.6685163,7.40953976 27.5445489,6.52482892 27.5445489,5.43363614 C27.5445489,4.34244337 26.6685163,3.45773253 25.5880272,3.45773253 L19.4132446,3.45773253 C18.3327554,3.45773253 17.4567228,4.34244337 17.4567228,5.43363614 C17.4567228,6.52482892 18.3327554,7.40953976 19.4132446,7.40953976 M23.9156902,17.0489855 L3.91319022,17.0489855 L3.91319022,37.048094 L41.0871033,37.048094 L41.0871033,17.0489855 L36.458462,17.0489855 C35.5129728,17.0489855 34.7465054,16.2749253 34.7465054,15.3200699 C34.7465054,14.3652145 35.5129728,13.5911542 36.458462,13.5911542 L41.0871033,13.5911542 L41.0871033,7.40953976 L38.5553641,7.40953976 C37.5335707,7.40953976 36.6213424,6.65523855 36.5235163,5.62826265 C36.4124837,4.44963614 37.3271576,3.45773253 38.4712337,3.45773253 L43.0441141,3.45773253 C44.1246033,3.45773253 45.0001467,4.34244337 45.0001467,5.43314217 L45.0001467,39.0239976 C45.0001467,40.1151904 44.1241141,40.9999012 43.043625,40.9999012 L1.95715761,40.9999012 C0.876668478,40.9999012 0.00014673913,40.1151904 0.00014673913,39.0235036 L0.00014673913,5.61640723 C0.00014673913,4.42938313 0.961777174,3.45773253 2.13764674,3.45773253 L6.44590761,3.45773253 C7.46770109,3.45773253 8.37992935,4.21203373 8.47775543,5.23950361 C8.58878804,6.41813012 7.67411413,7.40953976 6.53003804,7.40953976 L3.91319022,7.40953976 L3.91319022,13.5911542 L23.9156902,13.5911542 C24.8611793,13.5911542 25.6276467,14.3652145 25.6276467,15.3200699 C25.6276467,16.2749253 24.8611793,17.0489855 23.9156902,17.0489855 M31.793625,11.2660096 C33.1441141,11.2660096 34.2392772,10.1595036 34.2392772,8.79613012 L34.2392772,2.46978072 C34.2392772,1.10591325 33.1441141,-9.87951807e-05 31.793625,-9.87951807e-05 C30.4431359,-9.87951807e-05 29.3479728,1.10591325 29.3479728,2.46978072 L29.3479728,8.79613012 C29.3479728,10.1595036 30.4431359,11.2660096 31.793625,11.2660096 M10.7610163,8.79613012 L10.7610163,2.46978072 C10.7610163,1.10591325 11.8561793,-9.87951807e-05 13.2066685,-9.87951807e-05 C14.5571576,-9.87951807e-05 15.6523207,1.10591325 15.6523207,2.46978072 L15.6523207,8.79613012 C15.6523207,10.1595036 14.5571576,11.2660096 13.2066685,11.2660096 C11.8561793,11.2660096 10.7610163,10.1595036 10.7610163,8.79613012" id="Fill-1" fill="#E1C618"></path>
                <polyline id="Stroke-4" stroke="#E1C618" stroke-width="4" stroke-linecap="round" stroke-linejoin="round" points="14.0447935 25.3595867 19.6800652 32.0025747 29.9550109 15.9297795"></polyline>
            </g>
        </g>
    </g>
</svg>