<?xml version="1.0" encoding="UTF-8"?>
<svg width="85px" height="59px" viewBox="0 0 85 59" version="1.1" xmlns="http://www.w3.org/2000/svg" xmlns:xlink="http://www.w3.org/1999/xlink">
    <!-- Generator: Sketch 46.2 (44496) - http://www.bohemiancoding.com/sketch -->
    <title>arrow</title>
    <desc>Created with Sketch.</desc>
    <defs></defs>
    <g id="Page-1" stroke="none" stroke-width="1" fill="none" fill-rule="evenodd">
        <path d="M82.7202,34.3005 C82.7882,34.2165 82.8482,34.1285 82.9132,34.0425 C83.0062,33.9195 83.1002,33.7995 83.1862,33.6715 C83.2582,33.5645 83.3192,33.4525 83.3852,33.3425 C83.4532,33.2295 83.5252,33.1175 83.5882,32.9995 C83.6482,32.8865 83.6992,32.7695 83.7542,32.6545 C83.8122,32.5335 83.8722,32.4145 83.9232,32.2905 C83.9702,32.1785 84.0072,32.0645 84.0472,31.9515 C84.0952,31.8185 84.1462,31.6875 84.1872,31.5505 C84.2212,31.4385 84.2462,31.3235 84.2752,31.2105 C84.3102,31.0715 84.3492,30.9335 84.3772,30.7925 C84.4032,30.6625 84.4172,30.5315 84.4372,30.4005 C84.4552,30.2735 84.4792,30.1475 84.4922,30.0185 C84.5142,29.7865 84.5252,29.5535 84.5272,29.3205 C84.5272,29.2905 84.5322,29.2615 84.5322,29.2315 C84.5322,29.2015 84.5272,29.1735 84.5272,29.1435 C84.5252,28.9095 84.5142,28.6765 84.4922,28.4455 C84.4792,28.3155 84.4552,28.1905 84.4372,28.0625 C84.4172,27.9315 84.4032,27.8005 84.3772,27.6715 C84.3492,27.5295 84.3102,27.3925 84.2752,27.2535 C84.2462,27.1395 84.2212,27.0255 84.1872,26.9125 C84.1462,26.7765 84.0952,26.6455 84.0472,26.5115 C84.0072,26.3985 83.9702,26.2845 83.9232,26.1735 C83.8722,26.0495 83.8122,25.9295 83.7542,25.8095 C83.6992,25.6935 83.6482,25.5765 83.5882,25.4635 C83.5252,25.3455 83.4532,25.2345 83.3852,25.1205 C83.3192,25.0105 83.2582,24.8995 83.1862,24.7925 C83.1002,24.6645 83.0062,24.5435 82.9132,24.4215 C82.8482,24.3355 82.7882,24.2465 82.7202,24.1625 C82.5512,23.9575 82.3732,23.7585 82.1842,23.5715 L60.9572,2.3425 C57.8342,-0.7815 52.7682,-0.7815 49.6432,2.3425 C46.5192,5.4675 46.5192,10.5325 49.6432,13.6565 L57.2192,21.2315 L8.0002,21.2315 C3.5812,21.2315 0.0002,24.8135 0.0002,29.2315 C0.0002,33.6505 3.5812,37.2315 8.0002,37.2315 L57.2182,37.2315 L49.6432,44.8065 C46.5192,47.9305 46.5192,52.9955 49.6432,56.1195 C51.2052,57.6815 53.2532,58.4635 55.3002,58.4635 C57.3472,58.4635 59.3952,57.6815 60.9572,56.1195 L82.1842,34.8925 C82.3732,34.7045 82.5512,34.5065 82.7202,34.3005" id="arrow" fill="#A7A2A9"></path>
    </g>
</svg>