<?xml version="1.0" encoding="UTF-8"?>
<svg width="60px" height="60px" viewBox="0 0 60 60" version="1.1" xmlns="http://www.w3.org/2000/svg" xmlns:xlink="http://www.w3.org/1999/xlink">
    <!-- Generator: Sketch 45.2 (43514) - http://www.bohemiancoding.com/sketch -->
    <title>confirm-icon</title>
    <desc>Created with Sketch.</desc>
    <defs>
        <path d="M49.9998,59.99995 L9.9998,59.99995 C4.4773,59.99995 -0.0002,55.52295 -0.0002,49.99995 L-0.0002,9.99995 C-0.0002,4.47695 4.4773,-5e-05 9.9998,-5e-05 L49.9998,-5e-05 C55.5228,-5e-05 59.9998,4.47695 59.9998,9.99995 L59.9998,49.99995 C59.9998,55.52295 55.5228,59.99995 49.9998,59.99995" id="path-1"></path>
    </defs>
    <g id="Page-1" stroke="none" stroke-width="1" fill="none" fill-rule="evenodd">
        <g id="confirm-icon">
            <g id="Fill-4">
                <mask id="mask-2" fill="white">
                    <use xlink:href="#path-1"></use>
                </mask>
                <use id="Mask" fill="#81B44C" xlink:href="#path-1"></use>
                <path d="M67.7586,99.0185 L13.4426,44.703 L10.5306,30.698 C10.5306,30.698 11.0061,21.2355 21.7561,13.833 C32.5061,6.431 46.1356,15.0455 46.1356,15.0455 L97.5926,68.741 L67.7586,99.0185 Z" fill-opacity="0.09" fill="#000000" mask="url(#mask-2)"></path>
            </g>
            <path d="M29.9998,11.99995 C20.0743,11.99995 11.9998,20.07445 11.9998,29.99995 C11.9998,39.92545 20.0743,47.99995 29.9998,47.99995 C39.9253,47.99995 47.9998,39.92545 47.9998,29.99995 C47.9998,20.07445 39.9253,11.99995 29.9998,11.99995 M29.9998,51.99995 C17.8688,51.99995 7.9998,42.13095 7.9998,29.99995 C7.9998,17.86895 17.8688,7.99995 29.9998,7.99995 C42.1308,7.99995 51.9998,17.86895 51.9998,29.99995 C51.9998,42.13095 42.1308,51.99995 29.9998,51.99995" id="Fill-6" fill="#FFFFFF"></path>
            <path d="M27.117,40.14055 C26.6805,40.14055 26.264,39.95005 25.978,39.61655 L20.2175,32.89205 C19.6785,32.26305 19.752,31.31655 20.3805,30.77705 C21.0105,30.23905 21.9565,30.31105 22.496,30.94055 L26.968,36.16105 L37.3955,20.52705 C37.855,19.83755 38.786,19.65105 39.476,20.11155 C40.165,20.57105 40.351,21.50255 39.8915,22.19155 L28.365,39.47305 C28.1045,39.86355 27.6755,40.10955 27.207,40.13805 C27.177,40.13955 27.147,40.14055 27.117,40.14055" id="Fill-8" fill="#FFFFFF"></path>
        </g>
    </g>
</svg>