<?xml version="1.0" encoding="UTF-8"?>
<svg width="52px" height="44px" viewBox="0 0 52 44" version="1.1" xmlns="http://www.w3.org/2000/svg" xmlns:xlink="http://www.w3.org/1999/xlink">
    <!-- Generator: Sketch 46.2 (44496) - http://www.bohemiancoding.com/sketch -->
    <title>WBV-Users</title>
    <desc>Created with Sketch.</desc>
    <defs></defs>
    <g id="Page-1" stroke="none" stroke-width="1" fill="none" fill-rule="evenodd">
        <g id="TF-Modal-BV-Step6" transform="translate(-897.000000, -467.000000)">
            <g id="WBV-Users" transform="translate(897.000000, 467.000000)">
                <path d="M5.22155728,39.9337931 C7.4484699,37.5729655 12.7751883,34.9435862 17.2259845,33.3894253 L22.0377515,37.4885057 C22.7920039,38.1313103 23.8996544,38.1313103 24.6539068,37.4885057 L29.4651689,33.3894253 C33.9169748,34.9435862 39.2436932,37.5729655 41.4706058,39.9337931 L5.22155728,39.9337931 Z M29.6388388,29.1821149 C28.9749553,28.9686897 28.247965,29.1153563 27.7168583,29.568 L23.3453243,33.2918161 L18.9748,29.568 C18.4436932,29.1153563 17.7172078,28.9686897 17.0528194,29.1821149 C14.225635,30.0853793 0.122528155,34.9476322 0.122528155,41.9567816 C0.122528155,43.073977 1.02672233,43.9797701 2.14194563,43.9797701 L44.5492078,43.9797701 C45.6649359,43.9797701 46.5686252,43.073977 46.5686252,41.9567816 C46.5686252,34.9476322 32.4660233,30.0853793 29.6388388,29.1821149 L29.6388388,29.1821149 Z M23.3453243,4.53149425 C28.6144893,4.53149425 32.9007029,8.85209195 32.9007029,14.1634483 C32.9007029,19.4758161 28.6144893,23.7974253 23.3453243,23.7974253 C18.0776738,23.7974253 13.7914602,19.4758161 13.7914602,14.1634483 C13.7914602,8.85209195 18.0776738,4.53149425 23.3453243,4.53149425 L23.3453243,4.53149425 Z M23.3453243,27.8434023 C30.8414019,27.8434023 36.9395379,21.7066667 36.9395379,14.1634483 C36.9395379,6.62124138 30.8414019,0.485517241 23.3453243,0.485517241 C15.8507612,0.485517241 9.75262524,6.62124138 9.75262524,14.1634483 C9.75262524,21.7066667 15.8507612,27.8434023 23.3453243,27.8434023 L23.3453243,27.8434023 Z" id="Fill-3" fill="#6ECC56"></path>
                <path d="M35.4497126,24.7053425 C35.4497126,23.7277333 36.2403146,22.9352276 37.2167029,22.9352276 L41.6498291,22.9352276 L41.6498291,18.4396414 C41.6498291,17.4620322 42.4414408,16.6695264 43.4168194,16.6695264 C44.3927029,16.6695264 45.1838097,17.4620322 45.1838097,18.4396414 L45.1838097,22.9352276 L50.1233049,22.9352276 C51.0991883,22.9352276 51.8902951,23.7277333 51.8902951,24.7053425 C51.8902951,25.6829517 51.0991883,26.4754575 50.1233049,26.4754575 L45.1838097,26.4754575 L45.1838097,31.2436414 C45.1838097,32.2212506 44.3927029,33.0137563 43.4168194,33.0137563 C42.4414408,33.0137563 41.6498291,32.2212506 41.6498291,31.2436414 L41.6498291,26.4754575 L37.2167029,26.4754575 C36.2403146,26.4754575 35.4497126,25.6829517 35.4497126,24.7053425" id="Fill-6" fill="#64BA4E"></path>
            </g>
        </g>
    </g>
</svg>