<svg version="1.1" id="Layer_1" xmlns="http://www.w3.org/2000/svg" xmlns:xlink="http://www.w3.org/1999/xlink" x="0" y="0" viewBox="0 0 32 32" xml:space="preserve" enable-background="new 0 0 32 32"><style type="text/css">.st0{fill:#3a556a}.st1{fill:#fcd462}.st2{fill:#44c4a1}.st3{fill:#fff}.st4{fill:#27a2db}.st5{fill:#2d93ba}</style><path class="st0" d="M1.83,0.5C1.1,0.5,0.5,1.1,0.5,1.83v28.33c0,0.74,0.6,1.33,1.33,1.33h4.57v-31H1.83z"/><path class="st1" d="M30.83,10.61h-2.57V3.08h2.57c0.37,0,0.68,0.3,0.68,0.68v6.18C31.5,10.31,31.2,10.61,30.83,10.61z"/><path class="st2" d="M30.83,18.14h-2.57v-7.53h2.57c0.37,0,0.68,0.3,0.68,0.68v6.18C31.5,17.83,31.2,18.14,30.83,18.14z"/><path class="st3" d="M30.83,25.66h-2.57v-7.53h2.57c0.37,0,0.68,0.3,0.68,0.68v6.18C31.5,25.36,31.2,25.66,30.83,25.66z"/><path class="st4" d="M26.92,0.5H6.41v31L27.86,0.89C27.62,0.65,27.29,0.5,26.92,0.5z"/><path class="st5" d="M27.86,0.89L6.41,31.5h20.51c0.74,0,1.33-0.6,1.33-1.33V1.83C28.25,1.46,28.1,1.13,27.86,0.89z"/><path class="st3" d="M22.42,19.05c-0.32,0.24-0.65,0.48-0.97,0.69c-0.01,0.01-0.02,0.01-0.03,0.02l3.38,4.97 c0.41-0.33,0.76-0.64,1-0.85c0.17-0.15,0.2-0.41,0.07-0.6l-2.81-4.12C22.92,18.95,22.63,18.9,22.42,19.05z"/><path class="st3" d="M20.52,20.25c-1.36,0.18-2.89-0.53-4.05-1.91c-1.54-1.83-2.1-4.36-1.38-6.08l-3.5-5.15 c-0.87,0.53-1.66,1.12-1.74,1.54c-1,5.28,6.74,17.34,12.1,17.78c0.43,0.04,1.25-0.48,2.06-1.08L20.52,20.25z"/><path class="st3" d="M13.64,6c-0.28,0.14-0.71,0.35-1.17,0.61l3.37,4.96c0,0,0,0,0.01-0.01c0.32-0.22,0.68-0.45,1.02-0.66 c0.22-0.14,0.28-0.43,0.14-0.64l-2.79-4.1C14.09,5.97,13.84,5.9,13.64,6z"/></svg>