<?xml version="1.0" encoding="utf-8"?>
<!-- Generator: Adobe Illustrator 19.2.1, SVG Export Plug-In . SVG Version: 6.00 Build 0)  -->
<svg version="1.1" id="Layer_1" xmlns="http://www.w3.org/2000/svg" xmlns:xlink="http://www.w3.org/1999/xlink" x="0px" y="0px"
	 viewBox="0 0 44 44" style="enable-background:new 0 0 44 44;" xml:space="preserve">
<style type="text/css">
	.st0{fill:#2B95FF;}
	.st1{fill:#FFFFFF;}
</style>
<g>
	<g>
		<circle class="st0" cx="22" cy="22" r="21.5"/>
	</g>
	<g>
		<g>
			<g>
				<path class="st1" d="M35.8,24.4c-1,0-1.8,0.8-1.8,1.8s0.8,1.8,1.8,1.8s1.8-0.8,1.8-1.8C37.6,25.2,36.8,24.4,35.8,24.4z
					 M11.1,15.8L6.4,27.9h3.2l0.6-1.7h4.2l0.6,1.7h3.3l-4.7-12.1L11.1,15.8L11.1,15.8z M11.1,23.7l1.3-4.2l1.3,4.2H11.1z M29.8,27.9
					h2.7V15.8h-2.7V27.9z M23.4,18.5c-3.3,0-4.9,2.6-4.9,4.8s1.6,4.8,4.9,4.8s4.9-2.6,4.9-4.8C28.3,21.1,26.7,18.5,23.4,18.5z
					 M23.4,25.6c-1.2,0-2.2-1-2.2-2.3c0-1.3,1-2.3,2.2-2.3s2.2,1,2.2,2.3S24.6,25.6,23.4,25.6z"/>
			</g>
		</g>
	</g>
</g>
</svg>
