<svg version="1.1" id="Layer_1" xmlns="http://www.w3.org/2000/svg" xmlns:xlink="http://www.w3.org/1999/xlink" x="0" y="0" viewBox="0 0 44 44" xml:space="preserve" enable-background="new 0 0 44 44"><style type="text/css">.st0{fill:#dd4b39}.st1{fill:#fff}</style><path class="st0" d="M22,0.5c11.83,0,21.5,9.67,21.5,21.5S33.83,43.5,22,43.5S0.5,33.82,0.5,22S10.17,0.5,22,0.5z"/><polygon class="st1" points="32.88,18.37 32.88,20.79 35.3,20.79 35.3,23.21 32.88,23.21 32.88,25.63 30.47,25.63 30.47,23.21 28.05,23.21 28.05,20.79 30.47,20.79 30.47,18.37"/><path class="st1" d="M11.12,28.05c-3.22-3.22-3.22-8.87,0.13-12.09c2.42-2.42,5.91-2.96,9-1.75l1.21,0.67l1.34,0.94l-2.15,2.15 l-0.81-0.54c-1.88-1.21-4.57-0.94-6.32,0.81c-2.02,2.02-2.15,5.64,0,7.79c2.02,2.15,5.64,2.15,7.53,0 c0.54-0.54,1.07-1.34,1.21-2.15v-0.27h-4.84v-2.69h7.66l0.13,0.67v1.88c-0.13,1.75-0.81,3.49-2.02,4.7 C19.98,31.27,14.34,31.27,11.12,28.05z"/></svg>