<?xml version="1.0" encoding="utf-8"?>
<!-- Generator: Adobe Illustrator 19.2.1, SVG Export Plug-In . SVG Version: 6.00 Build 0)  -->
<svg version="1.1" id="Layer_1" xmlns="http://www.w3.org/2000/svg" xmlns:xlink="http://www.w3.org/1999/xlink" x="0px" y="0px"
	 viewBox="0 0 44 44" style="enable-background:new 0 0 44 44;" xml:space="preserve">
<style type="text/css">
	.st0{fill:#FFFFFF;}
	.st1{fill:#E1E1E1;}
	.st2{fill:#FBBB00;}
	.st3{fill:#518EF8;}
	.st4{fill:#28B446;}
	.st5{fill:#F14336;}
</style>
<g id="rect2990-1">
	<path class="st0" d="M22,43C10.4,43,1,33.6,1,22C1,10.4,10.4,1,22,1c11.6,0,21,9.4,21,21C43,33.6,33.6,43,22,43z"/>
	<path class="st1" d="M22,1.5c11.3,0,20.5,9.2,20.5,20.5S33.3,42.5,22,42.5S1.5,33.3,1.5,22S10.7,1.5,22,1.5 M22,0.5
		C10.1,0.5,0.5,10.1,0.5,22S10.1,43.5,22,43.5S43.5,33.9,43.5,22S33.9,0.5,22,0.5L22,0.5z"/>
</g>
<g>
	<path class="st2" d="M13.6,25.1l-1,3.9l-3.8,0.1C7.6,27,7,24.6,7,22c0-2.5,0.6-4.8,1.7-6.9h0l3.4,0.6l1.5,3.4
		C13.3,20,13.1,21,13.1,22C13.1,23.1,13.3,24.2,13.6,25.1z"/>
	<path class="st3" d="M36.7,19.2C36.9,20.1,37,21,37,22c0,1.1-0.1,2.1-0.3,3.1c-0.7,3.4-2.6,6.4-5.3,8.6l0,0l-4.3-0.2l-0.6-3.8
		c1.8-1,3.1-2.6,3.8-4.6h-8v-5.9h8.1H36.7L36.7,19.2z"/>
	<path class="st4" d="M31.4,33.7L31.4,33.7C28.8,35.8,25.6,37,22,37c-5.7,0-10.7-3.2-13.2-7.9l4.9-4c1.3,3.4,4.5,5.8,8.4,5.8
		c1.6,0,3.2-0.4,4.5-1.2L31.4,33.7z"/>
	<path class="st5" d="M31.6,10.5l-4.9,4c-1.4-0.9-3-1.3-4.7-1.3c-3.9,0-7.2,2.5-8.4,6l-4.9-4h0C11.2,10.3,16.2,7,22,7
		C25.6,7,29,8.3,31.6,10.5z"/>
</g>
</svg>
