<?xml version="1.0" encoding="utf-8"?>
<!-- Generator: Adobe Illustrator 19.2.1, SVG Export Plug-In . SVG Version: 6.00 Build 0)  -->
<svg version="1.1" id="Layer_1" xmlns="http://www.w3.org/2000/svg" xmlns:xlink="http://www.w3.org/1999/xlink" x="0px" y="0px"
	 viewBox="0 0 35 35" style="enable-background:new 0 0 35 35;" xml:space="preserve">
<style type="text/css">
	.st0{fill:#00A650;}
	.st1{fill:#F1F3F7;}
	.st2{fill:#0090FF;}
	.st3{fill:#0086E0;}
	.st4{fill:#039F4E;}
	.st5{fill:#FBD303;}
	.st6{fill:#F0582F;}
</style>
<g>
	<path class="st0" d="M22.77,1.35c-8.91-2.9-18.5,1.97-21.42,10.89c-0.23,0.7-0.41,1.4-0.54,2.1l15.29,5L31.25,7.53
		C29.22,4.72,26.32,2.51,22.77,1.35z"/>
	<path class="st1" d="M33.65,22.78c1.76-5.39,0.68-11-2.4-15.25L16.1,19.34l16.74,5.48C33.13,24.16,33.4,23.48,33.65,22.78z"/>
	<path class="st2" d="M0.8,14.34c-1.59,8.28,3.19,16.63,11.4,19.3c8.21,2.69,16.99-1.24,20.61-8.85L0.8,14.34z"/>
	<path class="st3" d="M25.1,28.5l-5.31-1.74l1.83-5.61l-1.52-0.5l-2.65,8.12l-9.23-3.01l0.79-2.4l0.25-0.75l1.63-4.98l-1.52-0.5
		L8,21.35l-7.42-2.42c0.04,0.59,0.13,1.18,0.25,1.74l6.7,2.19l-1.04,3.14l-0.25,0.75l-0.86,2.62c0.41,0.41,0.84,0.81,1.29,1.18
		l1.09-3.3l5.52,1.81l-1.45,4.43c0.13,0.04,0.3,0.11,0.43,0.16c0.36,0.11,0.73,0.23,1.09,0.32l1.45-4.41l3.73,1.22l0.81-2.51
		l3.05,0.99l-1.61,4.91c0.61-0.11,1.22-0.27,1.81-0.47l1.29-3.96l2.26,0.75l2.33-7.12l-1.52-0.5L25.1,28.5z"/>
	<path class="st4" d="M3.13,8.46c-0.3,0.45-0.54,0.93-0.79,1.4l18.62,6.08l0.5-1.52l-8.6-2.81l1.72-5.29l13.39,4.39l0.5-1.52
		l-6.37-2.07l1.74-5.36c-0.34-0.13-0.7-0.27-1.06-0.39c-0.13-0.04-0.3-0.09-0.43-0.13l-1.76,5.39L8.95,2.83
		c-0.59,0.34-1.13,0.7-1.67,1.11l5.79,1.9l-1.72,5.29L3.13,8.46z"/>
	<path class="st5" d="M17.93,19.11L31.77,8.32c-0.16-0.27-0.34-0.52-0.52-0.77C31.12,7.37,31,7.21,30.87,7.03L16.1,18.5L0.98,13.57
		c-0.07,0.25-0.11,0.52-0.16,0.77c-0.04,0.27-0.09,0.52-0.13,0.79l31.78,10.38c0.13-0.23,0.25-0.47,0.36-0.73
		c0.11-0.25,0.23-0.47,0.32-0.73L17.93,19.11z"/>
	<path class="st6" d="M16.64,9.25c0,3.05-5.52,12.31-5.52,12.31S5.6,12.3,5.6,9.25s2.47-5.52,5.52-5.52S16.64,6.2,16.64,9.25z"/>
	<circle class="st5" cx="11.12" cy="9.25" r="2.74"/>
</g>
</svg>
