<?xml version="1.0" encoding="utf-8"?>
<!-- Generator: Adobe Illustrator 19.2.1, SVG Export Plug-In . SVG Version: 6.00 Build 0)  -->
<svg version="1.1" id="Layer_1" xmlns="http://www.w3.org/2000/svg" xmlns:xlink="http://www.w3.org/1999/xlink" x="0px" y="0px"
	 viewBox="0 0 86 86" style="enable-background:new 0 0 86 86;" xml:space="preserve">
<style type="text/css">
	.st0{opacity:0.1;fill:#7E6F9C;}
	.st1{fill:#796998;}
	.st2{fill:#F5C210;}
</style>
<circle class="st0" cx="43" cy="43" r="42.5"/>
<g>
	<path class="st1" d="M51.4,54.8l-7.3-3.6c-0.7-0.3-1.1-1-1.1-1.8v-2.6c0.2-0.2,0.4-0.5,0.6-0.7c0.9-1.3,1.7-2.8,2.3-4.4
		c1.1-0.5,1.8-1.6,1.8-2.8v-3.1c0-0.7-0.3-1.4-0.8-2v-4.1c0-0.4,0.2-2.9-1.6-5c-1.6-1.8-4.1-2.7-7.6-2.7c-3.5,0-6,0.9-7.6,2.7
		c-1.8,2.1-1.6,4.6-1.6,5v4.1c-0.5,0.6-0.8,1.3-0.8,2v3.1c0,0.9,0.4,1.8,1.1,2.4c0.7,2.8,2.2,4.9,2.7,5.5v2.5c0,0.7-0.4,1.4-1.1,1.8
		l-6.8,3.7c-2.2,1.2-3.6,3.5-3.6,6V64h35.3v-3.1C55.3,58.3,53.8,55.9,51.4,54.8z"/>
	<path class="st2" d="M62.5,55.6l-7.5-3.2c-0.2-0.1-0.4-0.3-0.5-0.6l5,0c0,0,0.3,0,0.7,0c0.8,0,2-0.1,3.1-0.5
		c0.6-0.3,1.1-0.8,1.3-1.5c0.2-0.7,0.1-1.4-0.3-1.9c-1.4-2-4.8-7.3-4.9-12.7c0-0.1-0.3-9.2-9.4-9.3c-0.9,0-1.8,0.1-2.6,0.3
		c0.6,1.6,0.6,3,0.5,3.5v3.6c0.5,0.7,0.8,1.5,0.8,2.4v3.1c0,1.5-0.8,2.8-2,3.6c-0.6,1.5-1.3,3-2.3,4.3c-0.1,0.2-0.2,0.3-0.3,0.5v2.2
		c0,0.3,0.2,0.6,0.5,0.8l7.3,3.6c2.8,1.4,4.5,4.1,4.5,7.2V64H66v-2.8C66,58.8,64.7,56.7,62.5,55.6z"/>
</g>
</svg>
