<svg version="1.1" id="Layer_1" xmlns="http://www.w3.org/2000/svg" xmlns:xlink="http://www.w3.org/1999/xlink" x="0" y="0" viewBox="0 0 63 28" xml:space="preserve" enable-background="new 0 0 63 28"><style type="text/css">.st0{fill:#fff}.st1{fill:#cfcfcf}.st2{fill:#1d1d1b}.st3{fill:#b1b1b1}.st4{fill:#fcc200}</style><g id="Layer_1_1_"><path class="st0" d="M52.2,5.1H12C6.2,5.1,1.5,10,1.5,15.9S6.2,26.8,12,26.8h40.2c5.8,0,10.5-4.9,10.5-10.8S58,5.1,52.2,5.1z M2.3,15.9c0-4,2.3-7.4,5.5-9c-3,1.8-5.1,5.2-5.1,9l0,0c0,3.7,1.9,7,4.7,8.8C4.4,23.1,2.3,19.8,2.3,15.9z"/><path class="st1" d="M52.2,26.8H12c-5.8,0-10.5-4.9-10.5-10.8c0-6,4.7-10.8,10.5-10.8h40.2c5.8,0,10.5,4.9,10.5,10.8 C62.6,21.9,58,26.8,52.2,26.8 M12,5.9c-5.3,0-9.6,4.5-9.6,10s4.3,10,9.6,10h40.2c5.3,0,9.6-4.5,9.6-10s-4.3-10-9.6-10 C52.2,5.9,12,5.9,12,5.9z"/><path class="st2" d="M47.4,9.9c-1.6,0-2.8,1.3-2.8,2.9s1.3,2.9,2.8,2.9c1.6,0,2.8-1.3,2.8-2.9C50.2,11.2,48.9,9.9,47.4,9.9 M47.4,14.3c-0.8,0-1.5-0.7-1.5-1.5c0-0.8,0.7-1.5,1.5-1.5c0.8,0,1.5,0.7,1.5,1.5C48.8,13.6,48.2,14.3,47.4,14.3"/><path class="st2" d="M34.4,9.9c-1.6,0-2.8,1.3-2.8,2.9s1.3,2.9,2.8,2.9c1.6,0,2.8-1.3,2.8-2.9C37.2,11.2,36,9.9,34.4,9.9 M34.4,14.3c-0.8,0-1.5-0.7-1.5-1.5c0-0.8,0.7-1.5,1.5-1.5c0.8,0,1.5,0.7,1.5,1.5C35.8,13.6,35.2,14.3,34.4,14.3"/><path class="st2" d="M44.3,14.4c-0.2,0-0.4,0.1-0.5,0.1c-0.5,0-0.6-0.2-0.6-0.7v-2.7h1.2V10h-1.2V8.4h-1.3L41.6,10h-0.9l0,0h-0.1 c-0.7,0-1.3,0.5-1.7,1.2L38.5,10h-0.9v5.6h1.6v-2.4c0-1.2,0.7-2,1.5-2h0.9v2.8c0,1.3,0.7,1.8,1.7,1.8c0.5,0,1-0.1,1.2-0.2 L44.3,14.4z"/><polyline class="st2" points="52.1,11.8 52.1,15.6 50.6,15.6 50.6,10 51.5,10 51.8,10.9"/><path class="st2" d="M51.8,10.9c0.5-0.6,1.1-1,1.9-1c1.3,0,1.8,1.1,1.8,2.1v3.7h-1.6V12c0-0.5-0.4-0.7-0.8-0.7 c-0.4,0-0.7,0.3-1,0.5"/><polygon class="st2" points="25.4,8 27.1,8 29.6,12.8 29.6,8 31,8 31,15.6 29.4,15.6 26.8,10.3 26.8,15.6 25.4,15.6"/><path class="st3" d="M24.9,22.4l0.4-0.6c0.3,0.2,0.7,0.4,1.3,0.4c0.5,0,0.9-0.2,0.9-0.7c0-0.5-0.4-0.6-1.1-0.9 c-0.6-0.2-1.2-0.5-1.2-1.4c0-0.9,0.6-1.3,1.5-1.3c0.6,0,1,0.1,1.3,0.3l-0.3,0.6c-0.3-0.2-0.6-0.3-1-0.3c-0.5,0-0.8,0.2-0.8,0.6 c0,0.5,0.3,0.6,1,0.8c0.7,0.2,1.4,0.5,1.4,1.5c0,0.8-0.6,1.4-1.6,1.4C25.8,22.9,25.3,22.7,24.9,22.4"/><polygon class="st3" points="29.6,18 32.4,18 32.4,18.7 30.4,18.7 30.4,20 32,20 32,20.7 30.4,20.7 30.4,22.2 32.5,22.2 32.5,22.9 29.6,22.9"/><path class="st3" d="M33.7,20.4c0-1.4,0.7-2.5,2-2.5c0.6,0,1.1,0.2,1.4,0.6l-0.5,0.5c-0.3-0.3-0.5-0.4-0.9-0.4 c-0.8,0-1.1,0.7-1.1,1.9c0,1.1,0.4,1.7,1.1,1.7c0.4,0,0.7-0.2,1-0.5l0.5,0.5c-0.3,0.4-0.8,0.7-1.5,0.7 C34.3,22.9,33.7,21.9,33.7,20.4"/><path class="st3" d="M38.4,21v-3h0.8v3.1c0,0.7,0.2,1.1,0.8,1.1s0.8-0.4,0.8-1.1V18h0.8v3c0,1.2-0.4,1.9-1.7,1.9 C38.8,22.9,38.4,22.2,38.4,21"/><path class="st3" d="M46.6,22.9h-0.9l-0.9-2.1h-0.7v2.1h-0.8V18h1.5c0.9,0,1.7,0.3,1.7,1.4c0,0.7-0.4,1.1-0.9,1.3L46.6,22.9z M44.8,20.2c0.6,0,0.9-0.2,0.9-0.8c0-0.5-0.3-0.7-0.8-0.7h-0.8v1.5H44.8z"/><polygon class="st3" points="47.9,18 50.7,18 50.7,18.7 48.7,18.7 48.7,20 50.3,20 50.3,20.7 48.7,20.7 48.7,22.2 50.8,22.2 50.8,22.9 47.9,22.9"/><path class="st3" d="M52.2,18h1.2c1.5,0,2.3,0.9,2.3,2.4c0,1.6-0.7,2.4-2.2,2.4h-1.2L52.2,18L52.2,18z M53.3,22.2 c1.1,0,1.5-0.5,1.5-1.8c0-1.1-0.3-1.7-1.4-1.7H53v3.5H53.3z"/><path class="st4" d="M11.9,27.6c-6.2,0-11.3-5.2-11.3-11.7S5.7,4.2,11.9,4.2s11.3,5.2,11.3,11.7S18.2,27.6,11.9,27.6 M11.9,7.9 c-2.1,0-4,0.8-5.5,2.3c-1.5,1.5-2.3,3.5-2.3,5.7c0,2.1,0.8,4.2,2.3,5.7c1.5,1.5,3.4,2.3,5.5,2.3s4-0.8,5.5-2.3 c1.5-1.5,2.3-3.5,2.3-5.7s-0.8-4.2-2.3-5.7C15.9,8.8,14,7.9,11.9,7.9"/><rect x="24.2" y="2.4" class="st4" width=".9" height=".9"/><rect x="24.2" y=".6" class="st4" width=".9" height=".9"/><rect x="21.7" y="3.3" class="st4" width=".8" height=".9"/><rect x="20.1" y="5.1" class="st2" width=".8" height=".9"/><rect x="22.6" y="4.2" class="st2" width=".9" height=".9"/><rect x="19.3" y="4.3" class="st2" width=".8" height=".8"/><rect x="21.7" y="5.1" class="st2" width=".8" height=".9"/><rect x="23.4" y="1.5" class="st2" width=".9" height=".9"/><rect x="21.7" y="2.4" class="st2" width="1.6" height=".9"/><rect x="20.9" y="3.3" class="st2" width=".8" height="1.7"/><path class="st2" d="M20.9,5.9v0.9h-0.8V5.9h-1.4v0.6H18v0.8h0.8v0.9H18V7.3h-0.9v1.3h-0.8v0.9h-0.5v0.9h-0.6 c-0.7,1-2.4,4.3-2.9,5.6c-1.9-2.7-3.3-3.7-4.4-4.1c-0.6-0.2-1.4,0.5-0.3,1.6c2.3,2.7,3.1,4.9,3.8,6.6c0.4,0.9,2,1.1,2.4,0.1 c0.7-2,1.8-4.2,3-6.1v-1h0.7v-0.9H18v-1h0.8v-1H18V9.5h0.8v0.9h0.8V9.5h0.7v-1h0.7V7.7h0.7V5.9L20.9,5.9L20.9,5.9z"/></g></svg>