<svg version="1.1" id="Layer_1" xmlns="http://www.w3.org/2000/svg" xmlns:xlink="http://www.w3.org/1999/xlink" x="0" y="0" viewBox="0 0 86 86" xml:space="preserve" enable-background="new 0 0 86 86"><style type="text/css">.st0{opacity:.1}.st0,.st1{fill:#7e6f9c}.st2{fill:#f5c419}</style><circle class="st0" cx="43" cy="43" r="42.5"/><path class="st1" d="M64.5,31.1c-0.4-0.7-1.1-1.2-1.9-1.4l-23.4-5.8c-0.2-0.1-0.5-0.1-0.7-0.1c-1.4,0-2.6,1-2.9,2.3l-0.7,2.9 L34,33l-4,16.4c-0.2,0.8-0.1,1.6,0.4,2.3c0.4,0.7,1.1,1.2,1.9,1.4l9.4,2.4l6.8,1.7l7.1,1.8c0.2,0.1,0.5,0.1,0.7,0.1 c1.4,0,2.6-1,2.9-2.3l5.6-23.2C65,32.7,64.9,31.8,64.5,31.1z M58.7,44.6l-3.2-5c-0.4-0.6-1-1-1.7-1c-0.5,0-0.9,0.2-1.3,0.5 l-6.8,5.5c-0.2,0.2-0.5,0.3-0.7,0.3c-0.4,0-0.7-0.2-0.9-0.4l-2.6-3.1c-0.5-0.6-1.3-1-2.1-1c-0.4,0-0.8,0.1-1.1,0.3l-3,1.5 l3.6-14.8L61.5,33L58.7,44.6z M44.4,37.3c0.2,0.1,0.5,0.1,0.7,0.1c1.4,0,2.6-1,2.9-2.3c0.4-1.6-0.6-3.3-2.2-3.7 c-0.2-0.1-0.5-0.1-0.7-0.1c-1.4,0-2.6,1-2.9,2.3C41.8,35.2,42.8,36.9,44.4,37.3z"/><path class="st2" d="M41.7,55.5l-11.7,3.2L24.5,36L34,33l0.9-3.9l-11.7,3.8c-1.6,0.5-2.5,2.2-2.1,3.8l5.6,23.2 c0.2,0.8,0.7,1.5,1.4,1.9c0.5,0.3,1,0.4,1.5,0.4c0.3,0,0.5,0,0.8-0.1l18-4.9L41.7,55.5z"/></svg>