<svg version="1.1" id="Layer_1" xmlns="http://www.w3.org/2000/svg" xmlns:xlink="http://www.w3.org/1999/xlink" x="0" y="0" viewBox="0 0 86 86" xml:space="preserve" enable-background="new 0 0 86 86"><style type="text/css">.st0{opacity:.1;fill:#7e6f9c}.st1{fill:#796998}.st2{fill:#f5c210}</style><circle class="st0" cx="43" cy="43" r="42.5"/><path class="st1" d="M43,32L26.6,45.6c0,0,0,0,0,0.1c0,0,0,0.1,0,0.1v13.8c0,0.5,0.2,0.9,0.5,1.3c0.4,0.4,0.8,0.5,1.3,0.5h11V50.4 h7.3v11.1h11c0.5,0,0.9-0.2,1.3-0.5c0.4-0.4,0.5-0.8,0.5-1.3V45.8c0-0.1,0-0.1,0-0.2L43,32z"/><path class="st2" d="M65.7,42.5l-6.2-5.2V25.5c0-0.3-0.1-0.5-0.3-0.7c-0.2-0.2-0.4-0.3-0.7-0.3H53c-0.3,0-0.5,0.1-0.7,0.3 c-0.2,0.2-0.3,0.4-0.3,0.7v5.6l-7-5.9c-0.6-0.5-1.3-0.7-2.2-0.7c-0.8,0-1.6,0.2-2.2,0.7L20.3,42.5c-0.2,0.2-0.3,0.4-0.3,0.6 c0,0.3,0,0.5,0.2,0.7L22,46c0.2,0.2,0.4,0.3,0.6,0.3c0.2,0,0.5,0,0.7-0.2L43,29.4l19.7,16.6c0.2,0.1,0.4,0.2,0.6,0.2h0.1 c0.2,0,0.4-0.1,0.6-0.3l1.8-2.1c0.2-0.2,0.2-0.4,0.2-0.7C66,42.9,65.9,42.7,65.7,42.5z"/></svg>