<?xml version="1.0" encoding="utf-8"?>
<!-- Generator: Adobe Illustrator 19.2.1, SVG Export Plug-In . SVG Version: 6.00 Build 0)  -->
<svg version="1.1" id="Layer_1" xmlns="http://www.w3.org/2000/svg" xmlns:xlink="http://www.w3.org/1999/xlink" x="0px" y="0px"
	 viewBox="0 0 52 52" style="enable-background:new 0 0 52 52;" xml:space="preserve">
<style type="text/css">
	.st0{fill:#FFFFFF;}
	.st1{fill:#D80B0B;}
	.st2{fill:#C10606;}
	.st3{fill:#A80505;}
	.st4{fill:#F24033;}
</style>
<circle class="st0" cx="26" cy="26" r="25"/>
<g>
	<g>
		<path class="st1" d="M24.55,23.52v5.02c0,0,5.08-0.01,7.1-0.01c-1.1,3.33-2.75,5.14-6.95,5.14c-4.25,0-7.54-3.45-7.54-7.71
			c0-4.26,3.33-7.71,7.58-7.71c2.25,0,3.7,0.79,5.03,1.89c1.06-1.07,0.98-1.22,3.69-3.78c-2.3-2.1-5.36-3.38-8.71-3.38
			C17.6,13,11.8,18.81,11.8,25.97S17.6,39,24.75,39c10.69,0,13.3-9.6,12.43-15.48L24.55,23.52L24.55,23.52z"/>
		<polygon class="st1" points="39.26,17.64 39.26,14.69 37.3,14.69 37.3,17.64 34.35,17.64 34.35,19.6 37.3,19.6 37.3,22.54 
			39.26,22.54 39.26,19.6 42.2,19.6 42.2,17.64 		"/>
	</g>
	<g>
		<path class="st2" d="M14.38,18.2l3.85,3.85c1.3-2.26,3.7-3.78,6.52-3.78c2.25,0,3.7,0.79,5.03,1.89c1.06-1.07,0.98-1.22,3.69-3.78
			c-2.3-2.1-5.36-3.38-8.71-3.38C20.51,13,16.74,15.04,14.38,18.2z"/>
		<path class="st2" d="M24.55,23.52l0.02,4.9c0,0,5.05,0,7.08,0c-0.63,1.96-1.37,3.42-2.76,4.28l3.76,3.82
			c4.08-3.19,5.13-9.08,4.54-13L24.55,23.52L24.55,23.52z"/>
	</g>
	<path class="st3" d="M29.78,20.16c1.06-1.07,0.98-1.22,3.69-3.78c-0.51-0.46-1.06-0.88-1.63-1.26l-3.86,3.86
		C28.63,19.29,29.22,19.69,29.78,20.16z"/>
	<path class="st4" d="M32.65,29.46l-0.08-0.06c0,0,0,0,0,0c-0.01,0-0.01,0-0.02,0l-0.95-0.86L31.3,29.4c0,0,0,0,0,0
		c-1.25,2.87-2.77,4.28-6.6,4.28c-1.5,0-2.83-0.43-3.99-1.17c1.34,1.25,3.12,2.09,5.12,2.01c3.52-0.13,5.34-1.48,6.41-4.2
		L32.65,29.46z"/>
	<path class="st3" d="M24.55,28.54c0,0,0.98,0,6.86,0v-5.02h-6.86V28.54z"/>
	<path class="st4" d="M12.88,26.81c0-7.16,5.8-12.97,12.95-12.97c2.74,0,5.27,0.85,7.36,2.3C30.92,14.18,27.98,13,24.75,13
		C17.6,13,11.8,18.81,11.8,25.97c0,4.42,2.21,8.32,5.57,10.66C14.62,34.25,12.88,30.73,12.88,26.81z"/>
	<polygon class="st2" points="39.26,17.7 37.14,19.6 37.3,19.6 37.3,22.54 39.26,22.54 39.26,19.6 42.2,19.6 42.2,17.64 
		39.26,17.64 	"/>
</g>
</svg>
