<?xml version="1.0" encoding="utf-8"?>
<!-- Generator: Adobe Illustrator 19.2.1, SVG Export Plug-In . SVG Version: 6.00 Build 0)  -->
<svg version="1.1" id="Layer_1" xmlns="http://www.w3.org/2000/svg" xmlns:xlink="http://www.w3.org/1999/xlink" x="0px" y="0px"
	 viewBox="0 0 52 52" style="enable-background:new 0 0 52 52;" xml:space="preserve">
<style type="text/css">
	.st0{fill:#FFFFFF;}
	.st1{fill:#24AEF0;}
	.st2{fill:#22D5FF;}
	.st3{fill:#0B97CE;}
	.st4{fill:#0798D8;}
	.st5{fill:#0D83CC;}
</style>
<circle class="st0" cx="26" cy="26" r="25"/>
<g>
	<path class="st1" d="M39.5,26.14c0-7.27-5.98-13.17-13.35-13.17c-0.78,0-1.54,0.07-2.28,0.19C22.67,12.43,21.26,12,19.75,12
		C15.47,12,12,15.42,12,19.64c0,1.41,0.39,2.73,1.06,3.86c-0.18,0.85-0.27,1.74-0.27,2.64c0,7.27,5.98,13.17,13.35,13.17
		c0.84,0,1.65-0.08,2.45-0.22c1.09,0.58,2.34,0.91,3.66,0.91c4.28,0,7.74-3.42,7.74-7.64c0-1.22-0.29-2.37-0.8-3.39
		C39.4,28.06,39.5,27.12,39.5,26.14z M33,32.44c-0.62,0.86-1.53,1.55-2.71,2.03c-1.17,0.48-2.57,0.72-4.17,0.72
		c-1.92,0-3.53-0.33-4.78-0.99c-0.9-0.48-1.64-1.12-2.2-1.92c-0.57-0.8-0.85-1.61-0.85-2.38c0-0.48,0.19-0.9,0.56-1.24
		c0.37-0.34,0.84-0.51,1.39-0.51c0.46,0,0.85,0.14,1.18,0.4c0.31,0.26,0.57,0.64,0.78,1.13c0.24,0.54,0.49,0.99,0.77,1.34
		c0.26,0.34,0.64,0.63,1.12,0.86c0.48,0.22,1.14,0.34,1.94,0.34c1.1,0,2.01-0.23,2.69-0.69c0.67-0.45,0.99-0.98,0.99-1.64
		c0-0.52-0.17-0.93-0.51-1.25c-0.37-0.33-0.85-0.59-1.43-0.78c-0.61-0.18-1.43-0.39-2.45-0.6c-1.39-0.29-2.57-0.64-3.5-1.03
		c-0.96-0.4-1.73-0.96-2.29-1.65c-0.57-0.71-0.86-1.6-0.86-2.64c0-0.99,0.31-1.89,0.91-2.66c0.6-0.77,1.47-1.37,2.59-1.78
		c1.11-0.4,2.42-0.61,3.92-0.61c1.19,0,2.24,0.14,3.12,0.41c0.88,0.27,1.62,0.63,2.2,1.08c0.59,0.45,1.03,0.94,1.3,1.44
		c0.28,0.51,0.42,1.01,0.42,1.5c0,0.47-0.18,0.9-0.55,1.27c-0.36,0.38-0.83,0.57-1.37,0.57c-0.49,0-0.88-0.12-1.15-0.35
		c-0.25-0.22-0.51-0.56-0.8-1.05c-0.33-0.62-0.74-1.11-1.2-1.46c-0.45-0.34-1.2-0.51-2.23-0.51c-0.95,0-1.74,0.19-2.31,0.56
		c-0.56,0.36-0.83,0.77-0.83,1.26c0,0.3,0.09,0.55,0.27,0.77c0.19,0.23,0.46,0.43,0.8,0.6c0.35,0.17,0.71,0.31,1.07,0.41
		c0.37,0.1,0.99,0.25,1.85,0.45c1.08,0.23,2.07,0.49,2.95,0.76c0.89,0.28,1.66,0.62,2.29,1.03c0.64,0.41,1.14,0.94,1.5,1.57
		c0.36,0.63,0.54,1.41,0.54,2.32C33.93,30.59,33.62,31.57,33,32.44z"/>
	<g>
		<path class="st2" d="M17.22,35.93c0.08,0.07,0.16,0.15,0.24,0.22c-0.29-0.34-0.58-0.71-0.89-1.1
			C16.79,35.35,17.01,35.65,17.22,35.93z"/>
		<path class="st2" d="M22.93,35.81c1.26,0.66,2.87,0.99,4.78,0.99c1.6,0,3-0.24,4.17-0.72c1.19-0.48,2.1-1.17,2.72-2.03
			c0.62-0.87,0.93-1.85,0.93-2.94c0-0.91-0.18-1.69-0.54-2.32c-0.36-0.63-0.87-1.16-1.5-1.57c-0.04-0.02-0.08-0.05-0.12-0.07
			c0.01,0.01,0.02,0.02,0.02,0.03c0.36,0.63,0.54,1.41,0.54,2.32c0,1.08-0.32,2.07-0.94,2.94c-0.62,0.86-1.53,1.55-2.71,2.03
			c-1.17,0.48-2.57,0.72-4.17,0.72c-1.92,0-3.53-0.33-4.78-0.99c-0.22-0.12-0.43-0.25-0.64-0.38c0.01,0.02,0.03,0.04,0.04,0.06
			C21.3,34.68,22.04,35.33,22.93,35.81z"/>
	</g>
	<path class="st3" d="M24.07,31.87c0.48,0.22,1.14,0.34,1.94,0.34c1.1,0,2.01-0.23,2.69-0.69c0.67-0.45,0.99-0.98,0.99-1.64
		c0-0.52-0.17-0.93-0.51-1.25c-0.14-0.13-0.31-0.24-0.48-0.35c-1.64,1.33-3.59,2.29-5.73,2.75C23.23,31.37,23.6,31.65,24.07,31.87z"
		/>
	<path class="st4" d="M39.2,28.97c0.2-0.91,0.31-1.86,0.31-2.83c0-4.58-2.38-8.62-5.98-10.98c0.15,0.81,0.23,1.64,0.23,2.5
		c0,2.84-0.87,5.48-2.35,7.67c0.17,0.09,0.33,0.18,0.48,0.28c0.64,0.41,1.14,0.94,1.5,1.57c0.36,0.63,0.54,1.41,0.54,2.32
		c0,1.08-0.32,2.07-0.94,2.94c-0.62,0.86-1.53,1.55-2.71,2.03c-1.17,0.48-2.57,0.72-4.17,0.72c-1.92,0-3.53-0.33-4.78-0.99
		c-0.9-0.48-1.64-1.12-2.2-1.92c-0.24-0.34-0.43-0.69-0.57-1.03c-1.93-0.21-3.73-0.83-5.33-1.76c1.5,5.65,6.72,9.82,12.92,9.82
		c0.84,0,1.65-0.08,2.45-0.22c1.09,0.58,2.34,0.91,3.66,0.91c4.28,0,7.74-3.42,7.74-7.64C40,31.15,39.71,29.99,39.2,28.97z"/>
	<path class="st5" d="M39.29,28.47c-1.95,4.8-5.72,8.67-10.45,10.75c1.03,0.5,2.19,0.79,3.42,0.79c4.28,0,7.74-3.42,7.74-7.64
		c0-1.22-0.29-2.37-0.8-3.39C39.23,28.81,39.26,28.64,39.29,28.47z"/>
	<g>
		<path class="st2" d="M27.78,13.24c1.27,0.16,2.46,0.42,3.53,0.75c-1.59-0.66-3.33-1.02-5.15-1.02c-0.59,0-1.16,0.04-1.73,0.11
			C25.47,13.05,26.6,13.1,27.78,13.24z"/>
		<path class="st2" d="M36.19,17.47c0.01,0.03,0.02,0.07,0.03,0.1c0.07,0.06,0.15,0.11,0.22,0.17
			C36.36,17.66,36.27,17.57,36.19,17.47z"/>
		<path class="st2" d="M20.55,13.09c0.62,0,1.21,0.07,1.79,0.21c0.46-0.08,0.94-0.14,1.45-0.18C22.61,12.41,21.23,12,19.75,12
			C15.47,12,12,15.42,12,19.64c0,1.41,0.39,2.73,1.06,3.86c-0.18,0.85-0.27,1.74-0.27,2.64c0,0.21,0.01,0.42,0.02,0.63
			c0.19-0.96,0.51-1.8,0.91-2.45c-0.58-1.07-0.92-2.29-0.92-3.6C12.8,16.51,16.27,13.09,20.55,13.09z"/>
	</g>
</g>
</svg>
