<?xml version="1.0" encoding="utf-8"?>
<!-- Generator: Adobe Illustrator 19.2.1, SVG Export Plug-In . SVG Version: 6.00 Build 0)  -->
<svg version="1.1" id="Layer_1" xmlns="http://www.w3.org/2000/svg" xmlns:xlink="http://www.w3.org/1999/xlink" x="0px" y="0px"
	 viewBox="0 0 52 52" style="enable-background:new 0 0 52 52;" xml:space="preserve">
<style type="text/css">
	.st0{fill:#FFFFFF;}
	.st1{fill:#6D8599;}
	.st2{fill:#32455C;}
	.st3{fill:#1B2B3A;}
</style>
<circle class="st0" cx="26" cy="26" r="25"/>
<g>
	<path class="st1" d="M32.66,34.36c-0.51,0.25-1.44,0.47-2.17,0.48c-2.2,0.06-2.6-1.58-2.6-2.76v-8.8h5.41v-4.06H27.9V12h-4.09
		c-0.07,0-0.29,0.03-0.31,0.18c-0.24,2.19-1.01,6-5.51,7.53v3.55h3.16v9.24c0,3.14,2.19,7.6,8.17,7.49c2.02-0.04,4.22-0.9,4.72-1.64
		L32.66,34.36z"/>
	<path class="st2" d="M32.66,34.36c-0.51,0.25-1.44,0.47-2.17,0.48c-2.2,0.06-2.6-1.58-2.6-2.76v-8.8h5.41v-4.06H27.9V12h-4.09
		c-0.07,0-0.29,0.03-0.31,0.18c-0.34,3.11,0.35,6.37-5.51,7.53v3.55h3.71l-0.55,9.1c0,3.14,2.11,7.72,8.09,7.61
		c2.02-0.04,4.26-0.89,4.75-1.63L32.66,34.36z"/>
	<path class="st3" d="M33.98,38.36l-1.32-4c-0.51,0.25-1.44,0.47-2.17,0.48c-2.2,0.06-2.6-1.58-2.6-2.76v-8.8h-0.07l0.05,0.01
		l-6.74,6.85v2.37c0,1.5,0.45,3.31,1.64,4.77l0.96,1c1.3,1.06,3.09,1.76,5.5,1.72C31.27,39.96,33.49,39.1,33.98,38.36z"/>
</g>
</svg>
