<?xml version="1.0" encoding="utf-8"?>
<!-- Generator: Adobe Illustrator 19.2.1, SVG Export Plug-In . SVG Version: 6.00 Build 0)  -->
<svg version="1.1" id="Layer_1" xmlns="http://www.w3.org/2000/svg" xmlns:xlink="http://www.w3.org/1999/xlink" x="0px" y="0px"
	 viewBox="0 0 52 52" style="enable-background:new 0 0 52 52;" xml:space="preserve">
<style type="text/css">
	.st0{fill:#FFFFFF;}
	.st1{fill:#24A9E6;}
	.st2{fill:#169FDB;}
	.st3{fill:#3DC8F9;}
</style>
<circle class="st0" cx="26" cy="26" r="25"/>
<g>
	<path id="SVGCleanerId_0" class="st1" d="M38.31,15.7c-1.03,0.63-2.18,1.08-3.4,1.33c-0.97-1.07-2.36-1.73-3.9-1.73
		c-2.95,0-5.34,2.45-5.34,5.48c0,0.43,0.05,0.85,0.14,1.25c-4.44-0.23-8.38-2.41-11.02-5.73c-0.46,0.81-0.72,1.75-0.72,2.76
		c0,1.9,0.94,3.58,2.37,4.56c-0.87-0.03-1.6-0.28-2.43-0.68V23c0,2.66,1.85,4.87,4.29,5.37c-0.45,0.13-0.92,0.19-1.41,0.19
		c-0.34,0-0.68-0.03-1-0.1c0.68,2.18,2.65,3.76,4.99,3.8c-1.83,1.47-4.13,2.35-6.64,2.35c-0.43,0-0.86-0.02-1.28-0.08
		c2.37,1.55,5.18,2.46,8.19,2.46c9.83,0,15.21-8.35,15.21-15.59c0-0.24-0.01-0.48-0.01-0.71c1.04-0.77,1.95-1.74,2.66-2.84
		c-0.96,0.44-1.99,0.73-3.07,0.86C37.06,18.05,37.91,16.97,38.31,15.7z"/>
	<g>
		<path id="SVGCleanerId_0_1_" class="st1" d="M38.31,15.7c-1.03,0.63-2.18,1.08-3.4,1.33c-0.97-1.07-2.36-1.73-3.9-1.73
			c-2.95,0-5.34,2.45-5.34,5.48c0,0.43,0.05,0.85,0.14,1.25c-4.44-0.23-8.38-2.41-11.02-5.73c-0.46,0.81-0.72,1.75-0.72,2.76
			c0,1.9,0.94,3.58,2.37,4.56c-0.87-0.03-1.6-0.28-2.43-0.68V23c0,2.66,1.85,4.87,4.29,5.37c-0.45,0.13-0.92,0.19-1.41,0.19
			c-0.34,0-0.68-0.03-1-0.1c0.68,2.18,2.65,3.76,4.99,3.8c-1.83,1.47-4.13,2.35-6.64,2.35c-0.43,0-0.86-0.02-1.28-0.08
			c2.37,1.55,5.18,2.46,8.19,2.46c9.83,0,15.21-8.35,15.21-15.59c0-0.24-0.01-0.48-0.01-0.71c1.04-0.77,1.95-1.74,2.66-2.84
			c-0.96,0.44-1.99,0.73-3.07,0.86C37.06,18.05,37.91,16.97,38.31,15.7z"/>
	</g>
	<g>
		<path class="st2" d="M39.02,17.86c-0.96,0.44-1.99,0.73-3.07,0.86c1.1-0.68,1.95-1.75,2.35-3.03c-1.03,0.63-2.18,1.08-3.4,1.33
			c-0.97-1.07-2.36-1.73-3.9-1.73c-2.95,0-5.34,2.45-5.34,5.48c0,0.43,0.05,0.85,0.14,1.25c0,0-0.01,0-0.01,0l8.03,8.04
			c1.67-2.65,2.54-5.74,2.54-8.65c0-0.24-0.01-0.48-0.01-0.71C37.4,19.93,38.31,18.96,39.02,17.86z"/>
		<path class="st2" d="M20.88,32.27c-1.83,1.47-4.13,2.34-6.63,2.34c-0.43,0-0.86-0.02-1.28-0.08c2.37,1.55,5.18,2.46,8.19,2.46
			c1.41,0,2.73-0.18,3.95-0.49L20.88,32.27z"/>
	</g>
	<g>
		<path class="st3" d="M38.31,15.7c-1.03,0.63-2.18,1.08-3.4,1.33c-0.97-1.07-2.36-1.73-3.9-1.73c-2.95,0-5.34,2.45-5.34,5.48
			c0,0.43,0.05,0.85,0.14,1.25c-3.66-0.19-6.97-1.7-9.5-4.08c2.6,2.74,6.16,4.51,10.13,4.71c-0.09-0.4-0.14-0.82-0.14-1.25
			c0-3.03,2.39-5.48,5.34-5.48c1.54,0,2.93,0.66,3.9,1.73"/>
		<path class="st3" d="M17.59,28.52c-0.22,0.03-0.45,0.04-0.68,0.04c-0.34,0-0.68-0.03-1.01-0.1c0.32,1.01,0.91,1.88,1.69,2.54
			c-0.47-0.55-0.83-1.2-1.05-1.91"/>
	</g>
	<path class="st1" d="M38.12,19.05c0.33-0.38,0.64-0.77,0.91-1.19c-0.39,0.18-0.8,0.32-1.21,0.45"/>
	<g>
		<path class="st3" d="M13.51,34.71c-0.11-0.01-0.29-0.04-0.41-0.09c0.36,0.23,0.66,0.41,1.03,0.62c0.25,0.02,0.5,0.08,0.75,0.08
			c2.5,0,4.81-1.05,6.64-2.29c0,0-0.01,0-0.01,0C19.12,34.27,16.43,35.08,13.51,34.71z"/>
		<path class="st3" d="M16.02,23.28c-0.82-0.96-1.32-2.22-1.32-3.59c0-0.98,0.25-1.89,0.69-2.69c-0.21-0.23-0.41-0.46-0.6-0.7
			c-0.46,0.81-0.72,1.75-0.72,2.76C14.07,20.75,14.83,22.28,16.02,23.28z"/>
		<path class="st3" d="M16.44,23.61c-0.83-0.05-1.6-0.3-2.43-0.68V23c0,1.7,0.76,3.22,1.94,4.22c-0.82-0.96-1.12-2.22-1.12-3.59
			v-0.11"/>
		<path class="st3" d="M23.89,19.3c0,0,0.81-2.48-3.69-3.74c0,0,0.38,2.04,1.54,3.03C23,19.68,23.89,19.3,23.89,19.3z"/>
		<path class="st3" d="M24.81,18.3c0,0,0.93-0.55-0.11-2.18c0,0-0.44,0.74-0.36,1.37C24.43,18.17,24.81,18.3,24.81,18.3z"/>
		<path class="st3" d="M20.86,19.57c0,0-0.99,0.45-1.72-1.35c0,0,0.86,0.06,1.33,0.49C20.98,19.19,20.86,19.57,20.86,19.57z"/>
	</g>
	<g>
		<path class="st1" d="M25.01,21.4c0,0-1.01,0.38-1.63-1.46c0,0,0.85,0.12,1.29,0.58C25.15,21.02,25.01,21.4,25.01,21.4z"/>
		<circle class="st1" cx="22.4" cy="20.21" r="0.4"/>
		<circle class="st1" cx="19.82" cy="17.12" r="0.15"/>
		<circle class="st1" cx="23.03" cy="15.08" r="0.08"/>
	</g>
	<circle class="st3" cx="23.33" cy="16.24" r="0.28"/>
</g>
</svg>
