<?xml version="1.0" encoding="utf-8"?>
<!-- Generator: Adobe Illustrator 19.2.1, SVG Export Plug-In . SVG Version: 6.00 Build 0)  -->
<svg version="1.1" id="Layer_1" xmlns="http://www.w3.org/2000/svg" xmlns:xlink="http://www.w3.org/1999/xlink" x="0px" y="0px"
	 viewBox="0 0 52 52" style="enable-background:new 0 0 52 52;" xml:space="preserve">
<style type="text/css">
	.st0{fill:#FFFFFF;}
	.st1{fill:#7FD371;}
	.st2{fill:#6DBC61;}
	.st3{fill:#549B45;}
	.st4{fill:#5CAA4F;}
</style>
<circle class="st0" cx="26" cy="26" r="25"/>
<g>
	<path class="st1" d="M26,10L26,10L26,10c-8.28,0-15,6.73-15,15c0,3.28,1.06,6.32,2.86,8.79l-1.87,5.57l5.76-1.84
		C20.12,39.09,22.95,40,26,40c8.27,0,15-6.73,15-15C41,16.73,34.27,10,26,10z M34.73,31.18c-0.36,1.02-1.8,1.87-2.94,2.12
		c-0.78,0.17-1.81,0.3-5.25-1.13c-4.41-1.83-7.25-6.3-7.47-6.6c-0.21-0.29-1.78-2.37-1.78-4.52s1.09-3.2,1.53-3.65
		c0.36-0.37,0.96-0.54,1.53-0.54c0.19,0,0.35,0.01,0.5,0.02c0.44,0.02,0.66,0.05,0.95,0.74c0.36,0.87,1.24,3.02,1.35,3.24
		c0.11,0.22,0.21,0.52,0.06,0.81c-0.14,0.3-0.26,0.43-0.48,0.69c-0.22,0.25-0.43,0.45-0.65,0.72c-0.2,0.24-0.43,0.49-0.18,0.93
		c0.26,0.43,1.14,1.87,2.43,3.02c1.67,1.49,3.03,1.97,3.52,2.17c0.36,0.15,0.79,0.11,1.06-0.17c0.33-0.36,0.75-0.96,1.17-1.55
		c0.3-0.42,0.68-0.48,1.08-0.33c0.41,0.14,2.55,1.2,2.99,1.42c0.44,0.22,0.73,0.33,0.84,0.51C35.09,29.29,35.09,30.16,34.73,31.18z"
		/>
	<path class="st2" d="M11,25c0,3.28,1.06,6.32,2.86,8.79l-1.87,5.57l5.76-1.84C20.12,39.09,22.95,40,26,40c8.27,0,15-6.73,15-15
		c0-8.27-6.73-15-15-15H26l0,0 M34.73,31.18c-0.36,1.02-1.8,1.87-2.94,2.12c-0.78,0.17-1.81,0.3-5.25-1.13
		c-4.41-1.83-7.25-6.3-7.47-6.6c-0.21-0.29-1.78-2.37-1.78-4.52s1.09-3.2,1.53-3.65c0.36-0.37,0.96-0.54,1.53-0.54
		c0.19,0,0.35,0.01,0.5,0.02c0.44,0.02,0.66,0.05,0.95,0.74c0.36,0.87,1.24,3.02,1.35,3.24c0.11,0.22,0.21,0.52,0.06,0.81
		c-0.14,0.3-0.26,0.43-0.48,0.69c-0.22,0.25-0.43,0.45-0.65,0.72c-0.2,0.24-0.43,0.49-0.18,0.93c0.26,0.43,1.14,1.87,2.43,3.02
		c1.67,1.49,3.03,1.97,3.52,2.17c0.36,0.15,0.79,0.11,1.06-0.17c0.33-0.36,0.75-0.96,1.17-1.55c0.3-0.42,0.68-0.48,1.08-0.33
		c0.41,0.14,2.55,1.2,2.99,1.42c0.44,0.22,0.73,0.33,0.84,0.51C35.09,29.29,35.09,30.16,34.73,31.18z"/>
	<g>
		<path class="st3" d="M30.8,10.79c3.82,3.27,6.32,8.27,6.32,12.5c0,2.33-0.76,4.51-2.08,6.38c-0.02,0.39-0.1,0.92-0.31,1.51
			c-0.36,1.02-1.8,1.87-2.94,2.12c-0.21,0.05-0.44,0.09-0.73,0.1c-2.51,1.57-5.62,2.49-8.99,2.49c-3.03,0-5.86-0.75-8.22-2.05
			l-1.85,5.53l5.76-1.84C20.12,39.09,22.95,40,26,40c8.27,0,15-6.73,15-15C41,18.41,36.72,12.8,30.8,10.79z"/>
		<path class="st3" d="M31.16,27.17c0.1,0.03,0.31,0.13,0.57,0.25L21.7,17.39c0.03,0.07,0.07,0.14,0.11,0.23
			c0.36,0.87,1.24,3.02,1.35,3.24c0.11,0.22,0.21,0.52,0.06,0.81c-0.14,0.3-0.26,0.43-0.48,0.69c-0.22,0.25-0.43,0.45-0.65,0.72
			c-0.2,0.24-0.43,0.49-0.18,0.93c0.26,0.43,1.14,1.87,2.43,3.02c1.67,1.49,3.03,1.97,3.52,2.17c0.36,0.15,0.79,0.11,1.06-0.17
			c0.33-0.36,0.75-0.96,1.17-1.55C30.39,27.07,30.77,27.02,31.16,27.17z"/>
	</g>
	<path class="st4" d="M17.29,21.06l-0.1,0.1l0.11,0.11C17.29,21.2,17.29,21.13,17.29,21.06z"/>
</g>
</svg>
