<svg xmlns="http://www.w3.org/2000/svg" width="25" height="22" viewBox="0 0 25 22">
  <metadata><?xpacket begin="﻿" id="W5M0MpCehiHzreSzNTczkc9d"?>
<x:xmpmeta xmlns:x="adobe:ns:meta/" x:xmptk="Adobe XMP Core 5.6-c138 79.159824, 2016/09/14-01:09:01        ">
   <rdf:RDF xmlns:rdf="http://www.w3.org/1999/02/22-rdf-syntax-ns#">
      <rdf:Description rdf:about=""/>
   </rdf:RDF>
</x:xmpmeta>
                                                                                                    
                                                                                                    
                                                                                                    
                                                                                                    
                                                                                                    
                                                                                                    
                                                                                                    
                                                                                                    
                                                                                                    
                                                                                                    
                                                                                                    
                                                                                                    
                                                                                                    
                                                                                                    
                                                                                                    
                                                                                                    
                                                                                                    
                                                                                                    
                                                                                                    
                                                                                                    
                           
<?xpacket end="w"?></metadata>
<defs>
    <style>
      .cls-1 {
        fill: #e7114c;
        fill-rule: evenodd;
      }
    </style>
  </defs>
  <path id="criminal" class="cls-1" d="M806.155,1100.34v-2.07a1.53,1.53,0,0,0-1.563-1.49h-1a1.581,1.581,0,0,0-.245-0.32,1.677,1.677,0,0,0-2.2,0,1.484,1.484,0,0,0-.246.32h-1a1.531,1.531,0,0,0-1.564,1.49v2.07a5.9,5.9,0,0,0-2.344,4.67,6.257,6.257,0,0,0,12.5,0A5.892,5.892,0,0,0,806.155,1100.34Zm-3.906,7.67a3,3,0,1,1,3.123-3A3.07,3.07,0,0,1,802.249,1108.01Zm16.92-14.72a6.417,6.417,0,0,0-5.1-1.71l-1.529-1.47a1.62,1.62,0,0,0-2.209,0l-0.751.72a1.667,1.667,0,0,0-1.407.4,1.479,1.479,0,0,0-.454,1.05,1.416,1.416,0,0,0,.034.31l-0.737.7a1.457,1.457,0,0,0,0,2.12l1.528,1.46a5.83,5.83,0,0,0,1.787,4.89,6.457,6.457,0,0,0,8.84,0A5.822,5.822,0,0,0,819.169,1093.29Zm-2.211,6.35a3.222,3.222,0,0,1-4.42,0,2.908,2.908,0,0,1,0-4.23h0a3.214,3.214,0,0,1,4.419,0A2.9,2.9,0,0,1,816.958,1099.64Zm-11.431-7.65a0.92,0.92,0,0,0,.285-0.03,1.5,1.5,0,0,0,1.257-1.73,1.547,1.547,0,0,0-1.814-1.21,1.5,1.5,0,0,0-1.266,1.74A1.556,1.556,0,0,0,805.527,1091.99Zm-3.42,2.71a1.491,1.491,0,0,0,.352.04,1.543,1.543,0,0,0,1.523-1.16,1.489,1.489,0,0,0-1.164-1.79,1.561,1.561,0,0,0-1.874,1.12A1.488,1.488,0,0,0,802.107,1094.7Z" transform="translate(-796 -1089)"/>
</svg>
