<svg xmlns="http://www.w3.org/2000/svg" width="20" height="20" viewBox="0 0 20 20">
  <metadata><?xpacket begin="﻿" id="W5M0MpCehiHzreSzNTczkc9d"?>
<x:xmpmeta xmlns:x="adobe:ns:meta/" x:xmptk="Adobe XMP Core 5.6-c138 79.159824, 2016/09/14-01:09:01        ">
   <rdf:RDF xmlns:rdf="http://www.w3.org/1999/02/22-rdf-syntax-ns#">
      <rdf:Description rdf:about=""/>
   </rdf:RDF>
</x:xmpmeta>
                                                                                                    
                                                                                                    
                                                                                                    
                                                                                                    
                                                                                                    
                                                                                                    
                                                                                                    
                                                                                                    
                                                                                                    
                                                                                                    
                                                                                                    
                                                                                                    
                                                                                                    
                                                                                                    
                                                                                                    
                                                                                                    
                                                                                                    
                                                                                                    
                                                                                                    
                                                                                                    
                           
<?xpacket end="w"?></metadata>
<defs>
    <style>
      .cls-1 {
        fill: #f5c419;
        fill-rule: evenodd;
      }
    </style>
  </defs>
  <path id="_-e-Forma_1" data-name="-e-Forma 1" class="cls-1" d="M732.921,1085.24h2.712a1.064,1.064,0,0,0,1.038-1.08,0.76,0.76,0,0,1,.751-0.78h7.155a0.76,0.76,0,0,1,.75.78,1.063,1.063,0,0,0,1.038,1.08h2.711a1.063,1.063,0,0,0,1.039-1.08v-2.1a3,3,0,0,0-2.939-3.06H734.821a3,3,0,0,0-2.938,3.06v2.1A1.063,1.063,0,0,0,732.921,1085.24Zm18,10.96-1.319-4.82a5.409,5.409,0,0,0-4.591-3.99v-1.28a1.415,1.415,0,1,0-2.828,0v1.24h-2.365v-1.24a1.415,1.415,0,1,0-2.827,0v1.28a5.392,5.392,0,0,0-4.591,3.99l-1.319,4.82a2.282,2.282,0,0,0,.346,1.93,2.084,2.084,0,0,0,1.687.87h15.774a2.085,2.085,0,0,0,1.686-.87A2.282,2.282,0,0,0,750.919,1096.2Zm-10.452.03a0.372,0.372,0,0,1-.365.38h-1.873a0.372,0.372,0,0,1-.365-0.38v-1.95a0.372,0.372,0,0,1,.365-0.38H740.1a0.372,0.372,0,0,1,.365.38v1.95Zm0-3.81a0.372,0.372,0,0,1-.365.38H738.23a0.372,0.372,0,0,1-.365-0.38v-1.95a0.372,0.372,0,0,1,.365-0.38H740.1a0.372,0.372,0,0,1,.365.38v1.95Zm3.667,3.81a0.373,0.373,0,0,1-.364.38H741.9a0.373,0.373,0,0,1-.365-0.38v-1.95a0.373,0.373,0,0,1,.365-0.38h1.874a0.373,0.373,0,0,1,.364.38v1.95Zm0-3.81a0.373,0.373,0,0,1-.364.38H741.9a0.372,0.372,0,0,1-.365-0.38v-1.95a0.372,0.372,0,0,1,.365-0.38h1.873a0.373,0.373,0,0,1,.364.38v1.95Z" transform="translate(-731 -1079)"/>
</svg>
